<?xml version="1.0" encoding="utf-8" standalone="no"?>
<!DOCTYPE svg PUBLIC "-//W3C//DTD SVG 1.1//EN"
  "http://www.w3.org/Graphics/SVG/1.1/DTD/svg11.dtd">
<svg xmlns:xlink="http://www.w3.org/1999/xlink" width="1440pt" height="648pt" viewBox="0 0 1440 648" xmlns="http://www.w3.org/2000/svg" version="1.1">
 <metadata>
  <rdf:RDF xmlns:dc="http://purl.org/dc/elements/1.1/" xmlns:cc="http://creativecommons.org/ns#" xmlns:rdf="http://www.w3.org/1999/02/22-rdf-syntax-ns#">
   <cc:Work>
    <dc:type rdf:resource="http://purl.org/dc/dcmitype/StillImage"/>
    <dc:date>2024-05-24T15:09:53.696022</dc:date>
    <dc:format>image/svg+xml</dc:format>
    <dc:creator>
     <cc:Agent>
      <dc:title>Matplotlib v3.5.2, https://matplotlib.org/</dc:title>
     </cc:Agent>
    </dc:creator>
   </cc:Work>
  </rdf:RDF>
 </metadata>
 <defs>
  <style type="text/css">*{stroke-linejoin: round; stroke-linecap: butt}</style>
 </defs>
 <g id="figure_1">
  <g id="patch_1">
   <path d="M 0 648 
L 1440 648 
L 1440 0 
L 0 0 
L 0 648 
z
" style="fill: none"/>
  </g>
  <g id="axes_1">
   <g id="patch_2">
    <path d="M 180 300.141818 
L 508.235294 300.141818 
L 508.235294 77.76 
L 180 77.76 
z
" style="fill: #ffffff"/>
   </g>
   <g id="PathCollection_1">
    <defs>
     <path id="m8a31455d99" d="M 0 3 
C 0.795609 3 1.55874 2.683901 2.12132 2.12132 
C 2.683901 1.55874 3 0.795609 3 0 
C 3 -0.795609 2.683901 -1.55874 2.12132 -2.12132 
C 1.55874 -2.683901 0.795609 -3 0 -3 
C -0.795609 -3 -1.55874 -2.683901 -2.12132 -2.12132 
C -2.683901 -1.55874 -3 -0.795609 -3 0 
C -3 0.795609 -2.683901 1.55874 -2.12132 2.12132 
C -1.55874 2.683901 -0.795609 3 0 3 
z
" style="stroke: #000000"/>
    </defs>
    <g clip-path="url(#pb5765b57fa)">
     <use xlink:href="#m8a31455d99" x="390.024681" y="250.723636" style="stroke: #000000"/>
     <use xlink:href="#m8a31455d99" x="355.594406" y="209.541818" style="stroke: #000000"/>
     <use xlink:href="#m8a31455d99" x="321.16413" y="271.314545" style="stroke: #000000"/>
     <use xlink:href="#m8a31455d99" x="286.733854" y="271.314545" style="stroke: #000000"/>
     <use xlink:href="#m8a31455d99" x="252.303579" y="291.905455" style="stroke: #000000"/>
     <use xlink:href="#m8a31455d99" x="263.780337" y="271.314545" style="stroke: #000000"/>
     <use xlink:href="#m8a31455d99" x="401.50144" y="168.36" style="stroke: #000000"/>
     <use xlink:href="#m8a31455d99" x="264.649817" y="291.905455" style="stroke: #000000"/>
     <use xlink:href="#m8a31455d99" x="298.862722" y="250.723636" style="stroke: #000000"/>
     <use xlink:href="#m8a31455d99" x="333.075628" y="209.541818" style="stroke: #000000"/>
     <use xlink:href="#m8a31455d99" x="367.288763" y="168.36" style="stroke: #000000"/>
     <use xlink:href="#m8a31455d99" x="401.50144" y="147.769091" style="stroke: #000000"/>
     <use xlink:href="#m8a31455d99" x="268.585197" y="271.314545" style="stroke: #000000"/>
     <use xlink:href="#m8a31455d99" x="301.814315" y="250.723636" style="stroke: #000000"/>
     <use xlink:href="#m8a31455d99" x="335.043433" y="209.541818" style="stroke: #000000"/>
     <use xlink:href="#m8a31455d99" x="368.27301" y="168.36" style="stroke: #000000"/>
    </g>
   </g>
   <g id="matplotlib.axis_1">
    <g id="xtick_1">
     <g id="line2d_1">
      <path d="M 217.873303 300.141818 
L 217.873303 77.76 
" clip-path="url(#pb5765b57fa)" style="fill: none; stroke: #b0b0b0; stroke-width: 0.8; stroke-linecap: square"/>
     </g>
     <g id="line2d_2">
      <defs>
       <path id="m515b500af6" d="M 0 0 
L 0 3.5 
" style="stroke: #000000; stroke-width: 0.8"/>
      </defs>
      <g>
       <use xlink:href="#m515b500af6" x="217.873303" y="300.141818" style="stroke: #000000; stroke-width: 0.8"/>
      </g>
     </g>
     <g id="text_1">
      <!-- 0 -->
      <g transform="translate(214.692053 314.740256)scale(0.1 -0.1)">
       <defs>
        <path id="DejaVuSans-30" d="M 2034 4250 
Q 1547 4250 1301 3770 
Q 1056 3291 1056 2328 
Q 1056 1369 1301 889 
Q 1547 409 2034 409 
Q 2525 409 2770 889 
Q 3016 1369 3016 2328 
Q 3016 3291 2770 3770 
Q 2525 4250 2034 4250 
z
M 2034 4750 
Q 2819 4750 3233 4129 
Q 3647 3509 3647 2328 
Q 3647 1150 3233 529 
Q 2819 -91 2034 -91 
Q 1250 -91 836 529 
Q 422 1150 422 2328 
Q 422 3509 836 4129 
Q 1250 4750 2034 4750 
z
" transform="scale(0.015625)"/>
       </defs>
       <use xlink:href="#DejaVuSans-30"/>
      </g>
     </g>
    </g>
    <g id="xtick_2">
     <g id="line2d_3">
      <path d="M 263.780337 300.141818 
L 263.780337 77.76 
" clip-path="url(#pb5765b57fa)" style="fill: none; stroke: #b0b0b0; stroke-width: 0.8; stroke-linecap: square"/>
     </g>
     <g id="line2d_4">
      <g>
       <use xlink:href="#m515b500af6" x="263.780337" y="300.141818" style="stroke: #000000; stroke-width: 0.8"/>
      </g>
     </g>
     <g id="text_2">
      <!-- 20 -->
      <g transform="translate(257.417837 314.740256)scale(0.1 -0.1)">
       <defs>
        <path id="DejaVuSans-32" d="M 1228 531 
L 3431 531 
L 3431 0 
L 469 0 
L 469 531 
Q 828 903 1448 1529 
Q 2069 2156 2228 2338 
Q 2531 2678 2651 2914 
Q 2772 3150 2772 3378 
Q 2772 3750 2511 3984 
Q 2250 4219 1831 4219 
Q 1534 4219 1204 4116 
Q 875 4013 500 3803 
L 500 4441 
Q 881 4594 1212 4672 
Q 1544 4750 1819 4750 
Q 2544 4750 2975 4387 
Q 3406 4025 3406 3419 
Q 3406 3131 3298 2873 
Q 3191 2616 2906 2266 
Q 2828 2175 2409 1742 
Q 1991 1309 1228 531 
z
" transform="scale(0.015625)"/>
       </defs>
       <use xlink:href="#DejaVuSans-32"/>
       <use xlink:href="#DejaVuSans-30" x="63.623047"/>
      </g>
     </g>
    </g>
    <g id="xtick_3">
     <g id="line2d_5">
      <path d="M 309.687371 300.141818 
L 309.687371 77.76 
" clip-path="url(#pb5765b57fa)" style="fill: none; stroke: #b0b0b0; stroke-width: 0.8; stroke-linecap: square"/>
     </g>
     <g id="line2d_6">
      <g>
       <use xlink:href="#m515b500af6" x="309.687371" y="300.141818" style="stroke: #000000; stroke-width: 0.8"/>
      </g>
     </g>
     <g id="text_3">
      <!-- 40 -->
      <g transform="translate(303.324871 314.740256)scale(0.1 -0.1)">
       <defs>
        <path id="DejaVuSans-34" d="M 2419 4116 
L 825 1625 
L 2419 1625 
L 2419 4116 
z
M 2253 4666 
L 3047 4666 
L 3047 1625 
L 3713 1625 
L 3713 1100 
L 3047 1100 
L 3047 0 
L 2419 0 
L 2419 1100 
L 313 1100 
L 313 1709 
L 2253 4666 
z
" transform="scale(0.015625)"/>
       </defs>
       <use xlink:href="#DejaVuSans-34"/>
       <use xlink:href="#DejaVuSans-30" x="63.623047"/>
      </g>
     </g>
    </g>
    <g id="xtick_4">
     <g id="line2d_7">
      <path d="M 355.594406 300.141818 
L 355.594406 77.76 
" clip-path="url(#pb5765b57fa)" style="fill: none; stroke: #b0b0b0; stroke-width: 0.8; stroke-linecap: square"/>
     </g>
     <g id="line2d_8">
      <g>
       <use xlink:href="#m515b500af6" x="355.594406" y="300.141818" style="stroke: #000000; stroke-width: 0.8"/>
      </g>
     </g>
     <g id="text_4">
      <!-- 60 -->
      <g transform="translate(349.231906 314.740256)scale(0.1 -0.1)">
       <defs>
        <path id="DejaVuSans-36" d="M 2113 2584 
Q 1688 2584 1439 2293 
Q 1191 2003 1191 1497 
Q 1191 994 1439 701 
Q 1688 409 2113 409 
Q 2538 409 2786 701 
Q 3034 994 3034 1497 
Q 3034 2003 2786 2293 
Q 2538 2584 2113 2584 
z
M 3366 4563 
L 3366 3988 
Q 3128 4100 2886 4159 
Q 2644 4219 2406 4219 
Q 1781 4219 1451 3797 
Q 1122 3375 1075 2522 
Q 1259 2794 1537 2939 
Q 1816 3084 2150 3084 
Q 2853 3084 3261 2657 
Q 3669 2231 3669 1497 
Q 3669 778 3244 343 
Q 2819 -91 2113 -91 
Q 1303 -91 875 529 
Q 447 1150 447 2328 
Q 447 3434 972 4092 
Q 1497 4750 2381 4750 
Q 2619 4750 2861 4703 
Q 3103 4656 3366 4563 
z
" transform="scale(0.015625)"/>
       </defs>
       <use xlink:href="#DejaVuSans-36"/>
       <use xlink:href="#DejaVuSans-30" x="63.623047"/>
      </g>
     </g>
    </g>
    <g id="xtick_5">
     <g id="line2d_9">
      <path d="M 401.50144 300.141818 
L 401.50144 77.76 
" clip-path="url(#pb5765b57fa)" style="fill: none; stroke: #b0b0b0; stroke-width: 0.8; stroke-linecap: square"/>
     </g>
     <g id="line2d_10">
      <g>
       <use xlink:href="#m515b500af6" x="401.50144" y="300.141818" style="stroke: #000000; stroke-width: 0.8"/>
      </g>
     </g>
     <g id="text_5">
      <!-- 80 -->
      <g transform="translate(395.13894 314.740256)scale(0.1 -0.1)">
       <defs>
        <path id="DejaVuSans-38" d="M 2034 2216 
Q 1584 2216 1326 1975 
Q 1069 1734 1069 1313 
Q 1069 891 1326 650 
Q 1584 409 2034 409 
Q 2484 409 2743 651 
Q 3003 894 3003 1313 
Q 3003 1734 2745 1975 
Q 2488 2216 2034 2216 
z
M 1403 2484 
Q 997 2584 770 2862 
Q 544 3141 544 3541 
Q 544 4100 942 4425 
Q 1341 4750 2034 4750 
Q 2731 4750 3128 4425 
Q 3525 4100 3525 3541 
Q 3525 3141 3298 2862 
Q 3072 2584 2669 2484 
Q 3125 2378 3379 2068 
Q 3634 1759 3634 1313 
Q 3634 634 3220 271 
Q 2806 -91 2034 -91 
Q 1263 -91 848 271 
Q 434 634 434 1313 
Q 434 1759 690 2068 
Q 947 2378 1403 2484 
z
M 1172 3481 
Q 1172 3119 1398 2916 
Q 1625 2713 2034 2713 
Q 2441 2713 2670 2916 
Q 2900 3119 2900 3481 
Q 2900 3844 2670 4047 
Q 2441 4250 2034 4250 
Q 1625 4250 1398 4047 
Q 1172 3844 1172 3481 
z
" transform="scale(0.015625)"/>
       </defs>
       <use xlink:href="#DejaVuSans-38"/>
       <use xlink:href="#DejaVuSans-30" x="63.623047"/>
      </g>
     </g>
    </g>
    <g id="xtick_6">
     <g id="line2d_11">
      <path d="M 447.408474 300.141818 
L 447.408474 77.76 
" clip-path="url(#pb5765b57fa)" style="fill: none; stroke: #b0b0b0; stroke-width: 0.8; stroke-linecap: square"/>
     </g>
     <g id="line2d_12">
      <g>
       <use xlink:href="#m515b500af6" x="447.408474" y="300.141818" style="stroke: #000000; stroke-width: 0.8"/>
      </g>
     </g>
     <g id="text_6">
      <!-- 100 -->
      <g transform="translate(437.864724 314.740256)scale(0.1 -0.1)">
       <defs>
        <path id="DejaVuSans-31" d="M 794 531 
L 1825 531 
L 1825 4091 
L 703 3866 
L 703 4441 
L 1819 4666 
L 2450 4666 
L 2450 531 
L 3481 531 
L 3481 0 
L 794 0 
L 794 531 
z
" transform="scale(0.015625)"/>
       </defs>
       <use xlink:href="#DejaVuSans-31"/>
       <use xlink:href="#DejaVuSans-30" x="63.623047"/>
       <use xlink:href="#DejaVuSans-30" x="127.246094"/>
      </g>
     </g>
    </g>
    <g id="xtick_7">
     <g id="line2d_13">
      <path d="M 493.315508 300.141818 
L 493.315508 77.76 
" clip-path="url(#pb5765b57fa)" style="fill: none; stroke: #b0b0b0; stroke-width: 0.8; stroke-linecap: square"/>
     </g>
     <g id="line2d_14">
      <g>
       <use xlink:href="#m515b500af6" x="493.315508" y="300.141818" style="stroke: #000000; stroke-width: 0.8"/>
      </g>
     </g>
     <g id="text_7">
      <!-- 120 -->
      <g transform="translate(483.771758 314.740256)scale(0.1 -0.1)">
       <use xlink:href="#DejaVuSans-31"/>
       <use xlink:href="#DejaVuSans-32" x="63.623047"/>
       <use xlink:href="#DejaVuSans-30" x="127.246094"/>
      </g>
     </g>
    </g>
   </g>
   <g id="matplotlib.axis_2">
    <g id="ytick_1">
     <g id="line2d_15">
      <path d="M 180 291.905455 
L 508.235294 291.905455 
" clip-path="url(#pb5765b57fa)" style="fill: none; stroke: #b0b0b0; stroke-width: 0.8; stroke-linecap: square"/>
     </g>
     <g id="line2d_16">
      <defs>
       <path id="m6999264434" d="M 0 0 
L -3.5 0 
" style="stroke: #000000; stroke-width: 0.8"/>
      </defs>
      <g>
       <use xlink:href="#m6999264434" x="180" y="291.905455" style="stroke: #000000; stroke-width: 0.8"/>
      </g>
     </g>
     <g id="text_8">
      <!-- 0 -->
      <g transform="translate(166.6375 295.704673)scale(0.1 -0.1)">
       <use xlink:href="#DejaVuSans-30"/>
      </g>
     </g>
    </g>
    <g id="ytick_2">
     <g id="line2d_17">
      <path d="M 180 250.723636 
L 508.235294 250.723636 
" clip-path="url(#pb5765b57fa)" style="fill: none; stroke: #b0b0b0; stroke-width: 0.8; stroke-linecap: square"/>
     </g>
     <g id="line2d_18">
      <g>
       <use xlink:href="#m6999264434" x="180" y="250.723636" style="stroke: #000000; stroke-width: 0.8"/>
      </g>
     </g>
     <g id="text_9">
      <!-- 10 -->
      <g transform="translate(160.275 254.522855)scale(0.1 -0.1)">
       <use xlink:href="#DejaVuSans-31"/>
       <use xlink:href="#DejaVuSans-30" x="63.623047"/>
      </g>
     </g>
    </g>
    <g id="ytick_3">
     <g id="line2d_19">
      <path d="M 180 209.541818 
L 508.235294 209.541818 
" clip-path="url(#pb5765b57fa)" style="fill: none; stroke: #b0b0b0; stroke-width: 0.8; stroke-linecap: square"/>
     </g>
     <g id="line2d_20">
      <g>
       <use xlink:href="#m6999264434" x="180" y="209.541818" style="stroke: #000000; stroke-width: 0.8"/>
      </g>
     </g>
     <g id="text_10">
      <!-- 20 -->
      <g transform="translate(160.275 213.341037)scale(0.1 -0.1)">
       <use xlink:href="#DejaVuSans-32"/>
       <use xlink:href="#DejaVuSans-30" x="63.623047"/>
      </g>
     </g>
    </g>
    <g id="ytick_4">
     <g id="line2d_21">
      <path d="M 180 168.36 
L 508.235294 168.36 
" clip-path="url(#pb5765b57fa)" style="fill: none; stroke: #b0b0b0; stroke-width: 0.8; stroke-linecap: square"/>
     </g>
     <g id="line2d_22">
      <g>
       <use xlink:href="#m6999264434" x="180" y="168.36" style="stroke: #000000; stroke-width: 0.8"/>
      </g>
     </g>
     <g id="text_11">
      <!-- 30 -->
      <g transform="translate(160.275 172.159219)scale(0.1 -0.1)">
       <defs>
        <path id="DejaVuSans-33" d="M 2597 2516 
Q 3050 2419 3304 2112 
Q 3559 1806 3559 1356 
Q 3559 666 3084 287 
Q 2609 -91 1734 -91 
Q 1441 -91 1130 -33 
Q 819 25 488 141 
L 488 750 
Q 750 597 1062 519 
Q 1375 441 1716 441 
Q 2309 441 2620 675 
Q 2931 909 2931 1356 
Q 2931 1769 2642 2001 
Q 2353 2234 1838 2234 
L 1294 2234 
L 1294 2753 
L 1863 2753 
Q 2328 2753 2575 2939 
Q 2822 3125 2822 3475 
Q 2822 3834 2567 4026 
Q 2313 4219 1838 4219 
Q 1578 4219 1281 4162 
Q 984 4106 628 3988 
L 628 4550 
Q 988 4650 1302 4700 
Q 1616 4750 1894 4750 
Q 2613 4750 3031 4423 
Q 3450 4097 3450 3541 
Q 3450 3153 3228 2886 
Q 3006 2619 2597 2516 
z
" transform="scale(0.015625)"/>
       </defs>
       <use xlink:href="#DejaVuSans-33"/>
       <use xlink:href="#DejaVuSans-30" x="63.623047"/>
      </g>
     </g>
    </g>
    <g id="ytick_5">
     <g id="line2d_23">
      <path d="M 180 127.178182 
L 508.235294 127.178182 
" clip-path="url(#pb5765b57fa)" style="fill: none; stroke: #b0b0b0; stroke-width: 0.8; stroke-linecap: square"/>
     </g>
     <g id="line2d_24">
      <g>
       <use xlink:href="#m6999264434" x="180" y="127.178182" style="stroke: #000000; stroke-width: 0.8"/>
      </g>
     </g>
     <g id="text_12">
      <!-- 40 -->
      <g transform="translate(160.275 130.977401)scale(0.1 -0.1)">
       <use xlink:href="#DejaVuSans-34"/>
       <use xlink:href="#DejaVuSans-30" x="63.623047"/>
      </g>
     </g>
    </g>
    <g id="ytick_6">
     <g id="line2d_25">
      <path d="M 180 85.996364 
L 508.235294 85.996364 
" clip-path="url(#pb5765b57fa)" style="fill: none; stroke: #b0b0b0; stroke-width: 0.8; stroke-linecap: square"/>
     </g>
     <g id="line2d_26">
      <g>
       <use xlink:href="#m6999264434" x="180" y="85.996364" style="stroke: #000000; stroke-width: 0.8"/>
      </g>
     </g>
     <g id="text_13">
      <!-- 50 -->
      <g transform="translate(160.275 89.795582)scale(0.1 -0.1)">
       <defs>
        <path id="DejaVuSans-35" d="M 691 4666 
L 3169 4666 
L 3169 4134 
L 1269 4134 
L 1269 2991 
Q 1406 3038 1543 3061 
Q 1681 3084 1819 3084 
Q 2600 3084 3056 2656 
Q 3513 2228 3513 1497 
Q 3513 744 3044 326 
Q 2575 -91 1722 -91 
Q 1428 -91 1123 -41 
Q 819 9 494 109 
L 494 744 
Q 775 591 1075 516 
Q 1375 441 1709 441 
Q 2250 441 2565 725 
Q 2881 1009 2881 1497 
Q 2881 1984 2565 2268 
Q 2250 2553 1709 2553 
Q 1456 2553 1204 2497 
Q 953 2441 691 2322 
L 691 4666 
z
" transform="scale(0.015625)"/>
       </defs>
       <use xlink:href="#DejaVuSans-35"/>
       <use xlink:href="#DejaVuSans-30" x="63.623047"/>
      </g>
     </g>
    </g>
   </g>
   <g id="line2d_27">
    <path d="M 194.919786 188.950909 
L 493.315508 188.950909 
" clip-path="url(#pb5765b57fa)" style="fill: none; stroke-dasharray: 1.5,2.475; stroke-dashoffset: 0; stroke: #808080; stroke-width: 1.5"/>
   </g>
   <g id="line2d_28">
    <path d="M 401.50144 333.087273 
L 401.50144 3.632727 
" clip-path="url(#pb5765b57fa)" style="fill: none; stroke-dasharray: 5.55,2.4; stroke-dashoffset: 0; stroke: #ff0000; stroke-opacity: 0.3; stroke-width: 1.5"/>
   </g>
   <g id="line2d_29">
    <path d="M 246.643928 291.905455 
L 248.671853 290.437554 
L 250.699778 288.969653 
L 252.727703 287.501752 
L 254.755628 286.033851 
L 256.783552 284.56595 
L 258.811477 283.098049 
L 260.839402 281.630148 
L 262.867327 280.162247 
L 264.895252 278.694346 
L 266.923176 277.226445 
L 268.951101 275.758544 
L 270.979026 274.290643 
L 273.006951 272.822742 
L 275.034876 271.354841 
L 277.0628 269.88694 
L 279.090725 268.419039 
L 281.11865 266.951138 
L 283.146575 265.483237 
L 285.174499 264.015336 
L 287.202424 262.547435 
L 289.230349 261.079534 
L 291.258274 259.611633 
L 293.286199 258.143732 
L 295.314123 256.675831 
L 297.342048 255.20793 
L 299.369973 253.740029 
L 301.397898 252.272128 
L 303.425823 250.804227 
L 305.453747 249.336326 
L 307.481672 247.868425 
L 309.509597 246.400524 
L 311.537522 244.932623 
L 313.565447 243.464722 
L 315.593371 241.996821 
L 317.621296 240.52892 
L 319.649221 239.061019 
L 321.677146 237.593118 
L 323.705071 236.125217 
L 325.732995 234.657316 
L 327.76092 233.189415 
L 329.788845 231.721514 
L 331.81677 230.253613 
L 333.844695 228.779166 
L 335.872619 227.288919 
L 337.900544 225.782296 
L 339.928469 224.258746 
L 341.956394 222.717683 
L 343.984319 221.158492 
L 346.012243 219.580515 
L 348.040168 217.983058 
L 350.068093 216.36538 
L 352.096018 214.726693 
L 354.123943 213.066159 
L 356.151867 211.382877 
L 358.179792 209.675887 
L 360.207717 207.944159 
L 362.235642 206.186584 
L 364.263567 204.40197 
L 366.291491 202.589028 
L 368.319416 200.746365 
L 370.347341 198.872471 
L 372.375266 196.965699 
L 374.403191 195.024258 
L 376.431115 193.046185 
L 378.45904 191.029323 
L 380.486965 188.971297 
L 382.51489 186.869479 
L 384.542815 184.72095 
L 386.570739 182.522447 
L 388.598664 180.270314 
L 390.626589 177.960422 
L 392.654514 175.588087 
L 394.682439 173.147951 
L 396.710363 170.633848 
L 398.738288 168.038611 
L 400.766213 165.353841 
L 402.794138 162.569576 
L 404.822063 159.673859 
L 406.849987 156.65213 
L 408.877912 153.486346 
L 410.905837 150.153705 
L 412.933762 146.63603 
L 414.961686 143.068991 
L 416.989611 139.501952 
L 419.017536 135.934912 
L 421.045461 132.367873 
L 423.073386 128.800834 
L 425.10131 125.233795 
L 427.129235 121.666756 
L 429.15716 118.099716 
L 431.185085 114.532677 
L 433.21301 110.965638 
L 435.240934 107.398599 
L 437.268859 103.83156 
L 439.296784 100.26452 
L 441.324709 96.697481 
L 443.352634 93.130442 
L 445.380558 89.563403 
L 447.408483 85.996364 
" clip-path="url(#pb5765b57fa)" style="fill: none; stroke: #1f77b4; stroke-width: 1.5; stroke-linecap: square"/>
   </g>
   <g id="line2d_30">
    <path d="M 250.759969 291.905455 
L 252.426631 290.559582 
L 254.093293 289.213709 
L 255.759956 287.867836 
L 257.426618 286.521963 
L 259.09328 285.176091 
L 260.759942 283.830218 
L 262.426604 282.484345 
L 264.093266 281.138472 
L 265.759929 279.7926 
L 267.426591 278.446727 
L 269.093253 277.100854 
L 270.759915 275.754981 
L 272.426577 274.409108 
L 274.09324 273.063236 
L 275.759902 271.717363 
L 277.426564 270.37149 
L 279.093226 269.025617 
L 280.759888 267.679745 
L 282.42655 266.333872 
L 284.093213 264.987999 
L 285.759875 263.642126 
L 287.426537 262.296253 
L 289.093199 260.950381 
L 290.759861 259.604508 
L 292.426524 258.258635 
L 294.093186 256.912762 
L 295.759848 255.56689 
L 297.42651 254.221017 
L 299.093172 252.875144 
L 300.759835 251.529271 
L 302.426497 250.183398 
L 304.093159 248.837526 
L 305.759821 247.491653 
L 307.426483 246.14578 
L 309.093145 244.799907 
L 310.759808 243.454035 
L 312.42647 242.108162 
L 314.093132 240.762289 
L 315.759794 239.416416 
L 317.426456 238.070543 
L 319.093119 236.724671 
L 320.759781 235.378798 
L 322.426443 234.032925 
L 324.093105 232.687052 
L 325.759767 231.341179 
L 327.42643 229.995226 
L 329.093092 228.639885 
L 330.759754 227.268407 
L 332.426416 225.880202 
L 334.093078 224.474642 
L 335.75974 223.05106 
L 337.426403 221.608744 
L 339.093065 220.146934 
L 340.759727 218.664818 
L 342.426389 217.161526 
L 344.093051 215.636122 
L 345.759714 214.087602 
L 347.426376 212.514882 
L 349.093038 210.916789 
L 350.7597 209.292056 
L 352.426362 207.639304 
L 354.093024 205.957031 
L 355.759687 204.243596 
L 357.426349 202.497201 
L 359.093011 200.715867 
L 360.759673 198.89741 
L 362.426335 197.039406 
L 364.092998 195.139157 
L 365.75966 193.193645 
L 367.426322 191.199471 
L 369.092984 189.15279 
L 370.759646 187.049224 
L 372.426309 184.883746 
L 374.092971 182.650547 
L 375.759633 180.342844 
L 377.426295 177.952643 
L 379.092957 175.470408 
L 380.759619 172.88461 
L 382.426282 170.181092 
L 384.092944 167.342144 
L 385.759606 164.345112 
L 387.426268 161.160218 
L 389.09293 157.74697 
L 390.759593 154.047823 
L 392.426255 149.976039 
L 394.092917 145.471938 
L 395.759579 140.896893 
L 397.426241 136.321849 
L 399.092903 131.746805 
L 400.759566 127.171761 
L 402.426228 122.596717 
L 404.09289 118.021673 
L 405.759552 113.446629 
L 407.426214 108.871584 
L 409.092877 104.29654 
L 410.759539 99.721496 
L 412.426201 95.146452 
L 414.092863 90.571408 
L 415.759525 85.996364 
" clip-path="url(#pb5765b57fa)" style="fill: none; stroke-dasharray: 5.55,2.4; stroke-dashoffset: 0; stroke: #ff7f0e; stroke-width: 1.5"/>
   </g>
   <g id="patch_3">
    <path d="M 180 300.141818 
L 180 77.76 
" style="fill: none; stroke: #000000; stroke-width: 0.8; stroke-linejoin: miter; stroke-linecap: square"/>
   </g>
   <g id="patch_4">
    <path d="M 508.235294 300.141818 
L 508.235294 77.76 
" style="fill: none; stroke: #000000; stroke-width: 0.8; stroke-linejoin: miter; stroke-linecap: square"/>
   </g>
   <g id="patch_5">
    <path d="M 180 300.141818 
L 508.235294 300.141818 
" style="fill: none; stroke: #000000; stroke-width: 0.8; stroke-linejoin: miter; stroke-linecap: square"/>
   </g>
   <g id="patch_6">
    <path d="M 180 77.76 
L 508.235294 77.76 
" style="fill: none; stroke: #000000; stroke-width: 0.8; stroke-linejoin: miter; stroke-linecap: square"/>
   </g>
   <g id="text_14">
    <!--  Block: 0 -->
    <g transform="translate(318.237022 71.76)scale(0.12 -0.12)">
     <defs>
      <path id="DejaVuSans-20" transform="scale(0.015625)"/>
      <path id="DejaVuSans-42" d="M 1259 2228 
L 1259 519 
L 2272 519 
Q 2781 519 3026 730 
Q 3272 941 3272 1375 
Q 3272 1813 3026 2020 
Q 2781 2228 2272 2228 
L 1259 2228 
z
M 1259 4147 
L 1259 2741 
L 2194 2741 
Q 2656 2741 2882 2914 
Q 3109 3088 3109 3444 
Q 3109 3797 2882 3972 
Q 2656 4147 2194 4147 
L 1259 4147 
z
M 628 4666 
L 2241 4666 
Q 2963 4666 3353 4366 
Q 3744 4066 3744 3513 
Q 3744 3084 3544 2831 
Q 3344 2578 2956 2516 
Q 3422 2416 3680 2098 
Q 3938 1781 3938 1306 
Q 3938 681 3513 340 
Q 3088 0 2303 0 
L 628 0 
L 628 4666 
z
" transform="scale(0.015625)"/>
      <path id="DejaVuSans-6c" d="M 603 4863 
L 1178 4863 
L 1178 0 
L 603 0 
L 603 4863 
z
" transform="scale(0.015625)"/>
      <path id="DejaVuSans-6f" d="M 1959 3097 
Q 1497 3097 1228 2736 
Q 959 2375 959 1747 
Q 959 1119 1226 758 
Q 1494 397 1959 397 
Q 2419 397 2687 759 
Q 2956 1122 2956 1747 
Q 2956 2369 2687 2733 
Q 2419 3097 1959 3097 
z
M 1959 3584 
Q 2709 3584 3137 3096 
Q 3566 2609 3566 1747 
Q 3566 888 3137 398 
Q 2709 -91 1959 -91 
Q 1206 -91 779 398 
Q 353 888 353 1747 
Q 353 2609 779 3096 
Q 1206 3584 1959 3584 
z
" transform="scale(0.015625)"/>
      <path id="DejaVuSans-63" d="M 3122 3366 
L 3122 2828 
Q 2878 2963 2633 3030 
Q 2388 3097 2138 3097 
Q 1578 3097 1268 2742 
Q 959 2388 959 1747 
Q 959 1106 1268 751 
Q 1578 397 2138 397 
Q 2388 397 2633 464 
Q 2878 531 3122 666 
L 3122 134 
Q 2881 22 2623 -34 
Q 2366 -91 2075 -91 
Q 1284 -91 818 406 
Q 353 903 353 1747 
Q 353 2603 823 3093 
Q 1294 3584 2113 3584 
Q 2378 3584 2631 3529 
Q 2884 3475 3122 3366 
z
" transform="scale(0.015625)"/>
      <path id="DejaVuSans-6b" d="M 581 4863 
L 1159 4863 
L 1159 1991 
L 2875 3500 
L 3609 3500 
L 1753 1863 
L 3688 0 
L 2938 0 
L 1159 1709 
L 1159 0 
L 581 0 
L 581 4863 
z
" transform="scale(0.015625)"/>
      <path id="DejaVuSans-3a" d="M 750 794 
L 1409 794 
L 1409 0 
L 750 0 
L 750 794 
z
M 750 3309 
L 1409 3309 
L 1409 2516 
L 750 2516 
L 750 3309 
z
" transform="scale(0.015625)"/>
     </defs>
     <use xlink:href="#DejaVuSans-20"/>
     <use xlink:href="#DejaVuSans-42" x="31.787109"/>
     <use xlink:href="#DejaVuSans-6c" x="100.390625"/>
     <use xlink:href="#DejaVuSans-6f" x="128.173828"/>
     <use xlink:href="#DejaVuSans-63" x="189.355469"/>
     <use xlink:href="#DejaVuSans-6b" x="244.335938"/>
     <use xlink:href="#DejaVuSans-3a" x="302.246094"/>
     <use xlink:href="#DejaVuSans-20" x="335.9375"/>
     <use xlink:href="#DejaVuSans-30" x="367.724609"/>
    </g>
   </g>
   <g id="legend_1">
    <g id="patch_7">
     <path d="M 187 130.0725 
L 318.2 130.0725 
Q 320.2 130.0725 320.2 128.0725 
L 320.2 84.76 
Q 320.2 82.76 318.2 82.76 
L 187 82.76 
Q 185 82.76 185 84.76 
L 185 128.0725 
Q 185 130.0725 187 130.0725 
z
" style="fill: #ffffff; opacity: 0.8; stroke: #cccccc; stroke-linejoin: miter"/>
    </g>
    <g id="PathCollection_2">
     <g>
      <use xlink:href="#m8a31455d99" x="199" y="91.733438" style="stroke: #000000"/>
     </g>
    </g>
    <g id="text_15">
     <!-- Data -->
     <g transform="translate(217 94.358438)scale(0.1 -0.1)">
      <defs>
       <path id="DejaVuSans-44" d="M 1259 4147 
L 1259 519 
L 2022 519 
Q 2988 519 3436 956 
Q 3884 1394 3884 2338 
Q 3884 3275 3436 3711 
Q 2988 4147 2022 4147 
L 1259 4147 
z
M 628 4666 
L 1925 4666 
Q 3281 4666 3915 4102 
Q 4550 3538 4550 2338 
Q 4550 1131 3912 565 
Q 3275 0 1925 0 
L 628 0 
L 628 4666 
z
" transform="scale(0.015625)"/>
       <path id="DejaVuSans-61" d="M 2194 1759 
Q 1497 1759 1228 1600 
Q 959 1441 959 1056 
Q 959 750 1161 570 
Q 1363 391 1709 391 
Q 2188 391 2477 730 
Q 2766 1069 2766 1631 
L 2766 1759 
L 2194 1759 
z
M 3341 1997 
L 3341 0 
L 2766 0 
L 2766 531 
Q 2569 213 2275 61 
Q 1981 -91 1556 -91 
Q 1019 -91 701 211 
Q 384 513 384 1019 
Q 384 1609 779 1909 
Q 1175 2209 1959 2209 
L 2766 2209 
L 2766 2266 
Q 2766 2663 2505 2880 
Q 2244 3097 1772 3097 
Q 1472 3097 1187 3025 
Q 903 2953 641 2809 
L 641 3341 
Q 956 3463 1253 3523 
Q 1550 3584 1831 3584 
Q 2591 3584 2966 3190 
Q 3341 2797 3341 1997 
z
" transform="scale(0.015625)"/>
       <path id="DejaVuSans-74" d="M 1172 4494 
L 1172 3500 
L 2356 3500 
L 2356 3053 
L 1172 3053 
L 1172 1153 
Q 1172 725 1289 603 
Q 1406 481 1766 481 
L 2356 481 
L 2356 0 
L 1766 0 
Q 1100 0 847 248 
Q 594 497 594 1153 
L 594 3053 
L 172 3053 
L 172 3500 
L 594 3500 
L 594 4494 
L 1172 4494 
z
" transform="scale(0.015625)"/>
      </defs>
      <use xlink:href="#DejaVuSans-44"/>
      <use xlink:href="#DejaVuSans-61" x="77.001953"/>
      <use xlink:href="#DejaVuSans-74" x="138.28125"/>
      <use xlink:href="#DejaVuSans-61" x="177.490234"/>
     </g>
    </g>
    <g id="line2d_31">
     <path d="M 189 105.536563 
L 199 105.536563 
L 209 105.536563 
" style="fill: none; stroke: #1f77b4; stroke-width: 1.5; stroke-linecap: square"/>
    </g>
    <g id="text_16">
     <!-- Artc e:0.3766 -->
     <g transform="translate(217 109.036563)scale(0.1 -0.1)">
      <defs>
       <path id="DejaVuSans-41" d="M 2188 4044 
L 1331 1722 
L 3047 1722 
L 2188 4044 
z
M 1831 4666 
L 2547 4666 
L 4325 0 
L 3669 0 
L 3244 1197 
L 1141 1197 
L 716 0 
L 50 0 
L 1831 4666 
z
" transform="scale(0.015625)"/>
       <path id="DejaVuSans-72" d="M 2631 2963 
Q 2534 3019 2420 3045 
Q 2306 3072 2169 3072 
Q 1681 3072 1420 2755 
Q 1159 2438 1159 1844 
L 1159 0 
L 581 0 
L 581 3500 
L 1159 3500 
L 1159 2956 
Q 1341 3275 1631 3429 
Q 1922 3584 2338 3584 
Q 2397 3584 2469 3576 
Q 2541 3569 2628 3553 
L 2631 2963 
z
" transform="scale(0.015625)"/>
       <path id="DejaVuSans-65" d="M 3597 1894 
L 3597 1613 
L 953 1613 
Q 991 1019 1311 708 
Q 1631 397 2203 397 
Q 2534 397 2845 478 
Q 3156 559 3463 722 
L 3463 178 
Q 3153 47 2828 -22 
Q 2503 -91 2169 -91 
Q 1331 -91 842 396 
Q 353 884 353 1716 
Q 353 2575 817 3079 
Q 1281 3584 2069 3584 
Q 2775 3584 3186 3129 
Q 3597 2675 3597 1894 
z
M 3022 2063 
Q 3016 2534 2758 2815 
Q 2500 3097 2075 3097 
Q 1594 3097 1305 2825 
Q 1016 2553 972 2059 
L 3022 2063 
z
" transform="scale(0.015625)"/>
       <path id="DejaVuSans-2e" d="M 684 794 
L 1344 794 
L 1344 0 
L 684 0 
L 684 794 
z
" transform="scale(0.015625)"/>
       <path id="DejaVuSans-37" d="M 525 4666 
L 3525 4666 
L 3525 4397 
L 1831 0 
L 1172 0 
L 2766 4134 
L 525 4134 
L 525 4666 
z
" transform="scale(0.015625)"/>
      </defs>
      <use xlink:href="#DejaVuSans-41"/>
      <use xlink:href="#DejaVuSans-72" x="68.408203"/>
      <use xlink:href="#DejaVuSans-74" x="109.521484"/>
      <use xlink:href="#DejaVuSans-63" x="148.730469"/>
      <use xlink:href="#DejaVuSans-20" x="203.710938"/>
      <use xlink:href="#DejaVuSans-65" x="235.498047"/>
      <use xlink:href="#DejaVuSans-3a" x="297.021484"/>
      <use xlink:href="#DejaVuSans-30" x="330.712891"/>
      <use xlink:href="#DejaVuSans-2e" x="394.335938"/>
      <use xlink:href="#DejaVuSans-33" x="426.123047"/>
      <use xlink:href="#DejaVuSans-37" x="489.746094"/>
      <use xlink:href="#DejaVuSans-36" x="553.369141"/>
      <use xlink:href="#DejaVuSans-36" x="616.992188"/>
     </g>
    </g>
    <g id="line2d_32">
     <path d="M 189 120.214688 
L 199 120.214688 
L 209 120.214688 
" style="fill: none; stroke-dasharray: 5.55,2.4; stroke-dashoffset: 0; stroke: #ff7f0e; stroke-width: 1.5"/>
    </g>
    <g id="text_17">
     <!-- NEL_BTUX e:0.4576 -->
     <g transform="translate(217 123.714688)scale(0.1 -0.1)">
      <defs>
       <path id="DejaVuSans-4e" d="M 628 4666 
L 1478 4666 
L 3547 763 
L 3547 4666 
L 4159 4666 
L 4159 0 
L 3309 0 
L 1241 3903 
L 1241 0 
L 628 0 
L 628 4666 
z
" transform="scale(0.015625)"/>
       <path id="DejaVuSans-45" d="M 628 4666 
L 3578 4666 
L 3578 4134 
L 1259 4134 
L 1259 2753 
L 3481 2753 
L 3481 2222 
L 1259 2222 
L 1259 531 
L 3634 531 
L 3634 0 
L 628 0 
L 628 4666 
z
" transform="scale(0.015625)"/>
       <path id="DejaVuSans-4c" d="M 628 4666 
L 1259 4666 
L 1259 531 
L 3531 531 
L 3531 0 
L 628 0 
L 628 4666 
z
" transform="scale(0.015625)"/>
       <path id="DejaVuSans-5f" d="M 3263 -1063 
L 3263 -1509 
L -63 -1509 
L -63 -1063 
L 3263 -1063 
z
" transform="scale(0.015625)"/>
       <path id="DejaVuSans-54" d="M -19 4666 
L 3928 4666 
L 3928 4134 
L 2272 4134 
L 2272 0 
L 1638 0 
L 1638 4134 
L -19 4134 
L -19 4666 
z
" transform="scale(0.015625)"/>
       <path id="DejaVuSans-55" d="M 556 4666 
L 1191 4666 
L 1191 1831 
Q 1191 1081 1462 751 
Q 1734 422 2344 422 
Q 2950 422 3222 751 
Q 3494 1081 3494 1831 
L 3494 4666 
L 4128 4666 
L 4128 1753 
Q 4128 841 3676 375 
Q 3225 -91 2344 -91 
Q 1459 -91 1007 375 
Q 556 841 556 1753 
L 556 4666 
z
" transform="scale(0.015625)"/>
       <path id="DejaVuSans-58" d="M 403 4666 
L 1081 4666 
L 2241 2931 
L 3406 4666 
L 4084 4666 
L 2584 2425 
L 4184 0 
L 3506 0 
L 2194 1984 
L 872 0 
L 191 0 
L 1856 2491 
L 403 4666 
z
" transform="scale(0.015625)"/>
      </defs>
      <use xlink:href="#DejaVuSans-4e"/>
      <use xlink:href="#DejaVuSans-45" x="74.804688"/>
      <use xlink:href="#DejaVuSans-4c" x="137.988281"/>
      <use xlink:href="#DejaVuSans-5f" x="193.701172"/>
      <use xlink:href="#DejaVuSans-42" x="243.701172"/>
      <use xlink:href="#DejaVuSans-54" x="312.304688"/>
      <use xlink:href="#DejaVuSans-55" x="373.388672"/>
      <use xlink:href="#DejaVuSans-58" x="446.582031"/>
      <use xlink:href="#DejaVuSans-20" x="515.087891"/>
      <use xlink:href="#DejaVuSans-65" x="546.875"/>
      <use xlink:href="#DejaVuSans-3a" x="608.398438"/>
      <use xlink:href="#DejaVuSans-30" x="642.089844"/>
      <use xlink:href="#DejaVuSans-2e" x="705.712891"/>
      <use xlink:href="#DejaVuSans-34" x="737.5"/>
      <use xlink:href="#DejaVuSans-35" x="801.123047"/>
      <use xlink:href="#DejaVuSans-37" x="864.746094"/>
      <use xlink:href="#DejaVuSans-36" x="928.369141"/>
     </g>
    </g>
   </g>
  </g>
  <g id="axes_2">
   <g id="patch_8">
    <path d="M 573.882353 300.141818 
L 902.117647 300.141818 
L 902.117647 77.76 
L 573.882353 77.76 
z
" style="fill: #ffffff"/>
   </g>
   <g id="PathCollection_3">
    <g clip-path="url(#p16ae34a32f)">
     <use xlink:href="#m8a31455d99" x="783.907034" y="127.178182" style="stroke: #000000"/>
     <use xlink:href="#m8a31455d99" x="749.476759" y="209.541818" style="stroke: #000000"/>
     <use xlink:href="#m8a31455d99" x="715.046483" y="230.132727" style="stroke: #000000"/>
     <use xlink:href="#m8a31455d99" x="680.616207" y="250.723636" style="stroke: #000000"/>
     <use xlink:href="#m8a31455d99" x="646.185932" y="271.314545" style="stroke: #000000"/>
     <use xlink:href="#m8a31455d99" x="611.755656" y="291.905455" style="stroke: #000000"/>
     <use xlink:href="#m8a31455d99" x="623.232415" y="291.905455" style="stroke: #000000"/>
     <use xlink:href="#m8a31455d99" x="634.709173" y="291.905455" style="stroke: #000000"/>
     <use xlink:href="#m8a31455d99" x="646.185932" y="271.314545" style="stroke: #000000"/>
     <use xlink:href="#m8a31455d99" x="683.487233" y="250.723636" style="stroke: #000000"/>
     <use xlink:href="#m8a31455d99" x="720.78601" y="209.541818" style="stroke: #000000"/>
     <use xlink:href="#m8a31455d99" x="795.383793" y="127.178182" style="stroke: #000000"/>
     <use xlink:href="#m8a31455d99" x="758.085016" y="209.541818" style="stroke: #000000"/>
     <use xlink:href="#m8a31455d99" x="646.188227" y="271.314545" style="stroke: #000000"/>
     <use xlink:href="#m8a31455d99" x="689.056445" y="250.723636" style="stroke: #000000"/>
     <use xlink:href="#m8a31455d99" x="795.383793" y="168.36" style="stroke: #000000"/>
     <use xlink:href="#m8a31455d99" x="653.614149" y="271.314545" style="stroke: #000000"/>
     <use xlink:href="#m8a31455d99" x="724.498971" y="230.132727" style="stroke: #000000"/>
     <use xlink:href="#m8a31455d99" x="759.941497" y="188.950909" style="stroke: #000000"/>
    </g>
   </g>
   <g id="matplotlib.axis_3">
    <g id="xtick_8">
     <g id="line2d_33">
      <path d="M 611.755656 300.141818 
L 611.755656 77.76 
" clip-path="url(#p16ae34a32f)" style="fill: none; stroke: #b0b0b0; stroke-width: 0.8; stroke-linecap: square"/>
     </g>
     <g id="line2d_34">
      <g>
       <use xlink:href="#m515b500af6" x="611.755656" y="300.141818" style="stroke: #000000; stroke-width: 0.8"/>
      </g>
     </g>
     <g id="text_18">
      <!-- 0 -->
      <g transform="translate(608.574406 314.740256)scale(0.1 -0.1)">
       <use xlink:href="#DejaVuSans-30"/>
      </g>
     </g>
    </g>
    <g id="xtick_9">
     <g id="line2d_35">
      <path d="M 657.66269 300.141818 
L 657.66269 77.76 
" clip-path="url(#p16ae34a32f)" style="fill: none; stroke: #b0b0b0; stroke-width: 0.8; stroke-linecap: square"/>
     </g>
     <g id="line2d_36">
      <g>
       <use xlink:href="#m515b500af6" x="657.66269" y="300.141818" style="stroke: #000000; stroke-width: 0.8"/>
      </g>
     </g>
     <g id="text_19">
      <!-- 20 -->
      <g transform="translate(651.30019 314.740256)scale(0.1 -0.1)">
       <use xlink:href="#DejaVuSans-32"/>
       <use xlink:href="#DejaVuSans-30" x="63.623047"/>
      </g>
     </g>
    </g>
    <g id="xtick_10">
     <g id="line2d_37">
      <path d="M 703.569724 300.141818 
L 703.569724 77.76 
" clip-path="url(#p16ae34a32f)" style="fill: none; stroke: #b0b0b0; stroke-width: 0.8; stroke-linecap: square"/>
     </g>
     <g id="line2d_38">
      <g>
       <use xlink:href="#m515b500af6" x="703.569724" y="300.141818" style="stroke: #000000; stroke-width: 0.8"/>
      </g>
     </g>
     <g id="text_20">
      <!-- 40 -->
      <g transform="translate(697.207224 314.740256)scale(0.1 -0.1)">
       <use xlink:href="#DejaVuSans-34"/>
       <use xlink:href="#DejaVuSans-30" x="63.623047"/>
      </g>
     </g>
    </g>
    <g id="xtick_11">
     <g id="line2d_39">
      <path d="M 749.476759 300.141818 
L 749.476759 77.76 
" clip-path="url(#p16ae34a32f)" style="fill: none; stroke: #b0b0b0; stroke-width: 0.8; stroke-linecap: square"/>
     </g>
     <g id="line2d_40">
      <g>
       <use xlink:href="#m515b500af6" x="749.476759" y="300.141818" style="stroke: #000000; stroke-width: 0.8"/>
      </g>
     </g>
     <g id="text_21">
      <!-- 60 -->
      <g transform="translate(743.114259 314.740256)scale(0.1 -0.1)">
       <use xlink:href="#DejaVuSans-36"/>
       <use xlink:href="#DejaVuSans-30" x="63.623047"/>
      </g>
     </g>
    </g>
    <g id="xtick_12">
     <g id="line2d_41">
      <path d="M 795.383793 300.141818 
L 795.383793 77.76 
" clip-path="url(#p16ae34a32f)" style="fill: none; stroke: #b0b0b0; stroke-width: 0.8; stroke-linecap: square"/>
     </g>
     <g id="line2d_42">
      <g>
       <use xlink:href="#m515b500af6" x="795.383793" y="300.141818" style="stroke: #000000; stroke-width: 0.8"/>
      </g>
     </g>
     <g id="text_22">
      <!-- 80 -->
      <g transform="translate(789.021293 314.740256)scale(0.1 -0.1)">
       <use xlink:href="#DejaVuSans-38"/>
       <use xlink:href="#DejaVuSans-30" x="63.623047"/>
      </g>
     </g>
    </g>
    <g id="xtick_13">
     <g id="line2d_43">
      <path d="M 841.290827 300.141818 
L 841.290827 77.76 
" clip-path="url(#p16ae34a32f)" style="fill: none; stroke: #b0b0b0; stroke-width: 0.8; stroke-linecap: square"/>
     </g>
     <g id="line2d_44">
      <g>
       <use xlink:href="#m515b500af6" x="841.290827" y="300.141818" style="stroke: #000000; stroke-width: 0.8"/>
      </g>
     </g>
     <g id="text_23">
      <!-- 100 -->
      <g transform="translate(831.747077 314.740256)scale(0.1 -0.1)">
       <use xlink:href="#DejaVuSans-31"/>
       <use xlink:href="#DejaVuSans-30" x="63.623047"/>
       <use xlink:href="#DejaVuSans-30" x="127.246094"/>
      </g>
     </g>
    </g>
    <g id="xtick_14">
     <g id="line2d_45">
      <path d="M 887.197861 300.141818 
L 887.197861 77.76 
" clip-path="url(#p16ae34a32f)" style="fill: none; stroke: #b0b0b0; stroke-width: 0.8; stroke-linecap: square"/>
     </g>
     <g id="line2d_46">
      <g>
       <use xlink:href="#m515b500af6" x="887.197861" y="300.141818" style="stroke: #000000; stroke-width: 0.8"/>
      </g>
     </g>
     <g id="text_24">
      <!-- 120 -->
      <g transform="translate(877.654111 314.740256)scale(0.1 -0.1)">
       <use xlink:href="#DejaVuSans-31"/>
       <use xlink:href="#DejaVuSans-32" x="63.623047"/>
       <use xlink:href="#DejaVuSans-30" x="127.246094"/>
      </g>
     </g>
    </g>
   </g>
   <g id="matplotlib.axis_4">
    <g id="ytick_7">
     <g id="line2d_47">
      <path d="M 573.882353 291.905455 
L 902.117647 291.905455 
" clip-path="url(#p16ae34a32f)" style="fill: none; stroke: #b0b0b0; stroke-width: 0.8; stroke-linecap: square"/>
     </g>
     <g id="line2d_48">
      <g>
       <use xlink:href="#m6999264434" x="573.882353" y="291.905455" style="stroke: #000000; stroke-width: 0.8"/>
      </g>
     </g>
     <g id="text_25">
      <!-- 0 -->
      <g transform="translate(560.519853 295.704673)scale(0.1 -0.1)">
       <use xlink:href="#DejaVuSans-30"/>
      </g>
     </g>
    </g>
    <g id="ytick_8">
     <g id="line2d_49">
      <path d="M 573.882353 250.723636 
L 902.117647 250.723636 
" clip-path="url(#p16ae34a32f)" style="fill: none; stroke: #b0b0b0; stroke-width: 0.8; stroke-linecap: square"/>
     </g>
     <g id="line2d_50">
      <g>
       <use xlink:href="#m6999264434" x="573.882353" y="250.723636" style="stroke: #000000; stroke-width: 0.8"/>
      </g>
     </g>
     <g id="text_26">
      <!-- 10 -->
      <g transform="translate(554.157353 254.522855)scale(0.1 -0.1)">
       <use xlink:href="#DejaVuSans-31"/>
       <use xlink:href="#DejaVuSans-30" x="63.623047"/>
      </g>
     </g>
    </g>
    <g id="ytick_9">
     <g id="line2d_51">
      <path d="M 573.882353 209.541818 
L 902.117647 209.541818 
" clip-path="url(#p16ae34a32f)" style="fill: none; stroke: #b0b0b0; stroke-width: 0.8; stroke-linecap: square"/>
     </g>
     <g id="line2d_52">
      <g>
       <use xlink:href="#m6999264434" x="573.882353" y="209.541818" style="stroke: #000000; stroke-width: 0.8"/>
      </g>
     </g>
     <g id="text_27">
      <!-- 20 -->
      <g transform="translate(554.157353 213.341037)scale(0.1 -0.1)">
       <use xlink:href="#DejaVuSans-32"/>
       <use xlink:href="#DejaVuSans-30" x="63.623047"/>
      </g>
     </g>
    </g>
    <g id="ytick_10">
     <g id="line2d_53">
      <path d="M 573.882353 168.36 
L 902.117647 168.36 
" clip-path="url(#p16ae34a32f)" style="fill: none; stroke: #b0b0b0; stroke-width: 0.8; stroke-linecap: square"/>
     </g>
     <g id="line2d_54">
      <g>
       <use xlink:href="#m6999264434" x="573.882353" y="168.36" style="stroke: #000000; stroke-width: 0.8"/>
      </g>
     </g>
     <g id="text_28">
      <!-- 30 -->
      <g transform="translate(554.157353 172.159219)scale(0.1 -0.1)">
       <use xlink:href="#DejaVuSans-33"/>
       <use xlink:href="#DejaVuSans-30" x="63.623047"/>
      </g>
     </g>
    </g>
    <g id="ytick_11">
     <g id="line2d_55">
      <path d="M 573.882353 127.178182 
L 902.117647 127.178182 
" clip-path="url(#p16ae34a32f)" style="fill: none; stroke: #b0b0b0; stroke-width: 0.8; stroke-linecap: square"/>
     </g>
     <g id="line2d_56">
      <g>
       <use xlink:href="#m6999264434" x="573.882353" y="127.178182" style="stroke: #000000; stroke-width: 0.8"/>
      </g>
     </g>
     <g id="text_29">
      <!-- 40 -->
      <g transform="translate(554.157353 130.977401)scale(0.1 -0.1)">
       <use xlink:href="#DejaVuSans-34"/>
       <use xlink:href="#DejaVuSans-30" x="63.623047"/>
      </g>
     </g>
    </g>
    <g id="ytick_12">
     <g id="line2d_57">
      <path d="M 573.882353 85.996364 
L 902.117647 85.996364 
" clip-path="url(#p16ae34a32f)" style="fill: none; stroke: #b0b0b0; stroke-width: 0.8; stroke-linecap: square"/>
     </g>
     <g id="line2d_58">
      <g>
       <use xlink:href="#m6999264434" x="573.882353" y="85.996364" style="stroke: #000000; stroke-width: 0.8"/>
      </g>
     </g>
     <g id="text_30">
      <!-- 50 -->
      <g transform="translate(554.157353 89.795582)scale(0.1 -0.1)">
       <use xlink:href="#DejaVuSans-35"/>
       <use xlink:href="#DejaVuSans-30" x="63.623047"/>
      </g>
     </g>
    </g>
   </g>
   <g id="line2d_59">
    <path d="M 588.802139 188.950909 
L 887.197861 188.950909 
" clip-path="url(#p16ae34a32f)" style="fill: none; stroke-dasharray: 1.5,2.475; stroke-dashoffset: 0; stroke: #808080; stroke-width: 1.5"/>
   </g>
   <g id="line2d_60">
    <path d="M 795.383793 333.087273 
L 795.383793 3.632727 
" clip-path="url(#p16ae34a32f)" style="fill: none; stroke-dasharray: 5.55,2.4; stroke-dashoffset: 0; stroke: #ff0000; stroke-opacity: 0.3; stroke-width: 1.5"/>
   </g>
   <g id="line2d_61">
    <path d="M 626.387856 291.905455 
L 628.558593 290.288773 
L 630.72933 288.672091 
L 632.900067 287.055409 
L 635.070804 285.438727 
L 637.241541 283.822045 
L 639.412278 282.205363 
L 641.583015 280.588681 
L 643.753752 278.971999 
L 645.924489 277.355317 
L 648.095227 275.738635 
L 650.265964 274.121953 
L 652.436701 272.505271 
L 654.607438 270.888589 
L 656.778175 269.271907 
L 658.948912 267.655225 
L 661.119649 266.038542 
L 663.290386 264.42186 
L 665.461123 262.805178 
L 667.63186 261.188496 
L 669.802597 259.571814 
L 671.973334 257.955132 
L 674.144071 256.33845 
L 676.314809 254.721768 
L 678.485546 253.105086 
L 680.656283 251.488404 
L 682.82702 249.871722 
L 684.997757 248.25504 
L 687.168494 246.638358 
L 689.339231 245.021676 
L 691.509968 243.404994 
L 693.680705 241.788312 
L 695.851442 240.17163 
L 698.022179 238.554948 
L 700.192916 236.938266 
L 702.363653 235.321584 
L 704.534391 233.704902 
L 706.705128 232.08822 
L 708.875865 230.471538 
L 711.046602 228.85041 
L 713.217339 227.215158 
L 715.388076 225.565079 
L 717.558813 223.899762 
L 719.72955 222.218778 
L 721.900287 220.521676 
L 724.071024 218.807982 
L 726.241761 217.077201 
L 728.412498 215.328812 
L 730.583235 213.562265 
L 732.753972 211.776983 
L 734.92471 209.972356 
L 737.095447 208.147742 
L 739.266184 206.302462 
L 741.436921 204.435797 
L 743.607658 202.546987 
L 745.778395 200.635223 
L 747.949132 198.699647 
L 750.119869 196.739348 
L 752.290606 194.753353 
L 754.461343 192.740624 
L 756.63208 190.700052 
L 758.802817 188.630448 
L 760.973554 186.530537 
L 763.144292 184.398946 
L 765.315029 182.234198 
L 767.485766 180.034694 
L 769.656503 177.798706 
L 771.82724 175.524355 
L 773.997977 173.209596 
L 776.168714 170.852195 
L 778.339451 168.449706 
L 780.510188 165.999438 
L 782.680925 163.498421 
L 784.851662 160.943365 
L 787.022399 158.330608 
L 789.193136 155.656056 
L 791.363873 152.915103 
L 793.534611 150.102546 
L 795.705348 147.213969 
L 797.876085 144.298845 
L 800.046822 141.383721 
L 802.217559 138.468597 
L 804.388296 135.553473 
L 806.559033 132.638349 
L 808.72977 129.723225 
L 810.900507 126.808101 
L 813.071244 123.892977 
L 815.241981 120.977853 
L 817.412718 118.062729 
L 819.583455 115.147604 
L 821.754193 112.23248 
L 823.92493 109.317356 
L 826.095667 106.402232 
L 828.266404 103.487108 
L 830.437141 100.571984 
L 832.607878 97.65686 
L 834.778615 94.741736 
L 836.949352 91.826612 
L 839.120089 88.911488 
L 841.290826 85.996364 
" clip-path="url(#p16ae34a32f)" style="fill: none; stroke: #1f77b4; stroke-width: 1.5; stroke-linecap: square"/>
   </g>
   <g id="line2d_62">
    <path d="M 624.982766 291.905455 
L 626.851737 290.601117 
L 628.720709 289.296779 
L 630.58968 287.992441 
L 632.458652 286.688103 
L 634.327624 285.383765 
L 636.196595 284.079427 
L 638.065567 282.775089 
L 639.934538 281.470751 
L 641.80351 280.166413 
L 643.672482 278.862075 
L 645.541453 277.557737 
L 647.410425 276.253399 
L 649.279396 274.949061 
L 651.148368 273.644723 
L 653.01734 272.340385 
L 654.886311 271.036047 
L 656.755283 269.731709 
L 658.624254 268.427371 
L 660.493226 267.123033 
L 662.362198 265.818695 
L 664.231169 264.514357 
L 666.100141 263.210019 
L 667.969112 261.905681 
L 669.838084 260.601343 
L 671.707056 259.297005 
L 673.576027 257.992667 
L 675.444999 256.688329 
L 677.31397 255.383991 
L 679.182942 254.079654 
L 681.051914 252.775316 
L 682.920885 251.470978 
L 684.789857 250.16664 
L 686.658828 248.862302 
L 688.5278 247.557964 
L 690.396772 246.253626 
L 692.265743 244.949288 
L 694.134715 243.64495 
L 696.003686 242.340612 
L 697.872658 241.036274 
L 699.74163 239.731936 
L 701.610601 238.427598 
L 703.479573 237.12326 
L 705.348544 235.818922 
L 707.217516 234.514584 
L 709.086488 233.210246 
L 710.955459 231.905908 
L 712.824431 230.60157 
L 714.693403 229.294048 
L 716.562374 227.971753 
L 718.431346 226.633109 
L 720.300317 225.277496 
L 722.169289 223.90425 
L 724.038261 222.512666 
L 725.907232 221.101987 
L 727.776204 219.671407 
L 729.645175 218.220058 
L 731.514147 216.747008 
L 733.383119 215.251255 
L 735.25209 213.731713 
L 737.121062 212.187212 
L 738.990033 210.61648 
L 740.859005 209.018132 
L 742.727977 207.390659 
L 744.596948 205.732407 
L 746.46592 204.041563 
L 748.334891 202.316124 
L 750.203863 200.553877 
L 752.072835 198.75236 
L 753.941806 196.908825 
L 755.810778 195.020187 
L 757.679749 193.082963 
L 759.548721 191.093201 
L 761.417693 189.046377 
L 763.286664 186.937281 
L 765.155636 184.759859 
L 767.024607 182.507006 
L 768.893579 180.170293 
L 770.762551 177.739594 
L 772.631522 175.202564 
L 774.500494 172.543893 
L 776.369465 169.744202 
L 778.238437 166.778343 
L 780.107409 163.612668 
L 781.97638 160.20036 
L 783.845352 156.472841 
L 785.714323 152.32227 
L 787.583295 147.561048 
L 789.452267 142.430658 
L 791.321238 137.300267 
L 793.19021 132.169877 
L 795.059181 127.039486 
L 796.928153 121.909096 
L 798.797125 116.778706 
L 800.666096 111.648315 
L 802.535068 106.517925 
L 804.404039 101.387535 
L 806.273011 96.257144 
L 808.141983 91.126754 
L 810.010954 85.996364 
" clip-path="url(#p16ae34a32f)" style="fill: none; stroke-dasharray: 5.55,2.4; stroke-dashoffset: 0; stroke: #ff7f0e; stroke-width: 1.5"/>
   </g>
   <g id="patch_9">
    <path d="M 573.882353 300.141818 
L 573.882353 77.76 
" style="fill: none; stroke: #000000; stroke-width: 0.8; stroke-linejoin: miter; stroke-linecap: square"/>
   </g>
   <g id="patch_10">
    <path d="M 902.117647 300.141818 
L 902.117647 77.76 
" style="fill: none; stroke: #000000; stroke-width: 0.8; stroke-linejoin: miter; stroke-linecap: square"/>
   </g>
   <g id="patch_11">
    <path d="M 573.882353 300.141818 
L 902.117647 300.141818 
" style="fill: none; stroke: #000000; stroke-width: 0.8; stroke-linejoin: miter; stroke-linecap: square"/>
   </g>
   <g id="patch_12">
    <path d="M 573.882353 77.76 
L 902.117647 77.76 
" style="fill: none; stroke: #000000; stroke-width: 0.8; stroke-linejoin: miter; stroke-linecap: square"/>
   </g>
   <g id="text_31">
    <!--  Block: 1 -->
    <g transform="translate(712.119375 71.76)scale(0.12 -0.12)">
     <use xlink:href="#DejaVuSans-20"/>
     <use xlink:href="#DejaVuSans-42" x="31.787109"/>
     <use xlink:href="#DejaVuSans-6c" x="100.390625"/>
     <use xlink:href="#DejaVuSans-6f" x="128.173828"/>
     <use xlink:href="#DejaVuSans-63" x="189.355469"/>
     <use xlink:href="#DejaVuSans-6b" x="244.335938"/>
     <use xlink:href="#DejaVuSans-3a" x="302.246094"/>
     <use xlink:href="#DejaVuSans-20" x="335.9375"/>
     <use xlink:href="#DejaVuSans-31" x="367.724609"/>
    </g>
   </g>
   <g id="legend_2">
    <g id="patch_13">
     <path d="M 580.882353 130.0725 
L 712.082353 130.0725 
Q 714.082353 130.0725 714.082353 128.0725 
L 714.082353 84.76 
Q 714.082353 82.76 712.082353 82.76 
L 580.882353 82.76 
Q 578.882353 82.76 578.882353 84.76 
L 578.882353 128.0725 
Q 578.882353 130.0725 580.882353 130.0725 
z
" style="fill: #ffffff; opacity: 0.8; stroke: #cccccc; stroke-linejoin: miter"/>
    </g>
    <g id="PathCollection_4">
     <g>
      <use xlink:href="#m8a31455d99" x="592.882353" y="91.733438" style="stroke: #000000"/>
     </g>
    </g>
    <g id="text_32">
     <!-- Data -->
     <g transform="translate(610.882353 94.358438)scale(0.1 -0.1)">
      <use xlink:href="#DejaVuSans-44"/>
      <use xlink:href="#DejaVuSans-61" x="77.001953"/>
      <use xlink:href="#DejaVuSans-74" x="138.28125"/>
      <use xlink:href="#DejaVuSans-61" x="177.490234"/>
     </g>
    </g>
    <g id="line2d_63">
     <path d="M 582.882353 105.536563 
L 592.882353 105.536563 
L 602.882353 105.536563 
" style="fill: none; stroke: #1f77b4; stroke-width: 1.5; stroke-linecap: square"/>
    </g>
    <g id="text_33">
     <!-- Artc e:0.1663 -->
     <g transform="translate(610.882353 109.036563)scale(0.1 -0.1)">
      <use xlink:href="#DejaVuSans-41"/>
      <use xlink:href="#DejaVuSans-72" x="68.408203"/>
      <use xlink:href="#DejaVuSans-74" x="109.521484"/>
      <use xlink:href="#DejaVuSans-63" x="148.730469"/>
      <use xlink:href="#DejaVuSans-20" x="203.710938"/>
      <use xlink:href="#DejaVuSans-65" x="235.498047"/>
      <use xlink:href="#DejaVuSans-3a" x="297.021484"/>
      <use xlink:href="#DejaVuSans-30" x="330.712891"/>
      <use xlink:href="#DejaVuSans-2e" x="394.335938"/>
      <use xlink:href="#DejaVuSans-31" x="426.123047"/>
      <use xlink:href="#DejaVuSans-36" x="489.746094"/>
      <use xlink:href="#DejaVuSans-36" x="553.369141"/>
      <use xlink:href="#DejaVuSans-33" x="616.992188"/>
     </g>
    </g>
    <g id="line2d_64">
     <path d="M 582.882353 120.214688 
L 592.882353 120.214688 
L 602.882353 120.214688 
" style="fill: none; stroke-dasharray: 5.55,2.4; stroke-dashoffset: 0; stroke: #ff7f0e; stroke-width: 1.5"/>
    </g>
    <g id="text_34">
     <!-- NEL_BTUX e:0.1745 -->
     <g transform="translate(610.882353 123.714688)scale(0.1 -0.1)">
      <use xlink:href="#DejaVuSans-4e"/>
      <use xlink:href="#DejaVuSans-45" x="74.804688"/>
      <use xlink:href="#DejaVuSans-4c" x="137.988281"/>
      <use xlink:href="#DejaVuSans-5f" x="193.701172"/>
      <use xlink:href="#DejaVuSans-42" x="243.701172"/>
      <use xlink:href="#DejaVuSans-54" x="312.304688"/>
      <use xlink:href="#DejaVuSans-55" x="373.388672"/>
      <use xlink:href="#DejaVuSans-58" x="446.582031"/>
      <use xlink:href="#DejaVuSans-20" x="515.087891"/>
      <use xlink:href="#DejaVuSans-65" x="546.875"/>
      <use xlink:href="#DejaVuSans-3a" x="608.398438"/>
      <use xlink:href="#DejaVuSans-30" x="642.089844"/>
      <use xlink:href="#DejaVuSans-2e" x="705.712891"/>
      <use xlink:href="#DejaVuSans-31" x="737.5"/>
      <use xlink:href="#DejaVuSans-37" x="801.123047"/>
      <use xlink:href="#DejaVuSans-34" x="864.746094"/>
      <use xlink:href="#DejaVuSans-35" x="928.369141"/>
     </g>
    </g>
   </g>
  </g>
  <g id="axes_3">
   <g id="patch_14">
    <path d="M 967.764706 300.141818 
L 1296 300.141818 
L 1296 77.76 
L 967.764706 77.76 
z
" style="fill: #ffffff"/>
   </g>
   <g id="PathCollection_5">
    <g clip-path="url(#p853ef45257)">
     <use xlink:href="#m8a31455d99" x="1177.789387" y="127.178182" style="stroke: #000000"/>
     <use xlink:href="#m8a31455d99" x="1143.359111" y="188.950909" style="stroke: #000000"/>
     <use xlink:href="#m8a31455d99" x="1108.928836" y="230.132727" style="stroke: #000000"/>
     <use xlink:href="#m8a31455d99" x="1074.49856" y="250.723636" style="stroke: #000000"/>
     <use xlink:href="#m8a31455d99" x="1040.068285" y="271.314545" style="stroke: #000000"/>
     <use xlink:href="#m8a31455d99" x="1005.638009" y="291.905455" style="stroke: #000000"/>
     <use xlink:href="#m8a31455d99" x="1017.114768" y="291.905455" style="stroke: #000000"/>
     <use xlink:href="#m8a31455d99" x="1028.591526" y="291.905455" style="stroke: #000000"/>
     <use xlink:href="#m8a31455d99" x="1040.068285" y="291.905455" style="stroke: #000000"/>
     <use xlink:href="#m8a31455d99" x="1051.545043" y="271.314545" style="stroke: #000000"/>
     <use xlink:href="#m8a31455d99" x="1085.971646" y="250.723636" style="stroke: #000000"/>
     <use xlink:href="#m8a31455d99" x="1051.540223" y="271.314545" style="stroke: #000000"/>
     <use xlink:href="#m8a31455d99" x="1154.834722" y="168.36" style="stroke: #000000"/>
     <use xlink:href="#m8a31455d99" x="1189.266146" y="127.178182" style="stroke: #000000"/>
     <use xlink:href="#m8a31455d99" x="1120.40307" y="188.950909" style="stroke: #000000"/>
     <use xlink:href="#m8a31455d99" x="1054.532673" y="271.314545" style="stroke: #000000"/>
     <use xlink:href="#m8a31455d99" x="1189.266146" y="127.178182" style="stroke: #000000"/>
     <use xlink:href="#m8a31455d99" x="1155.582777" y="188.950909" style="stroke: #000000"/>
     <use xlink:href="#m8a31455d99" x="1121.899409" y="230.132727" style="stroke: #000000"/>
     <use xlink:href="#m8a31455d99" x="1088.216041" y="250.723636" style="stroke: #000000"/>
    </g>
   </g>
   <g id="matplotlib.axis_5">
    <g id="xtick_15">
     <g id="line2d_65">
      <path d="M 1005.638009 300.141818 
L 1005.638009 77.76 
" clip-path="url(#p853ef45257)" style="fill: none; stroke: #b0b0b0; stroke-width: 0.8; stroke-linecap: square"/>
     </g>
     <g id="line2d_66">
      <g>
       <use xlink:href="#m515b500af6" x="1005.638009" y="300.141818" style="stroke: #000000; stroke-width: 0.8"/>
      </g>
     </g>
     <g id="text_35">
      <!-- 0 -->
      <g transform="translate(1002.456759 314.740256)scale(0.1 -0.1)">
       <use xlink:href="#DejaVuSans-30"/>
      </g>
     </g>
    </g>
    <g id="xtick_16">
     <g id="line2d_67">
      <path d="M 1051.545043 300.141818 
L 1051.545043 77.76 
" clip-path="url(#p853ef45257)" style="fill: none; stroke: #b0b0b0; stroke-width: 0.8; stroke-linecap: square"/>
     </g>
     <g id="line2d_68">
      <g>
       <use xlink:href="#m515b500af6" x="1051.545043" y="300.141818" style="stroke: #000000; stroke-width: 0.8"/>
      </g>
     </g>
     <g id="text_36">
      <!-- 20 -->
      <g transform="translate(1045.182543 314.740256)scale(0.1 -0.1)">
       <use xlink:href="#DejaVuSans-32"/>
       <use xlink:href="#DejaVuSans-30" x="63.623047"/>
      </g>
     </g>
    </g>
    <g id="xtick_17">
     <g id="line2d_69">
      <path d="M 1097.452077 300.141818 
L 1097.452077 77.76 
" clip-path="url(#p853ef45257)" style="fill: none; stroke: #b0b0b0; stroke-width: 0.8; stroke-linecap: square"/>
     </g>
     <g id="line2d_70">
      <g>
       <use xlink:href="#m515b500af6" x="1097.452077" y="300.141818" style="stroke: #000000; stroke-width: 0.8"/>
      </g>
     </g>
     <g id="text_37">
      <!-- 40 -->
      <g transform="translate(1091.089577 314.740256)scale(0.1 -0.1)">
       <use xlink:href="#DejaVuSans-34"/>
       <use xlink:href="#DejaVuSans-30" x="63.623047"/>
      </g>
     </g>
    </g>
    <g id="xtick_18">
     <g id="line2d_71">
      <path d="M 1143.359111 300.141818 
L 1143.359111 77.76 
" clip-path="url(#p853ef45257)" style="fill: none; stroke: #b0b0b0; stroke-width: 0.8; stroke-linecap: square"/>
     </g>
     <g id="line2d_72">
      <g>
       <use xlink:href="#m515b500af6" x="1143.359111" y="300.141818" style="stroke: #000000; stroke-width: 0.8"/>
      </g>
     </g>
     <g id="text_38">
      <!-- 60 -->
      <g transform="translate(1136.996611 314.740256)scale(0.1 -0.1)">
       <use xlink:href="#DejaVuSans-36"/>
       <use xlink:href="#DejaVuSans-30" x="63.623047"/>
      </g>
     </g>
    </g>
    <g id="xtick_19">
     <g id="line2d_73">
      <path d="M 1189.266146 300.141818 
L 1189.266146 77.76 
" clip-path="url(#p853ef45257)" style="fill: none; stroke: #b0b0b0; stroke-width: 0.8; stroke-linecap: square"/>
     </g>
     <g id="line2d_74">
      <g>
       <use xlink:href="#m515b500af6" x="1189.266146" y="300.141818" style="stroke: #000000; stroke-width: 0.8"/>
      </g>
     </g>
     <g id="text_39">
      <!-- 80 -->
      <g transform="translate(1182.903646 314.740256)scale(0.1 -0.1)">
       <use xlink:href="#DejaVuSans-38"/>
       <use xlink:href="#DejaVuSans-30" x="63.623047"/>
      </g>
     </g>
    </g>
    <g id="xtick_20">
     <g id="line2d_75">
      <path d="M 1235.17318 300.141818 
L 1235.17318 77.76 
" clip-path="url(#p853ef45257)" style="fill: none; stroke: #b0b0b0; stroke-width: 0.8; stroke-linecap: square"/>
     </g>
     <g id="line2d_76">
      <g>
       <use xlink:href="#m515b500af6" x="1235.17318" y="300.141818" style="stroke: #000000; stroke-width: 0.8"/>
      </g>
     </g>
     <g id="text_40">
      <!-- 100 -->
      <g transform="translate(1225.62943 314.740256)scale(0.1 -0.1)">
       <use xlink:href="#DejaVuSans-31"/>
       <use xlink:href="#DejaVuSans-30" x="63.623047"/>
       <use xlink:href="#DejaVuSans-30" x="127.246094"/>
      </g>
     </g>
    </g>
    <g id="xtick_21">
     <g id="line2d_77">
      <path d="M 1281.080214 300.141818 
L 1281.080214 77.76 
" clip-path="url(#p853ef45257)" style="fill: none; stroke: #b0b0b0; stroke-width: 0.8; stroke-linecap: square"/>
     </g>
     <g id="line2d_78">
      <g>
       <use xlink:href="#m515b500af6" x="1281.080214" y="300.141818" style="stroke: #000000; stroke-width: 0.8"/>
      </g>
     </g>
     <g id="text_41">
      <!-- 120 -->
      <g transform="translate(1271.536464 314.740256)scale(0.1 -0.1)">
       <use xlink:href="#DejaVuSans-31"/>
       <use xlink:href="#DejaVuSans-32" x="63.623047"/>
       <use xlink:href="#DejaVuSans-30" x="127.246094"/>
      </g>
     </g>
    </g>
   </g>
   <g id="matplotlib.axis_6">
    <g id="ytick_13">
     <g id="line2d_79">
      <path d="M 967.764706 291.905455 
L 1296 291.905455 
" clip-path="url(#p853ef45257)" style="fill: none; stroke: #b0b0b0; stroke-width: 0.8; stroke-linecap: square"/>
     </g>
     <g id="line2d_80">
      <g>
       <use xlink:href="#m6999264434" x="967.764706" y="291.905455" style="stroke: #000000; stroke-width: 0.8"/>
      </g>
     </g>
     <g id="text_42">
      <!-- 0 -->
      <g transform="translate(954.402206 295.704673)scale(0.1 -0.1)">
       <use xlink:href="#DejaVuSans-30"/>
      </g>
     </g>
    </g>
    <g id="ytick_14">
     <g id="line2d_81">
      <path d="M 967.764706 250.723636 
L 1296 250.723636 
" clip-path="url(#p853ef45257)" style="fill: none; stroke: #b0b0b0; stroke-width: 0.8; stroke-linecap: square"/>
     </g>
     <g id="line2d_82">
      <g>
       <use xlink:href="#m6999264434" x="967.764706" y="250.723636" style="stroke: #000000; stroke-width: 0.8"/>
      </g>
     </g>
     <g id="text_43">
      <!-- 10 -->
      <g transform="translate(948.039706 254.522855)scale(0.1 -0.1)">
       <use xlink:href="#DejaVuSans-31"/>
       <use xlink:href="#DejaVuSans-30" x="63.623047"/>
      </g>
     </g>
    </g>
    <g id="ytick_15">
     <g id="line2d_83">
      <path d="M 967.764706 209.541818 
L 1296 209.541818 
" clip-path="url(#p853ef45257)" style="fill: none; stroke: #b0b0b0; stroke-width: 0.8; stroke-linecap: square"/>
     </g>
     <g id="line2d_84">
      <g>
       <use xlink:href="#m6999264434" x="967.764706" y="209.541818" style="stroke: #000000; stroke-width: 0.8"/>
      </g>
     </g>
     <g id="text_44">
      <!-- 20 -->
      <g transform="translate(948.039706 213.341037)scale(0.1 -0.1)">
       <use xlink:href="#DejaVuSans-32"/>
       <use xlink:href="#DejaVuSans-30" x="63.623047"/>
      </g>
     </g>
    </g>
    <g id="ytick_16">
     <g id="line2d_85">
      <path d="M 967.764706 168.36 
L 1296 168.36 
" clip-path="url(#p853ef45257)" style="fill: none; stroke: #b0b0b0; stroke-width: 0.8; stroke-linecap: square"/>
     </g>
     <g id="line2d_86">
      <g>
       <use xlink:href="#m6999264434" x="967.764706" y="168.36" style="stroke: #000000; stroke-width: 0.8"/>
      </g>
     </g>
     <g id="text_45">
      <!-- 30 -->
      <g transform="translate(948.039706 172.159219)scale(0.1 -0.1)">
       <use xlink:href="#DejaVuSans-33"/>
       <use xlink:href="#DejaVuSans-30" x="63.623047"/>
      </g>
     </g>
    </g>
    <g id="ytick_17">
     <g id="line2d_87">
      <path d="M 967.764706 127.178182 
L 1296 127.178182 
" clip-path="url(#p853ef45257)" style="fill: none; stroke: #b0b0b0; stroke-width: 0.8; stroke-linecap: square"/>
     </g>
     <g id="line2d_88">
      <g>
       <use xlink:href="#m6999264434" x="967.764706" y="127.178182" style="stroke: #000000; stroke-width: 0.8"/>
      </g>
     </g>
     <g id="text_46">
      <!-- 40 -->
      <g transform="translate(948.039706 130.977401)scale(0.1 -0.1)">
       <use xlink:href="#DejaVuSans-34"/>
       <use xlink:href="#DejaVuSans-30" x="63.623047"/>
      </g>
     </g>
    </g>
    <g id="ytick_18">
     <g id="line2d_89">
      <path d="M 967.764706 85.996364 
L 1296 85.996364 
" clip-path="url(#p853ef45257)" style="fill: none; stroke: #b0b0b0; stroke-width: 0.8; stroke-linecap: square"/>
     </g>
     <g id="line2d_90">
      <g>
       <use xlink:href="#m6999264434" x="967.764706" y="85.996364" style="stroke: #000000; stroke-width: 0.8"/>
      </g>
     </g>
     <g id="text_47">
      <!-- 50 -->
      <g transform="translate(948.039706 89.795582)scale(0.1 -0.1)">
       <use xlink:href="#DejaVuSans-35"/>
       <use xlink:href="#DejaVuSans-30" x="63.623047"/>
      </g>
     </g>
    </g>
   </g>
   <g id="line2d_91">
    <path d="M 982.684492 188.950909 
L 1281.080214 188.950909 
" clip-path="url(#p853ef45257)" style="fill: none; stroke-dasharray: 1.5,2.475; stroke-dashoffset: 0; stroke: #808080; stroke-width: 1.5"/>
   </g>
   <g id="line2d_92">
    <path d="M 1189.266146 333.087273 
L 1189.266146 3.632727 
" clip-path="url(#p853ef45257)" style="fill: none; stroke-dasharray: 5.55,2.4; stroke-dashoffset: 0; stroke: #ff0000; stroke-opacity: 0.3; stroke-width: 1.5"/>
   </g>
   <g id="line2d_93">
    <path d="M 1032.529309 291.905455 
L 1034.576217 290.003994 
L 1036.623125 288.102534 
L 1038.670032 286.201074 
L 1040.71694 284.299614 
L 1042.763848 282.398153 
L 1044.810756 280.496693 
L 1046.857664 278.595233 
L 1048.904571 276.693773 
L 1050.951479 274.792313 
L 1052.998387 272.890852 
L 1055.045295 270.989392 
L 1057.092202 269.087932 
L 1059.13911 267.186472 
L 1061.186018 265.285011 
L 1063.232926 263.383551 
L 1065.279834 261.482091 
L 1067.326741 259.580631 
L 1069.373649 257.679171 
L 1071.420557 255.77771 
L 1073.467465 253.87625 
L 1075.514372 251.97479 
L 1077.56128 250.07333 
L 1079.608188 248.171869 
L 1081.655096 246.270409 
L 1083.702004 244.368949 
L 1085.748911 242.467489 
L 1087.795819 240.566029 
L 1089.842727 238.664568 
L 1091.889635 236.763108 
L 1093.936543 234.861648 
L 1095.98345 232.960188 
L 1098.030358 231.058727 
L 1100.077266 229.156274 
L 1102.124174 227.247134 
L 1104.171081 225.330325 
L 1106.217989 223.405753 
L 1108.264897 221.473324 
L 1110.311805 219.532939 
L 1112.358713 217.584501 
L 1114.40562 215.627909 
L 1116.452528 213.663058 
L 1118.499436 211.689844 
L 1120.546344 209.708158 
L 1122.593252 207.717891 
L 1124.640159 205.71893 
L 1126.687067 203.711161 
L 1128.733975 201.694465 
L 1130.780883 199.668723 
L 1132.82779 197.633812 
L 1134.874698 195.589607 
L 1136.921606 193.535977 
L 1138.968514 191.472793 
L 1141.015422 189.39992 
L 1143.062329 187.317219 
L 1145.109237 185.22455 
L 1147.156145 183.121767 
L 1149.203053 181.008724 
L 1151.249961 178.885268 
L 1153.296868 176.751244 
L 1155.343776 174.606493 
L 1157.390684 172.45085 
L 1159.437592 170.284149 
L 1161.484499 168.106217 
L 1163.531407 165.916879 
L 1165.578315 163.715952 
L 1167.625223 161.503251 
L 1169.672131 159.278585 
L 1171.719038 157.041758 
L 1173.765946 154.792568 
L 1175.812854 152.530807 
L 1177.859762 150.256263 
L 1179.90667 147.968716 
L 1181.953577 145.673492 
L 1184.000485 143.378218 
L 1186.047393 141.082944 
L 1188.094301 138.78767 
L 1190.141208 136.492396 
L 1192.188116 134.197121 
L 1194.235024 131.901847 
L 1196.281932 129.606573 
L 1198.32884 127.311299 
L 1200.375747 125.016025 
L 1202.422655 122.720751 
L 1204.469563 120.425476 
L 1206.516471 118.130202 
L 1208.563379 115.834928 
L 1210.610286 113.539654 
L 1212.657194 111.24438 
L 1214.704102 108.949105 
L 1216.75101 106.653831 
L 1218.797917 104.358557 
L 1220.844825 102.063283 
L 1222.891733 99.768009 
L 1224.938641 97.472735 
L 1226.985549 95.17746 
L 1229.032456 92.882186 
L 1231.079364 90.586912 
L 1233.126272 88.291638 
L 1235.17318 85.996364 
" clip-path="url(#p853ef45257)" style="fill: none; stroke: #1f77b4; stroke-width: 1.5; stroke-linecap: square"/>
   </g>
   <g id="line2d_94">
    <path d="M 1026.863267 291.905455 
L 1028.575865 290.570118 
L 1030.288463 289.234782 
L 1032.001061 287.899446 
L 1033.713658 286.564109 
L 1035.426256 285.228773 
L 1037.138854 283.893437 
L 1038.851452 282.5581 
L 1040.56405 281.222764 
L 1042.276648 279.887428 
L 1043.989246 278.552091 
L 1045.701843 277.216755 
L 1047.414441 275.881419 
L 1049.127039 274.546082 
L 1050.839637 273.210746 
L 1052.552235 271.87541 
L 1054.264833 270.540073 
L 1055.977431 269.204737 
L 1057.690029 267.869401 
L 1059.402626 266.534064 
L 1061.115224 265.198728 
L 1062.827822 263.863392 
L 1064.54042 262.528055 
L 1066.253018 261.192719 
L 1067.965616 259.857383 
L 1069.678214 258.522046 
L 1071.390811 257.18671 
L 1073.103409 255.851374 
L 1074.816007 254.516037 
L 1076.528605 253.180701 
L 1078.241203 251.845365 
L 1079.953801 250.510028 
L 1081.666399 249.174692 
L 1083.378996 247.839356 
L 1085.091594 246.504019 
L 1086.804192 245.168683 
L 1088.51679 243.833347 
L 1090.229388 242.49801 
L 1091.941986 241.162674 
L 1093.654584 239.827338 
L 1095.367181 238.492001 
L 1097.079779 237.156665 
L 1098.792377 235.821328 
L 1100.504975 234.485992 
L 1102.217573 233.150656 
L 1103.930171 231.815319 
L 1105.642769 230.479983 
L 1107.355366 229.140367 
L 1109.067964 227.785362 
L 1110.780562 226.413865 
L 1112.49316 225.025259 
L 1114.205758 223.618887 
L 1115.918356 222.19405 
L 1117.630954 220.749999 
L 1119.343552 219.285937 
L 1121.056149 217.801008 
L 1122.768747 216.294293 
L 1124.481345 214.764804 
L 1126.193943 213.211475 
L 1127.906541 211.633158 
L 1129.619139 210.028604 
L 1131.331737 208.396461 
L 1133.044334 206.735254 
L 1134.756932 205.043373 
L 1136.46953 203.319054 
L 1138.182128 201.560356 
L 1139.894726 199.765136 
L 1141.607324 197.931021 
L 1143.319922 196.055367 
L 1145.032519 194.135217 
L 1146.745117 192.167246 
L 1148.457715 190.147691 
L 1150.170313 188.072271 
L 1151.882911 185.936076 
L 1153.595509 183.733433 
L 1155.308107 181.457724 
L 1157.020704 179.101158 
L 1158.733302 176.654449 
L 1160.4459 174.106388 
L 1162.158498 171.443226 
L 1163.871096 168.647796 
L 1165.583694 165.698182 
L 1167.296292 162.565656 
L 1169.008889 159.211271 
L 1170.721487 155.579923 
L 1172.434085 151.589033 
L 1174.146683 147.111172 
L 1175.859281 142.410033 
L 1177.571879 137.708894 
L 1179.284477 133.007755 
L 1180.997074 128.306616 
L 1182.709672 123.605477 
L 1184.42227 118.904338 
L 1186.134868 114.203198 
L 1187.847466 109.502059 
L 1189.560064 104.80092 
L 1191.272662 100.099781 
L 1192.98526 95.398642 
L 1194.697857 90.697503 
L 1196.410455 85.996364 
" clip-path="url(#p853ef45257)" style="fill: none; stroke-dasharray: 5.55,2.4; stroke-dashoffset: 0; stroke: #ff7f0e; stroke-width: 1.5"/>
   </g>
   <g id="patch_15">
    <path d="M 967.764706 300.141818 
L 967.764706 77.76 
" style="fill: none; stroke: #000000; stroke-width: 0.8; stroke-linejoin: miter; stroke-linecap: square"/>
   </g>
   <g id="patch_16">
    <path d="M 1296 300.141818 
L 1296 77.76 
" style="fill: none; stroke: #000000; stroke-width: 0.8; stroke-linejoin: miter; stroke-linecap: square"/>
   </g>
   <g id="patch_17">
    <path d="M 967.764706 300.141818 
L 1296 300.141818 
" style="fill: none; stroke: #000000; stroke-width: 0.8; stroke-linejoin: miter; stroke-linecap: square"/>
   </g>
   <g id="patch_18">
    <path d="M 967.764706 77.76 
L 1296 77.76 
" style="fill: none; stroke: #000000; stroke-width: 0.8; stroke-linejoin: miter; stroke-linecap: square"/>
   </g>
   <g id="text_48">
    <!--  Block: 2 -->
    <g transform="translate(1106.001728 71.76)scale(0.12 -0.12)">
     <use xlink:href="#DejaVuSans-20"/>
     <use xlink:href="#DejaVuSans-42" x="31.787109"/>
     <use xlink:href="#DejaVuSans-6c" x="100.390625"/>
     <use xlink:href="#DejaVuSans-6f" x="128.173828"/>
     <use xlink:href="#DejaVuSans-63" x="189.355469"/>
     <use xlink:href="#DejaVuSans-6b" x="244.335938"/>
     <use xlink:href="#DejaVuSans-3a" x="302.246094"/>
     <use xlink:href="#DejaVuSans-20" x="335.9375"/>
     <use xlink:href="#DejaVuSans-32" x="367.724609"/>
    </g>
   </g>
   <g id="legend_3">
    <g id="patch_19">
     <path d="M 974.764706 130.0725 
L 1105.964706 130.0725 
Q 1107.964706 130.0725 1107.964706 128.0725 
L 1107.964706 84.76 
Q 1107.964706 82.76 1105.964706 82.76 
L 974.764706 82.76 
Q 972.764706 82.76 972.764706 84.76 
L 972.764706 128.0725 
Q 972.764706 130.0725 974.764706 130.0725 
z
" style="fill: #ffffff; opacity: 0.8; stroke: #cccccc; stroke-linejoin: miter"/>
    </g>
    <g id="PathCollection_6">
     <g>
      <use xlink:href="#m8a31455d99" x="986.764706" y="91.733438" style="stroke: #000000"/>
     </g>
    </g>
    <g id="text_49">
     <!-- Data -->
     <g transform="translate(1004.764706 94.358438)scale(0.1 -0.1)">
      <use xlink:href="#DejaVuSans-44"/>
      <use xlink:href="#DejaVuSans-61" x="77.001953"/>
      <use xlink:href="#DejaVuSans-74" x="138.28125"/>
      <use xlink:href="#DejaVuSans-61" x="177.490234"/>
     </g>
    </g>
    <g id="line2d_95">
     <path d="M 976.764706 105.536563 
L 986.764706 105.536563 
L 996.764706 105.536563 
" style="fill: none; stroke: #1f77b4; stroke-width: 1.5; stroke-linecap: square"/>
    </g>
    <g id="text_50">
     <!-- Artc e:0.1557 -->
     <g transform="translate(1004.764706 109.036563)scale(0.1 -0.1)">
      <use xlink:href="#DejaVuSans-41"/>
      <use xlink:href="#DejaVuSans-72" x="68.408203"/>
      <use xlink:href="#DejaVuSans-74" x="109.521484"/>
      <use xlink:href="#DejaVuSans-63" x="148.730469"/>
      <use xlink:href="#DejaVuSans-20" x="203.710938"/>
      <use xlink:href="#DejaVuSans-65" x="235.498047"/>
      <use xlink:href="#DejaVuSans-3a" x="297.021484"/>
      <use xlink:href="#DejaVuSans-30" x="330.712891"/>
      <use xlink:href="#DejaVuSans-2e" x="394.335938"/>
      <use xlink:href="#DejaVuSans-31" x="426.123047"/>
      <use xlink:href="#DejaVuSans-35" x="489.746094"/>
      <use xlink:href="#DejaVuSans-35" x="553.369141"/>
      <use xlink:href="#DejaVuSans-37" x="616.992188"/>
     </g>
    </g>
    <g id="line2d_96">
     <path d="M 976.764706 120.214688 
L 986.764706 120.214688 
L 996.764706 120.214688 
" style="fill: none; stroke-dasharray: 5.55,2.4; stroke-dashoffset: 0; stroke: #ff7f0e; stroke-width: 1.5"/>
    </g>
    <g id="text_51">
     <!-- NEL_BTUX e:0.1488 -->
     <g transform="translate(1004.764706 123.714688)scale(0.1 -0.1)">
      <use xlink:href="#DejaVuSans-4e"/>
      <use xlink:href="#DejaVuSans-45" x="74.804688"/>
      <use xlink:href="#DejaVuSans-4c" x="137.988281"/>
      <use xlink:href="#DejaVuSans-5f" x="193.701172"/>
      <use xlink:href="#DejaVuSans-42" x="243.701172"/>
      <use xlink:href="#DejaVuSans-54" x="312.304688"/>
      <use xlink:href="#DejaVuSans-55" x="373.388672"/>
      <use xlink:href="#DejaVuSans-58" x="446.582031"/>
      <use xlink:href="#DejaVuSans-20" x="515.087891"/>
      <use xlink:href="#DejaVuSans-65" x="546.875"/>
      <use xlink:href="#DejaVuSans-3a" x="608.398438"/>
      <use xlink:href="#DejaVuSans-30" x="642.089844"/>
      <use xlink:href="#DejaVuSans-2e" x="705.712891"/>
      <use xlink:href="#DejaVuSans-31" x="737.5"/>
      <use xlink:href="#DejaVuSans-34" x="801.123047"/>
      <use xlink:href="#DejaVuSans-38" x="864.746094"/>
      <use xlink:href="#DejaVuSans-38" x="928.369141"/>
     </g>
    </g>
   </g>
  </g>
  <g id="axes_4">
   <g id="patch_20">
    <path d="M 180 567 
L 508.235294 567 
L 508.235294 344.618182 
L 180 344.618182 
z
" style="fill: #ffffff"/>
   </g>
   <g id="PathCollection_7">
    <g clip-path="url(#p6630ff1222)">
     <use xlink:href="#m8a31455d99" x="390.024681" y="414.627273" style="stroke: #000000"/>
     <use xlink:href="#m8a31455d99" x="355.594406" y="455.809091" style="stroke: #000000"/>
     <use xlink:href="#m8a31455d99" x="321.16413" y="496.990909" style="stroke: #000000"/>
     <use xlink:href="#m8a31455d99" x="286.733854" y="517.581818" style="stroke: #000000"/>
     <use xlink:href="#m8a31455d99" x="252.303579" y="538.172727" style="stroke: #000000"/>
     <use xlink:href="#m8a31455d99" x="217.873303" y="558.763636" style="stroke: #000000"/>
     <use xlink:href="#m8a31455d99" x="229.350062" y="558.763636" style="stroke: #000000"/>
     <use xlink:href="#m8a31455d99" x="240.82682" y="558.763636" style="stroke: #000000"/>
     <use xlink:href="#m8a31455d99" x="252.303579" y="538.172727" style="stroke: #000000"/>
     <use xlink:href="#m8a31455d99" x="364.201974" y="435.218182" style="stroke: #000000"/>
     <use xlink:href="#m8a31455d99" x="326.902509" y="496.990909" style="stroke: #000000"/>
     <use xlink:href="#m8a31455d99" x="401.50144" y="394.036364" style="stroke: #000000"/>
     <use xlink:href="#m8a31455d99" x="252.303579" y="538.172727" style="stroke: #000000"/>
     <use xlink:href="#m8a31455d99" x="289.603044" y="496.990909" style="stroke: #000000"/>
     <use xlink:href="#m8a31455d99" x="364.878185" y="455.809091" style="stroke: #000000"/>
     <use xlink:href="#m8a31455d99" x="401.50144" y="373.445455" style="stroke: #000000"/>
     <use xlink:href="#m8a31455d99" x="328.254701" y="455.809091" style="stroke: #000000"/>
     <use xlink:href="#m8a31455d99" x="255.007962" y="538.172727" style="stroke: #000000"/>
     <use xlink:href="#m8a31455d99" x="291.631446" y="496.990909" style="stroke: #000000"/>
    </g>
   </g>
   <g id="matplotlib.axis_7">
    <g id="xtick_22">
     <g id="line2d_97">
      <path d="M 217.873303 567 
L 217.873303 344.618182 
" clip-path="url(#p6630ff1222)" style="fill: none; stroke: #b0b0b0; stroke-width: 0.8; stroke-linecap: square"/>
     </g>
     <g id="line2d_98">
      <g>
       <use xlink:href="#m515b500af6" x="217.873303" y="567" style="stroke: #000000; stroke-width: 0.8"/>
      </g>
     </g>
     <g id="text_52">
      <!-- 0 -->
      <g transform="translate(214.692053 581.598437)scale(0.1 -0.1)">
       <use xlink:href="#DejaVuSans-30"/>
      </g>
     </g>
    </g>
    <g id="xtick_23">
     <g id="line2d_99">
      <path d="M 263.780337 567 
L 263.780337 344.618182 
" clip-path="url(#p6630ff1222)" style="fill: none; stroke: #b0b0b0; stroke-width: 0.8; stroke-linecap: square"/>
     </g>
     <g id="line2d_100">
      <g>
       <use xlink:href="#m515b500af6" x="263.780337" y="567" style="stroke: #000000; stroke-width: 0.8"/>
      </g>
     </g>
     <g id="text_53">
      <!-- 20 -->
      <g transform="translate(257.417837 581.598437)scale(0.1 -0.1)">
       <use xlink:href="#DejaVuSans-32"/>
       <use xlink:href="#DejaVuSans-30" x="63.623047"/>
      </g>
     </g>
    </g>
    <g id="xtick_24">
     <g id="line2d_101">
      <path d="M 309.687371 567 
L 309.687371 344.618182 
" clip-path="url(#p6630ff1222)" style="fill: none; stroke: #b0b0b0; stroke-width: 0.8; stroke-linecap: square"/>
     </g>
     <g id="line2d_102">
      <g>
       <use xlink:href="#m515b500af6" x="309.687371" y="567" style="stroke: #000000; stroke-width: 0.8"/>
      </g>
     </g>
     <g id="text_54">
      <!-- 40 -->
      <g transform="translate(303.324871 581.598437)scale(0.1 -0.1)">
       <use xlink:href="#DejaVuSans-34"/>
       <use xlink:href="#DejaVuSans-30" x="63.623047"/>
      </g>
     </g>
    </g>
    <g id="xtick_25">
     <g id="line2d_103">
      <path d="M 355.594406 567 
L 355.594406 344.618182 
" clip-path="url(#p6630ff1222)" style="fill: none; stroke: #b0b0b0; stroke-width: 0.8; stroke-linecap: square"/>
     </g>
     <g id="line2d_104">
      <g>
       <use xlink:href="#m515b500af6" x="355.594406" y="567" style="stroke: #000000; stroke-width: 0.8"/>
      </g>
     </g>
     <g id="text_55">
      <!-- 60 -->
      <g transform="translate(349.231906 581.598437)scale(0.1 -0.1)">
       <use xlink:href="#DejaVuSans-36"/>
       <use xlink:href="#DejaVuSans-30" x="63.623047"/>
      </g>
     </g>
    </g>
    <g id="xtick_26">
     <g id="line2d_105">
      <path d="M 401.50144 567 
L 401.50144 344.618182 
" clip-path="url(#p6630ff1222)" style="fill: none; stroke: #b0b0b0; stroke-width: 0.8; stroke-linecap: square"/>
     </g>
     <g id="line2d_106">
      <g>
       <use xlink:href="#m515b500af6" x="401.50144" y="567" style="stroke: #000000; stroke-width: 0.8"/>
      </g>
     </g>
     <g id="text_56">
      <!-- 80 -->
      <g transform="translate(395.13894 581.598437)scale(0.1 -0.1)">
       <use xlink:href="#DejaVuSans-38"/>
       <use xlink:href="#DejaVuSans-30" x="63.623047"/>
      </g>
     </g>
    </g>
    <g id="xtick_27">
     <g id="line2d_107">
      <path d="M 447.408474 567 
L 447.408474 344.618182 
" clip-path="url(#p6630ff1222)" style="fill: none; stroke: #b0b0b0; stroke-width: 0.8; stroke-linecap: square"/>
     </g>
     <g id="line2d_108">
      <g>
       <use xlink:href="#m515b500af6" x="447.408474" y="567" style="stroke: #000000; stroke-width: 0.8"/>
      </g>
     </g>
     <g id="text_57">
      <!-- 100 -->
      <g transform="translate(437.864724 581.598437)scale(0.1 -0.1)">
       <use xlink:href="#DejaVuSans-31"/>
       <use xlink:href="#DejaVuSans-30" x="63.623047"/>
       <use xlink:href="#DejaVuSans-30" x="127.246094"/>
      </g>
     </g>
    </g>
    <g id="xtick_28">
     <g id="line2d_109">
      <path d="M 493.315508 567 
L 493.315508 344.618182 
" clip-path="url(#p6630ff1222)" style="fill: none; stroke: #b0b0b0; stroke-width: 0.8; stroke-linecap: square"/>
     </g>
     <g id="line2d_110">
      <g>
       <use xlink:href="#m515b500af6" x="493.315508" y="567" style="stroke: #000000; stroke-width: 0.8"/>
      </g>
     </g>
     <g id="text_58">
      <!-- 120 -->
      <g transform="translate(483.771758 581.598437)scale(0.1 -0.1)">
       <use xlink:href="#DejaVuSans-31"/>
       <use xlink:href="#DejaVuSans-32" x="63.623047"/>
       <use xlink:href="#DejaVuSans-30" x="127.246094"/>
      </g>
     </g>
    </g>
   </g>
   <g id="matplotlib.axis_8">
    <g id="ytick_19">
     <g id="line2d_111">
      <path d="M 180 558.763636 
L 508.235294 558.763636 
" clip-path="url(#p6630ff1222)" style="fill: none; stroke: #b0b0b0; stroke-width: 0.8; stroke-linecap: square"/>
     </g>
     <g id="line2d_112">
      <g>
       <use xlink:href="#m6999264434" x="180" y="558.763636" style="stroke: #000000; stroke-width: 0.8"/>
      </g>
     </g>
     <g id="text_59">
      <!-- 0 -->
      <g transform="translate(166.6375 562.562855)scale(0.1 -0.1)">
       <use xlink:href="#DejaVuSans-30"/>
      </g>
     </g>
    </g>
    <g id="ytick_20">
     <g id="line2d_113">
      <path d="M 180 517.581818 
L 508.235294 517.581818 
" clip-path="url(#p6630ff1222)" style="fill: none; stroke: #b0b0b0; stroke-width: 0.8; stroke-linecap: square"/>
     </g>
     <g id="line2d_114">
      <g>
       <use xlink:href="#m6999264434" x="180" y="517.581818" style="stroke: #000000; stroke-width: 0.8"/>
      </g>
     </g>
     <g id="text_60">
      <!-- 10 -->
      <g transform="translate(160.275 521.381037)scale(0.1 -0.1)">
       <use xlink:href="#DejaVuSans-31"/>
       <use xlink:href="#DejaVuSans-30" x="63.623047"/>
      </g>
     </g>
    </g>
    <g id="ytick_21">
     <g id="line2d_115">
      <path d="M 180 476.4 
L 508.235294 476.4 
" clip-path="url(#p6630ff1222)" style="fill: none; stroke: #b0b0b0; stroke-width: 0.8; stroke-linecap: square"/>
     </g>
     <g id="line2d_116">
      <g>
       <use xlink:href="#m6999264434" x="180" y="476.4" style="stroke: #000000; stroke-width: 0.8"/>
      </g>
     </g>
     <g id="text_61">
      <!-- 20 -->
      <g transform="translate(160.275 480.199219)scale(0.1 -0.1)">
       <use xlink:href="#DejaVuSans-32"/>
       <use xlink:href="#DejaVuSans-30" x="63.623047"/>
      </g>
     </g>
    </g>
    <g id="ytick_22">
     <g id="line2d_117">
      <path d="M 180 435.218182 
L 508.235294 435.218182 
" clip-path="url(#p6630ff1222)" style="fill: none; stroke: #b0b0b0; stroke-width: 0.8; stroke-linecap: square"/>
     </g>
     <g id="line2d_118">
      <g>
       <use xlink:href="#m6999264434" x="180" y="435.218182" style="stroke: #000000; stroke-width: 0.8"/>
      </g>
     </g>
     <g id="text_62">
      <!-- 30 -->
      <g transform="translate(160.275 439.017401)scale(0.1 -0.1)">
       <use xlink:href="#DejaVuSans-33"/>
       <use xlink:href="#DejaVuSans-30" x="63.623047"/>
      </g>
     </g>
    </g>
    <g id="ytick_23">
     <g id="line2d_119">
      <path d="M 180 394.036364 
L 508.235294 394.036364 
" clip-path="url(#p6630ff1222)" style="fill: none; stroke: #b0b0b0; stroke-width: 0.8; stroke-linecap: square"/>
     </g>
     <g id="line2d_120">
      <g>
       <use xlink:href="#m6999264434" x="180" y="394.036364" style="stroke: #000000; stroke-width: 0.8"/>
      </g>
     </g>
     <g id="text_63">
      <!-- 40 -->
      <g transform="translate(160.275 397.835582)scale(0.1 -0.1)">
       <use xlink:href="#DejaVuSans-34"/>
       <use xlink:href="#DejaVuSans-30" x="63.623047"/>
      </g>
     </g>
    </g>
    <g id="ytick_24">
     <g id="line2d_121">
      <path d="M 180 352.854545 
L 508.235294 352.854545 
" clip-path="url(#p6630ff1222)" style="fill: none; stroke: #b0b0b0; stroke-width: 0.8; stroke-linecap: square"/>
     </g>
     <g id="line2d_122">
      <g>
       <use xlink:href="#m6999264434" x="180" y="352.854545" style="stroke: #000000; stroke-width: 0.8"/>
      </g>
     </g>
     <g id="text_64">
      <!-- 50 -->
      <g transform="translate(160.275 356.653764)scale(0.1 -0.1)">
       <use xlink:href="#DejaVuSans-35"/>
       <use xlink:href="#DejaVuSans-30" x="63.623047"/>
      </g>
     </g>
    </g>
   </g>
   <g id="line2d_123">
    <path d="M 194.919786 455.809091 
L 493.315508 455.809091 
" clip-path="url(#p6630ff1222)" style="fill: none; stroke-dasharray: 1.5,2.475; stroke-dashoffset: 0; stroke: #808080; stroke-width: 1.5"/>
   </g>
   <g id="line2d_124">
    <path d="M 401.50144 599.945455 
L 401.50144 270.490909 
" clip-path="url(#p6630ff1222)" style="fill: none; stroke-dasharray: 5.55,2.4; stroke-dashoffset: 0; stroke: #ff0000; stroke-opacity: 0.3; stroke-width: 1.5"/>
   </g>
   <g id="line2d_125">
    <path d="M 231.467155 558.763636 
L 233.648381 556.880649 
L 235.829606 554.997662 
L 238.010832 553.114675 
L 240.192058 551.231688 
L 242.373284 549.348701 
L 244.55451 547.465714 
L 246.735736 545.582727 
L 248.916962 543.69974 
L 251.098188 541.816753 
L 253.279413 539.933766 
L 255.460639 538.050779 
L 257.641865 536.167792 
L 259.823091 534.284805 
L 262.004317 532.401817 
L 264.185543 530.51883 
L 266.366769 528.635843 
L 268.547995 526.752856 
L 270.72922 524.869869 
L 272.910446 522.986882 
L 275.091672 521.103895 
L 277.272898 519.220908 
L 279.454124 517.337921 
L 281.63535 515.454934 
L 283.816576 513.571947 
L 285.997802 511.68896 
L 288.179027 509.805973 
L 290.360253 507.922986 
L 292.541479 506.039999 
L 294.722705 504.157012 
L 296.903931 502.274024 
L 299.085157 500.391037 
L 301.266383 498.50805 
L 303.447609 496.624909 
L 305.628834 494.736233 
L 307.81006 492.839278 
L 309.991286 490.933934 
L 312.172512 489.020088 
L 314.353738 487.097627 
L 316.534964 485.166432 
L 318.71619 483.226384 
L 320.897416 481.277359 
L 323.078641 479.319232 
L 325.259867 477.351874 
L 327.441093 475.375153 
L 329.622319 473.388935 
L 331.803545 471.39308 
L 333.984771 469.387448 
L 336.165997 467.371894 
L 338.347223 465.346268 
L 340.528448 463.310418 
L 342.709674 461.264188 
L 344.8909 459.207417 
L 347.072126 457.13994 
L 349.253352 455.06159 
L 351.434578 452.972192 
L 353.615804 450.871568 
L 355.79703 448.759535 
L 357.978255 446.635906 
L 360.159481 444.500487 
L 362.340707 442.35308 
L 364.521933 440.193481 
L 366.703159 438.021478 
L 368.884385 435.836858 
L 371.065611 433.639396 
L 373.246837 431.428863 
L 375.428062 429.205024 
L 377.609288 426.967636 
L 379.790514 424.716447 
L 381.97174 422.451199 
L 384.152966 420.171626 
L 386.334192 417.877452 
L 388.515418 415.568392 
L 390.696644 413.246867 
L 392.877869 410.924085 
L 395.059095 408.601303 
L 397.240321 406.278522 
L 399.421547 403.95574 
L 401.602773 401.632959 
L 403.783999 399.310177 
L 405.965225 396.987395 
L 408.146451 394.664614 
L 410.327676 392.341832 
L 412.508902 390.019051 
L 414.690128 387.696269 
L 416.871354 385.373488 
L 419.05258 383.050706 
L 421.233806 380.727924 
L 423.415032 378.405143 
L 425.596258 376.082361 
L 427.777483 373.75958 
L 429.958709 371.436798 
L 432.139935 369.114017 
L 434.321161 366.791235 
L 436.502387 364.468453 
L 438.683613 362.145672 
L 440.864839 359.82289 
L 443.046065 357.500109 
L 445.22729 355.177327 
L 447.408516 352.854545 
" clip-path="url(#p6630ff1222)" style="fill: none; stroke: #1f77b4; stroke-width: 1.5; stroke-linecap: square"/>
   </g>
   <g id="line2d_126">
    <path d="M 231.622377 558.763636 
L 233.436323 557.449161 
L 235.25027 556.134686 
L 237.064216 554.82021 
L 238.878163 553.505735 
L 240.692109 552.191259 
L 242.506056 550.876784 
L 244.320002 549.562308 
L 246.133948 548.247833 
L 247.947895 546.933358 
L 249.761841 545.618882 
L 251.575788 544.304407 
L 253.389734 542.989931 
L 255.203681 541.675456 
L 257.017627 540.36098 
L 258.831574 539.046505 
L 260.64552 537.73203 
L 262.459466 536.417554 
L 264.273413 535.103079 
L 266.087359 533.788603 
L 267.901306 532.474128 
L 269.715252 531.159652 
L 271.529199 529.845177 
L 273.343145 528.530702 
L 275.157092 527.216226 
L 276.971038 525.901751 
L 278.784985 524.587275 
L 280.598931 523.2728 
L 282.412877 521.958325 
L 284.226824 520.643849 
L 286.04077 519.329374 
L 287.854717 518.014898 
L 289.668663 516.700423 
L 291.48261 515.385947 
L 293.296556 514.071472 
L 295.110503 512.756997 
L 296.924449 511.442521 
L 298.738395 510.128046 
L 300.552342 508.81357 
L 302.366288 507.499095 
L 304.180235 506.184619 
L 305.994181 504.870144 
L 307.808128 503.555669 
L 309.622074 502.241193 
L 311.436021 500.926718 
L 313.249967 499.612242 
L 315.063914 498.297767 
L 316.87786 496.983291 
L 318.691806 495.660913 
L 320.505753 494.322527 
L 322.319699 492.967538 
L 324.133646 491.595313 
L 325.947592 490.205176 
L 327.761539 488.796408 
L 329.575485 487.368238 
L 331.389432 485.919842 
L 333.203378 484.450336 
L 335.017324 482.958768 
L 336.831271 481.444115 
L 338.645217 479.905269 
L 340.459164 478.341034 
L 342.27311 476.750108 
L 344.087057 475.131079 
L 345.901003 473.482402 
L 347.71495 471.802384 
L 349.528896 470.089169 
L 351.342842 468.340708 
L 353.156789 466.554729 
L 354.970735 464.728711 
L 356.784682 462.859832 
L 358.598628 460.944924 
L 360.412575 458.980411 
L 362.226521 456.962223 
L 364.040468 454.885706 
L 365.854414 452.745489 
L 367.668361 450.535324 
L 369.482307 448.247868 
L 371.296253 445.874396 
L 373.1102 443.404408 
L 374.924146 440.825073 
L 376.738093 438.12044 
L 378.552039 435.270254 
L 380.365986 432.248134 
L 382.179932 429.018613 
L 383.993879 425.532039 
L 385.807825 421.715083 
L 387.621771 417.451063 
L 389.435718 412.606679 
L 391.249664 407.627334 
L 393.063611 402.64799 
L 394.877557 397.668645 
L 396.691504 392.689301 
L 398.50545 387.709957 
L 400.319397 382.730612 
L 402.133343 377.751268 
L 403.94729 372.771923 
L 405.761236 367.792579 
L 407.575182 362.813234 
L 409.389129 357.83389 
L 411.203075 352.854545 
" clip-path="url(#p6630ff1222)" style="fill: none; stroke-dasharray: 5.55,2.4; stroke-dashoffset: 0; stroke: #ff7f0e; stroke-width: 1.5"/>
   </g>
   <g id="patch_21">
    <path d="M 180 567 
L 180 344.618182 
" style="fill: none; stroke: #000000; stroke-width: 0.8; stroke-linejoin: miter; stroke-linecap: square"/>
   </g>
   <g id="patch_22">
    <path d="M 508.235294 567 
L 508.235294 344.618182 
" style="fill: none; stroke: #000000; stroke-width: 0.8; stroke-linejoin: miter; stroke-linecap: square"/>
   </g>
   <g id="patch_23">
    <path d="M 180 567 
L 508.235294 567 
" style="fill: none; stroke: #000000; stroke-width: 0.8; stroke-linejoin: miter; stroke-linecap: square"/>
   </g>
   <g id="patch_24">
    <path d="M 180 344.618182 
L 508.235294 344.618182 
" style="fill: none; stroke: #000000; stroke-width: 0.8; stroke-linejoin: miter; stroke-linecap: square"/>
   </g>
   <g id="text_65">
    <!--  Block: 3 -->
    <g transform="translate(318.237022 338.618182)scale(0.12 -0.12)">
     <use xlink:href="#DejaVuSans-20"/>
     <use xlink:href="#DejaVuSans-42" x="31.787109"/>
     <use xlink:href="#DejaVuSans-6c" x="100.390625"/>
     <use xlink:href="#DejaVuSans-6f" x="128.173828"/>
     <use xlink:href="#DejaVuSans-63" x="189.355469"/>
     <use xlink:href="#DejaVuSans-6b" x="244.335938"/>
     <use xlink:href="#DejaVuSans-3a" x="302.246094"/>
     <use xlink:href="#DejaVuSans-20" x="335.9375"/>
     <use xlink:href="#DejaVuSans-33" x="367.724609"/>
    </g>
   </g>
   <g id="legend_4">
    <g id="patch_25">
     <path d="M 187 396.930682 
L 318.2 396.930682 
Q 320.2 396.930682 320.2 394.930682 
L 320.2 351.618182 
Q 320.2 349.618182 318.2 349.618182 
L 187 349.618182 
Q 185 349.618182 185 351.618182 
L 185 394.930682 
Q 185 396.930682 187 396.930682 
z
" style="fill: #ffffff; opacity: 0.8; stroke: #cccccc; stroke-linejoin: miter"/>
    </g>
    <g id="PathCollection_8">
     <g>
      <use xlink:href="#m8a31455d99" x="199" y="358.591619" style="stroke: #000000"/>
     </g>
    </g>
    <g id="text_66">
     <!-- Data -->
     <g transform="translate(217 361.216619)scale(0.1 -0.1)">
      <use xlink:href="#DejaVuSans-44"/>
      <use xlink:href="#DejaVuSans-61" x="77.001953"/>
      <use xlink:href="#DejaVuSans-74" x="138.28125"/>
      <use xlink:href="#DejaVuSans-61" x="177.490234"/>
     </g>
    </g>
    <g id="line2d_127">
     <path d="M 189 372.394744 
L 199 372.394744 
L 209 372.394744 
" style="fill: none; stroke: #1f77b4; stroke-width: 1.5; stroke-linecap: square"/>
    </g>
    <g id="text_67">
     <!-- Artc e:0.1536 -->
     <g transform="translate(217 375.894744)scale(0.1 -0.1)">
      <use xlink:href="#DejaVuSans-41"/>
      <use xlink:href="#DejaVuSans-72" x="68.408203"/>
      <use xlink:href="#DejaVuSans-74" x="109.521484"/>
      <use xlink:href="#DejaVuSans-63" x="148.730469"/>
      <use xlink:href="#DejaVuSans-20" x="203.710938"/>
      <use xlink:href="#DejaVuSans-65" x="235.498047"/>
      <use xlink:href="#DejaVuSans-3a" x="297.021484"/>
      <use xlink:href="#DejaVuSans-30" x="330.712891"/>
      <use xlink:href="#DejaVuSans-2e" x="394.335938"/>
      <use xlink:href="#DejaVuSans-31" x="426.123047"/>
      <use xlink:href="#DejaVuSans-35" x="489.746094"/>
      <use xlink:href="#DejaVuSans-33" x="553.369141"/>
      <use xlink:href="#DejaVuSans-36" x="616.992188"/>
     </g>
    </g>
    <g id="line2d_128">
     <path d="M 189 387.072869 
L 199 387.072869 
L 209 387.072869 
" style="fill: none; stroke-dasharray: 5.55,2.4; stroke-dashoffset: 0; stroke: #ff7f0e; stroke-width: 1.5"/>
    </g>
    <g id="text_68">
     <!-- NEL_BTUX e:0.1558 -->
     <g transform="translate(217 390.572869)scale(0.1 -0.1)">
      <use xlink:href="#DejaVuSans-4e"/>
      <use xlink:href="#DejaVuSans-45" x="74.804688"/>
      <use xlink:href="#DejaVuSans-4c" x="137.988281"/>
      <use xlink:href="#DejaVuSans-5f" x="193.701172"/>
      <use xlink:href="#DejaVuSans-42" x="243.701172"/>
      <use xlink:href="#DejaVuSans-54" x="312.304688"/>
      <use xlink:href="#DejaVuSans-55" x="373.388672"/>
      <use xlink:href="#DejaVuSans-58" x="446.582031"/>
      <use xlink:href="#DejaVuSans-20" x="515.087891"/>
      <use xlink:href="#DejaVuSans-65" x="546.875"/>
      <use xlink:href="#DejaVuSans-3a" x="608.398438"/>
      <use xlink:href="#DejaVuSans-30" x="642.089844"/>
      <use xlink:href="#DejaVuSans-2e" x="705.712891"/>
      <use xlink:href="#DejaVuSans-31" x="737.5"/>
      <use xlink:href="#DejaVuSans-35" x="801.123047"/>
      <use xlink:href="#DejaVuSans-35" x="864.746094"/>
      <use xlink:href="#DejaVuSans-38" x="928.369141"/>
     </g>
    </g>
   </g>
  </g>
  <g id="axes_5"/>
  <g id="axes_6"/>
  <g id="text_69">
   <!-- ID: 6421, Max level: 80dB -->
   <g transform="translate(655.440625 20.558438)scale(0.1 -0.1)">
    <defs>
     <path id="DejaVuSans-49" d="M 628 4666 
L 1259 4666 
L 1259 0 
L 628 0 
L 628 4666 
z
" transform="scale(0.015625)"/>
     <path id="DejaVuSans-2c" d="M 750 794 
L 1409 794 
L 1409 256 
L 897 -744 
L 494 -744 
L 750 256 
L 750 794 
z
" transform="scale(0.015625)"/>
     <path id="DejaVuSans-4d" d="M 628 4666 
L 1569 4666 
L 2759 1491 
L 3956 4666 
L 4897 4666 
L 4897 0 
L 4281 0 
L 4281 4097 
L 3078 897 
L 2444 897 
L 1241 4097 
L 1241 0 
L 628 0 
L 628 4666 
z
" transform="scale(0.015625)"/>
     <path id="DejaVuSans-78" d="M 3513 3500 
L 2247 1797 
L 3578 0 
L 2900 0 
L 1881 1375 
L 863 0 
L 184 0 
L 1544 1831 
L 300 3500 
L 978 3500 
L 1906 2253 
L 2834 3500 
L 3513 3500 
z
" transform="scale(0.015625)"/>
     <path id="DejaVuSans-76" d="M 191 3500 
L 800 3500 
L 1894 563 
L 2988 3500 
L 3597 3500 
L 2284 0 
L 1503 0 
L 191 3500 
z
" transform="scale(0.015625)"/>
     <path id="DejaVuSans-64" d="M 2906 2969 
L 2906 4863 
L 3481 4863 
L 3481 0 
L 2906 0 
L 2906 525 
Q 2725 213 2448 61 
Q 2172 -91 1784 -91 
Q 1150 -91 751 415 
Q 353 922 353 1747 
Q 353 2572 751 3078 
Q 1150 3584 1784 3584 
Q 2172 3584 2448 3432 
Q 2725 3281 2906 2969 
z
M 947 1747 
Q 947 1113 1208 752 
Q 1469 391 1925 391 
Q 2381 391 2643 752 
Q 2906 1113 2906 1747 
Q 2906 2381 2643 2742 
Q 2381 3103 1925 3103 
Q 1469 3103 1208 2742 
Q 947 2381 947 1747 
z
" transform="scale(0.015625)"/>
    </defs>
    <use xlink:href="#DejaVuSans-49"/>
    <use xlink:href="#DejaVuSans-44" x="29.492188"/>
    <use xlink:href="#DejaVuSans-3a" x="106.494141"/>
    <use xlink:href="#DejaVuSans-20" x="140.185547"/>
    <use xlink:href="#DejaVuSans-36" x="171.972656"/>
    <use xlink:href="#DejaVuSans-34" x="235.595703"/>
    <use xlink:href="#DejaVuSans-32" x="299.21875"/>
    <use xlink:href="#DejaVuSans-31" x="362.841797"/>
    <use xlink:href="#DejaVuSans-2c" x="426.464844"/>
    <use xlink:href="#DejaVuSans-20" x="458.251953"/>
    <use xlink:href="#DejaVuSans-4d" x="490.039062"/>
    <use xlink:href="#DejaVuSans-61" x="576.318359"/>
    <use xlink:href="#DejaVuSans-78" x="637.597656"/>
    <use xlink:href="#DejaVuSans-20" x="696.777344"/>
    <use xlink:href="#DejaVuSans-6c" x="728.564453"/>
    <use xlink:href="#DejaVuSans-65" x="756.347656"/>
    <use xlink:href="#DejaVuSans-76" x="817.871094"/>
    <use xlink:href="#DejaVuSans-65" x="877.050781"/>
    <use xlink:href="#DejaVuSans-6c" x="938.574219"/>
    <use xlink:href="#DejaVuSans-3a" x="966.357422"/>
    <use xlink:href="#DejaVuSans-20" x="1000.048828"/>
    <use xlink:href="#DejaVuSans-38" x="1031.835938"/>
    <use xlink:href="#DejaVuSans-30" x="1095.458984"/>
    <use xlink:href="#DejaVuSans-64" x="1159.082031"/>
    <use xlink:href="#DejaVuSans-42" x="1222.558594"/>
   </g>
  </g>
 </g>
 <defs>
  <clipPath id="pb5765b57fa">
   <rect x="180" y="77.76" width="328.235294" height="222.381818"/>
  </clipPath>
  <clipPath id="p16ae34a32f">
   <rect x="573.882353" y="77.76" width="328.235294" height="222.381818"/>
  </clipPath>
  <clipPath id="p853ef45257">
   <rect x="967.764706" y="77.76" width="328.235294" height="222.381818"/>
  </clipPath>
  <clipPath id="p6630ff1222">
   <rect x="180" y="344.618182" width="328.235294" height="222.381818"/>
  </clipPath>
 </defs>
</svg>
