<?xml version="1.0" encoding="utf-8" standalone="no"?>
<!DOCTYPE svg PUBLIC "-//W3C//DTD SVG 1.1//EN"
  "http://www.w3.org/Graphics/SVG/1.1/DTD/svg11.dtd">
<svg xmlns:xlink="http://www.w3.org/1999/xlink" width="1440pt" height="648pt" viewBox="0 0 1440 648" xmlns="http://www.w3.org/2000/svg" version="1.1">
 <metadata>
  <rdf:RDF xmlns:dc="http://purl.org/dc/elements/1.1/" xmlns:cc="http://creativecommons.org/ns#" xmlns:rdf="http://www.w3.org/1999/02/22-rdf-syntax-ns#">
   <cc:Work>
    <dc:type rdf:resource="http://purl.org/dc/dcmitype/StillImage"/>
    <dc:date>2024-05-24T15:09:53.935568</dc:date>
    <dc:format>image/svg+xml</dc:format>
    <dc:creator>
     <cc:Agent>
      <dc:title>Matplotlib v3.5.2, https://matplotlib.org/</dc:title>
     </cc:Agent>
    </dc:creator>
   </cc:Work>
  </rdf:RDF>
 </metadata>
 <defs>
  <style type="text/css">*{stroke-linejoin: round; stroke-linecap: butt}</style>
 </defs>
 <g id="figure_1">
  <g id="patch_1">
   <path d="M 0 648 
L 1440 648 
L 1440 0 
L 0 0 
L 0 648 
z
" style="fill: none"/>
  </g>
  <g id="axes_1">
   <g id="patch_2">
    <path d="M 180 300.141818 
L 508.235294 300.141818 
L 508.235294 77.76 
L 180 77.76 
z
" style="fill: #ffffff"/>
   </g>
   <g id="PathCollection_1">
    <defs>
     <path id="me9d301ade5" d="M 0 3 
C 0.795609 3 1.55874 2.683901 2.12132 2.12132 
C 2.683901 1.55874 3 0.795609 3 0 
C 3 -0.795609 2.683901 -1.55874 2.12132 -2.12132 
C 1.55874 -2.683901 0.795609 -3 0 -3 
C -0.795609 -3 -1.55874 -2.683901 -2.12132 -2.12132 
C -2.683901 -1.55874 -3 -0.795609 -3 0 
C -3 0.795609 -2.683901 1.55874 -2.12132 2.12132 
C -1.55874 2.683901 -0.795609 3 0 3 
z
" style="stroke: #000000"/>
    </defs>
    <g clip-path="url(#pd38e10e726)">
     <use xlink:href="#me9d301ade5" x="390.024681" y="168.36" style="stroke: #000000"/>
     <use xlink:href="#me9d301ade5" x="412.978198" y="127.178182" style="stroke: #000000"/>
     <use xlink:href="#me9d301ade5" x="355.594406" y="209.541818" style="stroke: #000000"/>
     <use xlink:href="#me9d301ade5" x="435.931715" y="85.996364" style="stroke: #000000"/>
     <use xlink:href="#me9d301ade5" x="321.16413" y="230.132727" style="stroke: #000000"/>
     <use xlink:href="#me9d301ade5" x="286.733854" y="250.723636" style="stroke: #000000"/>
     <use xlink:href="#me9d301ade5" x="252.303579" y="291.905455" style="stroke: #000000"/>
     <use xlink:href="#me9d301ade5" x="263.780337" y="271.314545" style="stroke: #000000"/>
     <use xlink:href="#me9d301ade5" x="393.603594" y="127.178182" style="stroke: #000000"/>
     <use xlink:href="#me9d301ade5" x="296.235922" y="230.132727" style="stroke: #000000"/>
     <use xlink:href="#me9d301ade5" x="361.14778" y="147.769091" style="stroke: #000000"/>
     <use xlink:href="#me9d301ade5" x="263.780108" y="271.314545" style="stroke: #000000"/>
     <use xlink:href="#me9d301ade5" x="328.691965" y="230.132727" style="stroke: #000000"/>
     <use xlink:href="#me9d301ade5" x="302.634444" y="250.723636" style="stroke: #000000"/>
     <use xlink:href="#me9d301ade5" x="339.20284" y="188.950909" style="stroke: #000000"/>
     <use xlink:href="#me9d301ade5" x="412.339861" y="85.996364" style="stroke: #000000"/>
     <use xlink:href="#me9d301ade5" x="375.771465" y="127.178182" style="stroke: #000000"/>
     <use xlink:href="#me9d301ade5" x="266.066049" y="271.314545" style="stroke: #000000"/>
    </g>
   </g>
   <g id="matplotlib.axis_1">
    <g id="xtick_1">
     <g id="line2d_1">
      <path d="M 217.873303 300.141818 
L 217.873303 77.76 
" clip-path="url(#pd38e10e726)" style="fill: none; stroke: #b0b0b0; stroke-width: 0.8; stroke-linecap: square"/>
     </g>
     <g id="line2d_2">
      <defs>
       <path id="m29fefe43f0" d="M 0 0 
L 0 3.5 
" style="stroke: #000000; stroke-width: 0.8"/>
      </defs>
      <g>
       <use xlink:href="#m29fefe43f0" x="217.873303" y="300.141818" style="stroke: #000000; stroke-width: 0.8"/>
      </g>
     </g>
     <g id="text_1">
      <!-- 0 -->
      <g transform="translate(214.692053 314.740256)scale(0.1 -0.1)">
       <defs>
        <path id="DejaVuSans-30" d="M 2034 4250 
Q 1547 4250 1301 3770 
Q 1056 3291 1056 2328 
Q 1056 1369 1301 889 
Q 1547 409 2034 409 
Q 2525 409 2770 889 
Q 3016 1369 3016 2328 
Q 3016 3291 2770 3770 
Q 2525 4250 2034 4250 
z
M 2034 4750 
Q 2819 4750 3233 4129 
Q 3647 3509 3647 2328 
Q 3647 1150 3233 529 
Q 2819 -91 2034 -91 
Q 1250 -91 836 529 
Q 422 1150 422 2328 
Q 422 3509 836 4129 
Q 1250 4750 2034 4750 
z
" transform="scale(0.015625)"/>
       </defs>
       <use xlink:href="#DejaVuSans-30"/>
      </g>
     </g>
    </g>
    <g id="xtick_2">
     <g id="line2d_3">
      <path d="M 263.780337 300.141818 
L 263.780337 77.76 
" clip-path="url(#pd38e10e726)" style="fill: none; stroke: #b0b0b0; stroke-width: 0.8; stroke-linecap: square"/>
     </g>
     <g id="line2d_4">
      <g>
       <use xlink:href="#m29fefe43f0" x="263.780337" y="300.141818" style="stroke: #000000; stroke-width: 0.8"/>
      </g>
     </g>
     <g id="text_2">
      <!-- 20 -->
      <g transform="translate(257.417837 314.740256)scale(0.1 -0.1)">
       <defs>
        <path id="DejaVuSans-32" d="M 1228 531 
L 3431 531 
L 3431 0 
L 469 0 
L 469 531 
Q 828 903 1448 1529 
Q 2069 2156 2228 2338 
Q 2531 2678 2651 2914 
Q 2772 3150 2772 3378 
Q 2772 3750 2511 3984 
Q 2250 4219 1831 4219 
Q 1534 4219 1204 4116 
Q 875 4013 500 3803 
L 500 4441 
Q 881 4594 1212 4672 
Q 1544 4750 1819 4750 
Q 2544 4750 2975 4387 
Q 3406 4025 3406 3419 
Q 3406 3131 3298 2873 
Q 3191 2616 2906 2266 
Q 2828 2175 2409 1742 
Q 1991 1309 1228 531 
z
" transform="scale(0.015625)"/>
       </defs>
       <use xlink:href="#DejaVuSans-32"/>
       <use xlink:href="#DejaVuSans-30" x="63.623047"/>
      </g>
     </g>
    </g>
    <g id="xtick_3">
     <g id="line2d_5">
      <path d="M 309.687371 300.141818 
L 309.687371 77.76 
" clip-path="url(#pd38e10e726)" style="fill: none; stroke: #b0b0b0; stroke-width: 0.8; stroke-linecap: square"/>
     </g>
     <g id="line2d_6">
      <g>
       <use xlink:href="#m29fefe43f0" x="309.687371" y="300.141818" style="stroke: #000000; stroke-width: 0.8"/>
      </g>
     </g>
     <g id="text_3">
      <!-- 40 -->
      <g transform="translate(303.324871 314.740256)scale(0.1 -0.1)">
       <defs>
        <path id="DejaVuSans-34" d="M 2419 4116 
L 825 1625 
L 2419 1625 
L 2419 4116 
z
M 2253 4666 
L 3047 4666 
L 3047 1625 
L 3713 1625 
L 3713 1100 
L 3047 1100 
L 3047 0 
L 2419 0 
L 2419 1100 
L 313 1100 
L 313 1709 
L 2253 4666 
z
" transform="scale(0.015625)"/>
       </defs>
       <use xlink:href="#DejaVuSans-34"/>
       <use xlink:href="#DejaVuSans-30" x="63.623047"/>
      </g>
     </g>
    </g>
    <g id="xtick_4">
     <g id="line2d_7">
      <path d="M 355.594406 300.141818 
L 355.594406 77.76 
" clip-path="url(#pd38e10e726)" style="fill: none; stroke: #b0b0b0; stroke-width: 0.8; stroke-linecap: square"/>
     </g>
     <g id="line2d_8">
      <g>
       <use xlink:href="#m29fefe43f0" x="355.594406" y="300.141818" style="stroke: #000000; stroke-width: 0.8"/>
      </g>
     </g>
     <g id="text_4">
      <!-- 60 -->
      <g transform="translate(349.231906 314.740256)scale(0.1 -0.1)">
       <defs>
        <path id="DejaVuSans-36" d="M 2113 2584 
Q 1688 2584 1439 2293 
Q 1191 2003 1191 1497 
Q 1191 994 1439 701 
Q 1688 409 2113 409 
Q 2538 409 2786 701 
Q 3034 994 3034 1497 
Q 3034 2003 2786 2293 
Q 2538 2584 2113 2584 
z
M 3366 4563 
L 3366 3988 
Q 3128 4100 2886 4159 
Q 2644 4219 2406 4219 
Q 1781 4219 1451 3797 
Q 1122 3375 1075 2522 
Q 1259 2794 1537 2939 
Q 1816 3084 2150 3084 
Q 2853 3084 3261 2657 
Q 3669 2231 3669 1497 
Q 3669 778 3244 343 
Q 2819 -91 2113 -91 
Q 1303 -91 875 529 
Q 447 1150 447 2328 
Q 447 3434 972 4092 
Q 1497 4750 2381 4750 
Q 2619 4750 2861 4703 
Q 3103 4656 3366 4563 
z
" transform="scale(0.015625)"/>
       </defs>
       <use xlink:href="#DejaVuSans-36"/>
       <use xlink:href="#DejaVuSans-30" x="63.623047"/>
      </g>
     </g>
    </g>
    <g id="xtick_5">
     <g id="line2d_9">
      <path d="M 401.50144 300.141818 
L 401.50144 77.76 
" clip-path="url(#pd38e10e726)" style="fill: none; stroke: #b0b0b0; stroke-width: 0.8; stroke-linecap: square"/>
     </g>
     <g id="line2d_10">
      <g>
       <use xlink:href="#m29fefe43f0" x="401.50144" y="300.141818" style="stroke: #000000; stroke-width: 0.8"/>
      </g>
     </g>
     <g id="text_5">
      <!-- 80 -->
      <g transform="translate(395.13894 314.740256)scale(0.1 -0.1)">
       <defs>
        <path id="DejaVuSans-38" d="M 2034 2216 
Q 1584 2216 1326 1975 
Q 1069 1734 1069 1313 
Q 1069 891 1326 650 
Q 1584 409 2034 409 
Q 2484 409 2743 651 
Q 3003 894 3003 1313 
Q 3003 1734 2745 1975 
Q 2488 2216 2034 2216 
z
M 1403 2484 
Q 997 2584 770 2862 
Q 544 3141 544 3541 
Q 544 4100 942 4425 
Q 1341 4750 2034 4750 
Q 2731 4750 3128 4425 
Q 3525 4100 3525 3541 
Q 3525 3141 3298 2862 
Q 3072 2584 2669 2484 
Q 3125 2378 3379 2068 
Q 3634 1759 3634 1313 
Q 3634 634 3220 271 
Q 2806 -91 2034 -91 
Q 1263 -91 848 271 
Q 434 634 434 1313 
Q 434 1759 690 2068 
Q 947 2378 1403 2484 
z
M 1172 3481 
Q 1172 3119 1398 2916 
Q 1625 2713 2034 2713 
Q 2441 2713 2670 2916 
Q 2900 3119 2900 3481 
Q 2900 3844 2670 4047 
Q 2441 4250 2034 4250 
Q 1625 4250 1398 4047 
Q 1172 3844 1172 3481 
z
" transform="scale(0.015625)"/>
       </defs>
       <use xlink:href="#DejaVuSans-38"/>
       <use xlink:href="#DejaVuSans-30" x="63.623047"/>
      </g>
     </g>
    </g>
    <g id="xtick_6">
     <g id="line2d_11">
      <path d="M 447.408474 300.141818 
L 447.408474 77.76 
" clip-path="url(#pd38e10e726)" style="fill: none; stroke: #b0b0b0; stroke-width: 0.8; stroke-linecap: square"/>
     </g>
     <g id="line2d_12">
      <g>
       <use xlink:href="#m29fefe43f0" x="447.408474" y="300.141818" style="stroke: #000000; stroke-width: 0.8"/>
      </g>
     </g>
     <g id="text_6">
      <!-- 100 -->
      <g transform="translate(437.864724 314.740256)scale(0.1 -0.1)">
       <defs>
        <path id="DejaVuSans-31" d="M 794 531 
L 1825 531 
L 1825 4091 
L 703 3866 
L 703 4441 
L 1819 4666 
L 2450 4666 
L 2450 531 
L 3481 531 
L 3481 0 
L 794 0 
L 794 531 
z
" transform="scale(0.015625)"/>
       </defs>
       <use xlink:href="#DejaVuSans-31"/>
       <use xlink:href="#DejaVuSans-30" x="63.623047"/>
       <use xlink:href="#DejaVuSans-30" x="127.246094"/>
      </g>
     </g>
    </g>
    <g id="xtick_7">
     <g id="line2d_13">
      <path d="M 493.315508 300.141818 
L 493.315508 77.76 
" clip-path="url(#pd38e10e726)" style="fill: none; stroke: #b0b0b0; stroke-width: 0.8; stroke-linecap: square"/>
     </g>
     <g id="line2d_14">
      <g>
       <use xlink:href="#m29fefe43f0" x="493.315508" y="300.141818" style="stroke: #000000; stroke-width: 0.8"/>
      </g>
     </g>
     <g id="text_7">
      <!-- 120 -->
      <g transform="translate(483.771758 314.740256)scale(0.1 -0.1)">
       <use xlink:href="#DejaVuSans-31"/>
       <use xlink:href="#DejaVuSans-32" x="63.623047"/>
       <use xlink:href="#DejaVuSans-30" x="127.246094"/>
      </g>
     </g>
    </g>
   </g>
   <g id="matplotlib.axis_2">
    <g id="ytick_1">
     <g id="line2d_15">
      <path d="M 180 291.905455 
L 508.235294 291.905455 
" clip-path="url(#pd38e10e726)" style="fill: none; stroke: #b0b0b0; stroke-width: 0.8; stroke-linecap: square"/>
     </g>
     <g id="line2d_16">
      <defs>
       <path id="ma1b66e2be6" d="M 0 0 
L -3.5 0 
" style="stroke: #000000; stroke-width: 0.8"/>
      </defs>
      <g>
       <use xlink:href="#ma1b66e2be6" x="180" y="291.905455" style="stroke: #000000; stroke-width: 0.8"/>
      </g>
     </g>
     <g id="text_8">
      <!-- 0 -->
      <g transform="translate(166.6375 295.704673)scale(0.1 -0.1)">
       <use xlink:href="#DejaVuSans-30"/>
      </g>
     </g>
    </g>
    <g id="ytick_2">
     <g id="line2d_17">
      <path d="M 180 250.723636 
L 508.235294 250.723636 
" clip-path="url(#pd38e10e726)" style="fill: none; stroke: #b0b0b0; stroke-width: 0.8; stroke-linecap: square"/>
     </g>
     <g id="line2d_18">
      <g>
       <use xlink:href="#ma1b66e2be6" x="180" y="250.723636" style="stroke: #000000; stroke-width: 0.8"/>
      </g>
     </g>
     <g id="text_9">
      <!-- 10 -->
      <g transform="translate(160.275 254.522855)scale(0.1 -0.1)">
       <use xlink:href="#DejaVuSans-31"/>
       <use xlink:href="#DejaVuSans-30" x="63.623047"/>
      </g>
     </g>
    </g>
    <g id="ytick_3">
     <g id="line2d_19">
      <path d="M 180 209.541818 
L 508.235294 209.541818 
" clip-path="url(#pd38e10e726)" style="fill: none; stroke: #b0b0b0; stroke-width: 0.8; stroke-linecap: square"/>
     </g>
     <g id="line2d_20">
      <g>
       <use xlink:href="#ma1b66e2be6" x="180" y="209.541818" style="stroke: #000000; stroke-width: 0.8"/>
      </g>
     </g>
     <g id="text_10">
      <!-- 20 -->
      <g transform="translate(160.275 213.341037)scale(0.1 -0.1)">
       <use xlink:href="#DejaVuSans-32"/>
       <use xlink:href="#DejaVuSans-30" x="63.623047"/>
      </g>
     </g>
    </g>
    <g id="ytick_4">
     <g id="line2d_21">
      <path d="M 180 168.36 
L 508.235294 168.36 
" clip-path="url(#pd38e10e726)" style="fill: none; stroke: #b0b0b0; stroke-width: 0.8; stroke-linecap: square"/>
     </g>
     <g id="line2d_22">
      <g>
       <use xlink:href="#ma1b66e2be6" x="180" y="168.36" style="stroke: #000000; stroke-width: 0.8"/>
      </g>
     </g>
     <g id="text_11">
      <!-- 30 -->
      <g transform="translate(160.275 172.159219)scale(0.1 -0.1)">
       <defs>
        <path id="DejaVuSans-33" d="M 2597 2516 
Q 3050 2419 3304 2112 
Q 3559 1806 3559 1356 
Q 3559 666 3084 287 
Q 2609 -91 1734 -91 
Q 1441 -91 1130 -33 
Q 819 25 488 141 
L 488 750 
Q 750 597 1062 519 
Q 1375 441 1716 441 
Q 2309 441 2620 675 
Q 2931 909 2931 1356 
Q 2931 1769 2642 2001 
Q 2353 2234 1838 2234 
L 1294 2234 
L 1294 2753 
L 1863 2753 
Q 2328 2753 2575 2939 
Q 2822 3125 2822 3475 
Q 2822 3834 2567 4026 
Q 2313 4219 1838 4219 
Q 1578 4219 1281 4162 
Q 984 4106 628 3988 
L 628 4550 
Q 988 4650 1302 4700 
Q 1616 4750 1894 4750 
Q 2613 4750 3031 4423 
Q 3450 4097 3450 3541 
Q 3450 3153 3228 2886 
Q 3006 2619 2597 2516 
z
" transform="scale(0.015625)"/>
       </defs>
       <use xlink:href="#DejaVuSans-33"/>
       <use xlink:href="#DejaVuSans-30" x="63.623047"/>
      </g>
     </g>
    </g>
    <g id="ytick_5">
     <g id="line2d_23">
      <path d="M 180 127.178182 
L 508.235294 127.178182 
" clip-path="url(#pd38e10e726)" style="fill: none; stroke: #b0b0b0; stroke-width: 0.8; stroke-linecap: square"/>
     </g>
     <g id="line2d_24">
      <g>
       <use xlink:href="#ma1b66e2be6" x="180" y="127.178182" style="stroke: #000000; stroke-width: 0.8"/>
      </g>
     </g>
     <g id="text_12">
      <!-- 40 -->
      <g transform="translate(160.275 130.977401)scale(0.1 -0.1)">
       <use xlink:href="#DejaVuSans-34"/>
       <use xlink:href="#DejaVuSans-30" x="63.623047"/>
      </g>
     </g>
    </g>
    <g id="ytick_6">
     <g id="line2d_25">
      <path d="M 180 85.996364 
L 508.235294 85.996364 
" clip-path="url(#pd38e10e726)" style="fill: none; stroke: #b0b0b0; stroke-width: 0.8; stroke-linecap: square"/>
     </g>
     <g id="line2d_26">
      <g>
       <use xlink:href="#ma1b66e2be6" x="180" y="85.996364" style="stroke: #000000; stroke-width: 0.8"/>
      </g>
     </g>
     <g id="text_13">
      <!-- 50 -->
      <g transform="translate(160.275 89.795582)scale(0.1 -0.1)">
       <defs>
        <path id="DejaVuSans-35" d="M 691 4666 
L 3169 4666 
L 3169 4134 
L 1269 4134 
L 1269 2991 
Q 1406 3038 1543 3061 
Q 1681 3084 1819 3084 
Q 2600 3084 3056 2656 
Q 3513 2228 3513 1497 
Q 3513 744 3044 326 
Q 2575 -91 1722 -91 
Q 1428 -91 1123 -41 
Q 819 9 494 109 
L 494 744 
Q 775 591 1075 516 
Q 1375 441 1709 441 
Q 2250 441 2565 725 
Q 2881 1009 2881 1497 
Q 2881 1984 2565 2268 
Q 2250 2553 1709 2553 
Q 1456 2553 1204 2497 
Q 953 2441 691 2322 
L 691 4666 
z
" transform="scale(0.015625)"/>
       </defs>
       <use xlink:href="#DejaVuSans-35"/>
       <use xlink:href="#DejaVuSans-30" x="63.623047"/>
      </g>
     </g>
    </g>
   </g>
   <g id="line2d_27">
    <path d="M 194.919786 188.950909 
L 493.315508 188.950909 
" clip-path="url(#pd38e10e726)" style="fill: none; stroke-dasharray: 1.5,2.475; stroke-dashoffset: 0; stroke: #808080; stroke-width: 1.5"/>
   </g>
   <g id="line2d_28">
    <path d="M 435.931715 333.087273 
L 435.931715 3.632727 
" clip-path="url(#pd38e10e726)" style="fill: none; stroke-dasharray: 5.55,2.4; stroke-dashoffset: 0; stroke: #ff0000; stroke-opacity: 0.3; stroke-width: 1.5"/>
   </g>
   <g id="line2d_29">
    <path d="M 247.666456 291.905455 
L 249.504034 290.074682 
L 251.341612 288.243909 
L 253.17919 286.413137 
L 255.016768 284.582364 
L 256.854346 282.751592 
L 258.691923 280.920819 
L 260.529501 279.090047 
L 262.367079 277.259274 
L 264.204657 275.428502 
L 266.042235 273.597729 
L 267.879813 271.766957 
L 269.71739 269.936184 
L 271.554968 268.105412 
L 273.392546 266.274639 
L 275.230124 264.443866 
L 277.067702 262.613094 
L 278.90528 260.782321 
L 280.742858 258.951549 
L 282.580435 257.120776 
L 284.418013 255.290004 
L 286.255591 253.459231 
L 288.093169 251.628459 
L 289.930747 249.797686 
L 291.768325 247.966914 
L 293.605902 246.136141 
L 295.44348 244.305369 
L 297.281058 242.474596 
L 299.118636 240.643824 
L 300.956214 238.813051 
L 302.793792 236.982278 
L 304.63137 235.151506 
L 306.468947 233.320733 
L 308.306525 231.489961 
L 310.144103 229.658862 
L 311.981681 227.820642 
L 313.819259 225.972474 
L 315.656837 224.114195 
L 317.494414 222.245637 
L 319.331992 220.366628 
L 321.16957 218.476989 
L 323.007148 216.576539 
L 324.844726 214.665091 
L 326.682304 212.74245 
L 328.519882 210.808418 
L 330.357459 208.86279 
L 332.195037 206.905354 
L 334.032615 204.935894 
L 335.870193 202.954185 
L 337.707771 200.959995 
L 339.545349 198.953085 
L 341.382926 196.93321 
L 343.220504 194.900114 
L 345.058082 192.853535 
L 346.89566 190.7932 
L 348.733238 188.718828 
L 350.570816 186.630129 
L 352.408394 184.526802 
L 354.245971 182.408534 
L 356.083549 180.275003 
L 357.921127 178.125874 
L 359.758705 175.9608 
L 361.596283 173.77942 
L 363.433861 171.581361 
L 365.271438 169.366234 
L 367.109016 167.133635 
L 368.946594 164.883144 
L 370.784172 162.614323 
L 372.62175 160.326719 
L 374.459328 158.019855 
L 376.296906 155.693238 
L 378.134483 153.34635 
L 379.972061 150.978654 
L 381.809639 148.589584 
L 383.647217 146.183391 
L 385.484795 143.77591 
L 387.322373 141.368429 
L 389.15995 138.960948 
L 390.997528 136.553466 
L 392.835106 134.145985 
L 394.672684 131.738504 
L 396.510262 129.331023 
L 398.34784 126.923542 
L 400.185418 124.516061 
L 402.022995 122.10858 
L 403.860573 119.701099 
L 405.698151 117.293618 
L 407.535729 114.886137 
L 409.373307 112.478656 
L 411.210885 110.071174 
L 413.048462 107.663693 
L 414.88604 105.256212 
L 416.723618 102.848731 
L 418.561196 100.44125 
L 420.398774 98.033769 
L 422.236352 95.626288 
L 424.07393 93.218807 
L 425.911507 90.811326 
L 427.749085 88.403845 
L 429.586663 85.996364 
" clip-path="url(#pd38e10e726)" style="fill: none; stroke: #1f77b4; stroke-width: 1.5; stroke-linecap: square"/>
   </g>
   <g id="line2d_30">
    <path d="M 243.029677 291.905455 
L 244.61177 290.783283 
L 246.193864 289.661112 
L 247.775957 288.538941 
L 249.35805 287.416769 
L 250.940143 286.294598 
L 252.522236 285.172427 
L 254.104329 284.050256 
L 255.686422 282.928084 
L 257.268515 281.805913 
L 258.850608 280.683742 
L 260.432702 279.56157 
L 262.014795 278.439399 
L 263.596888 277.317228 
L 265.178981 276.195057 
L 266.761074 275.072885 
L 268.343167 273.950714 
L 269.92526 272.828543 
L 271.507353 271.706371 
L 273.089447 270.5842 
L 274.67154 269.462029 
L 276.253633 268.339858 
L 277.835726 267.217686 
L 279.417819 266.095515 
L 280.999912 264.973344 
L 282.582005 263.851173 
L 284.164098 262.729001 
L 285.746191 261.60683 
L 287.328285 260.484659 
L 288.910378 259.362487 
L 290.492471 258.240316 
L 292.074564 257.118145 
L 293.656657 255.995974 
L 295.23875 254.873802 
L 296.820843 253.751631 
L 298.402936 252.62946 
L 299.985029 251.507288 
L 301.567123 250.385117 
L 303.149216 249.262946 
L 304.731309 248.140775 
L 306.313402 247.018603 
L 307.895495 245.896432 
L 309.477588 244.774261 
L 311.059681 243.652089 
L 312.641774 242.529918 
L 314.223868 241.407747 
L 315.805961 240.285576 
L 317.388054 239.163404 
L 318.970147 238.041233 
L 320.55224 236.919062 
L 322.134333 235.79689 
L 323.716426 234.674719 
L 325.298519 233.552548 
L 326.880612 232.430377 
L 328.462706 231.308205 
L 330.044799 230.186034 
L 331.626892 229.057398 
L 333.208985 227.914174 
L 334.791078 226.755765 
L 336.373171 225.581549 
L 337.955264 224.390859 
L 339.537357 223.182984 
L 341.11945 221.957157 
L 342.701544 220.712551 
L 344.283637 219.448279 
L 345.86573 218.163375 
L 347.447823 216.856797 
L 349.029916 215.527408 
L 350.612009 214.173971 
L 352.194102 212.795131 
L 353.776195 211.389402 
L 355.358289 209.955147 
L 356.940382 208.490555 
L 358.522475 206.993615 
L 360.104568 205.462085 
L 361.686661 203.89345 
L 363.268754 202.284874 
L 364.850847 200.633143 
L 366.43294 198.934583 
L 368.015033 197.184971 
L 369.597127 195.379406 
L 371.17922 193.512151 
L 372.761313 191.576414 
L 374.343406 189.564057 
L 375.925499 187.46519 
L 377.507592 185.267593 
L 379.089685 182.955867 
L 380.671778 180.510136 
L 382.253871 177.903982 
L 383.835965 175.100967 
L 385.418058 172.048333 
L 387.000151 168.664459 
L 388.582244 164.810293 
L 390.164337 160.2091 
L 391.74643 154.113085 
L 393.328523 142.766288 
L 394.910616 128.573807 
L 396.49271 114.381326 
L 398.074803 100.188845 
L 399.656896 85.996364 
" clip-path="url(#pd38e10e726)" style="fill: none; stroke-dasharray: 5.55,2.4; stroke-dashoffset: 0; stroke: #ff7f0e; stroke-width: 1.5"/>
   </g>
   <g id="patch_3">
    <path d="M 180 300.141818 
L 180 77.76 
" style="fill: none; stroke: #000000; stroke-width: 0.8; stroke-linejoin: miter; stroke-linecap: square"/>
   </g>
   <g id="patch_4">
    <path d="M 508.235294 300.141818 
L 508.235294 77.76 
" style="fill: none; stroke: #000000; stroke-width: 0.8; stroke-linejoin: miter; stroke-linecap: square"/>
   </g>
   <g id="patch_5">
    <path d="M 180 300.141818 
L 508.235294 300.141818 
" style="fill: none; stroke: #000000; stroke-width: 0.8; stroke-linejoin: miter; stroke-linecap: square"/>
   </g>
   <g id="patch_6">
    <path d="M 180 77.76 
L 508.235294 77.76 
" style="fill: none; stroke: #000000; stroke-width: 0.8; stroke-linejoin: miter; stroke-linecap: square"/>
   </g>
   <g id="text_14">
    <!--  Block: 0 -->
    <g transform="translate(318.237022 71.76)scale(0.12 -0.12)">
     <defs>
      <path id="DejaVuSans-20" transform="scale(0.015625)"/>
      <path id="DejaVuSans-42" d="M 1259 2228 
L 1259 519 
L 2272 519 
Q 2781 519 3026 730 
Q 3272 941 3272 1375 
Q 3272 1813 3026 2020 
Q 2781 2228 2272 2228 
L 1259 2228 
z
M 1259 4147 
L 1259 2741 
L 2194 2741 
Q 2656 2741 2882 2914 
Q 3109 3088 3109 3444 
Q 3109 3797 2882 3972 
Q 2656 4147 2194 4147 
L 1259 4147 
z
M 628 4666 
L 2241 4666 
Q 2963 4666 3353 4366 
Q 3744 4066 3744 3513 
Q 3744 3084 3544 2831 
Q 3344 2578 2956 2516 
Q 3422 2416 3680 2098 
Q 3938 1781 3938 1306 
Q 3938 681 3513 340 
Q 3088 0 2303 0 
L 628 0 
L 628 4666 
z
" transform="scale(0.015625)"/>
      <path id="DejaVuSans-6c" d="M 603 4863 
L 1178 4863 
L 1178 0 
L 603 0 
L 603 4863 
z
" transform="scale(0.015625)"/>
      <path id="DejaVuSans-6f" d="M 1959 3097 
Q 1497 3097 1228 2736 
Q 959 2375 959 1747 
Q 959 1119 1226 758 
Q 1494 397 1959 397 
Q 2419 397 2687 759 
Q 2956 1122 2956 1747 
Q 2956 2369 2687 2733 
Q 2419 3097 1959 3097 
z
M 1959 3584 
Q 2709 3584 3137 3096 
Q 3566 2609 3566 1747 
Q 3566 888 3137 398 
Q 2709 -91 1959 -91 
Q 1206 -91 779 398 
Q 353 888 353 1747 
Q 353 2609 779 3096 
Q 1206 3584 1959 3584 
z
" transform="scale(0.015625)"/>
      <path id="DejaVuSans-63" d="M 3122 3366 
L 3122 2828 
Q 2878 2963 2633 3030 
Q 2388 3097 2138 3097 
Q 1578 3097 1268 2742 
Q 959 2388 959 1747 
Q 959 1106 1268 751 
Q 1578 397 2138 397 
Q 2388 397 2633 464 
Q 2878 531 3122 666 
L 3122 134 
Q 2881 22 2623 -34 
Q 2366 -91 2075 -91 
Q 1284 -91 818 406 
Q 353 903 353 1747 
Q 353 2603 823 3093 
Q 1294 3584 2113 3584 
Q 2378 3584 2631 3529 
Q 2884 3475 3122 3366 
z
" transform="scale(0.015625)"/>
      <path id="DejaVuSans-6b" d="M 581 4863 
L 1159 4863 
L 1159 1991 
L 2875 3500 
L 3609 3500 
L 1753 1863 
L 3688 0 
L 2938 0 
L 1159 1709 
L 1159 0 
L 581 0 
L 581 4863 
z
" transform="scale(0.015625)"/>
      <path id="DejaVuSans-3a" d="M 750 794 
L 1409 794 
L 1409 0 
L 750 0 
L 750 794 
z
M 750 3309 
L 1409 3309 
L 1409 2516 
L 750 2516 
L 750 3309 
z
" transform="scale(0.015625)"/>
     </defs>
     <use xlink:href="#DejaVuSans-20"/>
     <use xlink:href="#DejaVuSans-42" x="31.787109"/>
     <use xlink:href="#DejaVuSans-6c" x="100.390625"/>
     <use xlink:href="#DejaVuSans-6f" x="128.173828"/>
     <use xlink:href="#DejaVuSans-63" x="189.355469"/>
     <use xlink:href="#DejaVuSans-6b" x="244.335938"/>
     <use xlink:href="#DejaVuSans-3a" x="302.246094"/>
     <use xlink:href="#DejaVuSans-20" x="335.9375"/>
     <use xlink:href="#DejaVuSans-30" x="367.724609"/>
    </g>
   </g>
   <g id="legend_1">
    <g id="patch_7">
     <path d="M 187 130.0725 
L 311.8375 130.0725 
Q 313.8375 130.0725 313.8375 128.0725 
L 313.8375 84.76 
Q 313.8375 82.76 311.8375 82.76 
L 187 82.76 
Q 185 82.76 185 84.76 
L 185 128.0725 
Q 185 130.0725 187 130.0725 
z
" style="fill: #ffffff; opacity: 0.8; stroke: #cccccc; stroke-linejoin: miter"/>
    </g>
    <g id="PathCollection_2">
     <g>
      <use xlink:href="#me9d301ade5" x="199" y="91.733438" style="stroke: #000000"/>
     </g>
    </g>
    <g id="text_15">
     <!-- Data -->
     <g transform="translate(217 94.358438)scale(0.1 -0.1)">
      <defs>
       <path id="DejaVuSans-44" d="M 1259 4147 
L 1259 519 
L 2022 519 
Q 2988 519 3436 956 
Q 3884 1394 3884 2338 
Q 3884 3275 3436 3711 
Q 2988 4147 2022 4147 
L 1259 4147 
z
M 628 4666 
L 1925 4666 
Q 3281 4666 3915 4102 
Q 4550 3538 4550 2338 
Q 4550 1131 3912 565 
Q 3275 0 1925 0 
L 628 0 
L 628 4666 
z
" transform="scale(0.015625)"/>
       <path id="DejaVuSans-61" d="M 2194 1759 
Q 1497 1759 1228 1600 
Q 959 1441 959 1056 
Q 959 750 1161 570 
Q 1363 391 1709 391 
Q 2188 391 2477 730 
Q 2766 1069 2766 1631 
L 2766 1759 
L 2194 1759 
z
M 3341 1997 
L 3341 0 
L 2766 0 
L 2766 531 
Q 2569 213 2275 61 
Q 1981 -91 1556 -91 
Q 1019 -91 701 211 
Q 384 513 384 1019 
Q 384 1609 779 1909 
Q 1175 2209 1959 2209 
L 2766 2209 
L 2766 2266 
Q 2766 2663 2505 2880 
Q 2244 3097 1772 3097 
Q 1472 3097 1187 3025 
Q 903 2953 641 2809 
L 641 3341 
Q 956 3463 1253 3523 
Q 1550 3584 1831 3584 
Q 2591 3584 2966 3190 
Q 3341 2797 3341 1997 
z
" transform="scale(0.015625)"/>
       <path id="DejaVuSans-74" d="M 1172 4494 
L 1172 3500 
L 2356 3500 
L 2356 3053 
L 1172 3053 
L 1172 1153 
Q 1172 725 1289 603 
Q 1406 481 1766 481 
L 2356 481 
L 2356 0 
L 1766 0 
Q 1100 0 847 248 
Q 594 497 594 1153 
L 594 3053 
L 172 3053 
L 172 3500 
L 594 3500 
L 594 4494 
L 1172 4494 
z
" transform="scale(0.015625)"/>
      </defs>
      <use xlink:href="#DejaVuSans-44"/>
      <use xlink:href="#DejaVuSans-61" x="77.001953"/>
      <use xlink:href="#DejaVuSans-74" x="138.28125"/>
      <use xlink:href="#DejaVuSans-61" x="177.490234"/>
     </g>
    </g>
    <g id="line2d_31">
     <path d="M 189 105.536563 
L 199 105.536563 
L 209 105.536563 
" style="fill: none; stroke: #1f77b4; stroke-width: 1.5; stroke-linecap: square"/>
    </g>
    <g id="text_16">
     <!-- Artc e:0.2329 -->
     <g transform="translate(217 109.036563)scale(0.1 -0.1)">
      <defs>
       <path id="DejaVuSans-41" d="M 2188 4044 
L 1331 1722 
L 3047 1722 
L 2188 4044 
z
M 1831 4666 
L 2547 4666 
L 4325 0 
L 3669 0 
L 3244 1197 
L 1141 1197 
L 716 0 
L 50 0 
L 1831 4666 
z
" transform="scale(0.015625)"/>
       <path id="DejaVuSans-72" d="M 2631 2963 
Q 2534 3019 2420 3045 
Q 2306 3072 2169 3072 
Q 1681 3072 1420 2755 
Q 1159 2438 1159 1844 
L 1159 0 
L 581 0 
L 581 3500 
L 1159 3500 
L 1159 2956 
Q 1341 3275 1631 3429 
Q 1922 3584 2338 3584 
Q 2397 3584 2469 3576 
Q 2541 3569 2628 3553 
L 2631 2963 
z
" transform="scale(0.015625)"/>
       <path id="DejaVuSans-65" d="M 3597 1894 
L 3597 1613 
L 953 1613 
Q 991 1019 1311 708 
Q 1631 397 2203 397 
Q 2534 397 2845 478 
Q 3156 559 3463 722 
L 3463 178 
Q 3153 47 2828 -22 
Q 2503 -91 2169 -91 
Q 1331 -91 842 396 
Q 353 884 353 1716 
Q 353 2575 817 3079 
Q 1281 3584 2069 3584 
Q 2775 3584 3186 3129 
Q 3597 2675 3597 1894 
z
M 3022 2063 
Q 3016 2534 2758 2815 
Q 2500 3097 2075 3097 
Q 1594 3097 1305 2825 
Q 1016 2553 972 2059 
L 3022 2063 
z
" transform="scale(0.015625)"/>
       <path id="DejaVuSans-2e" d="M 684 794 
L 1344 794 
L 1344 0 
L 684 0 
L 684 794 
z
" transform="scale(0.015625)"/>
       <path id="DejaVuSans-39" d="M 703 97 
L 703 672 
Q 941 559 1184 500 
Q 1428 441 1663 441 
Q 2288 441 2617 861 
Q 2947 1281 2994 2138 
Q 2813 1869 2534 1725 
Q 2256 1581 1919 1581 
Q 1219 1581 811 2004 
Q 403 2428 403 3163 
Q 403 3881 828 4315 
Q 1253 4750 1959 4750 
Q 2769 4750 3195 4129 
Q 3622 3509 3622 2328 
Q 3622 1225 3098 567 
Q 2575 -91 1691 -91 
Q 1453 -91 1209 -44 
Q 966 3 703 97 
z
M 1959 2075 
Q 2384 2075 2632 2365 
Q 2881 2656 2881 3163 
Q 2881 3666 2632 3958 
Q 2384 4250 1959 4250 
Q 1534 4250 1286 3958 
Q 1038 3666 1038 3163 
Q 1038 2656 1286 2365 
Q 1534 2075 1959 2075 
z
" transform="scale(0.015625)"/>
      </defs>
      <use xlink:href="#DejaVuSans-41"/>
      <use xlink:href="#DejaVuSans-72" x="68.408203"/>
      <use xlink:href="#DejaVuSans-74" x="109.521484"/>
      <use xlink:href="#DejaVuSans-63" x="148.730469"/>
      <use xlink:href="#DejaVuSans-20" x="203.710938"/>
      <use xlink:href="#DejaVuSans-65" x="235.498047"/>
      <use xlink:href="#DejaVuSans-3a" x="297.021484"/>
      <use xlink:href="#DejaVuSans-30" x="330.712891"/>
      <use xlink:href="#DejaVuSans-2e" x="394.335938"/>
      <use xlink:href="#DejaVuSans-32" x="426.123047"/>
      <use xlink:href="#DejaVuSans-33" x="489.746094"/>
      <use xlink:href="#DejaVuSans-32" x="553.369141"/>
      <use xlink:href="#DejaVuSans-39" x="616.992188"/>
     </g>
    </g>
    <g id="line2d_32">
     <path d="M 189 120.214688 
L 199 120.214688 
L 209 120.214688 
" style="fill: none; stroke-dasharray: 5.55,2.4; stroke-dashoffset: 0; stroke: #ff7f0e; stroke-width: 1.5"/>
    </g>
    <g id="text_17">
     <!-- NEL_BTUX e:1.247 -->
     <g transform="translate(217 123.714688)scale(0.1 -0.1)">
      <defs>
       <path id="DejaVuSans-4e" d="M 628 4666 
L 1478 4666 
L 3547 763 
L 3547 4666 
L 4159 4666 
L 4159 0 
L 3309 0 
L 1241 3903 
L 1241 0 
L 628 0 
L 628 4666 
z
" transform="scale(0.015625)"/>
       <path id="DejaVuSans-45" d="M 628 4666 
L 3578 4666 
L 3578 4134 
L 1259 4134 
L 1259 2753 
L 3481 2753 
L 3481 2222 
L 1259 2222 
L 1259 531 
L 3634 531 
L 3634 0 
L 628 0 
L 628 4666 
z
" transform="scale(0.015625)"/>
       <path id="DejaVuSans-4c" d="M 628 4666 
L 1259 4666 
L 1259 531 
L 3531 531 
L 3531 0 
L 628 0 
L 628 4666 
z
" transform="scale(0.015625)"/>
       <path id="DejaVuSans-5f" d="M 3263 -1063 
L 3263 -1509 
L -63 -1509 
L -63 -1063 
L 3263 -1063 
z
" transform="scale(0.015625)"/>
       <path id="DejaVuSans-54" d="M -19 4666 
L 3928 4666 
L 3928 4134 
L 2272 4134 
L 2272 0 
L 1638 0 
L 1638 4134 
L -19 4134 
L -19 4666 
z
" transform="scale(0.015625)"/>
       <path id="DejaVuSans-55" d="M 556 4666 
L 1191 4666 
L 1191 1831 
Q 1191 1081 1462 751 
Q 1734 422 2344 422 
Q 2950 422 3222 751 
Q 3494 1081 3494 1831 
L 3494 4666 
L 4128 4666 
L 4128 1753 
Q 4128 841 3676 375 
Q 3225 -91 2344 -91 
Q 1459 -91 1007 375 
Q 556 841 556 1753 
L 556 4666 
z
" transform="scale(0.015625)"/>
       <path id="DejaVuSans-58" d="M 403 4666 
L 1081 4666 
L 2241 2931 
L 3406 4666 
L 4084 4666 
L 2584 2425 
L 4184 0 
L 3506 0 
L 2194 1984 
L 872 0 
L 191 0 
L 1856 2491 
L 403 4666 
z
" transform="scale(0.015625)"/>
       <path id="DejaVuSans-37" d="M 525 4666 
L 3525 4666 
L 3525 4397 
L 1831 0 
L 1172 0 
L 2766 4134 
L 525 4134 
L 525 4666 
z
" transform="scale(0.015625)"/>
      </defs>
      <use xlink:href="#DejaVuSans-4e"/>
      <use xlink:href="#DejaVuSans-45" x="74.804688"/>
      <use xlink:href="#DejaVuSans-4c" x="137.988281"/>
      <use xlink:href="#DejaVuSans-5f" x="193.701172"/>
      <use xlink:href="#DejaVuSans-42" x="243.701172"/>
      <use xlink:href="#DejaVuSans-54" x="312.304688"/>
      <use xlink:href="#DejaVuSans-55" x="373.388672"/>
      <use xlink:href="#DejaVuSans-58" x="446.582031"/>
      <use xlink:href="#DejaVuSans-20" x="515.087891"/>
      <use xlink:href="#DejaVuSans-65" x="546.875"/>
      <use xlink:href="#DejaVuSans-3a" x="608.398438"/>
      <use xlink:href="#DejaVuSans-31" x="642.089844"/>
      <use xlink:href="#DejaVuSans-2e" x="705.712891"/>
      <use xlink:href="#DejaVuSans-32" x="737.5"/>
      <use xlink:href="#DejaVuSans-34" x="801.123047"/>
      <use xlink:href="#DejaVuSans-37" x="864.746094"/>
     </g>
    </g>
   </g>
  </g>
  <g id="axes_2">
   <g id="patch_8">
    <path d="M 573.882353 300.141818 
L 902.117647 300.141818 
L 902.117647 77.76 
L 573.882353 77.76 
z
" style="fill: #ffffff"/>
   </g>
   <g id="PathCollection_3">
    <g clip-path="url(#p20fb095506)">
     <use xlink:href="#me9d301ade5" x="783.907034" y="147.769091" style="stroke: #000000"/>
     <use xlink:href="#me9d301ade5" x="806.860551" y="106.587273" style="stroke: #000000"/>
     <use xlink:href="#me9d301ade5" x="749.476759" y="230.132727" style="stroke: #000000"/>
     <use xlink:href="#me9d301ade5" x="829.814068" y="85.996364" style="stroke: #000000"/>
     <use xlink:href="#me9d301ade5" x="715.046483" y="230.132727" style="stroke: #000000"/>
     <use xlink:href="#me9d301ade5" x="680.616207" y="271.314545" style="stroke: #000000"/>
     <use xlink:href="#me9d301ade5" x="646.185932" y="271.314545" style="stroke: #000000"/>
     <use xlink:href="#me9d301ade5" x="611.755656" y="291.905455" style="stroke: #000000"/>
     <use xlink:href="#me9d301ade5" x="623.232415" y="291.905455" style="stroke: #000000"/>
     <use xlink:href="#me9d301ade5" x="634.709173" y="291.905455" style="stroke: #000000"/>
     <use xlink:href="#me9d301ade5" x="646.185932" y="291.905455" style="stroke: #000000"/>
     <use xlink:href="#me9d301ade5" x="657.66269" y="271.314545" style="stroke: #000000"/>
     <use xlink:href="#me9d301ade5" x="657.662461" y="271.314545" style="stroke: #000000"/>
     <use xlink:href="#me9d301ade5" x="755.030132" y="188.950909" style="stroke: #000000"/>
     <use xlink:href="#me9d301ade5" x="722.574318" y="209.541818" style="stroke: #000000"/>
     <use xlink:href="#me9d301ade5" x="787.485947" y="147.769091" style="stroke: #000000"/>
     <use xlink:href="#me9d301ade5" x="690.118275" y="230.132727" style="stroke: #000000"/>
     <use xlink:href="#me9d301ade5" x="658.706387" y="271.314545" style="stroke: #000000"/>
     <use xlink:href="#me9d301ade5" x="821.853559" y="106.587273" style="stroke: #000000"/>
     <use xlink:href="#me9d301ade5" x="740.279973" y="188.950909" style="stroke: #000000"/>
     <use xlink:href="#me9d301ade5" x="781.066766" y="147.769091" style="stroke: #000000"/>
     <use xlink:href="#me9d301ade5" x="699.49318" y="188.950909" style="stroke: #000000"/>
    </g>
   </g>
   <g id="matplotlib.axis_3">
    <g id="xtick_8">
     <g id="line2d_33">
      <path d="M 611.755656 300.141818 
L 611.755656 77.76 
" clip-path="url(#p20fb095506)" style="fill: none; stroke: #b0b0b0; stroke-width: 0.8; stroke-linecap: square"/>
     </g>
     <g id="line2d_34">
      <g>
       <use xlink:href="#m29fefe43f0" x="611.755656" y="300.141818" style="stroke: #000000; stroke-width: 0.8"/>
      </g>
     </g>
     <g id="text_18">
      <!-- 0 -->
      <g transform="translate(608.574406 314.740256)scale(0.1 -0.1)">
       <use xlink:href="#DejaVuSans-30"/>
      </g>
     </g>
    </g>
    <g id="xtick_9">
     <g id="line2d_35">
      <path d="M 657.66269 300.141818 
L 657.66269 77.76 
" clip-path="url(#p20fb095506)" style="fill: none; stroke: #b0b0b0; stroke-width: 0.8; stroke-linecap: square"/>
     </g>
     <g id="line2d_36">
      <g>
       <use xlink:href="#m29fefe43f0" x="657.66269" y="300.141818" style="stroke: #000000; stroke-width: 0.8"/>
      </g>
     </g>
     <g id="text_19">
      <!-- 20 -->
      <g transform="translate(651.30019 314.740256)scale(0.1 -0.1)">
       <use xlink:href="#DejaVuSans-32"/>
       <use xlink:href="#DejaVuSans-30" x="63.623047"/>
      </g>
     </g>
    </g>
    <g id="xtick_10">
     <g id="line2d_37">
      <path d="M 703.569724 300.141818 
L 703.569724 77.76 
" clip-path="url(#p20fb095506)" style="fill: none; stroke: #b0b0b0; stroke-width: 0.8; stroke-linecap: square"/>
     </g>
     <g id="line2d_38">
      <g>
       <use xlink:href="#m29fefe43f0" x="703.569724" y="300.141818" style="stroke: #000000; stroke-width: 0.8"/>
      </g>
     </g>
     <g id="text_20">
      <!-- 40 -->
      <g transform="translate(697.207224 314.740256)scale(0.1 -0.1)">
       <use xlink:href="#DejaVuSans-34"/>
       <use xlink:href="#DejaVuSans-30" x="63.623047"/>
      </g>
     </g>
    </g>
    <g id="xtick_11">
     <g id="line2d_39">
      <path d="M 749.476759 300.141818 
L 749.476759 77.76 
" clip-path="url(#p20fb095506)" style="fill: none; stroke: #b0b0b0; stroke-width: 0.8; stroke-linecap: square"/>
     </g>
     <g id="line2d_40">
      <g>
       <use xlink:href="#m29fefe43f0" x="749.476759" y="300.141818" style="stroke: #000000; stroke-width: 0.8"/>
      </g>
     </g>
     <g id="text_21">
      <!-- 60 -->
      <g transform="translate(743.114259 314.740256)scale(0.1 -0.1)">
       <use xlink:href="#DejaVuSans-36"/>
       <use xlink:href="#DejaVuSans-30" x="63.623047"/>
      </g>
     </g>
    </g>
    <g id="xtick_12">
     <g id="line2d_41">
      <path d="M 795.383793 300.141818 
L 795.383793 77.76 
" clip-path="url(#p20fb095506)" style="fill: none; stroke: #b0b0b0; stroke-width: 0.8; stroke-linecap: square"/>
     </g>
     <g id="line2d_42">
      <g>
       <use xlink:href="#m29fefe43f0" x="795.383793" y="300.141818" style="stroke: #000000; stroke-width: 0.8"/>
      </g>
     </g>
     <g id="text_22">
      <!-- 80 -->
      <g transform="translate(789.021293 314.740256)scale(0.1 -0.1)">
       <use xlink:href="#DejaVuSans-38"/>
       <use xlink:href="#DejaVuSans-30" x="63.623047"/>
      </g>
     </g>
    </g>
    <g id="xtick_13">
     <g id="line2d_43">
      <path d="M 841.290827 300.141818 
L 841.290827 77.76 
" clip-path="url(#p20fb095506)" style="fill: none; stroke: #b0b0b0; stroke-width: 0.8; stroke-linecap: square"/>
     </g>
     <g id="line2d_44">
      <g>
       <use xlink:href="#m29fefe43f0" x="841.290827" y="300.141818" style="stroke: #000000; stroke-width: 0.8"/>
      </g>
     </g>
     <g id="text_23">
      <!-- 100 -->
      <g transform="translate(831.747077 314.740256)scale(0.1 -0.1)">
       <use xlink:href="#DejaVuSans-31"/>
       <use xlink:href="#DejaVuSans-30" x="63.623047"/>
       <use xlink:href="#DejaVuSans-30" x="127.246094"/>
      </g>
     </g>
    </g>
    <g id="xtick_14">
     <g id="line2d_45">
      <path d="M 887.197861 300.141818 
L 887.197861 77.76 
" clip-path="url(#p20fb095506)" style="fill: none; stroke: #b0b0b0; stroke-width: 0.8; stroke-linecap: square"/>
     </g>
     <g id="line2d_46">
      <g>
       <use xlink:href="#m29fefe43f0" x="887.197861" y="300.141818" style="stroke: #000000; stroke-width: 0.8"/>
      </g>
     </g>
     <g id="text_24">
      <!-- 120 -->
      <g transform="translate(877.654111 314.740256)scale(0.1 -0.1)">
       <use xlink:href="#DejaVuSans-31"/>
       <use xlink:href="#DejaVuSans-32" x="63.623047"/>
       <use xlink:href="#DejaVuSans-30" x="127.246094"/>
      </g>
     </g>
    </g>
   </g>
   <g id="matplotlib.axis_4">
    <g id="ytick_7">
     <g id="line2d_47">
      <path d="M 573.882353 291.905455 
L 902.117647 291.905455 
" clip-path="url(#p20fb095506)" style="fill: none; stroke: #b0b0b0; stroke-width: 0.8; stroke-linecap: square"/>
     </g>
     <g id="line2d_48">
      <g>
       <use xlink:href="#ma1b66e2be6" x="573.882353" y="291.905455" style="stroke: #000000; stroke-width: 0.8"/>
      </g>
     </g>
     <g id="text_25">
      <!-- 0 -->
      <g transform="translate(560.519853 295.704673)scale(0.1 -0.1)">
       <use xlink:href="#DejaVuSans-30"/>
      </g>
     </g>
    </g>
    <g id="ytick_8">
     <g id="line2d_49">
      <path d="M 573.882353 250.723636 
L 902.117647 250.723636 
" clip-path="url(#p20fb095506)" style="fill: none; stroke: #b0b0b0; stroke-width: 0.8; stroke-linecap: square"/>
     </g>
     <g id="line2d_50">
      <g>
       <use xlink:href="#ma1b66e2be6" x="573.882353" y="250.723636" style="stroke: #000000; stroke-width: 0.8"/>
      </g>
     </g>
     <g id="text_26">
      <!-- 10 -->
      <g transform="translate(554.157353 254.522855)scale(0.1 -0.1)">
       <use xlink:href="#DejaVuSans-31"/>
       <use xlink:href="#DejaVuSans-30" x="63.623047"/>
      </g>
     </g>
    </g>
    <g id="ytick_9">
     <g id="line2d_51">
      <path d="M 573.882353 209.541818 
L 902.117647 209.541818 
" clip-path="url(#p20fb095506)" style="fill: none; stroke: #b0b0b0; stroke-width: 0.8; stroke-linecap: square"/>
     </g>
     <g id="line2d_52">
      <g>
       <use xlink:href="#ma1b66e2be6" x="573.882353" y="209.541818" style="stroke: #000000; stroke-width: 0.8"/>
      </g>
     </g>
     <g id="text_27">
      <!-- 20 -->
      <g transform="translate(554.157353 213.341037)scale(0.1 -0.1)">
       <use xlink:href="#DejaVuSans-32"/>
       <use xlink:href="#DejaVuSans-30" x="63.623047"/>
      </g>
     </g>
    </g>
    <g id="ytick_10">
     <g id="line2d_53">
      <path d="M 573.882353 168.36 
L 902.117647 168.36 
" clip-path="url(#p20fb095506)" style="fill: none; stroke: #b0b0b0; stroke-width: 0.8; stroke-linecap: square"/>
     </g>
     <g id="line2d_54">
      <g>
       <use xlink:href="#ma1b66e2be6" x="573.882353" y="168.36" style="stroke: #000000; stroke-width: 0.8"/>
      </g>
     </g>
     <g id="text_28">
      <!-- 30 -->
      <g transform="translate(554.157353 172.159219)scale(0.1 -0.1)">
       <use xlink:href="#DejaVuSans-33"/>
       <use xlink:href="#DejaVuSans-30" x="63.623047"/>
      </g>
     </g>
    </g>
    <g id="ytick_11">
     <g id="line2d_55">
      <path d="M 573.882353 127.178182 
L 902.117647 127.178182 
" clip-path="url(#p20fb095506)" style="fill: none; stroke: #b0b0b0; stroke-width: 0.8; stroke-linecap: square"/>
     </g>
     <g id="line2d_56">
      <g>
       <use xlink:href="#ma1b66e2be6" x="573.882353" y="127.178182" style="stroke: #000000; stroke-width: 0.8"/>
      </g>
     </g>
     <g id="text_29">
      <!-- 40 -->
      <g transform="translate(554.157353 130.977401)scale(0.1 -0.1)">
       <use xlink:href="#DejaVuSans-34"/>
       <use xlink:href="#DejaVuSans-30" x="63.623047"/>
      </g>
     </g>
    </g>
    <g id="ytick_12">
     <g id="line2d_57">
      <path d="M 573.882353 85.996364 
L 902.117647 85.996364 
" clip-path="url(#p20fb095506)" style="fill: none; stroke: #b0b0b0; stroke-width: 0.8; stroke-linecap: square"/>
     </g>
     <g id="line2d_58">
      <g>
       <use xlink:href="#ma1b66e2be6" x="573.882353" y="85.996364" style="stroke: #000000; stroke-width: 0.8"/>
      </g>
     </g>
     <g id="text_30">
      <!-- 50 -->
      <g transform="translate(554.157353 89.795582)scale(0.1 -0.1)">
       <use xlink:href="#DejaVuSans-35"/>
       <use xlink:href="#DejaVuSans-30" x="63.623047"/>
      </g>
     </g>
    </g>
   </g>
   <g id="line2d_59">
    <path d="M 588.802139 188.950909 
L 887.197861 188.950909 
" clip-path="url(#p20fb095506)" style="fill: none; stroke-dasharray: 1.5,2.475; stroke-dashoffset: 0; stroke: #808080; stroke-width: 1.5"/>
   </g>
   <g id="line2d_60">
    <path d="M 829.814068 333.087273 
L 829.814068 3.632727 
" clip-path="url(#p20fb095506)" style="fill: none; stroke-dasharray: 5.55,2.4; stroke-dashoffset: 0; stroke: #ff0000; stroke-opacity: 0.3; stroke-width: 1.5"/>
   </g>
   <g id="line2d_61">
    <path d="M 629.845924 291.905455 
L 631.854678 290.299936 
L 633.863433 288.694418 
L 635.872188 287.088899 
L 637.880943 285.483381 
L 639.889697 283.877862 
L 641.898452 282.272344 
L 643.907207 280.666825 
L 645.915961 279.061307 
L 647.924716 277.455789 
L 649.933471 275.85027 
L 651.942226 274.244752 
L 653.95098 272.639233 
L 655.959735 271.033715 
L 657.96849 269.428196 
L 659.977244 267.822678 
L 661.985999 266.21716 
L 663.994754 264.611641 
L 666.003509 263.006123 
L 668.012263 261.400604 
L 670.021018 259.795086 
L 672.029773 258.189567 
L 674.038528 256.584049 
L 676.047282 254.97853 
L 678.056037 253.373012 
L 680.064792 251.767494 
L 682.073546 250.161975 
L 684.082301 248.556457 
L 686.091056 246.950938 
L 688.099811 245.34542 
L 690.108565 243.739901 
L 692.11732 242.134383 
L 694.126075 240.528865 
L 696.134829 238.923346 
L 698.143584 237.317828 
L 700.152339 235.712309 
L 702.161094 234.106791 
L 704.169848 232.501272 
L 706.178603 230.895754 
L 708.187358 229.288261 
L 710.196112 227.667893 
L 712.204867 226.032648 
L 714.213622 224.382106 
L 716.222377 222.715831 
L 718.231131 221.033364 
L 720.239886 219.334223 
L 722.248641 217.617904 
L 724.257396 215.883873 
L 726.26615 214.131571 
L 728.274905 212.360408 
L 730.28366 210.569762 
L 732.292414 208.758974 
L 734.301169 206.927351 
L 736.309924 205.074155 
L 738.318679 203.198605 
L 740.327433 201.299874 
L 742.336188 199.377079 
L 744.344943 197.429281 
L 746.353697 195.45548 
L 748.362452 193.454605 
L 750.371207 191.42551 
L 752.379962 189.366966 
L 754.388716 187.277654 
L 756.397471 185.15615 
L 758.406226 183.000919 
L 760.414981 180.810299 
L 762.423735 178.582489 
L 764.43249 176.315525 
L 766.441245 174.00727 
L 768.449999 171.655381 
L 770.458754 169.257285 
L 772.467509 166.810147 
L 774.476264 164.310829 
L 776.485018 161.755845 
L 778.493773 159.141299 
L 780.502528 156.462822 
L 782.511282 153.71548 
L 784.520037 150.893673 
L 786.528792 147.990996 
L 788.537547 145.039109 
L 790.546301 142.086972 
L 792.555056 139.134835 
L 794.563811 136.182697 
L 796.572565 133.23056 
L 798.58132 130.278423 
L 800.590075 127.326286 
L 802.59883 124.374148 
L 804.607584 121.422011 
L 806.616339 118.469874 
L 808.625094 115.517736 
L 810.633849 112.565599 
L 812.642603 109.613462 
L 814.651358 106.661325 
L 816.660113 103.709187 
L 818.668867 100.75705 
L 820.677622 97.804913 
L 822.686377 94.852775 
L 824.695132 91.900638 
L 826.703886 88.948501 
L 828.712641 85.996364 
" clip-path="url(#p20fb095506)" style="fill: none; stroke: #1f77b4; stroke-width: 1.5; stroke-linecap: square"/>
   </g>
   <g id="line2d_62">
    <path d="M 635.101372 291.905455 
L 637.087562 290.06047 
L 639.073752 288.215485 
L 641.059942 286.370501 
L 643.046132 284.525516 
L 645.032322 282.680532 
L 647.018512 280.835547 
L 649.004702 278.990563 
L 650.990892 277.145578 
L 652.977082 275.300594 
L 654.963272 273.455609 
L 656.949462 271.610625 
L 658.935652 269.76564 
L 660.921842 267.920656 
L 662.908032 266.075671 
L 664.894223 264.230687 
L 666.880413 262.385702 
L 668.866603 260.540717 
L 670.852793 258.695733 
L 672.838983 256.850748 
L 674.825173 255.005764 
L 676.811363 253.160779 
L 678.797553 251.315795 
L 680.783743 249.47081 
L 682.769933 247.625826 
L 684.756123 245.780841 
L 686.742313 243.935857 
L 688.728503 242.090872 
L 690.714693 240.245888 
L 692.700883 238.400903 
L 694.687073 236.555918 
L 696.673263 234.710934 
L 698.659454 232.865949 
L 700.645644 231.020965 
L 702.631834 229.174722 
L 704.618024 227.320148 
L 706.604214 225.45602 
L 708.590404 223.582187 
L 710.576594 221.698497 
L 712.562784 219.804791 
L 714.548974 217.90091 
L 716.535164 215.986687 
L 718.521354 214.061951 
L 720.507544 212.126528 
L 722.493734 210.180237 
L 724.479924 208.222894 
L 726.466114 206.254308 
L 728.452304 204.274282 
L 730.438494 202.282615 
L 732.424685 200.2791 
L 734.410875 198.263522 
L 736.397065 196.235661 
L 738.383255 194.195289 
L 740.369445 192.142172 
L 742.355635 190.076068 
L 744.341825 187.996728 
L 746.328015 185.903894 
L 748.314205 183.797299 
L 750.300395 181.676669 
L 752.286585 179.541719 
L 754.272775 177.392155 
L 756.258965 175.227673 
L 758.245155 173.047958 
L 760.231345 170.852684 
L 762.217535 168.641512 
L 764.203725 166.414093 
L 766.189916 164.170062 
L 768.176106 161.909043 
L 770.162296 159.630643 
L 772.148486 157.334456 
L 774.134676 155.020059 
L 776.120866 152.68701 
L 778.107056 150.334853 
L 780.093246 147.963108 
L 782.079436 145.579836 
L 784.065626 143.196497 
L 786.051816 140.813158 
L 788.038006 138.429819 
L 790.024196 136.04648 
L 792.010386 133.663141 
L 793.996576 131.279803 
L 795.982766 128.896464 
L 797.968956 126.513125 
L 799.955147 124.129786 
L 801.941337 121.746447 
L 803.927527 119.363108 
L 805.913717 116.979769 
L 807.899907 114.59643 
L 809.886097 112.213091 
L 811.872287 109.829753 
L 813.858477 107.446414 
L 815.844667 105.063075 
L 817.830857 102.679736 
L 819.817047 100.296397 
L 821.803237 97.913058 
L 823.789427 95.529719 
L 825.775617 93.14638 
L 827.761807 90.763041 
L 829.747997 88.379703 
L 831.734187 85.996364 
" clip-path="url(#p20fb095506)" style="fill: none; stroke-dasharray: 5.55,2.4; stroke-dashoffset: 0; stroke: #ff7f0e; stroke-width: 1.5"/>
   </g>
   <g id="patch_9">
    <path d="M 573.882353 300.141818 
L 573.882353 77.76 
" style="fill: none; stroke: #000000; stroke-width: 0.8; stroke-linejoin: miter; stroke-linecap: square"/>
   </g>
   <g id="patch_10">
    <path d="M 902.117647 300.141818 
L 902.117647 77.76 
" style="fill: none; stroke: #000000; stroke-width: 0.8; stroke-linejoin: miter; stroke-linecap: square"/>
   </g>
   <g id="patch_11">
    <path d="M 573.882353 300.141818 
L 902.117647 300.141818 
" style="fill: none; stroke: #000000; stroke-width: 0.8; stroke-linejoin: miter; stroke-linecap: square"/>
   </g>
   <g id="patch_12">
    <path d="M 573.882353 77.76 
L 902.117647 77.76 
" style="fill: none; stroke: #000000; stroke-width: 0.8; stroke-linejoin: miter; stroke-linecap: square"/>
   </g>
   <g id="text_31">
    <!--  Block: 1 -->
    <g transform="translate(712.119375 71.76)scale(0.12 -0.12)">
     <use xlink:href="#DejaVuSans-20"/>
     <use xlink:href="#DejaVuSans-42" x="31.787109"/>
     <use xlink:href="#DejaVuSans-6c" x="100.390625"/>
     <use xlink:href="#DejaVuSans-6f" x="128.173828"/>
     <use xlink:href="#DejaVuSans-63" x="189.355469"/>
     <use xlink:href="#DejaVuSans-6b" x="244.335938"/>
     <use xlink:href="#DejaVuSans-3a" x="302.246094"/>
     <use xlink:href="#DejaVuSans-20" x="335.9375"/>
     <use xlink:href="#DejaVuSans-31" x="367.724609"/>
    </g>
   </g>
   <g id="legend_2">
    <g id="patch_13">
     <path d="M 580.882353 130.0725 
L 712.082353 130.0725 
Q 714.082353 130.0725 714.082353 128.0725 
L 714.082353 84.76 
Q 714.082353 82.76 712.082353 82.76 
L 580.882353 82.76 
Q 578.882353 82.76 578.882353 84.76 
L 578.882353 128.0725 
Q 578.882353 130.0725 580.882353 130.0725 
z
" style="fill: #ffffff; opacity: 0.8; stroke: #cccccc; stroke-linejoin: miter"/>
    </g>
    <g id="PathCollection_4">
     <g>
      <use xlink:href="#me9d301ade5" x="592.882353" y="91.733438" style="stroke: #000000"/>
     </g>
    </g>
    <g id="text_32">
     <!-- Data -->
     <g transform="translate(610.882353 94.358438)scale(0.1 -0.1)">
      <use xlink:href="#DejaVuSans-44"/>
      <use xlink:href="#DejaVuSans-61" x="77.001953"/>
      <use xlink:href="#DejaVuSans-74" x="138.28125"/>
      <use xlink:href="#DejaVuSans-61" x="177.490234"/>
     </g>
    </g>
    <g id="line2d_63">
     <path d="M 582.882353 105.536563 
L 592.882353 105.536563 
L 602.882353 105.536563 
" style="fill: none; stroke: #1f77b4; stroke-width: 1.5; stroke-linecap: square"/>
    </g>
    <g id="text_33">
     <!-- Artc e:0.1718 -->
     <g transform="translate(610.882353 109.036563)scale(0.1 -0.1)">
      <use xlink:href="#DejaVuSans-41"/>
      <use xlink:href="#DejaVuSans-72" x="68.408203"/>
      <use xlink:href="#DejaVuSans-74" x="109.521484"/>
      <use xlink:href="#DejaVuSans-63" x="148.730469"/>
      <use xlink:href="#DejaVuSans-20" x="203.710938"/>
      <use xlink:href="#DejaVuSans-65" x="235.498047"/>
      <use xlink:href="#DejaVuSans-3a" x="297.021484"/>
      <use xlink:href="#DejaVuSans-30" x="330.712891"/>
      <use xlink:href="#DejaVuSans-2e" x="394.335938"/>
      <use xlink:href="#DejaVuSans-31" x="426.123047"/>
      <use xlink:href="#DejaVuSans-37" x="489.746094"/>
      <use xlink:href="#DejaVuSans-31" x="553.369141"/>
      <use xlink:href="#DejaVuSans-38" x="616.992188"/>
     </g>
    </g>
    <g id="line2d_64">
     <path d="M 582.882353 120.214688 
L 592.882353 120.214688 
L 602.882353 120.214688 
" style="fill: none; stroke-dasharray: 5.55,2.4; stroke-dashoffset: 0; stroke: #ff7f0e; stroke-width: 1.5"/>
    </g>
    <g id="text_34">
     <!-- NEL_BTUX e:0.1838 -->
     <g transform="translate(610.882353 123.714688)scale(0.1 -0.1)">
      <use xlink:href="#DejaVuSans-4e"/>
      <use xlink:href="#DejaVuSans-45" x="74.804688"/>
      <use xlink:href="#DejaVuSans-4c" x="137.988281"/>
      <use xlink:href="#DejaVuSans-5f" x="193.701172"/>
      <use xlink:href="#DejaVuSans-42" x="243.701172"/>
      <use xlink:href="#DejaVuSans-54" x="312.304688"/>
      <use xlink:href="#DejaVuSans-55" x="373.388672"/>
      <use xlink:href="#DejaVuSans-58" x="446.582031"/>
      <use xlink:href="#DejaVuSans-20" x="515.087891"/>
      <use xlink:href="#DejaVuSans-65" x="546.875"/>
      <use xlink:href="#DejaVuSans-3a" x="608.398438"/>
      <use xlink:href="#DejaVuSans-30" x="642.089844"/>
      <use xlink:href="#DejaVuSans-2e" x="705.712891"/>
      <use xlink:href="#DejaVuSans-31" x="737.5"/>
      <use xlink:href="#DejaVuSans-38" x="801.123047"/>
      <use xlink:href="#DejaVuSans-33" x="864.746094"/>
      <use xlink:href="#DejaVuSans-38" x="928.369141"/>
     </g>
    </g>
   </g>
  </g>
  <g id="axes_3">
   <g id="patch_14">
    <path d="M 967.764706 300.141818 
L 1296 300.141818 
L 1296 77.76 
L 967.764706 77.76 
z
" style="fill: #ffffff"/>
   </g>
   <g id="PathCollection_5">
    <g clip-path="url(#pbc96996e24)">
     <use xlink:href="#me9d301ade5" x="1177.789387" y="147.769091" style="stroke: #000000"/>
     <use xlink:href="#me9d301ade5" x="1200.742904" y="85.996364" style="stroke: #000000"/>
     <use xlink:href="#me9d301ade5" x="1143.359111" y="188.950909" style="stroke: #000000"/>
     <use xlink:href="#me9d301ade5" x="1108.928836" y="230.132727" style="stroke: #000000"/>
     <use xlink:href="#me9d301ade5" x="1074.49856" y="250.723636" style="stroke: #000000"/>
     <use xlink:href="#me9d301ade5" x="1040.068285" y="271.314545" style="stroke: #000000"/>
     <use xlink:href="#me9d301ade5" x="1005.638009" y="291.905455" style="stroke: #000000"/>
     <use xlink:href="#me9d301ade5" x="1017.114768" y="291.905455" style="stroke: #000000"/>
     <use xlink:href="#me9d301ade5" x="1028.591526" y="291.905455" style="stroke: #000000"/>
     <use xlink:href="#me9d301ade5" x="1040.068285" y="291.905455" style="stroke: #000000"/>
     <use xlink:href="#me9d301ade5" x="1051.545043" y="271.314545" style="stroke: #000000"/>
     <use xlink:href="#me9d301ade5" x="1148.912485" y="188.950909" style="stroke: #000000"/>
     <use xlink:href="#me9d301ade5" x="1084.000628" y="230.132727" style="stroke: #000000"/>
     <use xlink:href="#me9d301ade5" x="1051.544814" y="271.314545" style="stroke: #000000"/>
     <use xlink:href="#me9d301ade5" x="1181.368299" y="147.769091" style="stroke: #000000"/>
     <use xlink:href="#me9d301ade5" x="1116.456671" y="188.950909" style="stroke: #000000"/>
     <use xlink:href="#me9d301ade5" x="1203.610717" y="85.996364" style="stroke: #000000"/>
     <use xlink:href="#me9d301ade5" x="1051.159883" y="271.314545" style="stroke: #000000"/>
     <use xlink:href="#me9d301ade5" x="1165.498008" y="147.769091" style="stroke: #000000"/>
     <use xlink:href="#me9d301ade5" x="1089.272592" y="230.132727" style="stroke: #000000"/>
     <use xlink:href="#me9d301ade5" x="1127.3853" y="188.950909" style="stroke: #000000"/>
    </g>
   </g>
   <g id="matplotlib.axis_5">
    <g id="xtick_15">
     <g id="line2d_65">
      <path d="M 1005.638009 300.141818 
L 1005.638009 77.76 
" clip-path="url(#pbc96996e24)" style="fill: none; stroke: #b0b0b0; stroke-width: 0.8; stroke-linecap: square"/>
     </g>
     <g id="line2d_66">
      <g>
       <use xlink:href="#m29fefe43f0" x="1005.638009" y="300.141818" style="stroke: #000000; stroke-width: 0.8"/>
      </g>
     </g>
     <g id="text_35">
      <!-- 0 -->
      <g transform="translate(1002.456759 314.740256)scale(0.1 -0.1)">
       <use xlink:href="#DejaVuSans-30"/>
      </g>
     </g>
    </g>
    <g id="xtick_16">
     <g id="line2d_67">
      <path d="M 1051.545043 300.141818 
L 1051.545043 77.76 
" clip-path="url(#pbc96996e24)" style="fill: none; stroke: #b0b0b0; stroke-width: 0.8; stroke-linecap: square"/>
     </g>
     <g id="line2d_68">
      <g>
       <use xlink:href="#m29fefe43f0" x="1051.545043" y="300.141818" style="stroke: #000000; stroke-width: 0.8"/>
      </g>
     </g>
     <g id="text_36">
      <!-- 20 -->
      <g transform="translate(1045.182543 314.740256)scale(0.1 -0.1)">
       <use xlink:href="#DejaVuSans-32"/>
       <use xlink:href="#DejaVuSans-30" x="63.623047"/>
      </g>
     </g>
    </g>
    <g id="xtick_17">
     <g id="line2d_69">
      <path d="M 1097.452077 300.141818 
L 1097.452077 77.76 
" clip-path="url(#pbc96996e24)" style="fill: none; stroke: #b0b0b0; stroke-width: 0.8; stroke-linecap: square"/>
     </g>
     <g id="line2d_70">
      <g>
       <use xlink:href="#m29fefe43f0" x="1097.452077" y="300.141818" style="stroke: #000000; stroke-width: 0.8"/>
      </g>
     </g>
     <g id="text_37">
      <!-- 40 -->
      <g transform="translate(1091.089577 314.740256)scale(0.1 -0.1)">
       <use xlink:href="#DejaVuSans-34"/>
       <use xlink:href="#DejaVuSans-30" x="63.623047"/>
      </g>
     </g>
    </g>
    <g id="xtick_18">
     <g id="line2d_71">
      <path d="M 1143.359111 300.141818 
L 1143.359111 77.76 
" clip-path="url(#pbc96996e24)" style="fill: none; stroke: #b0b0b0; stroke-width: 0.8; stroke-linecap: square"/>
     </g>
     <g id="line2d_72">
      <g>
       <use xlink:href="#m29fefe43f0" x="1143.359111" y="300.141818" style="stroke: #000000; stroke-width: 0.8"/>
      </g>
     </g>
     <g id="text_38">
      <!-- 60 -->
      <g transform="translate(1136.996611 314.740256)scale(0.1 -0.1)">
       <use xlink:href="#DejaVuSans-36"/>
       <use xlink:href="#DejaVuSans-30" x="63.623047"/>
      </g>
     </g>
    </g>
    <g id="xtick_19">
     <g id="line2d_73">
      <path d="M 1189.266146 300.141818 
L 1189.266146 77.76 
" clip-path="url(#pbc96996e24)" style="fill: none; stroke: #b0b0b0; stroke-width: 0.8; stroke-linecap: square"/>
     </g>
     <g id="line2d_74">
      <g>
       <use xlink:href="#m29fefe43f0" x="1189.266146" y="300.141818" style="stroke: #000000; stroke-width: 0.8"/>
      </g>
     </g>
     <g id="text_39">
      <!-- 80 -->
      <g transform="translate(1182.903646 314.740256)scale(0.1 -0.1)">
       <use xlink:href="#DejaVuSans-38"/>
       <use xlink:href="#DejaVuSans-30" x="63.623047"/>
      </g>
     </g>
    </g>
    <g id="xtick_20">
     <g id="line2d_75">
      <path d="M 1235.17318 300.141818 
L 1235.17318 77.76 
" clip-path="url(#pbc96996e24)" style="fill: none; stroke: #b0b0b0; stroke-width: 0.8; stroke-linecap: square"/>
     </g>
     <g id="line2d_76">
      <g>
       <use xlink:href="#m29fefe43f0" x="1235.17318" y="300.141818" style="stroke: #000000; stroke-width: 0.8"/>
      </g>
     </g>
     <g id="text_40">
      <!-- 100 -->
      <g transform="translate(1225.62943 314.740256)scale(0.1 -0.1)">
       <use xlink:href="#DejaVuSans-31"/>
       <use xlink:href="#DejaVuSans-30" x="63.623047"/>
       <use xlink:href="#DejaVuSans-30" x="127.246094"/>
      </g>
     </g>
    </g>
    <g id="xtick_21">
     <g id="line2d_77">
      <path d="M 1281.080214 300.141818 
L 1281.080214 77.76 
" clip-path="url(#pbc96996e24)" style="fill: none; stroke: #b0b0b0; stroke-width: 0.8; stroke-linecap: square"/>
     </g>
     <g id="line2d_78">
      <g>
       <use xlink:href="#m29fefe43f0" x="1281.080214" y="300.141818" style="stroke: #000000; stroke-width: 0.8"/>
      </g>
     </g>
     <g id="text_41">
      <!-- 120 -->
      <g transform="translate(1271.536464 314.740256)scale(0.1 -0.1)">
       <use xlink:href="#DejaVuSans-31"/>
       <use xlink:href="#DejaVuSans-32" x="63.623047"/>
       <use xlink:href="#DejaVuSans-30" x="127.246094"/>
      </g>
     </g>
    </g>
   </g>
   <g id="matplotlib.axis_6">
    <g id="ytick_13">
     <g id="line2d_79">
      <path d="M 967.764706 291.905455 
L 1296 291.905455 
" clip-path="url(#pbc96996e24)" style="fill: none; stroke: #b0b0b0; stroke-width: 0.8; stroke-linecap: square"/>
     </g>
     <g id="line2d_80">
      <g>
       <use xlink:href="#ma1b66e2be6" x="967.764706" y="291.905455" style="stroke: #000000; stroke-width: 0.8"/>
      </g>
     </g>
     <g id="text_42">
      <!-- 0 -->
      <g transform="translate(954.402206 295.704673)scale(0.1 -0.1)">
       <use xlink:href="#DejaVuSans-30"/>
      </g>
     </g>
    </g>
    <g id="ytick_14">
     <g id="line2d_81">
      <path d="M 967.764706 250.723636 
L 1296 250.723636 
" clip-path="url(#pbc96996e24)" style="fill: none; stroke: #b0b0b0; stroke-width: 0.8; stroke-linecap: square"/>
     </g>
     <g id="line2d_82">
      <g>
       <use xlink:href="#ma1b66e2be6" x="967.764706" y="250.723636" style="stroke: #000000; stroke-width: 0.8"/>
      </g>
     </g>
     <g id="text_43">
      <!-- 10 -->
      <g transform="translate(948.039706 254.522855)scale(0.1 -0.1)">
       <use xlink:href="#DejaVuSans-31"/>
       <use xlink:href="#DejaVuSans-30" x="63.623047"/>
      </g>
     </g>
    </g>
    <g id="ytick_15">
     <g id="line2d_83">
      <path d="M 967.764706 209.541818 
L 1296 209.541818 
" clip-path="url(#pbc96996e24)" style="fill: none; stroke: #b0b0b0; stroke-width: 0.8; stroke-linecap: square"/>
     </g>
     <g id="line2d_84">
      <g>
       <use xlink:href="#ma1b66e2be6" x="967.764706" y="209.541818" style="stroke: #000000; stroke-width: 0.8"/>
      </g>
     </g>
     <g id="text_44">
      <!-- 20 -->
      <g transform="translate(948.039706 213.341037)scale(0.1 -0.1)">
       <use xlink:href="#DejaVuSans-32"/>
       <use xlink:href="#DejaVuSans-30" x="63.623047"/>
      </g>
     </g>
    </g>
    <g id="ytick_16">
     <g id="line2d_85">
      <path d="M 967.764706 168.36 
L 1296 168.36 
" clip-path="url(#pbc96996e24)" style="fill: none; stroke: #b0b0b0; stroke-width: 0.8; stroke-linecap: square"/>
     </g>
     <g id="line2d_86">
      <g>
       <use xlink:href="#ma1b66e2be6" x="967.764706" y="168.36" style="stroke: #000000; stroke-width: 0.8"/>
      </g>
     </g>
     <g id="text_45">
      <!-- 30 -->
      <g transform="translate(948.039706 172.159219)scale(0.1 -0.1)">
       <use xlink:href="#DejaVuSans-33"/>
       <use xlink:href="#DejaVuSans-30" x="63.623047"/>
      </g>
     </g>
    </g>
    <g id="ytick_17">
     <g id="line2d_87">
      <path d="M 967.764706 127.178182 
L 1296 127.178182 
" clip-path="url(#pbc96996e24)" style="fill: none; stroke: #b0b0b0; stroke-width: 0.8; stroke-linecap: square"/>
     </g>
     <g id="line2d_88">
      <g>
       <use xlink:href="#ma1b66e2be6" x="967.764706" y="127.178182" style="stroke: #000000; stroke-width: 0.8"/>
      </g>
     </g>
     <g id="text_46">
      <!-- 40 -->
      <g transform="translate(948.039706 130.977401)scale(0.1 -0.1)">
       <use xlink:href="#DejaVuSans-34"/>
       <use xlink:href="#DejaVuSans-30" x="63.623047"/>
      </g>
     </g>
    </g>
    <g id="ytick_18">
     <g id="line2d_89">
      <path d="M 967.764706 85.996364 
L 1296 85.996364 
" clip-path="url(#pbc96996e24)" style="fill: none; stroke: #b0b0b0; stroke-width: 0.8; stroke-linecap: square"/>
     </g>
     <g id="line2d_90">
      <g>
       <use xlink:href="#ma1b66e2be6" x="967.764706" y="85.996364" style="stroke: #000000; stroke-width: 0.8"/>
      </g>
     </g>
     <g id="text_47">
      <!-- 50 -->
      <g transform="translate(948.039706 89.795582)scale(0.1 -0.1)">
       <use xlink:href="#DejaVuSans-35"/>
       <use xlink:href="#DejaVuSans-30" x="63.623047"/>
      </g>
     </g>
    </g>
   </g>
   <g id="line2d_91">
    <path d="M 982.684492 188.950909 
L 1281.080214 188.950909 
" clip-path="url(#pbc96996e24)" style="fill: none; stroke-dasharray: 1.5,2.475; stroke-dashoffset: 0; stroke: #808080; stroke-width: 1.5"/>
   </g>
   <g id="line2d_92">
    <path d="M 1223.696421 333.087273 
L 1223.696421 3.632727 
" clip-path="url(#pbc96996e24)" style="fill: none; stroke-dasharray: 5.55,2.4; stroke-dashoffset: 0; stroke: #ff0000; stroke-opacity: 0.3; stroke-width: 1.5"/>
   </g>
   <g id="line2d_93">
    <path d="M 1024.71459 291.905455 
L 1026.560407 290.334135 
L 1028.406224 288.762815 
L 1030.25204 287.191496 
L 1032.097857 285.620176 
L 1033.943673 284.048856 
L 1035.78949 282.477537 
L 1037.635306 280.906217 
L 1039.481123 279.334897 
L 1041.326939 277.763578 
L 1043.172756 276.192258 
L 1045.018572 274.620938 
L 1046.864389 273.049619 
L 1048.710205 271.478299 
L 1050.556022 269.906979 
L 1052.401838 268.33566 
L 1054.247655 266.76434 
L 1056.093471 265.19302 
L 1057.939288 263.621701 
L 1059.785104 262.050381 
L 1061.630921 260.479061 
L 1063.476737 258.907742 
L 1065.322554 257.336422 
L 1067.16837 255.765102 
L 1069.014187 254.193783 
L 1070.860003 252.622463 
L 1072.70582 251.051143 
L 1074.551636 249.479824 
L 1076.397453 247.908504 
L 1078.24327 246.337184 
L 1080.089086 244.765865 
L 1081.934903 243.194545 
L 1083.780719 241.623225 
L 1085.626536 240.051905 
L 1087.472352 238.480586 
L 1089.318169 236.909266 
L 1091.163985 235.337946 
L 1093.009802 233.766627 
L 1094.855618 232.195307 
L 1096.701435 230.623987 
L 1098.547251 229.049182 
L 1100.393068 227.460143 
L 1102.238884 225.855722 
L 1104.084701 224.235462 
L 1105.930517 222.598886 
L 1107.776334 220.94549 
L 1109.62215 219.274746 
L 1111.467967 217.586094 
L 1113.313783 215.878947 
L 1115.1596 214.152683 
L 1117.005416 212.406645 
L 1118.851233 210.640139 
L 1120.697049 208.852425 
L 1122.542866 207.042723 
L 1124.388682 205.2102 
L 1126.234499 203.35397 
L 1128.080316 201.473089 
L 1129.926132 199.566547 
L 1131.771949 197.633265 
L 1133.617765 195.672086 
L 1135.463582 193.681765 
L 1137.309398 191.660963 
L 1139.155215 189.608236 
L 1141.001031 187.522021 
L 1142.846848 185.400623 
L 1144.692664 183.242201 
L 1146.538481 181.044744 
L 1148.384297 178.806056 
L 1150.230114 176.523724 
L 1152.07593 174.195093 
L 1153.921747 171.817223 
L 1155.767563 169.386854 
L 1157.61338 166.900346 
L 1159.459196 164.35362 
L 1161.305013 161.742076 
L 1163.150829 159.060498 
L 1164.996646 156.30293 
L 1166.842462 153.462519 
L 1168.688279 150.53132 
L 1170.534095 147.500447 
L 1172.379912 144.425242 
L 1174.225728 141.350038 
L 1176.071545 138.274834 
L 1177.917362 135.19963 
L 1179.763178 132.124426 
L 1181.608995 129.049222 
L 1183.454811 125.974018 
L 1185.300628 122.898813 
L 1187.146444 119.823609 
L 1188.992261 116.748405 
L 1190.838077 113.673201 
L 1192.683894 110.597997 
L 1194.52971 107.522793 
L 1196.375527 104.447589 
L 1198.221343 101.372384 
L 1200.06716 98.29718 
L 1201.912976 95.221976 
L 1203.758793 92.146772 
L 1205.604609 89.071568 
L 1207.450426 85.996364 
" clip-path="url(#pbc96996e24)" style="fill: none; stroke: #1f77b4; stroke-width: 1.5; stroke-linecap: square"/>
   </g>
   <g id="line2d_94">
    <path d="M 1028.227861 291.905455 
L 1030.003856 290.360942 
L 1031.779851 288.816429 
L 1033.555847 287.271916 
L 1035.331842 285.727403 
L 1037.107837 284.18289 
L 1038.883833 282.638377 
L 1040.659828 281.093864 
L 1042.435823 279.549351 
L 1044.211819 278.004838 
L 1045.987814 276.460325 
L 1047.763809 274.915812 
L 1049.539805 273.371299 
L 1051.3158 271.826786 
L 1053.091795 270.282273 
L 1054.86779 268.73776 
L 1056.643786 267.193247 
L 1058.419781 265.648734 
L 1060.195776 264.104221 
L 1061.971772 262.559708 
L 1063.747767 261.015195 
L 1065.523762 259.470682 
L 1067.299758 257.926169 
L 1069.075753 256.381656 
L 1070.851748 254.837143 
L 1072.627743 253.29263 
L 1074.403739 251.748117 
L 1076.179734 250.203604 
L 1077.955729 248.659091 
L 1079.731725 247.114578 
L 1081.50772 245.570065 
L 1083.283715 244.025552 
L 1085.059711 242.481039 
L 1086.835706 240.936526 
L 1088.611701 239.392013 
L 1090.387697 237.8475 
L 1092.163692 236.302987 
L 1093.939687 234.758474 
L 1095.715682 233.213961 
L 1097.491678 231.669448 
L 1099.267673 230.124935 
L 1101.043668 228.572818 
L 1102.819664 227.005343 
L 1104.595659 225.422046 
L 1106.371654 223.822437 
L 1108.14765 222.206002 
L 1109.923645 220.572199 
L 1111.69964 218.920454 
L 1113.475636 217.250165 
L 1115.251631 215.560691 
L 1117.027626 213.851357 
L 1118.803621 212.121444 
L 1120.579617 210.370192 
L 1122.355612 208.59679 
L 1124.131607 206.800376 
L 1125.907603 204.98003 
L 1127.683598 203.134771 
L 1129.459593 201.263545 
L 1131.235589 199.365225 
L 1133.011584 197.438598 
L 1134.787579 195.48236 
L 1136.563574 193.495101 
L 1138.33957 191.475297 
L 1140.115565 189.421295 
L 1141.89156 187.331297 
L 1143.667556 185.203341 
L 1145.443551 183.03528 
L 1147.219546 180.824758 
L 1148.995542 178.569178 
L 1150.771537 176.265667 
L 1152.547532 173.911033 
L 1154.323528 171.501712 
L 1156.099523 169.033708 
L 1157.875518 166.502511 
L 1159.651513 163.903005 
L 1161.427509 161.229339 
L 1163.203504 158.474781 
L 1164.979499 155.631511 
L 1166.755495 152.690363 
L 1168.53149 149.640473 
L 1170.307485 146.479698 
L 1172.083481 143.296365 
L 1173.859476 140.113031 
L 1175.635471 136.929698 
L 1177.411466 133.746364 
L 1179.187462 130.563031 
L 1180.963457 127.379698 
L 1182.739452 124.196364 
L 1184.515448 121.013031 
L 1186.291443 117.829698 
L 1188.067438 114.646364 
L 1189.843434 111.463031 
L 1191.619429 108.279697 
L 1193.395424 105.096364 
L 1195.17142 101.913031 
L 1196.947415 98.729697 
L 1198.72341 95.546364 
L 1200.499405 92.36303 
L 1202.275401 89.179697 
L 1204.051396 85.996364 
" clip-path="url(#pbc96996e24)" style="fill: none; stroke-dasharray: 5.55,2.4; stroke-dashoffset: 0; stroke: #ff7f0e; stroke-width: 1.5"/>
   </g>
   <g id="patch_15">
    <path d="M 967.764706 300.141818 
L 967.764706 77.76 
" style="fill: none; stroke: #000000; stroke-width: 0.8; stroke-linejoin: miter; stroke-linecap: square"/>
   </g>
   <g id="patch_16">
    <path d="M 1296 300.141818 
L 1296 77.76 
" style="fill: none; stroke: #000000; stroke-width: 0.8; stroke-linejoin: miter; stroke-linecap: square"/>
   </g>
   <g id="patch_17">
    <path d="M 967.764706 300.141818 
L 1296 300.141818 
" style="fill: none; stroke: #000000; stroke-width: 0.8; stroke-linejoin: miter; stroke-linecap: square"/>
   </g>
   <g id="patch_18">
    <path d="M 967.764706 77.76 
L 1296 77.76 
" style="fill: none; stroke: #000000; stroke-width: 0.8; stroke-linejoin: miter; stroke-linecap: square"/>
   </g>
   <g id="text_48">
    <!--  Block: 2 -->
    <g transform="translate(1106.001728 71.76)scale(0.12 -0.12)">
     <use xlink:href="#DejaVuSans-20"/>
     <use xlink:href="#DejaVuSans-42" x="31.787109"/>
     <use xlink:href="#DejaVuSans-6c" x="100.390625"/>
     <use xlink:href="#DejaVuSans-6f" x="128.173828"/>
     <use xlink:href="#DejaVuSans-63" x="189.355469"/>
     <use xlink:href="#DejaVuSans-6b" x="244.335938"/>
     <use xlink:href="#DejaVuSans-3a" x="302.246094"/>
     <use xlink:href="#DejaVuSans-20" x="335.9375"/>
     <use xlink:href="#DejaVuSans-32" x="367.724609"/>
    </g>
   </g>
   <g id="legend_3">
    <g id="patch_19">
     <path d="M 974.764706 130.0725 
L 1105.964706 130.0725 
Q 1107.964706 130.0725 1107.964706 128.0725 
L 1107.964706 84.76 
Q 1107.964706 82.76 1105.964706 82.76 
L 974.764706 82.76 
Q 972.764706 82.76 972.764706 84.76 
L 972.764706 128.0725 
Q 972.764706 130.0725 974.764706 130.0725 
z
" style="fill: #ffffff; opacity: 0.8; stroke: #cccccc; stroke-linejoin: miter"/>
    </g>
    <g id="PathCollection_6">
     <g>
      <use xlink:href="#me9d301ade5" x="986.764706" y="91.733438" style="stroke: #000000"/>
     </g>
    </g>
    <g id="text_49">
     <!-- Data -->
     <g transform="translate(1004.764706 94.358438)scale(0.1 -0.1)">
      <use xlink:href="#DejaVuSans-44"/>
      <use xlink:href="#DejaVuSans-61" x="77.001953"/>
      <use xlink:href="#DejaVuSans-74" x="138.28125"/>
      <use xlink:href="#DejaVuSans-61" x="177.490234"/>
     </g>
    </g>
    <g id="line2d_95">
     <path d="M 976.764706 105.536563 
L 986.764706 105.536563 
L 996.764706 105.536563 
" style="fill: none; stroke: #1f77b4; stroke-width: 1.5; stroke-linecap: square"/>
    </g>
    <g id="text_50">
     <!-- Artc e:0.1245 -->
     <g transform="translate(1004.764706 109.036563)scale(0.1 -0.1)">
      <use xlink:href="#DejaVuSans-41"/>
      <use xlink:href="#DejaVuSans-72" x="68.408203"/>
      <use xlink:href="#DejaVuSans-74" x="109.521484"/>
      <use xlink:href="#DejaVuSans-63" x="148.730469"/>
      <use xlink:href="#DejaVuSans-20" x="203.710938"/>
      <use xlink:href="#DejaVuSans-65" x="235.498047"/>
      <use xlink:href="#DejaVuSans-3a" x="297.021484"/>
      <use xlink:href="#DejaVuSans-30" x="330.712891"/>
      <use xlink:href="#DejaVuSans-2e" x="394.335938"/>
      <use xlink:href="#DejaVuSans-31" x="426.123047"/>
      <use xlink:href="#DejaVuSans-32" x="489.746094"/>
      <use xlink:href="#DejaVuSans-34" x="553.369141"/>
      <use xlink:href="#DejaVuSans-35" x="616.992188"/>
     </g>
    </g>
    <g id="line2d_96">
     <path d="M 976.764706 120.214688 
L 986.764706 120.214688 
L 996.764706 120.214688 
" style="fill: none; stroke-dasharray: 5.55,2.4; stroke-dashoffset: 0; stroke: #ff7f0e; stroke-width: 1.5"/>
    </g>
    <g id="text_51">
     <!-- NEL_BTUX e:0.1321 -->
     <g transform="translate(1004.764706 123.714688)scale(0.1 -0.1)">
      <use xlink:href="#DejaVuSans-4e"/>
      <use xlink:href="#DejaVuSans-45" x="74.804688"/>
      <use xlink:href="#DejaVuSans-4c" x="137.988281"/>
      <use xlink:href="#DejaVuSans-5f" x="193.701172"/>
      <use xlink:href="#DejaVuSans-42" x="243.701172"/>
      <use xlink:href="#DejaVuSans-54" x="312.304688"/>
      <use xlink:href="#DejaVuSans-55" x="373.388672"/>
      <use xlink:href="#DejaVuSans-58" x="446.582031"/>
      <use xlink:href="#DejaVuSans-20" x="515.087891"/>
      <use xlink:href="#DejaVuSans-65" x="546.875"/>
      <use xlink:href="#DejaVuSans-3a" x="608.398438"/>
      <use xlink:href="#DejaVuSans-30" x="642.089844"/>
      <use xlink:href="#DejaVuSans-2e" x="705.712891"/>
      <use xlink:href="#DejaVuSans-31" x="737.5"/>
      <use xlink:href="#DejaVuSans-33" x="801.123047"/>
      <use xlink:href="#DejaVuSans-32" x="864.746094"/>
      <use xlink:href="#DejaVuSans-31" x="928.369141"/>
     </g>
    </g>
   </g>
  </g>
  <g id="axes_4">
   <g id="patch_20">
    <path d="M 180 567 
L 508.235294 567 
L 508.235294 344.618182 
L 180 344.618182 
z
" style="fill: #ffffff"/>
   </g>
   <g id="PathCollection_7">
    <g clip-path="url(#pf6b7ad62c4)">
     <use xlink:href="#me9d301ade5" x="390.024681" y="373.445455" style="stroke: #000000"/>
     <use xlink:href="#me9d301ade5" x="412.978198" y="352.854545" style="stroke: #000000"/>
     <use xlink:href="#me9d301ade5" x="355.594406" y="455.809091" style="stroke: #000000"/>
     <use xlink:href="#me9d301ade5" x="321.16413" y="496.990909" style="stroke: #000000"/>
     <use xlink:href="#me9d301ade5" x="286.733854" y="517.581818" style="stroke: #000000"/>
     <use xlink:href="#me9d301ade5" x="252.303579" y="538.172727" style="stroke: #000000"/>
     <use xlink:href="#me9d301ade5" x="217.873303" y="558.763636" style="stroke: #000000"/>
     <use xlink:href="#me9d301ade5" x="229.350062" y="558.763636" style="stroke: #000000"/>
     <use xlink:href="#me9d301ade5" x="240.82682" y="538.172727" style="stroke: #000000"/>
     <use xlink:href="#me9d301ade5" x="305.738448" y="517.581818" style="stroke: #000000"/>
     <use xlink:href="#me9d301ade5" x="370.650077" y="435.218182" style="stroke: #000000"/>
     <use xlink:href="#me9d301ade5" x="338.194262" y="455.809091" style="stroke: #000000"/>
     <use xlink:href="#me9d301ade5" x="240.826637" y="538.172727" style="stroke: #000000"/>
     <use xlink:href="#me9d301ade5" x="273.282405" y="517.581818" style="stroke: #000000"/>
     <use xlink:href="#me9d301ade5" x="376.319595" y="414.627273" style="stroke: #000000"/>
     <use xlink:href="#me9d301ade5" x="417.379765" y="352.854545" style="stroke: #000000"/>
     <use xlink:href="#me9d301ade5" x="335.259655" y="455.809091" style="stroke: #000000"/>
     <use xlink:href="#me9d301ade5" x="253.139546" y="558.763636" style="stroke: #000000"/>
     <use xlink:href="#me9d301ade5" x="294.199486" y="517.581818" style="stroke: #000000"/>
    </g>
   </g>
   <g id="matplotlib.axis_7">
    <g id="xtick_22">
     <g id="line2d_97">
      <path d="M 217.873303 567 
L 217.873303 344.618182 
" clip-path="url(#pf6b7ad62c4)" style="fill: none; stroke: #b0b0b0; stroke-width: 0.8; stroke-linecap: square"/>
     </g>
     <g id="line2d_98">
      <g>
       <use xlink:href="#m29fefe43f0" x="217.873303" y="567" style="stroke: #000000; stroke-width: 0.8"/>
      </g>
     </g>
     <g id="text_52">
      <!-- 0 -->
      <g transform="translate(214.692053 581.598437)scale(0.1 -0.1)">
       <use xlink:href="#DejaVuSans-30"/>
      </g>
     </g>
    </g>
    <g id="xtick_23">
     <g id="line2d_99">
      <path d="M 263.780337 567 
L 263.780337 344.618182 
" clip-path="url(#pf6b7ad62c4)" style="fill: none; stroke: #b0b0b0; stroke-width: 0.8; stroke-linecap: square"/>
     </g>
     <g id="line2d_100">
      <g>
       <use xlink:href="#m29fefe43f0" x="263.780337" y="567" style="stroke: #000000; stroke-width: 0.8"/>
      </g>
     </g>
     <g id="text_53">
      <!-- 20 -->
      <g transform="translate(257.417837 581.598437)scale(0.1 -0.1)">
       <use xlink:href="#DejaVuSans-32"/>
       <use xlink:href="#DejaVuSans-30" x="63.623047"/>
      </g>
     </g>
    </g>
    <g id="xtick_24">
     <g id="line2d_101">
      <path d="M 309.687371 567 
L 309.687371 344.618182 
" clip-path="url(#pf6b7ad62c4)" style="fill: none; stroke: #b0b0b0; stroke-width: 0.8; stroke-linecap: square"/>
     </g>
     <g id="line2d_102">
      <g>
       <use xlink:href="#m29fefe43f0" x="309.687371" y="567" style="stroke: #000000; stroke-width: 0.8"/>
      </g>
     </g>
     <g id="text_54">
      <!-- 40 -->
      <g transform="translate(303.324871 581.598437)scale(0.1 -0.1)">
       <use xlink:href="#DejaVuSans-34"/>
       <use xlink:href="#DejaVuSans-30" x="63.623047"/>
      </g>
     </g>
    </g>
    <g id="xtick_25">
     <g id="line2d_103">
      <path d="M 355.594406 567 
L 355.594406 344.618182 
" clip-path="url(#pf6b7ad62c4)" style="fill: none; stroke: #b0b0b0; stroke-width: 0.8; stroke-linecap: square"/>
     </g>
     <g id="line2d_104">
      <g>
       <use xlink:href="#m29fefe43f0" x="355.594406" y="567" style="stroke: #000000; stroke-width: 0.8"/>
      </g>
     </g>
     <g id="text_55">
      <!-- 60 -->
      <g transform="translate(349.231906 581.598437)scale(0.1 -0.1)">
       <use xlink:href="#DejaVuSans-36"/>
       <use xlink:href="#DejaVuSans-30" x="63.623047"/>
      </g>
     </g>
    </g>
    <g id="xtick_26">
     <g id="line2d_105">
      <path d="M 401.50144 567 
L 401.50144 344.618182 
" clip-path="url(#pf6b7ad62c4)" style="fill: none; stroke: #b0b0b0; stroke-width: 0.8; stroke-linecap: square"/>
     </g>
     <g id="line2d_106">
      <g>
       <use xlink:href="#m29fefe43f0" x="401.50144" y="567" style="stroke: #000000; stroke-width: 0.8"/>
      </g>
     </g>
     <g id="text_56">
      <!-- 80 -->
      <g transform="translate(395.13894 581.598437)scale(0.1 -0.1)">
       <use xlink:href="#DejaVuSans-38"/>
       <use xlink:href="#DejaVuSans-30" x="63.623047"/>
      </g>
     </g>
    </g>
    <g id="xtick_27">
     <g id="line2d_107">
      <path d="M 447.408474 567 
L 447.408474 344.618182 
" clip-path="url(#pf6b7ad62c4)" style="fill: none; stroke: #b0b0b0; stroke-width: 0.8; stroke-linecap: square"/>
     </g>
     <g id="line2d_108">
      <g>
       <use xlink:href="#m29fefe43f0" x="447.408474" y="567" style="stroke: #000000; stroke-width: 0.8"/>
      </g>
     </g>
     <g id="text_57">
      <!-- 100 -->
      <g transform="translate(437.864724 581.598437)scale(0.1 -0.1)">
       <use xlink:href="#DejaVuSans-31"/>
       <use xlink:href="#DejaVuSans-30" x="63.623047"/>
       <use xlink:href="#DejaVuSans-30" x="127.246094"/>
      </g>
     </g>
    </g>
    <g id="xtick_28">
     <g id="line2d_109">
      <path d="M 493.315508 567 
L 493.315508 344.618182 
" clip-path="url(#pf6b7ad62c4)" style="fill: none; stroke: #b0b0b0; stroke-width: 0.8; stroke-linecap: square"/>
     </g>
     <g id="line2d_110">
      <g>
       <use xlink:href="#m29fefe43f0" x="493.315508" y="567" style="stroke: #000000; stroke-width: 0.8"/>
      </g>
     </g>
     <g id="text_58">
      <!-- 120 -->
      <g transform="translate(483.771758 581.598437)scale(0.1 -0.1)">
       <use xlink:href="#DejaVuSans-31"/>
       <use xlink:href="#DejaVuSans-32" x="63.623047"/>
       <use xlink:href="#DejaVuSans-30" x="127.246094"/>
      </g>
     </g>
    </g>
   </g>
   <g id="matplotlib.axis_8">
    <g id="ytick_19">
     <g id="line2d_111">
      <path d="M 180 558.763636 
L 508.235294 558.763636 
" clip-path="url(#pf6b7ad62c4)" style="fill: none; stroke: #b0b0b0; stroke-width: 0.8; stroke-linecap: square"/>
     </g>
     <g id="line2d_112">
      <g>
       <use xlink:href="#ma1b66e2be6" x="180" y="558.763636" style="stroke: #000000; stroke-width: 0.8"/>
      </g>
     </g>
     <g id="text_59">
      <!-- 0 -->
      <g transform="translate(166.6375 562.562855)scale(0.1 -0.1)">
       <use xlink:href="#DejaVuSans-30"/>
      </g>
     </g>
    </g>
    <g id="ytick_20">
     <g id="line2d_113">
      <path d="M 180 517.581818 
L 508.235294 517.581818 
" clip-path="url(#pf6b7ad62c4)" style="fill: none; stroke: #b0b0b0; stroke-width: 0.8; stroke-linecap: square"/>
     </g>
     <g id="line2d_114">
      <g>
       <use xlink:href="#ma1b66e2be6" x="180" y="517.581818" style="stroke: #000000; stroke-width: 0.8"/>
      </g>
     </g>
     <g id="text_60">
      <!-- 10 -->
      <g transform="translate(160.275 521.381037)scale(0.1 -0.1)">
       <use xlink:href="#DejaVuSans-31"/>
       <use xlink:href="#DejaVuSans-30" x="63.623047"/>
      </g>
     </g>
    </g>
    <g id="ytick_21">
     <g id="line2d_115">
      <path d="M 180 476.4 
L 508.235294 476.4 
" clip-path="url(#pf6b7ad62c4)" style="fill: none; stroke: #b0b0b0; stroke-width: 0.8; stroke-linecap: square"/>
     </g>
     <g id="line2d_116">
      <g>
       <use xlink:href="#ma1b66e2be6" x="180" y="476.4" style="stroke: #000000; stroke-width: 0.8"/>
      </g>
     </g>
     <g id="text_61">
      <!-- 20 -->
      <g transform="translate(160.275 480.199219)scale(0.1 -0.1)">
       <use xlink:href="#DejaVuSans-32"/>
       <use xlink:href="#DejaVuSans-30" x="63.623047"/>
      </g>
     </g>
    </g>
    <g id="ytick_22">
     <g id="line2d_117">
      <path d="M 180 435.218182 
L 508.235294 435.218182 
" clip-path="url(#pf6b7ad62c4)" style="fill: none; stroke: #b0b0b0; stroke-width: 0.8; stroke-linecap: square"/>
     </g>
     <g id="line2d_118">
      <g>
       <use xlink:href="#ma1b66e2be6" x="180" y="435.218182" style="stroke: #000000; stroke-width: 0.8"/>
      </g>
     </g>
     <g id="text_62">
      <!-- 30 -->
      <g transform="translate(160.275 439.017401)scale(0.1 -0.1)">
       <use xlink:href="#DejaVuSans-33"/>
       <use xlink:href="#DejaVuSans-30" x="63.623047"/>
      </g>
     </g>
    </g>
    <g id="ytick_23">
     <g id="line2d_119">
      <path d="M 180 394.036364 
L 508.235294 394.036364 
" clip-path="url(#pf6b7ad62c4)" style="fill: none; stroke: #b0b0b0; stroke-width: 0.8; stroke-linecap: square"/>
     </g>
     <g id="line2d_120">
      <g>
       <use xlink:href="#ma1b66e2be6" x="180" y="394.036364" style="stroke: #000000; stroke-width: 0.8"/>
      </g>
     </g>
     <g id="text_63">
      <!-- 40 -->
      <g transform="translate(160.275 397.835582)scale(0.1 -0.1)">
       <use xlink:href="#DejaVuSans-34"/>
       <use xlink:href="#DejaVuSans-30" x="63.623047"/>
      </g>
     </g>
    </g>
    <g id="ytick_24">
     <g id="line2d_121">
      <path d="M 180 352.854545 
L 508.235294 352.854545 
" clip-path="url(#pf6b7ad62c4)" style="fill: none; stroke: #b0b0b0; stroke-width: 0.8; stroke-linecap: square"/>
     </g>
     <g id="line2d_122">
      <g>
       <use xlink:href="#ma1b66e2be6" x="180" y="352.854545" style="stroke: #000000; stroke-width: 0.8"/>
      </g>
     </g>
     <g id="text_64">
      <!-- 50 -->
      <g transform="translate(160.275 356.653764)scale(0.1 -0.1)">
       <use xlink:href="#DejaVuSans-35"/>
       <use xlink:href="#DejaVuSans-30" x="63.623047"/>
      </g>
     </g>
    </g>
   </g>
   <g id="line2d_123">
    <path d="M 194.919786 455.809091 
L 493.315508 455.809091 
" clip-path="url(#pf6b7ad62c4)" style="fill: none; stroke-dasharray: 1.5,2.475; stroke-dashoffset: 0; stroke: #808080; stroke-width: 1.5"/>
   </g>
   <g id="line2d_124">
    <path d="M 435.931715 599.945455 
L 435.931715 270.490909 
" clip-path="url(#pf6b7ad62c4)" style="fill: none; stroke-dasharray: 5.55,2.4; stroke-dashoffset: 0; stroke: #ff0000; stroke-opacity: 0.3; stroke-width: 1.5"/>
   </g>
   <g id="line2d_125">
    <path d="M 227.839827 558.763636 
L 229.547981 557.464122 
L 231.256135 556.164608 
L 232.964289 554.865095 
L 234.672444 553.565581 
L 236.380598 552.266067 
L 238.088752 550.966553 
L 239.796906 549.667039 
L 241.50506 548.367525 
L 243.213214 547.068011 
L 244.921368 545.768497 
L 246.629523 544.468983 
L 248.337677 543.169469 
L 250.045831 541.869955 
L 251.753985 540.570441 
L 253.462139 539.270927 
L 255.170293 537.971413 
L 256.878448 536.671899 
L 258.586602 535.372385 
L 260.294756 534.072871 
L 262.00291 532.773357 
L 263.711064 531.473843 
L 265.419218 530.174329 
L 267.127372 528.874815 
L 268.835527 527.575302 
L 270.543681 526.275788 
L 272.251835 524.976274 
L 273.959989 523.67676 
L 275.668143 522.377246 
L 277.376297 521.077732 
L 279.084452 519.778218 
L 280.792606 518.478704 
L 282.50076 517.17919 
L 284.208914 515.879676 
L 285.917068 514.580162 
L 287.625222 513.280648 
L 289.333376 511.981134 
L 291.041531 510.68162 
L 292.749685 509.382106 
L 294.457839 508.082592 
L 296.165993 506.783078 
L 297.874147 505.483564 
L 299.582301 504.18405 
L 301.290456 502.884536 
L 302.99861 501.585022 
L 304.706764 500.285509 
L 306.414918 498.985995 
L 308.123072 497.686481 
L 309.831226 496.385296 
L 311.53938 495.070655 
L 313.247535 493.739789 
L 314.955689 492.392081 
L 316.663843 491.026876 
L 318.371997 489.643474 
L 320.080151 488.241126 
L 321.788305 486.819034 
L 323.49646 485.376337 
L 325.204614 483.912115 
L 326.912768 482.425374 
L 328.620922 480.915041 
L 330.329076 479.379957 
L 332.03723 477.818863 
L 333.745385 476.230391 
L 335.453539 474.613048 
L 337.161693 472.9652 
L 338.869847 471.285051 
L 340.578001 469.570627 
L 342.286155 467.819738 
L 343.994309 466.029954 
L 345.702464 464.198562 
L 347.410618 462.322518 
L 349.118772 460.398387 
L 350.826926 458.422269 
L 352.53508 456.38971 
L 354.243234 454.295576 
L 355.951389 452.133909 
L 357.659543 449.897719 
L 359.367697 447.578723 
L 361.075851 445.166979 
L 362.784005 442.650379 
L 364.492159 440.013927 
L 366.200313 437.238669 
L 367.908468 434.300061 
L 369.616622 431.165336 
L 371.324776 427.789044 
L 373.03293 424.104891 
L 374.741084 420.00923 
L 376.449238 415.322642 
L 378.157393 410.125056 
L 379.865547 404.918646 
L 381.573701 399.712236 
L 383.281855 394.505826 
L 384.990009 389.299416 
L 386.698163 384.093006 
L 388.406317 378.886596 
L 390.114472 373.680186 
L 391.822626 368.473776 
L 393.53078 363.267366 
L 395.238934 358.060956 
L 396.947088 352.854545 
" clip-path="url(#pf6b7ad62c4)" style="fill: none; stroke: #1f77b4; stroke-width: 1.5; stroke-linecap: square"/>
   </g>
   <g id="line2d_126">
    <path d="M 220.665451 558.763636 
L 222.450533 557.451048 
L 224.235614 556.138459 
L 226.020696 554.825871 
L 227.805778 553.513282 
L 229.590859 552.200694 
L 231.375941 550.888105 
L 233.161022 549.575517 
L 234.946104 548.262928 
L 236.731186 546.95034 
L 238.516267 545.637751 
L 240.301349 544.325163 
L 242.086431 543.012574 
L 243.871512 541.699986 
L 245.656594 540.387397 
L 247.441675 539.074809 
L 249.226757 537.76222 
L 251.011839 536.449632 
L 252.79692 535.137043 
L 254.582002 533.824455 
L 256.367084 532.511866 
L 258.152165 531.199278 
L 259.937247 529.886689 
L 261.722328 528.574101 
L 263.50741 527.261512 
L 265.292492 525.948924 
L 267.077573 524.636335 
L 268.862655 523.323747 
L 270.647737 522.011158 
L 272.432818 520.69857 
L 274.2179 519.385981 
L 276.002982 518.073393 
L 277.788063 516.760804 
L 279.573145 515.448216 
L 281.358226 514.135627 
L 283.143308 512.823039 
L 284.92839 511.51045 
L 286.713471 510.197862 
L 288.498553 508.885273 
L 290.283635 507.572685 
L 292.068716 506.260096 
L 293.853798 504.947508 
L 295.638879 503.634919 
L 297.423961 502.322331 
L 299.209043 501.009742 
L 300.994124 499.697154 
L 302.779206 498.384565 
L 304.564288 497.071977 
L 306.349369 495.752519 
L 308.134451 494.417128 
L 309.919533 493.065182 
L 311.704614 491.696049 
L 313.489696 490.309055 
L 315.274777 488.903484 
L 317.059859 487.478568 
L 318.844941 486.033486 
L 320.630022 484.567356 
L 322.415104 483.079231 
L 324.200186 481.568091 
L 325.985267 480.032833 
L 327.770349 478.472265 
L 329.55543 476.885091 
L 331.340512 475.269903 
L 333.125594 473.625163 
L 334.910675 471.949187 
L 336.695757 470.240124 
L 338.480839 468.495934 
L 340.26592 466.714358 
L 342.051002 464.892883 
L 343.836084 463.028702 
L 345.621165 461.118663 
L 347.406247 459.159205 
L 349.191328 457.146281 
L 350.97641 455.07526 
L 352.761492 452.9408 
L 354.546573 450.73669 
L 356.331655 448.455629 
L 358.116737 446.088948 
L 359.901818 443.626212 
L 361.6869 441.054682 
L 363.471981 438.358524 
L 365.257063 435.517642 
L 367.042145 432.505882 
L 368.827226 429.28811 
L 370.612308 425.815196 
L 372.39739 422.014688 
L 374.182471 417.771547 
L 375.967553 412.933845 
L 377.752635 407.927237 
L 379.537716 402.920629 
L 381.322798 397.91402 
L 383.107879 392.907412 
L 384.892961 387.900804 
L 386.678043 382.894195 
L 388.463124 377.887587 
L 390.248206 372.880979 
L 392.033288 367.87437 
L 393.818369 362.867762 
L 395.603451 357.861154 
L 397.388532 352.854545 
" clip-path="url(#pf6b7ad62c4)" style="fill: none; stroke-dasharray: 5.55,2.4; stroke-dashoffset: 0; stroke: #ff7f0e; stroke-width: 1.5"/>
   </g>
   <g id="patch_21">
    <path d="M 180 567 
L 180 344.618182 
" style="fill: none; stroke: #000000; stroke-width: 0.8; stroke-linejoin: miter; stroke-linecap: square"/>
   </g>
   <g id="patch_22">
    <path d="M 508.235294 567 
L 508.235294 344.618182 
" style="fill: none; stroke: #000000; stroke-width: 0.8; stroke-linejoin: miter; stroke-linecap: square"/>
   </g>
   <g id="patch_23">
    <path d="M 180 567 
L 508.235294 567 
" style="fill: none; stroke: #000000; stroke-width: 0.8; stroke-linejoin: miter; stroke-linecap: square"/>
   </g>
   <g id="patch_24">
    <path d="M 180 344.618182 
L 508.235294 344.618182 
" style="fill: none; stroke: #000000; stroke-width: 0.8; stroke-linejoin: miter; stroke-linecap: square"/>
   </g>
   <g id="text_65">
    <!--  Block: 3 -->
    <g transform="translate(318.237022 338.618182)scale(0.12 -0.12)">
     <use xlink:href="#DejaVuSans-20"/>
     <use xlink:href="#DejaVuSans-42" x="31.787109"/>
     <use xlink:href="#DejaVuSans-6c" x="100.390625"/>
     <use xlink:href="#DejaVuSans-6f" x="128.173828"/>
     <use xlink:href="#DejaVuSans-63" x="189.355469"/>
     <use xlink:href="#DejaVuSans-6b" x="244.335938"/>
     <use xlink:href="#DejaVuSans-3a" x="302.246094"/>
     <use xlink:href="#DejaVuSans-20" x="335.9375"/>
     <use xlink:href="#DejaVuSans-33" x="367.724609"/>
    </g>
   </g>
   <g id="legend_4">
    <g id="patch_25">
     <path d="M 187 396.930682 
L 318.2 396.930682 
Q 320.2 396.930682 320.2 394.930682 
L 320.2 351.618182 
Q 320.2 349.618182 318.2 349.618182 
L 187 349.618182 
Q 185 349.618182 185 351.618182 
L 185 394.930682 
Q 185 396.930682 187 396.930682 
z
" style="fill: #ffffff; opacity: 0.8; stroke: #cccccc; stroke-linejoin: miter"/>
    </g>
    <g id="PathCollection_8">
     <g>
      <use xlink:href="#me9d301ade5" x="199" y="358.591619" style="stroke: #000000"/>
     </g>
    </g>
    <g id="text_66">
     <!-- Data -->
     <g transform="translate(217 361.216619)scale(0.1 -0.1)">
      <use xlink:href="#DejaVuSans-44"/>
      <use xlink:href="#DejaVuSans-61" x="77.001953"/>
      <use xlink:href="#DejaVuSans-74" x="138.28125"/>
      <use xlink:href="#DejaVuSans-61" x="177.490234"/>
     </g>
    </g>
    <g id="line2d_127">
     <path d="M 189 372.394744 
L 199 372.394744 
L 209 372.394744 
" style="fill: none; stroke: #1f77b4; stroke-width: 1.5; stroke-linecap: square"/>
    </g>
    <g id="text_67">
     <!-- Artc e:0.2649 -->
     <g transform="translate(217 375.894744)scale(0.1 -0.1)">
      <use xlink:href="#DejaVuSans-41"/>
      <use xlink:href="#DejaVuSans-72" x="68.408203"/>
      <use xlink:href="#DejaVuSans-74" x="109.521484"/>
      <use xlink:href="#DejaVuSans-63" x="148.730469"/>
      <use xlink:href="#DejaVuSans-20" x="203.710938"/>
      <use xlink:href="#DejaVuSans-65" x="235.498047"/>
      <use xlink:href="#DejaVuSans-3a" x="297.021484"/>
      <use xlink:href="#DejaVuSans-30" x="330.712891"/>
      <use xlink:href="#DejaVuSans-2e" x="394.335938"/>
      <use xlink:href="#DejaVuSans-32" x="426.123047"/>
      <use xlink:href="#DejaVuSans-36" x="489.746094"/>
      <use xlink:href="#DejaVuSans-34" x="553.369141"/>
      <use xlink:href="#DejaVuSans-39" x="616.992188"/>
     </g>
    </g>
    <g id="line2d_128">
     <path d="M 189 387.072869 
L 199 387.072869 
L 209 387.072869 
" style="fill: none; stroke-dasharray: 5.55,2.4; stroke-dashoffset: 0; stroke: #ff7f0e; stroke-width: 1.5"/>
    </g>
    <g id="text_68">
     <!-- NEL_BTUX e:0.2479 -->
     <g transform="translate(217 390.572869)scale(0.1 -0.1)">
      <use xlink:href="#DejaVuSans-4e"/>
      <use xlink:href="#DejaVuSans-45" x="74.804688"/>
      <use xlink:href="#DejaVuSans-4c" x="137.988281"/>
      <use xlink:href="#DejaVuSans-5f" x="193.701172"/>
      <use xlink:href="#DejaVuSans-42" x="243.701172"/>
      <use xlink:href="#DejaVuSans-54" x="312.304688"/>
      <use xlink:href="#DejaVuSans-55" x="373.388672"/>
      <use xlink:href="#DejaVuSans-58" x="446.582031"/>
      <use xlink:href="#DejaVuSans-20" x="515.087891"/>
      <use xlink:href="#DejaVuSans-65" x="546.875"/>
      <use xlink:href="#DejaVuSans-3a" x="608.398438"/>
      <use xlink:href="#DejaVuSans-30" x="642.089844"/>
      <use xlink:href="#DejaVuSans-2e" x="705.712891"/>
      <use xlink:href="#DejaVuSans-32" x="737.5"/>
      <use xlink:href="#DejaVuSans-34" x="801.123047"/>
      <use xlink:href="#DejaVuSans-37" x="864.746094"/>
      <use xlink:href="#DejaVuSans-39" x="928.369141"/>
     </g>
    </g>
   </g>
  </g>
  <g id="axes_5"/>
  <g id="axes_6"/>
  <g id="text_69">
   <!-- ID: 6915, Max level: 95dB -->
   <g transform="translate(655.440625 20.558438)scale(0.1 -0.1)">
    <defs>
     <path id="DejaVuSans-49" d="M 628 4666 
L 1259 4666 
L 1259 0 
L 628 0 
L 628 4666 
z
" transform="scale(0.015625)"/>
     <path id="DejaVuSans-2c" d="M 750 794 
L 1409 794 
L 1409 256 
L 897 -744 
L 494 -744 
L 750 256 
L 750 794 
z
" transform="scale(0.015625)"/>
     <path id="DejaVuSans-4d" d="M 628 4666 
L 1569 4666 
L 2759 1491 
L 3956 4666 
L 4897 4666 
L 4897 0 
L 4281 0 
L 4281 4097 
L 3078 897 
L 2444 897 
L 1241 4097 
L 1241 0 
L 628 0 
L 628 4666 
z
" transform="scale(0.015625)"/>
     <path id="DejaVuSans-78" d="M 3513 3500 
L 2247 1797 
L 3578 0 
L 2900 0 
L 1881 1375 
L 863 0 
L 184 0 
L 1544 1831 
L 300 3500 
L 978 3500 
L 1906 2253 
L 2834 3500 
L 3513 3500 
z
" transform="scale(0.015625)"/>
     <path id="DejaVuSans-76" d="M 191 3500 
L 800 3500 
L 1894 563 
L 2988 3500 
L 3597 3500 
L 2284 0 
L 1503 0 
L 191 3500 
z
" transform="scale(0.015625)"/>
     <path id="DejaVuSans-64" d="M 2906 2969 
L 2906 4863 
L 3481 4863 
L 3481 0 
L 2906 0 
L 2906 525 
Q 2725 213 2448 61 
Q 2172 -91 1784 -91 
Q 1150 -91 751 415 
Q 353 922 353 1747 
Q 353 2572 751 3078 
Q 1150 3584 1784 3584 
Q 2172 3584 2448 3432 
Q 2725 3281 2906 2969 
z
M 947 1747 
Q 947 1113 1208 752 
Q 1469 391 1925 391 
Q 2381 391 2643 752 
Q 2906 1113 2906 1747 
Q 2906 2381 2643 2742 
Q 2381 3103 1925 3103 
Q 1469 3103 1208 2742 
Q 947 2381 947 1747 
z
" transform="scale(0.015625)"/>
    </defs>
    <use xlink:href="#DejaVuSans-49"/>
    <use xlink:href="#DejaVuSans-44" x="29.492188"/>
    <use xlink:href="#DejaVuSans-3a" x="106.494141"/>
    <use xlink:href="#DejaVuSans-20" x="140.185547"/>
    <use xlink:href="#DejaVuSans-36" x="171.972656"/>
    <use xlink:href="#DejaVuSans-39" x="235.595703"/>
    <use xlink:href="#DejaVuSans-31" x="299.21875"/>
    <use xlink:href="#DejaVuSans-35" x="362.841797"/>
    <use xlink:href="#DejaVuSans-2c" x="426.464844"/>
    <use xlink:href="#DejaVuSans-20" x="458.251953"/>
    <use xlink:href="#DejaVuSans-4d" x="490.039062"/>
    <use xlink:href="#DejaVuSans-61" x="576.318359"/>
    <use xlink:href="#DejaVuSans-78" x="637.597656"/>
    <use xlink:href="#DejaVuSans-20" x="696.777344"/>
    <use xlink:href="#DejaVuSans-6c" x="728.564453"/>
    <use xlink:href="#DejaVuSans-65" x="756.347656"/>
    <use xlink:href="#DejaVuSans-76" x="817.871094"/>
    <use xlink:href="#DejaVuSans-65" x="877.050781"/>
    <use xlink:href="#DejaVuSans-6c" x="938.574219"/>
    <use xlink:href="#DejaVuSans-3a" x="966.357422"/>
    <use xlink:href="#DejaVuSans-20" x="1000.048828"/>
    <use xlink:href="#DejaVuSans-39" x="1031.835938"/>
    <use xlink:href="#DejaVuSans-35" x="1095.458984"/>
    <use xlink:href="#DejaVuSans-64" x="1159.082031"/>
    <use xlink:href="#DejaVuSans-42" x="1222.558594"/>
   </g>
  </g>
 </g>
 <defs>
  <clipPath id="pd38e10e726">
   <rect x="180" y="77.76" width="328.235294" height="222.381818"/>
  </clipPath>
  <clipPath id="p20fb095506">
   <rect x="573.882353" y="77.76" width="328.235294" height="222.381818"/>
  </clipPath>
  <clipPath id="pbc96996e24">
   <rect x="967.764706" y="77.76" width="328.235294" height="222.381818"/>
  </clipPath>
  <clipPath id="pf6b7ad62c4">
   <rect x="180" y="344.618182" width="328.235294" height="222.381818"/>
  </clipPath>
 </defs>
</svg>
