<?xml version="1.0" encoding="utf-8" standalone="no"?>
<!DOCTYPE svg PUBLIC "-//W3C//DTD SVG 1.1//EN"
  "http://www.w3.org/Graphics/SVG/1.1/DTD/svg11.dtd">
<svg xmlns:xlink="http://www.w3.org/1999/xlink" width="1440pt" height="324pt" viewBox="0 0 1440 324" xmlns="http://www.w3.org/2000/svg" version="1.1">
 <metadata>
  <rdf:RDF xmlns:dc="http://purl.org/dc/elements/1.1/" xmlns:cc="http://creativecommons.org/ns#" xmlns:rdf="http://www.w3.org/1999/02/22-rdf-syntax-ns#">
   <cc:Work>
    <dc:type rdf:resource="http://purl.org/dc/dcmitype/StillImage"/>
    <dc:date>2024-06-10T15:34:42.033372</dc:date>
    <dc:format>image/svg+xml</dc:format>
    <dc:creator>
     <cc:Agent>
      <dc:title>Matplotlib v3.8.0, https://matplotlib.org/</dc:title>
     </cc:Agent>
    </dc:creator>
   </cc:Work>
  </rdf:RDF>
 </metadata>
 <defs>
  <style type="text/css">*{stroke-linejoin: round; stroke-linecap: butt}</style>
 </defs>
 <g id="figure_1">
  <g id="patch_1">
   <path d="M 0 324 
L 1440 324 
L 1440 0 
L 0 0 
z
" style="fill: #ffffff"/>
  </g>
  <g id="axes_1">
   <g id="patch_2">
    <path d="M 180 288.36 
L 508.235294 288.36 
L 508.235294 38.88 
L 180 38.88 
z
" style="fill: #ffffff"/>
   </g>
   <g id="PathCollection_1">
    <defs>
     <path id="m5a9d9f0840" d="M 0 3 
C 0.795609 3 1.55874 2.683901 2.12132 2.12132 
C 2.683901 1.55874 3 0.795609 3 0 
C 3 -0.795609 2.683901 -1.55874 2.12132 -2.12132 
C 1.55874 -2.683901 0.795609 -3 0 -3 
C -0.795609 -3 -1.55874 -2.683901 -2.12132 -2.12132 
C -2.683901 -1.55874 -3 -0.795609 -3 0 
C -3 0.795609 -2.683901 1.55874 -2.12132 2.12132 
C -1.55874 2.683901 -0.795609 3 0 3 
z
" style="stroke: #000000"/>
    </defs>
    <g clip-path="url(#p459388cd59)">
     <use xlink:href="#m5a9d9f0840" x="390.024681" y="186.72" style="stroke: #000000"/>
     <use xlink:href="#m5a9d9f0840" x="412.978198" y="186.72" style="stroke: #000000"/>
     <use xlink:href="#m5a9d9f0840" x="355.594406" y="232.92" style="stroke: #000000"/>
     <use xlink:href="#m5a9d9f0840" x="435.931715" y="140.52" style="stroke: #000000"/>
     <use xlink:href="#m5a9d9f0840" x="321.16413" y="232.92" style="stroke: #000000"/>
     <use xlink:href="#m5a9d9f0840" x="286.733854" y="256.02" style="stroke: #000000"/>
     <use xlink:href="#m5a9d9f0840" x="252.303579" y="279.12" style="stroke: #000000"/>
     <use xlink:href="#m5a9d9f0840" x="263.780337" y="279.12" style="stroke: #000000"/>
     <use xlink:href="#m5a9d9f0840" x="275.257096" y="256.02" style="stroke: #000000"/>
     <use xlink:href="#m5a9d9f0840" x="275.254341" y="256.02" style="stroke: #000000"/>
     <use xlink:href="#m5a9d9f0840" x="355.593258" y="232.92" style="stroke: #000000"/>
     <use xlink:href="#m5a9d9f0840" x="395.76306" y="186.72" style="stroke: #000000"/>
     <use xlink:href="#m5a9d9f0840" x="315.423914" y="232.92" style="stroke: #000000"/>
     <use xlink:href="#m5a9d9f0840" x="435.931715" y="140.52" style="stroke: #000000"/>
     <use xlink:href="#m5a9d9f0840" x="398.241811" y="186.72" style="stroke: #000000"/>
     <use xlink:href="#m5a9d9f0840" x="435.931715" y="140.52" style="stroke: #000000"/>
     <use xlink:href="#m5a9d9f0840" x="322.860624" y="232.92" style="stroke: #000000"/>
     <use xlink:href="#m5a9d9f0840" x="360.550988" y="232.92" style="stroke: #000000"/>
     <use xlink:href="#m5a9d9f0840" x="285.170031" y="256.02" style="stroke: #000000"/>
    </g>
   </g>
   <g id="matplotlib.axis_1">
    <g id="xtick_1">
     <g id="line2d_1">
      <path d="M 217.873303 288.36 
L 217.873303 38.88 
" clip-path="url(#p459388cd59)" style="fill: none; stroke: #b0b0b0; stroke-width: 0.8; stroke-linecap: square"/>
     </g>
     <g id="line2d_2">
      <defs>
       <path id="mce456da443" d="M 0 0 
L 0 3.5 
" style="stroke: #000000; stroke-width: 0.8"/>
      </defs>
      <g>
       <use xlink:href="#mce456da443" x="217.873303" y="288.36" style="stroke: #000000; stroke-width: 0.8"/>
      </g>
     </g>
     <g id="text_1">
      <!-- 0 -->
      <g transform="translate(214.692053 302.958438) scale(0.1 -0.1)">
       <defs>
        <path id="DejaVuSans-30" d="M 2034 4250 
Q 1547 4250 1301 3770 
Q 1056 3291 1056 2328 
Q 1056 1369 1301 889 
Q 1547 409 2034 409 
Q 2525 409 2770 889 
Q 3016 1369 3016 2328 
Q 3016 3291 2770 3770 
Q 2525 4250 2034 4250 
z
M 2034 4750 
Q 2819 4750 3233 4129 
Q 3647 3509 3647 2328 
Q 3647 1150 3233 529 
Q 2819 -91 2034 -91 
Q 1250 -91 836 529 
Q 422 1150 422 2328 
Q 422 3509 836 4129 
Q 1250 4750 2034 4750 
z
" transform="scale(0.015625)"/>
       </defs>
       <use xlink:href="#DejaVuSans-30"/>
      </g>
     </g>
    </g>
    <g id="xtick_2">
     <g id="line2d_3">
      <path d="M 263.780337 288.36 
L 263.780337 38.88 
" clip-path="url(#p459388cd59)" style="fill: none; stroke: #b0b0b0; stroke-width: 0.8; stroke-linecap: square"/>
     </g>
     <g id="line2d_4">
      <g>
       <use xlink:href="#mce456da443" x="263.780337" y="288.36" style="stroke: #000000; stroke-width: 0.8"/>
      </g>
     </g>
     <g id="text_2">
      <!-- 20 -->
      <g transform="translate(257.417837 302.958438) scale(0.1 -0.1)">
       <defs>
        <path id="DejaVuSans-32" d="M 1228 531 
L 3431 531 
L 3431 0 
L 469 0 
L 469 531 
Q 828 903 1448 1529 
Q 2069 2156 2228 2338 
Q 2531 2678 2651 2914 
Q 2772 3150 2772 3378 
Q 2772 3750 2511 3984 
Q 2250 4219 1831 4219 
Q 1534 4219 1204 4116 
Q 875 4013 500 3803 
L 500 4441 
Q 881 4594 1212 4672 
Q 1544 4750 1819 4750 
Q 2544 4750 2975 4387 
Q 3406 4025 3406 3419 
Q 3406 3131 3298 2873 
Q 3191 2616 2906 2266 
Q 2828 2175 2409 1742 
Q 1991 1309 1228 531 
z
" transform="scale(0.015625)"/>
       </defs>
       <use xlink:href="#DejaVuSans-32"/>
       <use xlink:href="#DejaVuSans-30" x="63.623047"/>
      </g>
     </g>
    </g>
    <g id="xtick_3">
     <g id="line2d_5">
      <path d="M 309.687371 288.36 
L 309.687371 38.88 
" clip-path="url(#p459388cd59)" style="fill: none; stroke: #b0b0b0; stroke-width: 0.8; stroke-linecap: square"/>
     </g>
     <g id="line2d_6">
      <g>
       <use xlink:href="#mce456da443" x="309.687371" y="288.36" style="stroke: #000000; stroke-width: 0.8"/>
      </g>
     </g>
     <g id="text_3">
      <!-- 40 -->
      <g transform="translate(303.324871 302.958438) scale(0.1 -0.1)">
       <defs>
        <path id="DejaVuSans-34" d="M 2419 4116 
L 825 1625 
L 2419 1625 
L 2419 4116 
z
M 2253 4666 
L 3047 4666 
L 3047 1625 
L 3713 1625 
L 3713 1100 
L 3047 1100 
L 3047 0 
L 2419 0 
L 2419 1100 
L 313 1100 
L 313 1709 
L 2253 4666 
z
" transform="scale(0.015625)"/>
       </defs>
       <use xlink:href="#DejaVuSans-34"/>
       <use xlink:href="#DejaVuSans-30" x="63.623047"/>
      </g>
     </g>
    </g>
    <g id="xtick_4">
     <g id="line2d_7">
      <path d="M 355.594406 288.36 
L 355.594406 38.88 
" clip-path="url(#p459388cd59)" style="fill: none; stroke: #b0b0b0; stroke-width: 0.8; stroke-linecap: square"/>
     </g>
     <g id="line2d_8">
      <g>
       <use xlink:href="#mce456da443" x="355.594406" y="288.36" style="stroke: #000000; stroke-width: 0.8"/>
      </g>
     </g>
     <g id="text_4">
      <!-- 60 -->
      <g transform="translate(349.231906 302.958438) scale(0.1 -0.1)">
       <defs>
        <path id="DejaVuSans-36" d="M 2113 2584 
Q 1688 2584 1439 2293 
Q 1191 2003 1191 1497 
Q 1191 994 1439 701 
Q 1688 409 2113 409 
Q 2538 409 2786 701 
Q 3034 994 3034 1497 
Q 3034 2003 2786 2293 
Q 2538 2584 2113 2584 
z
M 3366 4563 
L 3366 3988 
Q 3128 4100 2886 4159 
Q 2644 4219 2406 4219 
Q 1781 4219 1451 3797 
Q 1122 3375 1075 2522 
Q 1259 2794 1537 2939 
Q 1816 3084 2150 3084 
Q 2853 3084 3261 2657 
Q 3669 2231 3669 1497 
Q 3669 778 3244 343 
Q 2819 -91 2113 -91 
Q 1303 -91 875 529 
Q 447 1150 447 2328 
Q 447 3434 972 4092 
Q 1497 4750 2381 4750 
Q 2619 4750 2861 4703 
Q 3103 4656 3366 4563 
z
" transform="scale(0.015625)"/>
       </defs>
       <use xlink:href="#DejaVuSans-36"/>
       <use xlink:href="#DejaVuSans-30" x="63.623047"/>
      </g>
     </g>
    </g>
    <g id="xtick_5">
     <g id="line2d_9">
      <path d="M 401.50144 288.36 
L 401.50144 38.88 
" clip-path="url(#p459388cd59)" style="fill: none; stroke: #b0b0b0; stroke-width: 0.8; stroke-linecap: square"/>
     </g>
     <g id="line2d_10">
      <g>
       <use xlink:href="#mce456da443" x="401.50144" y="288.36" style="stroke: #000000; stroke-width: 0.8"/>
      </g>
     </g>
     <g id="text_5">
      <!-- 80 -->
      <g transform="translate(395.13894 302.958438) scale(0.1 -0.1)">
       <defs>
        <path id="DejaVuSans-38" d="M 2034 2216 
Q 1584 2216 1326 1975 
Q 1069 1734 1069 1313 
Q 1069 891 1326 650 
Q 1584 409 2034 409 
Q 2484 409 2743 651 
Q 3003 894 3003 1313 
Q 3003 1734 2745 1975 
Q 2488 2216 2034 2216 
z
M 1403 2484 
Q 997 2584 770 2862 
Q 544 3141 544 3541 
Q 544 4100 942 4425 
Q 1341 4750 2034 4750 
Q 2731 4750 3128 4425 
Q 3525 4100 3525 3541 
Q 3525 3141 3298 2862 
Q 3072 2584 2669 2484 
Q 3125 2378 3379 2068 
Q 3634 1759 3634 1313 
Q 3634 634 3220 271 
Q 2806 -91 2034 -91 
Q 1263 -91 848 271 
Q 434 634 434 1313 
Q 434 1759 690 2068 
Q 947 2378 1403 2484 
z
M 1172 3481 
Q 1172 3119 1398 2916 
Q 1625 2713 2034 2713 
Q 2441 2713 2670 2916 
Q 2900 3119 2900 3481 
Q 2900 3844 2670 4047 
Q 2441 4250 2034 4250 
Q 1625 4250 1398 4047 
Q 1172 3844 1172 3481 
z
" transform="scale(0.015625)"/>
       </defs>
       <use xlink:href="#DejaVuSans-38"/>
       <use xlink:href="#DejaVuSans-30" x="63.623047"/>
      </g>
     </g>
    </g>
    <g id="xtick_6">
     <g id="line2d_11">
      <path d="M 447.408474 288.36 
L 447.408474 38.88 
" clip-path="url(#p459388cd59)" style="fill: none; stroke: #b0b0b0; stroke-width: 0.8; stroke-linecap: square"/>
     </g>
     <g id="line2d_12">
      <g>
       <use xlink:href="#mce456da443" x="447.408474" y="288.36" style="stroke: #000000; stroke-width: 0.8"/>
      </g>
     </g>
     <g id="text_6">
      <!-- 100 -->
      <g transform="translate(437.864724 302.958438) scale(0.1 -0.1)">
       <defs>
        <path id="DejaVuSans-31" d="M 794 531 
L 1825 531 
L 1825 4091 
L 703 3866 
L 703 4441 
L 1819 4666 
L 2450 4666 
L 2450 531 
L 3481 531 
L 3481 0 
L 794 0 
L 794 531 
z
" transform="scale(0.015625)"/>
       </defs>
       <use xlink:href="#DejaVuSans-31"/>
       <use xlink:href="#DejaVuSans-30" x="63.623047"/>
       <use xlink:href="#DejaVuSans-30" x="127.246094"/>
      </g>
     </g>
    </g>
    <g id="xtick_7">
     <g id="line2d_13">
      <path d="M 493.315508 288.36 
L 493.315508 38.88 
" clip-path="url(#p459388cd59)" style="fill: none; stroke: #b0b0b0; stroke-width: 0.8; stroke-linecap: square"/>
     </g>
     <g id="line2d_14">
      <g>
       <use xlink:href="#mce456da443" x="493.315508" y="288.36" style="stroke: #000000; stroke-width: 0.8"/>
      </g>
     </g>
     <g id="text_7">
      <!-- 120 -->
      <g transform="translate(483.771758 302.958438) scale(0.1 -0.1)">
       <use xlink:href="#DejaVuSans-31"/>
       <use xlink:href="#DejaVuSans-32" x="63.623047"/>
       <use xlink:href="#DejaVuSans-30" x="127.246094"/>
      </g>
     </g>
    </g>
   </g>
   <g id="matplotlib.axis_2">
    <g id="ytick_1">
     <g id="line2d_15">
      <path d="M 180 279.12 
L 508.235294 279.12 
" clip-path="url(#p459388cd59)" style="fill: none; stroke: #b0b0b0; stroke-width: 0.8; stroke-linecap: square"/>
     </g>
     <g id="line2d_16">
      <defs>
       <path id="maa0e709e7e" d="M 0 0 
L -3.5 0 
" style="stroke: #000000; stroke-width: 0.8"/>
      </defs>
      <g>
       <use xlink:href="#maa0e709e7e" x="180" y="279.12" style="stroke: #000000; stroke-width: 0.8"/>
      </g>
     </g>
     <g id="text_8">
      <!-- 0 -->
      <g transform="translate(166.6375 282.919219) scale(0.1 -0.1)">
       <use xlink:href="#DejaVuSans-30"/>
      </g>
     </g>
    </g>
    <g id="ytick_2">
     <g id="line2d_17">
      <path d="M 180 232.92 
L 508.235294 232.92 
" clip-path="url(#p459388cd59)" style="fill: none; stroke: #b0b0b0; stroke-width: 0.8; stroke-linecap: square"/>
     </g>
     <g id="line2d_18">
      <g>
       <use xlink:href="#maa0e709e7e" x="180" y="232.92" style="stroke: #000000; stroke-width: 0.8"/>
      </g>
     </g>
     <g id="text_9">
      <!-- 10 -->
      <g transform="translate(160.275 236.719219) scale(0.1 -0.1)">
       <use xlink:href="#DejaVuSans-31"/>
       <use xlink:href="#DejaVuSans-30" x="63.623047"/>
      </g>
     </g>
    </g>
    <g id="ytick_3">
     <g id="line2d_19">
      <path d="M 180 186.72 
L 508.235294 186.72 
" clip-path="url(#p459388cd59)" style="fill: none; stroke: #b0b0b0; stroke-width: 0.8; stroke-linecap: square"/>
     </g>
     <g id="line2d_20">
      <g>
       <use xlink:href="#maa0e709e7e" x="180" y="186.72" style="stroke: #000000; stroke-width: 0.8"/>
      </g>
     </g>
     <g id="text_10">
      <!-- 20 -->
      <g transform="translate(160.275 190.519219) scale(0.1 -0.1)">
       <use xlink:href="#DejaVuSans-32"/>
       <use xlink:href="#DejaVuSans-30" x="63.623047"/>
      </g>
     </g>
    </g>
    <g id="ytick_4">
     <g id="line2d_21">
      <path d="M 180 140.52 
L 508.235294 140.52 
" clip-path="url(#p459388cd59)" style="fill: none; stroke: #b0b0b0; stroke-width: 0.8; stroke-linecap: square"/>
     </g>
     <g id="line2d_22">
      <g>
       <use xlink:href="#maa0e709e7e" x="180" y="140.52" style="stroke: #000000; stroke-width: 0.8"/>
      </g>
     </g>
     <g id="text_11">
      <!-- 30 -->
      <g transform="translate(160.275 144.319219) scale(0.1 -0.1)">
       <defs>
        <path id="DejaVuSans-33" d="M 2597 2516 
Q 3050 2419 3304 2112 
Q 3559 1806 3559 1356 
Q 3559 666 3084 287 
Q 2609 -91 1734 -91 
Q 1441 -91 1130 -33 
Q 819 25 488 141 
L 488 750 
Q 750 597 1062 519 
Q 1375 441 1716 441 
Q 2309 441 2620 675 
Q 2931 909 2931 1356 
Q 2931 1769 2642 2001 
Q 2353 2234 1838 2234 
L 1294 2234 
L 1294 2753 
L 1863 2753 
Q 2328 2753 2575 2939 
Q 2822 3125 2822 3475 
Q 2822 3834 2567 4026 
Q 2313 4219 1838 4219 
Q 1578 4219 1281 4162 
Q 984 4106 628 3988 
L 628 4550 
Q 988 4650 1302 4700 
Q 1616 4750 1894 4750 
Q 2613 4750 3031 4423 
Q 3450 4097 3450 3541 
Q 3450 3153 3228 2886 
Q 3006 2619 2597 2516 
z
" transform="scale(0.015625)"/>
       </defs>
       <use xlink:href="#DejaVuSans-33"/>
       <use xlink:href="#DejaVuSans-30" x="63.623047"/>
      </g>
     </g>
    </g>
    <g id="ytick_5">
     <g id="line2d_23">
      <path d="M 180 94.32 
L 508.235294 94.32 
" clip-path="url(#p459388cd59)" style="fill: none; stroke: #b0b0b0; stroke-width: 0.8; stroke-linecap: square"/>
     </g>
     <g id="line2d_24">
      <g>
       <use xlink:href="#maa0e709e7e" x="180" y="94.32" style="stroke: #000000; stroke-width: 0.8"/>
      </g>
     </g>
     <g id="text_12">
      <!-- 40 -->
      <g transform="translate(160.275 98.119219) scale(0.1 -0.1)">
       <use xlink:href="#DejaVuSans-34"/>
       <use xlink:href="#DejaVuSans-30" x="63.623047"/>
      </g>
     </g>
    </g>
    <g id="ytick_6">
     <g id="line2d_25">
      <path d="M 180 48.12 
L 508.235294 48.12 
" clip-path="url(#p459388cd59)" style="fill: none; stroke: #b0b0b0; stroke-width: 0.8; stroke-linecap: square"/>
     </g>
     <g id="line2d_26">
      <g>
       <use xlink:href="#maa0e709e7e" x="180" y="48.12" style="stroke: #000000; stroke-width: 0.8"/>
      </g>
     </g>
     <g id="text_13">
      <!-- 50 -->
      <g transform="translate(160.275 51.919219) scale(0.1 -0.1)">
       <defs>
        <path id="DejaVuSans-35" d="M 691 4666 
L 3169 4666 
L 3169 4134 
L 1269 4134 
L 1269 2991 
Q 1406 3038 1543 3061 
Q 1681 3084 1819 3084 
Q 2600 3084 3056 2656 
Q 3513 2228 3513 1497 
Q 3513 744 3044 326 
Q 2575 -91 1722 -91 
Q 1428 -91 1123 -41 
Q 819 9 494 109 
L 494 744 
Q 775 591 1075 516 
Q 1375 441 1709 441 
Q 2250 441 2565 725 
Q 2881 1009 2881 1497 
Q 2881 1984 2565 2268 
Q 2250 2553 1709 2553 
Q 1456 2553 1204 2497 
Q 953 2441 691 2322 
L 691 4666 
z
" transform="scale(0.015625)"/>
       </defs>
       <use xlink:href="#DejaVuSans-35"/>
       <use xlink:href="#DejaVuSans-30" x="63.623047"/>
      </g>
     </g>
    </g>
   </g>
   <g id="line2d_27">
    <path d="M 194.919786 163.62 
L 493.315508 163.62 
" clip-path="url(#p459388cd59)" style="fill: none; stroke-dasharray: 1.5,2.475; stroke-dashoffset: 0; stroke: #808080; stroke-width: 1.5"/>
   </g>
   <g id="line2d_28">
    <path d="M 435.931715 325 
L 435.931715 -1 
" clip-path="url(#p459388cd59)" style="fill: none; stroke-dasharray: 5.55,2.4; stroke-dashoffset: 0; stroke: #ff0000; stroke-opacity: 0.3; stroke-width: 1.5"/>
   </g>
   <g id="line2d_29">
    <path d="M 251.05522 279.12 
L 253.038586 277.925404 
L 255.021952 276.730808 
L 257.005319 275.536212 
L 258.988685 274.341616 
L 260.972051 273.147019 
L 262.955417 271.952423 
L 264.938783 270.757827 
L 266.92215 269.563231 
L 268.905516 268.368635 
L 270.888882 267.174039 
L 272.872248 265.979443 
L 274.855614 264.784847 
L 276.838981 263.590251 
L 278.822347 262.395655 
L 280.805713 261.201058 
L 282.789079 260.006462 
L 284.772445 258.811866 
L 286.755812 257.61727 
L 288.739178 256.422674 
L 290.722544 255.228078 
L 292.70591 254.033482 
L 294.689276 252.838886 
L 296.672643 251.64429 
L 298.656009 250.449693 
L 300.639375 249.255097 
L 302.622741 248.060501 
L 304.606107 246.865905 
L 306.589474 245.671309 
L 308.57284 244.476713 
L 310.556206 243.282117 
L 312.539572 242.087521 
L 314.522938 240.892925 
L 316.506305 239.698328 
L 318.489671 238.503732 
L 320.473037 237.309136 
L 322.456403 236.11454 
L 324.439769 234.919944 
L 326.423136 233.725348 
L 328.406502 232.530752 
L 330.389868 231.336156 
L 332.373234 230.14156 
L 334.3566 228.946964 
L 336.339967 227.752367 
L 338.323333 226.557771 
L 340.306699 225.363175 
L 342.290065 224.168579 
L 344.273431 222.973983 
L 346.256798 221.779387 
L 348.240164 220.584791 
L 350.22353 219.390195 
L 352.206896 218.195599 
L 354.190262 217.001002 
L 356.173629 215.806406 
L 358.156995 214.61181 
L 360.140361 213.417214 
L 362.123727 212.222618 
L 364.107093 211.028022 
L 366.09046 209.833426 
L 368.073826 208.631367 
L 370.057192 207.41365 
L 372.040558 206.179643 
L 374.023924 204.928676 
L 376.007291 203.660029 
L 377.990657 202.372932 
L 379.974023 201.066553 
L 381.957389 199.740001 
L 383.940755 198.392311 
L 385.924122 197.022439 
L 387.907488 195.629251 
L 389.890854 194.211517 
L 391.87422 192.767889 
L 393.857586 191.296896 
L 395.840953 189.79692 
L 397.824319 188.266177 
L 399.807685 186.702692 
L 401.791051 185.10427 
L 403.774417 183.468459 
L 405.757784 181.792505 
L 407.74115 180.073298 
L 409.724516 178.307308 
L 411.707882 176.490493 
L 413.691248 174.618195 
L 415.674615 172.684997 
L 417.657981 170.684539 
L 419.641347 168.609271 
L 421.624713 166.450113 
L 423.608079 164.195987 
L 425.591446 161.833137 
L 427.574812 159.344126 
L 429.558178 156.706289 
L 431.541544 153.889234 
L 433.52491 150.850555 
L 435.508277 147.527908 
L 437.491643 143.822728 
L 439.475009 139.561423 
L 441.458375 134.377661 
L 443.441741 127.128018 
L 445.425108 98.020587 
L 447.408474 48.12 
" clip-path="url(#p459388cd59)" style="fill: none; stroke: #1f77b4; stroke-width: 1.5; stroke-linecap: square"/>
   </g>
   <g id="line2d_30">
    <path d="M 250.589515 279.12 
L 252.834946 277.716544 
L 255.080377 276.313089 
L 257.325808 274.909633 
L 259.571239 273.506177 
L 261.81667 272.102721 
L 264.062101 270.699266 
L 266.307531 269.29581 
L 268.552962 267.892354 
L 270.798393 266.488898 
L 273.043824 265.085443 
L 275.289255 263.681987 
L 277.534686 262.278531 
L 279.780117 260.875075 
L 282.025548 259.47162 
L 284.270979 258.068164 
L 286.51641 256.664708 
L 288.761841 255.261253 
L 291.007272 253.857797 
L 293.252703 252.454341 
L 295.498133 251.050885 
L 297.743564 249.64743 
L 299.988995 248.243974 
L 302.234426 246.840518 
L 304.479857 245.437062 
L 306.725288 244.033607 
L 308.970719 242.630151 
L 311.21615 241.226695 
L 313.461581 239.82324 
L 315.707012 238.419784 
L 317.952443 237.016328 
L 320.197874 235.612872 
L 322.443305 234.209417 
L 324.688735 232.805961 
L 326.934166 231.402505 
L 329.179597 229.999049 
L 331.425028 228.595594 
L 333.670459 227.192138 
L 335.91589 225.788682 
L 338.161321 224.385226 
L 340.406752 222.981771 
L 342.652183 221.578315 
L 344.897614 220.174859 
L 347.143045 218.771404 
L 349.388476 217.367948 
L 351.633907 215.964492 
L 353.879337 214.561036 
L 356.124768 213.157581 
L 358.370199 211.754125 
L 360.61563 210.350669 
L 362.861061 208.943903 
L 365.106492 207.520961 
L 367.351923 206.079973 
L 369.597354 204.620234 
L 371.842785 203.140992 
L 374.088216 201.641445 
L 376.333647 200.120732 
L 378.579078 198.577932 
L 380.824509 197.012052 
L 383.069939 195.422025 
L 385.31537 193.806698 
L 387.560801 192.164823 
L 389.806232 190.495047 
L 392.051663 188.795898 
L 394.297094 187.065768 
L 396.542525 185.302898 
L 398.787956 183.505356 
L 401.033387 181.671013 
L 403.278818 179.79751 
L 405.524249 177.882227 
L 407.76968 175.922238 
L 410.015111 173.914258 
L 412.260542 171.85458 
L 414.505972 169.738991 
L 416.751403 167.562674 
L 418.996834 165.320081 
L 421.242265 163.004758 
L 423.487696 160.609135 
L 425.733127 158.124228 
L 427.978558 155.539242 
L 430.223989 152.841012 
L 432.46942 150.013207 
L 434.714851 147.035148 
L 436.960282 143.879987 
L 439.205713 140.511782 
L 441.451144 136.880487 
L 443.696574 132.912721 
L 445.942005 128.492932 
L 448.187436 123.418834 
L 450.432867 117.268675 
L 452.678298 110.353808 
L 454.923729 103.43894 
L 457.16916 96.524073 
L 459.414591 89.609205 
L 461.660022 82.694338 
L 463.905453 75.77947 
L 466.150884 68.864603 
L 468.396315 61.949735 
L 470.641746 55.034868 
L 472.887176 48.12 
" clip-path="url(#p459388cd59)" style="fill: none; stroke-dasharray: 5.55,2.4; stroke-dashoffset: 0; stroke: #ff7f0e; stroke-width: 1.5"/>
   </g>
   <g id="line2d_31">
    <path d="M 250.062846 279.12 
L 252.098557 277.882884 
L 254.134268 276.645767 
L 256.169978 275.408651 
L 258.205689 274.171535 
L 260.2414 272.934419 
L 262.277111 271.697302 
L 264.312821 270.460186 
L 266.348532 269.22307 
L 268.384243 267.985954 
L 270.419953 266.748837 
L 272.455664 265.511721 
L 274.491375 264.274605 
L 276.527085 263.037489 
L 278.562796 261.800372 
L 280.598507 260.563256 
L 282.634218 259.32614 
L 284.669928 258.089024 
L 286.705639 256.851907 
L 288.74135 255.614791 
L 290.77706 254.377675 
L 292.812771 253.140558 
L 294.848482 251.903442 
L 296.884192 250.666326 
L 298.919903 249.42921 
L 300.955614 248.192093 
L 302.991325 246.954977 
L 305.027035 245.717861 
L 307.062746 244.480745 
L 309.098457 243.243628 
L 311.134167 242.006512 
L 313.169878 240.769396 
L 315.205589 239.53228 
L 317.2413 238.295163 
L 319.27701 237.058047 
L 321.312721 235.820931 
L 323.348432 234.583815 
L 325.384142 233.346698 
L 327.419853 232.109582 
L 329.455564 230.872466 
L 331.491274 229.63535 
L 333.526985 228.398233 
L 335.562696 227.161117 
L 337.598407 225.924001 
L 339.634117 224.686884 
L 341.669828 223.449768 
L 343.705539 222.212652 
L 345.741249 220.975536 
L 347.77696 219.738419 
L 349.812671 218.501303 
L 351.848381 217.264187 
L 353.884092 216.027071 
L 355.919803 214.789954 
L 357.955514 213.552838 
L 359.991224 212.315722 
L 362.026935 211.078606 
L 364.062646 209.841489 
L 366.098356 208.596765 
L 368.134067 207.335881 
L 370.169778 206.058189 
L 372.205488 204.762997 
L 374.241199 203.449567 
L 376.27691 202.117105 
L 378.312621 200.76476 
L 380.348331 199.391614 
L 382.384042 197.996676 
L 384.419753 196.578876 
L 386.455463 195.137049 
L 388.491174 193.669932 
L 390.526885 192.176146 
L 392.562596 190.654181 
L 394.598306 189.10238 
L 396.634017 187.518915 
L 398.669728 185.901765 
L 400.705438 184.248685 
L 402.741149 182.557169 
L 404.77686 180.824402 
L 406.81257 179.047212 
L 408.848281 177.221995 
L 410.883992 175.344635 
L 412.919703 173.410389 
L 414.955413 171.413749 
L 416.991124 169.348258 
L 419.026835 167.206259 
L 421.062545 164.978564 
L 423.098256 162.653981 
L 425.133967 160.21865 
L 427.169677 157.655049 
L 429.205388 154.940485 
L 431.241099 152.044661 
L 433.27681 148.925545 
L 435.31252 145.521812 
L 437.348231 141.737557 
L 439.383942 137.406675 
L 441.419652 132.188985 
L 443.455363 125.100749 
L 445.491074 109.581061 
L 447.526784 89.094041 
L 449.562495 68.60702 
L 451.598206 48.12 
" clip-path="url(#p459388cd59)" style="fill: none; stroke-dasharray: 5.55,2.4; stroke-dashoffset: 0; stroke: #2ca02c; stroke-width: 1.5"/>
   </g>
   <g id="patch_3">
    <path d="M 180 288.36 
L 180 38.88 
" style="fill: none; stroke: #000000; stroke-width: 0.8; stroke-linejoin: miter; stroke-linecap: square"/>
   </g>
   <g id="patch_4">
    <path d="M 508.235294 288.36 
L 508.235294 38.88 
" style="fill: none; stroke: #000000; stroke-width: 0.8; stroke-linejoin: miter; stroke-linecap: square"/>
   </g>
   <g id="patch_5">
    <path d="M 180 288.36 
L 508.235294 288.36 
" style="fill: none; stroke: #000000; stroke-width: 0.8; stroke-linejoin: miter; stroke-linecap: square"/>
   </g>
   <g id="patch_6">
    <path d="M 180 38.88 
L 508.235294 38.88 
" style="fill: none; stroke: #000000; stroke-width: 0.8; stroke-linejoin: miter; stroke-linecap: square"/>
   </g>
   <g id="text_14">
    <!--  Block: 0 -->
    <g transform="translate(318.237022 32.88) scale(0.12 -0.12)">
     <defs>
      <path id="DejaVuSans-20" transform="scale(0.015625)"/>
      <path id="DejaVuSans-42" d="M 1259 2228 
L 1259 519 
L 2272 519 
Q 2781 519 3026 730 
Q 3272 941 3272 1375 
Q 3272 1813 3026 2020 
Q 2781 2228 2272 2228 
L 1259 2228 
z
M 1259 4147 
L 1259 2741 
L 2194 2741 
Q 2656 2741 2882 2914 
Q 3109 3088 3109 3444 
Q 3109 3797 2882 3972 
Q 2656 4147 2194 4147 
L 1259 4147 
z
M 628 4666 
L 2241 4666 
Q 2963 4666 3353 4366 
Q 3744 4066 3744 3513 
Q 3744 3084 3544 2831 
Q 3344 2578 2956 2516 
Q 3422 2416 3680 2098 
Q 3938 1781 3938 1306 
Q 3938 681 3513 340 
Q 3088 0 2303 0 
L 628 0 
L 628 4666 
z
" transform="scale(0.015625)"/>
      <path id="DejaVuSans-6c" d="M 603 4863 
L 1178 4863 
L 1178 0 
L 603 0 
L 603 4863 
z
" transform="scale(0.015625)"/>
      <path id="DejaVuSans-6f" d="M 1959 3097 
Q 1497 3097 1228 2736 
Q 959 2375 959 1747 
Q 959 1119 1226 758 
Q 1494 397 1959 397 
Q 2419 397 2687 759 
Q 2956 1122 2956 1747 
Q 2956 2369 2687 2733 
Q 2419 3097 1959 3097 
z
M 1959 3584 
Q 2709 3584 3137 3096 
Q 3566 2609 3566 1747 
Q 3566 888 3137 398 
Q 2709 -91 1959 -91 
Q 1206 -91 779 398 
Q 353 888 353 1747 
Q 353 2609 779 3096 
Q 1206 3584 1959 3584 
z
" transform="scale(0.015625)"/>
      <path id="DejaVuSans-63" d="M 3122 3366 
L 3122 2828 
Q 2878 2963 2633 3030 
Q 2388 3097 2138 3097 
Q 1578 3097 1268 2742 
Q 959 2388 959 1747 
Q 959 1106 1268 751 
Q 1578 397 2138 397 
Q 2388 397 2633 464 
Q 2878 531 3122 666 
L 3122 134 
Q 2881 22 2623 -34 
Q 2366 -91 2075 -91 
Q 1284 -91 818 406 
Q 353 903 353 1747 
Q 353 2603 823 3093 
Q 1294 3584 2113 3584 
Q 2378 3584 2631 3529 
Q 2884 3475 3122 3366 
z
" transform="scale(0.015625)"/>
      <path id="DejaVuSans-6b" d="M 581 4863 
L 1159 4863 
L 1159 1991 
L 2875 3500 
L 3609 3500 
L 1753 1863 
L 3688 0 
L 2938 0 
L 1159 1709 
L 1159 0 
L 581 0 
L 581 4863 
z
" transform="scale(0.015625)"/>
      <path id="DejaVuSans-3a" d="M 750 794 
L 1409 794 
L 1409 0 
L 750 0 
L 750 794 
z
M 750 3309 
L 1409 3309 
L 1409 2516 
L 750 2516 
L 750 3309 
z
" transform="scale(0.015625)"/>
     </defs>
     <use xlink:href="#DejaVuSans-20"/>
     <use xlink:href="#DejaVuSans-42" x="31.787109"/>
     <use xlink:href="#DejaVuSans-6c" x="100.390625"/>
     <use xlink:href="#DejaVuSans-6f" x="128.173828"/>
     <use xlink:href="#DejaVuSans-63" x="189.355469"/>
     <use xlink:href="#DejaVuSans-6b" x="244.335938"/>
     <use xlink:href="#DejaVuSans-3a" x="302.246094"/>
     <use xlink:href="#DejaVuSans-20" x="335.9375"/>
     <use xlink:href="#DejaVuSans-30" x="367.724609"/>
    </g>
   </g>
   <g id="legend_1">
    <g id="patch_7">
     <path d="M 187 106.14875 
L 318.2 106.14875 
Q 320.2 106.14875 320.2 104.14875 
L 320.2 45.88 
Q 320.2 43.88 318.2 43.88 
L 187 43.88 
Q 185 43.88 185 45.88 
L 185 104.14875 
Q 185 106.14875 187 106.14875 
z
" style="fill: #ffffff; opacity: 0.8; stroke: #cccccc; stroke-linejoin: miter"/>
    </g>
    <g id="PathCollection_2">
     <g>
      <use xlink:href="#m5a9d9f0840" x="199" y="52.853438" style="stroke: #000000"/>
     </g>
    </g>
    <g id="text_15">
     <!-- Data -->
     <g transform="translate(217 55.478438) scale(0.1 -0.1)">
      <defs>
       <path id="DejaVuSans-44" d="M 1259 4147 
L 1259 519 
L 2022 519 
Q 2988 519 3436 956 
Q 3884 1394 3884 2338 
Q 3884 3275 3436 3711 
Q 2988 4147 2022 4147 
L 1259 4147 
z
M 628 4666 
L 1925 4666 
Q 3281 4666 3915 4102 
Q 4550 3538 4550 2338 
Q 4550 1131 3912 565 
Q 3275 0 1925 0 
L 628 0 
L 628 4666 
z
" transform="scale(0.015625)"/>
       <path id="DejaVuSans-61" d="M 2194 1759 
Q 1497 1759 1228 1600 
Q 959 1441 959 1056 
Q 959 750 1161 570 
Q 1363 391 1709 391 
Q 2188 391 2477 730 
Q 2766 1069 2766 1631 
L 2766 1759 
L 2194 1759 
z
M 3341 1997 
L 3341 0 
L 2766 0 
L 2766 531 
Q 2569 213 2275 61 
Q 1981 -91 1556 -91 
Q 1019 -91 701 211 
Q 384 513 384 1019 
Q 384 1609 779 1909 
Q 1175 2209 1959 2209 
L 2766 2209 
L 2766 2266 
Q 2766 2663 2505 2880 
Q 2244 3097 1772 3097 
Q 1472 3097 1187 3025 
Q 903 2953 641 2809 
L 641 3341 
Q 956 3463 1253 3523 
Q 1550 3584 1831 3584 
Q 2591 3584 2966 3190 
Q 3341 2797 3341 1997 
z
" transform="scale(0.015625)"/>
       <path id="DejaVuSans-74" d="M 1172 4494 
L 1172 3500 
L 2356 3500 
L 2356 3053 
L 1172 3053 
L 1172 1153 
Q 1172 725 1289 603 
Q 1406 481 1766 481 
L 2356 481 
L 2356 0 
L 1766 0 
Q 1100 0 847 248 
Q 594 497 594 1153 
L 594 3053 
L 172 3053 
L 172 3500 
L 594 3500 
L 594 4494 
L 1172 4494 
z
" transform="scale(0.015625)"/>
      </defs>
      <use xlink:href="#DejaVuSans-44"/>
      <use xlink:href="#DejaVuSans-61" x="77.001953"/>
      <use xlink:href="#DejaVuSans-74" x="138.28125"/>
      <use xlink:href="#DejaVuSans-61" x="177.490234"/>
     </g>
    </g>
    <g id="line2d_32">
     <path d="M 189 66.656563 
L 199 66.656563 
L 209 66.656563 
" style="fill: none; stroke: #1f77b4; stroke-width: 1.5; stroke-linecap: square"/>
    </g>
    <g id="text_16">
     <!-- Artc e:0.1032 -->
     <g transform="translate(217 70.156563) scale(0.1 -0.1)">
      <defs>
       <path id="DejaVuSans-41" d="M 2188 4044 
L 1331 1722 
L 3047 1722 
L 2188 4044 
z
M 1831 4666 
L 2547 4666 
L 4325 0 
L 3669 0 
L 3244 1197 
L 1141 1197 
L 716 0 
L 50 0 
L 1831 4666 
z
" transform="scale(0.015625)"/>
       <path id="DejaVuSans-72" d="M 2631 2963 
Q 2534 3019 2420 3045 
Q 2306 3072 2169 3072 
Q 1681 3072 1420 2755 
Q 1159 2438 1159 1844 
L 1159 0 
L 581 0 
L 581 3500 
L 1159 3500 
L 1159 2956 
Q 1341 3275 1631 3429 
Q 1922 3584 2338 3584 
Q 2397 3584 2469 3576 
Q 2541 3569 2628 3553 
L 2631 2963 
z
" transform="scale(0.015625)"/>
       <path id="DejaVuSans-65" d="M 3597 1894 
L 3597 1613 
L 953 1613 
Q 991 1019 1311 708 
Q 1631 397 2203 397 
Q 2534 397 2845 478 
Q 3156 559 3463 722 
L 3463 178 
Q 3153 47 2828 -22 
Q 2503 -91 2169 -91 
Q 1331 -91 842 396 
Q 353 884 353 1716 
Q 353 2575 817 3079 
Q 1281 3584 2069 3584 
Q 2775 3584 3186 3129 
Q 3597 2675 3597 1894 
z
M 3022 2063 
Q 3016 2534 2758 2815 
Q 2500 3097 2075 3097 
Q 1594 3097 1305 2825 
Q 1016 2553 972 2059 
L 3022 2063 
z
" transform="scale(0.015625)"/>
       <path id="DejaVuSans-2e" d="M 684 794 
L 1344 794 
L 1344 0 
L 684 0 
L 684 794 
z
" transform="scale(0.015625)"/>
      </defs>
      <use xlink:href="#DejaVuSans-41"/>
      <use xlink:href="#DejaVuSans-72" x="68.408203"/>
      <use xlink:href="#DejaVuSans-74" x="109.521484"/>
      <use xlink:href="#DejaVuSans-63" x="148.730469"/>
      <use xlink:href="#DejaVuSans-20" x="203.710938"/>
      <use xlink:href="#DejaVuSans-65" x="235.498047"/>
      <use xlink:href="#DejaVuSans-3a" x="297.021484"/>
      <use xlink:href="#DejaVuSans-30" x="330.712891"/>
      <use xlink:href="#DejaVuSans-2e" x="394.335938"/>
      <use xlink:href="#DejaVuSans-31" x="426.123047"/>
      <use xlink:href="#DejaVuSans-30" x="489.746094"/>
      <use xlink:href="#DejaVuSans-33" x="553.369141"/>
      <use xlink:href="#DejaVuSans-32" x="616.992188"/>
     </g>
    </g>
    <g id="line2d_33">
     <path d="M 189 81.334688 
L 199 81.334688 
L 209 81.334688 
" style="fill: none; stroke-dasharray: 5.55,2.4; stroke-dashoffset: 0; stroke: #ff7f0e; stroke-width: 1.5"/>
    </g>
    <g id="text_17">
     <!-- NEL_BTUX e:0.1116 -->
     <g transform="translate(217 84.834688) scale(0.1 -0.1)">
      <defs>
       <path id="DejaVuSans-4e" d="M 628 4666 
L 1478 4666 
L 3547 763 
L 3547 4666 
L 4159 4666 
L 4159 0 
L 3309 0 
L 1241 3903 
L 1241 0 
L 628 0 
L 628 4666 
z
" transform="scale(0.015625)"/>
       <path id="DejaVuSans-45" d="M 628 4666 
L 3578 4666 
L 3578 4134 
L 1259 4134 
L 1259 2753 
L 3481 2753 
L 3481 2222 
L 1259 2222 
L 1259 531 
L 3634 531 
L 3634 0 
L 628 0 
L 628 4666 
z
" transform="scale(0.015625)"/>
       <path id="DejaVuSans-4c" d="M 628 4666 
L 1259 4666 
L 1259 531 
L 3531 531 
L 3531 0 
L 628 0 
L 628 4666 
z
" transform="scale(0.015625)"/>
       <path id="DejaVuSans-5f" d="M 3263 -1063 
L 3263 -1509 
L -63 -1509 
L -63 -1063 
L 3263 -1063 
z
" transform="scale(0.015625)"/>
       <path id="DejaVuSans-54" d="M -19 4666 
L 3928 4666 
L 3928 4134 
L 2272 4134 
L 2272 0 
L 1638 0 
L 1638 4134 
L -19 4134 
L -19 4666 
z
" transform="scale(0.015625)"/>
       <path id="DejaVuSans-55" d="M 556 4666 
L 1191 4666 
L 1191 1831 
Q 1191 1081 1462 751 
Q 1734 422 2344 422 
Q 2950 422 3222 751 
Q 3494 1081 3494 1831 
L 3494 4666 
L 4128 4666 
L 4128 1753 
Q 4128 841 3676 375 
Q 3225 -91 2344 -91 
Q 1459 -91 1007 375 
Q 556 841 556 1753 
L 556 4666 
z
" transform="scale(0.015625)"/>
       <path id="DejaVuSans-58" d="M 403 4666 
L 1081 4666 
L 2241 2931 
L 3406 4666 
L 4084 4666 
L 2584 2425 
L 4184 0 
L 3506 0 
L 2194 1984 
L 872 0 
L 191 0 
L 1856 2491 
L 403 4666 
z
" transform="scale(0.015625)"/>
      </defs>
      <use xlink:href="#DejaVuSans-4e"/>
      <use xlink:href="#DejaVuSans-45" x="74.804688"/>
      <use xlink:href="#DejaVuSans-4c" x="137.988281"/>
      <use xlink:href="#DejaVuSans-5f" x="193.701172"/>
      <use xlink:href="#DejaVuSans-42" x="243.701172"/>
      <use xlink:href="#DejaVuSans-54" x="312.304688"/>
      <use xlink:href="#DejaVuSans-55" x="373.388672"/>
      <use xlink:href="#DejaVuSans-58" x="446.582031"/>
      <use xlink:href="#DejaVuSans-20" x="515.087891"/>
      <use xlink:href="#DejaVuSans-65" x="546.875"/>
      <use xlink:href="#DejaVuSans-3a" x="608.398438"/>
      <use xlink:href="#DejaVuSans-30" x="642.089844"/>
      <use xlink:href="#DejaVuSans-2e" x="705.712891"/>
      <use xlink:href="#DejaVuSans-31" x="737.5"/>
      <use xlink:href="#DejaVuSans-31" x="801.123047"/>
      <use xlink:href="#DejaVuSans-31" x="864.746094"/>
      <use xlink:href="#DejaVuSans-36" x="928.369141"/>
     </g>
    </g>
    <g id="line2d_34">
     <path d="M 189 96.290938 
L 199 96.290938 
L 209 96.290938 
" style="fill: none; stroke-dasharray: 5.55,2.4; stroke-dashoffset: 0; stroke: #2ca02c; stroke-width: 1.5"/>
    </g>
    <g id="text_18">
     <!-- NEL_BTX e:0.1043 -->
     <g transform="translate(217 99.790938) scale(0.1 -0.1)">
      <use xlink:href="#DejaVuSans-4e"/>
      <use xlink:href="#DejaVuSans-45" x="74.804688"/>
      <use xlink:href="#DejaVuSans-4c" x="137.988281"/>
      <use xlink:href="#DejaVuSans-5f" x="193.701172"/>
      <use xlink:href="#DejaVuSans-42" x="243.701172"/>
      <use xlink:href="#DejaVuSans-54" x="312.304688"/>
      <use xlink:href="#DejaVuSans-58" x="373.388672"/>
      <use xlink:href="#DejaVuSans-20" x="441.894531"/>
      <use xlink:href="#DejaVuSans-65" x="473.681641"/>
      <use xlink:href="#DejaVuSans-3a" x="535.205078"/>
      <use xlink:href="#DejaVuSans-30" x="568.896484"/>
      <use xlink:href="#DejaVuSans-2e" x="632.519531"/>
      <use xlink:href="#DejaVuSans-31" x="664.306641"/>
      <use xlink:href="#DejaVuSans-30" x="727.929688"/>
      <use xlink:href="#DejaVuSans-34" x="791.552734"/>
      <use xlink:href="#DejaVuSans-33" x="855.175781"/>
     </g>
    </g>
   </g>
  </g>
  <g id="axes_2">
   <g id="patch_8">
    <path d="M 573.882353 288.36 
L 902.117647 288.36 
L 902.117647 38.88 
L 573.882353 38.88 
z
" style="fill: #ffffff"/>
   </g>
   <g id="PathCollection_3">
    <g clip-path="url(#p81767397ab)">
     <use xlink:href="#m5a9d9f0840" x="783.907034" y="232.92" style="stroke: #000000"/>
     <use xlink:href="#m5a9d9f0840" x="806.860551" y="186.72" style="stroke: #000000"/>
     <use xlink:href="#m5a9d9f0840" x="749.476759" y="232.92" style="stroke: #000000"/>
     <use xlink:href="#m5a9d9f0840" x="829.814068" y="140.52" style="stroke: #000000"/>
     <use xlink:href="#m5a9d9f0840" x="715.046483" y="232.92" style="stroke: #000000"/>
     <use xlink:href="#m5a9d9f0840" x="680.616207" y="256.02" style="stroke: #000000"/>
     <use xlink:href="#m5a9d9f0840" x="646.185932" y="279.12" style="stroke: #000000"/>
     <use xlink:href="#m5a9d9f0840" x="657.66269" y="256.02" style="stroke: #000000"/>
     <use xlink:href="#m5a9d9f0840" x="700.700535" y="209.82" style="stroke: #000000"/>
     <use xlink:href="#m5a9d9f0840" x="829.814068" y="140.52" style="stroke: #000000"/>
     <use xlink:href="#m5a9d9f0840" x="786.775076" y="186.72" style="stroke: #000000"/>
     <use xlink:href="#m5a9d9f0840" x="657.66292" y="279.12" style="stroke: #000000"/>
     <use xlink:href="#m5a9d9f0840" x="743.73815" y="256.02" style="stroke: #000000"/>
     <use xlink:href="#m5a9d9f0840" x="753.087117" y="232.92" style="stroke: #000000"/>
     <use xlink:href="#m5a9d9f0840" x="714.723756" y="256.02" style="stroke: #000000"/>
     <use xlink:href="#m5a9d9f0840" x="791.450708" y="186.72" style="stroke: #000000"/>
     <use xlink:href="#m5a9d9f0840" x="829.814068" y="140.52" style="stroke: #000000"/>
     <use xlink:href="#m5a9d9f0840" x="676.360625" y="232.92" style="stroke: #000000"/>
    </g>
   </g>
   <g id="matplotlib.axis_3">
    <g id="xtick_8">
     <g id="line2d_35">
      <path d="M 611.755656 288.36 
L 611.755656 38.88 
" clip-path="url(#p81767397ab)" style="fill: none; stroke: #b0b0b0; stroke-width: 0.8; stroke-linecap: square"/>
     </g>
     <g id="line2d_36">
      <g>
       <use xlink:href="#mce456da443" x="611.755656" y="288.36" style="stroke: #000000; stroke-width: 0.8"/>
      </g>
     </g>
     <g id="text_19">
      <!-- 0 -->
      <g transform="translate(608.574406 302.958438) scale(0.1 -0.1)">
       <use xlink:href="#DejaVuSans-30"/>
      </g>
     </g>
    </g>
    <g id="xtick_9">
     <g id="line2d_37">
      <path d="M 657.66269 288.36 
L 657.66269 38.88 
" clip-path="url(#p81767397ab)" style="fill: none; stroke: #b0b0b0; stroke-width: 0.8; stroke-linecap: square"/>
     </g>
     <g id="line2d_38">
      <g>
       <use xlink:href="#mce456da443" x="657.66269" y="288.36" style="stroke: #000000; stroke-width: 0.8"/>
      </g>
     </g>
     <g id="text_20">
      <!-- 20 -->
      <g transform="translate(651.30019 302.958438) scale(0.1 -0.1)">
       <use xlink:href="#DejaVuSans-32"/>
       <use xlink:href="#DejaVuSans-30" x="63.623047"/>
      </g>
     </g>
    </g>
    <g id="xtick_10">
     <g id="line2d_39">
      <path d="M 703.569724 288.36 
L 703.569724 38.88 
" clip-path="url(#p81767397ab)" style="fill: none; stroke: #b0b0b0; stroke-width: 0.8; stroke-linecap: square"/>
     </g>
     <g id="line2d_40">
      <g>
       <use xlink:href="#mce456da443" x="703.569724" y="288.36" style="stroke: #000000; stroke-width: 0.8"/>
      </g>
     </g>
     <g id="text_21">
      <!-- 40 -->
      <g transform="translate(697.207224 302.958438) scale(0.1 -0.1)">
       <use xlink:href="#DejaVuSans-34"/>
       <use xlink:href="#DejaVuSans-30" x="63.623047"/>
      </g>
     </g>
    </g>
    <g id="xtick_11">
     <g id="line2d_41">
      <path d="M 749.476759 288.36 
L 749.476759 38.88 
" clip-path="url(#p81767397ab)" style="fill: none; stroke: #b0b0b0; stroke-width: 0.8; stroke-linecap: square"/>
     </g>
     <g id="line2d_42">
      <g>
       <use xlink:href="#mce456da443" x="749.476759" y="288.36" style="stroke: #000000; stroke-width: 0.8"/>
      </g>
     </g>
     <g id="text_22">
      <!-- 60 -->
      <g transform="translate(743.114259 302.958438) scale(0.1 -0.1)">
       <use xlink:href="#DejaVuSans-36"/>
       <use xlink:href="#DejaVuSans-30" x="63.623047"/>
      </g>
     </g>
    </g>
    <g id="xtick_12">
     <g id="line2d_43">
      <path d="M 795.383793 288.36 
L 795.383793 38.88 
" clip-path="url(#p81767397ab)" style="fill: none; stroke: #b0b0b0; stroke-width: 0.8; stroke-linecap: square"/>
     </g>
     <g id="line2d_44">
      <g>
       <use xlink:href="#mce456da443" x="795.383793" y="288.36" style="stroke: #000000; stroke-width: 0.8"/>
      </g>
     </g>
     <g id="text_23">
      <!-- 80 -->
      <g transform="translate(789.021293 302.958438) scale(0.1 -0.1)">
       <use xlink:href="#DejaVuSans-38"/>
       <use xlink:href="#DejaVuSans-30" x="63.623047"/>
      </g>
     </g>
    </g>
    <g id="xtick_13">
     <g id="line2d_45">
      <path d="M 841.290827 288.36 
L 841.290827 38.88 
" clip-path="url(#p81767397ab)" style="fill: none; stroke: #b0b0b0; stroke-width: 0.8; stroke-linecap: square"/>
     </g>
     <g id="line2d_46">
      <g>
       <use xlink:href="#mce456da443" x="841.290827" y="288.36" style="stroke: #000000; stroke-width: 0.8"/>
      </g>
     </g>
     <g id="text_24">
      <!-- 100 -->
      <g transform="translate(831.747077 302.958438) scale(0.1 -0.1)">
       <use xlink:href="#DejaVuSans-31"/>
       <use xlink:href="#DejaVuSans-30" x="63.623047"/>
       <use xlink:href="#DejaVuSans-30" x="127.246094"/>
      </g>
     </g>
    </g>
    <g id="xtick_14">
     <g id="line2d_47">
      <path d="M 887.197861 288.36 
L 887.197861 38.88 
" clip-path="url(#p81767397ab)" style="fill: none; stroke: #b0b0b0; stroke-width: 0.8; stroke-linecap: square"/>
     </g>
     <g id="line2d_48">
      <g>
       <use xlink:href="#mce456da443" x="887.197861" y="288.36" style="stroke: #000000; stroke-width: 0.8"/>
      </g>
     </g>
     <g id="text_25">
      <!-- 120 -->
      <g transform="translate(877.654111 302.958438) scale(0.1 -0.1)">
       <use xlink:href="#DejaVuSans-31"/>
       <use xlink:href="#DejaVuSans-32" x="63.623047"/>
       <use xlink:href="#DejaVuSans-30" x="127.246094"/>
      </g>
     </g>
    </g>
   </g>
   <g id="matplotlib.axis_4">
    <g id="ytick_7">
     <g id="line2d_49">
      <path d="M 573.882353 279.12 
L 902.117647 279.12 
" clip-path="url(#p81767397ab)" style="fill: none; stroke: #b0b0b0; stroke-width: 0.8; stroke-linecap: square"/>
     </g>
     <g id="line2d_50">
      <g>
       <use xlink:href="#maa0e709e7e" x="573.882353" y="279.12" style="stroke: #000000; stroke-width: 0.8"/>
      </g>
     </g>
     <g id="text_26">
      <!-- 0 -->
      <g transform="translate(560.519853 282.919219) scale(0.1 -0.1)">
       <use xlink:href="#DejaVuSans-30"/>
      </g>
     </g>
    </g>
    <g id="ytick_8">
     <g id="line2d_51">
      <path d="M 573.882353 232.92 
L 902.117647 232.92 
" clip-path="url(#p81767397ab)" style="fill: none; stroke: #b0b0b0; stroke-width: 0.8; stroke-linecap: square"/>
     </g>
     <g id="line2d_52">
      <g>
       <use xlink:href="#maa0e709e7e" x="573.882353" y="232.92" style="stroke: #000000; stroke-width: 0.8"/>
      </g>
     </g>
     <g id="text_27">
      <!-- 10 -->
      <g transform="translate(554.157353 236.719219) scale(0.1 -0.1)">
       <use xlink:href="#DejaVuSans-31"/>
       <use xlink:href="#DejaVuSans-30" x="63.623047"/>
      </g>
     </g>
    </g>
    <g id="ytick_9">
     <g id="line2d_53">
      <path d="M 573.882353 186.72 
L 902.117647 186.72 
" clip-path="url(#p81767397ab)" style="fill: none; stroke: #b0b0b0; stroke-width: 0.8; stroke-linecap: square"/>
     </g>
     <g id="line2d_54">
      <g>
       <use xlink:href="#maa0e709e7e" x="573.882353" y="186.72" style="stroke: #000000; stroke-width: 0.8"/>
      </g>
     </g>
     <g id="text_28">
      <!-- 20 -->
      <g transform="translate(554.157353 190.519219) scale(0.1 -0.1)">
       <use xlink:href="#DejaVuSans-32"/>
       <use xlink:href="#DejaVuSans-30" x="63.623047"/>
      </g>
     </g>
    </g>
    <g id="ytick_10">
     <g id="line2d_55">
      <path d="M 573.882353 140.52 
L 902.117647 140.52 
" clip-path="url(#p81767397ab)" style="fill: none; stroke: #b0b0b0; stroke-width: 0.8; stroke-linecap: square"/>
     </g>
     <g id="line2d_56">
      <g>
       <use xlink:href="#maa0e709e7e" x="573.882353" y="140.52" style="stroke: #000000; stroke-width: 0.8"/>
      </g>
     </g>
     <g id="text_29">
      <!-- 30 -->
      <g transform="translate(554.157353 144.319219) scale(0.1 -0.1)">
       <use xlink:href="#DejaVuSans-33"/>
       <use xlink:href="#DejaVuSans-30" x="63.623047"/>
      </g>
     </g>
    </g>
    <g id="ytick_11">
     <g id="line2d_57">
      <path d="M 573.882353 94.32 
L 902.117647 94.32 
" clip-path="url(#p81767397ab)" style="fill: none; stroke: #b0b0b0; stroke-width: 0.8; stroke-linecap: square"/>
     </g>
     <g id="line2d_58">
      <g>
       <use xlink:href="#maa0e709e7e" x="573.882353" y="94.32" style="stroke: #000000; stroke-width: 0.8"/>
      </g>
     </g>
     <g id="text_30">
      <!-- 40 -->
      <g transform="translate(554.157353 98.119219) scale(0.1 -0.1)">
       <use xlink:href="#DejaVuSans-34"/>
       <use xlink:href="#DejaVuSans-30" x="63.623047"/>
      </g>
     </g>
    </g>
    <g id="ytick_12">
     <g id="line2d_59">
      <path d="M 573.882353 48.12 
L 902.117647 48.12 
" clip-path="url(#p81767397ab)" style="fill: none; stroke: #b0b0b0; stroke-width: 0.8; stroke-linecap: square"/>
     </g>
     <g id="line2d_60">
      <g>
       <use xlink:href="#maa0e709e7e" x="573.882353" y="48.12" style="stroke: #000000; stroke-width: 0.8"/>
      </g>
     </g>
     <g id="text_31">
      <!-- 50 -->
      <g transform="translate(554.157353 51.919219) scale(0.1 -0.1)">
       <use xlink:href="#DejaVuSans-35"/>
       <use xlink:href="#DejaVuSans-30" x="63.623047"/>
      </g>
     </g>
    </g>
   </g>
   <g id="line2d_61">
    <path d="M 588.802139 163.62 
L 887.197861 163.62 
" clip-path="url(#p81767397ab)" style="fill: none; stroke-dasharray: 1.5,2.475; stroke-dashoffset: 0; stroke: #808080; stroke-width: 1.5"/>
   </g>
   <g id="line2d_62">
    <path d="M 829.814068 325 
L 829.814068 -1 
" clip-path="url(#p81767397ab)" style="fill: none; stroke-dasharray: 5.55,2.4; stroke-dashoffset: 0; stroke: #ff0000; stroke-opacity: 0.3; stroke-width: 1.5"/>
   </g>
   <g id="line2d_63">
    <path d="M 642.823551 279.12 
L 644.828271 277.941062 
L 646.832991 276.762124 
L 648.837711 275.583186 
L 650.842431 274.404248 
L 652.847151 273.22531 
L 654.851871 272.046372 
L 656.856591 270.867434 
L 658.861311 269.688496 
L 660.866031 268.509558 
L 662.870751 267.33062 
L 664.875471 266.151681 
L 666.880191 264.972743 
L 668.884911 263.793805 
L 670.88963 262.614867 
L 672.89435 261.435929 
L 674.89907 260.256991 
L 676.90379 259.078053 
L 678.90851 257.899115 
L 680.91323 256.720177 
L 682.91795 255.541239 
L 684.92267 254.362301 
L 686.92739 253.183363 
L 688.93211 252.004425 
L 690.93683 250.825487 
L 692.94155 249.646549 
L 694.94627 248.467611 
L 696.95099 247.288673 
L 698.95571 246.109735 
L 700.96043 244.930797 
L 702.965149 243.751859 
L 704.969869 242.57292 
L 706.974589 241.393982 
L 708.979309 240.215044 
L 710.984029 239.036106 
L 712.988749 237.857168 
L 714.993469 236.67823 
L 716.998189 235.499292 
L 719.002909 234.320354 
L 721.007629 233.141416 
L 723.012349 231.962478 
L 725.017069 230.78354 
L 727.021789 229.604602 
L 729.026509 228.425664 
L 731.031229 227.246726 
L 733.035949 226.067788 
L 735.040668 224.88885 
L 737.045388 223.709912 
L 739.050108 222.530974 
L 741.054828 221.352036 
L 743.059548 220.173098 
L 745.064268 218.99416 
L 747.068988 217.815221 
L 749.073708 216.636283 
L 751.078428 215.457345 
L 753.083148 214.278407 
L 755.087868 213.099469 
L 757.092588 211.920531 
L 759.097308 210.741593 
L 761.102028 209.5623 
L 763.106748 208.372498 
L 765.111468 207.167096 
L 767.116187 205.945461 
L 769.120907 204.706921 
L 771.125627 203.450754 
L 773.130347 202.176184 
L 775.135067 200.882378 
L 777.139787 199.568439 
L 779.144507 198.233396 
L 781.149227 196.876198 
L 783.153947 195.495704 
L 785.158667 194.090672 
L 787.163387 192.659745 
L 789.168107 191.201436 
L 791.172827 189.71411 
L 793.177547 188.195963 
L 795.182267 186.644996 
L 797.186987 185.058983 
L 799.191706 183.435435 
L 801.196426 181.771554 
L 803.201146 180.064177 
L 805.205866 178.309702 
L 807.210586 176.504002 
L 809.215306 174.64231 
L 811.220026 172.71907 
L 813.224746 170.727741 
L 815.229466 168.660536 
L 817.234186 166.508056 
L 819.238906 164.258788 
L 821.243626 161.898369 
L 823.248346 159.408484 
L 825.253066 156.765162 
L 827.257786 153.935967 
L 829.262506 150.87512 
L 831.267225 147.514245 
L 833.271945 143.74278 
L 835.276665 139.358935 
L 837.281385 133.90763 
L 839.286105 125.657977 
L 841.290825 48.12 
" clip-path="url(#p81767397ab)" style="fill: none; stroke: #1f77b4; stroke-width: 1.5; stroke-linecap: square"/>
   </g>
   <g id="line2d_64">
    <path d="M 638.523283 279.12 
L 640.835497 277.724723 
L 643.14771 276.329447 
L 645.459923 274.93417 
L 647.772137 273.538894 
L 650.08435 272.143617 
L 652.396564 270.748341 
L 654.708777 269.353064 
L 657.02099 267.957788 
L 659.333204 266.562511 
L 661.645417 265.167234 
L 663.957631 263.771958 
L 666.269844 262.376681 
L 668.582057 260.981405 
L 670.894271 259.586128 
L 673.206484 258.190852 
L 675.518697 256.795575 
L 677.830911 255.400299 
L 680.143124 254.005022 
L 682.455338 252.609746 
L 684.767551 251.214469 
L 687.079764 249.819192 
L 689.391978 248.423916 
L 691.704191 247.028639 
L 694.016405 245.633363 
L 696.328618 244.238086 
L 698.640831 242.84281 
L 700.953045 241.447533 
L 703.265258 240.052257 
L 705.577472 238.65698 
L 707.889685 237.261703 
L 710.201898 235.866427 
L 712.514112 234.47115 
L 714.826325 233.075874 
L 717.138539 231.680597 
L 719.450752 230.285321 
L 721.762965 228.890044 
L 724.075179 227.494768 
L 726.387392 226.099491 
L 728.699606 224.704214 
L 731.011819 223.308938 
L 733.324032 221.913661 
L 735.636246 220.518385 
L 737.948459 219.123108 
L 740.260673 217.727832 
L 742.572886 216.332555 
L 744.885099 214.937279 
L 747.197313 213.542002 
L 749.509526 212.146725 
L 751.82174 210.751449 
L 754.133953 209.355233 
L 756.446166 207.94561 
L 758.75838 206.518186 
L 761.070593 205.072269 
L 763.382807 203.607122 
L 765.69502 202.121955 
L 768.007233 200.615926 
L 770.319447 199.088129 
L 772.63166 197.537592 
L 774.943874 195.963269 
L 777.256087 194.36403 
L 779.5683 192.738654 
L 781.880514 191.085815 
L 784.192727 189.404073 
L 786.504941 187.691855 
L 788.817154 185.947444 
L 791.129367 184.16895 
L 793.441581 182.354295 
L 795.753794 180.501179 
L 798.066008 178.607048 
L 800.378221 176.669052 
L 802.690434 174.683994 
L 805.002648 172.648268 
L 807.314861 170.557787 
L 809.627074 168.407877 
L 811.939288 166.193162 
L 814.251501 163.907404 
L 816.563715 161.543292 
L 818.875928 159.09217 
L 821.188141 156.543659 
L 823.500355 153.885136 
L 825.812568 151.100992 
L 828.124782 148.171534 
L 830.436995 145.071312 
L 832.749208 141.76645 
L 835.061422 138.210125 
L 837.373635 134.334359 
L 839.685849 130.03359 
L 841.998062 125.126936 
L 844.310275 119.250834 
L 846.622489 112.204734 
L 848.934702 105.084208 
L 851.246916 97.963682 
L 853.559129 90.843156 
L 855.871342 83.72263 
L 858.183556 76.602104 
L 860.495769 69.481578 
L 862.807983 62.361052 
L 865.120196 55.240526 
L 867.432409 48.12 
" clip-path="url(#p81767397ab)" style="fill: none; stroke-dasharray: 5.55,2.4; stroke-dashoffset: 0; stroke: #ff7f0e; stroke-width: 1.5"/>
   </g>
   <g id="line2d_65">
    <path d="M 637.979692 279.12 
L 640.083895 277.885311 
L 642.188097 276.650621 
L 644.2923 275.415932 
L 646.396502 274.181242 
L 648.500705 272.946553 
L 650.604907 271.711863 
L 652.70911 270.477174 
L 654.813312 269.242485 
L 656.917515 268.007795 
L 659.021717 266.773106 
L 661.12592 265.538416 
L 663.230122 264.303727 
L 665.334325 263.069037 
L 667.438527 261.834348 
L 669.54273 260.599659 
L 671.646932 259.364969 
L 673.751135 258.13028 
L 675.855337 256.89559 
L 677.95954 255.660901 
L 680.063742 254.426211 
L 682.167945 253.191522 
L 684.272147 251.956833 
L 686.37635 250.722143 
L 688.480552 249.487454 
L 690.584754 248.252764 
L 692.688957 247.018075 
L 694.793159 245.783385 
L 696.897362 244.548696 
L 699.001564 243.314007 
L 701.105767 242.079317 
L 703.209969 240.844628 
L 705.314172 239.609938 
L 707.418374 238.375249 
L 709.522577 237.140559 
L 711.626779 235.90587 
L 713.730982 234.671181 
L 715.835184 233.436491 
L 717.939387 232.201802 
L 720.043589 230.967112 
L 722.147792 229.732423 
L 724.251994 228.497734 
L 726.356197 227.263044 
L 728.460399 226.028355 
L 730.564602 224.793665 
L 732.668804 223.558976 
L 734.773007 222.324286 
L 736.877209 221.089597 
L 738.981412 219.854908 
L 741.085614 218.620218 
L 743.189817 217.385529 
L 745.294019 216.150839 
L 747.398222 214.91615 
L 749.502424 213.68146 
L 751.606627 212.446771 
L 753.710829 211.212082 
L 755.815032 209.977392 
L 757.919234 208.736723 
L 760.023437 207.480114 
L 762.127639 206.206798 
L 764.231842 204.91609 
L 766.336044 203.607258 
L 768.440247 202.279517 
L 770.544449 200.932021 
L 772.648652 199.563863 
L 774.752854 198.174061 
L 776.857056 196.761555 
L 778.961259 195.325194 
L 781.065461 193.863727 
L 783.169664 192.37579 
L 785.273866 190.85989 
L 787.378069 189.314389 
L 789.482271 187.737481 
L 791.586474 186.127171 
L 793.690676 184.481242 
L 795.794879 182.797219 
L 797.899081 181.072329 
L 800.003284 179.303444 
L 802.107486 177.487015 
L 804.211689 175.618989 
L 806.315891 173.694701 
L 808.420094 171.708741 
L 810.524296 169.654768 
L 812.628499 167.525275 
L 814.732701 165.311266 
L 816.836904 163.001798 
L 818.941106 160.583343 
L 821.045309 158.038843 
L 823.149511 155.346256 
L 825.253714 152.47626 
L 827.357916 149.388347 
L 829.462119 146.023755 
L 831.566321 142.291331 
L 833.670524 138.035146 
L 835.774726 132.942691 
L 837.878929 126.155697 
L 839.983131 111.648928 
L 842.087334 90.472618 
L 844.191536 69.296309 
L 846.295739 48.12 
" clip-path="url(#p81767397ab)" style="fill: none; stroke-dasharray: 5.55,2.4; stroke-dashoffset: 0; stroke: #2ca02c; stroke-width: 1.5"/>
   </g>
   <g id="patch_9">
    <path d="M 573.882353 288.36 
L 573.882353 38.88 
" style="fill: none; stroke: #000000; stroke-width: 0.8; stroke-linejoin: miter; stroke-linecap: square"/>
   </g>
   <g id="patch_10">
    <path d="M 902.117647 288.36 
L 902.117647 38.88 
" style="fill: none; stroke: #000000; stroke-width: 0.8; stroke-linejoin: miter; stroke-linecap: square"/>
   </g>
   <g id="patch_11">
    <path d="M 573.882353 288.36 
L 902.117647 288.36 
" style="fill: none; stroke: #000000; stroke-width: 0.8; stroke-linejoin: miter; stroke-linecap: square"/>
   </g>
   <g id="patch_12">
    <path d="M 573.882353 38.88 
L 902.117647 38.88 
" style="fill: none; stroke: #000000; stroke-width: 0.8; stroke-linejoin: miter; stroke-linecap: square"/>
   </g>
   <g id="text_32">
    <!--  Block: 1 -->
    <g transform="translate(712.119375 32.88) scale(0.12 -0.12)">
     <use xlink:href="#DejaVuSans-20"/>
     <use xlink:href="#DejaVuSans-42" x="31.787109"/>
     <use xlink:href="#DejaVuSans-6c" x="100.390625"/>
     <use xlink:href="#DejaVuSans-6f" x="128.173828"/>
     <use xlink:href="#DejaVuSans-63" x="189.355469"/>
     <use xlink:href="#DejaVuSans-6b" x="244.335938"/>
     <use xlink:href="#DejaVuSans-3a" x="302.246094"/>
     <use xlink:href="#DejaVuSans-20" x="335.9375"/>
     <use xlink:href="#DejaVuSans-31" x="367.724609"/>
    </g>
   </g>
   <g id="legend_2">
    <g id="patch_13">
     <path d="M 580.882353 106.14875 
L 712.082353 106.14875 
Q 714.082353 106.14875 714.082353 104.14875 
L 714.082353 45.88 
Q 714.082353 43.88 712.082353 43.88 
L 580.882353 43.88 
Q 578.882353 43.88 578.882353 45.88 
L 578.882353 104.14875 
Q 578.882353 106.14875 580.882353 106.14875 
z
" style="fill: #ffffff; opacity: 0.8; stroke: #cccccc; stroke-linejoin: miter"/>
    </g>
    <g id="PathCollection_4">
     <g>
      <use xlink:href="#m5a9d9f0840" x="592.882353" y="52.853438" style="stroke: #000000"/>
     </g>
    </g>
    <g id="text_33">
     <!-- Data -->
     <g transform="translate(610.882353 55.478438) scale(0.1 -0.1)">
      <use xlink:href="#DejaVuSans-44"/>
      <use xlink:href="#DejaVuSans-61" x="77.001953"/>
      <use xlink:href="#DejaVuSans-74" x="138.28125"/>
      <use xlink:href="#DejaVuSans-61" x="177.490234"/>
     </g>
    </g>
    <g id="line2d_66">
     <path d="M 582.882353 66.656563 
L 592.882353 66.656563 
L 602.882353 66.656563 
" style="fill: none; stroke: #1f77b4; stroke-width: 1.5; stroke-linecap: square"/>
    </g>
    <g id="text_34">
     <!-- Artc e:0.2268 -->
     <g transform="translate(610.882353 70.156563) scale(0.1 -0.1)">
      <use xlink:href="#DejaVuSans-41"/>
      <use xlink:href="#DejaVuSans-72" x="68.408203"/>
      <use xlink:href="#DejaVuSans-74" x="109.521484"/>
      <use xlink:href="#DejaVuSans-63" x="148.730469"/>
      <use xlink:href="#DejaVuSans-20" x="203.710938"/>
      <use xlink:href="#DejaVuSans-65" x="235.498047"/>
      <use xlink:href="#DejaVuSans-3a" x="297.021484"/>
      <use xlink:href="#DejaVuSans-30" x="330.712891"/>
      <use xlink:href="#DejaVuSans-2e" x="394.335938"/>
      <use xlink:href="#DejaVuSans-32" x="426.123047"/>
      <use xlink:href="#DejaVuSans-32" x="489.746094"/>
      <use xlink:href="#DejaVuSans-36" x="553.369141"/>
      <use xlink:href="#DejaVuSans-38" x="616.992188"/>
     </g>
    </g>
    <g id="line2d_67">
     <path d="M 582.882353 81.334688 
L 592.882353 81.334688 
L 602.882353 81.334688 
" style="fill: none; stroke-dasharray: 5.55,2.4; stroke-dashoffset: 0; stroke: #ff7f0e; stroke-width: 1.5"/>
    </g>
    <g id="text_35">
     <!-- NEL_BTUX e:0.2402 -->
     <g transform="translate(610.882353 84.834688) scale(0.1 -0.1)">
      <use xlink:href="#DejaVuSans-4e"/>
      <use xlink:href="#DejaVuSans-45" x="74.804688"/>
      <use xlink:href="#DejaVuSans-4c" x="137.988281"/>
      <use xlink:href="#DejaVuSans-5f" x="193.701172"/>
      <use xlink:href="#DejaVuSans-42" x="243.701172"/>
      <use xlink:href="#DejaVuSans-54" x="312.304688"/>
      <use xlink:href="#DejaVuSans-55" x="373.388672"/>
      <use xlink:href="#DejaVuSans-58" x="446.582031"/>
      <use xlink:href="#DejaVuSans-20" x="515.087891"/>
      <use xlink:href="#DejaVuSans-65" x="546.875"/>
      <use xlink:href="#DejaVuSans-3a" x="608.398438"/>
      <use xlink:href="#DejaVuSans-30" x="642.089844"/>
      <use xlink:href="#DejaVuSans-2e" x="705.712891"/>
      <use xlink:href="#DejaVuSans-32" x="737.5"/>
      <use xlink:href="#DejaVuSans-34" x="801.123047"/>
      <use xlink:href="#DejaVuSans-30" x="864.746094"/>
      <use xlink:href="#DejaVuSans-32" x="928.369141"/>
     </g>
    </g>
    <g id="line2d_68">
     <path d="M 582.882353 96.290938 
L 592.882353 96.290938 
L 602.882353 96.290938 
" style="fill: none; stroke-dasharray: 5.55,2.4; stroke-dashoffset: 0; stroke: #2ca02c; stroke-width: 1.5"/>
    </g>
    <g id="text_36">
     <!-- NEL_BTX e:0.2318 -->
     <g transform="translate(610.882353 99.790938) scale(0.1 -0.1)">
      <use xlink:href="#DejaVuSans-4e"/>
      <use xlink:href="#DejaVuSans-45" x="74.804688"/>
      <use xlink:href="#DejaVuSans-4c" x="137.988281"/>
      <use xlink:href="#DejaVuSans-5f" x="193.701172"/>
      <use xlink:href="#DejaVuSans-42" x="243.701172"/>
      <use xlink:href="#DejaVuSans-54" x="312.304688"/>
      <use xlink:href="#DejaVuSans-58" x="373.388672"/>
      <use xlink:href="#DejaVuSans-20" x="441.894531"/>
      <use xlink:href="#DejaVuSans-65" x="473.681641"/>
      <use xlink:href="#DejaVuSans-3a" x="535.205078"/>
      <use xlink:href="#DejaVuSans-30" x="568.896484"/>
      <use xlink:href="#DejaVuSans-2e" x="632.519531"/>
      <use xlink:href="#DejaVuSans-32" x="664.306641"/>
      <use xlink:href="#DejaVuSans-33" x="727.929688"/>
      <use xlink:href="#DejaVuSans-31" x="791.552734"/>
      <use xlink:href="#DejaVuSans-38" x="855.175781"/>
     </g>
    </g>
   </g>
  </g>
  <g id="axes_3">
   <g id="patch_14">
    <path d="M 967.764706 288.36 
L 1296 288.36 
L 1296 38.88 
L 967.764706 38.88 
z
" style="fill: #ffffff"/>
   </g>
   <g id="PathCollection_5">
    <g clip-path="url(#p2db53bc5d8)">
     <use xlink:href="#m5a9d9f0840" x="1177.789387" y="186.72" style="stroke: #000000"/>
     <use xlink:href="#m5a9d9f0840" x="1200.742904" y="186.72" style="stroke: #000000"/>
     <use xlink:href="#m5a9d9f0840" x="1143.359111" y="232.92" style="stroke: #000000"/>
     <use xlink:href="#m5a9d9f0840" x="1223.696421" y="140.52" style="stroke: #000000"/>
     <use xlink:href="#m5a9d9f0840" x="1108.928836" y="232.92" style="stroke: #000000"/>
     <use xlink:href="#m5a9d9f0840" x="1074.49856" y="256.02" style="stroke: #000000"/>
     <use xlink:href="#m5a9d9f0840" x="1040.068285" y="279.12" style="stroke: #000000"/>
     <use xlink:href="#m5a9d9f0840" x="1051.545043" y="256.02" style="stroke: #000000"/>
     <use xlink:href="#m5a9d9f0840" x="1094.582888" y="232.92" style="stroke: #000000"/>
     <use xlink:href="#m5a9d9f0840" x="1180.657429" y="186.72" style="stroke: #000000"/>
     <use xlink:href="#m5a9d9f0840" x="1223.696421" y="140.52" style="stroke: #000000"/>
     <use xlink:href="#m5a9d9f0840" x="1051.545273" y="232.92" style="stroke: #000000"/>
     <use xlink:href="#m5a9d9f0840" x="1137.620503" y="232.92" style="stroke: #000000"/>
     <use xlink:href="#m5a9d9f0840" x="1049.078688" y="232.92" style="stroke: #000000"/>
     <use xlink:href="#m5a9d9f0840" x="1180.041816" y="232.92" style="stroke: #000000"/>
     <use xlink:href="#m5a9d9f0840" x="1136.387669" y="232.92" style="stroke: #000000"/>
     <use xlink:href="#m5a9d9f0840" x="1092.733064" y="256.02" style="stroke: #000000"/>
     <use xlink:href="#m5a9d9f0840" x="1223.696421" y="94.32" style="stroke: #000000"/>
    </g>
   </g>
   <g id="matplotlib.axis_5">
    <g id="xtick_15">
     <g id="line2d_69">
      <path d="M 1005.638009 288.36 
L 1005.638009 38.88 
" clip-path="url(#p2db53bc5d8)" style="fill: none; stroke: #b0b0b0; stroke-width: 0.8; stroke-linecap: square"/>
     </g>
     <g id="line2d_70">
      <g>
       <use xlink:href="#mce456da443" x="1005.638009" y="288.36" style="stroke: #000000; stroke-width: 0.8"/>
      </g>
     </g>
     <g id="text_37">
      <!-- 0 -->
      <g transform="translate(1002.456759 302.958438) scale(0.1 -0.1)">
       <use xlink:href="#DejaVuSans-30"/>
      </g>
     </g>
    </g>
    <g id="xtick_16">
     <g id="line2d_71">
      <path d="M 1051.545043 288.36 
L 1051.545043 38.88 
" clip-path="url(#p2db53bc5d8)" style="fill: none; stroke: #b0b0b0; stroke-width: 0.8; stroke-linecap: square"/>
     </g>
     <g id="line2d_72">
      <g>
       <use xlink:href="#mce456da443" x="1051.545043" y="288.36" style="stroke: #000000; stroke-width: 0.8"/>
      </g>
     </g>
     <g id="text_38">
      <!-- 20 -->
      <g transform="translate(1045.182543 302.958438) scale(0.1 -0.1)">
       <use xlink:href="#DejaVuSans-32"/>
       <use xlink:href="#DejaVuSans-30" x="63.623047"/>
      </g>
     </g>
    </g>
    <g id="xtick_17">
     <g id="line2d_73">
      <path d="M 1097.452077 288.36 
L 1097.452077 38.88 
" clip-path="url(#p2db53bc5d8)" style="fill: none; stroke: #b0b0b0; stroke-width: 0.8; stroke-linecap: square"/>
     </g>
     <g id="line2d_74">
      <g>
       <use xlink:href="#mce456da443" x="1097.452077" y="288.36" style="stroke: #000000; stroke-width: 0.8"/>
      </g>
     </g>
     <g id="text_39">
      <!-- 40 -->
      <g transform="translate(1091.089577 302.958438) scale(0.1 -0.1)">
       <use xlink:href="#DejaVuSans-34"/>
       <use xlink:href="#DejaVuSans-30" x="63.623047"/>
      </g>
     </g>
    </g>
    <g id="xtick_18">
     <g id="line2d_75">
      <path d="M 1143.359111 288.36 
L 1143.359111 38.88 
" clip-path="url(#p2db53bc5d8)" style="fill: none; stroke: #b0b0b0; stroke-width: 0.8; stroke-linecap: square"/>
     </g>
     <g id="line2d_76">
      <g>
       <use xlink:href="#mce456da443" x="1143.359111" y="288.36" style="stroke: #000000; stroke-width: 0.8"/>
      </g>
     </g>
     <g id="text_40">
      <!-- 60 -->
      <g transform="translate(1136.996611 302.958438) scale(0.1 -0.1)">
       <use xlink:href="#DejaVuSans-36"/>
       <use xlink:href="#DejaVuSans-30" x="63.623047"/>
      </g>
     </g>
    </g>
    <g id="xtick_19">
     <g id="line2d_77">
      <path d="M 1189.266146 288.36 
L 1189.266146 38.88 
" clip-path="url(#p2db53bc5d8)" style="fill: none; stroke: #b0b0b0; stroke-width: 0.8; stroke-linecap: square"/>
     </g>
     <g id="line2d_78">
      <g>
       <use xlink:href="#mce456da443" x="1189.266146" y="288.36" style="stroke: #000000; stroke-width: 0.8"/>
      </g>
     </g>
     <g id="text_41">
      <!-- 80 -->
      <g transform="translate(1182.903646 302.958438) scale(0.1 -0.1)">
       <use xlink:href="#DejaVuSans-38"/>
       <use xlink:href="#DejaVuSans-30" x="63.623047"/>
      </g>
     </g>
    </g>
    <g id="xtick_20">
     <g id="line2d_79">
      <path d="M 1235.17318 288.36 
L 1235.17318 38.88 
" clip-path="url(#p2db53bc5d8)" style="fill: none; stroke: #b0b0b0; stroke-width: 0.8; stroke-linecap: square"/>
     </g>
     <g id="line2d_80">
      <g>
       <use xlink:href="#mce456da443" x="1235.17318" y="288.36" style="stroke: #000000; stroke-width: 0.8"/>
      </g>
     </g>
     <g id="text_42">
      <!-- 100 -->
      <g transform="translate(1225.62943 302.958438) scale(0.1 -0.1)">
       <use xlink:href="#DejaVuSans-31"/>
       <use xlink:href="#DejaVuSans-30" x="63.623047"/>
       <use xlink:href="#DejaVuSans-30" x="127.246094"/>
      </g>
     </g>
    </g>
    <g id="xtick_21">
     <g id="line2d_81">
      <path d="M 1281.080214 288.36 
L 1281.080214 38.88 
" clip-path="url(#p2db53bc5d8)" style="fill: none; stroke: #b0b0b0; stroke-width: 0.8; stroke-linecap: square"/>
     </g>
     <g id="line2d_82">
      <g>
       <use xlink:href="#mce456da443" x="1281.080214" y="288.36" style="stroke: #000000; stroke-width: 0.8"/>
      </g>
     </g>
     <g id="text_43">
      <!-- 120 -->
      <g transform="translate(1271.536464 302.958438) scale(0.1 -0.1)">
       <use xlink:href="#DejaVuSans-31"/>
       <use xlink:href="#DejaVuSans-32" x="63.623047"/>
       <use xlink:href="#DejaVuSans-30" x="127.246094"/>
      </g>
     </g>
    </g>
    <g id="text_44">
     <!-- Level [dB SPL] -->
     <g transform="translate(1096.022978 316.636563) scale(0.1 -0.1)">
      <defs>
       <path id="DejaVuSans-76" d="M 191 3500 
L 800 3500 
L 1894 563 
L 2988 3500 
L 3597 3500 
L 2284 0 
L 1503 0 
L 191 3500 
z
" transform="scale(0.015625)"/>
       <path id="DejaVuSans-5b" d="M 550 4863 
L 1875 4863 
L 1875 4416 
L 1125 4416 
L 1125 -397 
L 1875 -397 
L 1875 -844 
L 550 -844 
L 550 4863 
z
" transform="scale(0.015625)"/>
       <path id="DejaVuSans-64" d="M 2906 2969 
L 2906 4863 
L 3481 4863 
L 3481 0 
L 2906 0 
L 2906 525 
Q 2725 213 2448 61 
Q 2172 -91 1784 -91 
Q 1150 -91 751 415 
Q 353 922 353 1747 
Q 353 2572 751 3078 
Q 1150 3584 1784 3584 
Q 2172 3584 2448 3432 
Q 2725 3281 2906 2969 
z
M 947 1747 
Q 947 1113 1208 752 
Q 1469 391 1925 391 
Q 2381 391 2643 752 
Q 2906 1113 2906 1747 
Q 2906 2381 2643 2742 
Q 2381 3103 1925 3103 
Q 1469 3103 1208 2742 
Q 947 2381 947 1747 
z
" transform="scale(0.015625)"/>
       <path id="DejaVuSans-53" d="M 3425 4513 
L 3425 3897 
Q 3066 4069 2747 4153 
Q 2428 4238 2131 4238 
Q 1616 4238 1336 4038 
Q 1056 3838 1056 3469 
Q 1056 3159 1242 3001 
Q 1428 2844 1947 2747 
L 2328 2669 
Q 3034 2534 3370 2195 
Q 3706 1856 3706 1288 
Q 3706 609 3251 259 
Q 2797 -91 1919 -91 
Q 1588 -91 1214 -16 
Q 841 59 441 206 
L 441 856 
Q 825 641 1194 531 
Q 1563 422 1919 422 
Q 2459 422 2753 634 
Q 3047 847 3047 1241 
Q 3047 1584 2836 1778 
Q 2625 1972 2144 2069 
L 1759 2144 
Q 1053 2284 737 2584 
Q 422 2884 422 3419 
Q 422 4038 858 4394 
Q 1294 4750 2059 4750 
Q 2388 4750 2728 4690 
Q 3069 4631 3425 4513 
z
" transform="scale(0.015625)"/>
       <path id="DejaVuSans-50" d="M 1259 4147 
L 1259 2394 
L 2053 2394 
Q 2494 2394 2734 2622 
Q 2975 2850 2975 3272 
Q 2975 3691 2734 3919 
Q 2494 4147 2053 4147 
L 1259 4147 
z
M 628 4666 
L 2053 4666 
Q 2838 4666 3239 4311 
Q 3641 3956 3641 3272 
Q 3641 2581 3239 2228 
Q 2838 1875 2053 1875 
L 1259 1875 
L 1259 0 
L 628 0 
L 628 4666 
z
" transform="scale(0.015625)"/>
       <path id="DejaVuSans-5d" d="M 1947 4863 
L 1947 -844 
L 622 -844 
L 622 -397 
L 1369 -397 
L 1369 4416 
L 622 4416 
L 622 4863 
L 1947 4863 
z
" transform="scale(0.015625)"/>
      </defs>
      <use xlink:href="#DejaVuSans-4c"/>
      <use xlink:href="#DejaVuSans-65" x="53.962891"/>
      <use xlink:href="#DejaVuSans-76" x="115.486328"/>
      <use xlink:href="#DejaVuSans-65" x="174.666016"/>
      <use xlink:href="#DejaVuSans-6c" x="236.189453"/>
      <use xlink:href="#DejaVuSans-20" x="263.972656"/>
      <use xlink:href="#DejaVuSans-5b" x="295.759766"/>
      <use xlink:href="#DejaVuSans-64" x="334.773438"/>
      <use xlink:href="#DejaVuSans-42" x="398.25"/>
      <use xlink:href="#DejaVuSans-20" x="466.853516"/>
      <use xlink:href="#DejaVuSans-53" x="498.640625"/>
      <use xlink:href="#DejaVuSans-50" x="562.117188"/>
      <use xlink:href="#DejaVuSans-4c" x="622.419922"/>
      <use xlink:href="#DejaVuSans-5d" x="678.132812"/>
     </g>
    </g>
   </g>
   <g id="matplotlib.axis_6">
    <g id="ytick_13">
     <g id="line2d_83">
      <path d="M 967.764706 279.12 
L 1296 279.12 
" clip-path="url(#p2db53bc5d8)" style="fill: none; stroke: #b0b0b0; stroke-width: 0.8; stroke-linecap: square"/>
     </g>
     <g id="line2d_84">
      <g>
       <use xlink:href="#maa0e709e7e" x="967.764706" y="279.12" style="stroke: #000000; stroke-width: 0.8"/>
      </g>
     </g>
     <g id="text_45">
      <!-- 0 -->
      <g transform="translate(954.402206 282.919219) scale(0.1 -0.1)">
       <use xlink:href="#DejaVuSans-30"/>
      </g>
     </g>
    </g>
    <g id="ytick_14">
     <g id="line2d_85">
      <path d="M 967.764706 232.92 
L 1296 232.92 
" clip-path="url(#p2db53bc5d8)" style="fill: none; stroke: #b0b0b0; stroke-width: 0.8; stroke-linecap: square"/>
     </g>
     <g id="line2d_86">
      <g>
       <use xlink:href="#maa0e709e7e" x="967.764706" y="232.92" style="stroke: #000000; stroke-width: 0.8"/>
      </g>
     </g>
     <g id="text_46">
      <!-- 10 -->
      <g transform="translate(948.039706 236.719219) scale(0.1 -0.1)">
       <use xlink:href="#DejaVuSans-31"/>
       <use xlink:href="#DejaVuSans-30" x="63.623047"/>
      </g>
     </g>
    </g>
    <g id="ytick_15">
     <g id="line2d_87">
      <path d="M 967.764706 186.72 
L 1296 186.72 
" clip-path="url(#p2db53bc5d8)" style="fill: none; stroke: #b0b0b0; stroke-width: 0.8; stroke-linecap: square"/>
     </g>
     <g id="line2d_88">
      <g>
       <use xlink:href="#maa0e709e7e" x="967.764706" y="186.72" style="stroke: #000000; stroke-width: 0.8"/>
      </g>
     </g>
     <g id="text_47">
      <!-- 20 -->
      <g transform="translate(948.039706 190.519219) scale(0.1 -0.1)">
       <use xlink:href="#DejaVuSans-32"/>
       <use xlink:href="#DejaVuSans-30" x="63.623047"/>
      </g>
     </g>
    </g>
    <g id="ytick_16">
     <g id="line2d_89">
      <path d="M 967.764706 140.52 
L 1296 140.52 
" clip-path="url(#p2db53bc5d8)" style="fill: none; stroke: #b0b0b0; stroke-width: 0.8; stroke-linecap: square"/>
     </g>
     <g id="line2d_90">
      <g>
       <use xlink:href="#maa0e709e7e" x="967.764706" y="140.52" style="stroke: #000000; stroke-width: 0.8"/>
      </g>
     </g>
     <g id="text_48">
      <!-- 30 -->
      <g transform="translate(948.039706 144.319219) scale(0.1 -0.1)">
       <use xlink:href="#DejaVuSans-33"/>
       <use xlink:href="#DejaVuSans-30" x="63.623047"/>
      </g>
     </g>
    </g>
    <g id="ytick_17">
     <g id="line2d_91">
      <path d="M 967.764706 94.32 
L 1296 94.32 
" clip-path="url(#p2db53bc5d8)" style="fill: none; stroke: #b0b0b0; stroke-width: 0.8; stroke-linecap: square"/>
     </g>
     <g id="line2d_92">
      <g>
       <use xlink:href="#maa0e709e7e" x="967.764706" y="94.32" style="stroke: #000000; stroke-width: 0.8"/>
      </g>
     </g>
     <g id="text_49">
      <!-- 40 -->
      <g transform="translate(948.039706 98.119219) scale(0.1 -0.1)">
       <use xlink:href="#DejaVuSans-34"/>
       <use xlink:href="#DejaVuSans-30" x="63.623047"/>
      </g>
     </g>
    </g>
    <g id="ytick_18">
     <g id="line2d_93">
      <path d="M 967.764706 48.12 
L 1296 48.12 
" clip-path="url(#p2db53bc5d8)" style="fill: none; stroke: #b0b0b0; stroke-width: 0.8; stroke-linecap: square"/>
     </g>
     <g id="line2d_94">
      <g>
       <use xlink:href="#maa0e709e7e" x="967.764706" y="48.12" style="stroke: #000000; stroke-width: 0.8"/>
      </g>
     </g>
     <g id="text_50">
      <!-- 50 -->
      <g transform="translate(948.039706 51.919219) scale(0.1 -0.1)">
       <use xlink:href="#DejaVuSans-35"/>
       <use xlink:href="#DejaVuSans-30" x="63.623047"/>
      </g>
     </g>
    </g>
    <g id="text_51">
     <!-- Categorical Units -->
     <g transform="translate(941.960018 206.46375) rotate(-90) scale(0.1 -0.1)">
      <defs>
       <path id="DejaVuSans-43" d="M 4122 4306 
L 4122 3641 
Q 3803 3938 3442 4084 
Q 3081 4231 2675 4231 
Q 1875 4231 1450 3742 
Q 1025 3253 1025 2328 
Q 1025 1406 1450 917 
Q 1875 428 2675 428 
Q 3081 428 3442 575 
Q 3803 722 4122 1019 
L 4122 359 
Q 3791 134 3420 21 
Q 3050 -91 2638 -91 
Q 1578 -91 968 557 
Q 359 1206 359 2328 
Q 359 3453 968 4101 
Q 1578 4750 2638 4750 
Q 3056 4750 3426 4639 
Q 3797 4528 4122 4306 
z
" transform="scale(0.015625)"/>
       <path id="DejaVuSans-67" d="M 2906 1791 
Q 2906 2416 2648 2759 
Q 2391 3103 1925 3103 
Q 1463 3103 1205 2759 
Q 947 2416 947 1791 
Q 947 1169 1205 825 
Q 1463 481 1925 481 
Q 2391 481 2648 825 
Q 2906 1169 2906 1791 
z
M 3481 434 
Q 3481 -459 3084 -895 
Q 2688 -1331 1869 -1331 
Q 1566 -1331 1297 -1286 
Q 1028 -1241 775 -1147 
L 775 -588 
Q 1028 -725 1275 -790 
Q 1522 -856 1778 -856 
Q 2344 -856 2625 -561 
Q 2906 -266 2906 331 
L 2906 616 
Q 2728 306 2450 153 
Q 2172 0 1784 0 
Q 1141 0 747 490 
Q 353 981 353 1791 
Q 353 2603 747 3093 
Q 1141 3584 1784 3584 
Q 2172 3584 2450 3431 
Q 2728 3278 2906 2969 
L 2906 3500 
L 3481 3500 
L 3481 434 
z
" transform="scale(0.015625)"/>
       <path id="DejaVuSans-69" d="M 603 3500 
L 1178 3500 
L 1178 0 
L 603 0 
L 603 3500 
z
M 603 4863 
L 1178 4863 
L 1178 4134 
L 603 4134 
L 603 4863 
z
" transform="scale(0.015625)"/>
       <path id="DejaVuSans-6e" d="M 3513 2113 
L 3513 0 
L 2938 0 
L 2938 2094 
Q 2938 2591 2744 2837 
Q 2550 3084 2163 3084 
Q 1697 3084 1428 2787 
Q 1159 2491 1159 1978 
L 1159 0 
L 581 0 
L 581 3500 
L 1159 3500 
L 1159 2956 
Q 1366 3272 1645 3428 
Q 1925 3584 2291 3584 
Q 2894 3584 3203 3211 
Q 3513 2838 3513 2113 
z
" transform="scale(0.015625)"/>
       <path id="DejaVuSans-73" d="M 2834 3397 
L 2834 2853 
Q 2591 2978 2328 3040 
Q 2066 3103 1784 3103 
Q 1356 3103 1142 2972 
Q 928 2841 928 2578 
Q 928 2378 1081 2264 
Q 1234 2150 1697 2047 
L 1894 2003 
Q 2506 1872 2764 1633 
Q 3022 1394 3022 966 
Q 3022 478 2636 193 
Q 2250 -91 1575 -91 
Q 1294 -91 989 -36 
Q 684 19 347 128 
L 347 722 
Q 666 556 975 473 
Q 1284 391 1588 391 
Q 1994 391 2212 530 
Q 2431 669 2431 922 
Q 2431 1156 2273 1281 
Q 2116 1406 1581 1522 
L 1381 1569 
Q 847 1681 609 1914 
Q 372 2147 372 2553 
Q 372 3047 722 3315 
Q 1072 3584 1716 3584 
Q 2034 3584 2315 3537 
Q 2597 3491 2834 3397 
z
" transform="scale(0.015625)"/>
      </defs>
      <use xlink:href="#DejaVuSans-43"/>
      <use xlink:href="#DejaVuSans-61" x="69.824219"/>
      <use xlink:href="#DejaVuSans-74" x="131.103516"/>
      <use xlink:href="#DejaVuSans-65" x="170.3125"/>
      <use xlink:href="#DejaVuSans-67" x="231.835938"/>
      <use xlink:href="#DejaVuSans-6f" x="295.3125"/>
      <use xlink:href="#DejaVuSans-72" x="356.494141"/>
      <use xlink:href="#DejaVuSans-69" x="397.607422"/>
      <use xlink:href="#DejaVuSans-63" x="425.390625"/>
      <use xlink:href="#DejaVuSans-61" x="480.371094"/>
      <use xlink:href="#DejaVuSans-6c" x="541.650391"/>
      <use xlink:href="#DejaVuSans-20" x="569.433594"/>
      <use xlink:href="#DejaVuSans-55" x="601.220703"/>
      <use xlink:href="#DejaVuSans-6e" x="674.414062"/>
      <use xlink:href="#DejaVuSans-69" x="737.792969"/>
      <use xlink:href="#DejaVuSans-74" x="765.576172"/>
      <use xlink:href="#DejaVuSans-73" x="804.785156"/>
     </g>
    </g>
   </g>
   <g id="line2d_95">
    <path d="M 982.684492 163.62 
L 1281.080214 163.62 
" clip-path="url(#p2db53bc5d8)" style="fill: none; stroke-dasharray: 1.5,2.475; stroke-dashoffset: 0; stroke: #808080; stroke-width: 1.5"/>
   </g>
   <g id="line2d_96">
    <path d="M 1223.696421 325 
L 1223.696421 -1 
" clip-path="url(#p2db53bc5d8)" style="fill: none; stroke-dasharray: 5.55,2.4; stroke-dashoffset: 0; stroke: #ff0000; stroke-opacity: 0.3; stroke-width: 1.5"/>
   </g>
   <g id="line2d_97">
    <path d="M 1024.798251 279.12 
L 1026.92325 277.890272 
L 1029.048249 276.660544 
L 1031.173249 275.430816 
L 1033.298248 274.201089 
L 1035.423247 272.971361 
L 1037.548246 271.741633 
L 1039.673246 270.511905 
L 1041.798245 269.282177 
L 1043.923244 268.052449 
L 1046.048244 266.822722 
L 1048.173243 265.592994 
L 1050.298242 264.363266 
L 1052.423241 263.133538 
L 1054.548241 261.90381 
L 1056.67324 260.674082 
L 1058.798239 259.444355 
L 1060.923238 258.214627 
L 1063.048238 256.984899 
L 1065.173237 255.755171 
L 1067.298236 254.525443 
L 1069.423235 253.295715 
L 1071.548235 252.065988 
L 1073.673234 250.83626 
L 1075.798233 249.606532 
L 1077.923232 248.376804 
L 1080.048232 247.147076 
L 1082.173231 245.917348 
L 1084.29823 244.687621 
L 1086.423229 243.457893 
L 1088.548229 242.228165 
L 1090.673228 240.998437 
L 1092.798227 239.768709 
L 1094.923226 238.538981 
L 1097.048226 237.309253 
L 1099.173225 236.079526 
L 1101.298224 234.849798 
L 1103.423224 233.62007 
L 1105.548223 232.390342 
L 1107.673222 231.160614 
L 1109.798221 229.930886 
L 1111.923221 228.701159 
L 1114.04822 227.471431 
L 1116.173219 226.241703 
L 1118.298218 225.011975 
L 1120.423218 223.782247 
L 1122.548217 222.552519 
L 1124.673216 221.322792 
L 1126.798215 220.093064 
L 1128.923215 218.863336 
L 1131.048214 217.633608 
L 1133.173213 216.40388 
L 1135.298212 215.174152 
L 1137.423212 213.944425 
L 1139.548211 212.714697 
L 1141.67321 211.484969 
L 1143.798209 210.255241 
L 1145.923209 209.022256 
L 1148.048208 207.774365 
L 1150.173207 206.509975 
L 1152.298206 205.228412 
L 1154.423206 203.928958 
L 1156.548205 202.610842 
L 1158.673204 201.273235 
L 1160.798204 199.915246 
L 1162.923203 198.535915 
L 1165.048202 197.134203 
L 1167.173201 195.708982 
L 1169.298201 194.25903 
L 1171.4232 192.783012 
L 1173.548199 191.27947 
L 1175.673198 189.746803 
L 1177.798198 188.183252 
L 1179.923197 186.58687 
L 1182.048196 184.955498 
L 1184.173195 183.286728 
L 1186.298195 181.577865 
L 1188.423194 179.825872 
L 1190.548193 178.027309 
L 1192.673192 176.178251 
L 1194.798192 174.274192 
L 1196.923191 172.309909 
L 1199.04819 170.279298 
L 1201.173189 168.17515 
L 1203.298189 165.988845 
L 1205.423188 163.709935 
L 1207.548187 161.325548 
L 1209.673186 158.819525 
L 1211.798186 156.171102 
L 1213.923185 153.352836 
L 1216.048184 150.327139 
L 1218.173184 147.040104 
L 1220.298183 143.409423 
L 1222.423182 139.297618 
L 1224.548181 134.440121 
L 1226.673181 128.172906 
L 1228.79818 116.371942 
L 1230.923179 93.621294 
L 1233.048178 70.870647 
L 1235.173178 48.12 
" clip-path="url(#p2db53bc5d8)" style="fill: none; stroke: #1f77b4; stroke-width: 1.5; stroke-linecap: square"/>
   </g>
   <g id="line2d_98">
    <path d="M 1025.364627 279.12 
L 1027.665372 277.723359 
L 1029.966116 276.326718 
L 1032.266861 274.930078 
L 1034.567606 273.533437 
L 1036.86835 272.136796 
L 1039.169095 270.740155 
L 1041.469839 269.343515 
L 1043.770584 267.946874 
L 1046.071329 266.550233 
L 1048.372073 265.153592 
L 1050.672818 263.756952 
L 1052.973562 262.360311 
L 1055.274307 260.96367 
L 1057.575051 259.567029 
L 1059.875796 258.170388 
L 1062.176541 256.773748 
L 1064.477285 255.377107 
L 1066.77803 253.980466 
L 1069.078774 252.583825 
L 1071.379519 251.187185 
L 1073.680264 249.790544 
L 1075.981008 248.393903 
L 1078.281753 246.997262 
L 1080.582497 245.600622 
L 1082.883242 244.203981 
L 1085.183986 242.80734 
L 1087.484731 241.410699 
L 1089.785476 240.014058 
L 1092.08622 238.617418 
L 1094.386965 237.220777 
L 1096.687709 235.824136 
L 1098.988454 234.427495 
L 1101.289198 233.030855 
L 1103.589943 231.634214 
L 1105.890688 230.237573 
L 1108.191432 228.840932 
L 1110.492177 227.444292 
L 1112.792921 226.047651 
L 1115.093666 224.65101 
L 1117.394411 223.254369 
L 1119.695155 221.857729 
L 1121.9959 220.461088 
L 1124.296644 219.064447 
L 1126.597389 217.667806 
L 1128.898133 216.271165 
L 1131.198878 214.874525 
L 1133.499623 213.477884 
L 1135.800367 212.081243 
L 1138.101112 210.684602 
L 1140.401856 209.286726 
L 1142.702601 207.874883 
L 1145.003345 206.445198 
L 1147.30409 204.996978 
L 1149.604835 203.529481 
L 1151.905579 202.041917 
L 1154.206324 200.533439 
L 1156.507068 199.00314 
L 1158.807813 197.450045 
L 1161.108558 195.873104 
L 1163.409302 194.271182 
L 1165.710047 192.643054 
L 1168.010791 190.987391 
L 1170.311536 189.302745 
L 1172.61228 187.587539 
L 1174.913025 185.840048 
L 1177.21377 184.058376 
L 1179.514514 182.240437 
L 1181.815259 180.383919 
L 1184.116003 178.486259 
L 1186.416748 176.544592 
L 1188.717493 174.555709 
L 1191.018237 172.515986 
L 1193.318982 170.421313 
L 1195.619726 168.266996 
L 1197.920471 166.047628 
L 1200.221215 163.756935 
L 1202.52196 161.387563 
L 1204.822705 158.930803 
L 1207.123449 156.376204 
L 1209.424194 153.711057 
L 1211.724938 150.91963 
L 1214.025683 147.982068 
L 1216.326427 144.872692 
L 1218.627172 141.557285 
L 1220.927917 137.988497 
L 1223.228661 134.097471 
L 1225.529406 129.77703 
L 1227.83015 124.842883 
L 1230.130895 118.92233 
L 1232.43164 111.886868 
L 1234.732384 104.80166 
L 1237.033129 97.716453 
L 1239.333873 90.631245 
L 1241.634618 83.546038 
L 1243.935362 76.46083 
L 1246.236107 69.375623 
L 1248.536852 62.290415 
L 1250.837596 55.205208 
L 1253.138341 48.12 
" clip-path="url(#p2db53bc5d8)" style="fill: none; stroke-dasharray: 5.55,2.4; stroke-dashoffset: 0; stroke: #ff7f0e; stroke-width: 1.5"/>
   </g>
   <g id="line2d_99">
    <path d="M 1024.370866 279.12 
L 1026.509072 277.886454 
L 1028.647277 276.652909 
L 1030.785483 275.419363 
L 1032.923688 274.185817 
L 1035.061893 272.952272 
L 1037.200099 271.718726 
L 1039.338304 270.48518 
L 1041.47651 269.251635 
L 1043.614715 268.018089 
L 1045.75292 266.784543 
L 1047.891126 265.550998 
L 1050.029331 264.317452 
L 1052.167537 263.083906 
L 1054.305742 261.85036 
L 1056.443947 260.616815 
L 1058.582153 259.383269 
L 1060.720358 258.149723 
L 1062.858564 256.916178 
L 1064.996769 255.682632 
L 1067.134974 254.449086 
L 1069.27318 253.215541 
L 1071.411385 251.981995 
L 1073.549591 250.748449 
L 1075.687796 249.514904 
L 1077.826001 248.281358 
L 1079.964207 247.047812 
L 1082.102412 245.814267 
L 1084.240617 244.580721 
L 1086.378823 243.347175 
L 1088.517028 242.11363 
L 1090.655234 240.880084 
L 1092.793439 239.646538 
L 1094.931644 238.412993 
L 1097.06985 237.179447 
L 1099.208055 235.945901 
L 1101.346261 234.712355 
L 1103.484466 233.47881 
L 1105.622671 232.245264 
L 1107.760877 231.011718 
L 1109.899082 229.778173 
L 1112.037288 228.544627 
L 1114.175493 227.311081 
L 1116.313698 226.077536 
L 1118.451904 224.84399 
L 1120.590109 223.610444 
L 1122.728315 222.376899 
L 1124.86652 221.143353 
L 1127.004725 219.909807 
L 1129.142931 218.676262 
L 1131.281136 217.442716 
L 1133.419342 216.20917 
L 1135.557547 214.975625 
L 1137.695752 213.742079 
L 1139.833958 212.508533 
L 1141.972163 211.274988 
L 1144.110369 210.041442 
L 1146.248574 208.802616 
L 1148.386779 207.548019 
L 1150.524985 206.276763 
L 1152.66319 204.988167 
L 1154.801395 203.6815 
L 1156.939601 202.35598 
L 1159.077806 201.010767 
L 1161.216012 199.644956 
L 1163.354217 198.257572 
L 1165.492422 196.847558 
L 1167.630628 195.413769 
L 1169.768833 193.954961 
L 1171.907039 192.469776 
L 1174.045244 190.956729 
L 1176.183449 189.414192 
L 1178.321655 187.84037 
L 1180.45986 186.233277 
L 1182.598066 184.590711 
L 1184.736271 182.910212 
L 1186.874476 181.189026 
L 1189.012682 179.424045 
L 1191.150887 177.611746 
L 1193.289093 175.748106 
L 1195.427298 173.828498 
L 1197.565503 171.847553 
L 1199.703709 169.798988 
L 1201.841914 167.675364 
L 1203.98012 165.467774 
L 1206.118325 163.165391 
L 1208.25653 160.754842 
L 1210.394736 158.219279 
L 1212.532941 155.536964 
L 1214.671147 152.679019 
L 1216.809352 149.605634 
L 1218.947557 146.259209 
L 1221.085763 142.550731 
L 1223.223968 138.32879 
L 1225.362174 133.292888 
L 1227.500379 126.636045 
L 1229.638584 112.675525 
L 1231.77679 91.157016 
L 1233.914995 69.638508 
L 1236.0532 48.12 
" clip-path="url(#p2db53bc5d8)" style="fill: none; stroke-dasharray: 5.55,2.4; stroke-dashoffset: 0; stroke: #2ca02c; stroke-width: 1.5"/>
   </g>
   <g id="patch_15">
    <path d="M 967.764706 288.36 
L 967.764706 38.88 
" style="fill: none; stroke: #000000; stroke-width: 0.8; stroke-linejoin: miter; stroke-linecap: square"/>
   </g>
   <g id="patch_16">
    <path d="M 1296 288.36 
L 1296 38.88 
" style="fill: none; stroke: #000000; stroke-width: 0.8; stroke-linejoin: miter; stroke-linecap: square"/>
   </g>
   <g id="patch_17">
    <path d="M 967.764706 288.36 
L 1296 288.36 
" style="fill: none; stroke: #000000; stroke-width: 0.8; stroke-linejoin: miter; stroke-linecap: square"/>
   </g>
   <g id="patch_18">
    <path d="M 967.764706 38.88 
L 1296 38.88 
" style="fill: none; stroke: #000000; stroke-width: 0.8; stroke-linejoin: miter; stroke-linecap: square"/>
   </g>
   <g id="text_52">
    <!--  Block: 2 -->
    <g transform="translate(1106.001728 32.88) scale(0.12 -0.12)">
     <use xlink:href="#DejaVuSans-20"/>
     <use xlink:href="#DejaVuSans-42" x="31.787109"/>
     <use xlink:href="#DejaVuSans-6c" x="100.390625"/>
     <use xlink:href="#DejaVuSans-6f" x="128.173828"/>
     <use xlink:href="#DejaVuSans-63" x="189.355469"/>
     <use xlink:href="#DejaVuSans-6b" x="244.335938"/>
     <use xlink:href="#DejaVuSans-3a" x="302.246094"/>
     <use xlink:href="#DejaVuSans-20" x="335.9375"/>
     <use xlink:href="#DejaVuSans-32" x="367.724609"/>
    </g>
   </g>
   <g id="legend_3">
    <g id="patch_19">
     <path d="M 974.764706 106.14875 
L 1105.964706 106.14875 
Q 1107.964706 106.14875 1107.964706 104.14875 
L 1107.964706 45.88 
Q 1107.964706 43.88 1105.964706 43.88 
L 974.764706 43.88 
Q 972.764706 43.88 972.764706 45.88 
L 972.764706 104.14875 
Q 972.764706 106.14875 974.764706 106.14875 
z
" style="fill: #ffffff; opacity: 0.8; stroke: #cccccc; stroke-linejoin: miter"/>
    </g>
    <g id="PathCollection_6">
     <g>
      <use xlink:href="#m5a9d9f0840" x="986.764706" y="52.853438" style="stroke: #000000"/>
     </g>
    </g>
    <g id="text_53">
     <!-- Data -->
     <g transform="translate(1004.764706 55.478438) scale(0.1 -0.1)">
      <use xlink:href="#DejaVuSans-44"/>
      <use xlink:href="#DejaVuSans-61" x="77.001953"/>
      <use xlink:href="#DejaVuSans-74" x="138.28125"/>
      <use xlink:href="#DejaVuSans-61" x="177.490234"/>
     </g>
    </g>
    <g id="line2d_100">
     <path d="M 976.764706 66.656563 
L 986.764706 66.656563 
L 996.764706 66.656563 
" style="fill: none; stroke: #1f77b4; stroke-width: 1.5; stroke-linecap: square"/>
    </g>
    <g id="text_54">
     <!-- Artc e:0.2527 -->
     <g transform="translate(1004.764706 70.156563) scale(0.1 -0.1)">
      <defs>
       <path id="DejaVuSans-37" d="M 525 4666 
L 3525 4666 
L 3525 4397 
L 1831 0 
L 1172 0 
L 2766 4134 
L 525 4134 
L 525 4666 
z
" transform="scale(0.015625)"/>
      </defs>
      <use xlink:href="#DejaVuSans-41"/>
      <use xlink:href="#DejaVuSans-72" x="68.408203"/>
      <use xlink:href="#DejaVuSans-74" x="109.521484"/>
      <use xlink:href="#DejaVuSans-63" x="148.730469"/>
      <use xlink:href="#DejaVuSans-20" x="203.710938"/>
      <use xlink:href="#DejaVuSans-65" x="235.498047"/>
      <use xlink:href="#DejaVuSans-3a" x="297.021484"/>
      <use xlink:href="#DejaVuSans-30" x="330.712891"/>
      <use xlink:href="#DejaVuSans-2e" x="394.335938"/>
      <use xlink:href="#DejaVuSans-32" x="426.123047"/>
      <use xlink:href="#DejaVuSans-35" x="489.746094"/>
      <use xlink:href="#DejaVuSans-32" x="553.369141"/>
      <use xlink:href="#DejaVuSans-37" x="616.992188"/>
     </g>
    </g>
    <g id="line2d_101">
     <path d="M 976.764706 81.334688 
L 986.764706 81.334688 
L 996.764706 81.334688 
" style="fill: none; stroke-dasharray: 5.55,2.4; stroke-dashoffset: 0; stroke: #ff7f0e; stroke-width: 1.5"/>
    </g>
    <g id="text_55">
     <!-- NEL_BTUX e:0.2668 -->
     <g transform="translate(1004.764706 84.834688) scale(0.1 -0.1)">
      <use xlink:href="#DejaVuSans-4e"/>
      <use xlink:href="#DejaVuSans-45" x="74.804688"/>
      <use xlink:href="#DejaVuSans-4c" x="137.988281"/>
      <use xlink:href="#DejaVuSans-5f" x="193.701172"/>
      <use xlink:href="#DejaVuSans-42" x="243.701172"/>
      <use xlink:href="#DejaVuSans-54" x="312.304688"/>
      <use xlink:href="#DejaVuSans-55" x="373.388672"/>
      <use xlink:href="#DejaVuSans-58" x="446.582031"/>
      <use xlink:href="#DejaVuSans-20" x="515.087891"/>
      <use xlink:href="#DejaVuSans-65" x="546.875"/>
      <use xlink:href="#DejaVuSans-3a" x="608.398438"/>
      <use xlink:href="#DejaVuSans-30" x="642.089844"/>
      <use xlink:href="#DejaVuSans-2e" x="705.712891"/>
      <use xlink:href="#DejaVuSans-32" x="737.5"/>
      <use xlink:href="#DejaVuSans-36" x="801.123047"/>
      <use xlink:href="#DejaVuSans-36" x="864.746094"/>
      <use xlink:href="#DejaVuSans-38" x="928.369141"/>
     </g>
    </g>
    <g id="line2d_102">
     <path d="M 976.764706 96.290938 
L 986.764706 96.290938 
L 996.764706 96.290938 
" style="fill: none; stroke-dasharray: 5.55,2.4; stroke-dashoffset: 0; stroke: #2ca02c; stroke-width: 1.5"/>
    </g>
    <g id="text_56">
     <!-- NEL_BTX e:0.2532 -->
     <g transform="translate(1004.764706 99.790938) scale(0.1 -0.1)">
      <use xlink:href="#DejaVuSans-4e"/>
      <use xlink:href="#DejaVuSans-45" x="74.804688"/>
      <use xlink:href="#DejaVuSans-4c" x="137.988281"/>
      <use xlink:href="#DejaVuSans-5f" x="193.701172"/>
      <use xlink:href="#DejaVuSans-42" x="243.701172"/>
      <use xlink:href="#DejaVuSans-54" x="312.304688"/>
      <use xlink:href="#DejaVuSans-58" x="373.388672"/>
      <use xlink:href="#DejaVuSans-20" x="441.894531"/>
      <use xlink:href="#DejaVuSans-65" x="473.681641"/>
      <use xlink:href="#DejaVuSans-3a" x="535.205078"/>
      <use xlink:href="#DejaVuSans-30" x="568.896484"/>
      <use xlink:href="#DejaVuSans-2e" x="632.519531"/>
      <use xlink:href="#DejaVuSans-32" x="664.306641"/>
      <use xlink:href="#DejaVuSans-35" x="727.929688"/>
      <use xlink:href="#DejaVuSans-33" x="791.552734"/>
      <use xlink:href="#DejaVuSans-32" x="855.175781"/>
     </g>
    </g>
   </g>
  </g>
  <g id="text_57">
   <!-- ID: 5444, Max level: 95dB -->
   <g transform="translate(655.440625 14.078438) scale(0.1 -0.1)">
    <defs>
     <path id="DejaVuSans-49" d="M 628 4666 
L 1259 4666 
L 1259 0 
L 628 0 
L 628 4666 
z
" transform="scale(0.015625)"/>
     <path id="DejaVuSans-2c" d="M 750 794 
L 1409 794 
L 1409 256 
L 897 -744 
L 494 -744 
L 750 256 
L 750 794 
z
" transform="scale(0.015625)"/>
     <path id="DejaVuSans-4d" d="M 628 4666 
L 1569 4666 
L 2759 1491 
L 3956 4666 
L 4897 4666 
L 4897 0 
L 4281 0 
L 4281 4097 
L 3078 897 
L 2444 897 
L 1241 4097 
L 1241 0 
L 628 0 
L 628 4666 
z
" transform="scale(0.015625)"/>
     <path id="DejaVuSans-78" d="M 3513 3500 
L 2247 1797 
L 3578 0 
L 2900 0 
L 1881 1375 
L 863 0 
L 184 0 
L 1544 1831 
L 300 3500 
L 978 3500 
L 1906 2253 
L 2834 3500 
L 3513 3500 
z
" transform="scale(0.015625)"/>
     <path id="DejaVuSans-39" d="M 703 97 
L 703 672 
Q 941 559 1184 500 
Q 1428 441 1663 441 
Q 2288 441 2617 861 
Q 2947 1281 2994 2138 
Q 2813 1869 2534 1725 
Q 2256 1581 1919 1581 
Q 1219 1581 811 2004 
Q 403 2428 403 3163 
Q 403 3881 828 4315 
Q 1253 4750 1959 4750 
Q 2769 4750 3195 4129 
Q 3622 3509 3622 2328 
Q 3622 1225 3098 567 
Q 2575 -91 1691 -91 
Q 1453 -91 1209 -44 
Q 966 3 703 97 
z
M 1959 2075 
Q 2384 2075 2632 2365 
Q 2881 2656 2881 3163 
Q 2881 3666 2632 3958 
Q 2384 4250 1959 4250 
Q 1534 4250 1286 3958 
Q 1038 3666 1038 3163 
Q 1038 2656 1286 2365 
Q 1534 2075 1959 2075 
z
" transform="scale(0.015625)"/>
    </defs>
    <use xlink:href="#DejaVuSans-49"/>
    <use xlink:href="#DejaVuSans-44" x="29.492188"/>
    <use xlink:href="#DejaVuSans-3a" x="106.494141"/>
    <use xlink:href="#DejaVuSans-20" x="140.185547"/>
    <use xlink:href="#DejaVuSans-35" x="171.972656"/>
    <use xlink:href="#DejaVuSans-34" x="235.595703"/>
    <use xlink:href="#DejaVuSans-34" x="299.21875"/>
    <use xlink:href="#DejaVuSans-34" x="362.841797"/>
    <use xlink:href="#DejaVuSans-2c" x="426.464844"/>
    <use xlink:href="#DejaVuSans-20" x="458.251953"/>
    <use xlink:href="#DejaVuSans-4d" x="490.039062"/>
    <use xlink:href="#DejaVuSans-61" x="576.318359"/>
    <use xlink:href="#DejaVuSans-78" x="637.597656"/>
    <use xlink:href="#DejaVuSans-20" x="696.777344"/>
    <use xlink:href="#DejaVuSans-6c" x="728.564453"/>
    <use xlink:href="#DejaVuSans-65" x="756.347656"/>
    <use xlink:href="#DejaVuSans-76" x="817.871094"/>
    <use xlink:href="#DejaVuSans-65" x="877.050781"/>
    <use xlink:href="#DejaVuSans-6c" x="938.574219"/>
    <use xlink:href="#DejaVuSans-3a" x="966.357422"/>
    <use xlink:href="#DejaVuSans-20" x="1000.048828"/>
    <use xlink:href="#DejaVuSans-39" x="1031.835938"/>
    <use xlink:href="#DejaVuSans-35" x="1095.458984"/>
    <use xlink:href="#DejaVuSans-64" x="1159.082031"/>
    <use xlink:href="#DejaVuSans-42" x="1222.558594"/>
   </g>
  </g>
 </g>
 <defs>
  <clipPath id="p459388cd59">
   <rect x="180" y="38.88" width="328.235294" height="249.48"/>
  </clipPath>
  <clipPath id="p81767397ab">
   <rect x="573.882353" y="38.88" width="328.235294" height="249.48"/>
  </clipPath>
  <clipPath id="p2db53bc5d8">
   <rect x="967.764706" y="38.88" width="328.235294" height="249.48"/>
  </clipPath>
 </defs>
</svg>
