<?xml version="1.0" encoding="utf-8" standalone="no"?>
<!DOCTYPE svg PUBLIC "-//W3C//DTD SVG 1.1//EN"
  "http://www.w3.org/Graphics/SVG/1.1/DTD/svg11.dtd">
<svg xmlns:xlink="http://www.w3.org/1999/xlink" width="1440pt" height="648pt" viewBox="0 0 1440 648" xmlns="http://www.w3.org/2000/svg" version="1.1">
 <metadata>
  <rdf:RDF xmlns:dc="http://purl.org/dc/elements/1.1/" xmlns:cc="http://creativecommons.org/ns#" xmlns:rdf="http://www.w3.org/1999/02/22-rdf-syntax-ns#">
   <cc:Work>
    <dc:type rdf:resource="http://purl.org/dc/dcmitype/StillImage"/>
    <dc:date>2024-05-16T19:36:33.447021</dc:date>
    <dc:format>image/svg+xml</dc:format>
    <dc:creator>
     <cc:Agent>
      <dc:title>Matplotlib v3.8.0, https://matplotlib.org/</dc:title>
     </cc:Agent>
    </dc:creator>
   </cc:Work>
  </rdf:RDF>
 </metadata>
 <defs>
  <style type="text/css">*{stroke-linejoin: round; stroke-linecap: butt}</style>
 </defs>
 <g id="figure_1">
  <g id="patch_1">
   <path d="M 0 648 
L 1440 648 
L 1440 0 
L 0 0 
z
" style="fill: #ffffff"/>
  </g>
  <g id="axes_1">
   <g id="patch_2">
    <path d="M 180 304.56 
L 508.235294 304.56 
L 508.235294 77.76 
L 180 77.76 
z
" style="fill: #ffffff"/>
   </g>
   <g id="PathCollection_1">
    <defs>
     <path id="m66edec644e" d="M 0 3 
C 0.795609 3 1.55874 2.683901 2.12132 2.12132 
C 2.683901 1.55874 3 0.795609 3 0 
C 3 -0.795609 2.683901 -1.55874 2.12132 -2.12132 
C 1.55874 -2.683901 0.795609 -3 0 -3 
C -0.795609 -3 -1.55874 -2.683901 -2.12132 -2.12132 
C -2.683901 -1.55874 -3 -0.795609 -3 0 
C -3 0.795609 -2.683901 1.55874 -2.12132 2.12132 
C -1.55874 2.683901 -0.795609 3 0 3 
z
" style="stroke: #000000"/>
    </defs>
    <g clip-path="url(#pf32c3d5d3a)">
     <use xlink:href="#m66edec644e" x="427.785467" y="170.16" style="stroke: #000000"/>
     <use xlink:href="#m66edec644e" x="459.965398" y="128.16" style="stroke: #000000"/>
     <use xlink:href="#m66edec644e" x="379.515571" y="212.16" style="stroke: #000000"/>
     <use xlink:href="#m66edec644e" x="492.145329" y="86.16" style="stroke: #000000"/>
     <use xlink:href="#m66edec644e" x="331.245675" y="233.16" style="stroke: #000000"/>
     <use xlink:href="#m66edec644e" x="282.975779" y="254.16" style="stroke: #000000"/>
     <use xlink:href="#m66edec644e" x="234.705882" y="296.16" style="stroke: #000000"/>
     <use xlink:href="#m66edec644e" x="250.795848" y="275.16" style="stroke: #000000"/>
     <use xlink:href="#m66edec644e" x="432.802962" y="128.16" style="stroke: #000000"/>
     <use xlink:href="#m66edec644e" x="296.297304" y="233.16" style="stroke: #000000"/>
     <use xlink:href="#m66edec644e" x="387.301183" y="149.16" style="stroke: #000000"/>
     <use xlink:href="#m66edec644e" x="250.795526" y="275.16" style="stroke: #000000"/>
     <use xlink:href="#m66edec644e" x="341.799405" y="233.16" style="stroke: #000000"/>
     <use xlink:href="#m66edec644e" x="305.267782" y="254.16" style="stroke: #000000"/>
     <use xlink:href="#m66edec644e" x="356.535239" y="191.16" style="stroke: #000000"/>
     <use xlink:href="#m66edec644e" x="459.070474" y="86.16" style="stroke: #000000"/>
     <use xlink:href="#m66edec644e" x="407.803017" y="128.16" style="stroke: #000000"/>
     <use xlink:href="#m66edec644e" x="254.000325" y="275.16" style="stroke: #000000"/>
    </g>
   </g>
   <g id="matplotlib.axis_1">
    <g id="xtick_1">
     <g id="line2d_1">
      <path d="M 186.435986 304.56 
L 186.435986 77.76 
" clip-path="url(#pf32c3d5d3a)" style="fill: none; stroke: #b0b0b0; stroke-width: 0.8; stroke-linecap: square"/>
     </g>
     <g id="line2d_2">
      <defs>
       <path id="mf3d518d887" d="M 0 0 
L 0 3.5 
" style="stroke: #000000; stroke-width: 0.8"/>
      </defs>
      <g>
       <use xlink:href="#mf3d518d887" x="186.435986" y="304.56" style="stroke: #000000; stroke-width: 0.8"/>
      </g>
     </g>
     <g id="text_1">
      <!-- 0 -->
      <g transform="translate(183.254736 319.158437) scale(0.1 -0.1)">
       <defs>
        <path id="DejaVuSans-30" d="M 2034 4250 
Q 1547 4250 1301 3770 
Q 1056 3291 1056 2328 
Q 1056 1369 1301 889 
Q 1547 409 2034 409 
Q 2525 409 2770 889 
Q 3016 1369 3016 2328 
Q 3016 3291 2770 3770 
Q 2525 4250 2034 4250 
z
M 2034 4750 
Q 2819 4750 3233 4129 
Q 3647 3509 3647 2328 
Q 3647 1150 3233 529 
Q 2819 -91 2034 -91 
Q 1250 -91 836 529 
Q 422 1150 422 2328 
Q 422 3509 836 4129 
Q 1250 4750 2034 4750 
z
" transform="scale(0.015625)"/>
       </defs>
       <use xlink:href="#DejaVuSans-30"/>
      </g>
     </g>
    </g>
    <g id="xtick_2">
     <g id="line2d_3">
      <path d="M 250.795848 304.56 
L 250.795848 77.76 
" clip-path="url(#pf32c3d5d3a)" style="fill: none; stroke: #b0b0b0; stroke-width: 0.8; stroke-linecap: square"/>
     </g>
     <g id="line2d_4">
      <g>
       <use xlink:href="#mf3d518d887" x="250.795848" y="304.56" style="stroke: #000000; stroke-width: 0.8"/>
      </g>
     </g>
     <g id="text_2">
      <!-- 20 -->
      <g transform="translate(244.433348 319.158437) scale(0.1 -0.1)">
       <defs>
        <path id="DejaVuSans-32" d="M 1228 531 
L 3431 531 
L 3431 0 
L 469 0 
L 469 531 
Q 828 903 1448 1529 
Q 2069 2156 2228 2338 
Q 2531 2678 2651 2914 
Q 2772 3150 2772 3378 
Q 2772 3750 2511 3984 
Q 2250 4219 1831 4219 
Q 1534 4219 1204 4116 
Q 875 4013 500 3803 
L 500 4441 
Q 881 4594 1212 4672 
Q 1544 4750 1819 4750 
Q 2544 4750 2975 4387 
Q 3406 4025 3406 3419 
Q 3406 3131 3298 2873 
Q 3191 2616 2906 2266 
Q 2828 2175 2409 1742 
Q 1991 1309 1228 531 
z
" transform="scale(0.015625)"/>
       </defs>
       <use xlink:href="#DejaVuSans-32"/>
       <use xlink:href="#DejaVuSans-30" x="63.623047"/>
      </g>
     </g>
    </g>
    <g id="xtick_3">
     <g id="line2d_5">
      <path d="M 315.155709 304.56 
L 315.155709 77.76 
" clip-path="url(#pf32c3d5d3a)" style="fill: none; stroke: #b0b0b0; stroke-width: 0.8; stroke-linecap: square"/>
     </g>
     <g id="line2d_6">
      <g>
       <use xlink:href="#mf3d518d887" x="315.155709" y="304.56" style="stroke: #000000; stroke-width: 0.8"/>
      </g>
     </g>
     <g id="text_3">
      <!-- 40 -->
      <g transform="translate(308.793209 319.158437) scale(0.1 -0.1)">
       <defs>
        <path id="DejaVuSans-34" d="M 2419 4116 
L 825 1625 
L 2419 1625 
L 2419 4116 
z
M 2253 4666 
L 3047 4666 
L 3047 1625 
L 3713 1625 
L 3713 1100 
L 3047 1100 
L 3047 0 
L 2419 0 
L 2419 1100 
L 313 1100 
L 313 1709 
L 2253 4666 
z
" transform="scale(0.015625)"/>
       </defs>
       <use xlink:href="#DejaVuSans-34"/>
       <use xlink:href="#DejaVuSans-30" x="63.623047"/>
      </g>
     </g>
    </g>
    <g id="xtick_4">
     <g id="line2d_7">
      <path d="M 379.515571 304.56 
L 379.515571 77.76 
" clip-path="url(#pf32c3d5d3a)" style="fill: none; stroke: #b0b0b0; stroke-width: 0.8; stroke-linecap: square"/>
     </g>
     <g id="line2d_8">
      <g>
       <use xlink:href="#mf3d518d887" x="379.515571" y="304.56" style="stroke: #000000; stroke-width: 0.8"/>
      </g>
     </g>
     <g id="text_4">
      <!-- 60 -->
      <g transform="translate(373.153071 319.158437) scale(0.1 -0.1)">
       <defs>
        <path id="DejaVuSans-36" d="M 2113 2584 
Q 1688 2584 1439 2293 
Q 1191 2003 1191 1497 
Q 1191 994 1439 701 
Q 1688 409 2113 409 
Q 2538 409 2786 701 
Q 3034 994 3034 1497 
Q 3034 2003 2786 2293 
Q 2538 2584 2113 2584 
z
M 3366 4563 
L 3366 3988 
Q 3128 4100 2886 4159 
Q 2644 4219 2406 4219 
Q 1781 4219 1451 3797 
Q 1122 3375 1075 2522 
Q 1259 2794 1537 2939 
Q 1816 3084 2150 3084 
Q 2853 3084 3261 2657 
Q 3669 2231 3669 1497 
Q 3669 778 3244 343 
Q 2819 -91 2113 -91 
Q 1303 -91 875 529 
Q 447 1150 447 2328 
Q 447 3434 972 4092 
Q 1497 4750 2381 4750 
Q 2619 4750 2861 4703 
Q 3103 4656 3366 4563 
z
" transform="scale(0.015625)"/>
       </defs>
       <use xlink:href="#DejaVuSans-36"/>
       <use xlink:href="#DejaVuSans-30" x="63.623047"/>
      </g>
     </g>
    </g>
    <g id="xtick_5">
     <g id="line2d_9">
      <path d="M 443.875433 304.56 
L 443.875433 77.76 
" clip-path="url(#pf32c3d5d3a)" style="fill: none; stroke: #b0b0b0; stroke-width: 0.8; stroke-linecap: square"/>
     </g>
     <g id="line2d_10">
      <g>
       <use xlink:href="#mf3d518d887" x="443.875433" y="304.56" style="stroke: #000000; stroke-width: 0.8"/>
      </g>
     </g>
     <g id="text_5">
      <!-- 80 -->
      <g transform="translate(437.512933 319.158437) scale(0.1 -0.1)">
       <defs>
        <path id="DejaVuSans-38" d="M 2034 2216 
Q 1584 2216 1326 1975 
Q 1069 1734 1069 1313 
Q 1069 891 1326 650 
Q 1584 409 2034 409 
Q 2484 409 2743 651 
Q 3003 894 3003 1313 
Q 3003 1734 2745 1975 
Q 2488 2216 2034 2216 
z
M 1403 2484 
Q 997 2584 770 2862 
Q 544 3141 544 3541 
Q 544 4100 942 4425 
Q 1341 4750 2034 4750 
Q 2731 4750 3128 4425 
Q 3525 4100 3525 3541 
Q 3525 3141 3298 2862 
Q 3072 2584 2669 2484 
Q 3125 2378 3379 2068 
Q 3634 1759 3634 1313 
Q 3634 634 3220 271 
Q 2806 -91 2034 -91 
Q 1263 -91 848 271 
Q 434 634 434 1313 
Q 434 1759 690 2068 
Q 947 2378 1403 2484 
z
M 1172 3481 
Q 1172 3119 1398 2916 
Q 1625 2713 2034 2713 
Q 2441 2713 2670 2916 
Q 2900 3119 2900 3481 
Q 2900 3844 2670 4047 
Q 2441 4250 2034 4250 
Q 1625 4250 1398 4047 
Q 1172 3844 1172 3481 
z
" transform="scale(0.015625)"/>
       </defs>
       <use xlink:href="#DejaVuSans-38"/>
       <use xlink:href="#DejaVuSans-30" x="63.623047"/>
      </g>
     </g>
    </g>
    <g id="xtick_6">
     <g id="line2d_11">
      <path d="M 508.235294 304.56 
L 508.235294 77.76 
" clip-path="url(#pf32c3d5d3a)" style="fill: none; stroke: #b0b0b0; stroke-width: 0.8; stroke-linecap: square"/>
     </g>
     <g id="line2d_12">
      <g>
       <use xlink:href="#mf3d518d887" x="508.235294" y="304.56" style="stroke: #000000; stroke-width: 0.8"/>
      </g>
     </g>
     <g id="text_6">
      <!-- 100 -->
      <g transform="translate(498.691544 319.158437) scale(0.1 -0.1)">
       <defs>
        <path id="DejaVuSans-31" d="M 794 531 
L 1825 531 
L 1825 4091 
L 703 3866 
L 703 4441 
L 1819 4666 
L 2450 4666 
L 2450 531 
L 3481 531 
L 3481 0 
L 794 0 
L 794 531 
z
" transform="scale(0.015625)"/>
       </defs>
       <use xlink:href="#DejaVuSans-31"/>
       <use xlink:href="#DejaVuSans-30" x="63.623047"/>
       <use xlink:href="#DejaVuSans-30" x="127.246094"/>
      </g>
     </g>
    </g>
   </g>
   <g id="matplotlib.axis_2">
    <g id="ytick_1">
     <g id="line2d_13">
      <path d="M 180 296.16 
L 508.235294 296.16 
" clip-path="url(#pf32c3d5d3a)" style="fill: none; stroke: #b0b0b0; stroke-width: 0.8; stroke-linecap: square"/>
     </g>
     <g id="line2d_14">
      <defs>
       <path id="m869ae1562c" d="M 0 0 
L -3.5 0 
" style="stroke: #000000; stroke-width: 0.8"/>
      </defs>
      <g>
       <use xlink:href="#m869ae1562c" x="180" y="296.16" style="stroke: #000000; stroke-width: 0.8"/>
      </g>
     </g>
     <g id="text_7">
      <!-- 0 -->
      <g transform="translate(166.6375 299.959219) scale(0.1 -0.1)">
       <use xlink:href="#DejaVuSans-30"/>
      </g>
     </g>
    </g>
    <g id="ytick_2">
     <g id="line2d_15">
      <path d="M 180 254.16 
L 508.235294 254.16 
" clip-path="url(#pf32c3d5d3a)" style="fill: none; stroke: #b0b0b0; stroke-width: 0.8; stroke-linecap: square"/>
     </g>
     <g id="line2d_16">
      <g>
       <use xlink:href="#m869ae1562c" x="180" y="254.16" style="stroke: #000000; stroke-width: 0.8"/>
      </g>
     </g>
     <g id="text_8">
      <!-- 10 -->
      <g transform="translate(160.275 257.959219) scale(0.1 -0.1)">
       <use xlink:href="#DejaVuSans-31"/>
       <use xlink:href="#DejaVuSans-30" x="63.623047"/>
      </g>
     </g>
    </g>
    <g id="ytick_3">
     <g id="line2d_17">
      <path d="M 180 212.16 
L 508.235294 212.16 
" clip-path="url(#pf32c3d5d3a)" style="fill: none; stroke: #b0b0b0; stroke-width: 0.8; stroke-linecap: square"/>
     </g>
     <g id="line2d_18">
      <g>
       <use xlink:href="#m869ae1562c" x="180" y="212.16" style="stroke: #000000; stroke-width: 0.8"/>
      </g>
     </g>
     <g id="text_9">
      <!-- 20 -->
      <g transform="translate(160.275 215.959219) scale(0.1 -0.1)">
       <use xlink:href="#DejaVuSans-32"/>
       <use xlink:href="#DejaVuSans-30" x="63.623047"/>
      </g>
     </g>
    </g>
    <g id="ytick_4">
     <g id="line2d_19">
      <path d="M 180 170.16 
L 508.235294 170.16 
" clip-path="url(#pf32c3d5d3a)" style="fill: none; stroke: #b0b0b0; stroke-width: 0.8; stroke-linecap: square"/>
     </g>
     <g id="line2d_20">
      <g>
       <use xlink:href="#m869ae1562c" x="180" y="170.16" style="stroke: #000000; stroke-width: 0.8"/>
      </g>
     </g>
     <g id="text_10">
      <!-- 30 -->
      <g transform="translate(160.275 173.959219) scale(0.1 -0.1)">
       <defs>
        <path id="DejaVuSans-33" d="M 2597 2516 
Q 3050 2419 3304 2112 
Q 3559 1806 3559 1356 
Q 3559 666 3084 287 
Q 2609 -91 1734 -91 
Q 1441 -91 1130 -33 
Q 819 25 488 141 
L 488 750 
Q 750 597 1062 519 
Q 1375 441 1716 441 
Q 2309 441 2620 675 
Q 2931 909 2931 1356 
Q 2931 1769 2642 2001 
Q 2353 2234 1838 2234 
L 1294 2234 
L 1294 2753 
L 1863 2753 
Q 2328 2753 2575 2939 
Q 2822 3125 2822 3475 
Q 2822 3834 2567 4026 
Q 2313 4219 1838 4219 
Q 1578 4219 1281 4162 
Q 984 4106 628 3988 
L 628 4550 
Q 988 4650 1302 4700 
Q 1616 4750 1894 4750 
Q 2613 4750 3031 4423 
Q 3450 4097 3450 3541 
Q 3450 3153 3228 2886 
Q 3006 2619 2597 2516 
z
" transform="scale(0.015625)"/>
       </defs>
       <use xlink:href="#DejaVuSans-33"/>
       <use xlink:href="#DejaVuSans-30" x="63.623047"/>
      </g>
     </g>
    </g>
    <g id="ytick_5">
     <g id="line2d_21">
      <path d="M 180 128.16 
L 508.235294 128.16 
" clip-path="url(#pf32c3d5d3a)" style="fill: none; stroke: #b0b0b0; stroke-width: 0.8; stroke-linecap: square"/>
     </g>
     <g id="line2d_22">
      <g>
       <use xlink:href="#m869ae1562c" x="180" y="128.16" style="stroke: #000000; stroke-width: 0.8"/>
      </g>
     </g>
     <g id="text_11">
      <!-- 40 -->
      <g transform="translate(160.275 131.959219) scale(0.1 -0.1)">
       <use xlink:href="#DejaVuSans-34"/>
       <use xlink:href="#DejaVuSans-30" x="63.623047"/>
      </g>
     </g>
    </g>
    <g id="ytick_6">
     <g id="line2d_23">
      <path d="M 180 86.16 
L 508.235294 86.16 
" clip-path="url(#pf32c3d5d3a)" style="fill: none; stroke: #b0b0b0; stroke-width: 0.8; stroke-linecap: square"/>
     </g>
     <g id="line2d_24">
      <g>
       <use xlink:href="#m869ae1562c" x="180" y="86.16" style="stroke: #000000; stroke-width: 0.8"/>
      </g>
     </g>
     <g id="text_12">
      <!-- 50 -->
      <g transform="translate(160.275 89.959219) scale(0.1 -0.1)">
       <defs>
        <path id="DejaVuSans-35" d="M 691 4666 
L 3169 4666 
L 3169 4134 
L 1269 4134 
L 1269 2991 
Q 1406 3038 1543 3061 
Q 1681 3084 1819 3084 
Q 2600 3084 3056 2656 
Q 3513 2228 3513 1497 
Q 3513 744 3044 326 
Q 2575 -91 1722 -91 
Q 1428 -91 1123 -41 
Q 819 9 494 109 
L 494 744 
Q 775 591 1075 516 
Q 1375 441 1709 441 
Q 2250 441 2565 725 
Q 2881 1009 2881 1497 
Q 2881 1984 2565 2268 
Q 2250 2553 1709 2553 
Q 1456 2553 1204 2497 
Q 953 2441 691 2322 
L 691 4666 
z
" transform="scale(0.015625)"/>
       </defs>
       <use xlink:href="#DejaVuSans-35"/>
       <use xlink:href="#DejaVuSans-30" x="63.623047"/>
      </g>
     </g>
    </g>
   </g>
   <g id="line2d_25">
    <path d="M 154.256055 191.16 
L 572.595156 191.16 
" clip-path="url(#pf32c3d5d3a)" style="fill: none; stroke-dasharray: 1.5,2.475; stroke-dashoffset: 0; stroke: #808080; stroke-width: 1.5"/>
   </g>
   <g id="line2d_26">
    <path d="M 492.145329 338.16 
L 492.145329 2.16 
" clip-path="url(#pf32c3d5d3a)" style="fill: none; stroke-dasharray: 5.55,2.4; stroke-dashoffset: 0; stroke: #ff0000; stroke-opacity: 0.3; stroke-width: 1.5"/>
   </g>
   <g id="line2d_27">
    <path d="M 228.204818 296.16 
L 230.781031 294.292854 
L 233.357243 292.425709 
L 235.933455 290.558563 
L 238.509667 288.691418 
L 241.085879 286.824272 
L 243.662091 284.957127 
L 246.238303 283.089981 
L 248.814515 281.222836 
L 251.390727 279.35569 
L 253.966939 277.488545 
L 256.543151 275.621399 
L 259.119363 273.754254 
L 261.695575 271.887108 
L 264.271788 270.019963 
L 266.848 268.152817 
L 269.424212 266.285672 
L 272.000424 264.418526 
L 274.576636 262.551381 
L 277.152848 260.684235 
L 279.72906 258.81709 
L 282.305272 256.949944 
L 284.881484 255.082799 
L 287.457696 253.215653 
L 290.033908 251.348508 
L 292.61012 249.481362 
L 295.186332 247.614217 
L 297.762545 245.747071 
L 300.338757 243.879926 
L 302.914969 242.01278 
L 305.491181 240.145635 
L 308.067393 238.278489 
L 310.643605 236.411344 
L 313.219817 234.544198 
L 315.796029 232.67672 
L 318.372241 230.801979 
L 320.948453 228.917093 
L 323.524665 227.021894 
L 326.100877 225.116213 
L 328.67709 223.199872 
L 331.253302 221.272691 
L 333.829514 219.334484 
L 336.405726 217.385059 
L 338.981938 215.42422 
L 341.55815 213.451764 
L 344.134362 211.467481 
L 346.710574 209.471156 
L 349.286786 207.462567 
L 351.862998 205.441486 
L 354.43921 203.407677 
L 357.015422 201.360895 
L 359.591634 199.30089 
L 362.167847 197.227401 
L 364.744059 195.140161 
L 367.320271 193.038893 
L 369.896483 190.923308 
L 372.472695 188.793112 
L 375.048907 186.647997 
L 377.625119 184.487644 
L 380.201331 182.311725 
L 382.777543 180.119898 
L 385.353755 177.911809 
L 387.929967 175.687091 
L 390.506179 173.445362 
L 393.082391 171.186225 
L 395.658604 168.90927 
L 398.234816 166.614067 
L 400.811028 164.300171 
L 403.38724 161.967117 
L 405.963452 159.614422 
L 408.539664 157.24158 
L 411.115876 154.848066 
L 413.692088 152.433329 
L 416.2683 149.996795 
L 418.844512 147.542796 
L 421.420724 145.087484 
L 423.996936 142.632172 
L 426.573148 140.17686 
L 429.149361 137.721549 
L 431.725573 135.266237 
L 434.301785 132.810925 
L 436.877997 130.355613 
L 439.454209 127.900301 
L 442.030421 125.444989 
L 444.606633 122.989678 
L 447.182845 120.534366 
L 449.759057 118.079054 
L 452.335269 115.623742 
L 454.911481 113.16843 
L 457.487693 110.713118 
L 460.063906 108.257807 
L 462.640118 105.802495 
L 465.21633 103.347183 
L 467.792542 100.891871 
L 470.368754 98.436559 
L 472.944966 95.981247 
L 475.521178 93.525936 
L 478.09739 91.070624 
L 480.673602 88.615312 
L 483.249814 86.16 
" clip-path="url(#pf32c3d5d3a)" style="fill: none; stroke: #1f77b4; stroke-width: 1.5; stroke-linecap: square"/>
   </g>
   <g id="line2d_28">
    <path d="M 221.704236 296.16 
L 223.922269 295.015534 
L 226.140301 293.871068 
L 228.358334 292.726602 
L 230.576366 291.582136 
L 232.794399 290.43767 
L 235.012431 289.293204 
L 237.230464 288.148737 
L 239.448496 287.004271 
L 241.666529 285.859805 
L 243.884561 284.715339 
L 246.102594 283.570873 
L 248.320626 282.426407 
L 250.538659 281.281941 
L 252.756691 280.137475 
L 254.974724 278.993009 
L 257.192756 277.848543 
L 259.410789 276.704077 
L 261.628821 275.559611 
L 263.846854 274.415145 
L 266.064886 273.270678 
L 268.282919 272.126212 
L 270.500951 270.981746 
L 272.718984 269.83728 
L 274.937016 268.692814 
L 277.155049 267.548348 
L 279.373081 266.403882 
L 281.591114 265.259416 
L 283.809146 264.11495 
L 286.027179 262.970484 
L 288.245211 261.826018 
L 290.463244 260.681552 
L 292.681276 259.537086 
L 294.899309 258.39262 
L 297.117341 257.248153 
L 299.335374 256.103687 
L 301.553406 254.959221 
L 303.771439 253.814755 
L 305.989471 252.670289 
L 308.207504 251.525823 
L 310.425536 250.381357 
L 312.643569 249.236891 
L 314.861601 248.092425 
L 317.079634 246.947959 
L 319.297666 245.803493 
L 321.515699 244.659027 
L 323.733731 243.514561 
L 325.951764 242.370094 
L 328.169796 241.225628 
L 330.387829 240.081162 
L 332.605861 238.936696 
L 334.823894 237.79223 
L 337.041926 236.647764 
L 339.259959 235.503298 
L 341.477991 234.358832 
L 343.696024 233.214366 
L 345.914056 232.063307 
L 348.132089 230.89737 
L 350.350121 229.715946 
L 352.568154 228.518401 
L 354.786186 227.304055 
L 357.004219 226.072182 
L 359.222252 224.822001 
L 361.440284 223.552668 
L 363.658317 222.263278 
L 365.876349 220.952846 
L 368.094382 219.620309 
L 370.312414 218.264509 
L 372.530447 216.884182 
L 374.748479 215.477948 
L 376.966512 214.044291 
L 379.184544 212.581541 
L 381.402577 211.087851 
L 383.620609 209.561171 
L 385.838642 207.999213 
L 388.056674 206.399413 
L 390.274707 204.758878 
L 392.492739 203.074331 
L 394.710772 201.342025 
L 396.928804 199.557652 
L 399.146837 197.716216 
L 401.364869 195.811863 
L 403.582902 193.837667 
L 405.800934 191.785329 
L 408.018967 189.644763 
L 410.236999 187.403506 
L 412.455032 185.045851 
L 414.673064 182.551529 
L 416.891097 179.893597 
L 419.109129 177.034893 
L 421.327162 173.921611 
L 423.545194 170.470508 
L 425.763227 166.539769 
L 427.981259 161.847162 
L 430.199292 155.630033 
L 432.417324 144.057803 
L 434.635357 129.583352 
L 436.853389 115.108902 
L 439.071422 100.634451 
L 441.289454 86.16 
" clip-path="url(#pf32c3d5d3a)" style="fill: none; stroke-dasharray: 5.55,2.4; stroke-dashoffset: 0; stroke: #ff7f0e; stroke-width: 1.5"/>
   </g>
   <g id="patch_3">
    <path d="M 180 304.56 
L 180 77.76 
" style="fill: none; stroke: #000000; stroke-width: 0.8; stroke-linejoin: miter; stroke-linecap: square"/>
   </g>
   <g id="patch_4">
    <path d="M 508.235294 304.56 
L 508.235294 77.76 
" style="fill: none; stroke: #000000; stroke-width: 0.8; stroke-linejoin: miter; stroke-linecap: square"/>
   </g>
   <g id="patch_5">
    <path d="M 180 304.56 
L 508.235294 304.56 
" style="fill: none; stroke: #000000; stroke-width: 0.8; stroke-linejoin: miter; stroke-linecap: square"/>
   </g>
   <g id="patch_6">
    <path d="M 180 77.76 
L 508.235294 77.76 
" style="fill: none; stroke: #000000; stroke-width: 0.8; stroke-linejoin: miter; stroke-linecap: square"/>
   </g>
   <g id="text_13">
    <!--  Block: 0 -->
    <g transform="translate(318.237022 71.76) scale(0.12 -0.12)">
     <defs>
      <path id="DejaVuSans-20" transform="scale(0.015625)"/>
      <path id="DejaVuSans-42" d="M 1259 2228 
L 1259 519 
L 2272 519 
Q 2781 519 3026 730 
Q 3272 941 3272 1375 
Q 3272 1813 3026 2020 
Q 2781 2228 2272 2228 
L 1259 2228 
z
M 1259 4147 
L 1259 2741 
L 2194 2741 
Q 2656 2741 2882 2914 
Q 3109 3088 3109 3444 
Q 3109 3797 2882 3972 
Q 2656 4147 2194 4147 
L 1259 4147 
z
M 628 4666 
L 2241 4666 
Q 2963 4666 3353 4366 
Q 3744 4066 3744 3513 
Q 3744 3084 3544 2831 
Q 3344 2578 2956 2516 
Q 3422 2416 3680 2098 
Q 3938 1781 3938 1306 
Q 3938 681 3513 340 
Q 3088 0 2303 0 
L 628 0 
L 628 4666 
z
" transform="scale(0.015625)"/>
      <path id="DejaVuSans-6c" d="M 603 4863 
L 1178 4863 
L 1178 0 
L 603 0 
L 603 4863 
z
" transform="scale(0.015625)"/>
      <path id="DejaVuSans-6f" d="M 1959 3097 
Q 1497 3097 1228 2736 
Q 959 2375 959 1747 
Q 959 1119 1226 758 
Q 1494 397 1959 397 
Q 2419 397 2687 759 
Q 2956 1122 2956 1747 
Q 2956 2369 2687 2733 
Q 2419 3097 1959 3097 
z
M 1959 3584 
Q 2709 3584 3137 3096 
Q 3566 2609 3566 1747 
Q 3566 888 3137 398 
Q 2709 -91 1959 -91 
Q 1206 -91 779 398 
Q 353 888 353 1747 
Q 353 2609 779 3096 
Q 1206 3584 1959 3584 
z
" transform="scale(0.015625)"/>
      <path id="DejaVuSans-63" d="M 3122 3366 
L 3122 2828 
Q 2878 2963 2633 3030 
Q 2388 3097 2138 3097 
Q 1578 3097 1268 2742 
Q 959 2388 959 1747 
Q 959 1106 1268 751 
Q 1578 397 2138 397 
Q 2388 397 2633 464 
Q 2878 531 3122 666 
L 3122 134 
Q 2881 22 2623 -34 
Q 2366 -91 2075 -91 
Q 1284 -91 818 406 
Q 353 903 353 1747 
Q 353 2603 823 3093 
Q 1294 3584 2113 3584 
Q 2378 3584 2631 3529 
Q 2884 3475 3122 3366 
z
" transform="scale(0.015625)"/>
      <path id="DejaVuSans-6b" d="M 581 4863 
L 1159 4863 
L 1159 1991 
L 2875 3500 
L 3609 3500 
L 1753 1863 
L 3688 0 
L 2938 0 
L 1159 1709 
L 1159 0 
L 581 0 
L 581 4863 
z
" transform="scale(0.015625)"/>
      <path id="DejaVuSans-3a" d="M 750 794 
L 1409 794 
L 1409 0 
L 750 0 
L 750 794 
z
M 750 3309 
L 1409 3309 
L 1409 2516 
L 750 2516 
L 750 3309 
z
" transform="scale(0.015625)"/>
     </defs>
     <use xlink:href="#DejaVuSans-20"/>
     <use xlink:href="#DejaVuSans-42" x="31.787109"/>
     <use xlink:href="#DejaVuSans-6c" x="100.390625"/>
     <use xlink:href="#DejaVuSans-6f" x="128.173828"/>
     <use xlink:href="#DejaVuSans-63" x="189.355469"/>
     <use xlink:href="#DejaVuSans-6b" x="244.335938"/>
     <use xlink:href="#DejaVuSans-3a" x="302.246094"/>
     <use xlink:href="#DejaVuSans-20" x="335.9375"/>
     <use xlink:href="#DejaVuSans-30" x="367.724609"/>
    </g>
   </g>
   <g id="legend_1">
    <g id="patch_7">
     <path d="M 187 130.0725 
L 311.8375 130.0725 
Q 313.8375 130.0725 313.8375 128.0725 
L 313.8375 84.76 
Q 313.8375 82.76 311.8375 82.76 
L 187 82.76 
Q 185 82.76 185 84.76 
L 185 128.0725 
Q 185 130.0725 187 130.0725 
z
" style="fill: #ffffff; opacity: 0.8; stroke: #cccccc; stroke-linejoin: miter"/>
    </g>
    <g id="PathCollection_2">
     <g>
      <use xlink:href="#m66edec644e" x="199" y="91.733438" style="stroke: #000000"/>
     </g>
    </g>
    <g id="text_14">
     <!-- Data -->
     <g transform="translate(217 94.358438) scale(0.1 -0.1)">
      <defs>
       <path id="DejaVuSans-44" d="M 1259 4147 
L 1259 519 
L 2022 519 
Q 2988 519 3436 956 
Q 3884 1394 3884 2338 
Q 3884 3275 3436 3711 
Q 2988 4147 2022 4147 
L 1259 4147 
z
M 628 4666 
L 1925 4666 
Q 3281 4666 3915 4102 
Q 4550 3538 4550 2338 
Q 4550 1131 3912 565 
Q 3275 0 1925 0 
L 628 0 
L 628 4666 
z
" transform="scale(0.015625)"/>
       <path id="DejaVuSans-61" d="M 2194 1759 
Q 1497 1759 1228 1600 
Q 959 1441 959 1056 
Q 959 750 1161 570 
Q 1363 391 1709 391 
Q 2188 391 2477 730 
Q 2766 1069 2766 1631 
L 2766 1759 
L 2194 1759 
z
M 3341 1997 
L 3341 0 
L 2766 0 
L 2766 531 
Q 2569 213 2275 61 
Q 1981 -91 1556 -91 
Q 1019 -91 701 211 
Q 384 513 384 1019 
Q 384 1609 779 1909 
Q 1175 2209 1959 2209 
L 2766 2209 
L 2766 2266 
Q 2766 2663 2505 2880 
Q 2244 3097 1772 3097 
Q 1472 3097 1187 3025 
Q 903 2953 641 2809 
L 641 3341 
Q 956 3463 1253 3523 
Q 1550 3584 1831 3584 
Q 2591 3584 2966 3190 
Q 3341 2797 3341 1997 
z
" transform="scale(0.015625)"/>
       <path id="DejaVuSans-74" d="M 1172 4494 
L 1172 3500 
L 2356 3500 
L 2356 3053 
L 1172 3053 
L 1172 1153 
Q 1172 725 1289 603 
Q 1406 481 1766 481 
L 2356 481 
L 2356 0 
L 1766 0 
Q 1100 0 847 248 
Q 594 497 594 1153 
L 594 3053 
L 172 3053 
L 172 3500 
L 594 3500 
L 594 4494 
L 1172 4494 
z
" transform="scale(0.015625)"/>
      </defs>
      <use xlink:href="#DejaVuSans-44"/>
      <use xlink:href="#DejaVuSans-61" x="77.001953"/>
      <use xlink:href="#DejaVuSans-74" x="138.28125"/>
      <use xlink:href="#DejaVuSans-61" x="177.490234"/>
     </g>
    </g>
    <g id="line2d_29">
     <path d="M 189 105.536563 
L 199 105.536563 
L 209 105.536563 
" style="fill: none; stroke: #1f77b4; stroke-width: 1.5; stroke-linecap: square"/>
    </g>
    <g id="text_15">
     <!-- Artc e:0.2329 -->
     <g transform="translate(217 109.036563) scale(0.1 -0.1)">
      <defs>
       <path id="DejaVuSans-41" d="M 2188 4044 
L 1331 1722 
L 3047 1722 
L 2188 4044 
z
M 1831 4666 
L 2547 4666 
L 4325 0 
L 3669 0 
L 3244 1197 
L 1141 1197 
L 716 0 
L 50 0 
L 1831 4666 
z
" transform="scale(0.015625)"/>
       <path id="DejaVuSans-72" d="M 2631 2963 
Q 2534 3019 2420 3045 
Q 2306 3072 2169 3072 
Q 1681 3072 1420 2755 
Q 1159 2438 1159 1844 
L 1159 0 
L 581 0 
L 581 3500 
L 1159 3500 
L 1159 2956 
Q 1341 3275 1631 3429 
Q 1922 3584 2338 3584 
Q 2397 3584 2469 3576 
Q 2541 3569 2628 3553 
L 2631 2963 
z
" transform="scale(0.015625)"/>
       <path id="DejaVuSans-65" d="M 3597 1894 
L 3597 1613 
L 953 1613 
Q 991 1019 1311 708 
Q 1631 397 2203 397 
Q 2534 397 2845 478 
Q 3156 559 3463 722 
L 3463 178 
Q 3153 47 2828 -22 
Q 2503 -91 2169 -91 
Q 1331 -91 842 396 
Q 353 884 353 1716 
Q 353 2575 817 3079 
Q 1281 3584 2069 3584 
Q 2775 3584 3186 3129 
Q 3597 2675 3597 1894 
z
M 3022 2063 
Q 3016 2534 2758 2815 
Q 2500 3097 2075 3097 
Q 1594 3097 1305 2825 
Q 1016 2553 972 2059 
L 3022 2063 
z
" transform="scale(0.015625)"/>
       <path id="DejaVuSans-2e" d="M 684 794 
L 1344 794 
L 1344 0 
L 684 0 
L 684 794 
z
" transform="scale(0.015625)"/>
       <path id="DejaVuSans-39" d="M 703 97 
L 703 672 
Q 941 559 1184 500 
Q 1428 441 1663 441 
Q 2288 441 2617 861 
Q 2947 1281 2994 2138 
Q 2813 1869 2534 1725 
Q 2256 1581 1919 1581 
Q 1219 1581 811 2004 
Q 403 2428 403 3163 
Q 403 3881 828 4315 
Q 1253 4750 1959 4750 
Q 2769 4750 3195 4129 
Q 3622 3509 3622 2328 
Q 3622 1225 3098 567 
Q 2575 -91 1691 -91 
Q 1453 -91 1209 -44 
Q 966 3 703 97 
z
M 1959 2075 
Q 2384 2075 2632 2365 
Q 2881 2656 2881 3163 
Q 2881 3666 2632 3958 
Q 2384 4250 1959 4250 
Q 1534 4250 1286 3958 
Q 1038 3666 1038 3163 
Q 1038 2656 1286 2365 
Q 1534 2075 1959 2075 
z
" transform="scale(0.015625)"/>
      </defs>
      <use xlink:href="#DejaVuSans-41"/>
      <use xlink:href="#DejaVuSans-72" x="68.408203"/>
      <use xlink:href="#DejaVuSans-74" x="109.521484"/>
      <use xlink:href="#DejaVuSans-63" x="148.730469"/>
      <use xlink:href="#DejaVuSans-20" x="203.710938"/>
      <use xlink:href="#DejaVuSans-65" x="235.498047"/>
      <use xlink:href="#DejaVuSans-3a" x="297.021484"/>
      <use xlink:href="#DejaVuSans-30" x="330.712891"/>
      <use xlink:href="#DejaVuSans-2e" x="394.335938"/>
      <use xlink:href="#DejaVuSans-32" x="426.123047"/>
      <use xlink:href="#DejaVuSans-33" x="489.746094"/>
      <use xlink:href="#DejaVuSans-32" x="553.369141"/>
      <use xlink:href="#DejaVuSans-39" x="616.992188"/>
     </g>
    </g>
    <g id="line2d_30">
     <path d="M 189 120.214688 
L 199 120.214688 
L 209 120.214688 
" style="fill: none; stroke-dasharray: 5.55,2.4; stroke-dashoffset: 0; stroke: #ff7f0e; stroke-width: 1.5"/>
    </g>
    <g id="text_16">
     <!-- NEL_BTUX e:1.247 -->
     <g transform="translate(217 123.714688) scale(0.1 -0.1)">
      <defs>
       <path id="DejaVuSans-4e" d="M 628 4666 
L 1478 4666 
L 3547 763 
L 3547 4666 
L 4159 4666 
L 4159 0 
L 3309 0 
L 1241 3903 
L 1241 0 
L 628 0 
L 628 4666 
z
" transform="scale(0.015625)"/>
       <path id="DejaVuSans-45" d="M 628 4666 
L 3578 4666 
L 3578 4134 
L 1259 4134 
L 1259 2753 
L 3481 2753 
L 3481 2222 
L 1259 2222 
L 1259 531 
L 3634 531 
L 3634 0 
L 628 0 
L 628 4666 
z
" transform="scale(0.015625)"/>
       <path id="DejaVuSans-4c" d="M 628 4666 
L 1259 4666 
L 1259 531 
L 3531 531 
L 3531 0 
L 628 0 
L 628 4666 
z
" transform="scale(0.015625)"/>
       <path id="DejaVuSans-5f" d="M 3263 -1063 
L 3263 -1509 
L -63 -1509 
L -63 -1063 
L 3263 -1063 
z
" transform="scale(0.015625)"/>
       <path id="DejaVuSans-54" d="M -19 4666 
L 3928 4666 
L 3928 4134 
L 2272 4134 
L 2272 0 
L 1638 0 
L 1638 4134 
L -19 4134 
L -19 4666 
z
" transform="scale(0.015625)"/>
       <path id="DejaVuSans-55" d="M 556 4666 
L 1191 4666 
L 1191 1831 
Q 1191 1081 1462 751 
Q 1734 422 2344 422 
Q 2950 422 3222 751 
Q 3494 1081 3494 1831 
L 3494 4666 
L 4128 4666 
L 4128 1753 
Q 4128 841 3676 375 
Q 3225 -91 2344 -91 
Q 1459 -91 1007 375 
Q 556 841 556 1753 
L 556 4666 
z
" transform="scale(0.015625)"/>
       <path id="DejaVuSans-58" d="M 403 4666 
L 1081 4666 
L 2241 2931 
L 3406 4666 
L 4084 4666 
L 2584 2425 
L 4184 0 
L 3506 0 
L 2194 1984 
L 872 0 
L 191 0 
L 1856 2491 
L 403 4666 
z
" transform="scale(0.015625)"/>
       <path id="DejaVuSans-37" d="M 525 4666 
L 3525 4666 
L 3525 4397 
L 1831 0 
L 1172 0 
L 2766 4134 
L 525 4134 
L 525 4666 
z
" transform="scale(0.015625)"/>
      </defs>
      <use xlink:href="#DejaVuSans-4e"/>
      <use xlink:href="#DejaVuSans-45" x="74.804688"/>
      <use xlink:href="#DejaVuSans-4c" x="137.988281"/>
      <use xlink:href="#DejaVuSans-5f" x="193.701172"/>
      <use xlink:href="#DejaVuSans-42" x="243.701172"/>
      <use xlink:href="#DejaVuSans-54" x="312.304688"/>
      <use xlink:href="#DejaVuSans-55" x="373.388672"/>
      <use xlink:href="#DejaVuSans-58" x="446.582031"/>
      <use xlink:href="#DejaVuSans-20" x="515.087891"/>
      <use xlink:href="#DejaVuSans-65" x="546.875"/>
      <use xlink:href="#DejaVuSans-3a" x="608.398438"/>
      <use xlink:href="#DejaVuSans-31" x="642.089844"/>
      <use xlink:href="#DejaVuSans-2e" x="705.712891"/>
      <use xlink:href="#DejaVuSans-32" x="737.5"/>
      <use xlink:href="#DejaVuSans-34" x="801.123047"/>
      <use xlink:href="#DejaVuSans-37" x="864.746094"/>
     </g>
    </g>
   </g>
  </g>
  <g id="axes_2">
   <g id="patch_8">
    <path d="M 573.882353 304.56 
L 902.117647 304.56 
L 902.117647 77.76 
L 573.882353 77.76 
z
" style="fill: #ffffff"/>
   </g>
   <g id="PathCollection_3">
    <g clip-path="url(#p7ca00bc65d)">
     <use xlink:href="#m66edec644e" x="821.66782" y="149.16" style="stroke: #000000"/>
     <use xlink:href="#m66edec644e" x="853.847751" y="107.16" style="stroke: #000000"/>
     <use xlink:href="#m66edec644e" x="773.397924" y="233.16" style="stroke: #000000"/>
     <use xlink:href="#m66edec644e" x="886.027682" y="86.16" style="stroke: #000000"/>
     <use xlink:href="#m66edec644e" x="725.128028" y="233.16" style="stroke: #000000"/>
     <use xlink:href="#m66edec644e" x="676.858131" y="275.16" style="stroke: #000000"/>
     <use xlink:href="#m66edec644e" x="628.588235" y="275.16" style="stroke: #000000"/>
     <use xlink:href="#m66edec644e" x="580.318339" y="296.16" style="stroke: #000000"/>
     <use xlink:href="#m66edec644e" x="596.408304" y="296.16" style="stroke: #000000"/>
     <use xlink:href="#m66edec644e" x="612.49827" y="296.16" style="stroke: #000000"/>
     <use xlink:href="#m66edec644e" x="628.588235" y="296.16" style="stroke: #000000"/>
     <use xlink:href="#m66edec644e" x="644.678201" y="275.16" style="stroke: #000000"/>
     <use xlink:href="#m66edec644e" x="644.677879" y="275.16" style="stroke: #000000"/>
     <use xlink:href="#m66edec644e" x="781.183536" y="191.16" style="stroke: #000000"/>
     <use xlink:href="#m66edec644e" x="735.681758" y="212.16" style="stroke: #000000"/>
     <use xlink:href="#m66edec644e" x="826.685315" y="149.16" style="stroke: #000000"/>
     <use xlink:href="#m66edec644e" x="690.179657" y="233.16" style="stroke: #000000"/>
     <use xlink:href="#m66edec644e" x="646.141422" y="275.16" style="stroke: #000000"/>
     <use xlink:href="#m66edec644e" x="874.86736" y="107.16" style="stroke: #000000"/>
     <use xlink:href="#m66edec644e" x="760.504391" y="191.16" style="stroke: #000000"/>
     <use xlink:href="#m66edec644e" x="817.685875" y="149.16" style="stroke: #000000"/>
     <use xlink:href="#m66edec644e" x="703.322907" y="191.16" style="stroke: #000000"/>
    </g>
   </g>
   <g id="matplotlib.axis_3">
    <g id="xtick_7">
     <g id="line2d_31">
      <path d="M 580.318339 304.56 
L 580.318339 77.76 
" clip-path="url(#p7ca00bc65d)" style="fill: none; stroke: #b0b0b0; stroke-width: 0.8; stroke-linecap: square"/>
     </g>
     <g id="line2d_32">
      <g>
       <use xlink:href="#mf3d518d887" x="580.318339" y="304.56" style="stroke: #000000; stroke-width: 0.8"/>
      </g>
     </g>
     <g id="text_17">
      <!-- 0 -->
      <g transform="translate(577.137089 319.158437) scale(0.1 -0.1)">
       <use xlink:href="#DejaVuSans-30"/>
      </g>
     </g>
    </g>
    <g id="xtick_8">
     <g id="line2d_33">
      <path d="M 644.678201 304.56 
L 644.678201 77.76 
" clip-path="url(#p7ca00bc65d)" style="fill: none; stroke: #b0b0b0; stroke-width: 0.8; stroke-linecap: square"/>
     </g>
     <g id="line2d_34">
      <g>
       <use xlink:href="#mf3d518d887" x="644.678201" y="304.56" style="stroke: #000000; stroke-width: 0.8"/>
      </g>
     </g>
     <g id="text_18">
      <!-- 20 -->
      <g transform="translate(638.315701 319.158437) scale(0.1 -0.1)">
       <use xlink:href="#DejaVuSans-32"/>
       <use xlink:href="#DejaVuSans-30" x="63.623047"/>
      </g>
     </g>
    </g>
    <g id="xtick_9">
     <g id="line2d_35">
      <path d="M 709.038062 304.56 
L 709.038062 77.76 
" clip-path="url(#p7ca00bc65d)" style="fill: none; stroke: #b0b0b0; stroke-width: 0.8; stroke-linecap: square"/>
     </g>
     <g id="line2d_36">
      <g>
       <use xlink:href="#mf3d518d887" x="709.038062" y="304.56" style="stroke: #000000; stroke-width: 0.8"/>
      </g>
     </g>
     <g id="text_19">
      <!-- 40 -->
      <g transform="translate(702.675562 319.158437) scale(0.1 -0.1)">
       <use xlink:href="#DejaVuSans-34"/>
       <use xlink:href="#DejaVuSans-30" x="63.623047"/>
      </g>
     </g>
    </g>
    <g id="xtick_10">
     <g id="line2d_37">
      <path d="M 773.397924 304.56 
L 773.397924 77.76 
" clip-path="url(#p7ca00bc65d)" style="fill: none; stroke: #b0b0b0; stroke-width: 0.8; stroke-linecap: square"/>
     </g>
     <g id="line2d_38">
      <g>
       <use xlink:href="#mf3d518d887" x="773.397924" y="304.56" style="stroke: #000000; stroke-width: 0.8"/>
      </g>
     </g>
     <g id="text_20">
      <!-- 60 -->
      <g transform="translate(767.035424 319.158437) scale(0.1 -0.1)">
       <use xlink:href="#DejaVuSans-36"/>
       <use xlink:href="#DejaVuSans-30" x="63.623047"/>
      </g>
     </g>
    </g>
    <g id="xtick_11">
     <g id="line2d_39">
      <path d="M 837.757785 304.56 
L 837.757785 77.76 
" clip-path="url(#p7ca00bc65d)" style="fill: none; stroke: #b0b0b0; stroke-width: 0.8; stroke-linecap: square"/>
     </g>
     <g id="line2d_40">
      <g>
       <use xlink:href="#mf3d518d887" x="837.757785" y="304.56" style="stroke: #000000; stroke-width: 0.8"/>
      </g>
     </g>
     <g id="text_21">
      <!-- 80 -->
      <g transform="translate(831.395285 319.158437) scale(0.1 -0.1)">
       <use xlink:href="#DejaVuSans-38"/>
       <use xlink:href="#DejaVuSans-30" x="63.623047"/>
      </g>
     </g>
    </g>
    <g id="xtick_12">
     <g id="line2d_41">
      <path d="M 902.117647 304.56 
L 902.117647 77.76 
" clip-path="url(#p7ca00bc65d)" style="fill: none; stroke: #b0b0b0; stroke-width: 0.8; stroke-linecap: square"/>
     </g>
     <g id="line2d_42">
      <g>
       <use xlink:href="#mf3d518d887" x="902.117647" y="304.56" style="stroke: #000000; stroke-width: 0.8"/>
      </g>
     </g>
     <g id="text_22">
      <!-- 100 -->
      <g transform="translate(892.573897 319.158437) scale(0.1 -0.1)">
       <use xlink:href="#DejaVuSans-31"/>
       <use xlink:href="#DejaVuSans-30" x="63.623047"/>
       <use xlink:href="#DejaVuSans-30" x="127.246094"/>
      </g>
     </g>
    </g>
   </g>
   <g id="matplotlib.axis_4">
    <g id="ytick_7">
     <g id="line2d_43">
      <path d="M 573.882353 296.16 
L 902.117647 296.16 
" clip-path="url(#p7ca00bc65d)" style="fill: none; stroke: #b0b0b0; stroke-width: 0.8; stroke-linecap: square"/>
     </g>
     <g id="line2d_44">
      <g>
       <use xlink:href="#m869ae1562c" x="573.882353" y="296.16" style="stroke: #000000; stroke-width: 0.8"/>
      </g>
     </g>
     <g id="text_23">
      <!-- 0 -->
      <g transform="translate(560.519853 299.959219) scale(0.1 -0.1)">
       <use xlink:href="#DejaVuSans-30"/>
      </g>
     </g>
    </g>
    <g id="ytick_8">
     <g id="line2d_45">
      <path d="M 573.882353 254.16 
L 902.117647 254.16 
" clip-path="url(#p7ca00bc65d)" style="fill: none; stroke: #b0b0b0; stroke-width: 0.8; stroke-linecap: square"/>
     </g>
     <g id="line2d_46">
      <g>
       <use xlink:href="#m869ae1562c" x="573.882353" y="254.16" style="stroke: #000000; stroke-width: 0.8"/>
      </g>
     </g>
     <g id="text_24">
      <!-- 10 -->
      <g transform="translate(554.157353 257.959219) scale(0.1 -0.1)">
       <use xlink:href="#DejaVuSans-31"/>
       <use xlink:href="#DejaVuSans-30" x="63.623047"/>
      </g>
     </g>
    </g>
    <g id="ytick_9">
     <g id="line2d_47">
      <path d="M 573.882353 212.16 
L 902.117647 212.16 
" clip-path="url(#p7ca00bc65d)" style="fill: none; stroke: #b0b0b0; stroke-width: 0.8; stroke-linecap: square"/>
     </g>
     <g id="line2d_48">
      <g>
       <use xlink:href="#m869ae1562c" x="573.882353" y="212.16" style="stroke: #000000; stroke-width: 0.8"/>
      </g>
     </g>
     <g id="text_25">
      <!-- 20 -->
      <g transform="translate(554.157353 215.959219) scale(0.1 -0.1)">
       <use xlink:href="#DejaVuSans-32"/>
       <use xlink:href="#DejaVuSans-30" x="63.623047"/>
      </g>
     </g>
    </g>
    <g id="ytick_10">
     <g id="line2d_49">
      <path d="M 573.882353 170.16 
L 902.117647 170.16 
" clip-path="url(#p7ca00bc65d)" style="fill: none; stroke: #b0b0b0; stroke-width: 0.8; stroke-linecap: square"/>
     </g>
     <g id="line2d_50">
      <g>
       <use xlink:href="#m869ae1562c" x="573.882353" y="170.16" style="stroke: #000000; stroke-width: 0.8"/>
      </g>
     </g>
     <g id="text_26">
      <!-- 30 -->
      <g transform="translate(554.157353 173.959219) scale(0.1 -0.1)">
       <use xlink:href="#DejaVuSans-33"/>
       <use xlink:href="#DejaVuSans-30" x="63.623047"/>
      </g>
     </g>
    </g>
    <g id="ytick_11">
     <g id="line2d_51">
      <path d="M 573.882353 128.16 
L 902.117647 128.16 
" clip-path="url(#p7ca00bc65d)" style="fill: none; stroke: #b0b0b0; stroke-width: 0.8; stroke-linecap: square"/>
     </g>
     <g id="line2d_52">
      <g>
       <use xlink:href="#m869ae1562c" x="573.882353" y="128.16" style="stroke: #000000; stroke-width: 0.8"/>
      </g>
     </g>
     <g id="text_27">
      <!-- 40 -->
      <g transform="translate(554.157353 131.959219) scale(0.1 -0.1)">
       <use xlink:href="#DejaVuSans-34"/>
       <use xlink:href="#DejaVuSans-30" x="63.623047"/>
      </g>
     </g>
    </g>
    <g id="ytick_12">
     <g id="line2d_53">
      <path d="M 573.882353 86.16 
L 902.117647 86.16 
" clip-path="url(#p7ca00bc65d)" style="fill: none; stroke: #b0b0b0; stroke-width: 0.8; stroke-linecap: square"/>
     </g>
     <g id="line2d_54">
      <g>
       <use xlink:href="#m869ae1562c" x="573.882353" y="86.16" style="stroke: #000000; stroke-width: 0.8"/>
      </g>
     </g>
     <g id="text_28">
      <!-- 50 -->
      <g transform="translate(554.157353 89.959219) scale(0.1 -0.1)">
       <use xlink:href="#DejaVuSans-35"/>
       <use xlink:href="#DejaVuSans-30" x="63.623047"/>
      </g>
     </g>
    </g>
   </g>
   <g id="line2d_55">
    <path d="M 548.138408 191.16 
L 966.477509 191.16 
" clip-path="url(#p7ca00bc65d)" style="fill: none; stroke-dasharray: 1.5,2.475; stroke-dashoffset: 0; stroke: #808080; stroke-width: 1.5"/>
   </g>
   <g id="line2d_56">
    <path d="M 886.027682 338.16 
L 886.027682 2.16 
" clip-path="url(#p7ca00bc65d)" style="fill: none; stroke-dasharray: 5.55,2.4; stroke-dashoffset: 0; stroke: #ff0000; stroke-opacity: 0.3; stroke-width: 1.5"/>
   </g>
   <g id="line2d_57">
    <path d="M 605.680185 296.16 
L 608.49638 294.522584 
L 611.312575 292.885168 
L 614.128771 291.247752 
L 616.944966 289.610335 
L 619.761162 287.972919 
L 622.577357 286.335503 
L 625.393552 284.698087 
L 628.209748 283.060671 
L 631.025943 281.423255 
L 633.842138 279.785838 
L 636.658334 278.148422 
L 639.474529 276.511006 
L 642.290724 274.87359 
L 645.10692 273.236174 
L 647.923115 271.598758 
L 650.73931 269.961342 
L 653.555506 268.323925 
L 656.371701 266.686509 
L 659.187896 265.049093 
L 662.004092 263.411677 
L 664.820287 261.774261 
L 667.636482 260.136845 
L 670.452678 258.499428 
L 673.268873 256.862012 
L 676.085068 255.224596 
L 678.901264 253.58718 
L 681.717459 251.949764 
L 684.533654 250.312348 
L 687.34985 248.674931 
L 690.166045 247.037515 
L 692.98224 245.400099 
L 695.798436 243.762683 
L 698.614631 242.125267 
L 701.430826 240.487851 
L 704.247022 238.850435 
L 707.063217 237.213018 
L 709.879413 235.575602 
L 712.695608 233.938186 
L 715.511803 232.298756 
L 718.327999 230.646196 
L 721.144194 228.978462 
L 723.960389 227.295128 
L 726.776585 225.595748 
L 729.59278 223.879855 
L 732.408975 222.146956 
L 735.225171 220.396538 
L 738.041366 218.628056 
L 740.857561 216.84094 
L 743.673757 215.034588 
L 746.489952 213.208366 
L 749.306147 211.361603 
L 752.122343 209.49359 
L 754.938538 207.603575 
L 757.754733 205.690763 
L 760.570929 203.754308 
L 763.387124 201.793312 
L 766.203319 199.806817 
L 769.019515 197.793801 
L 771.83571 195.753173 
L 774.651905 193.683765 
L 777.468101 191.584323 
L 780.284296 189.453501 
L 783.100491 187.289848 
L 785.916687 185.091798 
L 788.732882 182.857656 
L 791.549077 180.585584 
L 794.365273 178.273582 
L 797.181468 175.919468 
L 799.997663 173.520852 
L 802.813859 171.075112 
L 805.630054 168.579355 
L 808.44625 166.030382 
L 811.262445 163.424636 
L 814.07864 160.758146 
L 816.894836 158.026454 
L 819.711031 155.22453 
L 822.527226 152.34666 
L 825.343422 149.386314 
L 828.159617 146.37578 
L 830.975812 143.364991 
L 833.792008 140.354202 
L 836.608203 137.343413 
L 839.424398 134.332624 
L 842.240594 131.321835 
L 845.056789 128.311046 
L 847.872984 125.300257 
L 850.68918 122.289468 
L 853.505375 119.278679 
L 856.32157 116.26789 
L 859.137766 113.257101 
L 861.953961 110.246312 
L 864.770156 107.235523 
L 867.586352 104.224734 
L 870.402547 101.213945 
L 873.218742 98.203156 
L 876.034938 95.192367 
L 878.851133 92.181578 
L 881.667328 89.170789 
L 884.483524 86.16 
" clip-path="url(#p7ca00bc65d)" style="fill: none; stroke: #1f77b4; stroke-width: 1.5; stroke-linecap: square"/>
   </g>
   <g id="line2d_58">
    <path d="M 613.048117 296.16 
L 615.832677 294.27836 
L 618.617238 292.39672 
L 621.401798 290.51508 
L 624.186359 288.633441 
L 626.97092 286.751801 
L 629.75548 284.870161 
L 632.540041 282.988521 
L 635.324601 281.106881 
L 638.109162 279.225241 
L 640.893722 277.343601 
L 643.678283 275.461962 
L 646.462844 273.580322 
L 649.247404 271.698682 
L 652.031965 269.817042 
L 654.816525 267.935402 
L 657.601086 266.053762 
L 660.385646 264.172122 
L 663.170207 262.290483 
L 665.954768 260.408843 
L 668.739328 258.527203 
L 671.523889 256.645563 
L 674.308449 254.763923 
L 677.09301 252.882283 
L 679.87757 251.000643 
L 682.662131 249.119004 
L 685.446692 247.237364 
L 688.231252 245.355724 
L 691.015813 243.474084 
L 693.800373 241.592444 
L 696.584934 239.710804 
L 699.369494 237.829164 
L 702.154055 235.947525 
L 704.938616 234.065885 
L 707.723176 232.182961 
L 710.507737 230.291542 
L 713.292297 228.390378 
L 716.076858 226.479316 
L 718.861419 224.558202 
L 721.645979 222.626873 
L 724.43054 220.685167 
L 727.2151 218.732912 
L 729.999661 216.769937 
L 732.784221 214.796062 
L 735.568782 212.811103 
L 738.353343 210.814872 
L 741.137903 208.807175 
L 743.922464 206.787811 
L 746.707024 204.756574 
L 749.491585 202.713254 
L 752.276145 200.657632 
L 755.060706 198.589482 
L 757.845267 196.508573 
L 760.629827 194.414666 
L 763.414388 192.307513 
L 766.198948 190.186862 
L 768.983509 188.052448 
L 771.768069 185.904 
L 774.55263 183.741238 
L 777.337191 181.563872 
L 780.121751 179.371602 
L 782.906312 177.164117 
L 785.690872 174.941096 
L 788.475433 172.702207 
L 791.259993 170.447105 
L 794.044554 168.175432 
L 796.829115 165.886818 
L 799.613675 163.580878 
L 802.398236 161.257213 
L 805.182796 158.915406 
L 807.967357 156.555027 
L 810.751917 154.175626 
L 813.536478 151.776737 
L 816.321039 149.357872 
L 819.105599 146.92725 
L 821.89016 144.49656 
L 824.67472 142.06587 
L 827.459281 139.63518 
L 830.243841 137.20449 
L 833.028402 134.7738 
L 835.812963 132.34311 
L 838.597523 129.91242 
L 841.382084 127.48173 
L 844.166644 125.05104 
L 846.951205 122.62035 
L 849.735765 120.18966 
L 852.520326 117.75897 
L 855.304887 115.32828 
L 858.089447 112.89759 
L 860.874008 110.4669 
L 863.658568 108.03621 
L 866.443129 105.60552 
L 869.227689 103.17483 
L 872.01225 100.74414 
L 874.796811 98.31345 
L 877.581371 95.88276 
L 880.365932 93.45207 
L 883.150492 91.02138 
L 885.935053 88.59069 
L 888.719613 86.16 
" clip-path="url(#p7ca00bc65d)" style="fill: none; stroke-dasharray: 5.55,2.4; stroke-dashoffset: 0; stroke: #ff7f0e; stroke-width: 1.5"/>
   </g>
   <g id="patch_9">
    <path d="M 573.882353 304.56 
L 573.882353 77.76 
" style="fill: none; stroke: #000000; stroke-width: 0.8; stroke-linejoin: miter; stroke-linecap: square"/>
   </g>
   <g id="patch_10">
    <path d="M 902.117647 304.56 
L 902.117647 77.76 
" style="fill: none; stroke: #000000; stroke-width: 0.8; stroke-linejoin: miter; stroke-linecap: square"/>
   </g>
   <g id="patch_11">
    <path d="M 573.882353 304.56 
L 902.117647 304.56 
" style="fill: none; stroke: #000000; stroke-width: 0.8; stroke-linejoin: miter; stroke-linecap: square"/>
   </g>
   <g id="patch_12">
    <path d="M 573.882353 77.76 
L 902.117647 77.76 
" style="fill: none; stroke: #000000; stroke-width: 0.8; stroke-linejoin: miter; stroke-linecap: square"/>
   </g>
   <g id="text_29">
    <!--  Block: 1 -->
    <g transform="translate(712.119375 71.76) scale(0.12 -0.12)">
     <use xlink:href="#DejaVuSans-20"/>
     <use xlink:href="#DejaVuSans-42" x="31.787109"/>
     <use xlink:href="#DejaVuSans-6c" x="100.390625"/>
     <use xlink:href="#DejaVuSans-6f" x="128.173828"/>
     <use xlink:href="#DejaVuSans-63" x="189.355469"/>
     <use xlink:href="#DejaVuSans-6b" x="244.335938"/>
     <use xlink:href="#DejaVuSans-3a" x="302.246094"/>
     <use xlink:href="#DejaVuSans-20" x="335.9375"/>
     <use xlink:href="#DejaVuSans-31" x="367.724609"/>
    </g>
   </g>
   <g id="legend_2">
    <g id="patch_13">
     <path d="M 580.882353 130.0725 
L 712.082353 130.0725 
Q 714.082353 130.0725 714.082353 128.0725 
L 714.082353 84.76 
Q 714.082353 82.76 712.082353 82.76 
L 580.882353 82.76 
Q 578.882353 82.76 578.882353 84.76 
L 578.882353 128.0725 
Q 578.882353 130.0725 580.882353 130.0725 
z
" style="fill: #ffffff; opacity: 0.8; stroke: #cccccc; stroke-linejoin: miter"/>
    </g>
    <g id="PathCollection_4">
     <g>
      <use xlink:href="#m66edec644e" x="592.882353" y="91.733438" style="stroke: #000000"/>
     </g>
    </g>
    <g id="text_30">
     <!-- Data -->
     <g transform="translate(610.882353 94.358438) scale(0.1 -0.1)">
      <use xlink:href="#DejaVuSans-44"/>
      <use xlink:href="#DejaVuSans-61" x="77.001953"/>
      <use xlink:href="#DejaVuSans-74" x="138.28125"/>
      <use xlink:href="#DejaVuSans-61" x="177.490234"/>
     </g>
    </g>
    <g id="line2d_59">
     <path d="M 582.882353 105.536563 
L 592.882353 105.536563 
L 602.882353 105.536563 
" style="fill: none; stroke: #1f77b4; stroke-width: 1.5; stroke-linecap: square"/>
    </g>
    <g id="text_31">
     <!-- Artc e:0.1718 -->
     <g transform="translate(610.882353 109.036563) scale(0.1 -0.1)">
      <use xlink:href="#DejaVuSans-41"/>
      <use xlink:href="#DejaVuSans-72" x="68.408203"/>
      <use xlink:href="#DejaVuSans-74" x="109.521484"/>
      <use xlink:href="#DejaVuSans-63" x="148.730469"/>
      <use xlink:href="#DejaVuSans-20" x="203.710938"/>
      <use xlink:href="#DejaVuSans-65" x="235.498047"/>
      <use xlink:href="#DejaVuSans-3a" x="297.021484"/>
      <use xlink:href="#DejaVuSans-30" x="330.712891"/>
      <use xlink:href="#DejaVuSans-2e" x="394.335938"/>
      <use xlink:href="#DejaVuSans-31" x="426.123047"/>
      <use xlink:href="#DejaVuSans-37" x="489.746094"/>
      <use xlink:href="#DejaVuSans-31" x="553.369141"/>
      <use xlink:href="#DejaVuSans-38" x="616.992188"/>
     </g>
    </g>
    <g id="line2d_60">
     <path d="M 582.882353 120.214688 
L 592.882353 120.214688 
L 602.882353 120.214688 
" style="fill: none; stroke-dasharray: 5.55,2.4; stroke-dashoffset: 0; stroke: #ff7f0e; stroke-width: 1.5"/>
    </g>
    <g id="text_32">
     <!-- NEL_BTUX e:0.1838 -->
     <g transform="translate(610.882353 123.714688) scale(0.1 -0.1)">
      <use xlink:href="#DejaVuSans-4e"/>
      <use xlink:href="#DejaVuSans-45" x="74.804688"/>
      <use xlink:href="#DejaVuSans-4c" x="137.988281"/>
      <use xlink:href="#DejaVuSans-5f" x="193.701172"/>
      <use xlink:href="#DejaVuSans-42" x="243.701172"/>
      <use xlink:href="#DejaVuSans-54" x="312.304688"/>
      <use xlink:href="#DejaVuSans-55" x="373.388672"/>
      <use xlink:href="#DejaVuSans-58" x="446.582031"/>
      <use xlink:href="#DejaVuSans-20" x="515.087891"/>
      <use xlink:href="#DejaVuSans-65" x="546.875"/>
      <use xlink:href="#DejaVuSans-3a" x="608.398438"/>
      <use xlink:href="#DejaVuSans-30" x="642.089844"/>
      <use xlink:href="#DejaVuSans-2e" x="705.712891"/>
      <use xlink:href="#DejaVuSans-31" x="737.5"/>
      <use xlink:href="#DejaVuSans-38" x="801.123047"/>
      <use xlink:href="#DejaVuSans-33" x="864.746094"/>
      <use xlink:href="#DejaVuSans-38" x="928.369141"/>
     </g>
    </g>
   </g>
  </g>
  <g id="axes_3">
   <g id="patch_14">
    <path d="M 967.764706 304.56 
L 1296 304.56 
L 1296 77.76 
L 967.764706 77.76 
z
" style="fill: #ffffff"/>
   </g>
   <g id="PathCollection_5">
    <g clip-path="url(#pd5bc5bf0a8)">
     <use xlink:href="#m66edec644e" x="1215.550173" y="149.16" style="stroke: #000000"/>
     <use xlink:href="#m66edec644e" x="1247.730104" y="86.16" style="stroke: #000000"/>
     <use xlink:href="#m66edec644e" x="1167.280277" y="191.16" style="stroke: #000000"/>
     <use xlink:href="#m66edec644e" x="1119.010381" y="233.16" style="stroke: #000000"/>
     <use xlink:href="#m66edec644e" x="1070.740484" y="254.16" style="stroke: #000000"/>
     <use xlink:href="#m66edec644e" x="1022.470588" y="275.16" style="stroke: #000000"/>
     <use xlink:href="#m66edec644e" x="974.200692" y="296.16" style="stroke: #000000"/>
     <use xlink:href="#m66edec644e" x="990.290657" y="296.16" style="stroke: #000000"/>
     <use xlink:href="#m66edec644e" x="1006.380623" y="296.16" style="stroke: #000000"/>
     <use xlink:href="#m66edec644e" x="1022.470588" y="296.16" style="stroke: #000000"/>
     <use xlink:href="#m66edec644e" x="1038.560554" y="275.16" style="stroke: #000000"/>
     <use xlink:href="#m66edec644e" x="1175.065889" y="191.16" style="stroke: #000000"/>
     <use xlink:href="#m66edec644e" x="1084.06201" y="233.16" style="stroke: #000000"/>
     <use xlink:href="#m66edec644e" x="1038.560232" y="275.16" style="stroke: #000000"/>
     <use xlink:href="#m66edec644e" x="1220.567668" y="149.16" style="stroke: #000000"/>
     <use xlink:href="#m66edec644e" x="1129.564111" y="191.16" style="stroke: #000000"/>
     <use xlink:href="#m66edec644e" x="1251.750664" y="86.16" style="stroke: #000000"/>
     <use xlink:href="#m66edec644e" x="1038.020574" y="275.16" style="stroke: #000000"/>
     <use xlink:href="#m66edec644e" x="1198.318142" y="149.16" style="stroke: #000000"/>
     <use xlink:href="#m66edec644e" x="1091.453097" y="233.16" style="stroke: #000000"/>
     <use xlink:href="#m66edec644e" x="1144.885619" y="191.16" style="stroke: #000000"/>
    </g>
   </g>
   <g id="matplotlib.axis_5">
    <g id="xtick_13">
     <g id="line2d_61">
      <path d="M 974.200692 304.56 
L 974.200692 77.76 
" clip-path="url(#pd5bc5bf0a8)" style="fill: none; stroke: #b0b0b0; stroke-width: 0.8; stroke-linecap: square"/>
     </g>
     <g id="line2d_62">
      <g>
       <use xlink:href="#mf3d518d887" x="974.200692" y="304.56" style="stroke: #000000; stroke-width: 0.8"/>
      </g>
     </g>
     <g id="text_33">
      <!-- 0 -->
      <g transform="translate(971.019442 319.158437) scale(0.1 -0.1)">
       <use xlink:href="#DejaVuSans-30"/>
      </g>
     </g>
    </g>
    <g id="xtick_14">
     <g id="line2d_63">
      <path d="M 1038.560554 304.56 
L 1038.560554 77.76 
" clip-path="url(#pd5bc5bf0a8)" style="fill: none; stroke: #b0b0b0; stroke-width: 0.8; stroke-linecap: square"/>
     </g>
     <g id="line2d_64">
      <g>
       <use xlink:href="#mf3d518d887" x="1038.560554" y="304.56" style="stroke: #000000; stroke-width: 0.8"/>
      </g>
     </g>
     <g id="text_34">
      <!-- 20 -->
      <g transform="translate(1032.198054 319.158437) scale(0.1 -0.1)">
       <use xlink:href="#DejaVuSans-32"/>
       <use xlink:href="#DejaVuSans-30" x="63.623047"/>
      </g>
     </g>
    </g>
    <g id="xtick_15">
     <g id="line2d_65">
      <path d="M 1102.920415 304.56 
L 1102.920415 77.76 
" clip-path="url(#pd5bc5bf0a8)" style="fill: none; stroke: #b0b0b0; stroke-width: 0.8; stroke-linecap: square"/>
     </g>
     <g id="line2d_66">
      <g>
       <use xlink:href="#mf3d518d887" x="1102.920415" y="304.56" style="stroke: #000000; stroke-width: 0.8"/>
      </g>
     </g>
     <g id="text_35">
      <!-- 40 -->
      <g transform="translate(1096.557915 319.158437) scale(0.1 -0.1)">
       <use xlink:href="#DejaVuSans-34"/>
       <use xlink:href="#DejaVuSans-30" x="63.623047"/>
      </g>
     </g>
    </g>
    <g id="xtick_16">
     <g id="line2d_67">
      <path d="M 1167.280277 304.56 
L 1167.280277 77.76 
" clip-path="url(#pd5bc5bf0a8)" style="fill: none; stroke: #b0b0b0; stroke-width: 0.8; stroke-linecap: square"/>
     </g>
     <g id="line2d_68">
      <g>
       <use xlink:href="#mf3d518d887" x="1167.280277" y="304.56" style="stroke: #000000; stroke-width: 0.8"/>
      </g>
     </g>
     <g id="text_36">
      <!-- 60 -->
      <g transform="translate(1160.917777 319.158437) scale(0.1 -0.1)">
       <use xlink:href="#DejaVuSans-36"/>
       <use xlink:href="#DejaVuSans-30" x="63.623047"/>
      </g>
     </g>
    </g>
    <g id="xtick_17">
     <g id="line2d_69">
      <path d="M 1231.640138 304.56 
L 1231.640138 77.76 
" clip-path="url(#pd5bc5bf0a8)" style="fill: none; stroke: #b0b0b0; stroke-width: 0.8; stroke-linecap: square"/>
     </g>
     <g id="line2d_70">
      <g>
       <use xlink:href="#mf3d518d887" x="1231.640138" y="304.56" style="stroke: #000000; stroke-width: 0.8"/>
      </g>
     </g>
     <g id="text_37">
      <!-- 80 -->
      <g transform="translate(1225.277638 319.158437) scale(0.1 -0.1)">
       <use xlink:href="#DejaVuSans-38"/>
       <use xlink:href="#DejaVuSans-30" x="63.623047"/>
      </g>
     </g>
    </g>
    <g id="xtick_18">
     <g id="line2d_71">
      <path d="M 1296 304.56 
L 1296 77.76 
" clip-path="url(#pd5bc5bf0a8)" style="fill: none; stroke: #b0b0b0; stroke-width: 0.8; stroke-linecap: square"/>
     </g>
     <g id="line2d_72">
      <g>
       <use xlink:href="#mf3d518d887" x="1296" y="304.56" style="stroke: #000000; stroke-width: 0.8"/>
      </g>
     </g>
     <g id="text_38">
      <!-- 100 -->
      <g transform="translate(1286.45625 319.158437) scale(0.1 -0.1)">
       <use xlink:href="#DejaVuSans-31"/>
       <use xlink:href="#DejaVuSans-30" x="63.623047"/>
       <use xlink:href="#DejaVuSans-30" x="127.246094"/>
      </g>
     </g>
    </g>
   </g>
   <g id="matplotlib.axis_6">
    <g id="ytick_13">
     <g id="line2d_73">
      <path d="M 967.764706 296.16 
L 1296 296.16 
" clip-path="url(#pd5bc5bf0a8)" style="fill: none; stroke: #b0b0b0; stroke-width: 0.8; stroke-linecap: square"/>
     </g>
     <g id="line2d_74">
      <g>
       <use xlink:href="#m869ae1562c" x="967.764706" y="296.16" style="stroke: #000000; stroke-width: 0.8"/>
      </g>
     </g>
     <g id="text_39">
      <!-- 0 -->
      <g transform="translate(954.402206 299.959219) scale(0.1 -0.1)">
       <use xlink:href="#DejaVuSans-30"/>
      </g>
     </g>
    </g>
    <g id="ytick_14">
     <g id="line2d_75">
      <path d="M 967.764706 254.16 
L 1296 254.16 
" clip-path="url(#pd5bc5bf0a8)" style="fill: none; stroke: #b0b0b0; stroke-width: 0.8; stroke-linecap: square"/>
     </g>
     <g id="line2d_76">
      <g>
       <use xlink:href="#m869ae1562c" x="967.764706" y="254.16" style="stroke: #000000; stroke-width: 0.8"/>
      </g>
     </g>
     <g id="text_40">
      <!-- 10 -->
      <g transform="translate(948.039706 257.959219) scale(0.1 -0.1)">
       <use xlink:href="#DejaVuSans-31"/>
       <use xlink:href="#DejaVuSans-30" x="63.623047"/>
      </g>
     </g>
    </g>
    <g id="ytick_15">
     <g id="line2d_77">
      <path d="M 967.764706 212.16 
L 1296 212.16 
" clip-path="url(#pd5bc5bf0a8)" style="fill: none; stroke: #b0b0b0; stroke-width: 0.8; stroke-linecap: square"/>
     </g>
     <g id="line2d_78">
      <g>
       <use xlink:href="#m869ae1562c" x="967.764706" y="212.16" style="stroke: #000000; stroke-width: 0.8"/>
      </g>
     </g>
     <g id="text_41">
      <!-- 20 -->
      <g transform="translate(948.039706 215.959219) scale(0.1 -0.1)">
       <use xlink:href="#DejaVuSans-32"/>
       <use xlink:href="#DejaVuSans-30" x="63.623047"/>
      </g>
     </g>
    </g>
    <g id="ytick_16">
     <g id="line2d_79">
      <path d="M 967.764706 170.16 
L 1296 170.16 
" clip-path="url(#pd5bc5bf0a8)" style="fill: none; stroke: #b0b0b0; stroke-width: 0.8; stroke-linecap: square"/>
     </g>
     <g id="line2d_80">
      <g>
       <use xlink:href="#m869ae1562c" x="967.764706" y="170.16" style="stroke: #000000; stroke-width: 0.8"/>
      </g>
     </g>
     <g id="text_42">
      <!-- 30 -->
      <g transform="translate(948.039706 173.959219) scale(0.1 -0.1)">
       <use xlink:href="#DejaVuSans-33"/>
       <use xlink:href="#DejaVuSans-30" x="63.623047"/>
      </g>
     </g>
    </g>
    <g id="ytick_17">
     <g id="line2d_81">
      <path d="M 967.764706 128.16 
L 1296 128.16 
" clip-path="url(#pd5bc5bf0a8)" style="fill: none; stroke: #b0b0b0; stroke-width: 0.8; stroke-linecap: square"/>
     </g>
     <g id="line2d_82">
      <g>
       <use xlink:href="#m869ae1562c" x="967.764706" y="128.16" style="stroke: #000000; stroke-width: 0.8"/>
      </g>
     </g>
     <g id="text_43">
      <!-- 40 -->
      <g transform="translate(948.039706 131.959219) scale(0.1 -0.1)">
       <use xlink:href="#DejaVuSans-34"/>
       <use xlink:href="#DejaVuSans-30" x="63.623047"/>
      </g>
     </g>
    </g>
    <g id="ytick_18">
     <g id="line2d_83">
      <path d="M 967.764706 86.16 
L 1296 86.16 
" clip-path="url(#pd5bc5bf0a8)" style="fill: none; stroke: #b0b0b0; stroke-width: 0.8; stroke-linecap: square"/>
     </g>
     <g id="line2d_84">
      <g>
       <use xlink:href="#m869ae1562c" x="967.764706" y="86.16" style="stroke: #000000; stroke-width: 0.8"/>
      </g>
     </g>
     <g id="text_44">
      <!-- 50 -->
      <g transform="translate(948.039706 89.959219) scale(0.1 -0.1)">
       <use xlink:href="#DejaVuSans-35"/>
       <use xlink:href="#DejaVuSans-30" x="63.623047"/>
      </g>
     </g>
    </g>
   </g>
   <g id="line2d_85">
    <path d="M 942.020761 191.16 
L 1360.359862 191.16 
" clip-path="url(#pd5bc5bf0a8)" style="fill: none; stroke-dasharray: 1.5,2.475; stroke-dashoffset: 0; stroke: #808080; stroke-width: 1.5"/>
   </g>
   <g id="line2d_86">
    <path d="M 1279.910035 338.16 
L 1279.910035 2.16 
" clip-path="url(#pd5bc5bf0a8)" style="fill: none; stroke-dasharray: 5.55,2.4; stroke-dashoffset: 0; stroke: #ff0000; stroke-opacity: 0.3; stroke-width: 1.5"/>
   </g>
   <g id="line2d_87">
    <path d="M 1000.945311 296.16 
L 1003.533073 294.557462 
L 1006.120836 292.954924 
L 1008.708598 291.352386 
L 1011.296361 289.749848 
L 1013.884123 288.14731 
L 1016.471885 286.544772 
L 1019.059648 284.942234 
L 1021.64741 283.339696 
L 1024.235172 281.737159 
L 1026.822935 280.134621 
L 1029.410697 278.532083 
L 1031.99846 276.929545 
L 1034.586222 275.327007 
L 1037.173984 273.724469 
L 1039.761747 272.121931 
L 1042.349509 270.519393 
L 1044.937271 268.916855 
L 1047.525034 267.314317 
L 1050.112796 265.711779 
L 1052.700559 264.109241 
L 1055.288321 262.506703 
L 1057.876083 260.904165 
L 1060.463846 259.301627 
L 1063.051608 257.699089 
L 1065.63937 256.096552 
L 1068.227133 254.494014 
L 1070.814895 252.891476 
L 1073.402658 251.288938 
L 1075.99042 249.6864 
L 1078.578182 248.083862 
L 1081.165945 246.481324 
L 1083.753707 244.878786 
L 1086.341469 243.276248 
L 1088.929232 241.67371 
L 1091.516994 240.071172 
L 1094.104757 238.468634 
L 1096.692519 236.866096 
L 1099.280281 235.263558 
L 1101.868044 233.66102 
L 1104.455806 232.054928 
L 1107.043568 230.434318 
L 1109.631331 228.798021 
L 1112.219093 227.145571 
L 1114.806856 225.47648 
L 1117.394618 223.790235 
L 1119.98238 222.086297 
L 1122.570143 220.364096 
L 1125.157905 218.623032 
L 1127.745667 216.862471 
L 1130.33343 215.081744 
L 1132.921192 213.280141 
L 1135.508955 211.456911 
L 1138.096717 209.611254 
L 1140.684479 207.742323 
L 1143.272242 205.849214 
L 1145.860004 203.930965 
L 1148.447766 201.986545 
L 1151.035529 200.014853 
L 1153.623291 198.01471 
L 1156.211054 195.984846 
L 1158.798816 193.923896 
L 1161.386578 191.830387 
L 1163.974341 189.702724 
L 1166.562103 187.539179 
L 1169.149865 185.337874 
L 1171.737628 183.096759 
L 1174.32539 180.813594 
L 1176.913153 178.485918 
L 1179.500915 176.111022 
L 1182.088677 173.68591 
L 1184.67644 171.207255 
L 1187.264202 168.671347 
L 1189.851964 166.074023 
L 1192.439727 163.410594 
L 1195.027489 160.67574 
L 1197.615252 157.863385 
L 1200.203014 154.966543 
L 1202.790776 151.977108 
L 1205.378539 148.886018 
L 1207.966301 145.749717 
L 1210.554063 142.613417 
L 1213.141826 139.477116 
L 1215.729588 136.340815 
L 1218.317351 133.204514 
L 1220.905113 130.068213 
L 1223.492875 126.931912 
L 1226.080638 123.795611 
L 1228.6684 120.65931 
L 1231.256162 117.523009 
L 1233.843925 114.386708 
L 1236.431687 111.250407 
L 1239.019449 108.114106 
L 1241.607212 104.977806 
L 1244.194974 101.841505 
L 1246.782737 98.705204 
L 1249.370499 95.568903 
L 1251.958261 92.432602 
L 1254.546024 89.296301 
L 1257.133786 86.16 
" clip-path="url(#pd5bc5bf0a8)" style="fill: none; stroke: #1f77b4; stroke-width: 1.5; stroke-linecap: square"/>
   </g>
   <g id="line2d_88">
    <path d="M 1005.870778 296.16 
L 1008.360654 294.584801 
L 1010.85053 293.009603 
L 1013.340406 291.434404 
L 1015.830282 289.859205 
L 1018.320157 288.284007 
L 1020.810033 286.708808 
L 1023.299909 285.133609 
L 1025.789785 283.558411 
L 1028.27966 281.983212 
L 1030.769536 280.408013 
L 1033.259412 278.832815 
L 1035.749288 277.257616 
L 1038.239163 275.682417 
L 1040.729039 274.107219 
L 1043.218915 272.53202 
L 1045.708791 270.956821 
L 1048.198667 269.381623 
L 1050.688542 267.806424 
L 1053.178418 266.231225 
L 1055.668294 264.656027 
L 1058.15817 263.080828 
L 1060.648045 261.505629 
L 1063.137921 259.930431 
L 1065.627797 258.355232 
L 1068.117673 256.780033 
L 1070.607548 255.204835 
L 1073.097424 253.629636 
L 1075.5873 252.054437 
L 1078.077176 250.479239 
L 1080.567052 248.90404 
L 1083.056927 247.328841 
L 1085.546803 245.753643 
L 1088.036679 244.178444 
L 1090.526555 242.603245 
L 1093.01643 241.028047 
L 1095.506306 239.452848 
L 1097.996182 237.877649 
L 1100.486058 236.302451 
L 1102.975933 234.727252 
L 1105.465809 233.152053 
L 1107.955685 231.569099 
L 1110.445561 229.970482 
L 1112.935437 228.355729 
L 1115.425312 226.72434 
L 1117.915188 225.07579 
L 1120.405064 223.409527 
L 1122.89494 221.724967 
L 1125.384815 220.021493 
L 1127.874691 218.298453 
L 1130.364567 216.555159 
L 1132.854443 214.790877 
L 1135.344318 213.004831 
L 1137.834194 211.196196 
L 1140.32407 209.364092 
L 1142.813946 207.507581 
L 1145.303822 205.62566 
L 1147.793697 203.717258 
L 1150.283573 201.781222 
L 1152.773449 199.816318 
L 1155.263325 197.821214 
L 1157.7532 195.794474 
L 1160.243076 193.734541 
L 1162.732952 191.639731 
L 1165.222828 189.50821 
L 1167.712704 187.337977 
L 1170.202579 185.126842 
L 1172.692455 182.872402 
L 1175.182331 180.57201 
L 1177.672207 178.222733 
L 1180.162082 175.821318 
L 1182.651958 173.36413 
L 1185.141834 170.847093 
L 1187.63171 168.265607 
L 1190.121585 165.614455 
L 1192.611461 162.88767 
L 1195.101337 160.078386 
L 1197.591213 157.178627 
L 1200.081089 154.179046 
L 1202.570964 151.068562 
L 1205.06084 147.84499 
L 1207.550716 144.598412 
L 1210.040592 141.351833 
L 1212.530467 138.105255 
L 1215.020343 134.858676 
L 1217.510219 131.612098 
L 1220.000095 128.365519 
L 1222.48997 125.118941 
L 1224.979846 121.872363 
L 1227.469722 118.625784 
L 1229.959598 115.379206 
L 1232.449474 112.132627 
L 1234.939349 108.886049 
L 1237.429225 105.639471 
L 1239.919101 102.392892 
L 1242.408977 99.146314 
L 1244.898852 95.899735 
L 1247.388728 92.653157 
L 1249.878604 89.406578 
L 1252.36848 86.16 
" clip-path="url(#pd5bc5bf0a8)" style="fill: none; stroke-dasharray: 5.55,2.4; stroke-dashoffset: 0; stroke: #ff7f0e; stroke-width: 1.5"/>
   </g>
   <g id="patch_15">
    <path d="M 967.764706 304.56 
L 967.764706 77.76 
" style="fill: none; stroke: #000000; stroke-width: 0.8; stroke-linejoin: miter; stroke-linecap: square"/>
   </g>
   <g id="patch_16">
    <path d="M 1296 304.56 
L 1296 77.76 
" style="fill: none; stroke: #000000; stroke-width: 0.8; stroke-linejoin: miter; stroke-linecap: square"/>
   </g>
   <g id="patch_17">
    <path d="M 967.764706 304.56 
L 1296 304.56 
" style="fill: none; stroke: #000000; stroke-width: 0.8; stroke-linejoin: miter; stroke-linecap: square"/>
   </g>
   <g id="patch_18">
    <path d="M 967.764706 77.76 
L 1296 77.76 
" style="fill: none; stroke: #000000; stroke-width: 0.8; stroke-linejoin: miter; stroke-linecap: square"/>
   </g>
   <g id="text_45">
    <!--  Block: 2 -->
    <g transform="translate(1106.001728 71.76) scale(0.12 -0.12)">
     <use xlink:href="#DejaVuSans-20"/>
     <use xlink:href="#DejaVuSans-42" x="31.787109"/>
     <use xlink:href="#DejaVuSans-6c" x="100.390625"/>
     <use xlink:href="#DejaVuSans-6f" x="128.173828"/>
     <use xlink:href="#DejaVuSans-63" x="189.355469"/>
     <use xlink:href="#DejaVuSans-6b" x="244.335938"/>
     <use xlink:href="#DejaVuSans-3a" x="302.246094"/>
     <use xlink:href="#DejaVuSans-20" x="335.9375"/>
     <use xlink:href="#DejaVuSans-32" x="367.724609"/>
    </g>
   </g>
   <g id="legend_3">
    <g id="patch_19">
     <path d="M 974.764706 130.0725 
L 1105.964706 130.0725 
Q 1107.964706 130.0725 1107.964706 128.0725 
L 1107.964706 84.76 
Q 1107.964706 82.76 1105.964706 82.76 
L 974.764706 82.76 
Q 972.764706 82.76 972.764706 84.76 
L 972.764706 128.0725 
Q 972.764706 130.0725 974.764706 130.0725 
z
" style="fill: #ffffff; opacity: 0.8; stroke: #cccccc; stroke-linejoin: miter"/>
    </g>
    <g id="PathCollection_6">
     <g>
      <use xlink:href="#m66edec644e" x="986.764706" y="91.733438" style="stroke: #000000"/>
     </g>
    </g>
    <g id="text_46">
     <!-- Data -->
     <g transform="translate(1004.764706 94.358438) scale(0.1 -0.1)">
      <use xlink:href="#DejaVuSans-44"/>
      <use xlink:href="#DejaVuSans-61" x="77.001953"/>
      <use xlink:href="#DejaVuSans-74" x="138.28125"/>
      <use xlink:href="#DejaVuSans-61" x="177.490234"/>
     </g>
    </g>
    <g id="line2d_89">
     <path d="M 976.764706 105.536563 
L 986.764706 105.536563 
L 996.764706 105.536563 
" style="fill: none; stroke: #1f77b4; stroke-width: 1.5; stroke-linecap: square"/>
    </g>
    <g id="text_47">
     <!-- Artc e:0.1245 -->
     <g transform="translate(1004.764706 109.036563) scale(0.1 -0.1)">
      <use xlink:href="#DejaVuSans-41"/>
      <use xlink:href="#DejaVuSans-72" x="68.408203"/>
      <use xlink:href="#DejaVuSans-74" x="109.521484"/>
      <use xlink:href="#DejaVuSans-63" x="148.730469"/>
      <use xlink:href="#DejaVuSans-20" x="203.710938"/>
      <use xlink:href="#DejaVuSans-65" x="235.498047"/>
      <use xlink:href="#DejaVuSans-3a" x="297.021484"/>
      <use xlink:href="#DejaVuSans-30" x="330.712891"/>
      <use xlink:href="#DejaVuSans-2e" x="394.335938"/>
      <use xlink:href="#DejaVuSans-31" x="426.123047"/>
      <use xlink:href="#DejaVuSans-32" x="489.746094"/>
      <use xlink:href="#DejaVuSans-34" x="553.369141"/>
      <use xlink:href="#DejaVuSans-35" x="616.992188"/>
     </g>
    </g>
    <g id="line2d_90">
     <path d="M 976.764706 120.214688 
L 986.764706 120.214688 
L 996.764706 120.214688 
" style="fill: none; stroke-dasharray: 5.55,2.4; stroke-dashoffset: 0; stroke: #ff7f0e; stroke-width: 1.5"/>
    </g>
    <g id="text_48">
     <!-- NEL_BTUX e:0.1321 -->
     <g transform="translate(1004.764706 123.714688) scale(0.1 -0.1)">
      <use xlink:href="#DejaVuSans-4e"/>
      <use xlink:href="#DejaVuSans-45" x="74.804688"/>
      <use xlink:href="#DejaVuSans-4c" x="137.988281"/>
      <use xlink:href="#DejaVuSans-5f" x="193.701172"/>
      <use xlink:href="#DejaVuSans-42" x="243.701172"/>
      <use xlink:href="#DejaVuSans-54" x="312.304688"/>
      <use xlink:href="#DejaVuSans-55" x="373.388672"/>
      <use xlink:href="#DejaVuSans-58" x="446.582031"/>
      <use xlink:href="#DejaVuSans-20" x="515.087891"/>
      <use xlink:href="#DejaVuSans-65" x="546.875"/>
      <use xlink:href="#DejaVuSans-3a" x="608.398438"/>
      <use xlink:href="#DejaVuSans-30" x="642.089844"/>
      <use xlink:href="#DejaVuSans-2e" x="705.712891"/>
      <use xlink:href="#DejaVuSans-31" x="737.5"/>
      <use xlink:href="#DejaVuSans-33" x="801.123047"/>
      <use xlink:href="#DejaVuSans-32" x="864.746094"/>
      <use xlink:href="#DejaVuSans-31" x="928.369141"/>
     </g>
    </g>
   </g>
  </g>
  <g id="axes_4">
   <g id="patch_20">
    <path d="M 180 576.72 
L 508.235294 576.72 
L 508.235294 349.92 
L 180 349.92 
z
" style="fill: #ffffff"/>
   </g>
   <g id="PathCollection_7">
    <g clip-path="url(#p93876a725b)">
     <use xlink:href="#m66edec644e" x="427.785467" y="379.32" style="stroke: #000000"/>
     <use xlink:href="#m66edec644e" x="459.965398" y="358.32" style="stroke: #000000"/>
     <use xlink:href="#m66edec644e" x="379.515571" y="463.32" style="stroke: #000000"/>
     <use xlink:href="#m66edec644e" x="331.245675" y="505.32" style="stroke: #000000"/>
     <use xlink:href="#m66edec644e" x="282.975779" y="526.32" style="stroke: #000000"/>
     <use xlink:href="#m66edec644e" x="234.705882" y="547.32" style="stroke: #000000"/>
     <use xlink:href="#m66edec644e" x="186.435986" y="568.32" style="stroke: #000000"/>
     <use xlink:href="#m66edec644e" x="202.525952" y="568.32" style="stroke: #000000"/>
     <use xlink:href="#m66edec644e" x="218.615917" y="547.32" style="stroke: #000000"/>
     <use xlink:href="#m66edec644e" x="309.619474" y="526.32" style="stroke: #000000"/>
     <use xlink:href="#m66edec644e" x="400.623031" y="442.32" style="stroke: #000000"/>
     <use xlink:href="#m66edec644e" x="355.121253" y="463.32" style="stroke: #000000"/>
     <use xlink:href="#m66edec644e" x="218.61566" y="547.32" style="stroke: #000000"/>
     <use xlink:href="#m66edec644e" x="264.117374" y="526.32" style="stroke: #000000"/>
     <use xlink:href="#m66edec644e" x="408.571474" y="421.32" style="stroke: #000000"/>
     <use xlink:href="#m66edec644e" x="466.136221" y="358.32" style="stroke: #000000"/>
     <use xlink:href="#m66edec644e" x="351.007048" y="463.32" style="stroke: #000000"/>
     <use xlink:href="#m66edec644e" x="235.877875" y="568.32" style="stroke: #000000"/>
     <use xlink:href="#m66edec644e" x="293.442301" y="526.32" style="stroke: #000000"/>
    </g>
   </g>
   <g id="matplotlib.axis_7">
    <g id="xtick_19">
     <g id="line2d_91">
      <path d="M 186.435986 576.72 
L 186.435986 349.92 
" clip-path="url(#p93876a725b)" style="fill: none; stroke: #b0b0b0; stroke-width: 0.8; stroke-linecap: square"/>
     </g>
     <g id="line2d_92">
      <g>
       <use xlink:href="#mf3d518d887" x="186.435986" y="576.72" style="stroke: #000000; stroke-width: 0.8"/>
      </g>
     </g>
     <g id="text_49">
      <!-- 0 -->
      <g transform="translate(183.254736 591.318438) scale(0.1 -0.1)">
       <use xlink:href="#DejaVuSans-30"/>
      </g>
     </g>
    </g>
    <g id="xtick_20">
     <g id="line2d_93">
      <path d="M 250.795848 576.72 
L 250.795848 349.92 
" clip-path="url(#p93876a725b)" style="fill: none; stroke: #b0b0b0; stroke-width: 0.8; stroke-linecap: square"/>
     </g>
     <g id="line2d_94">
      <g>
       <use xlink:href="#mf3d518d887" x="250.795848" y="576.72" style="stroke: #000000; stroke-width: 0.8"/>
      </g>
     </g>
     <g id="text_50">
      <!-- 20 -->
      <g transform="translate(244.433348 591.318438) scale(0.1 -0.1)">
       <use xlink:href="#DejaVuSans-32"/>
       <use xlink:href="#DejaVuSans-30" x="63.623047"/>
      </g>
     </g>
    </g>
    <g id="xtick_21">
     <g id="line2d_95">
      <path d="M 315.155709 576.72 
L 315.155709 349.92 
" clip-path="url(#p93876a725b)" style="fill: none; stroke: #b0b0b0; stroke-width: 0.8; stroke-linecap: square"/>
     </g>
     <g id="line2d_96">
      <g>
       <use xlink:href="#mf3d518d887" x="315.155709" y="576.72" style="stroke: #000000; stroke-width: 0.8"/>
      </g>
     </g>
     <g id="text_51">
      <!-- 40 -->
      <g transform="translate(308.793209 591.318438) scale(0.1 -0.1)">
       <use xlink:href="#DejaVuSans-34"/>
       <use xlink:href="#DejaVuSans-30" x="63.623047"/>
      </g>
     </g>
    </g>
    <g id="xtick_22">
     <g id="line2d_97">
      <path d="M 379.515571 576.72 
L 379.515571 349.92 
" clip-path="url(#p93876a725b)" style="fill: none; stroke: #b0b0b0; stroke-width: 0.8; stroke-linecap: square"/>
     </g>
     <g id="line2d_98">
      <g>
       <use xlink:href="#mf3d518d887" x="379.515571" y="576.72" style="stroke: #000000; stroke-width: 0.8"/>
      </g>
     </g>
     <g id="text_52">
      <!-- 60 -->
      <g transform="translate(373.153071 591.318438) scale(0.1 -0.1)">
       <use xlink:href="#DejaVuSans-36"/>
       <use xlink:href="#DejaVuSans-30" x="63.623047"/>
      </g>
     </g>
    </g>
    <g id="xtick_23">
     <g id="line2d_99">
      <path d="M 443.875433 576.72 
L 443.875433 349.92 
" clip-path="url(#p93876a725b)" style="fill: none; stroke: #b0b0b0; stroke-width: 0.8; stroke-linecap: square"/>
     </g>
     <g id="line2d_100">
      <g>
       <use xlink:href="#mf3d518d887" x="443.875433" y="576.72" style="stroke: #000000; stroke-width: 0.8"/>
      </g>
     </g>
     <g id="text_53">
      <!-- 80 -->
      <g transform="translate(437.512933 591.318438) scale(0.1 -0.1)">
       <use xlink:href="#DejaVuSans-38"/>
       <use xlink:href="#DejaVuSans-30" x="63.623047"/>
      </g>
     </g>
    </g>
    <g id="xtick_24">
     <g id="line2d_101">
      <path d="M 508.235294 576.72 
L 508.235294 349.92 
" clip-path="url(#p93876a725b)" style="fill: none; stroke: #b0b0b0; stroke-width: 0.8; stroke-linecap: square"/>
     </g>
     <g id="line2d_102">
      <g>
       <use xlink:href="#mf3d518d887" x="508.235294" y="576.72" style="stroke: #000000; stroke-width: 0.8"/>
      </g>
     </g>
     <g id="text_54">
      <!-- 100 -->
      <g transform="translate(498.691544 591.318438) scale(0.1 -0.1)">
       <use xlink:href="#DejaVuSans-31"/>
       <use xlink:href="#DejaVuSans-30" x="63.623047"/>
       <use xlink:href="#DejaVuSans-30" x="127.246094"/>
      </g>
     </g>
    </g>
   </g>
   <g id="matplotlib.axis_8">
    <g id="ytick_19">
     <g id="line2d_103">
      <path d="M 180 568.32 
L 508.235294 568.32 
" clip-path="url(#p93876a725b)" style="fill: none; stroke: #b0b0b0; stroke-width: 0.8; stroke-linecap: square"/>
     </g>
     <g id="line2d_104">
      <g>
       <use xlink:href="#m869ae1562c" x="180" y="568.32" style="stroke: #000000; stroke-width: 0.8"/>
      </g>
     </g>
     <g id="text_55">
      <!-- 0 -->
      <g transform="translate(166.6375 572.119219) scale(0.1 -0.1)">
       <use xlink:href="#DejaVuSans-30"/>
      </g>
     </g>
    </g>
    <g id="ytick_20">
     <g id="line2d_105">
      <path d="M 180 526.32 
L 508.235294 526.32 
" clip-path="url(#p93876a725b)" style="fill: none; stroke: #b0b0b0; stroke-width: 0.8; stroke-linecap: square"/>
     </g>
     <g id="line2d_106">
      <g>
       <use xlink:href="#m869ae1562c" x="180" y="526.32" style="stroke: #000000; stroke-width: 0.8"/>
      </g>
     </g>
     <g id="text_56">
      <!-- 10 -->
      <g transform="translate(160.275 530.119219) scale(0.1 -0.1)">
       <use xlink:href="#DejaVuSans-31"/>
       <use xlink:href="#DejaVuSans-30" x="63.623047"/>
      </g>
     </g>
    </g>
    <g id="ytick_21">
     <g id="line2d_107">
      <path d="M 180 484.32 
L 508.235294 484.32 
" clip-path="url(#p93876a725b)" style="fill: none; stroke: #b0b0b0; stroke-width: 0.8; stroke-linecap: square"/>
     </g>
     <g id="line2d_108">
      <g>
       <use xlink:href="#m869ae1562c" x="180" y="484.32" style="stroke: #000000; stroke-width: 0.8"/>
      </g>
     </g>
     <g id="text_57">
      <!-- 20 -->
      <g transform="translate(160.275 488.119219) scale(0.1 -0.1)">
       <use xlink:href="#DejaVuSans-32"/>
       <use xlink:href="#DejaVuSans-30" x="63.623047"/>
      </g>
     </g>
    </g>
    <g id="ytick_22">
     <g id="line2d_109">
      <path d="M 180 442.32 
L 508.235294 442.32 
" clip-path="url(#p93876a725b)" style="fill: none; stroke: #b0b0b0; stroke-width: 0.8; stroke-linecap: square"/>
     </g>
     <g id="line2d_110">
      <g>
       <use xlink:href="#m869ae1562c" x="180" y="442.32" style="stroke: #000000; stroke-width: 0.8"/>
      </g>
     </g>
     <g id="text_58">
      <!-- 30 -->
      <g transform="translate(160.275 446.119219) scale(0.1 -0.1)">
       <use xlink:href="#DejaVuSans-33"/>
       <use xlink:href="#DejaVuSans-30" x="63.623047"/>
      </g>
     </g>
    </g>
    <g id="ytick_23">
     <g id="line2d_111">
      <path d="M 180 400.32 
L 508.235294 400.32 
" clip-path="url(#p93876a725b)" style="fill: none; stroke: #b0b0b0; stroke-width: 0.8; stroke-linecap: square"/>
     </g>
     <g id="line2d_112">
      <g>
       <use xlink:href="#m869ae1562c" x="180" y="400.32" style="stroke: #000000; stroke-width: 0.8"/>
      </g>
     </g>
     <g id="text_59">
      <!-- 40 -->
      <g transform="translate(160.275 404.119219) scale(0.1 -0.1)">
       <use xlink:href="#DejaVuSans-34"/>
       <use xlink:href="#DejaVuSans-30" x="63.623047"/>
      </g>
     </g>
    </g>
    <g id="ytick_24">
     <g id="line2d_113">
      <path d="M 180 358.32 
L 508.235294 358.32 
" clip-path="url(#p93876a725b)" style="fill: none; stroke: #b0b0b0; stroke-width: 0.8; stroke-linecap: square"/>
     </g>
     <g id="line2d_114">
      <g>
       <use xlink:href="#m869ae1562c" x="180" y="358.32" style="stroke: #000000; stroke-width: 0.8"/>
      </g>
     </g>
     <g id="text_60">
      <!-- 50 -->
      <g transform="translate(160.275 362.119219) scale(0.1 -0.1)">
       <use xlink:href="#DejaVuSans-35"/>
       <use xlink:href="#DejaVuSans-30" x="63.623047"/>
      </g>
     </g>
    </g>
   </g>
   <g id="line2d_115">
    <path d="M 154.256055 463.32 
L 572.595156 463.32 
" clip-path="url(#p93876a725b)" style="fill: none; stroke-dasharray: 1.5,2.475; stroke-dashoffset: 0; stroke: #808080; stroke-width: 1.5"/>
   </g>
   <g id="line2d_116">
    <path d="M 492.145329 610.32 
L 492.145329 274.32 
" clip-path="url(#p93876a725b)" style="fill: none; stroke-dasharray: 5.55,2.4; stroke-dashoffset: 0; stroke: #ff0000; stroke-opacity: 0.3; stroke-width: 1.5"/>
   </g>
   <g id="line2d_117">
    <path d="M 200.408662 568.32 
L 202.803427 566.994668 
L 205.198192 565.669336 
L 207.592957 564.344004 
L 209.987722 563.018672 
L 212.382487 561.693339 
L 214.777252 560.368007 
L 217.172018 559.042675 
L 219.566783 557.717343 
L 221.961548 556.392011 
L 224.356313 555.066679 
L 226.751078 553.741347 
L 229.145843 552.416015 
L 231.540608 551.090683 
L 233.935374 549.76535 
L 236.330139 548.440018 
L 238.724904 547.114686 
L 241.119669 545.789354 
L 243.514434 544.464022 
L 245.909199 543.13869 
L 248.303964 541.813358 
L 250.69873 540.488026 
L 253.093495 539.162694 
L 255.48826 537.837361 
L 257.883025 536.512029 
L 260.27779 535.186697 
L 262.672555 533.861365 
L 265.06732 532.536033 
L 267.462085 531.210701 
L 269.856851 529.885369 
L 272.251616 528.560037 
L 274.646381 527.234705 
L 277.041146 525.909372 
L 279.435911 524.58404 
L 281.830676 523.258708 
L 284.225441 521.933376 
L 286.620207 520.608044 
L 289.014972 519.282712 
L 291.409737 517.95738 
L 293.804502 516.632048 
L 296.199267 515.306716 
L 298.594032 513.981384 
L 300.988797 512.656051 
L 303.383563 511.330719 
L 305.778328 510.005387 
L 308.173093 508.680055 
L 310.567858 507.354723 
L 312.962623 506.029391 
L 315.357388 504.702355 
L 317.752153 503.361595 
L 320.146919 502.004288 
L 322.541684 500.629805 
L 324.936449 499.237476 
L 327.331214 497.826589 
L 329.725979 496.39638 
L 332.120744 494.946034 
L 334.515509 493.474675 
L 336.910274 491.981363 
L 339.30504 490.465083 
L 341.699805 488.924744 
L 344.09457 487.359162 
L 346.489335 485.767053 
L 348.8841 484.147022 
L 351.278865 482.497546 
L 353.67363 480.816958 
L 356.068396 479.10343 
L 358.463161 477.354944 
L 360.857926 475.569269 
L 363.252691 473.743927 
L 365.647456 471.87615 
L 368.042221 469.962833 
L 370.436986 468.000474 
L 372.831752 465.985096 
L 375.226517 463.912154 
L 377.621282 461.776415 
L 380.016047 459.571801 
L 382.410812 457.291184 
L 384.805577 454.926115 
L 387.200342 452.466456 
L 389.595108 449.899857 
L 391.989873 447.211024 
L 394.384638 444.38063 
L 396.779403 441.383638 
L 399.174168 438.186634 
L 401.568933 434.743264 
L 403.963698 430.985915 
L 406.358464 426.808883 
L 408.753229 422.029184 
L 411.147994 416.728336 
L 413.542759 411.418487 
L 415.937524 406.108638 
L 418.332289 400.79879 
L 420.727054 395.488941 
L 423.121819 390.179092 
L 425.516585 384.869244 
L 427.91135 379.559395 
L 430.306115 374.249546 
L 432.70088 368.939697 
L 435.095645 363.629849 
L 437.49041 358.32 
" clip-path="url(#p93876a725b)" style="fill: none; stroke: #1f77b4; stroke-width: 1.5; stroke-linecap: square"/>
   </g>
   <g id="line2d_118">
    <path d="M 190.350468 568.32 
L 192.853082 566.981334 
L 195.355697 565.642667 
L 197.858311 564.304001 
L 200.360926 562.965334 
L 202.86354 561.626668 
L 205.366155 560.288001 
L 207.868769 558.949335 
L 210.371383 557.610669 
L 212.873998 556.272002 
L 215.376612 554.933336 
L 217.879227 553.594669 
L 220.381841 552.256003 
L 222.884456 550.917336 
L 225.38707 549.57867 
L 227.889685 548.240004 
L 230.392299 546.901337 
L 232.894913 545.562671 
L 235.397528 544.224004 
L 237.900142 542.885338 
L 240.402757 541.546672 
L 242.905371 540.208005 
L 245.407986 538.869339 
L 247.9106 537.530672 
L 250.413215 536.192006 
L 252.915829 534.853339 
L 255.418443 533.514673 
L 257.921058 532.176007 
L 260.423672 530.83734 
L 262.926287 529.498674 
L 265.428901 528.160007 
L 267.931516 526.821341 
L 270.43413 525.482674 
L 272.936745 524.144008 
L 275.439359 522.805342 
L 277.941973 521.466675 
L 280.444588 520.128009 
L 282.947202 518.789342 
L 285.449817 517.450676 
L 287.952431 516.112009 
L 290.455046 514.773343 
L 292.95766 513.434677 
L 295.460275 512.09601 
L 297.962889 510.757344 
L 300.465503 509.418677 
L 302.968118 508.080011 
L 305.470732 506.741345 
L 307.973347 505.402678 
L 310.475961 504.057006 
L 312.978576 502.695085 
L 315.48119 501.316279 
L 317.983805 499.919944 
L 320.486419 498.505394 
L 322.989033 497.071898 
L 325.491648 495.618672 
L 327.994262 494.144879 
L 330.496877 492.649621 
L 332.999491 491.131931 
L 335.502106 489.590768 
L 338.00472 488.025009 
L 340.507335 486.433436 
L 343.009949 484.814729 
L 345.512563 483.167451 
L 348.015178 481.490034 
L 350.517792 479.78076 
L 353.020407 478.037743 
L 355.523021 476.2589 
L 358.025636 474.441928 
L 360.52825 472.584265 
L 363.030865 470.683047 
L 365.533479 468.73506 
L 368.036093 466.736672 
L 370.538708 464.683756 
L 373.041322 462.571589 
L 375.543937 460.394724 
L 378.046551 458.146823 
L 380.549166 455.820443 
L 383.05178 453.406741 
L 385.554394 450.895077 
L 388.057009 448.272458 
L 390.559623 445.522733 
L 393.062238 442.62541 
L 395.564852 439.553813 
L 398.067467 436.272112 
L 400.570081 432.7302 
L 403.072696 428.854185 
L 405.57531 424.526743 
L 408.077924 419.592928 
L 410.580539 414.486851 
L 413.083153 409.380774 
L 415.585768 404.274696 
L 418.088382 399.168619 
L 420.590997 394.062541 
L 423.093611 388.956464 
L 425.596226 383.850387 
L 428.09884 378.744309 
L 430.601454 373.638232 
L 433.104069 368.532155 
L 435.606683 363.426077 
L 438.109298 358.32 
" clip-path="url(#p93876a725b)" style="fill: none; stroke-dasharray: 5.55,2.4; stroke-dashoffset: 0; stroke: #ff7f0e; stroke-width: 1.5"/>
   </g>
   <g id="patch_21">
    <path d="M 180 576.72 
L 180 349.92 
" style="fill: none; stroke: #000000; stroke-width: 0.8; stroke-linejoin: miter; stroke-linecap: square"/>
   </g>
   <g id="patch_22">
    <path d="M 508.235294 576.72 
L 508.235294 349.92 
" style="fill: none; stroke: #000000; stroke-width: 0.8; stroke-linejoin: miter; stroke-linecap: square"/>
   </g>
   <g id="patch_23">
    <path d="M 180 576.72 
L 508.235294 576.72 
" style="fill: none; stroke: #000000; stroke-width: 0.8; stroke-linejoin: miter; stroke-linecap: square"/>
   </g>
   <g id="patch_24">
    <path d="M 180 349.92 
L 508.235294 349.92 
" style="fill: none; stroke: #000000; stroke-width: 0.8; stroke-linejoin: miter; stroke-linecap: square"/>
   </g>
   <g id="text_61">
    <!--  Block: 3 -->
    <g transform="translate(318.237022 343.92) scale(0.12 -0.12)">
     <use xlink:href="#DejaVuSans-20"/>
     <use xlink:href="#DejaVuSans-42" x="31.787109"/>
     <use xlink:href="#DejaVuSans-6c" x="100.390625"/>
     <use xlink:href="#DejaVuSans-6f" x="128.173828"/>
     <use xlink:href="#DejaVuSans-63" x="189.355469"/>
     <use xlink:href="#DejaVuSans-6b" x="244.335938"/>
     <use xlink:href="#DejaVuSans-3a" x="302.246094"/>
     <use xlink:href="#DejaVuSans-20" x="335.9375"/>
     <use xlink:href="#DejaVuSans-33" x="367.724609"/>
    </g>
   </g>
   <g id="legend_4">
    <g id="patch_25">
     <path d="M 187 402.2325 
L 318.2 402.2325 
Q 320.2 402.2325 320.2 400.2325 
L 320.2 356.92 
Q 320.2 354.92 318.2 354.92 
L 187 354.92 
Q 185 354.92 185 356.92 
L 185 400.2325 
Q 185 402.2325 187 402.2325 
z
" style="fill: #ffffff; opacity: 0.8; stroke: #cccccc; stroke-linejoin: miter"/>
    </g>
    <g id="PathCollection_8">
     <g>
      <use xlink:href="#m66edec644e" x="199" y="363.893437" style="stroke: #000000"/>
     </g>
    </g>
    <g id="text_62">
     <!-- Data -->
     <g transform="translate(217 366.518437) scale(0.1 -0.1)">
      <use xlink:href="#DejaVuSans-44"/>
      <use xlink:href="#DejaVuSans-61" x="77.001953"/>
      <use xlink:href="#DejaVuSans-74" x="138.28125"/>
      <use xlink:href="#DejaVuSans-61" x="177.490234"/>
     </g>
    </g>
    <g id="line2d_119">
     <path d="M 189 377.696562 
L 199 377.696562 
L 209 377.696562 
" style="fill: none; stroke: #1f77b4; stroke-width: 1.5; stroke-linecap: square"/>
    </g>
    <g id="text_63">
     <!-- Artc e:0.2649 -->
     <g transform="translate(217 381.196562) scale(0.1 -0.1)">
      <use xlink:href="#DejaVuSans-41"/>
      <use xlink:href="#DejaVuSans-72" x="68.408203"/>
      <use xlink:href="#DejaVuSans-74" x="109.521484"/>
      <use xlink:href="#DejaVuSans-63" x="148.730469"/>
      <use xlink:href="#DejaVuSans-20" x="203.710938"/>
      <use xlink:href="#DejaVuSans-65" x="235.498047"/>
      <use xlink:href="#DejaVuSans-3a" x="297.021484"/>
      <use xlink:href="#DejaVuSans-30" x="330.712891"/>
      <use xlink:href="#DejaVuSans-2e" x="394.335938"/>
      <use xlink:href="#DejaVuSans-32" x="426.123047"/>
      <use xlink:href="#DejaVuSans-36" x="489.746094"/>
      <use xlink:href="#DejaVuSans-34" x="553.369141"/>
      <use xlink:href="#DejaVuSans-39" x="616.992188"/>
     </g>
    </g>
    <g id="line2d_120">
     <path d="M 189 392.374687 
L 199 392.374687 
L 209 392.374687 
" style="fill: none; stroke-dasharray: 5.55,2.4; stroke-dashoffset: 0; stroke: #ff7f0e; stroke-width: 1.5"/>
    </g>
    <g id="text_64">
     <!-- NEL_BTUX e:0.2479 -->
     <g transform="translate(217 395.874687) scale(0.1 -0.1)">
      <use xlink:href="#DejaVuSans-4e"/>
      <use xlink:href="#DejaVuSans-45" x="74.804688"/>
      <use xlink:href="#DejaVuSans-4c" x="137.988281"/>
      <use xlink:href="#DejaVuSans-5f" x="193.701172"/>
      <use xlink:href="#DejaVuSans-42" x="243.701172"/>
      <use xlink:href="#DejaVuSans-54" x="312.304688"/>
      <use xlink:href="#DejaVuSans-55" x="373.388672"/>
      <use xlink:href="#DejaVuSans-58" x="446.582031"/>
      <use xlink:href="#DejaVuSans-20" x="515.087891"/>
      <use xlink:href="#DejaVuSans-65" x="546.875"/>
      <use xlink:href="#DejaVuSans-3a" x="608.398438"/>
      <use xlink:href="#DejaVuSans-30" x="642.089844"/>
      <use xlink:href="#DejaVuSans-2e" x="705.712891"/>
      <use xlink:href="#DejaVuSans-32" x="737.5"/>
      <use xlink:href="#DejaVuSans-34" x="801.123047"/>
      <use xlink:href="#DejaVuSans-37" x="864.746094"/>
      <use xlink:href="#DejaVuSans-39" x="928.369141"/>
     </g>
    </g>
   </g>
  </g>
  <g id="axes_5"/>
  <g id="axes_6"/>
  <g id="text_65">
   <!-- ID: 6915, Max level: 95dB -->
   <g transform="translate(655.440625 20.558438) scale(0.1 -0.1)">
    <defs>
     <path id="DejaVuSans-49" d="M 628 4666 
L 1259 4666 
L 1259 0 
L 628 0 
L 628 4666 
z
" transform="scale(0.015625)"/>
     <path id="DejaVuSans-2c" d="M 750 794 
L 1409 794 
L 1409 256 
L 897 -744 
L 494 -744 
L 750 256 
L 750 794 
z
" transform="scale(0.015625)"/>
     <path id="DejaVuSans-4d" d="M 628 4666 
L 1569 4666 
L 2759 1491 
L 3956 4666 
L 4897 4666 
L 4897 0 
L 4281 0 
L 4281 4097 
L 3078 897 
L 2444 897 
L 1241 4097 
L 1241 0 
L 628 0 
L 628 4666 
z
" transform="scale(0.015625)"/>
     <path id="DejaVuSans-78" d="M 3513 3500 
L 2247 1797 
L 3578 0 
L 2900 0 
L 1881 1375 
L 863 0 
L 184 0 
L 1544 1831 
L 300 3500 
L 978 3500 
L 1906 2253 
L 2834 3500 
L 3513 3500 
z
" transform="scale(0.015625)"/>
     <path id="DejaVuSans-76" d="M 191 3500 
L 800 3500 
L 1894 563 
L 2988 3500 
L 3597 3500 
L 2284 0 
L 1503 0 
L 191 3500 
z
" transform="scale(0.015625)"/>
     <path id="DejaVuSans-64" d="M 2906 2969 
L 2906 4863 
L 3481 4863 
L 3481 0 
L 2906 0 
L 2906 525 
Q 2725 213 2448 61 
Q 2172 -91 1784 -91 
Q 1150 -91 751 415 
Q 353 922 353 1747 
Q 353 2572 751 3078 
Q 1150 3584 1784 3584 
Q 2172 3584 2448 3432 
Q 2725 3281 2906 2969 
z
M 947 1747 
Q 947 1113 1208 752 
Q 1469 391 1925 391 
Q 2381 391 2643 752 
Q 2906 1113 2906 1747 
Q 2906 2381 2643 2742 
Q 2381 3103 1925 3103 
Q 1469 3103 1208 2742 
Q 947 2381 947 1747 
z
" transform="scale(0.015625)"/>
    </defs>
    <use xlink:href="#DejaVuSans-49"/>
    <use xlink:href="#DejaVuSans-44" x="29.492188"/>
    <use xlink:href="#DejaVuSans-3a" x="106.494141"/>
    <use xlink:href="#DejaVuSans-20" x="140.185547"/>
    <use xlink:href="#DejaVuSans-36" x="171.972656"/>
    <use xlink:href="#DejaVuSans-39" x="235.595703"/>
    <use xlink:href="#DejaVuSans-31" x="299.21875"/>
    <use xlink:href="#DejaVuSans-35" x="362.841797"/>
    <use xlink:href="#DejaVuSans-2c" x="426.464844"/>
    <use xlink:href="#DejaVuSans-20" x="458.251953"/>
    <use xlink:href="#DejaVuSans-4d" x="490.039062"/>
    <use xlink:href="#DejaVuSans-61" x="576.318359"/>
    <use xlink:href="#DejaVuSans-78" x="637.597656"/>
    <use xlink:href="#DejaVuSans-20" x="696.777344"/>
    <use xlink:href="#DejaVuSans-6c" x="728.564453"/>
    <use xlink:href="#DejaVuSans-65" x="756.347656"/>
    <use xlink:href="#DejaVuSans-76" x="817.871094"/>
    <use xlink:href="#DejaVuSans-65" x="877.050781"/>
    <use xlink:href="#DejaVuSans-6c" x="938.574219"/>
    <use xlink:href="#DejaVuSans-3a" x="966.357422"/>
    <use xlink:href="#DejaVuSans-20" x="1000.048828"/>
    <use xlink:href="#DejaVuSans-39" x="1031.835938"/>
    <use xlink:href="#DejaVuSans-35" x="1095.458984"/>
    <use xlink:href="#DejaVuSans-64" x="1159.082031"/>
    <use xlink:href="#DejaVuSans-42" x="1222.558594"/>
   </g>
  </g>
 </g>
 <defs>
  <clipPath id="pf32c3d5d3a">
   <rect x="180" y="77.76" width="328.235294" height="226.8"/>
  </clipPath>
  <clipPath id="p7ca00bc65d">
   <rect x="573.882353" y="77.76" width="328.235294" height="226.8"/>
  </clipPath>
  <clipPath id="pd5bc5bf0a8">
   <rect x="967.764706" y="77.76" width="328.235294" height="226.8"/>
  </clipPath>
  <clipPath id="p93876a725b">
   <rect x="180" y="349.92" width="328.235294" height="226.8"/>
  </clipPath>
 </defs>
</svg>
