<?xml version="1.0" encoding="utf-8" standalone="no"?>
<!DOCTYPE svg PUBLIC "-//W3C//DTD SVG 1.1//EN"
  "http://www.w3.org/Graphics/SVG/1.1/DTD/svg11.dtd">
<svg xmlns:xlink="http://www.w3.org/1999/xlink" width="1440pt" height="648pt" viewBox="0 0 1440 648" xmlns="http://www.w3.org/2000/svg" version="1.1">
 <metadata>
  <rdf:RDF xmlns:dc="http://purl.org/dc/elements/1.1/" xmlns:cc="http://creativecommons.org/ns#" xmlns:rdf="http://www.w3.org/1999/02/22-rdf-syntax-ns#">
   <cc:Work>
    <dc:type rdf:resource="http://purl.org/dc/dcmitype/StillImage"/>
    <dc:date>2024-05-16T19:36:32.985159</dc:date>
    <dc:format>image/svg+xml</dc:format>
    <dc:creator>
     <cc:Agent>
      <dc:title>Matplotlib v3.8.0, https://matplotlib.org/</dc:title>
     </cc:Agent>
    </dc:creator>
   </cc:Work>
  </rdf:RDF>
 </metadata>
 <defs>
  <style type="text/css">*{stroke-linejoin: round; stroke-linecap: butt}</style>
 </defs>
 <g id="figure_1">
  <g id="patch_1">
   <path d="M 0 648 
L 1440 648 
L 1440 0 
L 0 0 
z
" style="fill: #ffffff"/>
  </g>
  <g id="axes_1">
   <g id="patch_2">
    <path d="M 180 304.56 
L 508.235294 304.56 
L 508.235294 77.76 
L 180 77.76 
z
" style="fill: #ffffff"/>
   </g>
   <g id="PathCollection_1">
    <defs>
     <path id="me73c4e5c4b" d="M 0 3 
C 0.795609 3 1.55874 2.683901 2.12132 2.12132 
C 2.683901 1.55874 3 0.795609 3 0 
C 3 -0.795609 2.683901 -1.55874 2.12132 -2.12132 
C 1.55874 -2.683901 0.795609 -3 0 -3 
C -0.795609 -3 -1.55874 -2.683901 -2.12132 -2.12132 
C -2.683901 -1.55874 -3 -0.795609 -3 0 
C -3 0.795609 -2.683901 1.55874 -2.12132 2.12132 
C -1.55874 2.683901 -0.795609 3 0 3 
z
" style="stroke: #000000"/>
    </defs>
    <g clip-path="url(#p6c4a24f4f2)">
     <use xlink:href="#me73c4e5c4b" x="427.785467" y="191.16" style="stroke: #000000"/>
     <use xlink:href="#me73c4e5c4b" x="459.965398" y="128.16" style="stroke: #000000"/>
     <use xlink:href="#me73c4e5c4b" x="379.515571" y="233.16" style="stroke: #000000"/>
     <use xlink:href="#me73c4e5c4b" x="331.245675" y="254.16" style="stroke: #000000"/>
     <use xlink:href="#me73c4e5c4b" x="282.975779" y="275.16" style="stroke: #000000"/>
     <use xlink:href="#me73c4e5c4b" x="234.705882" y="296.16" style="stroke: #000000"/>
     <use xlink:href="#me73c4e5c4b" x="250.795848" y="275.16" style="stroke: #000000"/>
     <use xlink:href="#me73c4e5c4b" x="363.41917" y="191.16" style="stroke: #000000"/>
     <use xlink:href="#me73c4e5c4b" x="250.783298" y="275.16" style="stroke: #000000"/>
     <use xlink:href="#me73c4e5c4b" x="307.101394" y="233.16" style="stroke: #000000"/>
     <use xlink:href="#me73c4e5c4b" x="476.055363" y="107.16" style="stroke: #000000"/>
     <use xlink:href="#me73c4e5c4b" x="419.737266" y="170.16" style="stroke: #000000"/>
     <use xlink:href="#me73c4e5c4b" x="363.362533" y="212.16" style="stroke: #000000"/>
     <use xlink:href="#me73c4e5c4b" x="307.015796" y="254.16" style="stroke: #000000"/>
     <use xlink:href="#me73c4e5c4b" x="476.055363" y="86.16" style="stroke: #000000"/>
     <use xlink:href="#me73c4e5c4b" x="419.708626" y="128.16" style="stroke: #000000"/>
     <use xlink:href="#me73c4e5c4b" x="250.669381" y="275.16" style="stroke: #000000"/>
    </g>
   </g>
   <g id="matplotlib.axis_1">
    <g id="xtick_1">
     <g id="line2d_1">
      <path d="M 186.435986 304.56 
L 186.435986 77.76 
" clip-path="url(#p6c4a24f4f2)" style="fill: none; stroke: #b0b0b0; stroke-width: 0.8; stroke-linecap: square"/>
     </g>
     <g id="line2d_2">
      <defs>
       <path id="m53d5a5fc79" d="M 0 0 
L 0 3.5 
" style="stroke: #000000; stroke-width: 0.8"/>
      </defs>
      <g>
       <use xlink:href="#m53d5a5fc79" x="186.435986" y="304.56" style="stroke: #000000; stroke-width: 0.8"/>
      </g>
     </g>
     <g id="text_1">
      <!-- 0 -->
      <g transform="translate(183.254736 319.158437) scale(0.1 -0.1)">
       <defs>
        <path id="DejaVuSans-30" d="M 2034 4250 
Q 1547 4250 1301 3770 
Q 1056 3291 1056 2328 
Q 1056 1369 1301 889 
Q 1547 409 2034 409 
Q 2525 409 2770 889 
Q 3016 1369 3016 2328 
Q 3016 3291 2770 3770 
Q 2525 4250 2034 4250 
z
M 2034 4750 
Q 2819 4750 3233 4129 
Q 3647 3509 3647 2328 
Q 3647 1150 3233 529 
Q 2819 -91 2034 -91 
Q 1250 -91 836 529 
Q 422 1150 422 2328 
Q 422 3509 836 4129 
Q 1250 4750 2034 4750 
z
" transform="scale(0.015625)"/>
       </defs>
       <use xlink:href="#DejaVuSans-30"/>
      </g>
     </g>
    </g>
    <g id="xtick_2">
     <g id="line2d_3">
      <path d="M 250.795848 304.56 
L 250.795848 77.76 
" clip-path="url(#p6c4a24f4f2)" style="fill: none; stroke: #b0b0b0; stroke-width: 0.8; stroke-linecap: square"/>
     </g>
     <g id="line2d_4">
      <g>
       <use xlink:href="#m53d5a5fc79" x="250.795848" y="304.56" style="stroke: #000000; stroke-width: 0.8"/>
      </g>
     </g>
     <g id="text_2">
      <!-- 20 -->
      <g transform="translate(244.433348 319.158437) scale(0.1 -0.1)">
       <defs>
        <path id="DejaVuSans-32" d="M 1228 531 
L 3431 531 
L 3431 0 
L 469 0 
L 469 531 
Q 828 903 1448 1529 
Q 2069 2156 2228 2338 
Q 2531 2678 2651 2914 
Q 2772 3150 2772 3378 
Q 2772 3750 2511 3984 
Q 2250 4219 1831 4219 
Q 1534 4219 1204 4116 
Q 875 4013 500 3803 
L 500 4441 
Q 881 4594 1212 4672 
Q 1544 4750 1819 4750 
Q 2544 4750 2975 4387 
Q 3406 4025 3406 3419 
Q 3406 3131 3298 2873 
Q 3191 2616 2906 2266 
Q 2828 2175 2409 1742 
Q 1991 1309 1228 531 
z
" transform="scale(0.015625)"/>
       </defs>
       <use xlink:href="#DejaVuSans-32"/>
       <use xlink:href="#DejaVuSans-30" x="63.623047"/>
      </g>
     </g>
    </g>
    <g id="xtick_3">
     <g id="line2d_5">
      <path d="M 315.155709 304.56 
L 315.155709 77.76 
" clip-path="url(#p6c4a24f4f2)" style="fill: none; stroke: #b0b0b0; stroke-width: 0.8; stroke-linecap: square"/>
     </g>
     <g id="line2d_6">
      <g>
       <use xlink:href="#m53d5a5fc79" x="315.155709" y="304.56" style="stroke: #000000; stroke-width: 0.8"/>
      </g>
     </g>
     <g id="text_3">
      <!-- 40 -->
      <g transform="translate(308.793209 319.158437) scale(0.1 -0.1)">
       <defs>
        <path id="DejaVuSans-34" d="M 2419 4116 
L 825 1625 
L 2419 1625 
L 2419 4116 
z
M 2253 4666 
L 3047 4666 
L 3047 1625 
L 3713 1625 
L 3713 1100 
L 3047 1100 
L 3047 0 
L 2419 0 
L 2419 1100 
L 313 1100 
L 313 1709 
L 2253 4666 
z
" transform="scale(0.015625)"/>
       </defs>
       <use xlink:href="#DejaVuSans-34"/>
       <use xlink:href="#DejaVuSans-30" x="63.623047"/>
      </g>
     </g>
    </g>
    <g id="xtick_4">
     <g id="line2d_7">
      <path d="M 379.515571 304.56 
L 379.515571 77.76 
" clip-path="url(#p6c4a24f4f2)" style="fill: none; stroke: #b0b0b0; stroke-width: 0.8; stroke-linecap: square"/>
     </g>
     <g id="line2d_8">
      <g>
       <use xlink:href="#m53d5a5fc79" x="379.515571" y="304.56" style="stroke: #000000; stroke-width: 0.8"/>
      </g>
     </g>
     <g id="text_4">
      <!-- 60 -->
      <g transform="translate(373.153071 319.158437) scale(0.1 -0.1)">
       <defs>
        <path id="DejaVuSans-36" d="M 2113 2584 
Q 1688 2584 1439 2293 
Q 1191 2003 1191 1497 
Q 1191 994 1439 701 
Q 1688 409 2113 409 
Q 2538 409 2786 701 
Q 3034 994 3034 1497 
Q 3034 2003 2786 2293 
Q 2538 2584 2113 2584 
z
M 3366 4563 
L 3366 3988 
Q 3128 4100 2886 4159 
Q 2644 4219 2406 4219 
Q 1781 4219 1451 3797 
Q 1122 3375 1075 2522 
Q 1259 2794 1537 2939 
Q 1816 3084 2150 3084 
Q 2853 3084 3261 2657 
Q 3669 2231 3669 1497 
Q 3669 778 3244 343 
Q 2819 -91 2113 -91 
Q 1303 -91 875 529 
Q 447 1150 447 2328 
Q 447 3434 972 4092 
Q 1497 4750 2381 4750 
Q 2619 4750 2861 4703 
Q 3103 4656 3366 4563 
z
" transform="scale(0.015625)"/>
       </defs>
       <use xlink:href="#DejaVuSans-36"/>
       <use xlink:href="#DejaVuSans-30" x="63.623047"/>
      </g>
     </g>
    </g>
    <g id="xtick_5">
     <g id="line2d_9">
      <path d="M 443.875433 304.56 
L 443.875433 77.76 
" clip-path="url(#p6c4a24f4f2)" style="fill: none; stroke: #b0b0b0; stroke-width: 0.8; stroke-linecap: square"/>
     </g>
     <g id="line2d_10">
      <g>
       <use xlink:href="#m53d5a5fc79" x="443.875433" y="304.56" style="stroke: #000000; stroke-width: 0.8"/>
      </g>
     </g>
     <g id="text_5">
      <!-- 80 -->
      <g transform="translate(437.512933 319.158437) scale(0.1 -0.1)">
       <defs>
        <path id="DejaVuSans-38" d="M 2034 2216 
Q 1584 2216 1326 1975 
Q 1069 1734 1069 1313 
Q 1069 891 1326 650 
Q 1584 409 2034 409 
Q 2484 409 2743 651 
Q 3003 894 3003 1313 
Q 3003 1734 2745 1975 
Q 2488 2216 2034 2216 
z
M 1403 2484 
Q 997 2584 770 2862 
Q 544 3141 544 3541 
Q 544 4100 942 4425 
Q 1341 4750 2034 4750 
Q 2731 4750 3128 4425 
Q 3525 4100 3525 3541 
Q 3525 3141 3298 2862 
Q 3072 2584 2669 2484 
Q 3125 2378 3379 2068 
Q 3634 1759 3634 1313 
Q 3634 634 3220 271 
Q 2806 -91 2034 -91 
Q 1263 -91 848 271 
Q 434 634 434 1313 
Q 434 1759 690 2068 
Q 947 2378 1403 2484 
z
M 1172 3481 
Q 1172 3119 1398 2916 
Q 1625 2713 2034 2713 
Q 2441 2713 2670 2916 
Q 2900 3119 2900 3481 
Q 2900 3844 2670 4047 
Q 2441 4250 2034 4250 
Q 1625 4250 1398 4047 
Q 1172 3844 1172 3481 
z
" transform="scale(0.015625)"/>
       </defs>
       <use xlink:href="#DejaVuSans-38"/>
       <use xlink:href="#DejaVuSans-30" x="63.623047"/>
      </g>
     </g>
    </g>
    <g id="xtick_6">
     <g id="line2d_11">
      <path d="M 508.235294 304.56 
L 508.235294 77.76 
" clip-path="url(#p6c4a24f4f2)" style="fill: none; stroke: #b0b0b0; stroke-width: 0.8; stroke-linecap: square"/>
     </g>
     <g id="line2d_12">
      <g>
       <use xlink:href="#m53d5a5fc79" x="508.235294" y="304.56" style="stroke: #000000; stroke-width: 0.8"/>
      </g>
     </g>
     <g id="text_6">
      <!-- 100 -->
      <g transform="translate(498.691544 319.158437) scale(0.1 -0.1)">
       <defs>
        <path id="DejaVuSans-31" d="M 794 531 
L 1825 531 
L 1825 4091 
L 703 3866 
L 703 4441 
L 1819 4666 
L 2450 4666 
L 2450 531 
L 3481 531 
L 3481 0 
L 794 0 
L 794 531 
z
" transform="scale(0.015625)"/>
       </defs>
       <use xlink:href="#DejaVuSans-31"/>
       <use xlink:href="#DejaVuSans-30" x="63.623047"/>
       <use xlink:href="#DejaVuSans-30" x="127.246094"/>
      </g>
     </g>
    </g>
   </g>
   <g id="matplotlib.axis_2">
    <g id="ytick_1">
     <g id="line2d_13">
      <path d="M 180 296.16 
L 508.235294 296.16 
" clip-path="url(#p6c4a24f4f2)" style="fill: none; stroke: #b0b0b0; stroke-width: 0.8; stroke-linecap: square"/>
     </g>
     <g id="line2d_14">
      <defs>
       <path id="ma46b014944" d="M 0 0 
L -3.5 0 
" style="stroke: #000000; stroke-width: 0.8"/>
      </defs>
      <g>
       <use xlink:href="#ma46b014944" x="180" y="296.16" style="stroke: #000000; stroke-width: 0.8"/>
      </g>
     </g>
     <g id="text_7">
      <!-- 0 -->
      <g transform="translate(166.6375 299.959219) scale(0.1 -0.1)">
       <use xlink:href="#DejaVuSans-30"/>
      </g>
     </g>
    </g>
    <g id="ytick_2">
     <g id="line2d_15">
      <path d="M 180 254.16 
L 508.235294 254.16 
" clip-path="url(#p6c4a24f4f2)" style="fill: none; stroke: #b0b0b0; stroke-width: 0.8; stroke-linecap: square"/>
     </g>
     <g id="line2d_16">
      <g>
       <use xlink:href="#ma46b014944" x="180" y="254.16" style="stroke: #000000; stroke-width: 0.8"/>
      </g>
     </g>
     <g id="text_8">
      <!-- 10 -->
      <g transform="translate(160.275 257.959219) scale(0.1 -0.1)">
       <use xlink:href="#DejaVuSans-31"/>
       <use xlink:href="#DejaVuSans-30" x="63.623047"/>
      </g>
     </g>
    </g>
    <g id="ytick_3">
     <g id="line2d_17">
      <path d="M 180 212.16 
L 508.235294 212.16 
" clip-path="url(#p6c4a24f4f2)" style="fill: none; stroke: #b0b0b0; stroke-width: 0.8; stroke-linecap: square"/>
     </g>
     <g id="line2d_18">
      <g>
       <use xlink:href="#ma46b014944" x="180" y="212.16" style="stroke: #000000; stroke-width: 0.8"/>
      </g>
     </g>
     <g id="text_9">
      <!-- 20 -->
      <g transform="translate(160.275 215.959219) scale(0.1 -0.1)">
       <use xlink:href="#DejaVuSans-32"/>
       <use xlink:href="#DejaVuSans-30" x="63.623047"/>
      </g>
     </g>
    </g>
    <g id="ytick_4">
     <g id="line2d_19">
      <path d="M 180 170.16 
L 508.235294 170.16 
" clip-path="url(#p6c4a24f4f2)" style="fill: none; stroke: #b0b0b0; stroke-width: 0.8; stroke-linecap: square"/>
     </g>
     <g id="line2d_20">
      <g>
       <use xlink:href="#ma46b014944" x="180" y="170.16" style="stroke: #000000; stroke-width: 0.8"/>
      </g>
     </g>
     <g id="text_10">
      <!-- 30 -->
      <g transform="translate(160.275 173.959219) scale(0.1 -0.1)">
       <defs>
        <path id="DejaVuSans-33" d="M 2597 2516 
Q 3050 2419 3304 2112 
Q 3559 1806 3559 1356 
Q 3559 666 3084 287 
Q 2609 -91 1734 -91 
Q 1441 -91 1130 -33 
Q 819 25 488 141 
L 488 750 
Q 750 597 1062 519 
Q 1375 441 1716 441 
Q 2309 441 2620 675 
Q 2931 909 2931 1356 
Q 2931 1769 2642 2001 
Q 2353 2234 1838 2234 
L 1294 2234 
L 1294 2753 
L 1863 2753 
Q 2328 2753 2575 2939 
Q 2822 3125 2822 3475 
Q 2822 3834 2567 4026 
Q 2313 4219 1838 4219 
Q 1578 4219 1281 4162 
Q 984 4106 628 3988 
L 628 4550 
Q 988 4650 1302 4700 
Q 1616 4750 1894 4750 
Q 2613 4750 3031 4423 
Q 3450 4097 3450 3541 
Q 3450 3153 3228 2886 
Q 3006 2619 2597 2516 
z
" transform="scale(0.015625)"/>
       </defs>
       <use xlink:href="#DejaVuSans-33"/>
       <use xlink:href="#DejaVuSans-30" x="63.623047"/>
      </g>
     </g>
    </g>
    <g id="ytick_5">
     <g id="line2d_21">
      <path d="M 180 128.16 
L 508.235294 128.16 
" clip-path="url(#p6c4a24f4f2)" style="fill: none; stroke: #b0b0b0; stroke-width: 0.8; stroke-linecap: square"/>
     </g>
     <g id="line2d_22">
      <g>
       <use xlink:href="#ma46b014944" x="180" y="128.16" style="stroke: #000000; stroke-width: 0.8"/>
      </g>
     </g>
     <g id="text_11">
      <!-- 40 -->
      <g transform="translate(160.275 131.959219) scale(0.1 -0.1)">
       <use xlink:href="#DejaVuSans-34"/>
       <use xlink:href="#DejaVuSans-30" x="63.623047"/>
      </g>
     </g>
    </g>
    <g id="ytick_6">
     <g id="line2d_23">
      <path d="M 180 86.16 
L 508.235294 86.16 
" clip-path="url(#p6c4a24f4f2)" style="fill: none; stroke: #b0b0b0; stroke-width: 0.8; stroke-linecap: square"/>
     </g>
     <g id="line2d_24">
      <g>
       <use xlink:href="#ma46b014944" x="180" y="86.16" style="stroke: #000000; stroke-width: 0.8"/>
      </g>
     </g>
     <g id="text_12">
      <!-- 50 -->
      <g transform="translate(160.275 89.959219) scale(0.1 -0.1)">
       <defs>
        <path id="DejaVuSans-35" d="M 691 4666 
L 3169 4666 
L 3169 4134 
L 1269 4134 
L 1269 2991 
Q 1406 3038 1543 3061 
Q 1681 3084 1819 3084 
Q 2600 3084 3056 2656 
Q 3513 2228 3513 1497 
Q 3513 744 3044 326 
Q 2575 -91 1722 -91 
Q 1428 -91 1123 -41 
Q 819 9 494 109 
L 494 744 
Q 775 591 1075 516 
Q 1375 441 1709 441 
Q 2250 441 2565 725 
Q 2881 1009 2881 1497 
Q 2881 1984 2565 2268 
Q 2250 2553 1709 2553 
Q 1456 2553 1204 2497 
Q 953 2441 691 2322 
L 691 4666 
z
" transform="scale(0.015625)"/>
       </defs>
       <use xlink:href="#DejaVuSans-35"/>
       <use xlink:href="#DejaVuSans-30" x="63.623047"/>
      </g>
     </g>
    </g>
   </g>
   <g id="line2d_25">
    <path d="M 154.256055 191.16 
L 572.595156 191.16 
" clip-path="url(#p6c4a24f4f2)" style="fill: none; stroke-dasharray: 1.5,2.475; stroke-dashoffset: 0; stroke: #808080; stroke-width: 1.5"/>
   </g>
   <g id="line2d_26">
    <path d="M 476.055363 338.16 
L 476.055363 2.16 
" clip-path="url(#p6c4a24f4f2)" style="fill: none; stroke-dasharray: 5.55,2.4; stroke-dashoffset: 0; stroke: #ff0000; stroke-opacity: 0.3; stroke-width: 1.5"/>
   </g>
   <g id="line2d_27">
    <path d="M 223.383473 296.16 
L 226.031799 294.65766 
L 228.680125 293.155319 
L 231.328451 291.652979 
L 233.976777 290.150639 
L 236.625103 288.648299 
L 239.273429 287.145958 
L 241.921755 285.643618 
L 244.570081 284.141278 
L 247.218407 282.638937 
L 249.866733 281.136597 
L 252.515058 279.634257 
L 255.163384 278.131917 
L 257.81171 276.629576 
L 260.460036 275.127236 
L 263.108362 273.624896 
L 265.756688 272.122555 
L 268.405014 270.620215 
L 271.05334 269.117875 
L 273.701666 267.615535 
L 276.349992 266.113194 
L 278.998318 264.610854 
L 281.646644 263.108514 
L 284.29497 261.606173 
L 286.943296 260.103833 
L 289.591622 258.601493 
L 292.239948 257.099153 
L 294.888274 255.596812 
L 297.5366 254.094472 
L 300.184926 252.592132 
L 302.833252 251.089792 
L 305.481578 249.587451 
L 308.129904 248.085111 
L 310.77823 246.582771 
L 313.426556 245.08043 
L 316.074882 243.57809 
L 318.723208 242.07575 
L 321.371534 240.57341 
L 324.019859 239.071069 
L 326.668185 237.568729 
L 329.316511 236.066389 
L 331.964837 234.564048 
L 334.613163 233.061675 
L 337.261489 231.550369 
L 339.909815 230.022845 
L 342.558141 228.478568 
L 345.206467 226.916975 
L 347.854793 225.337471 
L 350.503119 223.739424 
L 353.151445 222.122166 
L 355.799771 220.484986 
L 358.448097 218.82713 
L 361.096423 217.147793 
L 363.744749 215.44612 
L 366.393075 213.721194 
L 369.041401 211.972034 
L 371.689727 210.19759 
L 374.338053 208.396733 
L 376.986379 206.568247 
L 379.634705 204.71082 
L 382.283031 202.823032 
L 384.931357 200.903344 
L 387.579683 198.950082 
L 390.228009 196.96142 
L 392.876335 194.935361 
L 395.52466 192.869713 
L 398.172986 190.762059 
L 400.821312 188.609729 
L 403.469638 186.409753 
L 406.117964 184.158821 
L 408.76629 181.853219 
L 411.414616 179.488759 
L 414.062942 177.060688 
L 416.711268 174.563579 
L 419.359594 171.991185 
L 422.00792 169.336256 
L 424.656246 166.590298 
L 427.304572 163.74325 
L 429.952898 160.783053 
L 432.601224 157.695037 
L 435.24955 154.461058 
L 437.897876 151.058228 
L 440.546202 147.48115 
L 443.194528 143.874024 
L 445.842854 140.266897 
L 448.49118 136.659771 
L 451.139506 133.052644 
L 453.787832 129.445518 
L 456.436158 125.838391 
L 459.084484 122.231265 
L 461.73281 118.624138 
L 464.381136 115.017012 
L 467.029461 111.409885 
L 469.677787 107.802759 
L 472.326113 104.195632 
L 474.974439 100.588506 
L 477.622765 96.981379 
L 480.271091 93.374253 
L 482.919417 89.767126 
L 485.567743 86.16 
" clip-path="url(#p6c4a24f4f2)" style="fill: none; stroke: #1f77b4; stroke-width: 1.5; stroke-linecap: square"/>
   </g>
   <g id="line2d_28">
    <path d="M 223.515197 296.16 
L 226.086455 294.677573 
L 228.657714 293.195146 
L 231.228973 291.712719 
L 233.800232 290.230291 
L 236.37149 288.747864 
L 238.942749 287.265437 
L 241.514008 285.78301 
L 244.085266 284.300583 
L 246.656525 282.818156 
L 249.227784 281.335729 
L 251.799042 279.853301 
L 254.370301 278.370874 
L 256.94156 276.888447 
L 259.512819 275.40602 
L 262.084077 273.923593 
L 264.655336 272.441166 
L 267.226595 270.958739 
L 269.797853 269.476312 
L 272.369112 267.993884 
L 274.940371 266.511457 
L 277.51163 265.02903 
L 280.082888 263.546603 
L 282.654147 262.064176 
L 285.225406 260.581749 
L 287.796664 259.099322 
L 290.367923 257.616894 
L 292.939182 256.134467 
L 295.51044 254.65204 
L 298.081699 253.169613 
L 300.652958 251.687186 
L 303.224217 250.204759 
L 305.795475 248.722332 
L 308.366734 247.239904 
L 310.937993 245.757477 
L 313.509251 244.27505 
L 316.08051 242.792623 
L 318.651769 241.310196 
L 321.223027 239.827769 
L 323.794286 238.345342 
L 326.365545 236.862915 
L 328.936804 235.380487 
L 331.508062 233.89806 
L 334.079321 232.413636 
L 336.65058 230.91514 
L 339.221838 229.400098 
L 341.793097 227.86795 
L 344.364356 226.318104 
L 346.935614 224.749932 
L 349.506873 223.162767 
L 352.078132 221.555902 
L 354.649391 219.928586 
L 357.220649 218.280016 
L 359.791908 216.609338 
L 362.363167 214.915637 
L 364.934425 213.197935 
L 367.505684 211.455182 
L 370.076943 209.686247 
L 372.648201 207.889916 
L 375.21946 206.064873 
L 377.790719 204.209696 
L 380.361978 202.322843 
L 382.933236 200.402631 
L 385.504495 198.447228 
L 388.075754 196.454624 
L 390.647012 194.422611 
L 393.218271 192.348755 
L 395.78953 190.230359 
L 398.360788 188.064423 
L 400.932047 185.847596 
L 403.503306 183.576112 
L 406.074565 181.245718 
L 408.645823 178.851578 
L 411.217082 176.388155 
L 413.788341 173.849061 
L 416.359599 171.226864 
L 418.930858 168.512827 
L 421.502117 165.696565 
L 424.073375 162.765576 
L 426.644634 159.704581 
L 429.215893 156.494572 
L 431.787152 153.111406 
L 434.35841 149.523614 
L 436.929669 145.797464 
L 439.500928 142.070123 
L 442.072186 138.342781 
L 444.643445 134.61544 
L 447.214704 130.888098 
L 449.785962 127.160757 
L 452.357221 123.433415 
L 454.92848 119.706074 
L 457.499739 115.978732 
L 460.070997 112.251391 
L 462.642256 108.524049 
L 465.213515 104.796708 
L 467.784773 101.069366 
L 470.356032 97.342025 
L 472.927291 93.614683 
L 475.498549 89.887342 
L 478.069808 86.16 
" clip-path="url(#p6c4a24f4f2)" style="fill: none; stroke-dasharray: 5.55,2.4; stroke-dashoffset: 0; stroke: #ff7f0e; stroke-width: 1.5"/>
   </g>
   <g id="patch_3">
    <path d="M 180 304.56 
L 180 77.76 
" style="fill: none; stroke: #000000; stroke-width: 0.8; stroke-linejoin: miter; stroke-linecap: square"/>
   </g>
   <g id="patch_4">
    <path d="M 508.235294 304.56 
L 508.235294 77.76 
" style="fill: none; stroke: #000000; stroke-width: 0.8; stroke-linejoin: miter; stroke-linecap: square"/>
   </g>
   <g id="patch_5">
    <path d="M 180 304.56 
L 508.235294 304.56 
" style="fill: none; stroke: #000000; stroke-width: 0.8; stroke-linejoin: miter; stroke-linecap: square"/>
   </g>
   <g id="patch_6">
    <path d="M 180 77.76 
L 508.235294 77.76 
" style="fill: none; stroke: #000000; stroke-width: 0.8; stroke-linejoin: miter; stroke-linecap: square"/>
   </g>
   <g id="text_13">
    <!--  Block: 0 -->
    <g transform="translate(318.237022 71.76) scale(0.12 -0.12)">
     <defs>
      <path id="DejaVuSans-20" transform="scale(0.015625)"/>
      <path id="DejaVuSans-42" d="M 1259 2228 
L 1259 519 
L 2272 519 
Q 2781 519 3026 730 
Q 3272 941 3272 1375 
Q 3272 1813 3026 2020 
Q 2781 2228 2272 2228 
L 1259 2228 
z
M 1259 4147 
L 1259 2741 
L 2194 2741 
Q 2656 2741 2882 2914 
Q 3109 3088 3109 3444 
Q 3109 3797 2882 3972 
Q 2656 4147 2194 4147 
L 1259 4147 
z
M 628 4666 
L 2241 4666 
Q 2963 4666 3353 4366 
Q 3744 4066 3744 3513 
Q 3744 3084 3544 2831 
Q 3344 2578 2956 2516 
Q 3422 2416 3680 2098 
Q 3938 1781 3938 1306 
Q 3938 681 3513 340 
Q 3088 0 2303 0 
L 628 0 
L 628 4666 
z
" transform="scale(0.015625)"/>
      <path id="DejaVuSans-6c" d="M 603 4863 
L 1178 4863 
L 1178 0 
L 603 0 
L 603 4863 
z
" transform="scale(0.015625)"/>
      <path id="DejaVuSans-6f" d="M 1959 3097 
Q 1497 3097 1228 2736 
Q 959 2375 959 1747 
Q 959 1119 1226 758 
Q 1494 397 1959 397 
Q 2419 397 2687 759 
Q 2956 1122 2956 1747 
Q 2956 2369 2687 2733 
Q 2419 3097 1959 3097 
z
M 1959 3584 
Q 2709 3584 3137 3096 
Q 3566 2609 3566 1747 
Q 3566 888 3137 398 
Q 2709 -91 1959 -91 
Q 1206 -91 779 398 
Q 353 888 353 1747 
Q 353 2609 779 3096 
Q 1206 3584 1959 3584 
z
" transform="scale(0.015625)"/>
      <path id="DejaVuSans-63" d="M 3122 3366 
L 3122 2828 
Q 2878 2963 2633 3030 
Q 2388 3097 2138 3097 
Q 1578 3097 1268 2742 
Q 959 2388 959 1747 
Q 959 1106 1268 751 
Q 1578 397 2138 397 
Q 2388 397 2633 464 
Q 2878 531 3122 666 
L 3122 134 
Q 2881 22 2623 -34 
Q 2366 -91 2075 -91 
Q 1284 -91 818 406 
Q 353 903 353 1747 
Q 353 2603 823 3093 
Q 1294 3584 2113 3584 
Q 2378 3584 2631 3529 
Q 2884 3475 3122 3366 
z
" transform="scale(0.015625)"/>
      <path id="DejaVuSans-6b" d="M 581 4863 
L 1159 4863 
L 1159 1991 
L 2875 3500 
L 3609 3500 
L 1753 1863 
L 3688 0 
L 2938 0 
L 1159 1709 
L 1159 0 
L 581 0 
L 581 4863 
z
" transform="scale(0.015625)"/>
      <path id="DejaVuSans-3a" d="M 750 794 
L 1409 794 
L 1409 0 
L 750 0 
L 750 794 
z
M 750 3309 
L 1409 3309 
L 1409 2516 
L 750 2516 
L 750 3309 
z
" transform="scale(0.015625)"/>
     </defs>
     <use xlink:href="#DejaVuSans-20"/>
     <use xlink:href="#DejaVuSans-42" x="31.787109"/>
     <use xlink:href="#DejaVuSans-6c" x="100.390625"/>
     <use xlink:href="#DejaVuSans-6f" x="128.173828"/>
     <use xlink:href="#DejaVuSans-63" x="189.355469"/>
     <use xlink:href="#DejaVuSans-6b" x="244.335938"/>
     <use xlink:href="#DejaVuSans-3a" x="302.246094"/>
     <use xlink:href="#DejaVuSans-20" x="335.9375"/>
     <use xlink:href="#DejaVuSans-30" x="367.724609"/>
    </g>
   </g>
   <g id="legend_1">
    <g id="patch_7">
     <path d="M 187 130.0725 
L 318.2 130.0725 
Q 320.2 130.0725 320.2 128.0725 
L 320.2 84.76 
Q 320.2 82.76 318.2 82.76 
L 187 82.76 
Q 185 82.76 185 84.76 
L 185 128.0725 
Q 185 130.0725 187 130.0725 
z
" style="fill: #ffffff; opacity: 0.8; stroke: #cccccc; stroke-linejoin: miter"/>
    </g>
    <g id="PathCollection_2">
     <g>
      <use xlink:href="#me73c4e5c4b" x="199" y="91.733438" style="stroke: #000000"/>
     </g>
    </g>
    <g id="text_14">
     <!-- Data -->
     <g transform="translate(217 94.358438) scale(0.1 -0.1)">
      <defs>
       <path id="DejaVuSans-44" d="M 1259 4147 
L 1259 519 
L 2022 519 
Q 2988 519 3436 956 
Q 3884 1394 3884 2338 
Q 3884 3275 3436 3711 
Q 2988 4147 2022 4147 
L 1259 4147 
z
M 628 4666 
L 1925 4666 
Q 3281 4666 3915 4102 
Q 4550 3538 4550 2338 
Q 4550 1131 3912 565 
Q 3275 0 1925 0 
L 628 0 
L 628 4666 
z
" transform="scale(0.015625)"/>
       <path id="DejaVuSans-61" d="M 2194 1759 
Q 1497 1759 1228 1600 
Q 959 1441 959 1056 
Q 959 750 1161 570 
Q 1363 391 1709 391 
Q 2188 391 2477 730 
Q 2766 1069 2766 1631 
L 2766 1759 
L 2194 1759 
z
M 3341 1997 
L 3341 0 
L 2766 0 
L 2766 531 
Q 2569 213 2275 61 
Q 1981 -91 1556 -91 
Q 1019 -91 701 211 
Q 384 513 384 1019 
Q 384 1609 779 1909 
Q 1175 2209 1959 2209 
L 2766 2209 
L 2766 2266 
Q 2766 2663 2505 2880 
Q 2244 3097 1772 3097 
Q 1472 3097 1187 3025 
Q 903 2953 641 2809 
L 641 3341 
Q 956 3463 1253 3523 
Q 1550 3584 1831 3584 
Q 2591 3584 2966 3190 
Q 3341 2797 3341 1997 
z
" transform="scale(0.015625)"/>
       <path id="DejaVuSans-74" d="M 1172 4494 
L 1172 3500 
L 2356 3500 
L 2356 3053 
L 1172 3053 
L 1172 1153 
Q 1172 725 1289 603 
Q 1406 481 1766 481 
L 2356 481 
L 2356 0 
L 1766 0 
Q 1100 0 847 248 
Q 594 497 594 1153 
L 594 3053 
L 172 3053 
L 172 3500 
L 594 3500 
L 594 4494 
L 1172 4494 
z
" transform="scale(0.015625)"/>
      </defs>
      <use xlink:href="#DejaVuSans-44"/>
      <use xlink:href="#DejaVuSans-61" x="77.001953"/>
      <use xlink:href="#DejaVuSans-74" x="138.28125"/>
      <use xlink:href="#DejaVuSans-61" x="177.490234"/>
     </g>
    </g>
    <g id="line2d_29">
     <path d="M 189 105.536563 
L 199 105.536563 
L 209 105.536563 
" style="fill: none; stroke: #1f77b4; stroke-width: 1.5; stroke-linecap: square"/>
    </g>
    <g id="text_15">
     <!-- Artc e:0.2475 -->
     <g transform="translate(217 109.036563) scale(0.1 -0.1)">
      <defs>
       <path id="DejaVuSans-41" d="M 2188 4044 
L 1331 1722 
L 3047 1722 
L 2188 4044 
z
M 1831 4666 
L 2547 4666 
L 4325 0 
L 3669 0 
L 3244 1197 
L 1141 1197 
L 716 0 
L 50 0 
L 1831 4666 
z
" transform="scale(0.015625)"/>
       <path id="DejaVuSans-72" d="M 2631 2963 
Q 2534 3019 2420 3045 
Q 2306 3072 2169 3072 
Q 1681 3072 1420 2755 
Q 1159 2438 1159 1844 
L 1159 0 
L 581 0 
L 581 3500 
L 1159 3500 
L 1159 2956 
Q 1341 3275 1631 3429 
Q 1922 3584 2338 3584 
Q 2397 3584 2469 3576 
Q 2541 3569 2628 3553 
L 2631 2963 
z
" transform="scale(0.015625)"/>
       <path id="DejaVuSans-65" d="M 3597 1894 
L 3597 1613 
L 953 1613 
Q 991 1019 1311 708 
Q 1631 397 2203 397 
Q 2534 397 2845 478 
Q 3156 559 3463 722 
L 3463 178 
Q 3153 47 2828 -22 
Q 2503 -91 2169 -91 
Q 1331 -91 842 396 
Q 353 884 353 1716 
Q 353 2575 817 3079 
Q 1281 3584 2069 3584 
Q 2775 3584 3186 3129 
Q 3597 2675 3597 1894 
z
M 3022 2063 
Q 3016 2534 2758 2815 
Q 2500 3097 2075 3097 
Q 1594 3097 1305 2825 
Q 1016 2553 972 2059 
L 3022 2063 
z
" transform="scale(0.015625)"/>
       <path id="DejaVuSans-2e" d="M 684 794 
L 1344 794 
L 1344 0 
L 684 0 
L 684 794 
z
" transform="scale(0.015625)"/>
       <path id="DejaVuSans-37" d="M 525 4666 
L 3525 4666 
L 3525 4397 
L 1831 0 
L 1172 0 
L 2766 4134 
L 525 4134 
L 525 4666 
z
" transform="scale(0.015625)"/>
      </defs>
      <use xlink:href="#DejaVuSans-41"/>
      <use xlink:href="#DejaVuSans-72" x="68.408203"/>
      <use xlink:href="#DejaVuSans-74" x="109.521484"/>
      <use xlink:href="#DejaVuSans-63" x="148.730469"/>
      <use xlink:href="#DejaVuSans-20" x="203.710938"/>
      <use xlink:href="#DejaVuSans-65" x="235.498047"/>
      <use xlink:href="#DejaVuSans-3a" x="297.021484"/>
      <use xlink:href="#DejaVuSans-30" x="330.712891"/>
      <use xlink:href="#DejaVuSans-2e" x="394.335938"/>
      <use xlink:href="#DejaVuSans-32" x="426.123047"/>
      <use xlink:href="#DejaVuSans-34" x="489.746094"/>
      <use xlink:href="#DejaVuSans-37" x="553.369141"/>
      <use xlink:href="#DejaVuSans-35" x="616.992188"/>
     </g>
    </g>
    <g id="line2d_30">
     <path d="M 189 120.214688 
L 199 120.214688 
L 209 120.214688 
" style="fill: none; stroke-dasharray: 5.55,2.4; stroke-dashoffset: 0; stroke: #ff7f0e; stroke-width: 1.5"/>
    </g>
    <g id="text_16">
     <!-- NEL_BTUX e:0.2552 -->
     <g transform="translate(217 123.714688) scale(0.1 -0.1)">
      <defs>
       <path id="DejaVuSans-4e" d="M 628 4666 
L 1478 4666 
L 3547 763 
L 3547 4666 
L 4159 4666 
L 4159 0 
L 3309 0 
L 1241 3903 
L 1241 0 
L 628 0 
L 628 4666 
z
" transform="scale(0.015625)"/>
       <path id="DejaVuSans-45" d="M 628 4666 
L 3578 4666 
L 3578 4134 
L 1259 4134 
L 1259 2753 
L 3481 2753 
L 3481 2222 
L 1259 2222 
L 1259 531 
L 3634 531 
L 3634 0 
L 628 0 
L 628 4666 
z
" transform="scale(0.015625)"/>
       <path id="DejaVuSans-4c" d="M 628 4666 
L 1259 4666 
L 1259 531 
L 3531 531 
L 3531 0 
L 628 0 
L 628 4666 
z
" transform="scale(0.015625)"/>
       <path id="DejaVuSans-5f" d="M 3263 -1063 
L 3263 -1509 
L -63 -1509 
L -63 -1063 
L 3263 -1063 
z
" transform="scale(0.015625)"/>
       <path id="DejaVuSans-54" d="M -19 4666 
L 3928 4666 
L 3928 4134 
L 2272 4134 
L 2272 0 
L 1638 0 
L 1638 4134 
L -19 4134 
L -19 4666 
z
" transform="scale(0.015625)"/>
       <path id="DejaVuSans-55" d="M 556 4666 
L 1191 4666 
L 1191 1831 
Q 1191 1081 1462 751 
Q 1734 422 2344 422 
Q 2950 422 3222 751 
Q 3494 1081 3494 1831 
L 3494 4666 
L 4128 4666 
L 4128 1753 
Q 4128 841 3676 375 
Q 3225 -91 2344 -91 
Q 1459 -91 1007 375 
Q 556 841 556 1753 
L 556 4666 
z
" transform="scale(0.015625)"/>
       <path id="DejaVuSans-58" d="M 403 4666 
L 1081 4666 
L 2241 2931 
L 3406 4666 
L 4084 4666 
L 2584 2425 
L 4184 0 
L 3506 0 
L 2194 1984 
L 872 0 
L 191 0 
L 1856 2491 
L 403 4666 
z
" transform="scale(0.015625)"/>
      </defs>
      <use xlink:href="#DejaVuSans-4e"/>
      <use xlink:href="#DejaVuSans-45" x="74.804688"/>
      <use xlink:href="#DejaVuSans-4c" x="137.988281"/>
      <use xlink:href="#DejaVuSans-5f" x="193.701172"/>
      <use xlink:href="#DejaVuSans-42" x="243.701172"/>
      <use xlink:href="#DejaVuSans-54" x="312.304688"/>
      <use xlink:href="#DejaVuSans-55" x="373.388672"/>
      <use xlink:href="#DejaVuSans-58" x="446.582031"/>
      <use xlink:href="#DejaVuSans-20" x="515.087891"/>
      <use xlink:href="#DejaVuSans-65" x="546.875"/>
      <use xlink:href="#DejaVuSans-3a" x="608.398438"/>
      <use xlink:href="#DejaVuSans-30" x="642.089844"/>
      <use xlink:href="#DejaVuSans-2e" x="705.712891"/>
      <use xlink:href="#DejaVuSans-32" x="737.5"/>
      <use xlink:href="#DejaVuSans-35" x="801.123047"/>
      <use xlink:href="#DejaVuSans-35" x="864.746094"/>
      <use xlink:href="#DejaVuSans-32" x="928.369141"/>
     </g>
    </g>
   </g>
  </g>
  <g id="axes_2">
   <g id="patch_8">
    <path d="M 573.882353 304.56 
L 902.117647 304.56 
L 902.117647 77.76 
L 573.882353 77.76 
z
" style="fill: #ffffff"/>
   </g>
   <g id="PathCollection_3">
    <g clip-path="url(#p496f9f0cd0)">
     <use xlink:href="#me73c4e5c4b" x="821.66782" y="191.16" style="stroke: #000000"/>
     <use xlink:href="#me73c4e5c4b" x="853.847751" y="107.16" style="stroke: #000000"/>
     <use xlink:href="#me73c4e5c4b" x="773.397924" y="212.16" style="stroke: #000000"/>
     <use xlink:href="#me73c4e5c4b" x="725.128028" y="233.16" style="stroke: #000000"/>
     <use xlink:href="#me73c4e5c4b" x="676.858131" y="275.16" style="stroke: #000000"/>
     <use xlink:href="#me73c4e5c4b" x="628.588235" y="275.16" style="stroke: #000000"/>
     <use xlink:href="#me73c4e5c4b" x="580.318339" y="296.16" style="stroke: #000000"/>
     <use xlink:href="#me73c4e5c4b" x="596.408304" y="296.16" style="stroke: #000000"/>
     <use xlink:href="#me73c4e5c4b" x="612.49827" y="296.16" style="stroke: #000000"/>
     <use xlink:href="#me73c4e5c4b" x="628.588235" y="296.16" style="stroke: #000000"/>
     <use xlink:href="#me73c4e5c4b" x="644.678201" y="275.16" style="stroke: #000000"/>
     <use xlink:href="#me73c4e5c4b" x="696.976059" y="254.16" style="stroke: #000000"/>
     <use xlink:href="#me73c4e5c4b" x="644.690751" y="296.16" style="stroke: #000000"/>
     <use xlink:href="#me73c4e5c4b" x="749.261045" y="212.16" style="stroke: #000000"/>
     <use xlink:href="#me73c4e5c4b" x="801.546353" y="170.16" style="stroke: #000000"/>
     <use xlink:href="#me73c4e5c4b" x="853.831661" y="107.16" style="stroke: #000000"/>
     <use xlink:href="#me73c4e5c4b" x="862.46972" y="86.16" style="stroke: #000000"/>
     <use xlink:href="#me73c4e5c4b" x="812.94191" y="170.16" style="stroke: #000000"/>
     <use xlink:href="#me73c4e5c4b" x="763.413779" y="212.16" style="stroke: #000000"/>
     <use xlink:href="#me73c4e5c4b" x="664.357837" y="254.16" style="stroke: #000000"/>
     <use xlink:href="#me73c4e5c4b" x="713.885647" y="233.16" style="stroke: #000000"/>
    </g>
   </g>
   <g id="matplotlib.axis_3">
    <g id="xtick_7">
     <g id="line2d_31">
      <path d="M 580.318339 304.56 
L 580.318339 77.76 
" clip-path="url(#p496f9f0cd0)" style="fill: none; stroke: #b0b0b0; stroke-width: 0.8; stroke-linecap: square"/>
     </g>
     <g id="line2d_32">
      <g>
       <use xlink:href="#m53d5a5fc79" x="580.318339" y="304.56" style="stroke: #000000; stroke-width: 0.8"/>
      </g>
     </g>
     <g id="text_17">
      <!-- 0 -->
      <g transform="translate(577.137089 319.158437) scale(0.1 -0.1)">
       <use xlink:href="#DejaVuSans-30"/>
      </g>
     </g>
    </g>
    <g id="xtick_8">
     <g id="line2d_33">
      <path d="M 644.678201 304.56 
L 644.678201 77.76 
" clip-path="url(#p496f9f0cd0)" style="fill: none; stroke: #b0b0b0; stroke-width: 0.8; stroke-linecap: square"/>
     </g>
     <g id="line2d_34">
      <g>
       <use xlink:href="#m53d5a5fc79" x="644.678201" y="304.56" style="stroke: #000000; stroke-width: 0.8"/>
      </g>
     </g>
     <g id="text_18">
      <!-- 20 -->
      <g transform="translate(638.315701 319.158437) scale(0.1 -0.1)">
       <use xlink:href="#DejaVuSans-32"/>
       <use xlink:href="#DejaVuSans-30" x="63.623047"/>
      </g>
     </g>
    </g>
    <g id="xtick_9">
     <g id="line2d_35">
      <path d="M 709.038062 304.56 
L 709.038062 77.76 
" clip-path="url(#p496f9f0cd0)" style="fill: none; stroke: #b0b0b0; stroke-width: 0.8; stroke-linecap: square"/>
     </g>
     <g id="line2d_36">
      <g>
       <use xlink:href="#m53d5a5fc79" x="709.038062" y="304.56" style="stroke: #000000; stroke-width: 0.8"/>
      </g>
     </g>
     <g id="text_19">
      <!-- 40 -->
      <g transform="translate(702.675562 319.158437) scale(0.1 -0.1)">
       <use xlink:href="#DejaVuSans-34"/>
       <use xlink:href="#DejaVuSans-30" x="63.623047"/>
      </g>
     </g>
    </g>
    <g id="xtick_10">
     <g id="line2d_37">
      <path d="M 773.397924 304.56 
L 773.397924 77.76 
" clip-path="url(#p496f9f0cd0)" style="fill: none; stroke: #b0b0b0; stroke-width: 0.8; stroke-linecap: square"/>
     </g>
     <g id="line2d_38">
      <g>
       <use xlink:href="#m53d5a5fc79" x="773.397924" y="304.56" style="stroke: #000000; stroke-width: 0.8"/>
      </g>
     </g>
     <g id="text_20">
      <!-- 60 -->
      <g transform="translate(767.035424 319.158437) scale(0.1 -0.1)">
       <use xlink:href="#DejaVuSans-36"/>
       <use xlink:href="#DejaVuSans-30" x="63.623047"/>
      </g>
     </g>
    </g>
    <g id="xtick_11">
     <g id="line2d_39">
      <path d="M 837.757785 304.56 
L 837.757785 77.76 
" clip-path="url(#p496f9f0cd0)" style="fill: none; stroke: #b0b0b0; stroke-width: 0.8; stroke-linecap: square"/>
     </g>
     <g id="line2d_40">
      <g>
       <use xlink:href="#m53d5a5fc79" x="837.757785" y="304.56" style="stroke: #000000; stroke-width: 0.8"/>
      </g>
     </g>
     <g id="text_21">
      <!-- 80 -->
      <g transform="translate(831.395285 319.158437) scale(0.1 -0.1)">
       <use xlink:href="#DejaVuSans-38"/>
       <use xlink:href="#DejaVuSans-30" x="63.623047"/>
      </g>
     </g>
    </g>
    <g id="xtick_12">
     <g id="line2d_41">
      <path d="M 902.117647 304.56 
L 902.117647 77.76 
" clip-path="url(#p496f9f0cd0)" style="fill: none; stroke: #b0b0b0; stroke-width: 0.8; stroke-linecap: square"/>
     </g>
     <g id="line2d_42">
      <g>
       <use xlink:href="#m53d5a5fc79" x="902.117647" y="304.56" style="stroke: #000000; stroke-width: 0.8"/>
      </g>
     </g>
     <g id="text_22">
      <!-- 100 -->
      <g transform="translate(892.573897 319.158437) scale(0.1 -0.1)">
       <use xlink:href="#DejaVuSans-31"/>
       <use xlink:href="#DejaVuSans-30" x="63.623047"/>
       <use xlink:href="#DejaVuSans-30" x="127.246094"/>
      </g>
     </g>
    </g>
   </g>
   <g id="matplotlib.axis_4">
    <g id="ytick_7">
     <g id="line2d_43">
      <path d="M 573.882353 296.16 
L 902.117647 296.16 
" clip-path="url(#p496f9f0cd0)" style="fill: none; stroke: #b0b0b0; stroke-width: 0.8; stroke-linecap: square"/>
     </g>
     <g id="line2d_44">
      <g>
       <use xlink:href="#ma46b014944" x="573.882353" y="296.16" style="stroke: #000000; stroke-width: 0.8"/>
      </g>
     </g>
     <g id="text_23">
      <!-- 0 -->
      <g transform="translate(560.519853 299.959219) scale(0.1 -0.1)">
       <use xlink:href="#DejaVuSans-30"/>
      </g>
     </g>
    </g>
    <g id="ytick_8">
     <g id="line2d_45">
      <path d="M 573.882353 254.16 
L 902.117647 254.16 
" clip-path="url(#p496f9f0cd0)" style="fill: none; stroke: #b0b0b0; stroke-width: 0.8; stroke-linecap: square"/>
     </g>
     <g id="line2d_46">
      <g>
       <use xlink:href="#ma46b014944" x="573.882353" y="254.16" style="stroke: #000000; stroke-width: 0.8"/>
      </g>
     </g>
     <g id="text_24">
      <!-- 10 -->
      <g transform="translate(554.157353 257.959219) scale(0.1 -0.1)">
       <use xlink:href="#DejaVuSans-31"/>
       <use xlink:href="#DejaVuSans-30" x="63.623047"/>
      </g>
     </g>
    </g>
    <g id="ytick_9">
     <g id="line2d_47">
      <path d="M 573.882353 212.16 
L 902.117647 212.16 
" clip-path="url(#p496f9f0cd0)" style="fill: none; stroke: #b0b0b0; stroke-width: 0.8; stroke-linecap: square"/>
     </g>
     <g id="line2d_48">
      <g>
       <use xlink:href="#ma46b014944" x="573.882353" y="212.16" style="stroke: #000000; stroke-width: 0.8"/>
      </g>
     </g>
     <g id="text_25">
      <!-- 20 -->
      <g transform="translate(554.157353 215.959219) scale(0.1 -0.1)">
       <use xlink:href="#DejaVuSans-32"/>
       <use xlink:href="#DejaVuSans-30" x="63.623047"/>
      </g>
     </g>
    </g>
    <g id="ytick_10">
     <g id="line2d_49">
      <path d="M 573.882353 170.16 
L 902.117647 170.16 
" clip-path="url(#p496f9f0cd0)" style="fill: none; stroke: #b0b0b0; stroke-width: 0.8; stroke-linecap: square"/>
     </g>
     <g id="line2d_50">
      <g>
       <use xlink:href="#ma46b014944" x="573.882353" y="170.16" style="stroke: #000000; stroke-width: 0.8"/>
      </g>
     </g>
     <g id="text_26">
      <!-- 30 -->
      <g transform="translate(554.157353 173.959219) scale(0.1 -0.1)">
       <use xlink:href="#DejaVuSans-33"/>
       <use xlink:href="#DejaVuSans-30" x="63.623047"/>
      </g>
     </g>
    </g>
    <g id="ytick_11">
     <g id="line2d_51">
      <path d="M 573.882353 128.16 
L 902.117647 128.16 
" clip-path="url(#p496f9f0cd0)" style="fill: none; stroke: #b0b0b0; stroke-width: 0.8; stroke-linecap: square"/>
     </g>
     <g id="line2d_52">
      <g>
       <use xlink:href="#ma46b014944" x="573.882353" y="128.16" style="stroke: #000000; stroke-width: 0.8"/>
      </g>
     </g>
     <g id="text_27">
      <!-- 40 -->
      <g transform="translate(554.157353 131.959219) scale(0.1 -0.1)">
       <use xlink:href="#DejaVuSans-34"/>
       <use xlink:href="#DejaVuSans-30" x="63.623047"/>
      </g>
     </g>
    </g>
    <g id="ytick_12">
     <g id="line2d_53">
      <path d="M 573.882353 86.16 
L 902.117647 86.16 
" clip-path="url(#p496f9f0cd0)" style="fill: none; stroke: #b0b0b0; stroke-width: 0.8; stroke-linecap: square"/>
     </g>
     <g id="line2d_54">
      <g>
       <use xlink:href="#ma46b014944" x="573.882353" y="86.16" style="stroke: #000000; stroke-width: 0.8"/>
      </g>
     </g>
     <g id="text_28">
      <!-- 50 -->
      <g transform="translate(554.157353 89.959219) scale(0.1 -0.1)">
       <use xlink:href="#DejaVuSans-35"/>
       <use xlink:href="#DejaVuSans-30" x="63.623047"/>
      </g>
     </g>
    </g>
   </g>
   <g id="line2d_55">
    <path d="M 548.138408 191.16 
L 966.477509 191.16 
" clip-path="url(#p496f9f0cd0)" style="fill: none; stroke-dasharray: 1.5,2.475; stroke-dashoffset: 0; stroke: #808080; stroke-width: 1.5"/>
   </g>
   <g id="line2d_56">
    <path d="M 869.937716 338.16 
L 869.937716 2.16 
" clip-path="url(#p496f9f0cd0)" style="fill: none; stroke-dasharray: 5.55,2.4; stroke-dashoffset: 0; stroke: #ff0000; stroke-opacity: 0.3; stroke-width: 1.5"/>
   </g>
   <g id="line2d_57">
    <path d="M 621.13357 296.16 
L 623.971793 294.371382 
L 626.810015 292.582765 
L 629.648238 290.794147 
L 632.486461 289.00553 
L 635.324683 287.216912 
L 638.162906 285.428295 
L 641.001128 283.639677 
L 643.839351 281.85106 
L 646.677573 280.062442 
L 649.515796 278.273825 
L 652.354019 276.485207 
L 655.192241 274.69659 
L 658.030464 272.907972 
L 660.868686 271.119355 
L 663.706909 269.330737 
L 666.545132 267.54212 
L 669.383354 265.753502 
L 672.221577 263.964885 
L 675.059799 262.176267 
L 677.898022 260.38765 
L 680.736245 258.599032 
L 683.574467 256.810415 
L 686.41269 255.021797 
L 689.250912 253.23318 
L 692.089135 251.444562 
L 694.927358 249.655945 
L 697.76558 247.867327 
L 700.603803 246.07871 
L 703.442025 244.290092 
L 706.280248 242.501475 
L 709.11847 240.712857 
L 711.956693 238.92424 
L 714.794916 237.135622 
L 717.633138 235.347005 
L 720.471361 233.558387 
L 723.309583 231.766143 
L 726.147806 229.962063 
L 728.986029 228.145601 
L 731.824251 226.316498 
L 734.662474 224.474487 
L 737.500696 222.619291 
L 740.338919 220.750622 
L 743.177142 218.868183 
L 746.015364 216.971664 
L 748.853587 215.060745 
L 751.691809 213.135093 
L 754.530032 211.194362 
L 757.368255 209.238191 
L 760.206477 207.266207 
L 763.0447 205.278019 
L 765.882922 203.273222 
L 768.721145 201.251391 
L 771.559368 199.212086 
L 774.39759 197.154845 
L 777.235813 195.079187 
L 780.074035 192.984607 
L 782.912258 190.87058 
L 785.75048 188.736552 
L 788.588703 186.581945 
L 791.426926 184.406152 
L 794.265148 182.208536 
L 797.103371 179.988426 
L 799.941593 177.745117 
L 802.779816 175.477867 
L 805.618039 173.185892 
L 808.456261 170.868365 
L 811.294484 168.524412 
L 814.132706 166.153107 
L 816.970929 163.753471 
L 819.809152 161.324463 
L 822.647374 158.864978 
L 825.485597 156.373838 
L 828.323819 153.849788 
L 831.162042 151.29149 
L 834.000265 148.698091 
L 836.838487 146.092337 
L 839.67671 143.486583 
L 842.514932 140.880829 
L 845.353155 138.275076 
L 848.191377 135.669322 
L 851.0296 133.063568 
L 853.867823 130.457814 
L 856.706045 127.85206 
L 859.544268 125.246307 
L 862.38249 122.640553 
L 865.220713 120.034799 
L 868.058936 117.429045 
L 870.897158 114.823292 
L 873.735381 112.217538 
L 876.573603 109.611784 
L 879.411826 107.00603 
L 882.250049 104.400276 
L 885.088271 101.794523 
L 887.926494 99.188769 
L 890.764716 96.583015 
L 893.602939 93.977261 
L 896.441162 91.371508 
L 899.279384 88.765754 
L 902.117607 86.16 
" clip-path="url(#p496f9f0cd0)" style="fill: none; stroke: #1f77b4; stroke-width: 1.5; stroke-linecap: square"/>
   </g>
   <g id="line2d_58">
    <path d="M 615.355249 296.16 
L 618.048131 294.838811 
L 620.741013 293.517622 
L 623.433895 292.196433 
L 626.126777 290.875244 
L 628.819659 289.554055 
L 631.512541 288.232865 
L 634.205423 286.911676 
L 636.898305 285.590487 
L 639.591187 284.269298 
L 642.284069 282.948109 
L 644.976951 281.62692 
L 647.669833 280.305731 
L 650.362715 278.984542 
L 653.055597 277.663353 
L 655.748479 276.342164 
L 658.441362 275.020974 
L 661.134244 273.699785 
L 663.827126 272.378596 
L 666.520008 271.057407 
L 669.21289 269.736218 
L 671.905772 268.415029 
L 674.598654 267.09384 
L 677.291536 265.772651 
L 679.984418 264.451462 
L 682.6773 263.130273 
L 685.370182 261.809083 
L 688.063064 260.487894 
L 690.755946 259.166705 
L 693.448828 257.845516 
L 696.14171 256.524327 
L 698.834592 255.203138 
L 701.527474 253.881949 
L 704.220356 252.56076 
L 706.913238 251.239571 
L 709.60612 249.918382 
L 712.299002 248.597192 
L 714.991884 247.276003 
L 717.684766 245.954814 
L 720.377648 244.633625 
L 723.07053 243.312436 
L 725.763412 241.991247 
L 728.456294 240.670058 
L 731.149176 239.348869 
L 733.842058 238.02768 
L 736.53494 236.706491 
L 739.227822 235.385301 
L 741.920704 234.064112 
L 744.613586 232.742139 
L 747.306468 231.407952 
L 749.99935 230.057322 
L 752.692232 228.689628 
L 755.385115 227.304206 
L 758.077997 225.900347 
L 760.770879 224.477296 
L 763.463761 223.034243 
L 766.156643 221.570321 
L 768.849525 220.084596 
L 771.542407 218.576065 
L 774.235289 217.043644 
L 776.928171 215.48616 
L 779.621053 213.902343 
L 782.313935 212.29081 
L 785.006817 210.650052 
L 787.699699 208.978419 
L 790.392581 207.274101 
L 793.085463 205.5351 
L 795.778345 203.75921 
L 798.471227 201.943979 
L 801.164109 200.086669 
L 803.856991 198.184212 
L 806.549873 196.233145 
L 809.242755 194.229541 
L 811.935637 192.168913 
L 814.628519 190.046094 
L 817.321401 187.85509 
L 820.014283 185.588874 
L 822.707165 183.239125 
L 825.400047 180.795863 
L 828.092929 178.246945 
L 830.785811 175.577352 
L 833.478693 172.768124 
L 836.171575 169.794748 
L 838.864457 166.624571 
L 841.557339 163.212422 
L 844.250221 159.492646 
L 846.943103 155.363116 
L 849.635985 150.648405 
L 852.328868 145.311482 
L 855.02175 139.934074 
L 857.714632 134.556667 
L 860.407514 129.179259 
L 863.100396 123.801852 
L 865.793278 118.424445 
L 868.48616 113.047037 
L 871.179042 107.66963 
L 873.871924 102.292222 
L 876.564806 96.914815 
L 879.257688 91.537407 
L 881.95057 86.16 
" clip-path="url(#p496f9f0cd0)" style="fill: none; stroke-dasharray: 5.55,2.4; stroke-dashoffset: 0; stroke: #ff7f0e; stroke-width: 1.5"/>
   </g>
   <g id="patch_9">
    <path d="M 573.882353 304.56 
L 573.882353 77.76 
" style="fill: none; stroke: #000000; stroke-width: 0.8; stroke-linejoin: miter; stroke-linecap: square"/>
   </g>
   <g id="patch_10">
    <path d="M 902.117647 304.56 
L 902.117647 77.76 
" style="fill: none; stroke: #000000; stroke-width: 0.8; stroke-linejoin: miter; stroke-linecap: square"/>
   </g>
   <g id="patch_11">
    <path d="M 573.882353 304.56 
L 902.117647 304.56 
" style="fill: none; stroke: #000000; stroke-width: 0.8; stroke-linejoin: miter; stroke-linecap: square"/>
   </g>
   <g id="patch_12">
    <path d="M 573.882353 77.76 
L 902.117647 77.76 
" style="fill: none; stroke: #000000; stroke-width: 0.8; stroke-linejoin: miter; stroke-linecap: square"/>
   </g>
   <g id="text_29">
    <!--  Block: 1 -->
    <g transform="translate(712.119375 71.76) scale(0.12 -0.12)">
     <use xlink:href="#DejaVuSans-20"/>
     <use xlink:href="#DejaVuSans-42" x="31.787109"/>
     <use xlink:href="#DejaVuSans-6c" x="100.390625"/>
     <use xlink:href="#DejaVuSans-6f" x="128.173828"/>
     <use xlink:href="#DejaVuSans-63" x="189.355469"/>
     <use xlink:href="#DejaVuSans-6b" x="244.335938"/>
     <use xlink:href="#DejaVuSans-3a" x="302.246094"/>
     <use xlink:href="#DejaVuSans-20" x="335.9375"/>
     <use xlink:href="#DejaVuSans-31" x="367.724609"/>
    </g>
   </g>
   <g id="legend_2">
    <g id="patch_13">
     <path d="M 580.882353 130.0725 
L 712.082353 130.0725 
Q 714.082353 130.0725 714.082353 128.0725 
L 714.082353 84.76 
Q 714.082353 82.76 712.082353 82.76 
L 580.882353 82.76 
Q 578.882353 82.76 578.882353 84.76 
L 578.882353 128.0725 
Q 578.882353 130.0725 580.882353 130.0725 
z
" style="fill: #ffffff; opacity: 0.8; stroke: #cccccc; stroke-linejoin: miter"/>
    </g>
    <g id="PathCollection_4">
     <g>
      <use xlink:href="#me73c4e5c4b" x="592.882353" y="91.733438" style="stroke: #000000"/>
     </g>
    </g>
    <g id="text_30">
     <!-- Data -->
     <g transform="translate(610.882353 94.358438) scale(0.1 -0.1)">
      <use xlink:href="#DejaVuSans-44"/>
      <use xlink:href="#DejaVuSans-61" x="77.001953"/>
      <use xlink:href="#DejaVuSans-74" x="138.28125"/>
      <use xlink:href="#DejaVuSans-61" x="177.490234"/>
     </g>
    </g>
    <g id="line2d_59">
     <path d="M 582.882353 105.536563 
L 592.882353 105.536563 
L 602.882353 105.536563 
" style="fill: none; stroke: #1f77b4; stroke-width: 1.5; stroke-linecap: square"/>
    </g>
    <g id="text_31">
     <!-- Artc e:0.1863 -->
     <g transform="translate(610.882353 109.036563) scale(0.1 -0.1)">
      <use xlink:href="#DejaVuSans-41"/>
      <use xlink:href="#DejaVuSans-72" x="68.408203"/>
      <use xlink:href="#DejaVuSans-74" x="109.521484"/>
      <use xlink:href="#DejaVuSans-63" x="148.730469"/>
      <use xlink:href="#DejaVuSans-20" x="203.710938"/>
      <use xlink:href="#DejaVuSans-65" x="235.498047"/>
      <use xlink:href="#DejaVuSans-3a" x="297.021484"/>
      <use xlink:href="#DejaVuSans-30" x="330.712891"/>
      <use xlink:href="#DejaVuSans-2e" x="394.335938"/>
      <use xlink:href="#DejaVuSans-31" x="426.123047"/>
      <use xlink:href="#DejaVuSans-38" x="489.746094"/>
      <use xlink:href="#DejaVuSans-36" x="553.369141"/>
      <use xlink:href="#DejaVuSans-33" x="616.992188"/>
     </g>
    </g>
    <g id="line2d_60">
     <path d="M 582.882353 120.214688 
L 592.882353 120.214688 
L 602.882353 120.214688 
" style="fill: none; stroke-dasharray: 5.55,2.4; stroke-dashoffset: 0; stroke: #ff7f0e; stroke-width: 1.5"/>
    </g>
    <g id="text_32">
     <!-- NEL_BTUX e:0.2134 -->
     <g transform="translate(610.882353 123.714688) scale(0.1 -0.1)">
      <use xlink:href="#DejaVuSans-4e"/>
      <use xlink:href="#DejaVuSans-45" x="74.804688"/>
      <use xlink:href="#DejaVuSans-4c" x="137.988281"/>
      <use xlink:href="#DejaVuSans-5f" x="193.701172"/>
      <use xlink:href="#DejaVuSans-42" x="243.701172"/>
      <use xlink:href="#DejaVuSans-54" x="312.304688"/>
      <use xlink:href="#DejaVuSans-55" x="373.388672"/>
      <use xlink:href="#DejaVuSans-58" x="446.582031"/>
      <use xlink:href="#DejaVuSans-20" x="515.087891"/>
      <use xlink:href="#DejaVuSans-65" x="546.875"/>
      <use xlink:href="#DejaVuSans-3a" x="608.398438"/>
      <use xlink:href="#DejaVuSans-30" x="642.089844"/>
      <use xlink:href="#DejaVuSans-2e" x="705.712891"/>
      <use xlink:href="#DejaVuSans-32" x="737.5"/>
      <use xlink:href="#DejaVuSans-31" x="801.123047"/>
      <use xlink:href="#DejaVuSans-33" x="864.746094"/>
      <use xlink:href="#DejaVuSans-34" x="928.369141"/>
     </g>
    </g>
   </g>
  </g>
  <g id="axes_3">
   <g id="patch_14">
    <path d="M 967.764706 304.56 
L 1296 304.56 
L 1296 77.76 
L 967.764706 77.76 
z
" style="fill: #ffffff"/>
   </g>
   <g id="PathCollection_5">
    <g clip-path="url(#pb9da8daed3)">
     <use xlink:href="#me73c4e5c4b" x="1215.550173" y="149.16" style="stroke: #000000"/>
     <use xlink:href="#me73c4e5c4b" x="1247.730104" y="107.16" style="stroke: #000000"/>
     <use xlink:href="#me73c4e5c4b" x="1167.280277" y="212.16" style="stroke: #000000"/>
     <use xlink:href="#me73c4e5c4b" x="1119.010381" y="233.16" style="stroke: #000000"/>
     <use xlink:href="#me73c4e5c4b" x="1070.740484" y="275.16" style="stroke: #000000"/>
     <use xlink:href="#me73c4e5c4b" x="1022.470588" y="275.16" style="stroke: #000000"/>
     <use xlink:href="#me73c4e5c4b" x="974.200692" y="296.16" style="stroke: #000000"/>
     <use xlink:href="#me73c4e5c4b" x="990.290657" y="296.16" style="stroke: #000000"/>
     <use xlink:href="#me73c4e5c4b" x="1006.380623" y="296.16" style="stroke: #000000"/>
     <use xlink:href="#me73c4e5c4b" x="1022.470588" y="275.16" style="stroke: #000000"/>
     <use xlink:href="#me73c4e5c4b" x="1247.733965" y="149.16" style="stroke: #000000"/>
     <use xlink:href="#me73c4e5c4b" x="1191.411042" y="191.16" style="stroke: #000000"/>
     <use xlink:href="#me73c4e5c4b" x="1078.765194" y="233.16" style="stroke: #000000"/>
     <use xlink:href="#me73c4e5c4b" x="1135.088118" y="212.16" style="stroke: #000000"/>
     <use xlink:href="#me73c4e5c4b" x="1022.44227" y="296.16" style="stroke: #000000"/>
     <use xlink:href="#me73c4e5c4b" x="1035.516654" y="275.16" style="stroke: #000000"/>
     <use xlink:href="#me73c4e5c4b" x="1206.744135" y="191.16" style="stroke: #000000"/>
     <use xlink:href="#me73c4e5c4b" x="1149.668522" y="212.16" style="stroke: #000000"/>
     <use xlink:href="#me73c4e5c4b" x="1092.592588" y="233.16" style="stroke: #000000"/>
     <use xlink:href="#me73c4e5c4b" x="1263.820069" y="107.16" style="stroke: #000000"/>
    </g>
   </g>
   <g id="matplotlib.axis_5">
    <g id="xtick_13">
     <g id="line2d_61">
      <path d="M 974.200692 304.56 
L 974.200692 77.76 
" clip-path="url(#pb9da8daed3)" style="fill: none; stroke: #b0b0b0; stroke-width: 0.8; stroke-linecap: square"/>
     </g>
     <g id="line2d_62">
      <g>
       <use xlink:href="#m53d5a5fc79" x="974.200692" y="304.56" style="stroke: #000000; stroke-width: 0.8"/>
      </g>
     </g>
     <g id="text_33">
      <!-- 0 -->
      <g transform="translate(971.019442 319.158437) scale(0.1 -0.1)">
       <use xlink:href="#DejaVuSans-30"/>
      </g>
     </g>
    </g>
    <g id="xtick_14">
     <g id="line2d_63">
      <path d="M 1038.560554 304.56 
L 1038.560554 77.76 
" clip-path="url(#pb9da8daed3)" style="fill: none; stroke: #b0b0b0; stroke-width: 0.8; stroke-linecap: square"/>
     </g>
     <g id="line2d_64">
      <g>
       <use xlink:href="#m53d5a5fc79" x="1038.560554" y="304.56" style="stroke: #000000; stroke-width: 0.8"/>
      </g>
     </g>
     <g id="text_34">
      <!-- 20 -->
      <g transform="translate(1032.198054 319.158437) scale(0.1 -0.1)">
       <use xlink:href="#DejaVuSans-32"/>
       <use xlink:href="#DejaVuSans-30" x="63.623047"/>
      </g>
     </g>
    </g>
    <g id="xtick_15">
     <g id="line2d_65">
      <path d="M 1102.920415 304.56 
L 1102.920415 77.76 
" clip-path="url(#pb9da8daed3)" style="fill: none; stroke: #b0b0b0; stroke-width: 0.8; stroke-linecap: square"/>
     </g>
     <g id="line2d_66">
      <g>
       <use xlink:href="#m53d5a5fc79" x="1102.920415" y="304.56" style="stroke: #000000; stroke-width: 0.8"/>
      </g>
     </g>
     <g id="text_35">
      <!-- 40 -->
      <g transform="translate(1096.557915 319.158437) scale(0.1 -0.1)">
       <use xlink:href="#DejaVuSans-34"/>
       <use xlink:href="#DejaVuSans-30" x="63.623047"/>
      </g>
     </g>
    </g>
    <g id="xtick_16">
     <g id="line2d_67">
      <path d="M 1167.280277 304.56 
L 1167.280277 77.76 
" clip-path="url(#pb9da8daed3)" style="fill: none; stroke: #b0b0b0; stroke-width: 0.8; stroke-linecap: square"/>
     </g>
     <g id="line2d_68">
      <g>
       <use xlink:href="#m53d5a5fc79" x="1167.280277" y="304.56" style="stroke: #000000; stroke-width: 0.8"/>
      </g>
     </g>
     <g id="text_36">
      <!-- 60 -->
      <g transform="translate(1160.917777 319.158437) scale(0.1 -0.1)">
       <use xlink:href="#DejaVuSans-36"/>
       <use xlink:href="#DejaVuSans-30" x="63.623047"/>
      </g>
     </g>
    </g>
    <g id="xtick_17">
     <g id="line2d_69">
      <path d="M 1231.640138 304.56 
L 1231.640138 77.76 
" clip-path="url(#pb9da8daed3)" style="fill: none; stroke: #b0b0b0; stroke-width: 0.8; stroke-linecap: square"/>
     </g>
     <g id="line2d_70">
      <g>
       <use xlink:href="#m53d5a5fc79" x="1231.640138" y="304.56" style="stroke: #000000; stroke-width: 0.8"/>
      </g>
     </g>
     <g id="text_37">
      <!-- 80 -->
      <g transform="translate(1225.277638 319.158437) scale(0.1 -0.1)">
       <use xlink:href="#DejaVuSans-38"/>
       <use xlink:href="#DejaVuSans-30" x="63.623047"/>
      </g>
     </g>
    </g>
    <g id="xtick_18">
     <g id="line2d_71">
      <path d="M 1296 304.56 
L 1296 77.76 
" clip-path="url(#pb9da8daed3)" style="fill: none; stroke: #b0b0b0; stroke-width: 0.8; stroke-linecap: square"/>
     </g>
     <g id="line2d_72">
      <g>
       <use xlink:href="#m53d5a5fc79" x="1296" y="304.56" style="stroke: #000000; stroke-width: 0.8"/>
      </g>
     </g>
     <g id="text_38">
      <!-- 100 -->
      <g transform="translate(1286.45625 319.158437) scale(0.1 -0.1)">
       <use xlink:href="#DejaVuSans-31"/>
       <use xlink:href="#DejaVuSans-30" x="63.623047"/>
       <use xlink:href="#DejaVuSans-30" x="127.246094"/>
      </g>
     </g>
    </g>
   </g>
   <g id="matplotlib.axis_6">
    <g id="ytick_13">
     <g id="line2d_73">
      <path d="M 967.764706 296.16 
L 1296 296.16 
" clip-path="url(#pb9da8daed3)" style="fill: none; stroke: #b0b0b0; stroke-width: 0.8; stroke-linecap: square"/>
     </g>
     <g id="line2d_74">
      <g>
       <use xlink:href="#ma46b014944" x="967.764706" y="296.16" style="stroke: #000000; stroke-width: 0.8"/>
      </g>
     </g>
     <g id="text_39">
      <!-- 0 -->
      <g transform="translate(954.402206 299.959219) scale(0.1 -0.1)">
       <use xlink:href="#DejaVuSans-30"/>
      </g>
     </g>
    </g>
    <g id="ytick_14">
     <g id="line2d_75">
      <path d="M 967.764706 254.16 
L 1296 254.16 
" clip-path="url(#pb9da8daed3)" style="fill: none; stroke: #b0b0b0; stroke-width: 0.8; stroke-linecap: square"/>
     </g>
     <g id="line2d_76">
      <g>
       <use xlink:href="#ma46b014944" x="967.764706" y="254.16" style="stroke: #000000; stroke-width: 0.8"/>
      </g>
     </g>
     <g id="text_40">
      <!-- 10 -->
      <g transform="translate(948.039706 257.959219) scale(0.1 -0.1)">
       <use xlink:href="#DejaVuSans-31"/>
       <use xlink:href="#DejaVuSans-30" x="63.623047"/>
      </g>
     </g>
    </g>
    <g id="ytick_15">
     <g id="line2d_77">
      <path d="M 967.764706 212.16 
L 1296 212.16 
" clip-path="url(#pb9da8daed3)" style="fill: none; stroke: #b0b0b0; stroke-width: 0.8; stroke-linecap: square"/>
     </g>
     <g id="line2d_78">
      <g>
       <use xlink:href="#ma46b014944" x="967.764706" y="212.16" style="stroke: #000000; stroke-width: 0.8"/>
      </g>
     </g>
     <g id="text_41">
      <!-- 20 -->
      <g transform="translate(948.039706 215.959219) scale(0.1 -0.1)">
       <use xlink:href="#DejaVuSans-32"/>
       <use xlink:href="#DejaVuSans-30" x="63.623047"/>
      </g>
     </g>
    </g>
    <g id="ytick_16">
     <g id="line2d_79">
      <path d="M 967.764706 170.16 
L 1296 170.16 
" clip-path="url(#pb9da8daed3)" style="fill: none; stroke: #b0b0b0; stroke-width: 0.8; stroke-linecap: square"/>
     </g>
     <g id="line2d_80">
      <g>
       <use xlink:href="#ma46b014944" x="967.764706" y="170.16" style="stroke: #000000; stroke-width: 0.8"/>
      </g>
     </g>
     <g id="text_42">
      <!-- 30 -->
      <g transform="translate(948.039706 173.959219) scale(0.1 -0.1)">
       <use xlink:href="#DejaVuSans-33"/>
       <use xlink:href="#DejaVuSans-30" x="63.623047"/>
      </g>
     </g>
    </g>
    <g id="ytick_17">
     <g id="line2d_81">
      <path d="M 967.764706 128.16 
L 1296 128.16 
" clip-path="url(#pb9da8daed3)" style="fill: none; stroke: #b0b0b0; stroke-width: 0.8; stroke-linecap: square"/>
     </g>
     <g id="line2d_82">
      <g>
       <use xlink:href="#ma46b014944" x="967.764706" y="128.16" style="stroke: #000000; stroke-width: 0.8"/>
      </g>
     </g>
     <g id="text_43">
      <!-- 40 -->
      <g transform="translate(948.039706 131.959219) scale(0.1 -0.1)">
       <use xlink:href="#DejaVuSans-34"/>
       <use xlink:href="#DejaVuSans-30" x="63.623047"/>
      </g>
     </g>
    </g>
    <g id="ytick_18">
     <g id="line2d_83">
      <path d="M 967.764706 86.16 
L 1296 86.16 
" clip-path="url(#pb9da8daed3)" style="fill: none; stroke: #b0b0b0; stroke-width: 0.8; stroke-linecap: square"/>
     </g>
     <g id="line2d_84">
      <g>
       <use xlink:href="#ma46b014944" x="967.764706" y="86.16" style="stroke: #000000; stroke-width: 0.8"/>
      </g>
     </g>
     <g id="text_44">
      <!-- 50 -->
      <g transform="translate(948.039706 89.959219) scale(0.1 -0.1)">
       <use xlink:href="#DejaVuSans-35"/>
       <use xlink:href="#DejaVuSans-30" x="63.623047"/>
      </g>
     </g>
    </g>
   </g>
   <g id="line2d_85">
    <path d="M 942.020761 191.16 
L 1360.359862 191.16 
" clip-path="url(#pb9da8daed3)" style="fill: none; stroke-dasharray: 1.5,2.475; stroke-dashoffset: 0; stroke: #808080; stroke-width: 1.5"/>
   </g>
   <g id="line2d_86">
    <path d="M 1263.820069 338.16 
L 1263.820069 2.16 
" clip-path="url(#pb9da8daed3)" style="fill: none; stroke-dasharray: 5.55,2.4; stroke-dashoffset: 0; stroke: #ff0000; stroke-opacity: 0.3; stroke-width: 1.5"/>
   </g>
   <g id="line2d_87">
    <path d="M 995.40685 296.16 
L 998.296015 294.649498 
L 1001.18518 293.138995 
L 1004.074344 291.628493 
L 1006.963509 290.11799 
L 1009.852674 288.607488 
L 1012.741839 287.096985 
L 1015.631004 285.586483 
L 1018.520168 284.075981 
L 1021.409333 282.565478 
L 1024.298498 281.054976 
L 1027.187663 279.544473 
L 1030.076828 278.033971 
L 1032.965993 276.523468 
L 1035.855157 275.012966 
L 1038.744322 273.502464 
L 1041.633487 271.991961 
L 1044.522652 270.481459 
L 1047.411817 268.970956 
L 1050.300981 267.460454 
L 1053.190146 265.949951 
L 1056.079311 264.439449 
L 1058.968476 262.928947 
L 1061.857641 261.418444 
L 1064.746805 259.907942 
L 1067.63597 258.397439 
L 1070.525135 256.886937 
L 1073.4143 255.376435 
L 1076.303465 253.865932 
L 1079.19263 252.35543 
L 1082.081794 250.844927 
L 1084.970959 249.334425 
L 1087.860124 247.823922 
L 1090.749289 246.31342 
L 1093.638454 244.802918 
L 1096.527618 243.292415 
L 1099.416783 241.781913 
L 1102.305948 240.27141 
L 1105.195113 238.760908 
L 1108.084278 237.250405 
L 1110.973442 235.739903 
L 1113.862607 234.229401 
L 1116.751772 232.718229 
L 1119.640937 231.195164 
L 1122.530102 229.655806 
L 1125.419267 228.099623 
L 1128.308431 226.526049 
L 1131.197596 224.934488 
L 1134.086761 223.324309 
L 1136.975926 221.694843 
L 1139.865091 220.04538 
L 1142.754255 218.375165 
L 1145.64342 216.683394 
L 1148.532585 214.969211 
L 1151.42175 213.2317 
L 1154.310915 211.469883 
L 1157.200079 209.68271 
L 1160.089244 207.869054 
L 1162.978409 206.0277 
L 1165.867574 204.157341 
L 1168.756739 202.25656 
L 1171.645903 200.323823 
L 1174.535068 198.357462 
L 1177.424233 196.355659 
L 1180.313398 194.316425 
L 1183.202563 192.237578 
L 1186.091728 190.116715 
L 1188.980892 187.951183 
L 1191.870057 185.738033 
L 1194.759222 183.473978 
L 1197.648387 181.155337 
L 1200.537552 178.777958 
L 1203.426716 176.337138 
L 1206.315881 173.82751 
L 1209.205046 171.242905 
L 1212.094211 168.576171 
L 1214.983376 165.818943 
L 1217.87254 162.961332 
L 1220.761705 159.991502 
L 1223.65087 156.895094 
L 1226.540035 153.654396 
L 1229.4292 150.247133 
L 1232.318365 146.695756 
L 1235.207529 143.134829 
L 1238.096694 139.573902 
L 1240.985859 136.012975 
L 1243.875024 132.452049 
L 1246.764189 128.891122 
L 1249.653353 125.330195 
L 1252.542518 121.769268 
L 1255.431683 118.208341 
L 1258.320848 114.647414 
L 1261.210013 111.086488 
L 1264.099177 107.525561 
L 1266.988342 103.964634 
L 1269.877507 100.403707 
L 1272.766672 96.84278 
L 1275.655837 93.281854 
L 1278.545002 89.720927 
L 1281.434166 86.16 
" clip-path="url(#pb9da8daed3)" style="fill: none; stroke: #1f77b4; stroke-width: 1.5; stroke-linecap: square"/>
   </g>
   <g id="line2d_88">
    <path d="M 1000.122058 296.16 
L 1002.855587 294.733462 
L 1005.589116 293.306923 
L 1008.322645 291.880385 
L 1011.056174 290.453847 
L 1013.789703 289.027308 
L 1016.523232 287.60077 
L 1019.256761 286.174231 
L 1021.99029 284.747693 
L 1024.723819 283.321155 
L 1027.457348 281.894616 
L 1030.190877 280.468078 
L 1032.924406 279.04154 
L 1035.657935 277.615001 
L 1038.391464 276.188463 
L 1041.124993 274.761925 
L 1043.858522 273.335386 
L 1046.592051 271.908848 
L 1049.32558 270.48231 
L 1052.059109 269.055771 
L 1054.792638 267.629233 
L 1057.526167 266.202694 
L 1060.259696 264.776156 
L 1062.993225 263.349618 
L 1065.726754 261.923079 
L 1068.460283 260.496541 
L 1071.193812 259.070003 
L 1073.927341 257.643464 
L 1076.66087 256.216926 
L 1079.394399 254.790388 
L 1082.127928 253.363849 
L 1084.861457 251.937311 
L 1087.594986 250.510773 
L 1090.328515 249.084234 
L 1093.062044 247.657696 
L 1095.795573 246.231157 
L 1098.529102 244.804619 
L 1101.262631 243.378081 
L 1103.99616 241.951542 
L 1106.729689 240.525004 
L 1109.463218 239.098466 
L 1112.196747 237.671927 
L 1114.930276 236.245389 
L 1117.663805 234.818851 
L 1120.397334 233.392312 
L 1123.130863 231.960161 
L 1125.864392 230.511896 
L 1128.597921 229.046736 
L 1131.33145 227.564074 
L 1134.064979 226.063269 
L 1136.798508 224.543637 
L 1139.532037 223.004453 
L 1142.265566 221.44494 
L 1144.999094 219.864273 
L 1147.732623 218.261565 
L 1150.466152 216.635868 
L 1153.199681 214.986164 
L 1155.93321 213.311356 
L 1158.666739 211.610263 
L 1161.400268 209.881606 
L 1164.133797 208.124002 
L 1166.867326 206.335943 
L 1169.600855 204.515792 
L 1172.334384 202.661754 
L 1175.067913 200.771864 
L 1177.801442 198.843958 
L 1180.534971 196.875645 
L 1183.2685 194.864272 
L 1186.002029 192.806884 
L 1188.735558 190.700169 
L 1191.469087 188.540401 
L 1194.202616 186.323356 
L 1196.936145 184.044221 
L 1199.669674 181.697468 
L 1202.403203 179.276695 
L 1205.136732 176.774422 
L 1207.870261 174.181817 
L 1210.60379 171.488329 
L 1213.337319 168.681176 
L 1216.070848 165.744623 
L 1218.804377 162.658935 
L 1221.537906 159.39878 
L 1224.271435 155.930723 
L 1227.004964 152.209054 
L 1229.738493 148.179473 
L 1232.472022 144.044842 
L 1235.205551 139.91021 
L 1237.93908 135.775579 
L 1240.672609 131.640947 
L 1243.406138 127.506316 
L 1246.139667 123.371684 
L 1248.873196 119.237052 
L 1251.606725 115.102421 
L 1254.340254 110.967789 
L 1257.073783 106.833158 
L 1259.807312 102.698526 
L 1262.540841 98.563895 
L 1265.27437 94.429263 
L 1268.007899 90.294632 
L 1270.741428 86.16 
" clip-path="url(#pb9da8daed3)" style="fill: none; stroke-dasharray: 5.55,2.4; stroke-dashoffset: 0; stroke: #ff7f0e; stroke-width: 1.5"/>
   </g>
   <g id="patch_15">
    <path d="M 967.764706 304.56 
L 967.764706 77.76 
" style="fill: none; stroke: #000000; stroke-width: 0.8; stroke-linejoin: miter; stroke-linecap: square"/>
   </g>
   <g id="patch_16">
    <path d="M 1296 304.56 
L 1296 77.76 
" style="fill: none; stroke: #000000; stroke-width: 0.8; stroke-linejoin: miter; stroke-linecap: square"/>
   </g>
   <g id="patch_17">
    <path d="M 967.764706 304.56 
L 1296 304.56 
" style="fill: none; stroke: #000000; stroke-width: 0.8; stroke-linejoin: miter; stroke-linecap: square"/>
   </g>
   <g id="patch_18">
    <path d="M 967.764706 77.76 
L 1296 77.76 
" style="fill: none; stroke: #000000; stroke-width: 0.8; stroke-linejoin: miter; stroke-linecap: square"/>
   </g>
   <g id="text_45">
    <!--  Block: 2 -->
    <g transform="translate(1106.001728 71.76) scale(0.12 -0.12)">
     <use xlink:href="#DejaVuSans-20"/>
     <use xlink:href="#DejaVuSans-42" x="31.787109"/>
     <use xlink:href="#DejaVuSans-6c" x="100.390625"/>
     <use xlink:href="#DejaVuSans-6f" x="128.173828"/>
     <use xlink:href="#DejaVuSans-63" x="189.355469"/>
     <use xlink:href="#DejaVuSans-6b" x="244.335938"/>
     <use xlink:href="#DejaVuSans-3a" x="302.246094"/>
     <use xlink:href="#DejaVuSans-20" x="335.9375"/>
     <use xlink:href="#DejaVuSans-32" x="367.724609"/>
    </g>
   </g>
   <g id="legend_3">
    <g id="patch_19">
     <path d="M 974.764706 130.0725 
L 1105.964706 130.0725 
Q 1107.964706 130.0725 1107.964706 128.0725 
L 1107.964706 84.76 
Q 1107.964706 82.76 1105.964706 82.76 
L 974.764706 82.76 
Q 972.764706 82.76 972.764706 84.76 
L 972.764706 128.0725 
Q 972.764706 130.0725 974.764706 130.0725 
z
" style="fill: #ffffff; opacity: 0.8; stroke: #cccccc; stroke-linejoin: miter"/>
    </g>
    <g id="PathCollection_6">
     <g>
      <use xlink:href="#me73c4e5c4b" x="986.764706" y="91.733438" style="stroke: #000000"/>
     </g>
    </g>
    <g id="text_46">
     <!-- Data -->
     <g transform="translate(1004.764706 94.358438) scale(0.1 -0.1)">
      <use xlink:href="#DejaVuSans-44"/>
      <use xlink:href="#DejaVuSans-61" x="77.001953"/>
      <use xlink:href="#DejaVuSans-74" x="138.28125"/>
      <use xlink:href="#DejaVuSans-61" x="177.490234"/>
     </g>
    </g>
    <g id="line2d_89">
     <path d="M 976.764706 105.536563 
L 986.764706 105.536563 
L 996.764706 105.536563 
" style="fill: none; stroke: #1f77b4; stroke-width: 1.5; stroke-linecap: square"/>
    </g>
    <g id="text_47">
     <!-- Artc e:0.1458 -->
     <g transform="translate(1004.764706 109.036563) scale(0.1 -0.1)">
      <use xlink:href="#DejaVuSans-41"/>
      <use xlink:href="#DejaVuSans-72" x="68.408203"/>
      <use xlink:href="#DejaVuSans-74" x="109.521484"/>
      <use xlink:href="#DejaVuSans-63" x="148.730469"/>
      <use xlink:href="#DejaVuSans-20" x="203.710938"/>
      <use xlink:href="#DejaVuSans-65" x="235.498047"/>
      <use xlink:href="#DejaVuSans-3a" x="297.021484"/>
      <use xlink:href="#DejaVuSans-30" x="330.712891"/>
      <use xlink:href="#DejaVuSans-2e" x="394.335938"/>
      <use xlink:href="#DejaVuSans-31" x="426.123047"/>
      <use xlink:href="#DejaVuSans-34" x="489.746094"/>
      <use xlink:href="#DejaVuSans-35" x="553.369141"/>
      <use xlink:href="#DejaVuSans-38" x="616.992188"/>
     </g>
    </g>
    <g id="line2d_90">
     <path d="M 976.764706 120.214688 
L 986.764706 120.214688 
L 996.764706 120.214688 
" style="fill: none; stroke-dasharray: 5.55,2.4; stroke-dashoffset: 0; stroke: #ff7f0e; stroke-width: 1.5"/>
    </g>
    <g id="text_48">
     <!-- NEL_BTUX e:0.1547 -->
     <g transform="translate(1004.764706 123.714688) scale(0.1 -0.1)">
      <use xlink:href="#DejaVuSans-4e"/>
      <use xlink:href="#DejaVuSans-45" x="74.804688"/>
      <use xlink:href="#DejaVuSans-4c" x="137.988281"/>
      <use xlink:href="#DejaVuSans-5f" x="193.701172"/>
      <use xlink:href="#DejaVuSans-42" x="243.701172"/>
      <use xlink:href="#DejaVuSans-54" x="312.304688"/>
      <use xlink:href="#DejaVuSans-55" x="373.388672"/>
      <use xlink:href="#DejaVuSans-58" x="446.582031"/>
      <use xlink:href="#DejaVuSans-20" x="515.087891"/>
      <use xlink:href="#DejaVuSans-65" x="546.875"/>
      <use xlink:href="#DejaVuSans-3a" x="608.398438"/>
      <use xlink:href="#DejaVuSans-30" x="642.089844"/>
      <use xlink:href="#DejaVuSans-2e" x="705.712891"/>
      <use xlink:href="#DejaVuSans-31" x="737.5"/>
      <use xlink:href="#DejaVuSans-35" x="801.123047"/>
      <use xlink:href="#DejaVuSans-34" x="864.746094"/>
      <use xlink:href="#DejaVuSans-37" x="928.369141"/>
     </g>
    </g>
   </g>
  </g>
  <g id="axes_4">
   <g id="patch_20">
    <path d="M 180 576.72 
L 508.235294 576.72 
L 508.235294 349.92 
L 180 349.92 
z
" style="fill: #ffffff"/>
   </g>
   <g id="PathCollection_7">
    <g clip-path="url(#pe76cbe8494)">
     <use xlink:href="#me73c4e5c4b" x="427.785467" y="421.32" style="stroke: #000000"/>
     <use xlink:href="#me73c4e5c4b" x="459.965398" y="421.32" style="stroke: #000000"/>
     <use xlink:href="#me73c4e5c4b" x="379.515571" y="463.32" style="stroke: #000000"/>
     <use xlink:href="#me73c4e5c4b" x="331.245675" y="505.32" style="stroke: #000000"/>
     <use xlink:href="#me73c4e5c4b" x="282.975779" y="547.32" style="stroke: #000000"/>
     <use xlink:href="#me73c4e5c4b" x="234.705882" y="568.32" style="stroke: #000000"/>
     <use xlink:href="#me73c4e5c4b" x="250.795848" y="547.32" style="stroke: #000000"/>
     <use xlink:href="#me73c4e5c4b" x="419.743059" y="421.32" style="stroke: #000000"/>
     <use xlink:href="#me73c4e5c4b" x="307.118128" y="526.32" style="stroke: #000000"/>
     <use xlink:href="#me73c4e5c4b" x="250.805824" y="547.32" style="stroke: #000000"/>
     <use xlink:href="#me73c4e5c4b" x="363.430433" y="484.32" style="stroke: #000000"/>
     <use xlink:href="#me73c4e5c4b" x="476.055363" y="379.32" style="stroke: #000000"/>
     <use xlink:href="#me73c4e5c4b" x="421.99501" y="421.32" style="stroke: #000000"/>
     <use xlink:href="#me73c4e5c4b" x="476.055363" y="379.32" style="stroke: #000000"/>
     <use xlink:href="#me73c4e5c4b" x="367.934979" y="484.32" style="stroke: #000000"/>
     <use xlink:href="#me73c4e5c4b" x="313.874626" y="505.32" style="stroke: #000000"/>
     <use xlink:href="#me73c4e5c4b" x="259.814595" y="547.32" style="stroke: #000000"/>
    </g>
   </g>
   <g id="matplotlib.axis_7">
    <g id="xtick_19">
     <g id="line2d_91">
      <path d="M 186.435986 576.72 
L 186.435986 349.92 
" clip-path="url(#pe76cbe8494)" style="fill: none; stroke: #b0b0b0; stroke-width: 0.8; stroke-linecap: square"/>
     </g>
     <g id="line2d_92">
      <g>
       <use xlink:href="#m53d5a5fc79" x="186.435986" y="576.72" style="stroke: #000000; stroke-width: 0.8"/>
      </g>
     </g>
     <g id="text_49">
      <!-- 0 -->
      <g transform="translate(183.254736 591.318438) scale(0.1 -0.1)">
       <use xlink:href="#DejaVuSans-30"/>
      </g>
     </g>
    </g>
    <g id="xtick_20">
     <g id="line2d_93">
      <path d="M 250.795848 576.72 
L 250.795848 349.92 
" clip-path="url(#pe76cbe8494)" style="fill: none; stroke: #b0b0b0; stroke-width: 0.8; stroke-linecap: square"/>
     </g>
     <g id="line2d_94">
      <g>
       <use xlink:href="#m53d5a5fc79" x="250.795848" y="576.72" style="stroke: #000000; stroke-width: 0.8"/>
      </g>
     </g>
     <g id="text_50">
      <!-- 20 -->
      <g transform="translate(244.433348 591.318438) scale(0.1 -0.1)">
       <use xlink:href="#DejaVuSans-32"/>
       <use xlink:href="#DejaVuSans-30" x="63.623047"/>
      </g>
     </g>
    </g>
    <g id="xtick_21">
     <g id="line2d_95">
      <path d="M 315.155709 576.72 
L 315.155709 349.92 
" clip-path="url(#pe76cbe8494)" style="fill: none; stroke: #b0b0b0; stroke-width: 0.8; stroke-linecap: square"/>
     </g>
     <g id="line2d_96">
      <g>
       <use xlink:href="#m53d5a5fc79" x="315.155709" y="576.72" style="stroke: #000000; stroke-width: 0.8"/>
      </g>
     </g>
     <g id="text_51">
      <!-- 40 -->
      <g transform="translate(308.793209 591.318438) scale(0.1 -0.1)">
       <use xlink:href="#DejaVuSans-34"/>
       <use xlink:href="#DejaVuSans-30" x="63.623047"/>
      </g>
     </g>
    </g>
    <g id="xtick_22">
     <g id="line2d_97">
      <path d="M 379.515571 576.72 
L 379.515571 349.92 
" clip-path="url(#pe76cbe8494)" style="fill: none; stroke: #b0b0b0; stroke-width: 0.8; stroke-linecap: square"/>
     </g>
     <g id="line2d_98">
      <g>
       <use xlink:href="#m53d5a5fc79" x="379.515571" y="576.72" style="stroke: #000000; stroke-width: 0.8"/>
      </g>
     </g>
     <g id="text_52">
      <!-- 60 -->
      <g transform="translate(373.153071 591.318438) scale(0.1 -0.1)">
       <use xlink:href="#DejaVuSans-36"/>
       <use xlink:href="#DejaVuSans-30" x="63.623047"/>
      </g>
     </g>
    </g>
    <g id="xtick_23">
     <g id="line2d_99">
      <path d="M 443.875433 576.72 
L 443.875433 349.92 
" clip-path="url(#pe76cbe8494)" style="fill: none; stroke: #b0b0b0; stroke-width: 0.8; stroke-linecap: square"/>
     </g>
     <g id="line2d_100">
      <g>
       <use xlink:href="#m53d5a5fc79" x="443.875433" y="576.72" style="stroke: #000000; stroke-width: 0.8"/>
      </g>
     </g>
     <g id="text_53">
      <!-- 80 -->
      <g transform="translate(437.512933 591.318438) scale(0.1 -0.1)">
       <use xlink:href="#DejaVuSans-38"/>
       <use xlink:href="#DejaVuSans-30" x="63.623047"/>
      </g>
     </g>
    </g>
    <g id="xtick_24">
     <g id="line2d_101">
      <path d="M 508.235294 576.72 
L 508.235294 349.92 
" clip-path="url(#pe76cbe8494)" style="fill: none; stroke: #b0b0b0; stroke-width: 0.8; stroke-linecap: square"/>
     </g>
     <g id="line2d_102">
      <g>
       <use xlink:href="#m53d5a5fc79" x="508.235294" y="576.72" style="stroke: #000000; stroke-width: 0.8"/>
      </g>
     </g>
     <g id="text_54">
      <!-- 100 -->
      <g transform="translate(498.691544 591.318438) scale(0.1 -0.1)">
       <use xlink:href="#DejaVuSans-31"/>
       <use xlink:href="#DejaVuSans-30" x="63.623047"/>
       <use xlink:href="#DejaVuSans-30" x="127.246094"/>
      </g>
     </g>
    </g>
   </g>
   <g id="matplotlib.axis_8">
    <g id="ytick_19">
     <g id="line2d_103">
      <path d="M 180 568.32 
L 508.235294 568.32 
" clip-path="url(#pe76cbe8494)" style="fill: none; stroke: #b0b0b0; stroke-width: 0.8; stroke-linecap: square"/>
     </g>
     <g id="line2d_104">
      <g>
       <use xlink:href="#ma46b014944" x="180" y="568.32" style="stroke: #000000; stroke-width: 0.8"/>
      </g>
     </g>
     <g id="text_55">
      <!-- 0 -->
      <g transform="translate(166.6375 572.119219) scale(0.1 -0.1)">
       <use xlink:href="#DejaVuSans-30"/>
      </g>
     </g>
    </g>
    <g id="ytick_20">
     <g id="line2d_105">
      <path d="M 180 526.32 
L 508.235294 526.32 
" clip-path="url(#pe76cbe8494)" style="fill: none; stroke: #b0b0b0; stroke-width: 0.8; stroke-linecap: square"/>
     </g>
     <g id="line2d_106">
      <g>
       <use xlink:href="#ma46b014944" x="180" y="526.32" style="stroke: #000000; stroke-width: 0.8"/>
      </g>
     </g>
     <g id="text_56">
      <!-- 10 -->
      <g transform="translate(160.275 530.119219) scale(0.1 -0.1)">
       <use xlink:href="#DejaVuSans-31"/>
       <use xlink:href="#DejaVuSans-30" x="63.623047"/>
      </g>
     </g>
    </g>
    <g id="ytick_21">
     <g id="line2d_107">
      <path d="M 180 484.32 
L 508.235294 484.32 
" clip-path="url(#pe76cbe8494)" style="fill: none; stroke: #b0b0b0; stroke-width: 0.8; stroke-linecap: square"/>
     </g>
     <g id="line2d_108">
      <g>
       <use xlink:href="#ma46b014944" x="180" y="484.32" style="stroke: #000000; stroke-width: 0.8"/>
      </g>
     </g>
     <g id="text_57">
      <!-- 20 -->
      <g transform="translate(160.275 488.119219) scale(0.1 -0.1)">
       <use xlink:href="#DejaVuSans-32"/>
       <use xlink:href="#DejaVuSans-30" x="63.623047"/>
      </g>
     </g>
    </g>
    <g id="ytick_22">
     <g id="line2d_109">
      <path d="M 180 442.32 
L 508.235294 442.32 
" clip-path="url(#pe76cbe8494)" style="fill: none; stroke: #b0b0b0; stroke-width: 0.8; stroke-linecap: square"/>
     </g>
     <g id="line2d_110">
      <g>
       <use xlink:href="#ma46b014944" x="180" y="442.32" style="stroke: #000000; stroke-width: 0.8"/>
      </g>
     </g>
     <g id="text_58">
      <!-- 30 -->
      <g transform="translate(160.275 446.119219) scale(0.1 -0.1)">
       <use xlink:href="#DejaVuSans-33"/>
       <use xlink:href="#DejaVuSans-30" x="63.623047"/>
      </g>
     </g>
    </g>
    <g id="ytick_23">
     <g id="line2d_111">
      <path d="M 180 400.32 
L 508.235294 400.32 
" clip-path="url(#pe76cbe8494)" style="fill: none; stroke: #b0b0b0; stroke-width: 0.8; stroke-linecap: square"/>
     </g>
     <g id="line2d_112">
      <g>
       <use xlink:href="#ma46b014944" x="180" y="400.32" style="stroke: #000000; stroke-width: 0.8"/>
      </g>
     </g>
     <g id="text_59">
      <!-- 40 -->
      <g transform="translate(160.275 404.119219) scale(0.1 -0.1)">
       <use xlink:href="#DejaVuSans-34"/>
       <use xlink:href="#DejaVuSans-30" x="63.623047"/>
      </g>
     </g>
    </g>
    <g id="ytick_24">
     <g id="line2d_113">
      <path d="M 180 358.32 
L 508.235294 358.32 
" clip-path="url(#pe76cbe8494)" style="fill: none; stroke: #b0b0b0; stroke-width: 0.8; stroke-linecap: square"/>
     </g>
     <g id="line2d_114">
      <g>
       <use xlink:href="#ma46b014944" x="180" y="358.32" style="stroke: #000000; stroke-width: 0.8"/>
      </g>
     </g>
     <g id="text_60">
      <!-- 50 -->
      <g transform="translate(160.275 362.119219) scale(0.1 -0.1)">
       <use xlink:href="#DejaVuSans-35"/>
       <use xlink:href="#DejaVuSans-30" x="63.623047"/>
      </g>
     </g>
    </g>
   </g>
   <g id="line2d_115">
    <path d="M 154.256055 463.32 
L 572.595156 463.32 
" clip-path="url(#pe76cbe8494)" style="fill: none; stroke-dasharray: 1.5,2.475; stroke-dashoffset: 0; stroke: #808080; stroke-width: 1.5"/>
   </g>
   <g id="line2d_116">
    <path d="M 476.055363 610.32 
L 476.055363 274.32 
" clip-path="url(#pe76cbe8494)" style="fill: none; stroke-dasharray: 5.55,2.4; stroke-dashoffset: 0; stroke: #ff0000; stroke-opacity: 0.3; stroke-width: 1.5"/>
   </g>
   <g id="line2d_117">
    <path d="M 231.795358 568.32 
L 234.545655 566.46144 
L 237.295953 564.60288 
L 240.046251 562.74432 
L 242.796548 560.88576 
L 245.546846 559.0272 
L 248.297144 557.16864 
L 251.047441 555.31008 
L 253.797739 553.45152 
L 256.548037 551.59296 
L 259.298335 549.7344 
L 262.048632 547.87584 
L 264.79893 546.01728 
L 267.549228 544.15872 
L 270.299525 542.30016 
L 273.049823 540.4416 
L 275.800121 538.583041 
L 278.550418 536.724481 
L 281.300716 534.865921 
L 284.051014 533.007361 
L 286.801311 531.148801 
L 289.551609 529.290241 
L 292.301907 527.431681 
L 295.052205 525.573121 
L 297.802502 523.714561 
L 300.5528 521.856001 
L 303.303098 519.997441 
L 306.053395 518.138881 
L 308.803693 516.280321 
L 311.553991 514.421761 
L 314.304288 512.563201 
L 317.054586 510.704641 
L 319.804884 508.846081 
L 322.555181 506.987521 
L 325.305479 505.128907 
L 328.055777 503.264171 
L 330.806075 501.389063 
L 333.556372 499.503409 
L 336.30667 497.607029 
L 339.056968 495.699737 
L 341.807265 493.781343 
L 344.557563 491.851651 
L 347.307861 489.910458 
L 350.058158 487.957557 
L 352.808456 485.992733 
L 355.558754 484.015766 
L 358.309051 482.026426 
L 361.059349 480.024479 
L 363.809647 478.009683 
L 366.559945 475.981786 
L 369.310242 473.940529 
L 372.06054 471.885646 
L 374.810838 469.816858 
L 377.561135 467.733882 
L 380.311433 465.636419 
L 383.061731 463.524164 
L 385.812028 461.396799 
L 388.562326 459.253996 
L 391.312624 457.095413 
L 394.062921 454.920696 
L 396.813219 452.729479 
L 399.563517 450.521379 
L 402.313815 448.296001 
L 405.064112 446.052932 
L 407.81441 443.791743 
L 410.564708 441.511989 
L 413.315005 439.213204 
L 416.065303 436.894904 
L 418.815601 434.556583 
L 421.565898 432.197713 
L 424.316196 429.817742 
L 427.066494 427.416095 
L 429.816791 424.992168 
L 432.567089 422.545328 
L 435.317387 420.077952 
L 438.067684 417.607634 
L 440.817982 415.137316 
L 443.56828 412.666998 
L 446.318578 410.19668 
L 449.068875 407.726362 
L 451.819173 405.256044 
L 454.569471 402.785726 
L 457.319768 400.315407 
L 460.070066 397.845089 
L 462.820364 395.374771 
L 465.570661 392.904453 
L 468.320959 390.434135 
L 471.071257 387.963817 
L 473.821554 385.493499 
L 476.571852 383.023181 
L 479.32215 380.552863 
L 482.072448 378.082545 
L 484.822745 375.612227 
L 487.573043 373.141909 
L 490.323341 370.67159 
L 493.073638 368.201272 
L 495.823936 365.730954 
L 498.574234 363.260636 
L 501.324531 360.790318 
L 504.074829 358.32 
" clip-path="url(#pe76cbe8494)" style="fill: none; stroke: #1f77b4; stroke-width: 1.5; stroke-linecap: square"/>
   </g>
   <g id="line2d_118">
    <path d="M 225.55089 568.32 
L 228.287197 566.586146 
L 231.023505 564.852292 
L 233.759812 563.118438 
L 236.49612 561.384584 
L 239.232427 559.65073 
L 241.968735 557.916876 
L 244.705042 556.183022 
L 247.441349 554.449168 
L 250.177657 552.715314 
L 252.913964 550.98146 
L 255.650272 549.247606 
L 258.386579 547.513752 
L 261.122887 545.779898 
L 263.859194 544.046044 
L 266.595502 542.31219 
L 269.331809 540.578336 
L 272.068116 538.844482 
L 274.804424 537.110628 
L 277.540731 535.376775 
L 280.277039 533.642921 
L 283.013346 531.909067 
L 285.749654 530.175213 
L 288.485961 528.441359 
L 291.222269 526.707505 
L 293.958576 524.973651 
L 296.694884 523.239797 
L 299.431191 521.505943 
L 302.167498 519.772089 
L 304.903806 518.038235 
L 307.640113 516.304381 
L 310.376421 514.570527 
L 313.112728 512.836673 
L 315.849036 511.102819 
L 318.585343 509.368965 
L 321.321651 507.635111 
L 324.057958 505.901257 
L 326.794266 504.1645 
L 329.530573 502.415206 
L 332.26688 500.652331 
L 335.003188 498.875555 
L 337.739495 497.084544 
L 340.475803 495.27895 
L 343.21211 493.45841 
L 345.948418 491.622549 
L 348.684725 489.770971 
L 351.421033 487.903266 
L 354.15734 486.019006 
L 356.893647 484.117742 
L 359.629955 482.199005 
L 362.366262 480.262305 
L 365.10257 478.307127 
L 367.838877 476.332933 
L 370.575185 474.339156 
L 373.311492 472.325202 
L 376.0478 470.290445 
L 378.784107 468.234227 
L 381.520415 466.155855 
L 384.256722 464.054597 
L 386.993029 461.929679 
L 389.729337 459.780284 
L 392.465644 457.605545 
L 395.201952 455.404546 
L 397.938259 453.17631 
L 400.674567 450.919802 
L 403.410874 448.633916 
L 406.147182 446.317474 
L 408.883489 443.969218 
L 411.619797 441.587799 
L 414.356104 439.171771 
L 417.092411 436.719581 
L 419.828719 434.229553 
L 422.565026 431.699881 
L 425.301334 429.128609 
L 428.037641 426.513613 
L 430.773949 423.852585 
L 433.510256 421.143112 
L 436.246564 418.411672 
L 438.982871 415.680232 
L 441.719178 412.948793 
L 444.455486 410.217353 
L 447.191793 407.485913 
L 449.928101 404.754474 
L 452.664408 402.023034 
L 455.400716 399.291595 
L 458.137023 396.560155 
L 460.873331 393.828715 
L 463.609638 391.097276 
L 466.345946 388.365836 
L 469.082253 385.634396 
L 471.81856 382.902957 
L 474.554868 380.171517 
L 477.291175 377.440077 
L 480.027483 374.708638 
L 482.76379 371.977198 
L 485.500098 369.245759 
L 488.236405 366.514319 
L 490.972713 363.782879 
L 493.70902 361.05144 
L 496.445327 358.32 
" clip-path="url(#pe76cbe8494)" style="fill: none; stroke-dasharray: 5.55,2.4; stroke-dashoffset: 0; stroke: #ff7f0e; stroke-width: 1.5"/>
   </g>
   <g id="patch_21">
    <path d="M 180 576.72 
L 180 349.92 
" style="fill: none; stroke: #000000; stroke-width: 0.8; stroke-linejoin: miter; stroke-linecap: square"/>
   </g>
   <g id="patch_22">
    <path d="M 508.235294 576.72 
L 508.235294 349.92 
" style="fill: none; stroke: #000000; stroke-width: 0.8; stroke-linejoin: miter; stroke-linecap: square"/>
   </g>
   <g id="patch_23">
    <path d="M 180 576.72 
L 508.235294 576.72 
" style="fill: none; stroke: #000000; stroke-width: 0.8; stroke-linejoin: miter; stroke-linecap: square"/>
   </g>
   <g id="patch_24">
    <path d="M 180 349.92 
L 508.235294 349.92 
" style="fill: none; stroke: #000000; stroke-width: 0.8; stroke-linejoin: miter; stroke-linecap: square"/>
   </g>
   <g id="text_61">
    <!--  Block: 3 -->
    <g transform="translate(318.237022 343.92) scale(0.12 -0.12)">
     <use xlink:href="#DejaVuSans-20"/>
     <use xlink:href="#DejaVuSans-42" x="31.787109"/>
     <use xlink:href="#DejaVuSans-6c" x="100.390625"/>
     <use xlink:href="#DejaVuSans-6f" x="128.173828"/>
     <use xlink:href="#DejaVuSans-63" x="189.355469"/>
     <use xlink:href="#DejaVuSans-6b" x="244.335938"/>
     <use xlink:href="#DejaVuSans-3a" x="302.246094"/>
     <use xlink:href="#DejaVuSans-20" x="335.9375"/>
     <use xlink:href="#DejaVuSans-33" x="367.724609"/>
    </g>
   </g>
   <g id="legend_4">
    <g id="patch_25">
     <path d="M 187 402.2325 
L 318.2 402.2325 
Q 320.2 402.2325 320.2 400.2325 
L 320.2 356.92 
Q 320.2 354.92 318.2 354.92 
L 187 354.92 
Q 185 354.92 185 356.92 
L 185 400.2325 
Q 185 402.2325 187 402.2325 
z
" style="fill: #ffffff; opacity: 0.8; stroke: #cccccc; stroke-linejoin: miter"/>
    </g>
    <g id="PathCollection_8">
     <g>
      <use xlink:href="#me73c4e5c4b" x="199" y="363.893437" style="stroke: #000000"/>
     </g>
    </g>
    <g id="text_62">
     <!-- Data -->
     <g transform="translate(217 366.518437) scale(0.1 -0.1)">
      <use xlink:href="#DejaVuSans-44"/>
      <use xlink:href="#DejaVuSans-61" x="77.001953"/>
      <use xlink:href="#DejaVuSans-74" x="138.28125"/>
      <use xlink:href="#DejaVuSans-61" x="177.490234"/>
     </g>
    </g>
    <g id="line2d_119">
     <path d="M 189 377.696562 
L 199 377.696562 
L 209 377.696562 
" style="fill: none; stroke: #1f77b4; stroke-width: 1.5; stroke-linecap: square"/>
    </g>
    <g id="text_63">
     <!-- Artc e:0.1311 -->
     <g transform="translate(217 381.196562) scale(0.1 -0.1)">
      <use xlink:href="#DejaVuSans-41"/>
      <use xlink:href="#DejaVuSans-72" x="68.408203"/>
      <use xlink:href="#DejaVuSans-74" x="109.521484"/>
      <use xlink:href="#DejaVuSans-63" x="148.730469"/>
      <use xlink:href="#DejaVuSans-20" x="203.710938"/>
      <use xlink:href="#DejaVuSans-65" x="235.498047"/>
      <use xlink:href="#DejaVuSans-3a" x="297.021484"/>
      <use xlink:href="#DejaVuSans-30" x="330.712891"/>
      <use xlink:href="#DejaVuSans-2e" x="394.335938"/>
      <use xlink:href="#DejaVuSans-31" x="426.123047"/>
      <use xlink:href="#DejaVuSans-33" x="489.746094"/>
      <use xlink:href="#DejaVuSans-31" x="553.369141"/>
      <use xlink:href="#DejaVuSans-31" x="616.992188"/>
     </g>
    </g>
    <g id="line2d_120">
     <path d="M 189 392.374687 
L 199 392.374687 
L 209 392.374687 
" style="fill: none; stroke-dasharray: 5.55,2.4; stroke-dashoffset: 0; stroke: #ff7f0e; stroke-width: 1.5"/>
    </g>
    <g id="text_64">
     <!-- NEL_BTUX e:0.1364 -->
     <g transform="translate(217 395.874687) scale(0.1 -0.1)">
      <use xlink:href="#DejaVuSans-4e"/>
      <use xlink:href="#DejaVuSans-45" x="74.804688"/>
      <use xlink:href="#DejaVuSans-4c" x="137.988281"/>
      <use xlink:href="#DejaVuSans-5f" x="193.701172"/>
      <use xlink:href="#DejaVuSans-42" x="243.701172"/>
      <use xlink:href="#DejaVuSans-54" x="312.304688"/>
      <use xlink:href="#DejaVuSans-55" x="373.388672"/>
      <use xlink:href="#DejaVuSans-58" x="446.582031"/>
      <use xlink:href="#DejaVuSans-20" x="515.087891"/>
      <use xlink:href="#DejaVuSans-65" x="546.875"/>
      <use xlink:href="#DejaVuSans-3a" x="608.398438"/>
      <use xlink:href="#DejaVuSans-30" x="642.089844"/>
      <use xlink:href="#DejaVuSans-2e" x="705.712891"/>
      <use xlink:href="#DejaVuSans-31" x="737.5"/>
      <use xlink:href="#DejaVuSans-33" x="801.123047"/>
      <use xlink:href="#DejaVuSans-36" x="864.746094"/>
      <use xlink:href="#DejaVuSans-34" x="928.369141"/>
     </g>
    </g>
   </g>
  </g>
  <g id="axes_5"/>
  <g id="axes_6"/>
  <g id="text_65">
   <!-- ID: 6097, Max level: 90dB -->
   <g transform="translate(655.440625 20.558438) scale(0.1 -0.1)">
    <defs>
     <path id="DejaVuSans-49" d="M 628 4666 
L 1259 4666 
L 1259 0 
L 628 0 
L 628 4666 
z
" transform="scale(0.015625)"/>
     <path id="DejaVuSans-39" d="M 703 97 
L 703 672 
Q 941 559 1184 500 
Q 1428 441 1663 441 
Q 2288 441 2617 861 
Q 2947 1281 2994 2138 
Q 2813 1869 2534 1725 
Q 2256 1581 1919 1581 
Q 1219 1581 811 2004 
Q 403 2428 403 3163 
Q 403 3881 828 4315 
Q 1253 4750 1959 4750 
Q 2769 4750 3195 4129 
Q 3622 3509 3622 2328 
Q 3622 1225 3098 567 
Q 2575 -91 1691 -91 
Q 1453 -91 1209 -44 
Q 966 3 703 97 
z
M 1959 2075 
Q 2384 2075 2632 2365 
Q 2881 2656 2881 3163 
Q 2881 3666 2632 3958 
Q 2384 4250 1959 4250 
Q 1534 4250 1286 3958 
Q 1038 3666 1038 3163 
Q 1038 2656 1286 2365 
Q 1534 2075 1959 2075 
z
" transform="scale(0.015625)"/>
     <path id="DejaVuSans-2c" d="M 750 794 
L 1409 794 
L 1409 256 
L 897 -744 
L 494 -744 
L 750 256 
L 750 794 
z
" transform="scale(0.015625)"/>
     <path id="DejaVuSans-4d" d="M 628 4666 
L 1569 4666 
L 2759 1491 
L 3956 4666 
L 4897 4666 
L 4897 0 
L 4281 0 
L 4281 4097 
L 3078 897 
L 2444 897 
L 1241 4097 
L 1241 0 
L 628 0 
L 628 4666 
z
" transform="scale(0.015625)"/>
     <path id="DejaVuSans-78" d="M 3513 3500 
L 2247 1797 
L 3578 0 
L 2900 0 
L 1881 1375 
L 863 0 
L 184 0 
L 1544 1831 
L 300 3500 
L 978 3500 
L 1906 2253 
L 2834 3500 
L 3513 3500 
z
" transform="scale(0.015625)"/>
     <path id="DejaVuSans-76" d="M 191 3500 
L 800 3500 
L 1894 563 
L 2988 3500 
L 3597 3500 
L 2284 0 
L 1503 0 
L 191 3500 
z
" transform="scale(0.015625)"/>
     <path id="DejaVuSans-64" d="M 2906 2969 
L 2906 4863 
L 3481 4863 
L 3481 0 
L 2906 0 
L 2906 525 
Q 2725 213 2448 61 
Q 2172 -91 1784 -91 
Q 1150 -91 751 415 
Q 353 922 353 1747 
Q 353 2572 751 3078 
Q 1150 3584 1784 3584 
Q 2172 3584 2448 3432 
Q 2725 3281 2906 2969 
z
M 947 1747 
Q 947 1113 1208 752 
Q 1469 391 1925 391 
Q 2381 391 2643 752 
Q 2906 1113 2906 1747 
Q 2906 2381 2643 2742 
Q 2381 3103 1925 3103 
Q 1469 3103 1208 2742 
Q 947 2381 947 1747 
z
" transform="scale(0.015625)"/>
    </defs>
    <use xlink:href="#DejaVuSans-49"/>
    <use xlink:href="#DejaVuSans-44" x="29.492188"/>
    <use xlink:href="#DejaVuSans-3a" x="106.494141"/>
    <use xlink:href="#DejaVuSans-20" x="140.185547"/>
    <use xlink:href="#DejaVuSans-36" x="171.972656"/>
    <use xlink:href="#DejaVuSans-30" x="235.595703"/>
    <use xlink:href="#DejaVuSans-39" x="299.21875"/>
    <use xlink:href="#DejaVuSans-37" x="362.841797"/>
    <use xlink:href="#DejaVuSans-2c" x="426.464844"/>
    <use xlink:href="#DejaVuSans-20" x="458.251953"/>
    <use xlink:href="#DejaVuSans-4d" x="490.039062"/>
    <use xlink:href="#DejaVuSans-61" x="576.318359"/>
    <use xlink:href="#DejaVuSans-78" x="637.597656"/>
    <use xlink:href="#DejaVuSans-20" x="696.777344"/>
    <use xlink:href="#DejaVuSans-6c" x="728.564453"/>
    <use xlink:href="#DejaVuSans-65" x="756.347656"/>
    <use xlink:href="#DejaVuSans-76" x="817.871094"/>
    <use xlink:href="#DejaVuSans-65" x="877.050781"/>
    <use xlink:href="#DejaVuSans-6c" x="938.574219"/>
    <use xlink:href="#DejaVuSans-3a" x="966.357422"/>
    <use xlink:href="#DejaVuSans-20" x="1000.048828"/>
    <use xlink:href="#DejaVuSans-39" x="1031.835938"/>
    <use xlink:href="#DejaVuSans-30" x="1095.458984"/>
    <use xlink:href="#DejaVuSans-64" x="1159.082031"/>
    <use xlink:href="#DejaVuSans-42" x="1222.558594"/>
   </g>
  </g>
 </g>
 <defs>
  <clipPath id="p6c4a24f4f2">
   <rect x="180" y="77.76" width="328.235294" height="226.8"/>
  </clipPath>
  <clipPath id="p496f9f0cd0">
   <rect x="573.882353" y="77.76" width="328.235294" height="226.8"/>
  </clipPath>
  <clipPath id="pb9da8daed3">
   <rect x="967.764706" y="77.76" width="328.235294" height="226.8"/>
  </clipPath>
  <clipPath id="pe76cbe8494">
   <rect x="180" y="349.92" width="328.235294" height="226.8"/>
  </clipPath>
 </defs>
</svg>
