<?xml version="1.0" encoding="utf-8" standalone="no"?>
<!DOCTYPE svg PUBLIC "-//W3C//DTD SVG 1.1//EN"
  "http://www.w3.org/Graphics/SVG/1.1/DTD/svg11.dtd">
<svg xmlns:xlink="http://www.w3.org/1999/xlink" width="1440pt" height="360pt" viewBox="0 0 1440 360" xmlns="http://www.w3.org/2000/svg" version="1.1">
 <metadata>
  <rdf:RDF xmlns:dc="http://purl.org/dc/elements/1.1/" xmlns:cc="http://creativecommons.org/ns#" xmlns:rdf="http://www.w3.org/1999/02/22-rdf-syntax-ns#">
   <cc:Work>
    <dc:type rdf:resource="http://purl.org/dc/dcmitype/StillImage"/>
    <dc:date>2024-05-07T10:37:33.971209</dc:date>
    <dc:format>image/svg+xml</dc:format>
    <dc:creator>
     <cc:Agent>
      <dc:title>Matplotlib v3.8.0, https://matplotlib.org/</dc:title>
     </cc:Agent>
    </dc:creator>
   </cc:Work>
  </rdf:RDF>
 </metadata>
 <defs>
  <style type="text/css">*{stroke-linejoin: round; stroke-linecap: butt}</style>
 </defs>
 <g id="figure_1">
  <g id="patch_1">
   <path d="M 0 360 
L 1440 360 
L 1440 0 
L 0 0 
z
" style="fill: #ffffff"/>
  </g>
  <g id="axes_1">
   <g id="patch_2">
    <path d="M 180 320.4 
L 508.235294 320.4 
L 508.235294 43.2 
L 180 43.2 
z
" style="fill: #ffffff"/>
   </g>
   <g id="PathCollection_1">
    <defs>
     <path id="m9349b8de03" d="M 0 3 
C 0.795609 3 1.55874 2.683901 2.12132 2.12132 
C 2.683901 1.55874 3 0.795609 3 0 
C 3 -0.795609 2.683901 -1.55874 2.12132 -2.12132 
C 1.55874 -2.683901 0.795609 -3 0 -3 
C -0.795609 -3 -1.55874 -2.683901 -2.12132 -2.12132 
C -2.683901 -1.55874 -3 -0.795609 -3 0 
C -3 0.795609 -2.683901 1.55874 -2.12132 2.12132 
C -1.55874 2.683901 -0.795609 3 0 3 
z
" style="stroke: #000000"/>
    </defs>
    <g clip-path="url(#p3fb78d9b97)">
     <use xlink:href="#m9349b8de03" x="427.785467" y="156.133333" style="stroke: #000000"/>
     <use xlink:href="#m9349b8de03" x="459.965398" y="104.8" style="stroke: #000000"/>
     <use xlink:href="#m9349b8de03" x="379.515571" y="207.466667" style="stroke: #000000"/>
     <use xlink:href="#m9349b8de03" x="331.245675" y="258.8" style="stroke: #000000"/>
     <use xlink:href="#m9349b8de03" x="282.975779" y="284.466667" style="stroke: #000000"/>
     <use xlink:href="#m9349b8de03" x="234.705882" y="310.133333" style="stroke: #000000"/>
     <use xlink:href="#m9349b8de03" x="250.795848" y="310.133333" style="stroke: #000000"/>
     <use xlink:href="#m9349b8de03" x="266.885813" y="258.8" style="stroke: #000000"/>
     <use xlink:href="#m9349b8de03" x="234.705882" y="284.466667" style="stroke: #000000"/>
     <use xlink:href="#m9349b8de03" x="347.33564" y="207.466667" style="stroke: #000000"/>
     <use xlink:href="#m9349b8de03" x="291.020761" y="258.8" style="stroke: #000000"/>
     <use xlink:href="#m9349b8de03" x="403.650519" y="207.466667" style="stroke: #000000"/>
     <use xlink:href="#m9349b8de03" x="459.965398" y="53.466667" style="stroke: #000000"/>
     <use xlink:href="#m9349b8de03" x="251.034301" y="310.133333" style="stroke: #000000"/>
     <use xlink:href="#m9349b8de03" x="355.50001" y="207.466667" style="stroke: #000000"/>
     <use xlink:href="#m9349b8de03" x="459.965398" y="53.466667" style="stroke: #000000"/>
     <use xlink:href="#m9349b8de03" x="303.267156" y="258.8" style="stroke: #000000"/>
     <use xlink:href="#m9349b8de03" x="407.732543" y="207.466667" style="stroke: #000000"/>
    </g>
   </g>
   <g id="matplotlib.axis_1">
    <g id="xtick_1">
     <g id="line2d_1">
      <path d="M 186.435986 320.4 
L 186.435986 43.2 
" clip-path="url(#p3fb78d9b97)" style="fill: none; stroke: #b0b0b0; stroke-width: 0.8; stroke-linecap: square"/>
     </g>
     <g id="line2d_2">
      <defs>
       <path id="mad39d6ab7d" d="M 0 0 
L 0 3.5 
" style="stroke: #000000; stroke-width: 0.8"/>
      </defs>
      <g>
       <use xlink:href="#mad39d6ab7d" x="186.435986" y="320.4" style="stroke: #000000; stroke-width: 0.8"/>
      </g>
     </g>
     <g id="text_1">
      <!-- 0 -->
      <g transform="translate(183.254736 334.998438) scale(0.1 -0.1)">
       <defs>
        <path id="DejaVuSans-30" d="M 2034 4250 
Q 1547 4250 1301 3770 
Q 1056 3291 1056 2328 
Q 1056 1369 1301 889 
Q 1547 409 2034 409 
Q 2525 409 2770 889 
Q 3016 1369 3016 2328 
Q 3016 3291 2770 3770 
Q 2525 4250 2034 4250 
z
M 2034 4750 
Q 2819 4750 3233 4129 
Q 3647 3509 3647 2328 
Q 3647 1150 3233 529 
Q 2819 -91 2034 -91 
Q 1250 -91 836 529 
Q 422 1150 422 2328 
Q 422 3509 836 4129 
Q 1250 4750 2034 4750 
z
" transform="scale(0.015625)"/>
       </defs>
       <use xlink:href="#DejaVuSans-30"/>
      </g>
     </g>
    </g>
    <g id="xtick_2">
     <g id="line2d_3">
      <path d="M 250.795848 320.4 
L 250.795848 43.2 
" clip-path="url(#p3fb78d9b97)" style="fill: none; stroke: #b0b0b0; stroke-width: 0.8; stroke-linecap: square"/>
     </g>
     <g id="line2d_4">
      <g>
       <use xlink:href="#mad39d6ab7d" x="250.795848" y="320.4" style="stroke: #000000; stroke-width: 0.8"/>
      </g>
     </g>
     <g id="text_2">
      <!-- 20 -->
      <g transform="translate(244.433348 334.998438) scale(0.1 -0.1)">
       <defs>
        <path id="DejaVuSans-32" d="M 1228 531 
L 3431 531 
L 3431 0 
L 469 0 
L 469 531 
Q 828 903 1448 1529 
Q 2069 2156 2228 2338 
Q 2531 2678 2651 2914 
Q 2772 3150 2772 3378 
Q 2772 3750 2511 3984 
Q 2250 4219 1831 4219 
Q 1534 4219 1204 4116 
Q 875 4013 500 3803 
L 500 4441 
Q 881 4594 1212 4672 
Q 1544 4750 1819 4750 
Q 2544 4750 2975 4387 
Q 3406 4025 3406 3419 
Q 3406 3131 3298 2873 
Q 3191 2616 2906 2266 
Q 2828 2175 2409 1742 
Q 1991 1309 1228 531 
z
" transform="scale(0.015625)"/>
       </defs>
       <use xlink:href="#DejaVuSans-32"/>
       <use xlink:href="#DejaVuSans-30" x="63.623047"/>
      </g>
     </g>
    </g>
    <g id="xtick_3">
     <g id="line2d_5">
      <path d="M 315.155709 320.4 
L 315.155709 43.2 
" clip-path="url(#p3fb78d9b97)" style="fill: none; stroke: #b0b0b0; stroke-width: 0.8; stroke-linecap: square"/>
     </g>
     <g id="line2d_6">
      <g>
       <use xlink:href="#mad39d6ab7d" x="315.155709" y="320.4" style="stroke: #000000; stroke-width: 0.8"/>
      </g>
     </g>
     <g id="text_3">
      <!-- 40 -->
      <g transform="translate(308.793209 334.998438) scale(0.1 -0.1)">
       <defs>
        <path id="DejaVuSans-34" d="M 2419 4116 
L 825 1625 
L 2419 1625 
L 2419 4116 
z
M 2253 4666 
L 3047 4666 
L 3047 1625 
L 3713 1625 
L 3713 1100 
L 3047 1100 
L 3047 0 
L 2419 0 
L 2419 1100 
L 313 1100 
L 313 1709 
L 2253 4666 
z
" transform="scale(0.015625)"/>
       </defs>
       <use xlink:href="#DejaVuSans-34"/>
       <use xlink:href="#DejaVuSans-30" x="63.623047"/>
      </g>
     </g>
    </g>
    <g id="xtick_4">
     <g id="line2d_7">
      <path d="M 379.515571 320.4 
L 379.515571 43.2 
" clip-path="url(#p3fb78d9b97)" style="fill: none; stroke: #b0b0b0; stroke-width: 0.8; stroke-linecap: square"/>
     </g>
     <g id="line2d_8">
      <g>
       <use xlink:href="#mad39d6ab7d" x="379.515571" y="320.4" style="stroke: #000000; stroke-width: 0.8"/>
      </g>
     </g>
     <g id="text_4">
      <!-- 60 -->
      <g transform="translate(373.153071 334.998438) scale(0.1 -0.1)">
       <defs>
        <path id="DejaVuSans-36" d="M 2113 2584 
Q 1688 2584 1439 2293 
Q 1191 2003 1191 1497 
Q 1191 994 1439 701 
Q 1688 409 2113 409 
Q 2538 409 2786 701 
Q 3034 994 3034 1497 
Q 3034 2003 2786 2293 
Q 2538 2584 2113 2584 
z
M 3366 4563 
L 3366 3988 
Q 3128 4100 2886 4159 
Q 2644 4219 2406 4219 
Q 1781 4219 1451 3797 
Q 1122 3375 1075 2522 
Q 1259 2794 1537 2939 
Q 1816 3084 2150 3084 
Q 2853 3084 3261 2657 
Q 3669 2231 3669 1497 
Q 3669 778 3244 343 
Q 2819 -91 2113 -91 
Q 1303 -91 875 529 
Q 447 1150 447 2328 
Q 447 3434 972 4092 
Q 1497 4750 2381 4750 
Q 2619 4750 2861 4703 
Q 3103 4656 3366 4563 
z
" transform="scale(0.015625)"/>
       </defs>
       <use xlink:href="#DejaVuSans-36"/>
       <use xlink:href="#DejaVuSans-30" x="63.623047"/>
      </g>
     </g>
    </g>
    <g id="xtick_5">
     <g id="line2d_9">
      <path d="M 443.875433 320.4 
L 443.875433 43.2 
" clip-path="url(#p3fb78d9b97)" style="fill: none; stroke: #b0b0b0; stroke-width: 0.8; stroke-linecap: square"/>
     </g>
     <g id="line2d_10">
      <g>
       <use xlink:href="#mad39d6ab7d" x="443.875433" y="320.4" style="stroke: #000000; stroke-width: 0.8"/>
      </g>
     </g>
     <g id="text_5">
      <!-- 80 -->
      <g transform="translate(437.512933 334.998438) scale(0.1 -0.1)">
       <defs>
        <path id="DejaVuSans-38" d="M 2034 2216 
Q 1584 2216 1326 1975 
Q 1069 1734 1069 1313 
Q 1069 891 1326 650 
Q 1584 409 2034 409 
Q 2484 409 2743 651 
Q 3003 894 3003 1313 
Q 3003 1734 2745 1975 
Q 2488 2216 2034 2216 
z
M 1403 2484 
Q 997 2584 770 2862 
Q 544 3141 544 3541 
Q 544 4100 942 4425 
Q 1341 4750 2034 4750 
Q 2731 4750 3128 4425 
Q 3525 4100 3525 3541 
Q 3525 3141 3298 2862 
Q 3072 2584 2669 2484 
Q 3125 2378 3379 2068 
Q 3634 1759 3634 1313 
Q 3634 634 3220 271 
Q 2806 -91 2034 -91 
Q 1263 -91 848 271 
Q 434 634 434 1313 
Q 434 1759 690 2068 
Q 947 2378 1403 2484 
z
M 1172 3481 
Q 1172 3119 1398 2916 
Q 1625 2713 2034 2713 
Q 2441 2713 2670 2916 
Q 2900 3119 2900 3481 
Q 2900 3844 2670 4047 
Q 2441 4250 2034 4250 
Q 1625 4250 1398 4047 
Q 1172 3844 1172 3481 
z
" transform="scale(0.015625)"/>
       </defs>
       <use xlink:href="#DejaVuSans-38"/>
       <use xlink:href="#DejaVuSans-30" x="63.623047"/>
      </g>
     </g>
    </g>
    <g id="xtick_6">
     <g id="line2d_11">
      <path d="M 508.235294 320.4 
L 508.235294 43.2 
" clip-path="url(#p3fb78d9b97)" style="fill: none; stroke: #b0b0b0; stroke-width: 0.8; stroke-linecap: square"/>
     </g>
     <g id="line2d_12">
      <g>
       <use xlink:href="#mad39d6ab7d" x="508.235294" y="320.4" style="stroke: #000000; stroke-width: 0.8"/>
      </g>
     </g>
     <g id="text_6">
      <!-- 100 -->
      <g transform="translate(498.691544 334.998438) scale(0.1 -0.1)">
       <defs>
        <path id="DejaVuSans-31" d="M 794 531 
L 1825 531 
L 1825 4091 
L 703 3866 
L 703 4441 
L 1819 4666 
L 2450 4666 
L 2450 531 
L 3481 531 
L 3481 0 
L 794 0 
L 794 531 
z
" transform="scale(0.015625)"/>
       </defs>
       <use xlink:href="#DejaVuSans-31"/>
       <use xlink:href="#DejaVuSans-30" x="63.623047"/>
       <use xlink:href="#DejaVuSans-30" x="127.246094"/>
      </g>
     </g>
    </g>
    <g id="text_7">
     <!-- Level [dB SPL] -->
     <g transform="translate(308.258272 348.676562) scale(0.1 -0.1)">
      <defs>
       <path id="DejaVuSans-4c" d="M 628 4666 
L 1259 4666 
L 1259 531 
L 3531 531 
L 3531 0 
L 628 0 
L 628 4666 
z
" transform="scale(0.015625)"/>
       <path id="DejaVuSans-65" d="M 3597 1894 
L 3597 1613 
L 953 1613 
Q 991 1019 1311 708 
Q 1631 397 2203 397 
Q 2534 397 2845 478 
Q 3156 559 3463 722 
L 3463 178 
Q 3153 47 2828 -22 
Q 2503 -91 2169 -91 
Q 1331 -91 842 396 
Q 353 884 353 1716 
Q 353 2575 817 3079 
Q 1281 3584 2069 3584 
Q 2775 3584 3186 3129 
Q 3597 2675 3597 1894 
z
M 3022 2063 
Q 3016 2534 2758 2815 
Q 2500 3097 2075 3097 
Q 1594 3097 1305 2825 
Q 1016 2553 972 2059 
L 3022 2063 
z
" transform="scale(0.015625)"/>
       <path id="DejaVuSans-76" d="M 191 3500 
L 800 3500 
L 1894 563 
L 2988 3500 
L 3597 3500 
L 2284 0 
L 1503 0 
L 191 3500 
z
" transform="scale(0.015625)"/>
       <path id="DejaVuSans-6c" d="M 603 4863 
L 1178 4863 
L 1178 0 
L 603 0 
L 603 4863 
z
" transform="scale(0.015625)"/>
       <path id="DejaVuSans-20" transform="scale(0.015625)"/>
       <path id="DejaVuSans-5b" d="M 550 4863 
L 1875 4863 
L 1875 4416 
L 1125 4416 
L 1125 -397 
L 1875 -397 
L 1875 -844 
L 550 -844 
L 550 4863 
z
" transform="scale(0.015625)"/>
       <path id="DejaVuSans-64" d="M 2906 2969 
L 2906 4863 
L 3481 4863 
L 3481 0 
L 2906 0 
L 2906 525 
Q 2725 213 2448 61 
Q 2172 -91 1784 -91 
Q 1150 -91 751 415 
Q 353 922 353 1747 
Q 353 2572 751 3078 
Q 1150 3584 1784 3584 
Q 2172 3584 2448 3432 
Q 2725 3281 2906 2969 
z
M 947 1747 
Q 947 1113 1208 752 
Q 1469 391 1925 391 
Q 2381 391 2643 752 
Q 2906 1113 2906 1747 
Q 2906 2381 2643 2742 
Q 2381 3103 1925 3103 
Q 1469 3103 1208 2742 
Q 947 2381 947 1747 
z
" transform="scale(0.015625)"/>
       <path id="DejaVuSans-42" d="M 1259 2228 
L 1259 519 
L 2272 519 
Q 2781 519 3026 730 
Q 3272 941 3272 1375 
Q 3272 1813 3026 2020 
Q 2781 2228 2272 2228 
L 1259 2228 
z
M 1259 4147 
L 1259 2741 
L 2194 2741 
Q 2656 2741 2882 2914 
Q 3109 3088 3109 3444 
Q 3109 3797 2882 3972 
Q 2656 4147 2194 4147 
L 1259 4147 
z
M 628 4666 
L 2241 4666 
Q 2963 4666 3353 4366 
Q 3744 4066 3744 3513 
Q 3744 3084 3544 2831 
Q 3344 2578 2956 2516 
Q 3422 2416 3680 2098 
Q 3938 1781 3938 1306 
Q 3938 681 3513 340 
Q 3088 0 2303 0 
L 628 0 
L 628 4666 
z
" transform="scale(0.015625)"/>
       <path id="DejaVuSans-53" d="M 3425 4513 
L 3425 3897 
Q 3066 4069 2747 4153 
Q 2428 4238 2131 4238 
Q 1616 4238 1336 4038 
Q 1056 3838 1056 3469 
Q 1056 3159 1242 3001 
Q 1428 2844 1947 2747 
L 2328 2669 
Q 3034 2534 3370 2195 
Q 3706 1856 3706 1288 
Q 3706 609 3251 259 
Q 2797 -91 1919 -91 
Q 1588 -91 1214 -16 
Q 841 59 441 206 
L 441 856 
Q 825 641 1194 531 
Q 1563 422 1919 422 
Q 2459 422 2753 634 
Q 3047 847 3047 1241 
Q 3047 1584 2836 1778 
Q 2625 1972 2144 2069 
L 1759 2144 
Q 1053 2284 737 2584 
Q 422 2884 422 3419 
Q 422 4038 858 4394 
Q 1294 4750 2059 4750 
Q 2388 4750 2728 4690 
Q 3069 4631 3425 4513 
z
" transform="scale(0.015625)"/>
       <path id="DejaVuSans-50" d="M 1259 4147 
L 1259 2394 
L 2053 2394 
Q 2494 2394 2734 2622 
Q 2975 2850 2975 3272 
Q 2975 3691 2734 3919 
Q 2494 4147 2053 4147 
L 1259 4147 
z
M 628 4666 
L 2053 4666 
Q 2838 4666 3239 4311 
Q 3641 3956 3641 3272 
Q 3641 2581 3239 2228 
Q 2838 1875 2053 1875 
L 1259 1875 
L 1259 0 
L 628 0 
L 628 4666 
z
" transform="scale(0.015625)"/>
       <path id="DejaVuSans-5d" d="M 1947 4863 
L 1947 -844 
L 622 -844 
L 622 -397 
L 1369 -397 
L 1369 4416 
L 622 4416 
L 622 4863 
L 1947 4863 
z
" transform="scale(0.015625)"/>
      </defs>
      <use xlink:href="#DejaVuSans-4c"/>
      <use xlink:href="#DejaVuSans-65" x="53.962891"/>
      <use xlink:href="#DejaVuSans-76" x="115.486328"/>
      <use xlink:href="#DejaVuSans-65" x="174.666016"/>
      <use xlink:href="#DejaVuSans-6c" x="236.189453"/>
      <use xlink:href="#DejaVuSans-20" x="263.972656"/>
      <use xlink:href="#DejaVuSans-5b" x="295.759766"/>
      <use xlink:href="#DejaVuSans-64" x="334.773438"/>
      <use xlink:href="#DejaVuSans-42" x="398.25"/>
      <use xlink:href="#DejaVuSans-20" x="466.853516"/>
      <use xlink:href="#DejaVuSans-53" x="498.640625"/>
      <use xlink:href="#DejaVuSans-50" x="562.117188"/>
      <use xlink:href="#DejaVuSans-4c" x="622.419922"/>
      <use xlink:href="#DejaVuSans-5d" x="678.132812"/>
     </g>
    </g>
   </g>
   <g id="matplotlib.axis_2">
    <g id="ytick_1">
     <g id="line2d_13">
      <path d="M 180 310.133333 
L 508.235294 310.133333 
" clip-path="url(#p3fb78d9b97)" style="fill: none; stroke: #b0b0b0; stroke-width: 0.8; stroke-linecap: square"/>
     </g>
     <g id="line2d_14">
      <defs>
       <path id="mcdea6d373c" d="M 0 0 
L -3.5 0 
" style="stroke: #000000; stroke-width: 0.8"/>
      </defs>
      <g>
       <use xlink:href="#mcdea6d373c" x="180" y="310.133333" style="stroke: #000000; stroke-width: 0.8"/>
      </g>
     </g>
     <g id="text_8">
      <!-- 0 -->
      <g transform="translate(166.6375 313.932552) scale(0.1 -0.1)">
       <use xlink:href="#DejaVuSans-30"/>
      </g>
     </g>
    </g>
    <g id="ytick_2">
     <g id="line2d_15">
      <path d="M 180 258.8 
L 508.235294 258.8 
" clip-path="url(#p3fb78d9b97)" style="fill: none; stroke: #b0b0b0; stroke-width: 0.8; stroke-linecap: square"/>
     </g>
     <g id="line2d_16">
      <g>
       <use xlink:href="#mcdea6d373c" x="180" y="258.8" style="stroke: #000000; stroke-width: 0.8"/>
      </g>
     </g>
     <g id="text_9">
      <!-- 10 -->
      <g transform="translate(160.275 262.599219) scale(0.1 -0.1)">
       <use xlink:href="#DejaVuSans-31"/>
       <use xlink:href="#DejaVuSans-30" x="63.623047"/>
      </g>
     </g>
    </g>
    <g id="ytick_3">
     <g id="line2d_17">
      <path d="M 180 207.466667 
L 508.235294 207.466667 
" clip-path="url(#p3fb78d9b97)" style="fill: none; stroke: #b0b0b0; stroke-width: 0.8; stroke-linecap: square"/>
     </g>
     <g id="line2d_18">
      <g>
       <use xlink:href="#mcdea6d373c" x="180" y="207.466667" style="stroke: #000000; stroke-width: 0.8"/>
      </g>
     </g>
     <g id="text_10">
      <!-- 20 -->
      <g transform="translate(160.275 211.265885) scale(0.1 -0.1)">
       <use xlink:href="#DejaVuSans-32"/>
       <use xlink:href="#DejaVuSans-30" x="63.623047"/>
      </g>
     </g>
    </g>
    <g id="ytick_4">
     <g id="line2d_19">
      <path d="M 180 156.133333 
L 508.235294 156.133333 
" clip-path="url(#p3fb78d9b97)" style="fill: none; stroke: #b0b0b0; stroke-width: 0.8; stroke-linecap: square"/>
     </g>
     <g id="line2d_20">
      <g>
       <use xlink:href="#mcdea6d373c" x="180" y="156.133333" style="stroke: #000000; stroke-width: 0.8"/>
      </g>
     </g>
     <g id="text_11">
      <!-- 30 -->
      <g transform="translate(160.275 159.932552) scale(0.1 -0.1)">
       <defs>
        <path id="DejaVuSans-33" d="M 2597 2516 
Q 3050 2419 3304 2112 
Q 3559 1806 3559 1356 
Q 3559 666 3084 287 
Q 2609 -91 1734 -91 
Q 1441 -91 1130 -33 
Q 819 25 488 141 
L 488 750 
Q 750 597 1062 519 
Q 1375 441 1716 441 
Q 2309 441 2620 675 
Q 2931 909 2931 1356 
Q 2931 1769 2642 2001 
Q 2353 2234 1838 2234 
L 1294 2234 
L 1294 2753 
L 1863 2753 
Q 2328 2753 2575 2939 
Q 2822 3125 2822 3475 
Q 2822 3834 2567 4026 
Q 2313 4219 1838 4219 
Q 1578 4219 1281 4162 
Q 984 4106 628 3988 
L 628 4550 
Q 988 4650 1302 4700 
Q 1616 4750 1894 4750 
Q 2613 4750 3031 4423 
Q 3450 4097 3450 3541 
Q 3450 3153 3228 2886 
Q 3006 2619 2597 2516 
z
" transform="scale(0.015625)"/>
       </defs>
       <use xlink:href="#DejaVuSans-33"/>
       <use xlink:href="#DejaVuSans-30" x="63.623047"/>
      </g>
     </g>
    </g>
    <g id="ytick_5">
     <g id="line2d_21">
      <path d="M 180 104.8 
L 508.235294 104.8 
" clip-path="url(#p3fb78d9b97)" style="fill: none; stroke: #b0b0b0; stroke-width: 0.8; stroke-linecap: square"/>
     </g>
     <g id="line2d_22">
      <g>
       <use xlink:href="#mcdea6d373c" x="180" y="104.8" style="stroke: #000000; stroke-width: 0.8"/>
      </g>
     </g>
     <g id="text_12">
      <!-- 40 -->
      <g transform="translate(160.275 108.599219) scale(0.1 -0.1)">
       <use xlink:href="#DejaVuSans-34"/>
       <use xlink:href="#DejaVuSans-30" x="63.623047"/>
      </g>
     </g>
    </g>
    <g id="ytick_6">
     <g id="line2d_23">
      <path d="M 180 53.466667 
L 508.235294 53.466667 
" clip-path="url(#p3fb78d9b97)" style="fill: none; stroke: #b0b0b0; stroke-width: 0.8; stroke-linecap: square"/>
     </g>
     <g id="line2d_24">
      <g>
       <use xlink:href="#mcdea6d373c" x="180" y="53.466667" style="stroke: #000000; stroke-width: 0.8"/>
      </g>
     </g>
     <g id="text_13">
      <!-- 50 -->
      <g transform="translate(160.275 57.265885) scale(0.1 -0.1)">
       <defs>
        <path id="DejaVuSans-35" d="M 691 4666 
L 3169 4666 
L 3169 4134 
L 1269 4134 
L 1269 2991 
Q 1406 3038 1543 3061 
Q 1681 3084 1819 3084 
Q 2600 3084 3056 2656 
Q 3513 2228 3513 1497 
Q 3513 744 3044 326 
Q 2575 -91 1722 -91 
Q 1428 -91 1123 -41 
Q 819 9 494 109 
L 494 744 
Q 775 591 1075 516 
Q 1375 441 1709 441 
Q 2250 441 2565 725 
Q 2881 1009 2881 1497 
Q 2881 1984 2565 2268 
Q 2250 2553 1709 2553 
Q 1456 2553 1204 2497 
Q 953 2441 691 2322 
L 691 4666 
z
" transform="scale(0.015625)"/>
       </defs>
       <use xlink:href="#DejaVuSans-35"/>
       <use xlink:href="#DejaVuSans-30" x="63.623047"/>
      </g>
     </g>
    </g>
    <g id="text_14">
     <!-- Categorical Units -->
     <g transform="translate(154.195312 224.64375) rotate(-90) scale(0.1 -0.1)">
      <defs>
       <path id="DejaVuSans-43" d="M 4122 4306 
L 4122 3641 
Q 3803 3938 3442 4084 
Q 3081 4231 2675 4231 
Q 1875 4231 1450 3742 
Q 1025 3253 1025 2328 
Q 1025 1406 1450 917 
Q 1875 428 2675 428 
Q 3081 428 3442 575 
Q 3803 722 4122 1019 
L 4122 359 
Q 3791 134 3420 21 
Q 3050 -91 2638 -91 
Q 1578 -91 968 557 
Q 359 1206 359 2328 
Q 359 3453 968 4101 
Q 1578 4750 2638 4750 
Q 3056 4750 3426 4639 
Q 3797 4528 4122 4306 
z
" transform="scale(0.015625)"/>
       <path id="DejaVuSans-61" d="M 2194 1759 
Q 1497 1759 1228 1600 
Q 959 1441 959 1056 
Q 959 750 1161 570 
Q 1363 391 1709 391 
Q 2188 391 2477 730 
Q 2766 1069 2766 1631 
L 2766 1759 
L 2194 1759 
z
M 3341 1997 
L 3341 0 
L 2766 0 
L 2766 531 
Q 2569 213 2275 61 
Q 1981 -91 1556 -91 
Q 1019 -91 701 211 
Q 384 513 384 1019 
Q 384 1609 779 1909 
Q 1175 2209 1959 2209 
L 2766 2209 
L 2766 2266 
Q 2766 2663 2505 2880 
Q 2244 3097 1772 3097 
Q 1472 3097 1187 3025 
Q 903 2953 641 2809 
L 641 3341 
Q 956 3463 1253 3523 
Q 1550 3584 1831 3584 
Q 2591 3584 2966 3190 
Q 3341 2797 3341 1997 
z
" transform="scale(0.015625)"/>
       <path id="DejaVuSans-74" d="M 1172 4494 
L 1172 3500 
L 2356 3500 
L 2356 3053 
L 1172 3053 
L 1172 1153 
Q 1172 725 1289 603 
Q 1406 481 1766 481 
L 2356 481 
L 2356 0 
L 1766 0 
Q 1100 0 847 248 
Q 594 497 594 1153 
L 594 3053 
L 172 3053 
L 172 3500 
L 594 3500 
L 594 4494 
L 1172 4494 
z
" transform="scale(0.015625)"/>
       <path id="DejaVuSans-67" d="M 2906 1791 
Q 2906 2416 2648 2759 
Q 2391 3103 1925 3103 
Q 1463 3103 1205 2759 
Q 947 2416 947 1791 
Q 947 1169 1205 825 
Q 1463 481 1925 481 
Q 2391 481 2648 825 
Q 2906 1169 2906 1791 
z
M 3481 434 
Q 3481 -459 3084 -895 
Q 2688 -1331 1869 -1331 
Q 1566 -1331 1297 -1286 
Q 1028 -1241 775 -1147 
L 775 -588 
Q 1028 -725 1275 -790 
Q 1522 -856 1778 -856 
Q 2344 -856 2625 -561 
Q 2906 -266 2906 331 
L 2906 616 
Q 2728 306 2450 153 
Q 2172 0 1784 0 
Q 1141 0 747 490 
Q 353 981 353 1791 
Q 353 2603 747 3093 
Q 1141 3584 1784 3584 
Q 2172 3584 2450 3431 
Q 2728 3278 2906 2969 
L 2906 3500 
L 3481 3500 
L 3481 434 
z
" transform="scale(0.015625)"/>
       <path id="DejaVuSans-6f" d="M 1959 3097 
Q 1497 3097 1228 2736 
Q 959 2375 959 1747 
Q 959 1119 1226 758 
Q 1494 397 1959 397 
Q 2419 397 2687 759 
Q 2956 1122 2956 1747 
Q 2956 2369 2687 2733 
Q 2419 3097 1959 3097 
z
M 1959 3584 
Q 2709 3584 3137 3096 
Q 3566 2609 3566 1747 
Q 3566 888 3137 398 
Q 2709 -91 1959 -91 
Q 1206 -91 779 398 
Q 353 888 353 1747 
Q 353 2609 779 3096 
Q 1206 3584 1959 3584 
z
" transform="scale(0.015625)"/>
       <path id="DejaVuSans-72" d="M 2631 2963 
Q 2534 3019 2420 3045 
Q 2306 3072 2169 3072 
Q 1681 3072 1420 2755 
Q 1159 2438 1159 1844 
L 1159 0 
L 581 0 
L 581 3500 
L 1159 3500 
L 1159 2956 
Q 1341 3275 1631 3429 
Q 1922 3584 2338 3584 
Q 2397 3584 2469 3576 
Q 2541 3569 2628 3553 
L 2631 2963 
z
" transform="scale(0.015625)"/>
       <path id="DejaVuSans-69" d="M 603 3500 
L 1178 3500 
L 1178 0 
L 603 0 
L 603 3500 
z
M 603 4863 
L 1178 4863 
L 1178 4134 
L 603 4134 
L 603 4863 
z
" transform="scale(0.015625)"/>
       <path id="DejaVuSans-63" d="M 3122 3366 
L 3122 2828 
Q 2878 2963 2633 3030 
Q 2388 3097 2138 3097 
Q 1578 3097 1268 2742 
Q 959 2388 959 1747 
Q 959 1106 1268 751 
Q 1578 397 2138 397 
Q 2388 397 2633 464 
Q 2878 531 3122 666 
L 3122 134 
Q 2881 22 2623 -34 
Q 2366 -91 2075 -91 
Q 1284 -91 818 406 
Q 353 903 353 1747 
Q 353 2603 823 3093 
Q 1294 3584 2113 3584 
Q 2378 3584 2631 3529 
Q 2884 3475 3122 3366 
z
" transform="scale(0.015625)"/>
       <path id="DejaVuSans-55" d="M 556 4666 
L 1191 4666 
L 1191 1831 
Q 1191 1081 1462 751 
Q 1734 422 2344 422 
Q 2950 422 3222 751 
Q 3494 1081 3494 1831 
L 3494 4666 
L 4128 4666 
L 4128 1753 
Q 4128 841 3676 375 
Q 3225 -91 2344 -91 
Q 1459 -91 1007 375 
Q 556 841 556 1753 
L 556 4666 
z
" transform="scale(0.015625)"/>
       <path id="DejaVuSans-6e" d="M 3513 2113 
L 3513 0 
L 2938 0 
L 2938 2094 
Q 2938 2591 2744 2837 
Q 2550 3084 2163 3084 
Q 1697 3084 1428 2787 
Q 1159 2491 1159 1978 
L 1159 0 
L 581 0 
L 581 3500 
L 1159 3500 
L 1159 2956 
Q 1366 3272 1645 3428 
Q 1925 3584 2291 3584 
Q 2894 3584 3203 3211 
Q 3513 2838 3513 2113 
z
" transform="scale(0.015625)"/>
       <path id="DejaVuSans-73" d="M 2834 3397 
L 2834 2853 
Q 2591 2978 2328 3040 
Q 2066 3103 1784 3103 
Q 1356 3103 1142 2972 
Q 928 2841 928 2578 
Q 928 2378 1081 2264 
Q 1234 2150 1697 2047 
L 1894 2003 
Q 2506 1872 2764 1633 
Q 3022 1394 3022 966 
Q 3022 478 2636 193 
Q 2250 -91 1575 -91 
Q 1294 -91 989 -36 
Q 684 19 347 128 
L 347 722 
Q 666 556 975 473 
Q 1284 391 1588 391 
Q 1994 391 2212 530 
Q 2431 669 2431 922 
Q 2431 1156 2273 1281 
Q 2116 1406 1581 1522 
L 1381 1569 
Q 847 1681 609 1914 
Q 372 2147 372 2553 
Q 372 3047 722 3315 
Q 1072 3584 1716 3584 
Q 2034 3584 2315 3537 
Q 2597 3491 2834 3397 
z
" transform="scale(0.015625)"/>
      </defs>
      <use xlink:href="#DejaVuSans-43"/>
      <use xlink:href="#DejaVuSans-61" x="69.824219"/>
      <use xlink:href="#DejaVuSans-74" x="131.103516"/>
      <use xlink:href="#DejaVuSans-65" x="170.3125"/>
      <use xlink:href="#DejaVuSans-67" x="231.835938"/>
      <use xlink:href="#DejaVuSans-6f" x="295.3125"/>
      <use xlink:href="#DejaVuSans-72" x="356.494141"/>
      <use xlink:href="#DejaVuSans-69" x="397.607422"/>
      <use xlink:href="#DejaVuSans-63" x="425.390625"/>
      <use xlink:href="#DejaVuSans-61" x="480.371094"/>
      <use xlink:href="#DejaVuSans-6c" x="541.650391"/>
      <use xlink:href="#DejaVuSans-20" x="569.433594"/>
      <use xlink:href="#DejaVuSans-55" x="601.220703"/>
      <use xlink:href="#DejaVuSans-6e" x="674.414062"/>
      <use xlink:href="#DejaVuSans-69" x="737.792969"/>
      <use xlink:href="#DejaVuSans-74" x="765.576172"/>
      <use xlink:href="#DejaVuSans-73" x="804.785156"/>
     </g>
    </g>
   </g>
   <g id="line2d_25">
    <path d="M 154.256055 181.8 
L 572.595156 181.8 
" clip-path="url(#p3fb78d9b97)" style="fill: none; stroke-dasharray: 1.5,2.475; stroke-dashoffset: 0; stroke: #808080; stroke-width: 1.5"/>
   </g>
   <g id="line2d_26">
    <path d="M 459.965398 361 
L 459.965398 -1 
" clip-path="url(#p3fb78d9b97)" style="fill: none; stroke-dasharray: 5.55,2.4; stroke-dashoffset: 0; stroke: #ff0000; stroke-opacity: 0.3; stroke-width: 1.5"/>
   </g>
   <g id="line2d_27">
    <path d="M 232.308077 310.133333 
L 235.09522 308.016377 
L 237.882364 305.89942 
L 240.669507 303.782463 
L 243.456651 301.665506 
L 246.243794 299.548549 
L 249.030938 297.431592 
L 251.818081 295.314636 
L 254.605225 293.197679 
L 257.392368 291.080722 
L 260.179511 288.963765 
L 262.966655 286.846808 
L 265.753798 284.729851 
L 268.540942 282.612895 
L 271.328085 280.495938 
L 274.115229 278.378981 
L 276.902372 276.262024 
L 279.689516 274.145067 
L 282.476659 272.028111 
L 285.263803 269.911154 
L 288.050946 267.794197 
L 290.83809 265.67724 
L 293.625233 263.560283 
L 296.412376 261.443326 
L 299.19952 259.32637 
L 301.986663 257.209413 
L 304.773807 255.092456 
L 307.56095 252.975499 
L 310.348094 250.858542 
L 313.135237 248.741586 
L 315.922381 246.624629 
L 318.709524 244.507672 
L 321.496668 242.390715 
L 324.283811 240.273758 
L 327.070955 238.156801 
L 329.858098 236.039845 
L 332.645241 233.922888 
L 335.432385 231.802767 
L 338.219528 229.66751 
L 341.006672 227.515624 
L 343.793815 225.346716 
L 346.580959 223.160375 
L 349.368102 220.956173 
L 352.155246 218.733667 
L 354.942389 216.492391 
L 357.729533 214.231863 
L 360.516676 211.951578 
L 363.303819 209.651007 
L 366.090963 207.329601 
L 368.878106 204.986782 
L 371.66525 202.621947 
L 374.452393 200.234463 
L 377.239537 197.823667 
L 380.02668 195.388862 
L 382.813824 192.929316 
L 385.600967 190.44426 
L 388.388111 187.932882 
L 391.175254 185.394328 
L 393.962398 182.827697 
L 396.749541 180.232036 
L 399.536684 177.606336 
L 402.323828 174.94953 
L 405.110971 172.260486 
L 407.898115 169.538 
L 410.685258 166.780794 
L 413.472402 163.987504 
L 416.259545 161.156674 
L 419.046689 158.28675 
L 421.833832 155.376066 
L 424.620976 152.422834 
L 427.408119 149.425132 
L 430.195263 146.380887 
L 432.982406 143.287863 
L 435.769549 140.143637 
L 438.556693 136.945579 
L 441.343836 133.690824 
L 444.13098 130.37627 
L 446.918123 127.032374 
L 449.705267 123.688479 
L 452.49241 120.344583 
L 455.279554 117.000687 
L 458.066697 113.656791 
L 460.853841 110.312895 
L 463.640984 106.969 
L 466.428128 103.625104 
L 469.215271 100.281208 
L 472.002414 96.937312 
L 474.789558 93.593416 
L 477.576701 90.249521 
L 480.363845 86.905625 
L 483.150988 83.561729 
L 485.938132 80.217833 
L 488.725275 76.873937 
L 491.512419 73.530042 
L 494.299562 70.186146 
L 497.086706 66.84225 
L 499.873849 63.498354 
L 502.660992 60.154458 
L 505.448136 56.810562 
L 508.235279 53.466667 
" clip-path="url(#p3fb78d9b97)" style="fill: none; stroke: #1f77b4; stroke-width: 1.5; stroke-linecap: square"/>
   </g>
   <g id="line2d_28">
    <path d="M 241.766628 310.133333 
L 244.086985 308.452236 
L 246.407343 306.771138 
L 248.7277 305.090041 
L 251.048058 303.408943 
L 253.368415 301.727845 
L 255.688773 300.046748 
L 258.00913 298.36565 
L 260.329488 296.684553 
L 262.649845 295.003455 
L 264.970203 293.322358 
L 267.29056 291.64126 
L 269.610918 289.960162 
L 271.931276 288.279065 
L 274.251633 286.597967 
L 276.571991 284.91687 
L 278.892348 283.235772 
L 281.212706 281.554675 
L 283.533063 279.873577 
L 285.853421 278.19248 
L 288.173778 276.511382 
L 290.494136 274.830284 
L 292.814493 273.149187 
L 295.134851 271.468089 
L 297.455208 269.786992 
L 299.775566 268.105894 
L 302.095923 266.424797 
L 304.416281 264.743699 
L 306.736639 263.062601 
L 309.056996 261.381504 
L 311.377354 259.700406 
L 313.697711 258.019309 
L 316.018069 256.338211 
L 318.338426 254.657114 
L 320.658784 252.976016 
L 322.979141 251.294918 
L 325.299499 249.613821 
L 327.619856 247.932723 
L 329.940214 246.251626 
L 332.260571 244.570528 
L 334.580929 242.889431 
L 336.901286 241.208333 
L 339.221644 239.527235 
L 341.542002 237.846138 
L 343.862359 236.16504 
L 346.182717 234.483943 
L 348.503074 232.80247 
L 350.823432 231.107696 
L 353.143789 229.392735 
L 355.464147 227.656847 
L 357.784504 225.899247 
L 360.104862 224.119099 
L 362.425219 222.315513 
L 364.745577 220.487538 
L 367.065934 218.634156 
L 369.386292 216.754279 
L 371.706649 214.846735 
L 374.027007 212.910267 
L 376.347365 210.943517 
L 378.667722 208.945019 
L 380.98808 206.913184 
L 383.308437 204.846285 
L 385.628795 202.742443 
L 387.949152 200.599601 
L 390.26951 198.415508 
L 392.589867 196.187685 
L 394.910225 193.913396 
L 397.230582 191.589605 
L 399.55094 189.212933 
L 401.871297 186.779596 
L 404.191655 184.285337 
L 406.512012 181.725336 
L 408.83237 179.094105 
L 411.152728 176.385344 
L 413.473085 173.591767 
L 415.793443 170.70487 
L 418.1138 167.714626 
L 420.434158 164.609069 
L 422.754515 161.373733 
L 425.074873 157.990844 
L 427.39523 154.438161 
L 429.715588 150.687219 
L 432.035945 146.700582 
L 434.356303 142.427302 
L 436.67666 137.794908 
L 438.997018 132.694016 
L 441.317375 127.088063 
L 443.637733 121.424879 
L 445.958091 115.761695 
L 448.278448 110.09851 
L 450.598806 104.435326 
L 452.919163 98.772142 
L 455.239521 93.108957 
L 457.559878 87.445773 
L 459.880236 81.782588 
L 462.200593 76.119404 
L 464.520951 70.45622 
L 466.841308 64.793035 
L 469.161666 59.129851 
L 471.482023 53.466667 
" clip-path="url(#p3fb78d9b97)" style="fill: none; stroke-dasharray: 5.55,2.4; stroke-dashoffset: 0; stroke: #ff7f0e; stroke-width: 1.5"/>
   </g>
   <g id="patch_3">
    <path d="M 180 320.4 
L 180 43.2 
" style="fill: none; stroke: #000000; stroke-width: 0.8; stroke-linejoin: miter; stroke-linecap: square"/>
   </g>
   <g id="patch_4">
    <path d="M 508.235294 320.4 
L 508.235294 43.2 
" style="fill: none; stroke: #000000; stroke-width: 0.8; stroke-linejoin: miter; stroke-linecap: square"/>
   </g>
   <g id="patch_5">
    <path d="M 180 320.4 
L 508.235294 320.4 
" style="fill: none; stroke: #000000; stroke-width: 0.8; stroke-linejoin: miter; stroke-linecap: square"/>
   </g>
   <g id="patch_6">
    <path d="M 180 43.2 
L 508.235294 43.2 
" style="fill: none; stroke: #000000; stroke-width: 0.8; stroke-linejoin: miter; stroke-linecap: square"/>
   </g>
   <g id="text_15">
    <!--  Block: 0 -->
    <g transform="translate(318.237022 37.2) scale(0.12 -0.12)">
     <defs>
      <path id="DejaVuSans-6b" d="M 581 4863 
L 1159 4863 
L 1159 1991 
L 2875 3500 
L 3609 3500 
L 1753 1863 
L 3688 0 
L 2938 0 
L 1159 1709 
L 1159 0 
L 581 0 
L 581 4863 
z
" transform="scale(0.015625)"/>
      <path id="DejaVuSans-3a" d="M 750 794 
L 1409 794 
L 1409 0 
L 750 0 
L 750 794 
z
M 750 3309 
L 1409 3309 
L 1409 2516 
L 750 2516 
L 750 3309 
z
" transform="scale(0.015625)"/>
     </defs>
     <use xlink:href="#DejaVuSans-20"/>
     <use xlink:href="#DejaVuSans-42" x="31.787109"/>
     <use xlink:href="#DejaVuSans-6c" x="100.390625"/>
     <use xlink:href="#DejaVuSans-6f" x="128.173828"/>
     <use xlink:href="#DejaVuSans-63" x="189.355469"/>
     <use xlink:href="#DejaVuSans-6b" x="244.335938"/>
     <use xlink:href="#DejaVuSans-3a" x="302.246094"/>
     <use xlink:href="#DejaVuSans-20" x="335.9375"/>
     <use xlink:href="#DejaVuSans-30" x="367.724609"/>
    </g>
   </g>
   <g id="legend_1">
    <g id="patch_7">
     <path d="M 187 95.5125 
L 318.2 95.5125 
Q 320.2 95.5125 320.2 93.5125 
L 320.2 50.2 
Q 320.2 48.2 318.2 48.2 
L 187 48.2 
Q 185 48.2 185 50.2 
L 185 93.5125 
Q 185 95.5125 187 95.5125 
z
" style="fill: #ffffff; opacity: 0.8; stroke: #cccccc; stroke-linejoin: miter"/>
    </g>
    <g id="PathCollection_2">
     <g>
      <use xlink:href="#m9349b8de03" x="199" y="57.173437" style="stroke: #000000"/>
     </g>
    </g>
    <g id="text_16">
     <!-- Data -->
     <g transform="translate(217 59.798437) scale(0.1 -0.1)">
      <defs>
       <path id="DejaVuSans-44" d="M 1259 4147 
L 1259 519 
L 2022 519 
Q 2988 519 3436 956 
Q 3884 1394 3884 2338 
Q 3884 3275 3436 3711 
Q 2988 4147 2022 4147 
L 1259 4147 
z
M 628 4666 
L 1925 4666 
Q 3281 4666 3915 4102 
Q 4550 3538 4550 2338 
Q 4550 1131 3912 565 
Q 3275 0 1925 0 
L 628 0 
L 628 4666 
z
" transform="scale(0.015625)"/>
      </defs>
      <use xlink:href="#DejaVuSans-44"/>
      <use xlink:href="#DejaVuSans-61" x="77.001953"/>
      <use xlink:href="#DejaVuSans-74" x="138.28125"/>
      <use xlink:href="#DejaVuSans-61" x="177.490234"/>
     </g>
    </g>
    <g id="line2d_29">
     <path d="M 189 70.976562 
L 199 70.976562 
L 209 70.976562 
" style="fill: none; stroke: #1f77b4; stroke-width: 1.5; stroke-linecap: square"/>
    </g>
    <g id="text_17">
     <!-- Artc e:0.2816 -->
     <g transform="translate(217 74.476562) scale(0.1 -0.1)">
      <defs>
       <path id="DejaVuSans-41" d="M 2188 4044 
L 1331 1722 
L 3047 1722 
L 2188 4044 
z
M 1831 4666 
L 2547 4666 
L 4325 0 
L 3669 0 
L 3244 1197 
L 1141 1197 
L 716 0 
L 50 0 
L 1831 4666 
z
" transform="scale(0.015625)"/>
       <path id="DejaVuSans-2e" d="M 684 794 
L 1344 794 
L 1344 0 
L 684 0 
L 684 794 
z
" transform="scale(0.015625)"/>
      </defs>
      <use xlink:href="#DejaVuSans-41"/>
      <use xlink:href="#DejaVuSans-72" x="68.408203"/>
      <use xlink:href="#DejaVuSans-74" x="109.521484"/>
      <use xlink:href="#DejaVuSans-63" x="148.730469"/>
      <use xlink:href="#DejaVuSans-20" x="203.710938"/>
      <use xlink:href="#DejaVuSans-65" x="235.498047"/>
      <use xlink:href="#DejaVuSans-3a" x="297.021484"/>
      <use xlink:href="#DejaVuSans-30" x="330.712891"/>
      <use xlink:href="#DejaVuSans-2e" x="394.335938"/>
      <use xlink:href="#DejaVuSans-32" x="426.123047"/>
      <use xlink:href="#DejaVuSans-38" x="489.746094"/>
      <use xlink:href="#DejaVuSans-31" x="553.369141"/>
      <use xlink:href="#DejaVuSans-36" x="616.992188"/>
     </g>
    </g>
    <g id="line2d_30">
     <path d="M 189 85.654687 
L 199 85.654687 
L 209 85.654687 
" style="fill: none; stroke-dasharray: 5.55,2.4; stroke-dashoffset: 0; stroke: #ff7f0e; stroke-width: 1.5"/>
    </g>
    <g id="text_18">
     <!-- NEL_BTUX e:0.2151 -->
     <g transform="translate(217 89.154687) scale(0.1 -0.1)">
      <defs>
       <path id="DejaVuSans-4e" d="M 628 4666 
L 1478 4666 
L 3547 763 
L 3547 4666 
L 4159 4666 
L 4159 0 
L 3309 0 
L 1241 3903 
L 1241 0 
L 628 0 
L 628 4666 
z
" transform="scale(0.015625)"/>
       <path id="DejaVuSans-45" d="M 628 4666 
L 3578 4666 
L 3578 4134 
L 1259 4134 
L 1259 2753 
L 3481 2753 
L 3481 2222 
L 1259 2222 
L 1259 531 
L 3634 531 
L 3634 0 
L 628 0 
L 628 4666 
z
" transform="scale(0.015625)"/>
       <path id="DejaVuSans-5f" d="M 3263 -1063 
L 3263 -1509 
L -63 -1509 
L -63 -1063 
L 3263 -1063 
z
" transform="scale(0.015625)"/>
       <path id="DejaVuSans-54" d="M -19 4666 
L 3928 4666 
L 3928 4134 
L 2272 4134 
L 2272 0 
L 1638 0 
L 1638 4134 
L -19 4134 
L -19 4666 
z
" transform="scale(0.015625)"/>
       <path id="DejaVuSans-58" d="M 403 4666 
L 1081 4666 
L 2241 2931 
L 3406 4666 
L 4084 4666 
L 2584 2425 
L 4184 0 
L 3506 0 
L 2194 1984 
L 872 0 
L 191 0 
L 1856 2491 
L 403 4666 
z
" transform="scale(0.015625)"/>
      </defs>
      <use xlink:href="#DejaVuSans-4e"/>
      <use xlink:href="#DejaVuSans-45" x="74.804688"/>
      <use xlink:href="#DejaVuSans-4c" x="137.988281"/>
      <use xlink:href="#DejaVuSans-5f" x="193.701172"/>
      <use xlink:href="#DejaVuSans-42" x="243.701172"/>
      <use xlink:href="#DejaVuSans-54" x="312.304688"/>
      <use xlink:href="#DejaVuSans-55" x="373.388672"/>
      <use xlink:href="#DejaVuSans-58" x="446.582031"/>
      <use xlink:href="#DejaVuSans-20" x="515.087891"/>
      <use xlink:href="#DejaVuSans-65" x="546.875"/>
      <use xlink:href="#DejaVuSans-3a" x="608.398438"/>
      <use xlink:href="#DejaVuSans-30" x="642.089844"/>
      <use xlink:href="#DejaVuSans-2e" x="705.712891"/>
      <use xlink:href="#DejaVuSans-32" x="737.5"/>
      <use xlink:href="#DejaVuSans-31" x="801.123047"/>
      <use xlink:href="#DejaVuSans-35" x="864.746094"/>
      <use xlink:href="#DejaVuSans-31" x="928.369141"/>
     </g>
    </g>
   </g>
  </g>
  <g id="axes_2">
   <g id="patch_8">
    <path d="M 573.882353 320.4 
L 902.117647 320.4 
L 902.117647 43.2 
L 573.882353 43.2 
z
" style="fill: #ffffff"/>
   </g>
   <g id="PathCollection_3">
    <g clip-path="url(#p8237beac39)">
     <use xlink:href="#m9349b8de03" x="821.66782" y="156.133333" style="stroke: #000000"/>
     <use xlink:href="#m9349b8de03" x="853.847751" y="53.466667" style="stroke: #000000"/>
     <use xlink:href="#m9349b8de03" x="773.397924" y="258.8" style="stroke: #000000"/>
     <use xlink:href="#m9349b8de03" x="725.128028" y="258.8" style="stroke: #000000"/>
     <use xlink:href="#m9349b8de03" x="676.858131" y="284.466667" style="stroke: #000000"/>
     <use xlink:href="#m9349b8de03" x="628.588235" y="310.133333" style="stroke: #000000"/>
     <use xlink:href="#m9349b8de03" x="644.678201" y="284.466667" style="stroke: #000000"/>
     <use xlink:href="#m9349b8de03" x="690.179657" y="258.8" style="stroke: #000000"/>
     <use xlink:href="#m9349b8de03" x="826.685315" y="53.466667" style="stroke: #000000"/>
     <use xlink:href="#m9349b8de03" x="735.681758" y="258.8" style="stroke: #000000"/>
     <use xlink:href="#m9349b8de03" x="781.183536" y="207.466667" style="stroke: #000000"/>
     <use xlink:href="#m9349b8de03" x="644.677879" y="258.8" style="stroke: #000000"/>
     <use xlink:href="#m9349b8de03" x="796.452913" y="207.466667" style="stroke: #000000"/>
     <use xlink:href="#m9349b8de03" x="703.808502" y="258.8" style="stroke: #000000"/>
     <use xlink:href="#m9349b8de03" x="842.77528" y="53.466667" style="stroke: #000000"/>
     <use xlink:href="#m9349b8de03" x="657.486457" y="258.8" style="stroke: #000000"/>
     <use xlink:href="#m9349b8de03" x="750.130869" y="207.466667" style="stroke: #000000"/>
    </g>
   </g>
   <g id="matplotlib.axis_3">
    <g id="xtick_7">
     <g id="line2d_31">
      <path d="M 580.318339 320.4 
L 580.318339 43.2 
" clip-path="url(#p8237beac39)" style="fill: none; stroke: #b0b0b0; stroke-width: 0.8; stroke-linecap: square"/>
     </g>
     <g id="line2d_32">
      <g>
       <use xlink:href="#mad39d6ab7d" x="580.318339" y="320.4" style="stroke: #000000; stroke-width: 0.8"/>
      </g>
     </g>
     <g id="text_19">
      <!-- 0 -->
      <g transform="translate(577.137089 334.998438) scale(0.1 -0.1)">
       <use xlink:href="#DejaVuSans-30"/>
      </g>
     </g>
    </g>
    <g id="xtick_8">
     <g id="line2d_33">
      <path d="M 644.678201 320.4 
L 644.678201 43.2 
" clip-path="url(#p8237beac39)" style="fill: none; stroke: #b0b0b0; stroke-width: 0.8; stroke-linecap: square"/>
     </g>
     <g id="line2d_34">
      <g>
       <use xlink:href="#mad39d6ab7d" x="644.678201" y="320.4" style="stroke: #000000; stroke-width: 0.8"/>
      </g>
     </g>
     <g id="text_20">
      <!-- 20 -->
      <g transform="translate(638.315701 334.998438) scale(0.1 -0.1)">
       <use xlink:href="#DejaVuSans-32"/>
       <use xlink:href="#DejaVuSans-30" x="63.623047"/>
      </g>
     </g>
    </g>
    <g id="xtick_9">
     <g id="line2d_35">
      <path d="M 709.038062 320.4 
L 709.038062 43.2 
" clip-path="url(#p8237beac39)" style="fill: none; stroke: #b0b0b0; stroke-width: 0.8; stroke-linecap: square"/>
     </g>
     <g id="line2d_36">
      <g>
       <use xlink:href="#mad39d6ab7d" x="709.038062" y="320.4" style="stroke: #000000; stroke-width: 0.8"/>
      </g>
     </g>
     <g id="text_21">
      <!-- 40 -->
      <g transform="translate(702.675562 334.998438) scale(0.1 -0.1)">
       <use xlink:href="#DejaVuSans-34"/>
       <use xlink:href="#DejaVuSans-30" x="63.623047"/>
      </g>
     </g>
    </g>
    <g id="xtick_10">
     <g id="line2d_37">
      <path d="M 773.397924 320.4 
L 773.397924 43.2 
" clip-path="url(#p8237beac39)" style="fill: none; stroke: #b0b0b0; stroke-width: 0.8; stroke-linecap: square"/>
     </g>
     <g id="line2d_38">
      <g>
       <use xlink:href="#mad39d6ab7d" x="773.397924" y="320.4" style="stroke: #000000; stroke-width: 0.8"/>
      </g>
     </g>
     <g id="text_22">
      <!-- 60 -->
      <g transform="translate(767.035424 334.998438) scale(0.1 -0.1)">
       <use xlink:href="#DejaVuSans-36"/>
       <use xlink:href="#DejaVuSans-30" x="63.623047"/>
      </g>
     </g>
    </g>
    <g id="xtick_11">
     <g id="line2d_39">
      <path d="M 837.757785 320.4 
L 837.757785 43.2 
" clip-path="url(#p8237beac39)" style="fill: none; stroke: #b0b0b0; stroke-width: 0.8; stroke-linecap: square"/>
     </g>
     <g id="line2d_40">
      <g>
       <use xlink:href="#mad39d6ab7d" x="837.757785" y="320.4" style="stroke: #000000; stroke-width: 0.8"/>
      </g>
     </g>
     <g id="text_23">
      <!-- 80 -->
      <g transform="translate(831.395285 334.998438) scale(0.1 -0.1)">
       <use xlink:href="#DejaVuSans-38"/>
       <use xlink:href="#DejaVuSans-30" x="63.623047"/>
      </g>
     </g>
    </g>
    <g id="xtick_12">
     <g id="line2d_41">
      <path d="M 902.117647 320.4 
L 902.117647 43.2 
" clip-path="url(#p8237beac39)" style="fill: none; stroke: #b0b0b0; stroke-width: 0.8; stroke-linecap: square"/>
     </g>
     <g id="line2d_42">
      <g>
       <use xlink:href="#mad39d6ab7d" x="902.117647" y="320.4" style="stroke: #000000; stroke-width: 0.8"/>
      </g>
     </g>
     <g id="text_24">
      <!-- 100 -->
      <g transform="translate(892.573897 334.998438) scale(0.1 -0.1)">
       <use xlink:href="#DejaVuSans-31"/>
       <use xlink:href="#DejaVuSans-30" x="63.623047"/>
       <use xlink:href="#DejaVuSans-30" x="127.246094"/>
      </g>
     </g>
    </g>
    <g id="text_25">
     <!-- Level [dB SPL] -->
     <g transform="translate(702.140625 348.676562) scale(0.1 -0.1)">
      <use xlink:href="#DejaVuSans-4c"/>
      <use xlink:href="#DejaVuSans-65" x="53.962891"/>
      <use xlink:href="#DejaVuSans-76" x="115.486328"/>
      <use xlink:href="#DejaVuSans-65" x="174.666016"/>
      <use xlink:href="#DejaVuSans-6c" x="236.189453"/>
      <use xlink:href="#DejaVuSans-20" x="263.972656"/>
      <use xlink:href="#DejaVuSans-5b" x="295.759766"/>
      <use xlink:href="#DejaVuSans-64" x="334.773438"/>
      <use xlink:href="#DejaVuSans-42" x="398.25"/>
      <use xlink:href="#DejaVuSans-20" x="466.853516"/>
      <use xlink:href="#DejaVuSans-53" x="498.640625"/>
      <use xlink:href="#DejaVuSans-50" x="562.117188"/>
      <use xlink:href="#DejaVuSans-4c" x="622.419922"/>
      <use xlink:href="#DejaVuSans-5d" x="678.132812"/>
     </g>
    </g>
   </g>
   <g id="matplotlib.axis_4">
    <g id="ytick_7">
     <g id="line2d_43">
      <path d="M 573.882353 310.133333 
L 902.117647 310.133333 
" clip-path="url(#p8237beac39)" style="fill: none; stroke: #b0b0b0; stroke-width: 0.8; stroke-linecap: square"/>
     </g>
     <g id="line2d_44">
      <g>
       <use xlink:href="#mcdea6d373c" x="573.882353" y="310.133333" style="stroke: #000000; stroke-width: 0.8"/>
      </g>
     </g>
     <g id="text_26">
      <!-- 0 -->
      <g transform="translate(560.519853 313.932552) scale(0.1 -0.1)">
       <use xlink:href="#DejaVuSans-30"/>
      </g>
     </g>
    </g>
    <g id="ytick_8">
     <g id="line2d_45">
      <path d="M 573.882353 258.8 
L 902.117647 258.8 
" clip-path="url(#p8237beac39)" style="fill: none; stroke: #b0b0b0; stroke-width: 0.8; stroke-linecap: square"/>
     </g>
     <g id="line2d_46">
      <g>
       <use xlink:href="#mcdea6d373c" x="573.882353" y="258.8" style="stroke: #000000; stroke-width: 0.8"/>
      </g>
     </g>
     <g id="text_27">
      <!-- 10 -->
      <g transform="translate(554.157353 262.599219) scale(0.1 -0.1)">
       <use xlink:href="#DejaVuSans-31"/>
       <use xlink:href="#DejaVuSans-30" x="63.623047"/>
      </g>
     </g>
    </g>
    <g id="ytick_9">
     <g id="line2d_47">
      <path d="M 573.882353 207.466667 
L 902.117647 207.466667 
" clip-path="url(#p8237beac39)" style="fill: none; stroke: #b0b0b0; stroke-width: 0.8; stroke-linecap: square"/>
     </g>
     <g id="line2d_48">
      <g>
       <use xlink:href="#mcdea6d373c" x="573.882353" y="207.466667" style="stroke: #000000; stroke-width: 0.8"/>
      </g>
     </g>
     <g id="text_28">
      <!-- 20 -->
      <g transform="translate(554.157353 211.265885) scale(0.1 -0.1)">
       <use xlink:href="#DejaVuSans-32"/>
       <use xlink:href="#DejaVuSans-30" x="63.623047"/>
      </g>
     </g>
    </g>
    <g id="ytick_10">
     <g id="line2d_49">
      <path d="M 573.882353 156.133333 
L 902.117647 156.133333 
" clip-path="url(#p8237beac39)" style="fill: none; stroke: #b0b0b0; stroke-width: 0.8; stroke-linecap: square"/>
     </g>
     <g id="line2d_50">
      <g>
       <use xlink:href="#mcdea6d373c" x="573.882353" y="156.133333" style="stroke: #000000; stroke-width: 0.8"/>
      </g>
     </g>
     <g id="text_29">
      <!-- 30 -->
      <g transform="translate(554.157353 159.932552) scale(0.1 -0.1)">
       <use xlink:href="#DejaVuSans-33"/>
       <use xlink:href="#DejaVuSans-30" x="63.623047"/>
      </g>
     </g>
    </g>
    <g id="ytick_11">
     <g id="line2d_51">
      <path d="M 573.882353 104.8 
L 902.117647 104.8 
" clip-path="url(#p8237beac39)" style="fill: none; stroke: #b0b0b0; stroke-width: 0.8; stroke-linecap: square"/>
     </g>
     <g id="line2d_52">
      <g>
       <use xlink:href="#mcdea6d373c" x="573.882353" y="104.8" style="stroke: #000000; stroke-width: 0.8"/>
      </g>
     </g>
     <g id="text_30">
      <!-- 40 -->
      <g transform="translate(554.157353 108.599219) scale(0.1 -0.1)">
       <use xlink:href="#DejaVuSans-34"/>
       <use xlink:href="#DejaVuSans-30" x="63.623047"/>
      </g>
     </g>
    </g>
    <g id="ytick_12">
     <g id="line2d_53">
      <path d="M 573.882353 53.466667 
L 902.117647 53.466667 
" clip-path="url(#p8237beac39)" style="fill: none; stroke: #b0b0b0; stroke-width: 0.8; stroke-linecap: square"/>
     </g>
     <g id="line2d_54">
      <g>
       <use xlink:href="#mcdea6d373c" x="573.882353" y="53.466667" style="stroke: #000000; stroke-width: 0.8"/>
      </g>
     </g>
     <g id="text_31">
      <!-- 50 -->
      <g transform="translate(554.157353 57.265885) scale(0.1 -0.1)">
       <use xlink:href="#DejaVuSans-35"/>
       <use xlink:href="#DejaVuSans-30" x="63.623047"/>
      </g>
     </g>
    </g>
    <g id="text_32">
     <!-- Categorical Units -->
     <g transform="translate(548.077665 224.64375) rotate(-90) scale(0.1 -0.1)">
      <use xlink:href="#DejaVuSans-43"/>
      <use xlink:href="#DejaVuSans-61" x="69.824219"/>
      <use xlink:href="#DejaVuSans-74" x="131.103516"/>
      <use xlink:href="#DejaVuSans-65" x="170.3125"/>
      <use xlink:href="#DejaVuSans-67" x="231.835938"/>
      <use xlink:href="#DejaVuSans-6f" x="295.3125"/>
      <use xlink:href="#DejaVuSans-72" x="356.494141"/>
      <use xlink:href="#DejaVuSans-69" x="397.607422"/>
      <use xlink:href="#DejaVuSans-63" x="425.390625"/>
      <use xlink:href="#DejaVuSans-61" x="480.371094"/>
      <use xlink:href="#DejaVuSans-6c" x="541.650391"/>
      <use xlink:href="#DejaVuSans-20" x="569.433594"/>
      <use xlink:href="#DejaVuSans-55" x="601.220703"/>
      <use xlink:href="#DejaVuSans-6e" x="674.414062"/>
      <use xlink:href="#DejaVuSans-69" x="737.792969"/>
      <use xlink:href="#DejaVuSans-74" x="765.576172"/>
      <use xlink:href="#DejaVuSans-73" x="804.785156"/>
     </g>
    </g>
   </g>
   <g id="line2d_55">
    <path d="M 548.138408 181.8 
L 966.477509 181.8 
" clip-path="url(#p8237beac39)" style="fill: none; stroke-dasharray: 1.5,2.475; stroke-dashoffset: 0; stroke: #808080; stroke-width: 1.5"/>
   </g>
   <g id="line2d_56">
    <path d="M 853.847751 361 
L 853.847751 -1 
" clip-path="url(#p8237beac39)" style="fill: none; stroke-dasharray: 5.55,2.4; stroke-dashoffset: 0; stroke: #ff0000; stroke-opacity: 0.3; stroke-width: 1.5"/>
   </g>
   <g id="line2d_57">
    <path d="M 623.452426 310.133333 
L 626.267226 307.957698 
L 629.082026 305.782062 
L 631.896826 303.606427 
L 634.711625 301.430792 
L 637.526425 299.255156 
L 640.341225 297.079521 
L 643.156025 294.903885 
L 645.970824 292.72825 
L 648.785624 290.552614 
L 651.600424 288.376979 
L 654.415224 286.201344 
L 657.230023 284.025708 
L 660.044823 281.850073 
L 662.859623 279.674437 
L 665.674423 277.498802 
L 668.489222 275.323167 
L 671.304022 273.147531 
L 674.118822 270.971896 
L 676.933622 268.79626 
L 679.748421 266.620625 
L 682.563221 264.444989 
L 685.378021 262.269354 
L 688.192821 260.093719 
L 691.00762 257.918083 
L 693.82242 255.742448 
L 696.63722 253.566812 
L 699.45202 251.391177 
L 702.266819 249.215541 
L 705.081619 247.039906 
L 707.896419 244.864271 
L 710.711219 242.688635 
L 713.526018 240.513 
L 716.340818 238.337364 
L 719.155618 236.161729 
L 721.970418 233.986093 
L 724.785218 231.807705 
L 727.600017 229.615436 
L 730.414817 227.407836 
L 733.229617 225.184577 
L 736.044417 222.945322 
L 738.859216 220.68972 
L 741.674016 218.417409 
L 744.488816 216.128011 
L 747.303616 213.821135 
L 750.118415 211.496374 
L 752.933215 209.153307 
L 755.748015 206.791492 
L 758.562815 204.410474 
L 761.377614 202.009776 
L 764.192414 199.588902 
L 767.007214 197.147334 
L 769.822014 194.684532 
L 772.636813 192.199934 
L 775.451613 189.692948 
L 778.266413 187.16296 
L 781.081213 184.609324 
L 783.896012 182.031364 
L 786.710812 179.428371 
L 789.525612 176.799603 
L 792.340412 174.144278 
L 795.155211 171.461574 
L 797.970011 168.750626 
L 800.784811 166.010524 
L 803.599611 163.240306 
L 806.41441 160.438956 
L 809.22921 157.605401 
L 812.04401 154.738503 
L 814.85881 151.837058 
L 817.673609 148.899785 
L 820.488409 145.925324 
L 823.303209 142.912225 
L 826.118009 139.858941 
L 828.932808 136.763823 
L 831.747608 133.6251 
L 834.562408 130.440877 
L 837.377208 127.233619 
L 840.192007 124.02636 
L 843.006807 120.819101 
L 845.821607 117.611842 
L 848.636407 114.404583 
L 851.451206 111.197325 
L 854.266006 107.990066 
L 857.080806 104.782807 
L 859.895606 101.575548 
L 862.710405 98.36829 
L 865.525205 95.161031 
L 868.340005 91.953772 
L 871.154805 88.746513 
L 873.969604 85.539254 
L 876.784404 82.331996 
L 879.599204 79.124737 
L 882.414004 75.917478 
L 885.228803 72.710219 
L 888.043603 69.502961 
L 890.858403 66.295702 
L 893.673203 63.088443 
L 896.488002 59.881184 
L 899.302802 56.673925 
L 902.117602 53.466667 
" clip-path="url(#p8237beac39)" style="fill: none; stroke: #1f77b4; stroke-width: 1.5; stroke-linecap: square"/>
   </g>
   <g id="line2d_58">
    <path d="M 616.669753 310.133333 
L 619.153757 308.484481 
L 621.63776 306.835629 
L 624.121763 305.186777 
L 626.605766 303.537924 
L 629.089769 301.889072 
L 631.573773 300.24022 
L 634.057776 298.591367 
L 636.541779 296.942515 
L 639.025782 295.293663 
L 641.509785 293.644811 
L 643.993789 291.995958 
L 646.477792 290.347106 
L 648.961795 288.698254 
L 651.445798 287.049401 
L 653.929801 285.400549 
L 656.413805 283.751697 
L 658.897808 282.102845 
L 661.381811 280.453992 
L 663.865814 278.80514 
L 666.349817 277.156288 
L 668.833821 275.507436 
L 671.317824 273.858583 
L 673.801827 272.209731 
L 676.28583 270.560879 
L 678.769833 268.912026 
L 681.253837 267.263174 
L 683.73784 265.614322 
L 686.221843 263.96547 
L 688.705846 262.316617 
L 691.189849 260.667765 
L 693.673853 259.018913 
L 696.157856 257.37006 
L 698.641859 255.721208 
L 701.125862 254.072356 
L 703.609865 252.423504 
L 706.093869 250.774651 
L 708.577872 249.125799 
L 711.061875 247.476947 
L 713.545878 245.828095 
L 716.029881 244.179242 
L 718.513885 242.53039 
L 720.997888 240.881538 
L 723.481891 239.232685 
L 725.965894 237.583833 
L 728.449897 235.934981 
L 730.933901 234.286129 
L 733.417904 232.636401 
L 735.901907 230.971859 
L 738.38591 229.287121 
L 740.869913 227.581432 
L 743.353917 225.85399 
L 745.83792 224.103943 
L 748.321923 222.330378 
L 750.805926 220.532322 
L 753.289929 218.70873 
L 755.773933 216.858482 
L 758.257936 214.980375 
L 760.741939 213.073111 
L 763.225942 211.135287 
L 765.709945 209.165387 
L 768.193948 207.161763 
L 770.677952 205.12262 
L 773.161955 203.046001 
L 775.645958 200.92976 
L 778.129961 198.771538 
L 780.613964 196.568733 
L 783.097968 194.318462 
L 785.581971 192.017519 
L 788.065974 189.662317 
L 790.549977 187.248827 
L 793.03398 184.772495 
L 795.517984 182.228139 
L 798.001987 179.609826 
L 800.48599 176.910705 
L 802.969993 174.122798 
L 805.453996 171.236721 
L 807.938 168.241309 
L 810.422003 165.123106 
L 812.906006 161.865646 
L 815.390009 158.448418 
L 817.874012 154.845317 
L 820.358016 151.022248 
L 822.842019 146.933209 
L 825.326022 142.513506 
L 827.810025 137.666996 
L 830.294028 132.239325 
L 832.778032 126.217704 
L 835.262035 120.155117 
L 837.746038 114.092531 
L 840.230041 108.029944 
L 842.714044 101.967358 
L 845.198048 95.904772 
L 847.682051 89.842185 
L 850.166054 83.779599 
L 852.650057 77.717012 
L 855.13406 71.654426 
L 857.618064 65.591839 
L 860.102067 59.529253 
L 862.58607 53.466667 
" clip-path="url(#p8237beac39)" style="fill: none; stroke-dasharray: 5.55,2.4; stroke-dashoffset: 0; stroke: #ff7f0e; stroke-width: 1.5"/>
   </g>
   <g id="patch_9">
    <path d="M 573.882353 320.4 
L 573.882353 43.2 
" style="fill: none; stroke: #000000; stroke-width: 0.8; stroke-linejoin: miter; stroke-linecap: square"/>
   </g>
   <g id="patch_10">
    <path d="M 902.117647 320.4 
L 902.117647 43.2 
" style="fill: none; stroke: #000000; stroke-width: 0.8; stroke-linejoin: miter; stroke-linecap: square"/>
   </g>
   <g id="patch_11">
    <path d="M 573.882353 320.4 
L 902.117647 320.4 
" style="fill: none; stroke: #000000; stroke-width: 0.8; stroke-linejoin: miter; stroke-linecap: square"/>
   </g>
   <g id="patch_12">
    <path d="M 573.882353 43.2 
L 902.117647 43.2 
" style="fill: none; stroke: #000000; stroke-width: 0.8; stroke-linejoin: miter; stroke-linecap: square"/>
   </g>
   <g id="text_33">
    <!--  Block: 1 -->
    <g transform="translate(712.119375 37.2) scale(0.12 -0.12)">
     <use xlink:href="#DejaVuSans-20"/>
     <use xlink:href="#DejaVuSans-42" x="31.787109"/>
     <use xlink:href="#DejaVuSans-6c" x="100.390625"/>
     <use xlink:href="#DejaVuSans-6f" x="128.173828"/>
     <use xlink:href="#DejaVuSans-63" x="189.355469"/>
     <use xlink:href="#DejaVuSans-6b" x="244.335938"/>
     <use xlink:href="#DejaVuSans-3a" x="302.246094"/>
     <use xlink:href="#DejaVuSans-20" x="335.9375"/>
     <use xlink:href="#DejaVuSans-31" x="367.724609"/>
    </g>
   </g>
   <g id="legend_2">
    <g id="patch_13">
     <path d="M 580.882353 95.5125 
L 712.082353 95.5125 
Q 714.082353 95.5125 714.082353 93.5125 
L 714.082353 50.2 
Q 714.082353 48.2 712.082353 48.2 
L 580.882353 48.2 
Q 578.882353 48.2 578.882353 50.2 
L 578.882353 93.5125 
Q 578.882353 95.5125 580.882353 95.5125 
z
" style="fill: #ffffff; opacity: 0.8; stroke: #cccccc; stroke-linejoin: miter"/>
    </g>
    <g id="PathCollection_4">
     <g>
      <use xlink:href="#m9349b8de03" x="592.882353" y="57.173437" style="stroke: #000000"/>
     </g>
    </g>
    <g id="text_34">
     <!-- Data -->
     <g transform="translate(610.882353 59.798437) scale(0.1 -0.1)">
      <use xlink:href="#DejaVuSans-44"/>
      <use xlink:href="#DejaVuSans-61" x="77.001953"/>
      <use xlink:href="#DejaVuSans-74" x="138.28125"/>
      <use xlink:href="#DejaVuSans-61" x="177.490234"/>
     </g>
    </g>
    <g id="line2d_59">
     <path d="M 582.882353 70.976562 
L 592.882353 70.976562 
L 602.882353 70.976562 
" style="fill: none; stroke: #1f77b4; stroke-width: 1.5; stroke-linecap: square"/>
    </g>
    <g id="text_35">
     <!-- Artc e:0.4469 -->
     <g transform="translate(610.882353 74.476562) scale(0.1 -0.1)">
      <defs>
       <path id="DejaVuSans-39" d="M 703 97 
L 703 672 
Q 941 559 1184 500 
Q 1428 441 1663 441 
Q 2288 441 2617 861 
Q 2947 1281 2994 2138 
Q 2813 1869 2534 1725 
Q 2256 1581 1919 1581 
Q 1219 1581 811 2004 
Q 403 2428 403 3163 
Q 403 3881 828 4315 
Q 1253 4750 1959 4750 
Q 2769 4750 3195 4129 
Q 3622 3509 3622 2328 
Q 3622 1225 3098 567 
Q 2575 -91 1691 -91 
Q 1453 -91 1209 -44 
Q 966 3 703 97 
z
M 1959 2075 
Q 2384 2075 2632 2365 
Q 2881 2656 2881 3163 
Q 2881 3666 2632 3958 
Q 2384 4250 1959 4250 
Q 1534 4250 1286 3958 
Q 1038 3666 1038 3163 
Q 1038 2656 1286 2365 
Q 1534 2075 1959 2075 
z
" transform="scale(0.015625)"/>
      </defs>
      <use xlink:href="#DejaVuSans-41"/>
      <use xlink:href="#DejaVuSans-72" x="68.408203"/>
      <use xlink:href="#DejaVuSans-74" x="109.521484"/>
      <use xlink:href="#DejaVuSans-63" x="148.730469"/>
      <use xlink:href="#DejaVuSans-20" x="203.710938"/>
      <use xlink:href="#DejaVuSans-65" x="235.498047"/>
      <use xlink:href="#DejaVuSans-3a" x="297.021484"/>
      <use xlink:href="#DejaVuSans-30" x="330.712891"/>
      <use xlink:href="#DejaVuSans-2e" x="394.335938"/>
      <use xlink:href="#DejaVuSans-34" x="426.123047"/>
      <use xlink:href="#DejaVuSans-34" x="489.746094"/>
      <use xlink:href="#DejaVuSans-36" x="553.369141"/>
      <use xlink:href="#DejaVuSans-39" x="616.992188"/>
     </g>
    </g>
    <g id="line2d_60">
     <path d="M 582.882353 85.654687 
L 592.882353 85.654687 
L 602.882353 85.654687 
" style="fill: none; stroke-dasharray: 5.55,2.4; stroke-dashoffset: 0; stroke: #ff7f0e; stroke-width: 1.5"/>
    </g>
    <g id="text_36">
     <!-- NEL_BTUX e:0.3694 -->
     <g transform="translate(610.882353 89.154687) scale(0.1 -0.1)">
      <use xlink:href="#DejaVuSans-4e"/>
      <use xlink:href="#DejaVuSans-45" x="74.804688"/>
      <use xlink:href="#DejaVuSans-4c" x="137.988281"/>
      <use xlink:href="#DejaVuSans-5f" x="193.701172"/>
      <use xlink:href="#DejaVuSans-42" x="243.701172"/>
      <use xlink:href="#DejaVuSans-54" x="312.304688"/>
      <use xlink:href="#DejaVuSans-55" x="373.388672"/>
      <use xlink:href="#DejaVuSans-58" x="446.582031"/>
      <use xlink:href="#DejaVuSans-20" x="515.087891"/>
      <use xlink:href="#DejaVuSans-65" x="546.875"/>
      <use xlink:href="#DejaVuSans-3a" x="608.398438"/>
      <use xlink:href="#DejaVuSans-30" x="642.089844"/>
      <use xlink:href="#DejaVuSans-2e" x="705.712891"/>
      <use xlink:href="#DejaVuSans-33" x="737.5"/>
      <use xlink:href="#DejaVuSans-36" x="801.123047"/>
      <use xlink:href="#DejaVuSans-39" x="864.746094"/>
      <use xlink:href="#DejaVuSans-34" x="928.369141"/>
     </g>
    </g>
   </g>
  </g>
  <g id="axes_3">
   <g id="patch_14">
    <path d="M 967.764706 320.4 
L 1296 320.4 
L 1296 43.2 
L 967.764706 43.2 
z
" style="fill: #ffffff"/>
   </g>
   <g id="PathCollection_5">
    <g clip-path="url(#p3c4d8c356f)">
     <use xlink:href="#m9349b8de03" x="1215.550173" y="156.133333" style="stroke: #000000"/>
     <use xlink:href="#m9349b8de03" x="1247.730104" y="53.466667" style="stroke: #000000"/>
     <use xlink:href="#m9349b8de03" x="1167.280277" y="207.466667" style="stroke: #000000"/>
     <use xlink:href="#m9349b8de03" x="1119.010381" y="258.8" style="stroke: #000000"/>
     <use xlink:href="#m9349b8de03" x="1070.740484" y="284.466667" style="stroke: #000000"/>
     <use xlink:href="#m9349b8de03" x="1022.470588" y="284.466667" style="stroke: #000000"/>
     <use xlink:href="#m9349b8de03" x="974.200692" y="310.133333" style="stroke: #000000"/>
     <use xlink:href="#m9349b8de03" x="990.290657" y="310.133333" style="stroke: #000000"/>
     <use xlink:href="#m9349b8de03" x="1006.380623" y="310.133333" style="stroke: #000000"/>
     <use xlink:href="#m9349b8de03" x="1022.470588" y="310.133333" style="stroke: #000000"/>
     <use xlink:href="#m9349b8de03" x="1038.560554" y="284.466667" style="stroke: #000000"/>
     <use xlink:href="#m9349b8de03" x="1084.06201" y="258.8" style="stroke: #000000"/>
     <use xlink:href="#m9349b8de03" x="1175.065889" y="207.466667" style="stroke: #000000"/>
     <use xlink:href="#m9349b8de03" x="1038.560232" y="258.8" style="stroke: #000000"/>
     <use xlink:href="#m9349b8de03" x="1220.567668" y="53.466667" style="stroke: #000000"/>
     <use xlink:href="#m9349b8de03" x="1129.564111" y="258.8" style="stroke: #000000"/>
     <use xlink:href="#m9349b8de03" x="1097.690855" y="207.466667" style="stroke: #000000"/>
     <use xlink:href="#m9349b8de03" x="1144.013221" y="207.466667" style="stroke: #000000"/>
     <use xlink:href="#m9349b8de03" x="1190.335266" y="156.133333" style="stroke: #000000"/>
     <use xlink:href="#m9349b8de03" x="1051.36881" y="258.8" style="stroke: #000000"/>
     <use xlink:href="#m9349b8de03" x="1236.657633" y="104.8" style="stroke: #000000"/>
    </g>
   </g>
   <g id="matplotlib.axis_5">
    <g id="xtick_13">
     <g id="line2d_61">
      <path d="M 974.200692 320.4 
L 974.200692 43.2 
" clip-path="url(#p3c4d8c356f)" style="fill: none; stroke: #b0b0b0; stroke-width: 0.8; stroke-linecap: square"/>
     </g>
     <g id="line2d_62">
      <g>
       <use xlink:href="#mad39d6ab7d" x="974.200692" y="320.4" style="stroke: #000000; stroke-width: 0.8"/>
      </g>
     </g>
     <g id="text_37">
      <!-- 0 -->
      <g transform="translate(971.019442 334.998438) scale(0.1 -0.1)">
       <use xlink:href="#DejaVuSans-30"/>
      </g>
     </g>
    </g>
    <g id="xtick_14">
     <g id="line2d_63">
      <path d="M 1038.560554 320.4 
L 1038.560554 43.2 
" clip-path="url(#p3c4d8c356f)" style="fill: none; stroke: #b0b0b0; stroke-width: 0.8; stroke-linecap: square"/>
     </g>
     <g id="line2d_64">
      <g>
       <use xlink:href="#mad39d6ab7d" x="1038.560554" y="320.4" style="stroke: #000000; stroke-width: 0.8"/>
      </g>
     </g>
     <g id="text_38">
      <!-- 20 -->
      <g transform="translate(1032.198054 334.998438) scale(0.1 -0.1)">
       <use xlink:href="#DejaVuSans-32"/>
       <use xlink:href="#DejaVuSans-30" x="63.623047"/>
      </g>
     </g>
    </g>
    <g id="xtick_15">
     <g id="line2d_65">
      <path d="M 1102.920415 320.4 
L 1102.920415 43.2 
" clip-path="url(#p3c4d8c356f)" style="fill: none; stroke: #b0b0b0; stroke-width: 0.8; stroke-linecap: square"/>
     </g>
     <g id="line2d_66">
      <g>
       <use xlink:href="#mad39d6ab7d" x="1102.920415" y="320.4" style="stroke: #000000; stroke-width: 0.8"/>
      </g>
     </g>
     <g id="text_39">
      <!-- 40 -->
      <g transform="translate(1096.557915 334.998438) scale(0.1 -0.1)">
       <use xlink:href="#DejaVuSans-34"/>
       <use xlink:href="#DejaVuSans-30" x="63.623047"/>
      </g>
     </g>
    </g>
    <g id="xtick_16">
     <g id="line2d_67">
      <path d="M 1167.280277 320.4 
L 1167.280277 43.2 
" clip-path="url(#p3c4d8c356f)" style="fill: none; stroke: #b0b0b0; stroke-width: 0.8; stroke-linecap: square"/>
     </g>
     <g id="line2d_68">
      <g>
       <use xlink:href="#mad39d6ab7d" x="1167.280277" y="320.4" style="stroke: #000000; stroke-width: 0.8"/>
      </g>
     </g>
     <g id="text_40">
      <!-- 60 -->
      <g transform="translate(1160.917777 334.998438) scale(0.1 -0.1)">
       <use xlink:href="#DejaVuSans-36"/>
       <use xlink:href="#DejaVuSans-30" x="63.623047"/>
      </g>
     </g>
    </g>
    <g id="xtick_17">
     <g id="line2d_69">
      <path d="M 1231.640138 320.4 
L 1231.640138 43.2 
" clip-path="url(#p3c4d8c356f)" style="fill: none; stroke: #b0b0b0; stroke-width: 0.8; stroke-linecap: square"/>
     </g>
     <g id="line2d_70">
      <g>
       <use xlink:href="#mad39d6ab7d" x="1231.640138" y="320.4" style="stroke: #000000; stroke-width: 0.8"/>
      </g>
     </g>
     <g id="text_41">
      <!-- 80 -->
      <g transform="translate(1225.277638 334.998438) scale(0.1 -0.1)">
       <use xlink:href="#DejaVuSans-38"/>
       <use xlink:href="#DejaVuSans-30" x="63.623047"/>
      </g>
     </g>
    </g>
    <g id="xtick_18">
     <g id="line2d_71">
      <path d="M 1296 320.4 
L 1296 43.2 
" clip-path="url(#p3c4d8c356f)" style="fill: none; stroke: #b0b0b0; stroke-width: 0.8; stroke-linecap: square"/>
     </g>
     <g id="line2d_72">
      <g>
       <use xlink:href="#mad39d6ab7d" x="1296" y="320.4" style="stroke: #000000; stroke-width: 0.8"/>
      </g>
     </g>
     <g id="text_42">
      <!-- 100 -->
      <g transform="translate(1286.45625 334.998438) scale(0.1 -0.1)">
       <use xlink:href="#DejaVuSans-31"/>
       <use xlink:href="#DejaVuSans-30" x="63.623047"/>
       <use xlink:href="#DejaVuSans-30" x="127.246094"/>
      </g>
     </g>
    </g>
    <g id="text_43">
     <!-- Level [dB SPL] -->
     <g transform="translate(1096.022978 348.676562) scale(0.1 -0.1)">
      <use xlink:href="#DejaVuSans-4c"/>
      <use xlink:href="#DejaVuSans-65" x="53.962891"/>
      <use xlink:href="#DejaVuSans-76" x="115.486328"/>
      <use xlink:href="#DejaVuSans-65" x="174.666016"/>
      <use xlink:href="#DejaVuSans-6c" x="236.189453"/>
      <use xlink:href="#DejaVuSans-20" x="263.972656"/>
      <use xlink:href="#DejaVuSans-5b" x="295.759766"/>
      <use xlink:href="#DejaVuSans-64" x="334.773438"/>
      <use xlink:href="#DejaVuSans-42" x="398.25"/>
      <use xlink:href="#DejaVuSans-20" x="466.853516"/>
      <use xlink:href="#DejaVuSans-53" x="498.640625"/>
      <use xlink:href="#DejaVuSans-50" x="562.117188"/>
      <use xlink:href="#DejaVuSans-4c" x="622.419922"/>
      <use xlink:href="#DejaVuSans-5d" x="678.132812"/>
     </g>
    </g>
   </g>
   <g id="matplotlib.axis_6">
    <g id="ytick_13">
     <g id="line2d_73">
      <path d="M 967.764706 310.133333 
L 1296 310.133333 
" clip-path="url(#p3c4d8c356f)" style="fill: none; stroke: #b0b0b0; stroke-width: 0.8; stroke-linecap: square"/>
     </g>
     <g id="line2d_74">
      <g>
       <use xlink:href="#mcdea6d373c" x="967.764706" y="310.133333" style="stroke: #000000; stroke-width: 0.8"/>
      </g>
     </g>
     <g id="text_44">
      <!-- 0 -->
      <g transform="translate(954.402206 313.932552) scale(0.1 -0.1)">
       <use xlink:href="#DejaVuSans-30"/>
      </g>
     </g>
    </g>
    <g id="ytick_14">
     <g id="line2d_75">
      <path d="M 967.764706 258.8 
L 1296 258.8 
" clip-path="url(#p3c4d8c356f)" style="fill: none; stroke: #b0b0b0; stroke-width: 0.8; stroke-linecap: square"/>
     </g>
     <g id="line2d_76">
      <g>
       <use xlink:href="#mcdea6d373c" x="967.764706" y="258.8" style="stroke: #000000; stroke-width: 0.8"/>
      </g>
     </g>
     <g id="text_45">
      <!-- 10 -->
      <g transform="translate(948.039706 262.599219) scale(0.1 -0.1)">
       <use xlink:href="#DejaVuSans-31"/>
       <use xlink:href="#DejaVuSans-30" x="63.623047"/>
      </g>
     </g>
    </g>
    <g id="ytick_15">
     <g id="line2d_77">
      <path d="M 967.764706 207.466667 
L 1296 207.466667 
" clip-path="url(#p3c4d8c356f)" style="fill: none; stroke: #b0b0b0; stroke-width: 0.8; stroke-linecap: square"/>
     </g>
     <g id="line2d_78">
      <g>
       <use xlink:href="#mcdea6d373c" x="967.764706" y="207.466667" style="stroke: #000000; stroke-width: 0.8"/>
      </g>
     </g>
     <g id="text_46">
      <!-- 20 -->
      <g transform="translate(948.039706 211.265885) scale(0.1 -0.1)">
       <use xlink:href="#DejaVuSans-32"/>
       <use xlink:href="#DejaVuSans-30" x="63.623047"/>
      </g>
     </g>
    </g>
    <g id="ytick_16">
     <g id="line2d_79">
      <path d="M 967.764706 156.133333 
L 1296 156.133333 
" clip-path="url(#p3c4d8c356f)" style="fill: none; stroke: #b0b0b0; stroke-width: 0.8; stroke-linecap: square"/>
     </g>
     <g id="line2d_80">
      <g>
       <use xlink:href="#mcdea6d373c" x="967.764706" y="156.133333" style="stroke: #000000; stroke-width: 0.8"/>
      </g>
     </g>
     <g id="text_47">
      <!-- 30 -->
      <g transform="translate(948.039706 159.932552) scale(0.1 -0.1)">
       <use xlink:href="#DejaVuSans-33"/>
       <use xlink:href="#DejaVuSans-30" x="63.623047"/>
      </g>
     </g>
    </g>
    <g id="ytick_17">
     <g id="line2d_81">
      <path d="M 967.764706 104.8 
L 1296 104.8 
" clip-path="url(#p3c4d8c356f)" style="fill: none; stroke: #b0b0b0; stroke-width: 0.8; stroke-linecap: square"/>
     </g>
     <g id="line2d_82">
      <g>
       <use xlink:href="#mcdea6d373c" x="967.764706" y="104.8" style="stroke: #000000; stroke-width: 0.8"/>
      </g>
     </g>
     <g id="text_48">
      <!-- 40 -->
      <g transform="translate(948.039706 108.599219) scale(0.1 -0.1)">
       <use xlink:href="#DejaVuSans-34"/>
       <use xlink:href="#DejaVuSans-30" x="63.623047"/>
      </g>
     </g>
    </g>
    <g id="ytick_18">
     <g id="line2d_83">
      <path d="M 967.764706 53.466667 
L 1296 53.466667 
" clip-path="url(#p3c4d8c356f)" style="fill: none; stroke: #b0b0b0; stroke-width: 0.8; stroke-linecap: square"/>
     </g>
     <g id="line2d_84">
      <g>
       <use xlink:href="#mcdea6d373c" x="967.764706" y="53.466667" style="stroke: #000000; stroke-width: 0.8"/>
      </g>
     </g>
     <g id="text_49">
      <!-- 50 -->
      <g transform="translate(948.039706 57.265885) scale(0.1 -0.1)">
       <use xlink:href="#DejaVuSans-35"/>
       <use xlink:href="#DejaVuSans-30" x="63.623047"/>
      </g>
     </g>
    </g>
    <g id="text_50">
     <!-- Categorical Units -->
     <g transform="translate(941.960018 224.64375) rotate(-90) scale(0.1 -0.1)">
      <use xlink:href="#DejaVuSans-43"/>
      <use xlink:href="#DejaVuSans-61" x="69.824219"/>
      <use xlink:href="#DejaVuSans-74" x="131.103516"/>
      <use xlink:href="#DejaVuSans-65" x="170.3125"/>
      <use xlink:href="#DejaVuSans-67" x="231.835938"/>
      <use xlink:href="#DejaVuSans-6f" x="295.3125"/>
      <use xlink:href="#DejaVuSans-72" x="356.494141"/>
      <use xlink:href="#DejaVuSans-69" x="397.607422"/>
      <use xlink:href="#DejaVuSans-63" x="425.390625"/>
      <use xlink:href="#DejaVuSans-61" x="480.371094"/>
      <use xlink:href="#DejaVuSans-6c" x="541.650391"/>
      <use xlink:href="#DejaVuSans-20" x="569.433594"/>
      <use xlink:href="#DejaVuSans-55" x="601.220703"/>
      <use xlink:href="#DejaVuSans-6e" x="674.414062"/>
      <use xlink:href="#DejaVuSans-69" x="737.792969"/>
      <use xlink:href="#DejaVuSans-74" x="765.576172"/>
      <use xlink:href="#DejaVuSans-73" x="804.785156"/>
     </g>
    </g>
   </g>
   <g id="line2d_85">
    <path d="M 942.020761 181.8 
L 1360.359862 181.8 
" clip-path="url(#p3c4d8c356f)" style="fill: none; stroke-dasharray: 1.5,2.475; stroke-dashoffset: 0; stroke: #808080; stroke-width: 1.5"/>
   </g>
   <g id="line2d_86">
    <path d="M 1247.730104 361 
L 1247.730104 -1 
" clip-path="url(#p3c4d8c356f)" style="fill: none; stroke-dasharray: 5.55,2.4; stroke-dashoffset: 0; stroke: #ff0000; stroke-opacity: 0.3; stroke-width: 1.5"/>
   </g>
   <g id="line2d_87">
    <path d="M 1006.51687 310.133333 
L 1009.440942 307.888972 
L 1012.365013 305.644611 
L 1015.289085 303.400249 
L 1018.213156 301.155888 
L 1021.137228 298.911527 
L 1024.061299 296.667166 
L 1026.985371 294.422804 
L 1029.909442 292.178443 
L 1032.833514 289.934082 
L 1035.757586 287.68972 
L 1038.681657 285.445359 
L 1041.605729 283.200998 
L 1044.5298 280.956637 
L 1047.453872 278.712275 
L 1050.377943 276.467914 
L 1053.302015 274.223553 
L 1056.226086 271.979191 
L 1059.150158 269.73483 
L 1062.074229 267.490469 
L 1064.998301 265.246107 
L 1067.922372 263.001746 
L 1070.846444 260.757385 
L 1073.770515 258.513024 
L 1076.694587 256.268662 
L 1079.618658 254.024301 
L 1082.54273 251.77994 
L 1085.466801 249.535578 
L 1088.390873 247.291217 
L 1091.314944 245.046856 
L 1094.239016 242.802494 
L 1097.163088 240.558133 
L 1100.087159 238.313772 
L 1103.011231 236.069411 
L 1105.935302 233.825049 
L 1108.859374 231.577521 
L 1111.783445 229.317275 
L 1114.707517 227.043445 
L 1117.631588 224.755784 
L 1120.55566 222.454036 
L 1123.479731 220.137937 
L 1126.403803 217.807216 
L 1129.327874 215.461592 
L 1132.251946 213.100776 
L 1135.176017 210.724469 
L 1138.100089 208.332361 
L 1141.02416 205.924134 
L 1143.948232 203.499456 
L 1146.872303 201.057986 
L 1149.796375 198.59937 
L 1152.720446 196.123242 
L 1155.644518 193.629223 
L 1158.568589 191.116918 
L 1161.492661 188.585919 
L 1164.416733 186.035804 
L 1167.340804 183.466132 
L 1170.264876 180.876445 
L 1173.188947 178.26627 
L 1176.113019 175.635112 
L 1179.03709 172.982456 
L 1181.961162 170.307767 
L 1184.885233 167.610486 
L 1187.809305 164.890032 
L 1190.733376 162.145796 
L 1193.657448 159.377144 
L 1196.581519 156.583412 
L 1199.505591 153.763906 
L 1202.429662 150.9179 
L 1205.353734 148.04463 
L 1208.277805 145.1433 
L 1211.201877 142.21307 
L 1214.125948 139.253059 
L 1217.05002 136.262339 
L 1219.974091 133.239936 
L 1222.898163 130.184962 
L 1225.822235 127.11623 
L 1228.746306 124.047499 
L 1231.670378 120.978767 
L 1234.594449 117.910035 
L 1237.518521 114.841303 
L 1240.442592 111.772571 
L 1243.366664 108.70384 
L 1246.290735 105.635108 
L 1249.214807 102.566376 
L 1252.138878 99.497644 
L 1255.06295 96.428912 
L 1257.987021 93.36018 
L 1260.911093 90.291449 
L 1263.835164 87.222717 
L 1266.759236 84.153985 
L 1269.683307 81.085253 
L 1272.607379 78.016521 
L 1275.53145 74.947789 
L 1278.455522 71.879058 
L 1281.379593 68.810326 
L 1284.303665 65.741594 
L 1287.227737 62.672862 
L 1290.151808 59.60413 
L 1293.07588 56.535398 
L 1295.999951 53.466667 
" clip-path="url(#p3c4d8c356f)" style="fill: none; stroke: #1f77b4; stroke-width: 1.5; stroke-linecap: square"/>
   </g>
   <g id="line2d_88">
    <path d="M 1003.998138 310.133333 
L 1006.395053 308.468025 
L 1008.791968 306.802717 
L 1011.188884 305.137409 
L 1013.585799 303.4721 
L 1015.982715 301.806792 
L 1018.37963 300.141484 
L 1020.776546 298.476176 
L 1023.173461 296.810868 
L 1025.570377 295.145559 
L 1027.967292 293.480251 
L 1030.364208 291.814943 
L 1032.761123 290.149635 
L 1035.158039 288.484327 
L 1037.554954 286.819018 
L 1039.951869 285.15371 
L 1042.348785 283.488402 
L 1044.7457 281.823094 
L 1047.142616 280.157785 
L 1049.539531 278.492477 
L 1051.936447 276.827169 
L 1054.333362 275.161861 
L 1056.730278 273.496553 
L 1059.127193 271.831244 
L 1061.524109 270.165936 
L 1063.921024 268.500628 
L 1066.31794 266.83532 
L 1068.714855 265.170011 
L 1071.111771 263.504703 
L 1073.508686 261.839395 
L 1075.905601 260.174087 
L 1078.302517 258.508779 
L 1080.699432 256.84347 
L 1083.096348 255.178162 
L 1085.493263 253.512854 
L 1087.890179 251.847546 
L 1090.287094 250.182237 
L 1092.68401 248.516929 
L 1095.080925 246.851621 
L 1097.477841 245.186313 
L 1099.874756 243.521005 
L 1102.271672 241.855696 
L 1104.668587 240.190388 
L 1107.065502 238.52508 
L 1109.462418 236.859772 
L 1111.859333 235.194464 
L 1114.256249 233.529155 
L 1116.653164 231.858182 
L 1119.05008 230.167903 
L 1121.446995 228.457049 
L 1123.843911 226.724849 
L 1126.240826 224.970483 
L 1128.637742 223.19308 
L 1131.034657 221.391705 
L 1133.431573 219.565363 
L 1135.828488 217.712986 
L 1138.225404 215.833428 
L 1140.622319 213.925455 
L 1143.019234 211.987738 
L 1145.41615 210.018842 
L 1147.813065 208.017211 
L 1150.209981 205.981157 
L 1152.606896 203.908838 
L 1155.003812 201.798247 
L 1157.400727 199.64718 
L 1159.797643 197.453216 
L 1162.194558 195.213681 
L 1164.591474 192.925612 
L 1166.988389 190.585708 
L 1169.385305 188.19028 
L 1171.78222 185.735177 
L 1174.179135 183.215702 
L 1176.576051 180.626511 
L 1178.972966 177.961474 
L 1181.369882 175.213508 
L 1183.766797 172.374352 
L 1186.163713 169.434278 
L 1188.560628 166.381692 
L 1190.957544 163.202593 
L 1193.354459 159.879814 
L 1195.751375 156.39191 
L 1198.14829 152.711506 
L 1200.545206 148.802705 
L 1202.942121 144.616839 
L 1205.339037 140.085022 
L 1207.735952 135.103988 
L 1210.132867 129.517129 
L 1212.529783 123.667094 
L 1214.926698 117.817058 
L 1217.323614 111.967023 
L 1219.720529 106.116987 
L 1222.117445 100.266951 
L 1224.51436 94.416916 
L 1226.911276 88.56688 
L 1229.308191 82.716845 
L 1231.705107 76.866809 
L 1234.102022 71.016773 
L 1236.498938 65.166738 
L 1238.895853 59.316702 
L 1241.292768 53.466667 
" clip-path="url(#p3c4d8c356f)" style="fill: none; stroke-dasharray: 5.55,2.4; stroke-dashoffset: 0; stroke: #ff7f0e; stroke-width: 1.5"/>
   </g>
   <g id="patch_15">
    <path d="M 967.764706 320.4 
L 967.764706 43.2 
" style="fill: none; stroke: #000000; stroke-width: 0.8; stroke-linejoin: miter; stroke-linecap: square"/>
   </g>
   <g id="patch_16">
    <path d="M 1296 320.4 
L 1296 43.2 
" style="fill: none; stroke: #000000; stroke-width: 0.8; stroke-linejoin: miter; stroke-linecap: square"/>
   </g>
   <g id="patch_17">
    <path d="M 967.764706 320.4 
L 1296 320.4 
" style="fill: none; stroke: #000000; stroke-width: 0.8; stroke-linejoin: miter; stroke-linecap: square"/>
   </g>
   <g id="patch_18">
    <path d="M 967.764706 43.2 
L 1296 43.2 
" style="fill: none; stroke: #000000; stroke-width: 0.8; stroke-linejoin: miter; stroke-linecap: square"/>
   </g>
   <g id="text_51">
    <!--  Block: 2 -->
    <g transform="translate(1106.001728 37.2) scale(0.12 -0.12)">
     <use xlink:href="#DejaVuSans-20"/>
     <use xlink:href="#DejaVuSans-42" x="31.787109"/>
     <use xlink:href="#DejaVuSans-6c" x="100.390625"/>
     <use xlink:href="#DejaVuSans-6f" x="128.173828"/>
     <use xlink:href="#DejaVuSans-63" x="189.355469"/>
     <use xlink:href="#DejaVuSans-6b" x="244.335938"/>
     <use xlink:href="#DejaVuSans-3a" x="302.246094"/>
     <use xlink:href="#DejaVuSans-20" x="335.9375"/>
     <use xlink:href="#DejaVuSans-32" x="367.724609"/>
    </g>
   </g>
   <g id="legend_3">
    <g id="patch_19">
     <path d="M 974.764706 95.5125 
L 1105.964706 95.5125 
Q 1107.964706 95.5125 1107.964706 93.5125 
L 1107.964706 50.2 
Q 1107.964706 48.2 1105.964706 48.2 
L 974.764706 48.2 
Q 972.764706 48.2 972.764706 50.2 
L 972.764706 93.5125 
Q 972.764706 95.5125 974.764706 95.5125 
z
" style="fill: #ffffff; opacity: 0.8; stroke: #cccccc; stroke-linejoin: miter"/>
    </g>
    <g id="PathCollection_6">
     <g>
      <use xlink:href="#m9349b8de03" x="986.764706" y="57.173437" style="stroke: #000000"/>
     </g>
    </g>
    <g id="text_52">
     <!-- Data -->
     <g transform="translate(1004.764706 59.798437) scale(0.1 -0.1)">
      <use xlink:href="#DejaVuSans-44"/>
      <use xlink:href="#DejaVuSans-61" x="77.001953"/>
      <use xlink:href="#DejaVuSans-74" x="138.28125"/>
      <use xlink:href="#DejaVuSans-61" x="177.490234"/>
     </g>
    </g>
    <g id="line2d_89">
     <path d="M 976.764706 70.976562 
L 986.764706 70.976562 
L 996.764706 70.976562 
" style="fill: none; stroke: #1f77b4; stroke-width: 1.5; stroke-linecap: square"/>
    </g>
    <g id="text_53">
     <!-- Artc e:0.2701 -->
     <g transform="translate(1004.764706 74.476562) scale(0.1 -0.1)">
      <defs>
       <path id="DejaVuSans-37" d="M 525 4666 
L 3525 4666 
L 3525 4397 
L 1831 0 
L 1172 0 
L 2766 4134 
L 525 4134 
L 525 4666 
z
" transform="scale(0.015625)"/>
      </defs>
      <use xlink:href="#DejaVuSans-41"/>
      <use xlink:href="#DejaVuSans-72" x="68.408203"/>
      <use xlink:href="#DejaVuSans-74" x="109.521484"/>
      <use xlink:href="#DejaVuSans-63" x="148.730469"/>
      <use xlink:href="#DejaVuSans-20" x="203.710938"/>
      <use xlink:href="#DejaVuSans-65" x="235.498047"/>
      <use xlink:href="#DejaVuSans-3a" x="297.021484"/>
      <use xlink:href="#DejaVuSans-30" x="330.712891"/>
      <use xlink:href="#DejaVuSans-2e" x="394.335938"/>
      <use xlink:href="#DejaVuSans-32" x="426.123047"/>
      <use xlink:href="#DejaVuSans-37" x="489.746094"/>
      <use xlink:href="#DejaVuSans-30" x="553.369141"/>
      <use xlink:href="#DejaVuSans-31" x="616.992188"/>
     </g>
    </g>
    <g id="line2d_90">
     <path d="M 976.764706 85.654687 
L 986.764706 85.654687 
L 996.764706 85.654687 
" style="fill: none; stroke-dasharray: 5.55,2.4; stroke-dashoffset: 0; stroke: #ff7f0e; stroke-width: 1.5"/>
    </g>
    <g id="text_54">
     <!-- NEL_BTUX e:0.2302 -->
     <g transform="translate(1004.764706 89.154687) scale(0.1 -0.1)">
      <use xlink:href="#DejaVuSans-4e"/>
      <use xlink:href="#DejaVuSans-45" x="74.804688"/>
      <use xlink:href="#DejaVuSans-4c" x="137.988281"/>
      <use xlink:href="#DejaVuSans-5f" x="193.701172"/>
      <use xlink:href="#DejaVuSans-42" x="243.701172"/>
      <use xlink:href="#DejaVuSans-54" x="312.304688"/>
      <use xlink:href="#DejaVuSans-55" x="373.388672"/>
      <use xlink:href="#DejaVuSans-58" x="446.582031"/>
      <use xlink:href="#DejaVuSans-20" x="515.087891"/>
      <use xlink:href="#DejaVuSans-65" x="546.875"/>
      <use xlink:href="#DejaVuSans-3a" x="608.398438"/>
      <use xlink:href="#DejaVuSans-30" x="642.089844"/>
      <use xlink:href="#DejaVuSans-2e" x="705.712891"/>
      <use xlink:href="#DejaVuSans-32" x="737.5"/>
      <use xlink:href="#DejaVuSans-33" x="801.123047"/>
      <use xlink:href="#DejaVuSans-30" x="864.746094"/>
      <use xlink:href="#DejaVuSans-32" x="928.369141"/>
     </g>
    </g>
   </g>
  </g>
  <g id="text_55">
   <!-- ID: 3634, Max level: 85dB -->
   <g transform="translate(655.440625 14.798437) scale(0.1 -0.1)">
    <defs>
     <path id="DejaVuSans-49" d="M 628 4666 
L 1259 4666 
L 1259 0 
L 628 0 
L 628 4666 
z
" transform="scale(0.015625)"/>
     <path id="DejaVuSans-2c" d="M 750 794 
L 1409 794 
L 1409 256 
L 897 -744 
L 494 -744 
L 750 256 
L 750 794 
z
" transform="scale(0.015625)"/>
     <path id="DejaVuSans-4d" d="M 628 4666 
L 1569 4666 
L 2759 1491 
L 3956 4666 
L 4897 4666 
L 4897 0 
L 4281 0 
L 4281 4097 
L 3078 897 
L 2444 897 
L 1241 4097 
L 1241 0 
L 628 0 
L 628 4666 
z
" transform="scale(0.015625)"/>
     <path id="DejaVuSans-78" d="M 3513 3500 
L 2247 1797 
L 3578 0 
L 2900 0 
L 1881 1375 
L 863 0 
L 184 0 
L 1544 1831 
L 300 3500 
L 978 3500 
L 1906 2253 
L 2834 3500 
L 3513 3500 
z
" transform="scale(0.015625)"/>
    </defs>
    <use xlink:href="#DejaVuSans-49"/>
    <use xlink:href="#DejaVuSans-44" x="29.492188"/>
    <use xlink:href="#DejaVuSans-3a" x="106.494141"/>
    <use xlink:href="#DejaVuSans-20" x="140.185547"/>
    <use xlink:href="#DejaVuSans-33" x="171.972656"/>
    <use xlink:href="#DejaVuSans-36" x="235.595703"/>
    <use xlink:href="#DejaVuSans-33" x="299.21875"/>
    <use xlink:href="#DejaVuSans-34" x="362.841797"/>
    <use xlink:href="#DejaVuSans-2c" x="426.464844"/>
    <use xlink:href="#DejaVuSans-20" x="458.251953"/>
    <use xlink:href="#DejaVuSans-4d" x="490.039062"/>
    <use xlink:href="#DejaVuSans-61" x="576.318359"/>
    <use xlink:href="#DejaVuSans-78" x="637.597656"/>
    <use xlink:href="#DejaVuSans-20" x="696.777344"/>
    <use xlink:href="#DejaVuSans-6c" x="728.564453"/>
    <use xlink:href="#DejaVuSans-65" x="756.347656"/>
    <use xlink:href="#DejaVuSans-76" x="817.871094"/>
    <use xlink:href="#DejaVuSans-65" x="877.050781"/>
    <use xlink:href="#DejaVuSans-6c" x="938.574219"/>
    <use xlink:href="#DejaVuSans-3a" x="966.357422"/>
    <use xlink:href="#DejaVuSans-20" x="1000.048828"/>
    <use xlink:href="#DejaVuSans-38" x="1031.835938"/>
    <use xlink:href="#DejaVuSans-35" x="1095.458984"/>
    <use xlink:href="#DejaVuSans-64" x="1159.082031"/>
    <use xlink:href="#DejaVuSans-42" x="1222.558594"/>
   </g>
  </g>
 </g>
 <defs>
  <clipPath id="p3fb78d9b97">
   <rect x="180" y="43.2" width="328.235294" height="277.2"/>
  </clipPath>
  <clipPath id="p8237beac39">
   <rect x="573.882353" y="43.2" width="328.235294" height="277.2"/>
  </clipPath>
  <clipPath id="p3c4d8c356f">
   <rect x="967.764706" y="43.2" width="328.235294" height="277.2"/>
  </clipPath>
 </defs>
</svg>
