<?xml version="1.0" encoding="utf-8" standalone="no"?>
<!DOCTYPE svg PUBLIC "-//W3C//DTD SVG 1.1//EN"
  "http://www.w3.org/Graphics/SVG/1.1/DTD/svg11.dtd">
<svg xmlns:xlink="http://www.w3.org/1999/xlink" width="1440pt" height="648pt" viewBox="0 0 1440 648" xmlns="http://www.w3.org/2000/svg" version="1.1">
 <metadata>
  <rdf:RDF xmlns:dc="http://purl.org/dc/elements/1.1/" xmlns:cc="http://creativecommons.org/ns#" xmlns:rdf="http://www.w3.org/1999/02/22-rdf-syntax-ns#">
   <cc:Work>
    <dc:type rdf:resource="http://purl.org/dc/dcmitype/StillImage"/>
    <dc:date>2024-05-16T19:36:33.216283</dc:date>
    <dc:format>image/svg+xml</dc:format>
    <dc:creator>
     <cc:Agent>
      <dc:title>Matplotlib v3.8.0, https://matplotlib.org/</dc:title>
     </cc:Agent>
    </dc:creator>
   </cc:Work>
  </rdf:RDF>
 </metadata>
 <defs>
  <style type="text/css">*{stroke-linejoin: round; stroke-linecap: butt}</style>
 </defs>
 <g id="figure_1">
  <g id="patch_1">
   <path d="M 0 648 
L 1440 648 
L 1440 0 
L 0 0 
z
" style="fill: #ffffff"/>
  </g>
  <g id="axes_1">
   <g id="patch_2">
    <path d="M 180 304.56 
L 508.235294 304.56 
L 508.235294 77.76 
L 180 77.76 
z
" style="fill: #ffffff"/>
   </g>
   <g id="PathCollection_1">
    <defs>
     <path id="me6eca816db" d="M 0 3 
C 0.795609 3 1.55874 2.683901 2.12132 2.12132 
C 2.683901 1.55874 3 0.795609 3 0 
C 3 -0.795609 2.683901 -1.55874 2.12132 -2.12132 
C 1.55874 -2.683901 0.795609 -3 0 -3 
C -0.795609 -3 -1.55874 -2.683901 -2.12132 -2.12132 
C -2.683901 -1.55874 -3 -0.795609 -3 0 
C -3 0.795609 -2.683901 1.55874 -2.12132 2.12132 
C -1.55874 2.683901 -0.795609 3 0 3 
z
" style="stroke: #000000"/>
    </defs>
    <g clip-path="url(#pa0174a4c18)">
     <use xlink:href="#me6eca816db" x="427.785467" y="254.16" style="stroke: #000000"/>
     <use xlink:href="#me6eca816db" x="379.515571" y="212.16" style="stroke: #000000"/>
     <use xlink:href="#me6eca816db" x="331.245675" y="275.16" style="stroke: #000000"/>
     <use xlink:href="#me6eca816db" x="282.975779" y="275.16" style="stroke: #000000"/>
     <use xlink:href="#me6eca816db" x="234.705882" y="296.16" style="stroke: #000000"/>
     <use xlink:href="#me6eca816db" x="250.795848" y="275.16" style="stroke: #000000"/>
     <use xlink:href="#me6eca816db" x="443.875433" y="170.16" style="stroke: #000000"/>
     <use xlink:href="#me6eca816db" x="252.014824" y="296.16" style="stroke: #000000"/>
     <use xlink:href="#me6eca816db" x="299.979976" y="254.16" style="stroke: #000000"/>
     <use xlink:href="#me6eca816db" x="347.945128" y="212.16" style="stroke: #000000"/>
     <use xlink:href="#me6eca816db" x="395.910602" y="170.16" style="stroke: #000000"/>
     <use xlink:href="#me6eca816db" x="443.875433" y="149.16" style="stroke: #000000"/>
     <use xlink:href="#me6eca816db" x="257.532073" y="275.16" style="stroke: #000000"/>
     <use xlink:href="#me6eca816db" x="304.117993" y="254.16" style="stroke: #000000"/>
     <use xlink:href="#me6eca816db" x="350.703913" y="212.16" style="stroke: #000000"/>
     <use xlink:href="#me6eca816db" x="397.290478" y="170.16" style="stroke: #000000"/>
    </g>
   </g>
   <g id="matplotlib.axis_1">
    <g id="xtick_1">
     <g id="line2d_1">
      <path d="M 186.435986 304.56 
L 186.435986 77.76 
" clip-path="url(#pa0174a4c18)" style="fill: none; stroke: #b0b0b0; stroke-width: 0.8; stroke-linecap: square"/>
     </g>
     <g id="line2d_2">
      <defs>
       <path id="m4ecc095951" d="M 0 0 
L 0 3.5 
" style="stroke: #000000; stroke-width: 0.8"/>
      </defs>
      <g>
       <use xlink:href="#m4ecc095951" x="186.435986" y="304.56" style="stroke: #000000; stroke-width: 0.8"/>
      </g>
     </g>
     <g id="text_1">
      <!-- 0 -->
      <g transform="translate(183.254736 319.158437) scale(0.1 -0.1)">
       <defs>
        <path id="DejaVuSans-30" d="M 2034 4250 
Q 1547 4250 1301 3770 
Q 1056 3291 1056 2328 
Q 1056 1369 1301 889 
Q 1547 409 2034 409 
Q 2525 409 2770 889 
Q 3016 1369 3016 2328 
Q 3016 3291 2770 3770 
Q 2525 4250 2034 4250 
z
M 2034 4750 
Q 2819 4750 3233 4129 
Q 3647 3509 3647 2328 
Q 3647 1150 3233 529 
Q 2819 -91 2034 -91 
Q 1250 -91 836 529 
Q 422 1150 422 2328 
Q 422 3509 836 4129 
Q 1250 4750 2034 4750 
z
" transform="scale(0.015625)"/>
       </defs>
       <use xlink:href="#DejaVuSans-30"/>
      </g>
     </g>
    </g>
    <g id="xtick_2">
     <g id="line2d_3">
      <path d="M 250.795848 304.56 
L 250.795848 77.76 
" clip-path="url(#pa0174a4c18)" style="fill: none; stroke: #b0b0b0; stroke-width: 0.8; stroke-linecap: square"/>
     </g>
     <g id="line2d_4">
      <g>
       <use xlink:href="#m4ecc095951" x="250.795848" y="304.56" style="stroke: #000000; stroke-width: 0.8"/>
      </g>
     </g>
     <g id="text_2">
      <!-- 20 -->
      <g transform="translate(244.433348 319.158437) scale(0.1 -0.1)">
       <defs>
        <path id="DejaVuSans-32" d="M 1228 531 
L 3431 531 
L 3431 0 
L 469 0 
L 469 531 
Q 828 903 1448 1529 
Q 2069 2156 2228 2338 
Q 2531 2678 2651 2914 
Q 2772 3150 2772 3378 
Q 2772 3750 2511 3984 
Q 2250 4219 1831 4219 
Q 1534 4219 1204 4116 
Q 875 4013 500 3803 
L 500 4441 
Q 881 4594 1212 4672 
Q 1544 4750 1819 4750 
Q 2544 4750 2975 4387 
Q 3406 4025 3406 3419 
Q 3406 3131 3298 2873 
Q 3191 2616 2906 2266 
Q 2828 2175 2409 1742 
Q 1991 1309 1228 531 
z
" transform="scale(0.015625)"/>
       </defs>
       <use xlink:href="#DejaVuSans-32"/>
       <use xlink:href="#DejaVuSans-30" x="63.623047"/>
      </g>
     </g>
    </g>
    <g id="xtick_3">
     <g id="line2d_5">
      <path d="M 315.155709 304.56 
L 315.155709 77.76 
" clip-path="url(#pa0174a4c18)" style="fill: none; stroke: #b0b0b0; stroke-width: 0.8; stroke-linecap: square"/>
     </g>
     <g id="line2d_6">
      <g>
       <use xlink:href="#m4ecc095951" x="315.155709" y="304.56" style="stroke: #000000; stroke-width: 0.8"/>
      </g>
     </g>
     <g id="text_3">
      <!-- 40 -->
      <g transform="translate(308.793209 319.158437) scale(0.1 -0.1)">
       <defs>
        <path id="DejaVuSans-34" d="M 2419 4116 
L 825 1625 
L 2419 1625 
L 2419 4116 
z
M 2253 4666 
L 3047 4666 
L 3047 1625 
L 3713 1625 
L 3713 1100 
L 3047 1100 
L 3047 0 
L 2419 0 
L 2419 1100 
L 313 1100 
L 313 1709 
L 2253 4666 
z
" transform="scale(0.015625)"/>
       </defs>
       <use xlink:href="#DejaVuSans-34"/>
       <use xlink:href="#DejaVuSans-30" x="63.623047"/>
      </g>
     </g>
    </g>
    <g id="xtick_4">
     <g id="line2d_7">
      <path d="M 379.515571 304.56 
L 379.515571 77.76 
" clip-path="url(#pa0174a4c18)" style="fill: none; stroke: #b0b0b0; stroke-width: 0.8; stroke-linecap: square"/>
     </g>
     <g id="line2d_8">
      <g>
       <use xlink:href="#m4ecc095951" x="379.515571" y="304.56" style="stroke: #000000; stroke-width: 0.8"/>
      </g>
     </g>
     <g id="text_4">
      <!-- 60 -->
      <g transform="translate(373.153071 319.158437) scale(0.1 -0.1)">
       <defs>
        <path id="DejaVuSans-36" d="M 2113 2584 
Q 1688 2584 1439 2293 
Q 1191 2003 1191 1497 
Q 1191 994 1439 701 
Q 1688 409 2113 409 
Q 2538 409 2786 701 
Q 3034 994 3034 1497 
Q 3034 2003 2786 2293 
Q 2538 2584 2113 2584 
z
M 3366 4563 
L 3366 3988 
Q 3128 4100 2886 4159 
Q 2644 4219 2406 4219 
Q 1781 4219 1451 3797 
Q 1122 3375 1075 2522 
Q 1259 2794 1537 2939 
Q 1816 3084 2150 3084 
Q 2853 3084 3261 2657 
Q 3669 2231 3669 1497 
Q 3669 778 3244 343 
Q 2819 -91 2113 -91 
Q 1303 -91 875 529 
Q 447 1150 447 2328 
Q 447 3434 972 4092 
Q 1497 4750 2381 4750 
Q 2619 4750 2861 4703 
Q 3103 4656 3366 4563 
z
" transform="scale(0.015625)"/>
       </defs>
       <use xlink:href="#DejaVuSans-36"/>
       <use xlink:href="#DejaVuSans-30" x="63.623047"/>
      </g>
     </g>
    </g>
    <g id="xtick_5">
     <g id="line2d_9">
      <path d="M 443.875433 304.56 
L 443.875433 77.76 
" clip-path="url(#pa0174a4c18)" style="fill: none; stroke: #b0b0b0; stroke-width: 0.8; stroke-linecap: square"/>
     </g>
     <g id="line2d_10">
      <g>
       <use xlink:href="#m4ecc095951" x="443.875433" y="304.56" style="stroke: #000000; stroke-width: 0.8"/>
      </g>
     </g>
     <g id="text_5">
      <!-- 80 -->
      <g transform="translate(437.512933 319.158437) scale(0.1 -0.1)">
       <defs>
        <path id="DejaVuSans-38" d="M 2034 2216 
Q 1584 2216 1326 1975 
Q 1069 1734 1069 1313 
Q 1069 891 1326 650 
Q 1584 409 2034 409 
Q 2484 409 2743 651 
Q 3003 894 3003 1313 
Q 3003 1734 2745 1975 
Q 2488 2216 2034 2216 
z
M 1403 2484 
Q 997 2584 770 2862 
Q 544 3141 544 3541 
Q 544 4100 942 4425 
Q 1341 4750 2034 4750 
Q 2731 4750 3128 4425 
Q 3525 4100 3525 3541 
Q 3525 3141 3298 2862 
Q 3072 2584 2669 2484 
Q 3125 2378 3379 2068 
Q 3634 1759 3634 1313 
Q 3634 634 3220 271 
Q 2806 -91 2034 -91 
Q 1263 -91 848 271 
Q 434 634 434 1313 
Q 434 1759 690 2068 
Q 947 2378 1403 2484 
z
M 1172 3481 
Q 1172 3119 1398 2916 
Q 1625 2713 2034 2713 
Q 2441 2713 2670 2916 
Q 2900 3119 2900 3481 
Q 2900 3844 2670 4047 
Q 2441 4250 2034 4250 
Q 1625 4250 1398 4047 
Q 1172 3844 1172 3481 
z
" transform="scale(0.015625)"/>
       </defs>
       <use xlink:href="#DejaVuSans-38"/>
       <use xlink:href="#DejaVuSans-30" x="63.623047"/>
      </g>
     </g>
    </g>
    <g id="xtick_6">
     <g id="line2d_11">
      <path d="M 508.235294 304.56 
L 508.235294 77.76 
" clip-path="url(#pa0174a4c18)" style="fill: none; stroke: #b0b0b0; stroke-width: 0.8; stroke-linecap: square"/>
     </g>
     <g id="line2d_12">
      <g>
       <use xlink:href="#m4ecc095951" x="508.235294" y="304.56" style="stroke: #000000; stroke-width: 0.8"/>
      </g>
     </g>
     <g id="text_6">
      <!-- 100 -->
      <g transform="translate(498.691544 319.158437) scale(0.1 -0.1)">
       <defs>
        <path id="DejaVuSans-31" d="M 794 531 
L 1825 531 
L 1825 4091 
L 703 3866 
L 703 4441 
L 1819 4666 
L 2450 4666 
L 2450 531 
L 3481 531 
L 3481 0 
L 794 0 
L 794 531 
z
" transform="scale(0.015625)"/>
       </defs>
       <use xlink:href="#DejaVuSans-31"/>
       <use xlink:href="#DejaVuSans-30" x="63.623047"/>
       <use xlink:href="#DejaVuSans-30" x="127.246094"/>
      </g>
     </g>
    </g>
   </g>
   <g id="matplotlib.axis_2">
    <g id="ytick_1">
     <g id="line2d_13">
      <path d="M 180 296.16 
L 508.235294 296.16 
" clip-path="url(#pa0174a4c18)" style="fill: none; stroke: #b0b0b0; stroke-width: 0.8; stroke-linecap: square"/>
     </g>
     <g id="line2d_14">
      <defs>
       <path id="mee74ee01e3" d="M 0 0 
L -3.5 0 
" style="stroke: #000000; stroke-width: 0.8"/>
      </defs>
      <g>
       <use xlink:href="#mee74ee01e3" x="180" y="296.16" style="stroke: #000000; stroke-width: 0.8"/>
      </g>
     </g>
     <g id="text_7">
      <!-- 0 -->
      <g transform="translate(166.6375 299.959219) scale(0.1 -0.1)">
       <use xlink:href="#DejaVuSans-30"/>
      </g>
     </g>
    </g>
    <g id="ytick_2">
     <g id="line2d_15">
      <path d="M 180 254.16 
L 508.235294 254.16 
" clip-path="url(#pa0174a4c18)" style="fill: none; stroke: #b0b0b0; stroke-width: 0.8; stroke-linecap: square"/>
     </g>
     <g id="line2d_16">
      <g>
       <use xlink:href="#mee74ee01e3" x="180" y="254.16" style="stroke: #000000; stroke-width: 0.8"/>
      </g>
     </g>
     <g id="text_8">
      <!-- 10 -->
      <g transform="translate(160.275 257.959219) scale(0.1 -0.1)">
       <use xlink:href="#DejaVuSans-31"/>
       <use xlink:href="#DejaVuSans-30" x="63.623047"/>
      </g>
     </g>
    </g>
    <g id="ytick_3">
     <g id="line2d_17">
      <path d="M 180 212.16 
L 508.235294 212.16 
" clip-path="url(#pa0174a4c18)" style="fill: none; stroke: #b0b0b0; stroke-width: 0.8; stroke-linecap: square"/>
     </g>
     <g id="line2d_18">
      <g>
       <use xlink:href="#mee74ee01e3" x="180" y="212.16" style="stroke: #000000; stroke-width: 0.8"/>
      </g>
     </g>
     <g id="text_9">
      <!-- 20 -->
      <g transform="translate(160.275 215.959219) scale(0.1 -0.1)">
       <use xlink:href="#DejaVuSans-32"/>
       <use xlink:href="#DejaVuSans-30" x="63.623047"/>
      </g>
     </g>
    </g>
    <g id="ytick_4">
     <g id="line2d_19">
      <path d="M 180 170.16 
L 508.235294 170.16 
" clip-path="url(#pa0174a4c18)" style="fill: none; stroke: #b0b0b0; stroke-width: 0.8; stroke-linecap: square"/>
     </g>
     <g id="line2d_20">
      <g>
       <use xlink:href="#mee74ee01e3" x="180" y="170.16" style="stroke: #000000; stroke-width: 0.8"/>
      </g>
     </g>
     <g id="text_10">
      <!-- 30 -->
      <g transform="translate(160.275 173.959219) scale(0.1 -0.1)">
       <defs>
        <path id="DejaVuSans-33" d="M 2597 2516 
Q 3050 2419 3304 2112 
Q 3559 1806 3559 1356 
Q 3559 666 3084 287 
Q 2609 -91 1734 -91 
Q 1441 -91 1130 -33 
Q 819 25 488 141 
L 488 750 
Q 750 597 1062 519 
Q 1375 441 1716 441 
Q 2309 441 2620 675 
Q 2931 909 2931 1356 
Q 2931 1769 2642 2001 
Q 2353 2234 1838 2234 
L 1294 2234 
L 1294 2753 
L 1863 2753 
Q 2328 2753 2575 2939 
Q 2822 3125 2822 3475 
Q 2822 3834 2567 4026 
Q 2313 4219 1838 4219 
Q 1578 4219 1281 4162 
Q 984 4106 628 3988 
L 628 4550 
Q 988 4650 1302 4700 
Q 1616 4750 1894 4750 
Q 2613 4750 3031 4423 
Q 3450 4097 3450 3541 
Q 3450 3153 3228 2886 
Q 3006 2619 2597 2516 
z
" transform="scale(0.015625)"/>
       </defs>
       <use xlink:href="#DejaVuSans-33"/>
       <use xlink:href="#DejaVuSans-30" x="63.623047"/>
      </g>
     </g>
    </g>
    <g id="ytick_5">
     <g id="line2d_21">
      <path d="M 180 128.16 
L 508.235294 128.16 
" clip-path="url(#pa0174a4c18)" style="fill: none; stroke: #b0b0b0; stroke-width: 0.8; stroke-linecap: square"/>
     </g>
     <g id="line2d_22">
      <g>
       <use xlink:href="#mee74ee01e3" x="180" y="128.16" style="stroke: #000000; stroke-width: 0.8"/>
      </g>
     </g>
     <g id="text_11">
      <!-- 40 -->
      <g transform="translate(160.275 131.959219) scale(0.1 -0.1)">
       <use xlink:href="#DejaVuSans-34"/>
       <use xlink:href="#DejaVuSans-30" x="63.623047"/>
      </g>
     </g>
    </g>
    <g id="ytick_6">
     <g id="line2d_23">
      <path d="M 180 86.16 
L 508.235294 86.16 
" clip-path="url(#pa0174a4c18)" style="fill: none; stroke: #b0b0b0; stroke-width: 0.8; stroke-linecap: square"/>
     </g>
     <g id="line2d_24">
      <g>
       <use xlink:href="#mee74ee01e3" x="180" y="86.16" style="stroke: #000000; stroke-width: 0.8"/>
      </g>
     </g>
     <g id="text_12">
      <!-- 50 -->
      <g transform="translate(160.275 89.959219) scale(0.1 -0.1)">
       <defs>
        <path id="DejaVuSans-35" d="M 691 4666 
L 3169 4666 
L 3169 4134 
L 1269 4134 
L 1269 2991 
Q 1406 3038 1543 3061 
Q 1681 3084 1819 3084 
Q 2600 3084 3056 2656 
Q 3513 2228 3513 1497 
Q 3513 744 3044 326 
Q 2575 -91 1722 -91 
Q 1428 -91 1123 -41 
Q 819 9 494 109 
L 494 744 
Q 775 591 1075 516 
Q 1375 441 1709 441 
Q 2250 441 2565 725 
Q 2881 1009 2881 1497 
Q 2881 1984 2565 2268 
Q 2250 2553 1709 2553 
Q 1456 2553 1204 2497 
Q 953 2441 691 2322 
L 691 4666 
z
" transform="scale(0.015625)"/>
       </defs>
       <use xlink:href="#DejaVuSans-35"/>
       <use xlink:href="#DejaVuSans-30" x="63.623047"/>
      </g>
     </g>
    </g>
   </g>
   <g id="line2d_25">
    <path d="M 154.256055 191.16 
L 572.595156 191.16 
" clip-path="url(#pa0174a4c18)" style="fill: none; stroke-dasharray: 1.5,2.475; stroke-dashoffset: 0; stroke: #808080; stroke-width: 1.5"/>
   </g>
   <g id="line2d_26">
    <path d="M 443.875433 338.16 
L 443.875433 2.16 
" clip-path="url(#pa0174a4c18)" style="fill: none; stroke-dasharray: 5.55,2.4; stroke-dashoffset: 0; stroke: #ff0000; stroke-opacity: 0.3; stroke-width: 1.5"/>
   </g>
   <g id="line2d_27">
    <path d="M 226.771274 296.16 
L 229.614345 294.662935 
L 232.457416 293.165871 
L 235.300488 291.668806 
L 238.143559 290.171742 
L 240.98663 288.674677 
L 243.829701 287.177612 
L 246.672772 285.680548 
L 249.515843 284.183483 
L 252.358914 282.686419 
L 255.201985 281.189354 
L 258.045056 279.692289 
L 260.888127 278.195225 
L 263.731198 276.69816 
L 266.574269 275.201096 
L 269.41734 273.704031 
L 272.260411 272.206966 
L 275.103482 270.709902 
L 277.946553 269.212837 
L 280.789624 267.715773 
L 283.632695 266.218708 
L 286.475766 264.721644 
L 289.318837 263.224579 
L 292.161908 261.727514 
L 295.004979 260.23045 
L 297.84805 258.733385 
L 300.691121 257.236321 
L 303.534192 255.739256 
L 306.377264 254.242191 
L 309.220335 252.745127 
L 312.063406 251.248062 
L 314.906477 249.750998 
L 317.749548 248.253933 
L 320.592619 246.756868 
L 323.43569 245.259804 
L 326.278761 243.762739 
L 329.121832 242.265675 
L 331.964903 240.76861 
L 334.807974 239.271545 
L 337.651045 237.774481 
L 340.494116 236.277416 
L 343.337187 234.780352 
L 346.180258 233.283287 
L 349.023329 231.779547 
L 351.8664 230.259692 
L 354.709471 228.723137 
L 357.552542 227.169317 
L 360.395613 225.597637 
L 363.238684 224.007468 
L 366.081755 222.398141 
L 368.924826 220.768946 
L 371.767897 219.119129 
L 374.610968 217.447886 
L 377.454039 215.75436 
L 380.297111 214.037636 
L 383.140182 212.296733 
L 385.983253 210.530599 
L 388.826324 208.738106 
L 391.669395 206.918036 
L 394.512466 205.069075 
L 397.355537 203.189803 
L 400.198608 201.278679 
L 403.041679 199.334025 
L 405.88475 197.354012 
L 408.727821 195.336639 
L 411.570892 193.279706 
L 414.413963 191.180793 
L 417.257034 189.037217 
L 420.100105 186.846002 
L 422.943176 184.60382 
L 425.786247 182.306943 
L 428.629318 179.951159 
L 431.472389 177.531691 
L 434.31546 175.043076 
L 437.158531 172.479024 
L 440.001602 169.832226 
L 442.844673 167.094116 
L 445.687744 164.254534 
L 448.530815 161.301287 
L 451.373886 158.219523 
L 454.216958 154.990843 
L 457.060029 151.59199 
L 459.9031 148.004428 
L 462.746171 144.36652 
L 465.589242 140.728613 
L 468.432313 137.090705 
L 471.275384 133.452798 
L 474.118455 129.81489 
L 476.961526 126.176983 
L 479.804597 122.539075 
L 482.647668 118.901168 
L 485.490739 115.26326 
L 488.33381 111.625353 
L 491.176881 107.987445 
L 494.019952 104.349538 
L 496.863023 100.71163 
L 499.706094 97.073723 
L 502.549165 93.435815 
L 505.392236 89.797908 
L 508.235307 86.16 
" clip-path="url(#pa0174a4c18)" style="fill: none; stroke: #1f77b4; stroke-width: 1.5; stroke-linecap: square"/>
   </g>
   <g id="line2d_28">
    <path d="M 232.541802 296.16 
L 234.878397 294.787388 
L 237.214992 293.414776 
L 239.551587 292.042164 
L 241.888182 290.669552 
L 244.224777 289.29694 
L 246.561372 287.924328 
L 248.897967 286.551716 
L 251.234562 285.179104 
L 253.571157 283.806492 
L 255.907752 282.43388 
L 258.244347 281.061268 
L 260.580942 279.688656 
L 262.917537 278.316044 
L 265.254132 276.943432 
L 267.590727 275.57082 
L 269.927322 274.198208 
L 272.263917 272.825596 
L 274.600512 271.452984 
L 276.937107 270.080373 
L 279.273702 268.707761 
L 281.610297 267.335149 
L 283.946892 265.962537 
L 286.283487 264.589925 
L 288.620083 263.217313 
L 290.956678 261.844701 
L 293.293273 260.472089 
L 295.629868 259.099477 
L 297.966463 257.726865 
L 300.303058 256.354253 
L 302.639653 254.981641 
L 304.976248 253.609029 
L 307.312843 252.236417 
L 309.649438 250.863805 
L 311.986033 249.491193 
L 314.322628 248.118581 
L 316.659223 246.745969 
L 318.995818 245.373357 
L 321.332413 244.000745 
L 323.669008 242.628133 
L 326.005603 241.255521 
L 328.342198 239.882909 
L 330.678793 238.510297 
L 333.015388 237.137685 
L 335.351983 235.765073 
L 337.688578 234.392461 
L 340.025173 233.019767 
L 342.361768 231.637499 
L 344.698363 230.238773 
L 347.034958 228.822988 
L 349.371553 227.389503 
L 351.708148 225.937638 
L 354.044743 224.466666 
L 356.381338 222.975814 
L 358.717933 221.464252 
L 361.054528 219.931092 
L 363.391123 218.375383 
L 365.727718 216.796097 
L 368.064313 215.192131 
L 370.400908 213.562289 
L 372.737503 211.905276 
L 375.074098 210.219688 
L 377.410693 208.503992 
L 379.747289 206.756516 
L 382.083884 204.975424 
L 384.420479 203.158699 
L 386.757074 201.304113 
L 389.093669 199.409195 
L 391.430264 197.471193 
L 393.766859 195.487028 
L 396.103454 193.453235 
L 398.440049 191.365892 
L 400.776644 189.220533 
L 403.113239 187.012033 
L 405.449834 184.734465 
L 407.786429 182.380914 
L 410.123024 179.943226 
L 412.459619 177.411674 
L 414.796214 174.774503 
L 417.132809 172.017273 
L 419.469404 169.121922 
L 421.805999 166.065346 
L 424.142594 162.817176 
L 426.479189 159.336115 
L 428.815784 155.563475 
L 431.152379 151.410795 
L 433.488974 146.817208 
L 435.825569 142.151269 
L 438.162164 137.48533 
L 440.498759 132.819391 
L 442.835354 128.153452 
L 445.171949 123.487513 
L 447.508544 118.821573 
L 449.845139 114.155634 
L 452.181734 109.489695 
L 454.518329 104.823756 
L 456.854924 100.157817 
L 459.191519 95.491878 
L 461.528114 90.825939 
L 463.864709 86.16 
" clip-path="url(#pa0174a4c18)" style="fill: none; stroke-dasharray: 5.55,2.4; stroke-dashoffset: 0; stroke: #ff7f0e; stroke-width: 1.5"/>
   </g>
   <g id="patch_3">
    <path d="M 180 304.56 
L 180 77.76 
" style="fill: none; stroke: #000000; stroke-width: 0.8; stroke-linejoin: miter; stroke-linecap: square"/>
   </g>
   <g id="patch_4">
    <path d="M 508.235294 304.56 
L 508.235294 77.76 
" style="fill: none; stroke: #000000; stroke-width: 0.8; stroke-linejoin: miter; stroke-linecap: square"/>
   </g>
   <g id="patch_5">
    <path d="M 180 304.56 
L 508.235294 304.56 
" style="fill: none; stroke: #000000; stroke-width: 0.8; stroke-linejoin: miter; stroke-linecap: square"/>
   </g>
   <g id="patch_6">
    <path d="M 180 77.76 
L 508.235294 77.76 
" style="fill: none; stroke: #000000; stroke-width: 0.8; stroke-linejoin: miter; stroke-linecap: square"/>
   </g>
   <g id="text_13">
    <!--  Block: 0 -->
    <g transform="translate(318.237022 71.76) scale(0.12 -0.12)">
     <defs>
      <path id="DejaVuSans-20" transform="scale(0.015625)"/>
      <path id="DejaVuSans-42" d="M 1259 2228 
L 1259 519 
L 2272 519 
Q 2781 519 3026 730 
Q 3272 941 3272 1375 
Q 3272 1813 3026 2020 
Q 2781 2228 2272 2228 
L 1259 2228 
z
M 1259 4147 
L 1259 2741 
L 2194 2741 
Q 2656 2741 2882 2914 
Q 3109 3088 3109 3444 
Q 3109 3797 2882 3972 
Q 2656 4147 2194 4147 
L 1259 4147 
z
M 628 4666 
L 2241 4666 
Q 2963 4666 3353 4366 
Q 3744 4066 3744 3513 
Q 3744 3084 3544 2831 
Q 3344 2578 2956 2516 
Q 3422 2416 3680 2098 
Q 3938 1781 3938 1306 
Q 3938 681 3513 340 
Q 3088 0 2303 0 
L 628 0 
L 628 4666 
z
" transform="scale(0.015625)"/>
      <path id="DejaVuSans-6c" d="M 603 4863 
L 1178 4863 
L 1178 0 
L 603 0 
L 603 4863 
z
" transform="scale(0.015625)"/>
      <path id="DejaVuSans-6f" d="M 1959 3097 
Q 1497 3097 1228 2736 
Q 959 2375 959 1747 
Q 959 1119 1226 758 
Q 1494 397 1959 397 
Q 2419 397 2687 759 
Q 2956 1122 2956 1747 
Q 2956 2369 2687 2733 
Q 2419 3097 1959 3097 
z
M 1959 3584 
Q 2709 3584 3137 3096 
Q 3566 2609 3566 1747 
Q 3566 888 3137 398 
Q 2709 -91 1959 -91 
Q 1206 -91 779 398 
Q 353 888 353 1747 
Q 353 2609 779 3096 
Q 1206 3584 1959 3584 
z
" transform="scale(0.015625)"/>
      <path id="DejaVuSans-63" d="M 3122 3366 
L 3122 2828 
Q 2878 2963 2633 3030 
Q 2388 3097 2138 3097 
Q 1578 3097 1268 2742 
Q 959 2388 959 1747 
Q 959 1106 1268 751 
Q 1578 397 2138 397 
Q 2388 397 2633 464 
Q 2878 531 3122 666 
L 3122 134 
Q 2881 22 2623 -34 
Q 2366 -91 2075 -91 
Q 1284 -91 818 406 
Q 353 903 353 1747 
Q 353 2603 823 3093 
Q 1294 3584 2113 3584 
Q 2378 3584 2631 3529 
Q 2884 3475 3122 3366 
z
" transform="scale(0.015625)"/>
      <path id="DejaVuSans-6b" d="M 581 4863 
L 1159 4863 
L 1159 1991 
L 2875 3500 
L 3609 3500 
L 1753 1863 
L 3688 0 
L 2938 0 
L 1159 1709 
L 1159 0 
L 581 0 
L 581 4863 
z
" transform="scale(0.015625)"/>
      <path id="DejaVuSans-3a" d="M 750 794 
L 1409 794 
L 1409 0 
L 750 0 
L 750 794 
z
M 750 3309 
L 1409 3309 
L 1409 2516 
L 750 2516 
L 750 3309 
z
" transform="scale(0.015625)"/>
     </defs>
     <use xlink:href="#DejaVuSans-20"/>
     <use xlink:href="#DejaVuSans-42" x="31.787109"/>
     <use xlink:href="#DejaVuSans-6c" x="100.390625"/>
     <use xlink:href="#DejaVuSans-6f" x="128.173828"/>
     <use xlink:href="#DejaVuSans-63" x="189.355469"/>
     <use xlink:href="#DejaVuSans-6b" x="244.335938"/>
     <use xlink:href="#DejaVuSans-3a" x="302.246094"/>
     <use xlink:href="#DejaVuSans-20" x="335.9375"/>
     <use xlink:href="#DejaVuSans-30" x="367.724609"/>
    </g>
   </g>
   <g id="legend_1">
    <g id="patch_7">
     <path d="M 187 130.0725 
L 318.2 130.0725 
Q 320.2 130.0725 320.2 128.0725 
L 320.2 84.76 
Q 320.2 82.76 318.2 82.76 
L 187 82.76 
Q 185 82.76 185 84.76 
L 185 128.0725 
Q 185 130.0725 187 130.0725 
z
" style="fill: #ffffff; opacity: 0.8; stroke: #cccccc; stroke-linejoin: miter"/>
    </g>
    <g id="PathCollection_2">
     <g>
      <use xlink:href="#me6eca816db" x="199" y="91.733438" style="stroke: #000000"/>
     </g>
    </g>
    <g id="text_14">
     <!-- Data -->
     <g transform="translate(217 94.358438) scale(0.1 -0.1)">
      <defs>
       <path id="DejaVuSans-44" d="M 1259 4147 
L 1259 519 
L 2022 519 
Q 2988 519 3436 956 
Q 3884 1394 3884 2338 
Q 3884 3275 3436 3711 
Q 2988 4147 2022 4147 
L 1259 4147 
z
M 628 4666 
L 1925 4666 
Q 3281 4666 3915 4102 
Q 4550 3538 4550 2338 
Q 4550 1131 3912 565 
Q 3275 0 1925 0 
L 628 0 
L 628 4666 
z
" transform="scale(0.015625)"/>
       <path id="DejaVuSans-61" d="M 2194 1759 
Q 1497 1759 1228 1600 
Q 959 1441 959 1056 
Q 959 750 1161 570 
Q 1363 391 1709 391 
Q 2188 391 2477 730 
Q 2766 1069 2766 1631 
L 2766 1759 
L 2194 1759 
z
M 3341 1997 
L 3341 0 
L 2766 0 
L 2766 531 
Q 2569 213 2275 61 
Q 1981 -91 1556 -91 
Q 1019 -91 701 211 
Q 384 513 384 1019 
Q 384 1609 779 1909 
Q 1175 2209 1959 2209 
L 2766 2209 
L 2766 2266 
Q 2766 2663 2505 2880 
Q 2244 3097 1772 3097 
Q 1472 3097 1187 3025 
Q 903 2953 641 2809 
L 641 3341 
Q 956 3463 1253 3523 
Q 1550 3584 1831 3584 
Q 2591 3584 2966 3190 
Q 3341 2797 3341 1997 
z
" transform="scale(0.015625)"/>
       <path id="DejaVuSans-74" d="M 1172 4494 
L 1172 3500 
L 2356 3500 
L 2356 3053 
L 1172 3053 
L 1172 1153 
Q 1172 725 1289 603 
Q 1406 481 1766 481 
L 2356 481 
L 2356 0 
L 1766 0 
Q 1100 0 847 248 
Q 594 497 594 1153 
L 594 3053 
L 172 3053 
L 172 3500 
L 594 3500 
L 594 4494 
L 1172 4494 
z
" transform="scale(0.015625)"/>
      </defs>
      <use xlink:href="#DejaVuSans-44"/>
      <use xlink:href="#DejaVuSans-61" x="77.001953"/>
      <use xlink:href="#DejaVuSans-74" x="138.28125"/>
      <use xlink:href="#DejaVuSans-61" x="177.490234"/>
     </g>
    </g>
    <g id="line2d_29">
     <path d="M 189 105.536563 
L 199 105.536563 
L 209 105.536563 
" style="fill: none; stroke: #1f77b4; stroke-width: 1.5; stroke-linecap: square"/>
    </g>
    <g id="text_15">
     <!-- Artc e:0.3766 -->
     <g transform="translate(217 109.036563) scale(0.1 -0.1)">
      <defs>
       <path id="DejaVuSans-41" d="M 2188 4044 
L 1331 1722 
L 3047 1722 
L 2188 4044 
z
M 1831 4666 
L 2547 4666 
L 4325 0 
L 3669 0 
L 3244 1197 
L 1141 1197 
L 716 0 
L 50 0 
L 1831 4666 
z
" transform="scale(0.015625)"/>
       <path id="DejaVuSans-72" d="M 2631 2963 
Q 2534 3019 2420 3045 
Q 2306 3072 2169 3072 
Q 1681 3072 1420 2755 
Q 1159 2438 1159 1844 
L 1159 0 
L 581 0 
L 581 3500 
L 1159 3500 
L 1159 2956 
Q 1341 3275 1631 3429 
Q 1922 3584 2338 3584 
Q 2397 3584 2469 3576 
Q 2541 3569 2628 3553 
L 2631 2963 
z
" transform="scale(0.015625)"/>
       <path id="DejaVuSans-65" d="M 3597 1894 
L 3597 1613 
L 953 1613 
Q 991 1019 1311 708 
Q 1631 397 2203 397 
Q 2534 397 2845 478 
Q 3156 559 3463 722 
L 3463 178 
Q 3153 47 2828 -22 
Q 2503 -91 2169 -91 
Q 1331 -91 842 396 
Q 353 884 353 1716 
Q 353 2575 817 3079 
Q 1281 3584 2069 3584 
Q 2775 3584 3186 3129 
Q 3597 2675 3597 1894 
z
M 3022 2063 
Q 3016 2534 2758 2815 
Q 2500 3097 2075 3097 
Q 1594 3097 1305 2825 
Q 1016 2553 972 2059 
L 3022 2063 
z
" transform="scale(0.015625)"/>
       <path id="DejaVuSans-2e" d="M 684 794 
L 1344 794 
L 1344 0 
L 684 0 
L 684 794 
z
" transform="scale(0.015625)"/>
       <path id="DejaVuSans-37" d="M 525 4666 
L 3525 4666 
L 3525 4397 
L 1831 0 
L 1172 0 
L 2766 4134 
L 525 4134 
L 525 4666 
z
" transform="scale(0.015625)"/>
      </defs>
      <use xlink:href="#DejaVuSans-41"/>
      <use xlink:href="#DejaVuSans-72" x="68.408203"/>
      <use xlink:href="#DejaVuSans-74" x="109.521484"/>
      <use xlink:href="#DejaVuSans-63" x="148.730469"/>
      <use xlink:href="#DejaVuSans-20" x="203.710938"/>
      <use xlink:href="#DejaVuSans-65" x="235.498047"/>
      <use xlink:href="#DejaVuSans-3a" x="297.021484"/>
      <use xlink:href="#DejaVuSans-30" x="330.712891"/>
      <use xlink:href="#DejaVuSans-2e" x="394.335938"/>
      <use xlink:href="#DejaVuSans-33" x="426.123047"/>
      <use xlink:href="#DejaVuSans-37" x="489.746094"/>
      <use xlink:href="#DejaVuSans-36" x="553.369141"/>
      <use xlink:href="#DejaVuSans-36" x="616.992188"/>
     </g>
    </g>
    <g id="line2d_30">
     <path d="M 189 120.214688 
L 199 120.214688 
L 209 120.214688 
" style="fill: none; stroke-dasharray: 5.55,2.4; stroke-dashoffset: 0; stroke: #ff7f0e; stroke-width: 1.5"/>
    </g>
    <g id="text_16">
     <!-- NEL_BTUX e:0.4576 -->
     <g transform="translate(217 123.714688) scale(0.1 -0.1)">
      <defs>
       <path id="DejaVuSans-4e" d="M 628 4666 
L 1478 4666 
L 3547 763 
L 3547 4666 
L 4159 4666 
L 4159 0 
L 3309 0 
L 1241 3903 
L 1241 0 
L 628 0 
L 628 4666 
z
" transform="scale(0.015625)"/>
       <path id="DejaVuSans-45" d="M 628 4666 
L 3578 4666 
L 3578 4134 
L 1259 4134 
L 1259 2753 
L 3481 2753 
L 3481 2222 
L 1259 2222 
L 1259 531 
L 3634 531 
L 3634 0 
L 628 0 
L 628 4666 
z
" transform="scale(0.015625)"/>
       <path id="DejaVuSans-4c" d="M 628 4666 
L 1259 4666 
L 1259 531 
L 3531 531 
L 3531 0 
L 628 0 
L 628 4666 
z
" transform="scale(0.015625)"/>
       <path id="DejaVuSans-5f" d="M 3263 -1063 
L 3263 -1509 
L -63 -1509 
L -63 -1063 
L 3263 -1063 
z
" transform="scale(0.015625)"/>
       <path id="DejaVuSans-54" d="M -19 4666 
L 3928 4666 
L 3928 4134 
L 2272 4134 
L 2272 0 
L 1638 0 
L 1638 4134 
L -19 4134 
L -19 4666 
z
" transform="scale(0.015625)"/>
       <path id="DejaVuSans-55" d="M 556 4666 
L 1191 4666 
L 1191 1831 
Q 1191 1081 1462 751 
Q 1734 422 2344 422 
Q 2950 422 3222 751 
Q 3494 1081 3494 1831 
L 3494 4666 
L 4128 4666 
L 4128 1753 
Q 4128 841 3676 375 
Q 3225 -91 2344 -91 
Q 1459 -91 1007 375 
Q 556 841 556 1753 
L 556 4666 
z
" transform="scale(0.015625)"/>
       <path id="DejaVuSans-58" d="M 403 4666 
L 1081 4666 
L 2241 2931 
L 3406 4666 
L 4084 4666 
L 2584 2425 
L 4184 0 
L 3506 0 
L 2194 1984 
L 872 0 
L 191 0 
L 1856 2491 
L 403 4666 
z
" transform="scale(0.015625)"/>
      </defs>
      <use xlink:href="#DejaVuSans-4e"/>
      <use xlink:href="#DejaVuSans-45" x="74.804688"/>
      <use xlink:href="#DejaVuSans-4c" x="137.988281"/>
      <use xlink:href="#DejaVuSans-5f" x="193.701172"/>
      <use xlink:href="#DejaVuSans-42" x="243.701172"/>
      <use xlink:href="#DejaVuSans-54" x="312.304688"/>
      <use xlink:href="#DejaVuSans-55" x="373.388672"/>
      <use xlink:href="#DejaVuSans-58" x="446.582031"/>
      <use xlink:href="#DejaVuSans-20" x="515.087891"/>
      <use xlink:href="#DejaVuSans-65" x="546.875"/>
      <use xlink:href="#DejaVuSans-3a" x="608.398438"/>
      <use xlink:href="#DejaVuSans-30" x="642.089844"/>
      <use xlink:href="#DejaVuSans-2e" x="705.712891"/>
      <use xlink:href="#DejaVuSans-34" x="737.5"/>
      <use xlink:href="#DejaVuSans-35" x="801.123047"/>
      <use xlink:href="#DejaVuSans-37" x="864.746094"/>
      <use xlink:href="#DejaVuSans-36" x="928.369141"/>
     </g>
    </g>
   </g>
  </g>
  <g id="axes_2">
   <g id="patch_8">
    <path d="M 573.882353 304.56 
L 902.117647 304.56 
L 902.117647 77.76 
L 573.882353 77.76 
z
" style="fill: #ffffff"/>
   </g>
   <g id="PathCollection_3">
    <g clip-path="url(#p9a17b6cb83)">
     <use xlink:href="#me6eca816db" x="821.66782" y="128.16" style="stroke: #000000"/>
     <use xlink:href="#me6eca816db" x="773.397924" y="212.16" style="stroke: #000000"/>
     <use xlink:href="#me6eca816db" x="725.128028" y="233.16" style="stroke: #000000"/>
     <use xlink:href="#me6eca816db" x="676.858131" y="254.16" style="stroke: #000000"/>
     <use xlink:href="#me6eca816db" x="628.588235" y="275.16" style="stroke: #000000"/>
     <use xlink:href="#me6eca816db" x="580.318339" y="296.16" style="stroke: #000000"/>
     <use xlink:href="#me6eca816db" x="596.408304" y="296.16" style="stroke: #000000"/>
     <use xlink:href="#me6eca816db" x="612.49827" y="296.16" style="stroke: #000000"/>
     <use xlink:href="#me6eca816db" x="628.588235" y="275.16" style="stroke: #000000"/>
     <use xlink:href="#me6eca816db" x="680.883197" y="254.16" style="stroke: #000000"/>
     <use xlink:href="#me6eca816db" x="733.174619" y="212.16" style="stroke: #000000"/>
     <use xlink:href="#me6eca816db" x="837.757785" y="128.16" style="stroke: #000000"/>
     <use xlink:href="#me6eca816db" x="785.466363" y="212.16" style="stroke: #000000"/>
     <use xlink:href="#me6eca816db" x="628.591453" y="275.16" style="stroke: #000000"/>
     <use xlink:href="#me6eca816db" x="688.691014" y="254.16" style="stroke: #000000"/>
     <use xlink:href="#me6eca816db" x="837.757785" y="170.16" style="stroke: #000000"/>
     <use xlink:href="#me6eca816db" x="639.002304" y="275.16" style="stroke: #000000"/>
     <use xlink:href="#me6eca816db" x="738.380045" y="233.16" style="stroke: #000000"/>
     <use xlink:href="#me6eca816db" x="788.069076" y="191.16" style="stroke: #000000"/>
    </g>
   </g>
   <g id="matplotlib.axis_3">
    <g id="xtick_7">
     <g id="line2d_31">
      <path d="M 580.318339 304.56 
L 580.318339 77.76 
" clip-path="url(#p9a17b6cb83)" style="fill: none; stroke: #b0b0b0; stroke-width: 0.8; stroke-linecap: square"/>
     </g>
     <g id="line2d_32">
      <g>
       <use xlink:href="#m4ecc095951" x="580.318339" y="304.56" style="stroke: #000000; stroke-width: 0.8"/>
      </g>
     </g>
     <g id="text_17">
      <!-- 0 -->
      <g transform="translate(577.137089 319.158437) scale(0.1 -0.1)">
       <use xlink:href="#DejaVuSans-30"/>
      </g>
     </g>
    </g>
    <g id="xtick_8">
     <g id="line2d_33">
      <path d="M 644.678201 304.56 
L 644.678201 77.76 
" clip-path="url(#p9a17b6cb83)" style="fill: none; stroke: #b0b0b0; stroke-width: 0.8; stroke-linecap: square"/>
     </g>
     <g id="line2d_34">
      <g>
       <use xlink:href="#m4ecc095951" x="644.678201" y="304.56" style="stroke: #000000; stroke-width: 0.8"/>
      </g>
     </g>
     <g id="text_18">
      <!-- 20 -->
      <g transform="translate(638.315701 319.158437) scale(0.1 -0.1)">
       <use xlink:href="#DejaVuSans-32"/>
       <use xlink:href="#DejaVuSans-30" x="63.623047"/>
      </g>
     </g>
    </g>
    <g id="xtick_9">
     <g id="line2d_35">
      <path d="M 709.038062 304.56 
L 709.038062 77.76 
" clip-path="url(#p9a17b6cb83)" style="fill: none; stroke: #b0b0b0; stroke-width: 0.8; stroke-linecap: square"/>
     </g>
     <g id="line2d_36">
      <g>
       <use xlink:href="#m4ecc095951" x="709.038062" y="304.56" style="stroke: #000000; stroke-width: 0.8"/>
      </g>
     </g>
     <g id="text_19">
      <!-- 40 -->
      <g transform="translate(702.675562 319.158437) scale(0.1 -0.1)">
       <use xlink:href="#DejaVuSans-34"/>
       <use xlink:href="#DejaVuSans-30" x="63.623047"/>
      </g>
     </g>
    </g>
    <g id="xtick_10">
     <g id="line2d_37">
      <path d="M 773.397924 304.56 
L 773.397924 77.76 
" clip-path="url(#p9a17b6cb83)" style="fill: none; stroke: #b0b0b0; stroke-width: 0.8; stroke-linecap: square"/>
     </g>
     <g id="line2d_38">
      <g>
       <use xlink:href="#m4ecc095951" x="773.397924" y="304.56" style="stroke: #000000; stroke-width: 0.8"/>
      </g>
     </g>
     <g id="text_20">
      <!-- 60 -->
      <g transform="translate(767.035424 319.158437) scale(0.1 -0.1)">
       <use xlink:href="#DejaVuSans-36"/>
       <use xlink:href="#DejaVuSans-30" x="63.623047"/>
      </g>
     </g>
    </g>
    <g id="xtick_11">
     <g id="line2d_39">
      <path d="M 837.757785 304.56 
L 837.757785 77.76 
" clip-path="url(#p9a17b6cb83)" style="fill: none; stroke: #b0b0b0; stroke-width: 0.8; stroke-linecap: square"/>
     </g>
     <g id="line2d_40">
      <g>
       <use xlink:href="#m4ecc095951" x="837.757785" y="304.56" style="stroke: #000000; stroke-width: 0.8"/>
      </g>
     </g>
     <g id="text_21">
      <!-- 80 -->
      <g transform="translate(831.395285 319.158437) scale(0.1 -0.1)">
       <use xlink:href="#DejaVuSans-38"/>
       <use xlink:href="#DejaVuSans-30" x="63.623047"/>
      </g>
     </g>
    </g>
    <g id="xtick_12">
     <g id="line2d_41">
      <path d="M 902.117647 304.56 
L 902.117647 77.76 
" clip-path="url(#p9a17b6cb83)" style="fill: none; stroke: #b0b0b0; stroke-width: 0.8; stroke-linecap: square"/>
     </g>
     <g id="line2d_42">
      <g>
       <use xlink:href="#m4ecc095951" x="902.117647" y="304.56" style="stroke: #000000; stroke-width: 0.8"/>
      </g>
     </g>
     <g id="text_22">
      <!-- 100 -->
      <g transform="translate(892.573897 319.158437) scale(0.1 -0.1)">
       <use xlink:href="#DejaVuSans-31"/>
       <use xlink:href="#DejaVuSans-30" x="63.623047"/>
       <use xlink:href="#DejaVuSans-30" x="127.246094"/>
      </g>
     </g>
    </g>
   </g>
   <g id="matplotlib.axis_4">
    <g id="ytick_7">
     <g id="line2d_43">
      <path d="M 573.882353 296.16 
L 902.117647 296.16 
" clip-path="url(#p9a17b6cb83)" style="fill: none; stroke: #b0b0b0; stroke-width: 0.8; stroke-linecap: square"/>
     </g>
     <g id="line2d_44">
      <g>
       <use xlink:href="#mee74ee01e3" x="573.882353" y="296.16" style="stroke: #000000; stroke-width: 0.8"/>
      </g>
     </g>
     <g id="text_23">
      <!-- 0 -->
      <g transform="translate(560.519853 299.959219) scale(0.1 -0.1)">
       <use xlink:href="#DejaVuSans-30"/>
      </g>
     </g>
    </g>
    <g id="ytick_8">
     <g id="line2d_45">
      <path d="M 573.882353 254.16 
L 902.117647 254.16 
" clip-path="url(#p9a17b6cb83)" style="fill: none; stroke: #b0b0b0; stroke-width: 0.8; stroke-linecap: square"/>
     </g>
     <g id="line2d_46">
      <g>
       <use xlink:href="#mee74ee01e3" x="573.882353" y="254.16" style="stroke: #000000; stroke-width: 0.8"/>
      </g>
     </g>
     <g id="text_24">
      <!-- 10 -->
      <g transform="translate(554.157353 257.959219) scale(0.1 -0.1)">
       <use xlink:href="#DejaVuSans-31"/>
       <use xlink:href="#DejaVuSans-30" x="63.623047"/>
      </g>
     </g>
    </g>
    <g id="ytick_9">
     <g id="line2d_47">
      <path d="M 573.882353 212.16 
L 902.117647 212.16 
" clip-path="url(#p9a17b6cb83)" style="fill: none; stroke: #b0b0b0; stroke-width: 0.8; stroke-linecap: square"/>
     </g>
     <g id="line2d_48">
      <g>
       <use xlink:href="#mee74ee01e3" x="573.882353" y="212.16" style="stroke: #000000; stroke-width: 0.8"/>
      </g>
     </g>
     <g id="text_25">
      <!-- 20 -->
      <g transform="translate(554.157353 215.959219) scale(0.1 -0.1)">
       <use xlink:href="#DejaVuSans-32"/>
       <use xlink:href="#DejaVuSans-30" x="63.623047"/>
      </g>
     </g>
    </g>
    <g id="ytick_10">
     <g id="line2d_49">
      <path d="M 573.882353 170.16 
L 902.117647 170.16 
" clip-path="url(#p9a17b6cb83)" style="fill: none; stroke: #b0b0b0; stroke-width: 0.8; stroke-linecap: square"/>
     </g>
     <g id="line2d_50">
      <g>
       <use xlink:href="#mee74ee01e3" x="573.882353" y="170.16" style="stroke: #000000; stroke-width: 0.8"/>
      </g>
     </g>
     <g id="text_26">
      <!-- 30 -->
      <g transform="translate(554.157353 173.959219) scale(0.1 -0.1)">
       <use xlink:href="#DejaVuSans-33"/>
       <use xlink:href="#DejaVuSans-30" x="63.623047"/>
      </g>
     </g>
    </g>
    <g id="ytick_11">
     <g id="line2d_51">
      <path d="M 573.882353 128.16 
L 902.117647 128.16 
" clip-path="url(#p9a17b6cb83)" style="fill: none; stroke: #b0b0b0; stroke-width: 0.8; stroke-linecap: square"/>
     </g>
     <g id="line2d_52">
      <g>
       <use xlink:href="#mee74ee01e3" x="573.882353" y="128.16" style="stroke: #000000; stroke-width: 0.8"/>
      </g>
     </g>
     <g id="text_27">
      <!-- 40 -->
      <g transform="translate(554.157353 131.959219) scale(0.1 -0.1)">
       <use xlink:href="#DejaVuSans-34"/>
       <use xlink:href="#DejaVuSans-30" x="63.623047"/>
      </g>
     </g>
    </g>
    <g id="ytick_12">
     <g id="line2d_53">
      <path d="M 573.882353 86.16 
L 902.117647 86.16 
" clip-path="url(#p9a17b6cb83)" style="fill: none; stroke: #b0b0b0; stroke-width: 0.8; stroke-linecap: square"/>
     </g>
     <g id="line2d_54">
      <g>
       <use xlink:href="#mee74ee01e3" x="573.882353" y="86.16" style="stroke: #000000; stroke-width: 0.8"/>
      </g>
     </g>
     <g id="text_28">
      <!-- 50 -->
      <g transform="translate(554.157353 89.959219) scale(0.1 -0.1)">
       <use xlink:href="#DejaVuSans-35"/>
       <use xlink:href="#DejaVuSans-30" x="63.623047"/>
      </g>
     </g>
    </g>
   </g>
   <g id="line2d_55">
    <path d="M 548.138408 191.16 
L 966.477509 191.16 
" clip-path="url(#p9a17b6cb83)" style="fill: none; stroke-dasharray: 1.5,2.475; stroke-dashoffset: 0; stroke: #808080; stroke-width: 1.5"/>
   </g>
   <g id="line2d_56">
    <path d="M 837.757785 338.16 
L 837.757785 2.16 
" clip-path="url(#p9a17b6cb83)" style="fill: none; stroke-dasharray: 5.55,2.4; stroke-dashoffset: 0; stroke: #ff0000; stroke-opacity: 0.3; stroke-width: 1.5"/>
   </g>
   <g id="line2d_57">
    <path d="M 600.832109 296.16 
L 603.875398 294.511198 
L 606.918686 292.862397 
L 609.961974 291.213595 
L 613.005262 289.564794 
L 616.048551 287.915992 
L 619.091839 286.267191 
L 622.135127 284.618389 
L 625.178415 282.969588 
L 628.221704 281.320786 
L 631.264992 279.671985 
L 634.30828 278.023183 
L 637.351568 276.374382 
L 640.394857 274.72558 
L 643.438145 273.076779 
L 646.481433 271.427977 
L 649.524721 269.779176 
L 652.56801 268.130374 
L 655.611298 266.481573 
L 658.654586 264.832771 
L 661.697874 263.18397 
L 664.741163 261.535168 
L 667.784451 259.886367 
L 670.827739 258.237565 
L 673.871027 256.588764 
L 676.914316 254.939962 
L 679.957604 253.291161 
L 683.000892 251.642359 
L 686.04418 249.993558 
L 689.087469 248.344756 
L 692.130757 246.695955 
L 695.174045 245.047153 
L 698.217333 243.398352 
L 701.260622 241.74955 
L 704.30391 240.100749 
L 707.347198 238.451947 
L 710.390486 236.803146 
L 713.433775 235.154344 
L 716.477063 233.505543 
L 719.520351 231.852206 
L 722.563639 230.184466 
L 725.606928 228.501603 
L 728.650216 226.803201 
L 731.693504 225.08882 
L 734.736792 223.358 
L 737.780081 221.61026 
L 740.823369 219.845093 
L 743.866657 218.061967 
L 746.909945 216.260323 
L 749.953234 214.439572 
L 752.996522 212.599091 
L 756.03981 210.738227 
L 759.083098 208.856286 
L 762.126387 206.952535 
L 765.169675 205.026198 
L 768.212963 203.076452 
L 771.256251 201.102422 
L 774.29954 199.103176 
L 777.342828 197.077724 
L 780.386116 195.025008 
L 783.429404 192.943894 
L 786.472693 190.833172 
L 789.515981 188.691541 
L 792.559269 186.517601 
L 795.602557 184.309844 
L 798.645846 182.066642 
L 801.689134 179.78623 
L 804.732422 177.466693 
L 807.77571 175.105946 
L 810.818999 172.701709 
L 813.862287 170.251488 
L 816.905575 167.752539 
L 819.948863 165.201833 
L 822.992152 162.596015 
L 826.03544 159.931349 
L 829.078728 157.20366 
L 832.122016 154.408251 
L 835.165305 151.539815 
L 838.208593 148.59385 
L 841.251881 145.620809 
L 844.295169 142.647769 
L 847.338458 139.674728 
L 850.381746 136.701688 
L 853.425034 133.728647 
L 856.468322 130.755607 
L 859.511611 127.782566 
L 862.554899 124.809526 
L 865.598187 121.836486 
L 868.641475 118.863445 
L 871.684764 115.890405 
L 874.728052 112.917364 
L 877.77134 109.944324 
L 880.814628 106.971283 
L 883.857917 103.998243 
L 886.901205 101.025202 
L 889.944493 98.052162 
L 892.987781 95.079121 
L 896.03107 92.106081 
L 899.074358 89.13304 
L 902.117646 86.16 
" clip-path="url(#p9a17b6cb83)" style="fill: none; stroke: #1f77b4; stroke-width: 1.5; stroke-linecap: square"/>
   </g>
   <g id="line2d_58">
    <path d="M 598.862228 296.16 
L 601.482453 294.829748 
L 604.102678 293.499496 
L 606.722902 292.169244 
L 609.343127 290.838992 
L 611.963352 289.50874 
L 614.583577 288.178488 
L 617.203802 286.848236 
L 619.824027 285.517984 
L 622.444252 284.187732 
L 625.064477 282.85748 
L 627.684702 281.527228 
L 630.304927 280.196976 
L 632.925151 278.866724 
L 635.545376 277.536472 
L 638.165601 276.206221 
L 640.785826 274.875969 
L 643.406051 273.545717 
L 646.026276 272.215465 
L 648.646501 270.885213 
L 651.266726 269.554961 
L 653.886951 268.224709 
L 656.507175 266.894457 
L 659.1274 265.564205 
L 661.747625 264.233953 
L 664.36785 262.903701 
L 666.988075 261.573449 
L 669.6083 260.243197 
L 672.228525 258.912945 
L 674.84875 257.582693 
L 677.468975 256.252441 
L 680.0892 254.922189 
L 682.709424 253.591937 
L 685.329649 252.261685 
L 687.949874 250.931433 
L 690.570099 249.601181 
L 693.190324 248.270929 
L 695.810549 246.940677 
L 698.430774 245.610425 
L 701.050999 244.280173 
L 703.671224 242.949921 
L 706.291448 241.619669 
L 708.911673 240.289417 
L 711.531898 238.959165 
L 714.152123 237.628913 
L 716.772348 236.298662 
L 719.392573 234.96841 
L 722.012798 233.638158 
L 724.633023 232.304658 
L 727.253248 230.956092 
L 729.873473 229.590853 
L 732.493697 228.208307 
L 735.113922 226.807778 
L 737.734147 225.388546 
L 740.354372 223.949841 
L 742.974597 222.490839 
L 745.594822 221.010655 
L 748.215047 219.50834 
L 750.835272 217.982869 
L 753.455497 216.433138 
L 756.075722 214.857952 
L 758.695946 213.256013 
L 761.316171 211.625909 
L 763.936396 209.966102 
L 766.556621 208.274905 
L 769.176846 206.550468 
L 771.797071 204.790749 
L 774.417296 202.993491 
L 777.037521 201.156182 
L 779.657746 199.27602 
L 782.27797 197.349859 
L 784.898195 195.374148 
L 787.51842 193.344854 
L 790.138645 191.257364 
L 792.75887 189.106366 
L 795.379095 186.885684 
L 797.99932 184.588073 
L 800.619545 182.204935 
L 803.23977 179.725944 
L 805.859995 177.138509 
L 808.480219 174.427017 
L 811.100444 171.571703 
L 813.720669 168.54692 
L 816.340894 165.318351 
L 818.961119 161.838248 
L 821.581344 158.036672 
L 824.201569 153.803639 
L 826.821794 148.947824 
L 829.442019 143.715505 
L 832.062244 138.483186 
L 834.682468 133.250868 
L 837.302693 128.018549 
L 839.922918 122.78623 
L 842.543143 117.553912 
L 845.163368 112.321593 
L 847.783593 107.089275 
L 850.403818 101.856956 
L 853.024043 96.624637 
L 855.644268 91.392319 
L 858.264492 86.16 
" clip-path="url(#p9a17b6cb83)" style="fill: none; stroke-dasharray: 5.55,2.4; stroke-dashoffset: 0; stroke: #ff7f0e; stroke-width: 1.5"/>
   </g>
   <g id="patch_9">
    <path d="M 573.882353 304.56 
L 573.882353 77.76 
" style="fill: none; stroke: #000000; stroke-width: 0.8; stroke-linejoin: miter; stroke-linecap: square"/>
   </g>
   <g id="patch_10">
    <path d="M 902.117647 304.56 
L 902.117647 77.76 
" style="fill: none; stroke: #000000; stroke-width: 0.8; stroke-linejoin: miter; stroke-linecap: square"/>
   </g>
   <g id="patch_11">
    <path d="M 573.882353 304.56 
L 902.117647 304.56 
" style="fill: none; stroke: #000000; stroke-width: 0.8; stroke-linejoin: miter; stroke-linecap: square"/>
   </g>
   <g id="patch_12">
    <path d="M 573.882353 77.76 
L 902.117647 77.76 
" style="fill: none; stroke: #000000; stroke-width: 0.8; stroke-linejoin: miter; stroke-linecap: square"/>
   </g>
   <g id="text_29">
    <!--  Block: 1 -->
    <g transform="translate(712.119375 71.76) scale(0.12 -0.12)">
     <use xlink:href="#DejaVuSans-20"/>
     <use xlink:href="#DejaVuSans-42" x="31.787109"/>
     <use xlink:href="#DejaVuSans-6c" x="100.390625"/>
     <use xlink:href="#DejaVuSans-6f" x="128.173828"/>
     <use xlink:href="#DejaVuSans-63" x="189.355469"/>
     <use xlink:href="#DejaVuSans-6b" x="244.335938"/>
     <use xlink:href="#DejaVuSans-3a" x="302.246094"/>
     <use xlink:href="#DejaVuSans-20" x="335.9375"/>
     <use xlink:href="#DejaVuSans-31" x="367.724609"/>
    </g>
   </g>
   <g id="legend_2">
    <g id="patch_13">
     <path d="M 580.882353 130.0725 
L 712.082353 130.0725 
Q 714.082353 130.0725 714.082353 128.0725 
L 714.082353 84.76 
Q 714.082353 82.76 712.082353 82.76 
L 580.882353 82.76 
Q 578.882353 82.76 578.882353 84.76 
L 578.882353 128.0725 
Q 578.882353 130.0725 580.882353 130.0725 
z
" style="fill: #ffffff; opacity: 0.8; stroke: #cccccc; stroke-linejoin: miter"/>
    </g>
    <g id="PathCollection_4">
     <g>
      <use xlink:href="#me6eca816db" x="592.882353" y="91.733438" style="stroke: #000000"/>
     </g>
    </g>
    <g id="text_30">
     <!-- Data -->
     <g transform="translate(610.882353 94.358438) scale(0.1 -0.1)">
      <use xlink:href="#DejaVuSans-44"/>
      <use xlink:href="#DejaVuSans-61" x="77.001953"/>
      <use xlink:href="#DejaVuSans-74" x="138.28125"/>
      <use xlink:href="#DejaVuSans-61" x="177.490234"/>
     </g>
    </g>
    <g id="line2d_59">
     <path d="M 582.882353 105.536563 
L 592.882353 105.536563 
L 602.882353 105.536563 
" style="fill: none; stroke: #1f77b4; stroke-width: 1.5; stroke-linecap: square"/>
    </g>
    <g id="text_31">
     <!-- Artc e:0.1663 -->
     <g transform="translate(610.882353 109.036563) scale(0.1 -0.1)">
      <use xlink:href="#DejaVuSans-41"/>
      <use xlink:href="#DejaVuSans-72" x="68.408203"/>
      <use xlink:href="#DejaVuSans-74" x="109.521484"/>
      <use xlink:href="#DejaVuSans-63" x="148.730469"/>
      <use xlink:href="#DejaVuSans-20" x="203.710938"/>
      <use xlink:href="#DejaVuSans-65" x="235.498047"/>
      <use xlink:href="#DejaVuSans-3a" x="297.021484"/>
      <use xlink:href="#DejaVuSans-30" x="330.712891"/>
      <use xlink:href="#DejaVuSans-2e" x="394.335938"/>
      <use xlink:href="#DejaVuSans-31" x="426.123047"/>
      <use xlink:href="#DejaVuSans-36" x="489.746094"/>
      <use xlink:href="#DejaVuSans-36" x="553.369141"/>
      <use xlink:href="#DejaVuSans-33" x="616.992188"/>
     </g>
    </g>
    <g id="line2d_60">
     <path d="M 582.882353 120.214688 
L 592.882353 120.214688 
L 602.882353 120.214688 
" style="fill: none; stroke-dasharray: 5.55,2.4; stroke-dashoffset: 0; stroke: #ff7f0e; stroke-width: 1.5"/>
    </g>
    <g id="text_32">
     <!-- NEL_BTUX e:0.1745 -->
     <g transform="translate(610.882353 123.714688) scale(0.1 -0.1)">
      <use xlink:href="#DejaVuSans-4e"/>
      <use xlink:href="#DejaVuSans-45" x="74.804688"/>
      <use xlink:href="#DejaVuSans-4c" x="137.988281"/>
      <use xlink:href="#DejaVuSans-5f" x="193.701172"/>
      <use xlink:href="#DejaVuSans-42" x="243.701172"/>
      <use xlink:href="#DejaVuSans-54" x="312.304688"/>
      <use xlink:href="#DejaVuSans-55" x="373.388672"/>
      <use xlink:href="#DejaVuSans-58" x="446.582031"/>
      <use xlink:href="#DejaVuSans-20" x="515.087891"/>
      <use xlink:href="#DejaVuSans-65" x="546.875"/>
      <use xlink:href="#DejaVuSans-3a" x="608.398438"/>
      <use xlink:href="#DejaVuSans-30" x="642.089844"/>
      <use xlink:href="#DejaVuSans-2e" x="705.712891"/>
      <use xlink:href="#DejaVuSans-31" x="737.5"/>
      <use xlink:href="#DejaVuSans-37" x="801.123047"/>
      <use xlink:href="#DejaVuSans-34" x="864.746094"/>
      <use xlink:href="#DejaVuSans-35" x="928.369141"/>
     </g>
    </g>
   </g>
  </g>
  <g id="axes_3">
   <g id="patch_14">
    <path d="M 967.764706 304.56 
L 1296 304.56 
L 1296 77.76 
L 967.764706 77.76 
z
" style="fill: #ffffff"/>
   </g>
   <g id="PathCollection_5">
    <g clip-path="url(#p06dcd69ddc)">
     <use xlink:href="#me6eca816db" x="1215.550173" y="128.16" style="stroke: #000000"/>
     <use xlink:href="#me6eca816db" x="1167.280277" y="191.16" style="stroke: #000000"/>
     <use xlink:href="#me6eca816db" x="1119.010381" y="233.16" style="stroke: #000000"/>
     <use xlink:href="#me6eca816db" x="1070.740484" y="254.16" style="stroke: #000000"/>
     <use xlink:href="#me6eca816db" x="1022.470588" y="275.16" style="stroke: #000000"/>
     <use xlink:href="#me6eca816db" x="974.200692" y="296.16" style="stroke: #000000"/>
     <use xlink:href="#me6eca816db" x="990.290657" y="296.16" style="stroke: #000000"/>
     <use xlink:href="#me6eca816db" x="1006.380623" y="296.16" style="stroke: #000000"/>
     <use xlink:href="#me6eca816db" x="1022.470588" y="296.16" style="stroke: #000000"/>
     <use xlink:href="#me6eca816db" x="1038.560554" y="275.16" style="stroke: #000000"/>
     <use xlink:href="#me6eca816db" x="1086.825301" y="254.16" style="stroke: #000000"/>
     <use xlink:href="#me6eca816db" x="1038.553796" y="275.16" style="stroke: #000000"/>
     <use xlink:href="#me6eca816db" x="1183.368633" y="170.16" style="stroke: #000000"/>
     <use xlink:href="#me6eca816db" x="1231.640138" y="128.16" style="stroke: #000000"/>
     <use xlink:href="#me6eca816db" x="1135.096806" y="191.16" style="stroke: #000000"/>
     <use xlink:href="#me6eca816db" x="1042.749093" y="275.16" style="stroke: #000000"/>
     <use xlink:href="#me6eca816db" x="1231.640138" y="128.16" style="stroke: #000000"/>
     <use xlink:href="#me6eca816db" x="1184.417377" y="191.16" style="stroke: #000000"/>
     <use xlink:href="#me6eca816db" x="1137.194616" y="233.16" style="stroke: #000000"/>
     <use xlink:href="#me6eca816db" x="1089.971855" y="254.16" style="stroke: #000000"/>
    </g>
   </g>
   <g id="matplotlib.axis_5">
    <g id="xtick_13">
     <g id="line2d_61">
      <path d="M 974.200692 304.56 
L 974.200692 77.76 
" clip-path="url(#p06dcd69ddc)" style="fill: none; stroke: #b0b0b0; stroke-width: 0.8; stroke-linecap: square"/>
     </g>
     <g id="line2d_62">
      <g>
       <use xlink:href="#m4ecc095951" x="974.200692" y="304.56" style="stroke: #000000; stroke-width: 0.8"/>
      </g>
     </g>
     <g id="text_33">
      <!-- 0 -->
      <g transform="translate(971.019442 319.158437) scale(0.1 -0.1)">
       <use xlink:href="#DejaVuSans-30"/>
      </g>
     </g>
    </g>
    <g id="xtick_14">
     <g id="line2d_63">
      <path d="M 1038.560554 304.56 
L 1038.560554 77.76 
" clip-path="url(#p06dcd69ddc)" style="fill: none; stroke: #b0b0b0; stroke-width: 0.8; stroke-linecap: square"/>
     </g>
     <g id="line2d_64">
      <g>
       <use xlink:href="#m4ecc095951" x="1038.560554" y="304.56" style="stroke: #000000; stroke-width: 0.8"/>
      </g>
     </g>
     <g id="text_34">
      <!-- 20 -->
      <g transform="translate(1032.198054 319.158437) scale(0.1 -0.1)">
       <use xlink:href="#DejaVuSans-32"/>
       <use xlink:href="#DejaVuSans-30" x="63.623047"/>
      </g>
     </g>
    </g>
    <g id="xtick_15">
     <g id="line2d_65">
      <path d="M 1102.920415 304.56 
L 1102.920415 77.76 
" clip-path="url(#p06dcd69ddc)" style="fill: none; stroke: #b0b0b0; stroke-width: 0.8; stroke-linecap: square"/>
     </g>
     <g id="line2d_66">
      <g>
       <use xlink:href="#m4ecc095951" x="1102.920415" y="304.56" style="stroke: #000000; stroke-width: 0.8"/>
      </g>
     </g>
     <g id="text_35">
      <!-- 40 -->
      <g transform="translate(1096.557915 319.158437) scale(0.1 -0.1)">
       <use xlink:href="#DejaVuSans-34"/>
       <use xlink:href="#DejaVuSans-30" x="63.623047"/>
      </g>
     </g>
    </g>
    <g id="xtick_16">
     <g id="line2d_67">
      <path d="M 1167.280277 304.56 
L 1167.280277 77.76 
" clip-path="url(#p06dcd69ddc)" style="fill: none; stroke: #b0b0b0; stroke-width: 0.8; stroke-linecap: square"/>
     </g>
     <g id="line2d_68">
      <g>
       <use xlink:href="#m4ecc095951" x="1167.280277" y="304.56" style="stroke: #000000; stroke-width: 0.8"/>
      </g>
     </g>
     <g id="text_36">
      <!-- 60 -->
      <g transform="translate(1160.917777 319.158437) scale(0.1 -0.1)">
       <use xlink:href="#DejaVuSans-36"/>
       <use xlink:href="#DejaVuSans-30" x="63.623047"/>
      </g>
     </g>
    </g>
    <g id="xtick_17">
     <g id="line2d_69">
      <path d="M 1231.640138 304.56 
L 1231.640138 77.76 
" clip-path="url(#p06dcd69ddc)" style="fill: none; stroke: #b0b0b0; stroke-width: 0.8; stroke-linecap: square"/>
     </g>
     <g id="line2d_70">
      <g>
       <use xlink:href="#m4ecc095951" x="1231.640138" y="304.56" style="stroke: #000000; stroke-width: 0.8"/>
      </g>
     </g>
     <g id="text_37">
      <!-- 80 -->
      <g transform="translate(1225.277638 319.158437) scale(0.1 -0.1)">
       <use xlink:href="#DejaVuSans-38"/>
       <use xlink:href="#DejaVuSans-30" x="63.623047"/>
      </g>
     </g>
    </g>
    <g id="xtick_18">
     <g id="line2d_71">
      <path d="M 1296 304.56 
L 1296 77.76 
" clip-path="url(#p06dcd69ddc)" style="fill: none; stroke: #b0b0b0; stroke-width: 0.8; stroke-linecap: square"/>
     </g>
     <g id="line2d_72">
      <g>
       <use xlink:href="#m4ecc095951" x="1296" y="304.56" style="stroke: #000000; stroke-width: 0.8"/>
      </g>
     </g>
     <g id="text_38">
      <!-- 100 -->
      <g transform="translate(1286.45625 319.158437) scale(0.1 -0.1)">
       <use xlink:href="#DejaVuSans-31"/>
       <use xlink:href="#DejaVuSans-30" x="63.623047"/>
       <use xlink:href="#DejaVuSans-30" x="127.246094"/>
      </g>
     </g>
    </g>
   </g>
   <g id="matplotlib.axis_6">
    <g id="ytick_13">
     <g id="line2d_73">
      <path d="M 967.764706 296.16 
L 1296 296.16 
" clip-path="url(#p06dcd69ddc)" style="fill: none; stroke: #b0b0b0; stroke-width: 0.8; stroke-linecap: square"/>
     </g>
     <g id="line2d_74">
      <g>
       <use xlink:href="#mee74ee01e3" x="967.764706" y="296.16" style="stroke: #000000; stroke-width: 0.8"/>
      </g>
     </g>
     <g id="text_39">
      <!-- 0 -->
      <g transform="translate(954.402206 299.959219) scale(0.1 -0.1)">
       <use xlink:href="#DejaVuSans-30"/>
      </g>
     </g>
    </g>
    <g id="ytick_14">
     <g id="line2d_75">
      <path d="M 967.764706 254.16 
L 1296 254.16 
" clip-path="url(#p06dcd69ddc)" style="fill: none; stroke: #b0b0b0; stroke-width: 0.8; stroke-linecap: square"/>
     </g>
     <g id="line2d_76">
      <g>
       <use xlink:href="#mee74ee01e3" x="967.764706" y="254.16" style="stroke: #000000; stroke-width: 0.8"/>
      </g>
     </g>
     <g id="text_40">
      <!-- 10 -->
      <g transform="translate(948.039706 257.959219) scale(0.1 -0.1)">
       <use xlink:href="#DejaVuSans-31"/>
       <use xlink:href="#DejaVuSans-30" x="63.623047"/>
      </g>
     </g>
    </g>
    <g id="ytick_15">
     <g id="line2d_77">
      <path d="M 967.764706 212.16 
L 1296 212.16 
" clip-path="url(#p06dcd69ddc)" style="fill: none; stroke: #b0b0b0; stroke-width: 0.8; stroke-linecap: square"/>
     </g>
     <g id="line2d_78">
      <g>
       <use xlink:href="#mee74ee01e3" x="967.764706" y="212.16" style="stroke: #000000; stroke-width: 0.8"/>
      </g>
     </g>
     <g id="text_41">
      <!-- 20 -->
      <g transform="translate(948.039706 215.959219) scale(0.1 -0.1)">
       <use xlink:href="#DejaVuSans-32"/>
       <use xlink:href="#DejaVuSans-30" x="63.623047"/>
      </g>
     </g>
    </g>
    <g id="ytick_16">
     <g id="line2d_79">
      <path d="M 967.764706 170.16 
L 1296 170.16 
" clip-path="url(#p06dcd69ddc)" style="fill: none; stroke: #b0b0b0; stroke-width: 0.8; stroke-linecap: square"/>
     </g>
     <g id="line2d_80">
      <g>
       <use xlink:href="#mee74ee01e3" x="967.764706" y="170.16" style="stroke: #000000; stroke-width: 0.8"/>
      </g>
     </g>
     <g id="text_42">
      <!-- 30 -->
      <g transform="translate(948.039706 173.959219) scale(0.1 -0.1)">
       <use xlink:href="#DejaVuSans-33"/>
       <use xlink:href="#DejaVuSans-30" x="63.623047"/>
      </g>
     </g>
    </g>
    <g id="ytick_17">
     <g id="line2d_81">
      <path d="M 967.764706 128.16 
L 1296 128.16 
" clip-path="url(#p06dcd69ddc)" style="fill: none; stroke: #b0b0b0; stroke-width: 0.8; stroke-linecap: square"/>
     </g>
     <g id="line2d_82">
      <g>
       <use xlink:href="#mee74ee01e3" x="967.764706" y="128.16" style="stroke: #000000; stroke-width: 0.8"/>
      </g>
     </g>
     <g id="text_43">
      <!-- 40 -->
      <g transform="translate(948.039706 131.959219) scale(0.1 -0.1)">
       <use xlink:href="#DejaVuSans-34"/>
       <use xlink:href="#DejaVuSans-30" x="63.623047"/>
      </g>
     </g>
    </g>
    <g id="ytick_18">
     <g id="line2d_83">
      <path d="M 967.764706 86.16 
L 1296 86.16 
" clip-path="url(#p06dcd69ddc)" style="fill: none; stroke: #b0b0b0; stroke-width: 0.8; stroke-linecap: square"/>
     </g>
     <g id="line2d_84">
      <g>
       <use xlink:href="#mee74ee01e3" x="967.764706" y="86.16" style="stroke: #000000; stroke-width: 0.8"/>
      </g>
     </g>
     <g id="text_44">
      <!-- 50 -->
      <g transform="translate(948.039706 89.959219) scale(0.1 -0.1)">
       <use xlink:href="#DejaVuSans-35"/>
       <use xlink:href="#DejaVuSans-30" x="63.623047"/>
      </g>
     </g>
    </g>
   </g>
   <g id="line2d_85">
    <path d="M 942.020761 191.16 
L 1360.359862 191.16 
" clip-path="url(#p06dcd69ddc)" style="fill: none; stroke-dasharray: 1.5,2.475; stroke-dashoffset: 0; stroke: #808080; stroke-width: 1.5"/>
   </g>
   <g id="line2d_86">
    <path d="M 1231.640138 338.16 
L 1231.640138 2.16 
" clip-path="url(#p06dcd69ddc)" style="fill: none; stroke-dasharray: 5.55,2.4; stroke-dashoffset: 0; stroke: #ff0000; stroke-opacity: 0.3; stroke-width: 1.5"/>
   </g>
   <g id="line2d_87">
    <path d="M 1011.90124 296.16 
L 1014.770924 294.220762 
L 1017.640609 292.281525 
L 1020.510293 290.342287 
L 1023.379978 288.40305 
L 1026.249662 286.463812 
L 1029.119347 284.524575 
L 1031.989031 282.585337 
L 1034.858716 280.646099 
L 1037.7284 278.706862 
L 1040.598084 276.767624 
L 1043.467769 274.828387 
L 1046.337453 272.889149 
L 1049.207138 270.949912 
L 1052.076822 269.010674 
L 1054.946507 267.071436 
L 1057.816191 265.132199 
L 1060.685876 263.192961 
L 1063.55556 261.253724 
L 1066.425244 259.314486 
L 1069.294929 257.375248 
L 1072.164613 255.436011 
L 1075.034298 253.496773 
L 1077.903982 251.557536 
L 1080.773667 249.618298 
L 1083.643351 247.679061 
L 1086.513036 245.739823 
L 1089.38272 243.800585 
L 1092.252404 241.861348 
L 1095.122089 239.92211 
L 1097.991773 237.982873 
L 1100.861458 236.043635 
L 1103.731142 234.104398 
L 1106.600827 232.164147 
L 1109.470511 230.217077 
L 1112.340196 228.262186 
L 1115.20988 226.299377 
L 1118.079564 224.328555 
L 1120.949249 222.34962 
L 1123.818933 220.362472 
L 1126.688618 218.367006 
L 1129.558302 216.363119 
L 1132.427987 214.350701 
L 1135.297671 212.329645 
L 1138.167356 210.299836 
L 1141.03704 208.261161 
L 1143.906724 206.213502 
L 1146.776409 204.15674 
L 1149.646093 202.090751 
L 1152.515778 200.015411 
L 1155.385462 197.930592 
L 1158.255147 195.836162 
L 1161.124831 193.731988 
L 1163.994516 191.617931 
L 1166.8642 189.493852 
L 1169.733884 187.359607 
L 1172.603569 185.215047 
L 1175.473253 183.060023 
L 1178.342938 180.894379 
L 1181.212622 178.717958 
L 1184.082307 176.530595 
L 1186.951991 174.332125 
L 1189.821676 172.122377 
L 1192.69136 169.901175 
L 1195.561044 167.66834 
L 1198.430729 165.423686 
L 1201.300413 163.167024 
L 1204.170098 160.89816 
L 1207.039782 158.616892 
L 1209.909467 156.323016 
L 1212.779151 154.01632 
L 1215.648836 151.696586 
L 1218.51852 149.363592 
L 1221.388204 147.022767 
L 1224.257889 144.681891 
L 1227.127573 142.341016 
L 1229.997258 140.00014 
L 1232.866942 137.659264 
L 1235.736627 135.318389 
L 1238.606311 132.977513 
L 1241.475996 130.636637 
L 1244.34568 128.295762 
L 1247.215364 125.954886 
L 1250.085049 123.614011 
L 1252.954733 121.273135 
L 1255.824418 118.932259 
L 1258.694102 116.591384 
L 1261.563787 114.250508 
L 1264.433471 111.909632 
L 1267.303156 109.568757 
L 1270.17284 107.227881 
L 1273.042524 104.887005 
L 1275.912209 102.54613 
L 1278.781893 100.205254 
L 1281.651578 97.864378 
L 1284.521262 95.523503 
L 1287.390947 93.182627 
L 1290.260631 90.841751 
L 1293.130316 88.500876 
L 1296 86.16 
" clip-path="url(#p06dcd69ddc)" style="fill: none; stroke: #1f77b4; stroke-width: 1.5; stroke-linecap: square"/>
   </g>
   <g id="line2d_88">
    <path d="M 1003.957671 296.16 
L 1006.358666 294.798134 
L 1008.759661 293.436268 
L 1011.160656 292.074401 
L 1013.561652 290.712535 
L 1015.962647 289.350669 
L 1018.363642 287.988803 
L 1020.764637 286.626937 
L 1023.165632 285.26507 
L 1025.566627 283.903204 
L 1027.967622 282.541338 
L 1030.368617 281.179472 
L 1032.769612 279.817606 
L 1035.170607 278.455739 
L 1037.571602 277.093873 
L 1039.972597 275.732007 
L 1042.373592 274.370141 
L 1044.774587 273.008275 
L 1047.175582 271.646408 
L 1049.576577 270.284542 
L 1051.977572 268.922676 
L 1054.378567 267.56081 
L 1056.779562 266.198944 
L 1059.180557 264.837078 
L 1061.581552 263.475211 
L 1063.982547 262.113345 
L 1066.383542 260.751479 
L 1068.784537 259.389613 
L 1071.185532 258.027747 
L 1073.586528 256.66588 
L 1075.987523 255.304014 
L 1078.388518 253.942148 
L 1080.789513 252.580282 
L 1083.190508 251.218416 
L 1085.591503 249.856549 
L 1087.992498 248.494683 
L 1090.393493 247.132817 
L 1092.794488 245.770951 
L 1095.195483 244.409085 
L 1097.596478 243.047218 
L 1099.997473 241.685352 
L 1102.398468 240.323486 
L 1104.799463 238.96162 
L 1107.200458 237.599754 
L 1109.601453 236.237887 
L 1112.002448 234.876021 
L 1114.403443 233.514155 
L 1116.804438 232.147924 
L 1119.205433 230.765998 
L 1121.606428 229.367253 
L 1124.007423 227.951059 
L 1126.408418 226.516746 
L 1128.809413 225.0636 
L 1131.210408 223.59086 
L 1133.611404 222.097711 
L 1136.012399 220.58328 
L 1138.413394 219.04663 
L 1140.814389 217.486753 
L 1143.215384 215.902564 
L 1145.616379 214.292889 
L 1148.017374 212.656457 
L 1150.418369 210.991887 
L 1152.819364 209.297676 
L 1155.220359 207.572182 
L 1157.621354 205.813605 
L 1160.022349 204.019965 
L 1162.423344 202.189079 
L 1164.824339 200.318525 
L 1167.225334 198.405606 
L 1169.626329 196.447308 
L 1172.027324 194.440237 
L 1174.428319 192.380559 
L 1176.829314 190.263906 
L 1179.230309 188.08527 
L 1181.631304 185.838865 
L 1184.032299 183.517944 
L 1186.433294 181.114558 
L 1188.834289 178.61924 
L 1191.235284 176.020555 
L 1193.63628 173.304482 
L 1196.037275 170.453514 
L 1198.43827 167.445299 
L 1200.839265 164.250536 
L 1203.24026 160.829508 
L 1205.641255 157.126014 
L 1208.04225 153.055835 
L 1210.443245 148.48901 
L 1212.84424 143.694471 
L 1215.245235 138.899932 
L 1217.64623 134.105392 
L 1220.047225 129.310853 
L 1222.44822 124.516314 
L 1224.849215 119.721775 
L 1227.25021 114.927235 
L 1229.651205 110.132696 
L 1232.0522 105.338157 
L 1234.453195 100.543618 
L 1236.85419 95.749078 
L 1239.255185 90.954539 
L 1241.65618 86.16 
" clip-path="url(#p06dcd69ddc)" style="fill: none; stroke-dasharray: 5.55,2.4; stroke-dashoffset: 0; stroke: #ff7f0e; stroke-width: 1.5"/>
   </g>
   <g id="patch_15">
    <path d="M 967.764706 304.56 
L 967.764706 77.76 
" style="fill: none; stroke: #000000; stroke-width: 0.8; stroke-linejoin: miter; stroke-linecap: square"/>
   </g>
   <g id="patch_16">
    <path d="M 1296 304.56 
L 1296 77.76 
" style="fill: none; stroke: #000000; stroke-width: 0.8; stroke-linejoin: miter; stroke-linecap: square"/>
   </g>
   <g id="patch_17">
    <path d="M 967.764706 304.56 
L 1296 304.56 
" style="fill: none; stroke: #000000; stroke-width: 0.8; stroke-linejoin: miter; stroke-linecap: square"/>
   </g>
   <g id="patch_18">
    <path d="M 967.764706 77.76 
L 1296 77.76 
" style="fill: none; stroke: #000000; stroke-width: 0.8; stroke-linejoin: miter; stroke-linecap: square"/>
   </g>
   <g id="text_45">
    <!--  Block: 2 -->
    <g transform="translate(1106.001728 71.76) scale(0.12 -0.12)">
     <use xlink:href="#DejaVuSans-20"/>
     <use xlink:href="#DejaVuSans-42" x="31.787109"/>
     <use xlink:href="#DejaVuSans-6c" x="100.390625"/>
     <use xlink:href="#DejaVuSans-6f" x="128.173828"/>
     <use xlink:href="#DejaVuSans-63" x="189.355469"/>
     <use xlink:href="#DejaVuSans-6b" x="244.335938"/>
     <use xlink:href="#DejaVuSans-3a" x="302.246094"/>
     <use xlink:href="#DejaVuSans-20" x="335.9375"/>
     <use xlink:href="#DejaVuSans-32" x="367.724609"/>
    </g>
   </g>
   <g id="legend_3">
    <g id="patch_19">
     <path d="M 974.764706 130.0725 
L 1105.964706 130.0725 
Q 1107.964706 130.0725 1107.964706 128.0725 
L 1107.964706 84.76 
Q 1107.964706 82.76 1105.964706 82.76 
L 974.764706 82.76 
Q 972.764706 82.76 972.764706 84.76 
L 972.764706 128.0725 
Q 972.764706 130.0725 974.764706 130.0725 
z
" style="fill: #ffffff; opacity: 0.8; stroke: #cccccc; stroke-linejoin: miter"/>
    </g>
    <g id="PathCollection_6">
     <g>
      <use xlink:href="#me6eca816db" x="986.764706" y="91.733438" style="stroke: #000000"/>
     </g>
    </g>
    <g id="text_46">
     <!-- Data -->
     <g transform="translate(1004.764706 94.358438) scale(0.1 -0.1)">
      <use xlink:href="#DejaVuSans-44"/>
      <use xlink:href="#DejaVuSans-61" x="77.001953"/>
      <use xlink:href="#DejaVuSans-74" x="138.28125"/>
      <use xlink:href="#DejaVuSans-61" x="177.490234"/>
     </g>
    </g>
    <g id="line2d_89">
     <path d="M 976.764706 105.536563 
L 986.764706 105.536563 
L 996.764706 105.536563 
" style="fill: none; stroke: #1f77b4; stroke-width: 1.5; stroke-linecap: square"/>
    </g>
    <g id="text_47">
     <!-- Artc e:0.1557 -->
     <g transform="translate(1004.764706 109.036563) scale(0.1 -0.1)">
      <use xlink:href="#DejaVuSans-41"/>
      <use xlink:href="#DejaVuSans-72" x="68.408203"/>
      <use xlink:href="#DejaVuSans-74" x="109.521484"/>
      <use xlink:href="#DejaVuSans-63" x="148.730469"/>
      <use xlink:href="#DejaVuSans-20" x="203.710938"/>
      <use xlink:href="#DejaVuSans-65" x="235.498047"/>
      <use xlink:href="#DejaVuSans-3a" x="297.021484"/>
      <use xlink:href="#DejaVuSans-30" x="330.712891"/>
      <use xlink:href="#DejaVuSans-2e" x="394.335938"/>
      <use xlink:href="#DejaVuSans-31" x="426.123047"/>
      <use xlink:href="#DejaVuSans-35" x="489.746094"/>
      <use xlink:href="#DejaVuSans-35" x="553.369141"/>
      <use xlink:href="#DejaVuSans-37" x="616.992188"/>
     </g>
    </g>
    <g id="line2d_90">
     <path d="M 976.764706 120.214688 
L 986.764706 120.214688 
L 996.764706 120.214688 
" style="fill: none; stroke-dasharray: 5.55,2.4; stroke-dashoffset: 0; stroke: #ff7f0e; stroke-width: 1.5"/>
    </g>
    <g id="text_48">
     <!-- NEL_BTUX e:0.1488 -->
     <g transform="translate(1004.764706 123.714688) scale(0.1 -0.1)">
      <use xlink:href="#DejaVuSans-4e"/>
      <use xlink:href="#DejaVuSans-45" x="74.804688"/>
      <use xlink:href="#DejaVuSans-4c" x="137.988281"/>
      <use xlink:href="#DejaVuSans-5f" x="193.701172"/>
      <use xlink:href="#DejaVuSans-42" x="243.701172"/>
      <use xlink:href="#DejaVuSans-54" x="312.304688"/>
      <use xlink:href="#DejaVuSans-55" x="373.388672"/>
      <use xlink:href="#DejaVuSans-58" x="446.582031"/>
      <use xlink:href="#DejaVuSans-20" x="515.087891"/>
      <use xlink:href="#DejaVuSans-65" x="546.875"/>
      <use xlink:href="#DejaVuSans-3a" x="608.398438"/>
      <use xlink:href="#DejaVuSans-30" x="642.089844"/>
      <use xlink:href="#DejaVuSans-2e" x="705.712891"/>
      <use xlink:href="#DejaVuSans-31" x="737.5"/>
      <use xlink:href="#DejaVuSans-34" x="801.123047"/>
      <use xlink:href="#DejaVuSans-38" x="864.746094"/>
      <use xlink:href="#DejaVuSans-38" x="928.369141"/>
     </g>
    </g>
   </g>
  </g>
  <g id="axes_4">
   <g id="patch_20">
    <path d="M 180 576.72 
L 508.235294 576.72 
L 508.235294 349.92 
L 180 349.92 
z
" style="fill: #ffffff"/>
   </g>
   <g id="PathCollection_7">
    <g clip-path="url(#p8166cdc493)">
     <use xlink:href="#me6eca816db" x="427.785467" y="421.32" style="stroke: #000000"/>
     <use xlink:href="#me6eca816db" x="379.515571" y="463.32" style="stroke: #000000"/>
     <use xlink:href="#me6eca816db" x="331.245675" y="505.32" style="stroke: #000000"/>
     <use xlink:href="#me6eca816db" x="282.975779" y="526.32" style="stroke: #000000"/>
     <use xlink:href="#me6eca816db" x="234.705882" y="547.32" style="stroke: #000000"/>
     <use xlink:href="#me6eca816db" x="186.435986" y="568.32" style="stroke: #000000"/>
     <use xlink:href="#me6eca816db" x="202.525952" y="568.32" style="stroke: #000000"/>
     <use xlink:href="#me6eca816db" x="218.615917" y="568.32" style="stroke: #000000"/>
     <use xlink:href="#me6eca816db" x="234.705882" y="547.32" style="stroke: #000000"/>
     <use xlink:href="#me6eca816db" x="391.583045" y="442.32" style="stroke: #000000"/>
     <use xlink:href="#me6eca816db" x="339.290657" y="505.32" style="stroke: #000000"/>
     <use xlink:href="#me6eca816db" x="443.875433" y="400.32" style="stroke: #000000"/>
     <use xlink:href="#me6eca816db" x="234.705882" y="547.32" style="stroke: #000000"/>
     <use xlink:href="#me6eca816db" x="286.99827" y="505.32" style="stroke: #000000"/>
     <use xlink:href="#me6eca816db" x="392.531066" y="463.32" style="stroke: #000000"/>
     <use xlink:href="#me6eca816db" x="443.875433" y="379.32" style="stroke: #000000"/>
     <use xlink:href="#me6eca816db" x="341.186377" y="463.32" style="stroke: #000000"/>
     <use xlink:href="#me6eca816db" x="238.497322" y="547.32" style="stroke: #000000"/>
     <use xlink:href="#me6eca816db" x="289.84201" y="505.32" style="stroke: #000000"/>
    </g>
   </g>
   <g id="matplotlib.axis_7">
    <g id="xtick_19">
     <g id="line2d_91">
      <path d="M 186.435986 576.72 
L 186.435986 349.92 
" clip-path="url(#p8166cdc493)" style="fill: none; stroke: #b0b0b0; stroke-width: 0.8; stroke-linecap: square"/>
     </g>
     <g id="line2d_92">
      <g>
       <use xlink:href="#m4ecc095951" x="186.435986" y="576.72" style="stroke: #000000; stroke-width: 0.8"/>
      </g>
     </g>
     <g id="text_49">
      <!-- 0 -->
      <g transform="translate(183.254736 591.318438) scale(0.1 -0.1)">
       <use xlink:href="#DejaVuSans-30"/>
      </g>
     </g>
    </g>
    <g id="xtick_20">
     <g id="line2d_93">
      <path d="M 250.795848 576.72 
L 250.795848 349.92 
" clip-path="url(#p8166cdc493)" style="fill: none; stroke: #b0b0b0; stroke-width: 0.8; stroke-linecap: square"/>
     </g>
     <g id="line2d_94">
      <g>
       <use xlink:href="#m4ecc095951" x="250.795848" y="576.72" style="stroke: #000000; stroke-width: 0.8"/>
      </g>
     </g>
     <g id="text_50">
      <!-- 20 -->
      <g transform="translate(244.433348 591.318438) scale(0.1 -0.1)">
       <use xlink:href="#DejaVuSans-32"/>
       <use xlink:href="#DejaVuSans-30" x="63.623047"/>
      </g>
     </g>
    </g>
    <g id="xtick_21">
     <g id="line2d_95">
      <path d="M 315.155709 576.72 
L 315.155709 349.92 
" clip-path="url(#p8166cdc493)" style="fill: none; stroke: #b0b0b0; stroke-width: 0.8; stroke-linecap: square"/>
     </g>
     <g id="line2d_96">
      <g>
       <use xlink:href="#m4ecc095951" x="315.155709" y="576.72" style="stroke: #000000; stroke-width: 0.8"/>
      </g>
     </g>
     <g id="text_51">
      <!-- 40 -->
      <g transform="translate(308.793209 591.318438) scale(0.1 -0.1)">
       <use xlink:href="#DejaVuSans-34"/>
       <use xlink:href="#DejaVuSans-30" x="63.623047"/>
      </g>
     </g>
    </g>
    <g id="xtick_22">
     <g id="line2d_97">
      <path d="M 379.515571 576.72 
L 379.515571 349.92 
" clip-path="url(#p8166cdc493)" style="fill: none; stroke: #b0b0b0; stroke-width: 0.8; stroke-linecap: square"/>
     </g>
     <g id="line2d_98">
      <g>
       <use xlink:href="#m4ecc095951" x="379.515571" y="576.72" style="stroke: #000000; stroke-width: 0.8"/>
      </g>
     </g>
     <g id="text_52">
      <!-- 60 -->
      <g transform="translate(373.153071 591.318438) scale(0.1 -0.1)">
       <use xlink:href="#DejaVuSans-36"/>
       <use xlink:href="#DejaVuSans-30" x="63.623047"/>
      </g>
     </g>
    </g>
    <g id="xtick_23">
     <g id="line2d_99">
      <path d="M 443.875433 576.72 
L 443.875433 349.92 
" clip-path="url(#p8166cdc493)" style="fill: none; stroke: #b0b0b0; stroke-width: 0.8; stroke-linecap: square"/>
     </g>
     <g id="line2d_100">
      <g>
       <use xlink:href="#m4ecc095951" x="443.875433" y="576.72" style="stroke: #000000; stroke-width: 0.8"/>
      </g>
     </g>
     <g id="text_53">
      <!-- 80 -->
      <g transform="translate(437.512933 591.318438) scale(0.1 -0.1)">
       <use xlink:href="#DejaVuSans-38"/>
       <use xlink:href="#DejaVuSans-30" x="63.623047"/>
      </g>
     </g>
    </g>
    <g id="xtick_24">
     <g id="line2d_101">
      <path d="M 508.235294 576.72 
L 508.235294 349.92 
" clip-path="url(#p8166cdc493)" style="fill: none; stroke: #b0b0b0; stroke-width: 0.8; stroke-linecap: square"/>
     </g>
     <g id="line2d_102">
      <g>
       <use xlink:href="#m4ecc095951" x="508.235294" y="576.72" style="stroke: #000000; stroke-width: 0.8"/>
      </g>
     </g>
     <g id="text_54">
      <!-- 100 -->
      <g transform="translate(498.691544 591.318438) scale(0.1 -0.1)">
       <use xlink:href="#DejaVuSans-31"/>
       <use xlink:href="#DejaVuSans-30" x="63.623047"/>
       <use xlink:href="#DejaVuSans-30" x="127.246094"/>
      </g>
     </g>
    </g>
   </g>
   <g id="matplotlib.axis_8">
    <g id="ytick_19">
     <g id="line2d_103">
      <path d="M 180 568.32 
L 508.235294 568.32 
" clip-path="url(#p8166cdc493)" style="fill: none; stroke: #b0b0b0; stroke-width: 0.8; stroke-linecap: square"/>
     </g>
     <g id="line2d_104">
      <g>
       <use xlink:href="#mee74ee01e3" x="180" y="568.32" style="stroke: #000000; stroke-width: 0.8"/>
      </g>
     </g>
     <g id="text_55">
      <!-- 0 -->
      <g transform="translate(166.6375 572.119219) scale(0.1 -0.1)">
       <use xlink:href="#DejaVuSans-30"/>
      </g>
     </g>
    </g>
    <g id="ytick_20">
     <g id="line2d_105">
      <path d="M 180 526.32 
L 508.235294 526.32 
" clip-path="url(#p8166cdc493)" style="fill: none; stroke: #b0b0b0; stroke-width: 0.8; stroke-linecap: square"/>
     </g>
     <g id="line2d_106">
      <g>
       <use xlink:href="#mee74ee01e3" x="180" y="526.32" style="stroke: #000000; stroke-width: 0.8"/>
      </g>
     </g>
     <g id="text_56">
      <!-- 10 -->
      <g transform="translate(160.275 530.119219) scale(0.1 -0.1)">
       <use xlink:href="#DejaVuSans-31"/>
       <use xlink:href="#DejaVuSans-30" x="63.623047"/>
      </g>
     </g>
    </g>
    <g id="ytick_21">
     <g id="line2d_107">
      <path d="M 180 484.32 
L 508.235294 484.32 
" clip-path="url(#p8166cdc493)" style="fill: none; stroke: #b0b0b0; stroke-width: 0.8; stroke-linecap: square"/>
     </g>
     <g id="line2d_108">
      <g>
       <use xlink:href="#mee74ee01e3" x="180" y="484.32" style="stroke: #000000; stroke-width: 0.8"/>
      </g>
     </g>
     <g id="text_57">
      <!-- 20 -->
      <g transform="translate(160.275 488.119219) scale(0.1 -0.1)">
       <use xlink:href="#DejaVuSans-32"/>
       <use xlink:href="#DejaVuSans-30" x="63.623047"/>
      </g>
     </g>
    </g>
    <g id="ytick_22">
     <g id="line2d_109">
      <path d="M 180 442.32 
L 508.235294 442.32 
" clip-path="url(#p8166cdc493)" style="fill: none; stroke: #b0b0b0; stroke-width: 0.8; stroke-linecap: square"/>
     </g>
     <g id="line2d_110">
      <g>
       <use xlink:href="#mee74ee01e3" x="180" y="442.32" style="stroke: #000000; stroke-width: 0.8"/>
      </g>
     </g>
     <g id="text_58">
      <!-- 30 -->
      <g transform="translate(160.275 446.119219) scale(0.1 -0.1)">
       <use xlink:href="#DejaVuSans-33"/>
       <use xlink:href="#DejaVuSans-30" x="63.623047"/>
      </g>
     </g>
    </g>
    <g id="ytick_23">
     <g id="line2d_111">
      <path d="M 180 400.32 
L 508.235294 400.32 
" clip-path="url(#p8166cdc493)" style="fill: none; stroke: #b0b0b0; stroke-width: 0.8; stroke-linecap: square"/>
     </g>
     <g id="line2d_112">
      <g>
       <use xlink:href="#mee74ee01e3" x="180" y="400.32" style="stroke: #000000; stroke-width: 0.8"/>
      </g>
     </g>
     <g id="text_59">
      <!-- 40 -->
      <g transform="translate(160.275 404.119219) scale(0.1 -0.1)">
       <use xlink:href="#DejaVuSans-34"/>
       <use xlink:href="#DejaVuSans-30" x="63.623047"/>
      </g>
     </g>
    </g>
    <g id="ytick_24">
     <g id="line2d_113">
      <path d="M 180 358.32 
L 508.235294 358.32 
" clip-path="url(#p8166cdc493)" style="fill: none; stroke: #b0b0b0; stroke-width: 0.8; stroke-linecap: square"/>
     </g>
     <g id="line2d_114">
      <g>
       <use xlink:href="#mee74ee01e3" x="180" y="358.32" style="stroke: #000000; stroke-width: 0.8"/>
      </g>
     </g>
     <g id="text_60">
      <!-- 50 -->
      <g transform="translate(160.275 362.119219) scale(0.1 -0.1)">
       <use xlink:href="#DejaVuSans-35"/>
       <use xlink:href="#DejaVuSans-30" x="63.623047"/>
      </g>
     </g>
    </g>
   </g>
   <g id="line2d_115">
    <path d="M 154.256055 463.32 
L 572.595156 463.32 
" clip-path="url(#p8166cdc493)" style="fill: none; stroke-dasharray: 1.5,2.475; stroke-dashoffset: 0; stroke: #808080; stroke-width: 1.5"/>
   </g>
   <g id="line2d_116">
    <path d="M 443.875433 610.32 
L 443.875433 274.32 
" clip-path="url(#p8166cdc493)" style="fill: none; stroke-dasharray: 5.55,2.4; stroke-dashoffset: 0; stroke: #ff0000; stroke-opacity: 0.3; stroke-width: 1.5"/>
   </g>
   <g id="line2d_117">
    <path d="M 205.494033 568.32 
L 208.552026 566.399603 
L 211.610019 564.479205 
L 214.668012 562.558808 
L 217.726005 560.63841 
L 220.783999 558.718013 
L 223.841992 556.797616 
L 226.899985 554.877218 
L 229.957978 552.956821 
L 233.015971 551.036423 
L 236.073964 549.116026 
L 239.131957 547.195629 
L 242.189951 545.275231 
L 245.247944 543.354834 
L 248.305937 541.434436 
L 251.36393 539.514039 
L 254.421923 537.593642 
L 257.479916 535.673244 
L 260.537909 533.752847 
L 263.595903 531.832449 
L 266.653896 529.912052 
L 269.711889 527.991655 
L 272.769882 526.071257 
L 275.827875 524.15086 
L 278.885868 522.230462 
L 281.943861 520.310065 
L 285.001854 518.389668 
L 288.059848 516.46927 
L 291.117841 514.548873 
L 294.175834 512.628475 
L 297.233827 510.708078 
L 300.29182 508.787681 
L 303.349813 506.867283 
L 306.407806 504.946729 
L 309.4658 503.020529 
L 312.523793 501.085886 
L 315.581786 499.142687 
L 318.639779 497.190818 
L 321.697772 495.230162 
L 324.755765 493.2606 
L 327.813758 491.282007 
L 330.871752 489.29426 
L 333.929745 487.29723 
L 336.987738 485.290785 
L 340.045731 483.274792 
L 343.103724 481.249112 
L 346.161717 479.213605 
L 349.21971 477.168126 
L 352.277704 475.112527 
L 355.335697 473.046657 
L 358.39369 470.97036 
L 361.451683 468.883476 
L 364.509676 466.785842 
L 367.567669 464.67729 
L 370.625662 462.557648 
L 373.683655 460.426738 
L 376.741649 458.28438 
L 379.799642 456.130387 
L 382.857635 453.964566 
L 385.915628 451.786722 
L 388.973621 449.596651 
L 392.031614 447.394146 
L 395.089607 445.178991 
L 398.147601 442.950967 
L 401.205594 440.709847 
L 404.263587 438.455397 
L 407.32158 436.187376 
L 410.379573 433.905536 
L 413.437566 431.609622 
L 416.495559 429.299369 
L 419.553553 426.974506 
L 422.611546 424.634752 
L 425.669539 422.279817 
L 428.727532 419.912169 
L 431.785525 417.543239 
L 434.843518 415.174309 
L 437.901511 412.80538 
L 440.959505 410.43645 
L 444.017498 408.067521 
L 447.075491 405.698591 
L 450.133484 403.329662 
L 453.191477 400.960732 
L 456.24947 398.591802 
L 459.307463 396.222873 
L 462.365456 393.853943 
L 465.42345 391.485014 
L 468.481443 389.116084 
L 471.539436 386.747155 
L 474.597429 384.378225 
L 477.655422 382.009296 
L 480.713415 379.640366 
L 483.771408 377.271436 
L 486.829402 374.902507 
L 489.887395 372.533577 
L 492.945388 370.164648 
L 496.003381 367.795718 
L 499.061374 365.426789 
L 502.119367 363.057859 
L 505.17736 360.68893 
L 508.235354 358.32 
" clip-path="url(#p8166cdc493)" style="fill: none; stroke: #1f77b4; stroke-width: 1.5; stroke-linecap: square"/>
   </g>
   <g id="line2d_118">
    <path d="M 205.711648 568.32 
L 208.25473 566.979409 
L 210.797812 565.638818 
L 213.340894 564.298228 
L 215.883975 562.957637 
L 218.427057 561.617046 
L 220.970139 560.276455 
L 223.513221 558.935864 
L 226.056303 557.595273 
L 228.599384 556.254683 
L 231.142466 554.914092 
L 233.685548 553.573501 
L 236.22863 552.23291 
L 238.771712 550.892319 
L 241.314793 549.551728 
L 243.857875 548.211138 
L 246.400957 546.870547 
L 248.944039 545.529956 
L 251.48712 544.189365 
L 254.030202 542.848774 
L 256.573284 541.508183 
L 259.116366 540.167593 
L 261.659448 538.827002 
L 264.202529 537.486411 
L 266.745611 536.14582 
L 269.288693 534.805229 
L 271.831775 533.464638 
L 274.374857 532.124048 
L 276.917938 530.783457 
L 279.46102 529.442866 
L 282.004102 528.102275 
L 284.547184 526.761684 
L 287.090265 525.421093 
L 289.633347 524.080503 
L 292.176429 522.739912 
L 294.719511 521.399321 
L 297.262593 520.05873 
L 299.805674 518.718139 
L 302.348756 517.377548 
L 304.891838 516.036958 
L 307.43492 514.696367 
L 309.978002 513.355776 
L 312.521083 512.015185 
L 315.064165 510.674594 
L 317.607247 509.334004 
L 320.150329 507.993413 
L 322.69341 506.652822 
L 325.236492 505.312231 
L 327.779574 503.96358 
L 330.322656 502.598603 
L 332.865738 501.216695 
L 335.408819 499.817207 
L 337.951901 498.399452 
L 340.494983 496.962694 
L 343.038065 495.50615 
L 345.581147 494.028978 
L 348.124228 492.530276 
L 350.66731 491.009075 
L 353.210392 489.464329 
L 355.753474 487.89491 
L 358.296555 486.299597 
L 360.839637 484.677064 
L 363.382719 483.025869 
L 365.925801 481.344436 
L 368.468883 479.631041 
L 371.011964 477.883789 
L 373.555046 476.100589 
L 376.098128 474.279128 
L 378.64121 472.416831 
L 381.184292 470.510822 
L 383.727373 468.55787 
L 386.270455 466.554326 
L 388.813537 464.496042 
L 391.356619 462.37827 
L 393.8997 460.195532 
L 396.442782 457.941457 
L 398.985864 455.608554 
L 401.528946 453.187927 
L 404.072028 450.668866 
L 406.615109 448.038286 
L 409.158191 445.279919 
L 411.701273 442.373107 
L 414.244355 439.290945 
L 416.787437 435.997261 
L 419.330518 432.441417 
L 421.8736 428.548627 
L 424.416682 424.199892 
L 426.959764 419.259262 
L 429.502845 414.18099 
L 432.045927 409.102718 
L 434.589009 404.024446 
L 437.132091 398.946175 
L 439.675173 393.867903 
L 442.218254 388.789631 
L 444.761336 383.711359 
L 447.304418 378.633087 
L 449.8475 373.554815 
L 452.390582 368.476544 
L 454.933663 363.398272 
L 457.476745 358.32 
" clip-path="url(#p8166cdc493)" style="fill: none; stroke-dasharray: 5.55,2.4; stroke-dashoffset: 0; stroke: #ff7f0e; stroke-width: 1.5"/>
   </g>
   <g id="patch_21">
    <path d="M 180 576.72 
L 180 349.92 
" style="fill: none; stroke: #000000; stroke-width: 0.8; stroke-linejoin: miter; stroke-linecap: square"/>
   </g>
   <g id="patch_22">
    <path d="M 508.235294 576.72 
L 508.235294 349.92 
" style="fill: none; stroke: #000000; stroke-width: 0.8; stroke-linejoin: miter; stroke-linecap: square"/>
   </g>
   <g id="patch_23">
    <path d="M 180 576.72 
L 508.235294 576.72 
" style="fill: none; stroke: #000000; stroke-width: 0.8; stroke-linejoin: miter; stroke-linecap: square"/>
   </g>
   <g id="patch_24">
    <path d="M 180 349.92 
L 508.235294 349.92 
" style="fill: none; stroke: #000000; stroke-width: 0.8; stroke-linejoin: miter; stroke-linecap: square"/>
   </g>
   <g id="text_61">
    <!--  Block: 3 -->
    <g transform="translate(318.237022 343.92) scale(0.12 -0.12)">
     <use xlink:href="#DejaVuSans-20"/>
     <use xlink:href="#DejaVuSans-42" x="31.787109"/>
     <use xlink:href="#DejaVuSans-6c" x="100.390625"/>
     <use xlink:href="#DejaVuSans-6f" x="128.173828"/>
     <use xlink:href="#DejaVuSans-63" x="189.355469"/>
     <use xlink:href="#DejaVuSans-6b" x="244.335938"/>
     <use xlink:href="#DejaVuSans-3a" x="302.246094"/>
     <use xlink:href="#DejaVuSans-20" x="335.9375"/>
     <use xlink:href="#DejaVuSans-33" x="367.724609"/>
    </g>
   </g>
   <g id="legend_4">
    <g id="patch_25">
     <path d="M 187 402.2325 
L 318.2 402.2325 
Q 320.2 402.2325 320.2 400.2325 
L 320.2 356.92 
Q 320.2 354.92 318.2 354.92 
L 187 354.92 
Q 185 354.92 185 356.92 
L 185 400.2325 
Q 185 402.2325 187 402.2325 
z
" style="fill: #ffffff; opacity: 0.8; stroke: #cccccc; stroke-linejoin: miter"/>
    </g>
    <g id="PathCollection_8">
     <g>
      <use xlink:href="#me6eca816db" x="199" y="363.893437" style="stroke: #000000"/>
     </g>
    </g>
    <g id="text_62">
     <!-- Data -->
     <g transform="translate(217 366.518437) scale(0.1 -0.1)">
      <use xlink:href="#DejaVuSans-44"/>
      <use xlink:href="#DejaVuSans-61" x="77.001953"/>
      <use xlink:href="#DejaVuSans-74" x="138.28125"/>
      <use xlink:href="#DejaVuSans-61" x="177.490234"/>
     </g>
    </g>
    <g id="line2d_119">
     <path d="M 189 377.696562 
L 199 377.696562 
L 209 377.696562 
" style="fill: none; stroke: #1f77b4; stroke-width: 1.5; stroke-linecap: square"/>
    </g>
    <g id="text_63">
     <!-- Artc e:0.1536 -->
     <g transform="translate(217 381.196562) scale(0.1 -0.1)">
      <use xlink:href="#DejaVuSans-41"/>
      <use xlink:href="#DejaVuSans-72" x="68.408203"/>
      <use xlink:href="#DejaVuSans-74" x="109.521484"/>
      <use xlink:href="#DejaVuSans-63" x="148.730469"/>
      <use xlink:href="#DejaVuSans-20" x="203.710938"/>
      <use xlink:href="#DejaVuSans-65" x="235.498047"/>
      <use xlink:href="#DejaVuSans-3a" x="297.021484"/>
      <use xlink:href="#DejaVuSans-30" x="330.712891"/>
      <use xlink:href="#DejaVuSans-2e" x="394.335938"/>
      <use xlink:href="#DejaVuSans-31" x="426.123047"/>
      <use xlink:href="#DejaVuSans-35" x="489.746094"/>
      <use xlink:href="#DejaVuSans-33" x="553.369141"/>
      <use xlink:href="#DejaVuSans-36" x="616.992188"/>
     </g>
    </g>
    <g id="line2d_120">
     <path d="M 189 392.374687 
L 199 392.374687 
L 209 392.374687 
" style="fill: none; stroke-dasharray: 5.55,2.4; stroke-dashoffset: 0; stroke: #ff7f0e; stroke-width: 1.5"/>
    </g>
    <g id="text_64">
     <!-- NEL_BTUX e:0.1558 -->
     <g transform="translate(217 395.874687) scale(0.1 -0.1)">
      <use xlink:href="#DejaVuSans-4e"/>
      <use xlink:href="#DejaVuSans-45" x="74.804688"/>
      <use xlink:href="#DejaVuSans-4c" x="137.988281"/>
      <use xlink:href="#DejaVuSans-5f" x="193.701172"/>
      <use xlink:href="#DejaVuSans-42" x="243.701172"/>
      <use xlink:href="#DejaVuSans-54" x="312.304688"/>
      <use xlink:href="#DejaVuSans-55" x="373.388672"/>
      <use xlink:href="#DejaVuSans-58" x="446.582031"/>
      <use xlink:href="#DejaVuSans-20" x="515.087891"/>
      <use xlink:href="#DejaVuSans-65" x="546.875"/>
      <use xlink:href="#DejaVuSans-3a" x="608.398438"/>
      <use xlink:href="#DejaVuSans-30" x="642.089844"/>
      <use xlink:href="#DejaVuSans-2e" x="705.712891"/>
      <use xlink:href="#DejaVuSans-31" x="737.5"/>
      <use xlink:href="#DejaVuSans-35" x="801.123047"/>
      <use xlink:href="#DejaVuSans-35" x="864.746094"/>
      <use xlink:href="#DejaVuSans-38" x="928.369141"/>
     </g>
    </g>
   </g>
  </g>
  <g id="axes_5"/>
  <g id="axes_6"/>
  <g id="text_65">
   <!-- ID: 6421, Max level: 80dB -->
   <g transform="translate(655.440625 20.558438) scale(0.1 -0.1)">
    <defs>
     <path id="DejaVuSans-49" d="M 628 4666 
L 1259 4666 
L 1259 0 
L 628 0 
L 628 4666 
z
" transform="scale(0.015625)"/>
     <path id="DejaVuSans-2c" d="M 750 794 
L 1409 794 
L 1409 256 
L 897 -744 
L 494 -744 
L 750 256 
L 750 794 
z
" transform="scale(0.015625)"/>
     <path id="DejaVuSans-4d" d="M 628 4666 
L 1569 4666 
L 2759 1491 
L 3956 4666 
L 4897 4666 
L 4897 0 
L 4281 0 
L 4281 4097 
L 3078 897 
L 2444 897 
L 1241 4097 
L 1241 0 
L 628 0 
L 628 4666 
z
" transform="scale(0.015625)"/>
     <path id="DejaVuSans-78" d="M 3513 3500 
L 2247 1797 
L 3578 0 
L 2900 0 
L 1881 1375 
L 863 0 
L 184 0 
L 1544 1831 
L 300 3500 
L 978 3500 
L 1906 2253 
L 2834 3500 
L 3513 3500 
z
" transform="scale(0.015625)"/>
     <path id="DejaVuSans-76" d="M 191 3500 
L 800 3500 
L 1894 563 
L 2988 3500 
L 3597 3500 
L 2284 0 
L 1503 0 
L 191 3500 
z
" transform="scale(0.015625)"/>
     <path id="DejaVuSans-64" d="M 2906 2969 
L 2906 4863 
L 3481 4863 
L 3481 0 
L 2906 0 
L 2906 525 
Q 2725 213 2448 61 
Q 2172 -91 1784 -91 
Q 1150 -91 751 415 
Q 353 922 353 1747 
Q 353 2572 751 3078 
Q 1150 3584 1784 3584 
Q 2172 3584 2448 3432 
Q 2725 3281 2906 2969 
z
M 947 1747 
Q 947 1113 1208 752 
Q 1469 391 1925 391 
Q 2381 391 2643 752 
Q 2906 1113 2906 1747 
Q 2906 2381 2643 2742 
Q 2381 3103 1925 3103 
Q 1469 3103 1208 2742 
Q 947 2381 947 1747 
z
" transform="scale(0.015625)"/>
    </defs>
    <use xlink:href="#DejaVuSans-49"/>
    <use xlink:href="#DejaVuSans-44" x="29.492188"/>
    <use xlink:href="#DejaVuSans-3a" x="106.494141"/>
    <use xlink:href="#DejaVuSans-20" x="140.185547"/>
    <use xlink:href="#DejaVuSans-36" x="171.972656"/>
    <use xlink:href="#DejaVuSans-34" x="235.595703"/>
    <use xlink:href="#DejaVuSans-32" x="299.21875"/>
    <use xlink:href="#DejaVuSans-31" x="362.841797"/>
    <use xlink:href="#DejaVuSans-2c" x="426.464844"/>
    <use xlink:href="#DejaVuSans-20" x="458.251953"/>
    <use xlink:href="#DejaVuSans-4d" x="490.039062"/>
    <use xlink:href="#DejaVuSans-61" x="576.318359"/>
    <use xlink:href="#DejaVuSans-78" x="637.597656"/>
    <use xlink:href="#DejaVuSans-20" x="696.777344"/>
    <use xlink:href="#DejaVuSans-6c" x="728.564453"/>
    <use xlink:href="#DejaVuSans-65" x="756.347656"/>
    <use xlink:href="#DejaVuSans-76" x="817.871094"/>
    <use xlink:href="#DejaVuSans-65" x="877.050781"/>
    <use xlink:href="#DejaVuSans-6c" x="938.574219"/>
    <use xlink:href="#DejaVuSans-3a" x="966.357422"/>
    <use xlink:href="#DejaVuSans-20" x="1000.048828"/>
    <use xlink:href="#DejaVuSans-38" x="1031.835938"/>
    <use xlink:href="#DejaVuSans-30" x="1095.458984"/>
    <use xlink:href="#DejaVuSans-64" x="1159.082031"/>
    <use xlink:href="#DejaVuSans-42" x="1222.558594"/>
   </g>
  </g>
 </g>
 <defs>
  <clipPath id="pa0174a4c18">
   <rect x="180" y="77.76" width="328.235294" height="226.8"/>
  </clipPath>
  <clipPath id="p9a17b6cb83">
   <rect x="573.882353" y="77.76" width="328.235294" height="226.8"/>
  </clipPath>
  <clipPath id="p06dcd69ddc">
   <rect x="967.764706" y="77.76" width="328.235294" height="226.8"/>
  </clipPath>
  <clipPath id="p8166cdc493">
   <rect x="180" y="349.92" width="328.235294" height="226.8"/>
  </clipPath>
 </defs>
</svg>
