<?xml version="1.0" encoding="utf-8" standalone="no"?>
<!DOCTYPE svg PUBLIC "-//W3C//DTD SVG 1.1//EN"
  "http://www.w3.org/Graphics/SVG/1.1/DTD/svg11.dtd">
<svg xmlns:xlink="http://www.w3.org/1999/xlink" width="1440pt" height="360pt" viewBox="0 0 1440 360" xmlns="http://www.w3.org/2000/svg" version="1.1">
 <metadata>
  <rdf:RDF xmlns:dc="http://purl.org/dc/elements/1.1/" xmlns:cc="http://creativecommons.org/ns#" xmlns:rdf="http://www.w3.org/1999/02/22-rdf-syntax-ns#">
   <cc:Work>
    <dc:type rdf:resource="http://purl.org/dc/dcmitype/StillImage"/>
    <dc:date>2024-05-07T10:37:34.605111</dc:date>
    <dc:format>image/svg+xml</dc:format>
    <dc:creator>
     <cc:Agent>
      <dc:title>Matplotlib v3.8.0, https://matplotlib.org/</dc:title>
     </cc:Agent>
    </dc:creator>
   </cc:Work>
  </rdf:RDF>
 </metadata>
 <defs>
  <style type="text/css">*{stroke-linejoin: round; stroke-linecap: butt}</style>
 </defs>
 <g id="figure_1">
  <g id="patch_1">
   <path d="M 0 360 
L 1440 360 
L 1440 0 
L 0 0 
z
" style="fill: #ffffff"/>
  </g>
  <g id="axes_1">
   <g id="patch_2">
    <path d="M 180 320.4 
L 508.235294 320.4 
L 508.235294 43.2 
L 180 43.2 
z
" style="fill: #ffffff"/>
   </g>
   <g id="PathCollection_1">
    <defs>
     <path id="mbab29e1528" d="M 0 3 
C 0.795609 3 1.55874 2.683901 2.12132 2.12132 
C 2.683901 1.55874 3 0.795609 3 0 
C 3 -0.795609 2.683901 -1.55874 2.12132 -2.12132 
C 1.55874 -2.683901 0.795609 -3 0 -3 
C -0.795609 -3 -1.55874 -2.683901 -2.12132 -2.12132 
C -2.683901 -1.55874 -3 -0.795609 -3 0 
C -3 0.795609 -2.683901 1.55874 -2.12132 2.12132 
C -1.55874 2.683901 -0.795609 3 0 3 
z
" style="stroke: #000000"/>
    </defs>
    <g clip-path="url(#p3946b12a46)">
     <use xlink:href="#mbab29e1528" x="427.785467" y="104.8" style="stroke: #000000"/>
     <use xlink:href="#mbab29e1528" x="379.515571" y="207.466667" style="stroke: #000000"/>
     <use xlink:href="#mbab29e1528" x="331.245675" y="233.133333" style="stroke: #000000"/>
     <use xlink:href="#mbab29e1528" x="282.975779" y="258.8" style="stroke: #000000"/>
     <use xlink:href="#mbab29e1528" x="234.705882" y="284.466667" style="stroke: #000000"/>
     <use xlink:href="#mbab29e1528" x="186.435986" y="310.133333" style="stroke: #000000"/>
     <use xlink:href="#mbab29e1528" x="202.525952" y="310.133333" style="stroke: #000000"/>
     <use xlink:href="#mbab29e1528" x="218.615917" y="310.133333" style="stroke: #000000"/>
     <use xlink:href="#mbab29e1528" x="234.705882" y="284.466667" style="stroke: #000000"/>
     <use xlink:href="#mbab29e1528" x="287.000844" y="258.8" style="stroke: #000000"/>
     <use xlink:href="#mbab29e1528" x="339.292266" y="207.466667" style="stroke: #000000"/>
     <use xlink:href="#mbab29e1528" x="443.875433" y="104.8" style="stroke: #000000"/>
     <use xlink:href="#mbab29e1528" x="391.58401" y="207.466667" style="stroke: #000000"/>
     <use xlink:href="#mbab29e1528" x="234.7091" y="284.466667" style="stroke: #000000"/>
     <use xlink:href="#mbab29e1528" x="294.808661" y="258.8" style="stroke: #000000"/>
     <use xlink:href="#mbab29e1528" x="443.875433" y="156.133333" style="stroke: #000000"/>
     <use xlink:href="#mbab29e1528" x="245.119952" y="284.466667" style="stroke: #000000"/>
     <use xlink:href="#mbab29e1528" x="344.497692" y="233.133333" style="stroke: #000000"/>
     <use xlink:href="#mbab29e1528" x="394.186723" y="181.8" style="stroke: #000000"/>
    </g>
   </g>
   <g id="matplotlib.axis_1">
    <g id="xtick_1">
     <g id="line2d_1">
      <path d="M 186.435986 320.4 
L 186.435986 43.2 
" clip-path="url(#p3946b12a46)" style="fill: none; stroke: #b0b0b0; stroke-width: 0.8; stroke-linecap: square"/>
     </g>
     <g id="line2d_2">
      <defs>
       <path id="mea5d977369" d="M 0 0 
L 0 3.5 
" style="stroke: #000000; stroke-width: 0.8"/>
      </defs>
      <g>
       <use xlink:href="#mea5d977369" x="186.435986" y="320.4" style="stroke: #000000; stroke-width: 0.8"/>
      </g>
     </g>
     <g id="text_1">
      <!-- 0 -->
      <g transform="translate(183.254736 334.998438) scale(0.1 -0.1)">
       <defs>
        <path id="DejaVuSans-30" d="M 2034 4250 
Q 1547 4250 1301 3770 
Q 1056 3291 1056 2328 
Q 1056 1369 1301 889 
Q 1547 409 2034 409 
Q 2525 409 2770 889 
Q 3016 1369 3016 2328 
Q 3016 3291 2770 3770 
Q 2525 4250 2034 4250 
z
M 2034 4750 
Q 2819 4750 3233 4129 
Q 3647 3509 3647 2328 
Q 3647 1150 3233 529 
Q 2819 -91 2034 -91 
Q 1250 -91 836 529 
Q 422 1150 422 2328 
Q 422 3509 836 4129 
Q 1250 4750 2034 4750 
z
" transform="scale(0.015625)"/>
       </defs>
       <use xlink:href="#DejaVuSans-30"/>
      </g>
     </g>
    </g>
    <g id="xtick_2">
     <g id="line2d_3">
      <path d="M 250.795848 320.4 
L 250.795848 43.2 
" clip-path="url(#p3946b12a46)" style="fill: none; stroke: #b0b0b0; stroke-width: 0.8; stroke-linecap: square"/>
     </g>
     <g id="line2d_4">
      <g>
       <use xlink:href="#mea5d977369" x="250.795848" y="320.4" style="stroke: #000000; stroke-width: 0.8"/>
      </g>
     </g>
     <g id="text_2">
      <!-- 20 -->
      <g transform="translate(244.433348 334.998438) scale(0.1 -0.1)">
       <defs>
        <path id="DejaVuSans-32" d="M 1228 531 
L 3431 531 
L 3431 0 
L 469 0 
L 469 531 
Q 828 903 1448 1529 
Q 2069 2156 2228 2338 
Q 2531 2678 2651 2914 
Q 2772 3150 2772 3378 
Q 2772 3750 2511 3984 
Q 2250 4219 1831 4219 
Q 1534 4219 1204 4116 
Q 875 4013 500 3803 
L 500 4441 
Q 881 4594 1212 4672 
Q 1544 4750 1819 4750 
Q 2544 4750 2975 4387 
Q 3406 4025 3406 3419 
Q 3406 3131 3298 2873 
Q 3191 2616 2906 2266 
Q 2828 2175 2409 1742 
Q 1991 1309 1228 531 
z
" transform="scale(0.015625)"/>
       </defs>
       <use xlink:href="#DejaVuSans-32"/>
       <use xlink:href="#DejaVuSans-30" x="63.623047"/>
      </g>
     </g>
    </g>
    <g id="xtick_3">
     <g id="line2d_5">
      <path d="M 315.155709 320.4 
L 315.155709 43.2 
" clip-path="url(#p3946b12a46)" style="fill: none; stroke: #b0b0b0; stroke-width: 0.8; stroke-linecap: square"/>
     </g>
     <g id="line2d_6">
      <g>
       <use xlink:href="#mea5d977369" x="315.155709" y="320.4" style="stroke: #000000; stroke-width: 0.8"/>
      </g>
     </g>
     <g id="text_3">
      <!-- 40 -->
      <g transform="translate(308.793209 334.998438) scale(0.1 -0.1)">
       <defs>
        <path id="DejaVuSans-34" d="M 2419 4116 
L 825 1625 
L 2419 1625 
L 2419 4116 
z
M 2253 4666 
L 3047 4666 
L 3047 1625 
L 3713 1625 
L 3713 1100 
L 3047 1100 
L 3047 0 
L 2419 0 
L 2419 1100 
L 313 1100 
L 313 1709 
L 2253 4666 
z
" transform="scale(0.015625)"/>
       </defs>
       <use xlink:href="#DejaVuSans-34"/>
       <use xlink:href="#DejaVuSans-30" x="63.623047"/>
      </g>
     </g>
    </g>
    <g id="xtick_4">
     <g id="line2d_7">
      <path d="M 379.515571 320.4 
L 379.515571 43.2 
" clip-path="url(#p3946b12a46)" style="fill: none; stroke: #b0b0b0; stroke-width: 0.8; stroke-linecap: square"/>
     </g>
     <g id="line2d_8">
      <g>
       <use xlink:href="#mea5d977369" x="379.515571" y="320.4" style="stroke: #000000; stroke-width: 0.8"/>
      </g>
     </g>
     <g id="text_4">
      <!-- 60 -->
      <g transform="translate(373.153071 334.998438) scale(0.1 -0.1)">
       <defs>
        <path id="DejaVuSans-36" d="M 2113 2584 
Q 1688 2584 1439 2293 
Q 1191 2003 1191 1497 
Q 1191 994 1439 701 
Q 1688 409 2113 409 
Q 2538 409 2786 701 
Q 3034 994 3034 1497 
Q 3034 2003 2786 2293 
Q 2538 2584 2113 2584 
z
M 3366 4563 
L 3366 3988 
Q 3128 4100 2886 4159 
Q 2644 4219 2406 4219 
Q 1781 4219 1451 3797 
Q 1122 3375 1075 2522 
Q 1259 2794 1537 2939 
Q 1816 3084 2150 3084 
Q 2853 3084 3261 2657 
Q 3669 2231 3669 1497 
Q 3669 778 3244 343 
Q 2819 -91 2113 -91 
Q 1303 -91 875 529 
Q 447 1150 447 2328 
Q 447 3434 972 4092 
Q 1497 4750 2381 4750 
Q 2619 4750 2861 4703 
Q 3103 4656 3366 4563 
z
" transform="scale(0.015625)"/>
       </defs>
       <use xlink:href="#DejaVuSans-36"/>
       <use xlink:href="#DejaVuSans-30" x="63.623047"/>
      </g>
     </g>
    </g>
    <g id="xtick_5">
     <g id="line2d_9">
      <path d="M 443.875433 320.4 
L 443.875433 43.2 
" clip-path="url(#p3946b12a46)" style="fill: none; stroke: #b0b0b0; stroke-width: 0.8; stroke-linecap: square"/>
     </g>
     <g id="line2d_10">
      <g>
       <use xlink:href="#mea5d977369" x="443.875433" y="320.4" style="stroke: #000000; stroke-width: 0.8"/>
      </g>
     </g>
     <g id="text_5">
      <!-- 80 -->
      <g transform="translate(437.512933 334.998438) scale(0.1 -0.1)">
       <defs>
        <path id="DejaVuSans-38" d="M 2034 2216 
Q 1584 2216 1326 1975 
Q 1069 1734 1069 1313 
Q 1069 891 1326 650 
Q 1584 409 2034 409 
Q 2484 409 2743 651 
Q 3003 894 3003 1313 
Q 3003 1734 2745 1975 
Q 2488 2216 2034 2216 
z
M 1403 2484 
Q 997 2584 770 2862 
Q 544 3141 544 3541 
Q 544 4100 942 4425 
Q 1341 4750 2034 4750 
Q 2731 4750 3128 4425 
Q 3525 4100 3525 3541 
Q 3525 3141 3298 2862 
Q 3072 2584 2669 2484 
Q 3125 2378 3379 2068 
Q 3634 1759 3634 1313 
Q 3634 634 3220 271 
Q 2806 -91 2034 -91 
Q 1263 -91 848 271 
Q 434 634 434 1313 
Q 434 1759 690 2068 
Q 947 2378 1403 2484 
z
M 1172 3481 
Q 1172 3119 1398 2916 
Q 1625 2713 2034 2713 
Q 2441 2713 2670 2916 
Q 2900 3119 2900 3481 
Q 2900 3844 2670 4047 
Q 2441 4250 2034 4250 
Q 1625 4250 1398 4047 
Q 1172 3844 1172 3481 
z
" transform="scale(0.015625)"/>
       </defs>
       <use xlink:href="#DejaVuSans-38"/>
       <use xlink:href="#DejaVuSans-30" x="63.623047"/>
      </g>
     </g>
    </g>
    <g id="xtick_6">
     <g id="line2d_11">
      <path d="M 508.235294 320.4 
L 508.235294 43.2 
" clip-path="url(#p3946b12a46)" style="fill: none; stroke: #b0b0b0; stroke-width: 0.8; stroke-linecap: square"/>
     </g>
     <g id="line2d_12">
      <g>
       <use xlink:href="#mea5d977369" x="508.235294" y="320.4" style="stroke: #000000; stroke-width: 0.8"/>
      </g>
     </g>
     <g id="text_6">
      <!-- 100 -->
      <g transform="translate(498.691544 334.998438) scale(0.1 -0.1)">
       <defs>
        <path id="DejaVuSans-31" d="M 794 531 
L 1825 531 
L 1825 4091 
L 703 3866 
L 703 4441 
L 1819 4666 
L 2450 4666 
L 2450 531 
L 3481 531 
L 3481 0 
L 794 0 
L 794 531 
z
" transform="scale(0.015625)"/>
       </defs>
       <use xlink:href="#DejaVuSans-31"/>
       <use xlink:href="#DejaVuSans-30" x="63.623047"/>
       <use xlink:href="#DejaVuSans-30" x="127.246094"/>
      </g>
     </g>
    </g>
    <g id="text_7">
     <!-- Level [dB SPL] -->
     <g transform="translate(308.258272 348.676562) scale(0.1 -0.1)">
      <defs>
       <path id="DejaVuSans-4c" d="M 628 4666 
L 1259 4666 
L 1259 531 
L 3531 531 
L 3531 0 
L 628 0 
L 628 4666 
z
" transform="scale(0.015625)"/>
       <path id="DejaVuSans-65" d="M 3597 1894 
L 3597 1613 
L 953 1613 
Q 991 1019 1311 708 
Q 1631 397 2203 397 
Q 2534 397 2845 478 
Q 3156 559 3463 722 
L 3463 178 
Q 3153 47 2828 -22 
Q 2503 -91 2169 -91 
Q 1331 -91 842 396 
Q 353 884 353 1716 
Q 353 2575 817 3079 
Q 1281 3584 2069 3584 
Q 2775 3584 3186 3129 
Q 3597 2675 3597 1894 
z
M 3022 2063 
Q 3016 2534 2758 2815 
Q 2500 3097 2075 3097 
Q 1594 3097 1305 2825 
Q 1016 2553 972 2059 
L 3022 2063 
z
" transform="scale(0.015625)"/>
       <path id="DejaVuSans-76" d="M 191 3500 
L 800 3500 
L 1894 563 
L 2988 3500 
L 3597 3500 
L 2284 0 
L 1503 0 
L 191 3500 
z
" transform="scale(0.015625)"/>
       <path id="DejaVuSans-6c" d="M 603 4863 
L 1178 4863 
L 1178 0 
L 603 0 
L 603 4863 
z
" transform="scale(0.015625)"/>
       <path id="DejaVuSans-20" transform="scale(0.015625)"/>
       <path id="DejaVuSans-5b" d="M 550 4863 
L 1875 4863 
L 1875 4416 
L 1125 4416 
L 1125 -397 
L 1875 -397 
L 1875 -844 
L 550 -844 
L 550 4863 
z
" transform="scale(0.015625)"/>
       <path id="DejaVuSans-64" d="M 2906 2969 
L 2906 4863 
L 3481 4863 
L 3481 0 
L 2906 0 
L 2906 525 
Q 2725 213 2448 61 
Q 2172 -91 1784 -91 
Q 1150 -91 751 415 
Q 353 922 353 1747 
Q 353 2572 751 3078 
Q 1150 3584 1784 3584 
Q 2172 3584 2448 3432 
Q 2725 3281 2906 2969 
z
M 947 1747 
Q 947 1113 1208 752 
Q 1469 391 1925 391 
Q 2381 391 2643 752 
Q 2906 1113 2906 1747 
Q 2906 2381 2643 2742 
Q 2381 3103 1925 3103 
Q 1469 3103 1208 2742 
Q 947 2381 947 1747 
z
" transform="scale(0.015625)"/>
       <path id="DejaVuSans-42" d="M 1259 2228 
L 1259 519 
L 2272 519 
Q 2781 519 3026 730 
Q 3272 941 3272 1375 
Q 3272 1813 3026 2020 
Q 2781 2228 2272 2228 
L 1259 2228 
z
M 1259 4147 
L 1259 2741 
L 2194 2741 
Q 2656 2741 2882 2914 
Q 3109 3088 3109 3444 
Q 3109 3797 2882 3972 
Q 2656 4147 2194 4147 
L 1259 4147 
z
M 628 4666 
L 2241 4666 
Q 2963 4666 3353 4366 
Q 3744 4066 3744 3513 
Q 3744 3084 3544 2831 
Q 3344 2578 2956 2516 
Q 3422 2416 3680 2098 
Q 3938 1781 3938 1306 
Q 3938 681 3513 340 
Q 3088 0 2303 0 
L 628 0 
L 628 4666 
z
" transform="scale(0.015625)"/>
       <path id="DejaVuSans-53" d="M 3425 4513 
L 3425 3897 
Q 3066 4069 2747 4153 
Q 2428 4238 2131 4238 
Q 1616 4238 1336 4038 
Q 1056 3838 1056 3469 
Q 1056 3159 1242 3001 
Q 1428 2844 1947 2747 
L 2328 2669 
Q 3034 2534 3370 2195 
Q 3706 1856 3706 1288 
Q 3706 609 3251 259 
Q 2797 -91 1919 -91 
Q 1588 -91 1214 -16 
Q 841 59 441 206 
L 441 856 
Q 825 641 1194 531 
Q 1563 422 1919 422 
Q 2459 422 2753 634 
Q 3047 847 3047 1241 
Q 3047 1584 2836 1778 
Q 2625 1972 2144 2069 
L 1759 2144 
Q 1053 2284 737 2584 
Q 422 2884 422 3419 
Q 422 4038 858 4394 
Q 1294 4750 2059 4750 
Q 2388 4750 2728 4690 
Q 3069 4631 3425 4513 
z
" transform="scale(0.015625)"/>
       <path id="DejaVuSans-50" d="M 1259 4147 
L 1259 2394 
L 2053 2394 
Q 2494 2394 2734 2622 
Q 2975 2850 2975 3272 
Q 2975 3691 2734 3919 
Q 2494 4147 2053 4147 
L 1259 4147 
z
M 628 4666 
L 2053 4666 
Q 2838 4666 3239 4311 
Q 3641 3956 3641 3272 
Q 3641 2581 3239 2228 
Q 2838 1875 2053 1875 
L 1259 1875 
L 1259 0 
L 628 0 
L 628 4666 
z
" transform="scale(0.015625)"/>
       <path id="DejaVuSans-5d" d="M 1947 4863 
L 1947 -844 
L 622 -844 
L 622 -397 
L 1369 -397 
L 1369 4416 
L 622 4416 
L 622 4863 
L 1947 4863 
z
" transform="scale(0.015625)"/>
      </defs>
      <use xlink:href="#DejaVuSans-4c"/>
      <use xlink:href="#DejaVuSans-65" x="53.962891"/>
      <use xlink:href="#DejaVuSans-76" x="115.486328"/>
      <use xlink:href="#DejaVuSans-65" x="174.666016"/>
      <use xlink:href="#DejaVuSans-6c" x="236.189453"/>
      <use xlink:href="#DejaVuSans-20" x="263.972656"/>
      <use xlink:href="#DejaVuSans-5b" x="295.759766"/>
      <use xlink:href="#DejaVuSans-64" x="334.773438"/>
      <use xlink:href="#DejaVuSans-42" x="398.25"/>
      <use xlink:href="#DejaVuSans-20" x="466.853516"/>
      <use xlink:href="#DejaVuSans-53" x="498.640625"/>
      <use xlink:href="#DejaVuSans-50" x="562.117188"/>
      <use xlink:href="#DejaVuSans-4c" x="622.419922"/>
      <use xlink:href="#DejaVuSans-5d" x="678.132812"/>
     </g>
    </g>
   </g>
   <g id="matplotlib.axis_2">
    <g id="ytick_1">
     <g id="line2d_13">
      <path d="M 180 310.133333 
L 508.235294 310.133333 
" clip-path="url(#p3946b12a46)" style="fill: none; stroke: #b0b0b0; stroke-width: 0.8; stroke-linecap: square"/>
     </g>
     <g id="line2d_14">
      <defs>
       <path id="m6a49a59a5d" d="M 0 0 
L -3.5 0 
" style="stroke: #000000; stroke-width: 0.8"/>
      </defs>
      <g>
       <use xlink:href="#m6a49a59a5d" x="180" y="310.133333" style="stroke: #000000; stroke-width: 0.8"/>
      </g>
     </g>
     <g id="text_8">
      <!-- 0 -->
      <g transform="translate(166.6375 313.932552) scale(0.1 -0.1)">
       <use xlink:href="#DejaVuSans-30"/>
      </g>
     </g>
    </g>
    <g id="ytick_2">
     <g id="line2d_15">
      <path d="M 180 258.8 
L 508.235294 258.8 
" clip-path="url(#p3946b12a46)" style="fill: none; stroke: #b0b0b0; stroke-width: 0.8; stroke-linecap: square"/>
     </g>
     <g id="line2d_16">
      <g>
       <use xlink:href="#m6a49a59a5d" x="180" y="258.8" style="stroke: #000000; stroke-width: 0.8"/>
      </g>
     </g>
     <g id="text_9">
      <!-- 10 -->
      <g transform="translate(160.275 262.599219) scale(0.1 -0.1)">
       <use xlink:href="#DejaVuSans-31"/>
       <use xlink:href="#DejaVuSans-30" x="63.623047"/>
      </g>
     </g>
    </g>
    <g id="ytick_3">
     <g id="line2d_17">
      <path d="M 180 207.466667 
L 508.235294 207.466667 
" clip-path="url(#p3946b12a46)" style="fill: none; stroke: #b0b0b0; stroke-width: 0.8; stroke-linecap: square"/>
     </g>
     <g id="line2d_18">
      <g>
       <use xlink:href="#m6a49a59a5d" x="180" y="207.466667" style="stroke: #000000; stroke-width: 0.8"/>
      </g>
     </g>
     <g id="text_10">
      <!-- 20 -->
      <g transform="translate(160.275 211.265885) scale(0.1 -0.1)">
       <use xlink:href="#DejaVuSans-32"/>
       <use xlink:href="#DejaVuSans-30" x="63.623047"/>
      </g>
     </g>
    </g>
    <g id="ytick_4">
     <g id="line2d_19">
      <path d="M 180 156.133333 
L 508.235294 156.133333 
" clip-path="url(#p3946b12a46)" style="fill: none; stroke: #b0b0b0; stroke-width: 0.8; stroke-linecap: square"/>
     </g>
     <g id="line2d_20">
      <g>
       <use xlink:href="#m6a49a59a5d" x="180" y="156.133333" style="stroke: #000000; stroke-width: 0.8"/>
      </g>
     </g>
     <g id="text_11">
      <!-- 30 -->
      <g transform="translate(160.275 159.932552) scale(0.1 -0.1)">
       <defs>
        <path id="DejaVuSans-33" d="M 2597 2516 
Q 3050 2419 3304 2112 
Q 3559 1806 3559 1356 
Q 3559 666 3084 287 
Q 2609 -91 1734 -91 
Q 1441 -91 1130 -33 
Q 819 25 488 141 
L 488 750 
Q 750 597 1062 519 
Q 1375 441 1716 441 
Q 2309 441 2620 675 
Q 2931 909 2931 1356 
Q 2931 1769 2642 2001 
Q 2353 2234 1838 2234 
L 1294 2234 
L 1294 2753 
L 1863 2753 
Q 2328 2753 2575 2939 
Q 2822 3125 2822 3475 
Q 2822 3834 2567 4026 
Q 2313 4219 1838 4219 
Q 1578 4219 1281 4162 
Q 984 4106 628 3988 
L 628 4550 
Q 988 4650 1302 4700 
Q 1616 4750 1894 4750 
Q 2613 4750 3031 4423 
Q 3450 4097 3450 3541 
Q 3450 3153 3228 2886 
Q 3006 2619 2597 2516 
z
" transform="scale(0.015625)"/>
       </defs>
       <use xlink:href="#DejaVuSans-33"/>
       <use xlink:href="#DejaVuSans-30" x="63.623047"/>
      </g>
     </g>
    </g>
    <g id="ytick_5">
     <g id="line2d_21">
      <path d="M 180 104.8 
L 508.235294 104.8 
" clip-path="url(#p3946b12a46)" style="fill: none; stroke: #b0b0b0; stroke-width: 0.8; stroke-linecap: square"/>
     </g>
     <g id="line2d_22">
      <g>
       <use xlink:href="#m6a49a59a5d" x="180" y="104.8" style="stroke: #000000; stroke-width: 0.8"/>
      </g>
     </g>
     <g id="text_12">
      <!-- 40 -->
      <g transform="translate(160.275 108.599219) scale(0.1 -0.1)">
       <use xlink:href="#DejaVuSans-34"/>
       <use xlink:href="#DejaVuSans-30" x="63.623047"/>
      </g>
     </g>
    </g>
    <g id="ytick_6">
     <g id="line2d_23">
      <path d="M 180 53.466667 
L 508.235294 53.466667 
" clip-path="url(#p3946b12a46)" style="fill: none; stroke: #b0b0b0; stroke-width: 0.8; stroke-linecap: square"/>
     </g>
     <g id="line2d_24">
      <g>
       <use xlink:href="#m6a49a59a5d" x="180" y="53.466667" style="stroke: #000000; stroke-width: 0.8"/>
      </g>
     </g>
     <g id="text_13">
      <!-- 50 -->
      <g transform="translate(160.275 57.265885) scale(0.1 -0.1)">
       <defs>
        <path id="DejaVuSans-35" d="M 691 4666 
L 3169 4666 
L 3169 4134 
L 1269 4134 
L 1269 2991 
Q 1406 3038 1543 3061 
Q 1681 3084 1819 3084 
Q 2600 3084 3056 2656 
Q 3513 2228 3513 1497 
Q 3513 744 3044 326 
Q 2575 -91 1722 -91 
Q 1428 -91 1123 -41 
Q 819 9 494 109 
L 494 744 
Q 775 591 1075 516 
Q 1375 441 1709 441 
Q 2250 441 2565 725 
Q 2881 1009 2881 1497 
Q 2881 1984 2565 2268 
Q 2250 2553 1709 2553 
Q 1456 2553 1204 2497 
Q 953 2441 691 2322 
L 691 4666 
z
" transform="scale(0.015625)"/>
       </defs>
       <use xlink:href="#DejaVuSans-35"/>
       <use xlink:href="#DejaVuSans-30" x="63.623047"/>
      </g>
     </g>
    </g>
    <g id="text_14">
     <!-- Categorical Units -->
     <g transform="translate(154.195312 224.64375) rotate(-90) scale(0.1 -0.1)">
      <defs>
       <path id="DejaVuSans-43" d="M 4122 4306 
L 4122 3641 
Q 3803 3938 3442 4084 
Q 3081 4231 2675 4231 
Q 1875 4231 1450 3742 
Q 1025 3253 1025 2328 
Q 1025 1406 1450 917 
Q 1875 428 2675 428 
Q 3081 428 3442 575 
Q 3803 722 4122 1019 
L 4122 359 
Q 3791 134 3420 21 
Q 3050 -91 2638 -91 
Q 1578 -91 968 557 
Q 359 1206 359 2328 
Q 359 3453 968 4101 
Q 1578 4750 2638 4750 
Q 3056 4750 3426 4639 
Q 3797 4528 4122 4306 
z
" transform="scale(0.015625)"/>
       <path id="DejaVuSans-61" d="M 2194 1759 
Q 1497 1759 1228 1600 
Q 959 1441 959 1056 
Q 959 750 1161 570 
Q 1363 391 1709 391 
Q 2188 391 2477 730 
Q 2766 1069 2766 1631 
L 2766 1759 
L 2194 1759 
z
M 3341 1997 
L 3341 0 
L 2766 0 
L 2766 531 
Q 2569 213 2275 61 
Q 1981 -91 1556 -91 
Q 1019 -91 701 211 
Q 384 513 384 1019 
Q 384 1609 779 1909 
Q 1175 2209 1959 2209 
L 2766 2209 
L 2766 2266 
Q 2766 2663 2505 2880 
Q 2244 3097 1772 3097 
Q 1472 3097 1187 3025 
Q 903 2953 641 2809 
L 641 3341 
Q 956 3463 1253 3523 
Q 1550 3584 1831 3584 
Q 2591 3584 2966 3190 
Q 3341 2797 3341 1997 
z
" transform="scale(0.015625)"/>
       <path id="DejaVuSans-74" d="M 1172 4494 
L 1172 3500 
L 2356 3500 
L 2356 3053 
L 1172 3053 
L 1172 1153 
Q 1172 725 1289 603 
Q 1406 481 1766 481 
L 2356 481 
L 2356 0 
L 1766 0 
Q 1100 0 847 248 
Q 594 497 594 1153 
L 594 3053 
L 172 3053 
L 172 3500 
L 594 3500 
L 594 4494 
L 1172 4494 
z
" transform="scale(0.015625)"/>
       <path id="DejaVuSans-67" d="M 2906 1791 
Q 2906 2416 2648 2759 
Q 2391 3103 1925 3103 
Q 1463 3103 1205 2759 
Q 947 2416 947 1791 
Q 947 1169 1205 825 
Q 1463 481 1925 481 
Q 2391 481 2648 825 
Q 2906 1169 2906 1791 
z
M 3481 434 
Q 3481 -459 3084 -895 
Q 2688 -1331 1869 -1331 
Q 1566 -1331 1297 -1286 
Q 1028 -1241 775 -1147 
L 775 -588 
Q 1028 -725 1275 -790 
Q 1522 -856 1778 -856 
Q 2344 -856 2625 -561 
Q 2906 -266 2906 331 
L 2906 616 
Q 2728 306 2450 153 
Q 2172 0 1784 0 
Q 1141 0 747 490 
Q 353 981 353 1791 
Q 353 2603 747 3093 
Q 1141 3584 1784 3584 
Q 2172 3584 2450 3431 
Q 2728 3278 2906 2969 
L 2906 3500 
L 3481 3500 
L 3481 434 
z
" transform="scale(0.015625)"/>
       <path id="DejaVuSans-6f" d="M 1959 3097 
Q 1497 3097 1228 2736 
Q 959 2375 959 1747 
Q 959 1119 1226 758 
Q 1494 397 1959 397 
Q 2419 397 2687 759 
Q 2956 1122 2956 1747 
Q 2956 2369 2687 2733 
Q 2419 3097 1959 3097 
z
M 1959 3584 
Q 2709 3584 3137 3096 
Q 3566 2609 3566 1747 
Q 3566 888 3137 398 
Q 2709 -91 1959 -91 
Q 1206 -91 779 398 
Q 353 888 353 1747 
Q 353 2609 779 3096 
Q 1206 3584 1959 3584 
z
" transform="scale(0.015625)"/>
       <path id="DejaVuSans-72" d="M 2631 2963 
Q 2534 3019 2420 3045 
Q 2306 3072 2169 3072 
Q 1681 3072 1420 2755 
Q 1159 2438 1159 1844 
L 1159 0 
L 581 0 
L 581 3500 
L 1159 3500 
L 1159 2956 
Q 1341 3275 1631 3429 
Q 1922 3584 2338 3584 
Q 2397 3584 2469 3576 
Q 2541 3569 2628 3553 
L 2631 2963 
z
" transform="scale(0.015625)"/>
       <path id="DejaVuSans-69" d="M 603 3500 
L 1178 3500 
L 1178 0 
L 603 0 
L 603 3500 
z
M 603 4863 
L 1178 4863 
L 1178 4134 
L 603 4134 
L 603 4863 
z
" transform="scale(0.015625)"/>
       <path id="DejaVuSans-63" d="M 3122 3366 
L 3122 2828 
Q 2878 2963 2633 3030 
Q 2388 3097 2138 3097 
Q 1578 3097 1268 2742 
Q 959 2388 959 1747 
Q 959 1106 1268 751 
Q 1578 397 2138 397 
Q 2388 397 2633 464 
Q 2878 531 3122 666 
L 3122 134 
Q 2881 22 2623 -34 
Q 2366 -91 2075 -91 
Q 1284 -91 818 406 
Q 353 903 353 1747 
Q 353 2603 823 3093 
Q 1294 3584 2113 3584 
Q 2378 3584 2631 3529 
Q 2884 3475 3122 3366 
z
" transform="scale(0.015625)"/>
       <path id="DejaVuSans-55" d="M 556 4666 
L 1191 4666 
L 1191 1831 
Q 1191 1081 1462 751 
Q 1734 422 2344 422 
Q 2950 422 3222 751 
Q 3494 1081 3494 1831 
L 3494 4666 
L 4128 4666 
L 4128 1753 
Q 4128 841 3676 375 
Q 3225 -91 2344 -91 
Q 1459 -91 1007 375 
Q 556 841 556 1753 
L 556 4666 
z
" transform="scale(0.015625)"/>
       <path id="DejaVuSans-6e" d="M 3513 2113 
L 3513 0 
L 2938 0 
L 2938 2094 
Q 2938 2591 2744 2837 
Q 2550 3084 2163 3084 
Q 1697 3084 1428 2787 
Q 1159 2491 1159 1978 
L 1159 0 
L 581 0 
L 581 3500 
L 1159 3500 
L 1159 2956 
Q 1366 3272 1645 3428 
Q 1925 3584 2291 3584 
Q 2894 3584 3203 3211 
Q 3513 2838 3513 2113 
z
" transform="scale(0.015625)"/>
       <path id="DejaVuSans-73" d="M 2834 3397 
L 2834 2853 
Q 2591 2978 2328 3040 
Q 2066 3103 1784 3103 
Q 1356 3103 1142 2972 
Q 928 2841 928 2578 
Q 928 2378 1081 2264 
Q 1234 2150 1697 2047 
L 1894 2003 
Q 2506 1872 2764 1633 
Q 3022 1394 3022 966 
Q 3022 478 2636 193 
Q 2250 -91 1575 -91 
Q 1294 -91 989 -36 
Q 684 19 347 128 
L 347 722 
Q 666 556 975 473 
Q 1284 391 1588 391 
Q 1994 391 2212 530 
Q 2431 669 2431 922 
Q 2431 1156 2273 1281 
Q 2116 1406 1581 1522 
L 1381 1569 
Q 847 1681 609 1914 
Q 372 2147 372 2553 
Q 372 3047 722 3315 
Q 1072 3584 1716 3584 
Q 2034 3584 2315 3537 
Q 2597 3491 2834 3397 
z
" transform="scale(0.015625)"/>
      </defs>
      <use xlink:href="#DejaVuSans-43"/>
      <use xlink:href="#DejaVuSans-61" x="69.824219"/>
      <use xlink:href="#DejaVuSans-74" x="131.103516"/>
      <use xlink:href="#DejaVuSans-65" x="170.3125"/>
      <use xlink:href="#DejaVuSans-67" x="231.835938"/>
      <use xlink:href="#DejaVuSans-6f" x="295.3125"/>
      <use xlink:href="#DejaVuSans-72" x="356.494141"/>
      <use xlink:href="#DejaVuSans-69" x="397.607422"/>
      <use xlink:href="#DejaVuSans-63" x="425.390625"/>
      <use xlink:href="#DejaVuSans-61" x="480.371094"/>
      <use xlink:href="#DejaVuSans-6c" x="541.650391"/>
      <use xlink:href="#DejaVuSans-20" x="569.433594"/>
      <use xlink:href="#DejaVuSans-55" x="601.220703"/>
      <use xlink:href="#DejaVuSans-6e" x="674.414062"/>
      <use xlink:href="#DejaVuSans-69" x="737.792969"/>
      <use xlink:href="#DejaVuSans-74" x="765.576172"/>
      <use xlink:href="#DejaVuSans-73" x="804.785156"/>
     </g>
    </g>
   </g>
   <g id="line2d_25">
    <path d="M 154.256055 181.8 
L 572.595156 181.8 
" clip-path="url(#p3946b12a46)" style="fill: none; stroke-dasharray: 1.5,2.475; stroke-dashoffset: 0; stroke: #808080; stroke-width: 1.5"/>
   </g>
   <g id="line2d_26">
    <path d="M 443.875433 361 
L 443.875433 -1 
" clip-path="url(#p3946b12a46)" style="fill: none; stroke-dasharray: 5.55,2.4; stroke-dashoffset: 0; stroke: #ff0000; stroke-opacity: 0.3; stroke-width: 1.5"/>
   </g>
   <g id="line2d_27">
    <path d="M 206.949756 310.133333 
L 209.993045 308.118131 
L 213.036333 306.10293 
L 216.079621 304.087728 
L 219.122909 302.072526 
L 222.166198 300.057324 
L 225.209486 298.042122 
L 228.252774 296.02692 
L 231.296062 294.011719 
L 234.339351 291.996517 
L 237.382639 289.981315 
L 240.425927 287.966113 
L 243.469215 285.950911 
L 246.512504 283.935709 
L 249.555792 281.920507 
L 252.59908 279.905306 
L 255.642368 277.890104 
L 258.685657 275.874902 
L 261.728945 273.8597 
L 264.772233 271.844498 
L 267.815521 269.829296 
L 270.85881 267.814095 
L 273.902098 265.798893 
L 276.945386 263.783691 
L 279.988674 261.768489 
L 283.031963 259.753287 
L 286.075251 257.738085 
L 289.118539 255.722883 
L 292.161827 253.707682 
L 295.205116 251.69248 
L 298.248404 249.677278 
L 301.291692 247.662076 
L 304.33498 245.646874 
L 307.378269 243.631672 
L 310.421557 241.61647 
L 313.464845 239.601269 
L 316.508133 237.586067 
L 319.551422 235.570865 
L 322.59471 233.555663 
L 325.637998 231.534919 
L 328.681286 229.496569 
L 331.724575 227.439737 
L 334.767863 225.363912 
L 337.811151 223.268558 
L 340.854439 221.153111 
L 343.897728 219.016984 
L 346.941016 216.859558 
L 349.984304 214.680182 
L 353.027592 212.478173 
L 356.070881 210.25281 
L 359.114169 208.003334 
L 362.157457 205.728944 
L 365.200745 203.428794 
L 368.244034 201.101987 
L 371.287322 198.747576 
L 374.33061 196.364553 
L 377.373898 193.951849 
L 380.417187 191.508327 
L 383.460475 189.032774 
L 386.503763 186.523898 
L 389.547051 183.980315 
L 392.59034 181.400544 
L 395.633628 178.782994 
L 398.676916 176.125956 
L 401.720204 173.427587 
L 404.763493 170.685896 
L 407.806781 167.898726 
L 410.850069 165.063736 
L 413.893357 162.178378 
L 416.936646 159.239867 
L 419.979934 156.245152 
L 423.023222 153.190881 
L 426.06651 150.073351 
L 429.109799 146.888462 
L 432.153087 143.631649 
L 435.196375 140.297806 
L 438.239663 136.881196 
L 441.282952 133.375329 
L 444.32624 129.774705 
L 447.369528 126.140989 
L 450.412816 122.507273 
L 453.456105 118.873557 
L 456.499393 115.239841 
L 459.542681 111.606125 
L 462.585969 107.972408 
L 465.629258 104.338692 
L 468.672546 100.704976 
L 471.715834 97.07126 
L 474.759122 93.437544 
L 477.802411 89.803828 
L 480.845699 86.170112 
L 483.888987 82.536396 
L 486.932275 78.902679 
L 489.975564 75.268963 
L 493.018852 71.635247 
L 496.06214 68.001531 
L 499.105429 64.367815 
L 502.148717 60.734099 
L 505.192005 57.100383 
L 508.235293 53.466667 
" clip-path="url(#p3946b12a46)" style="fill: none; stroke: #1f77b4; stroke-width: 1.5; stroke-linecap: square"/>
   </g>
   <g id="line2d_28">
    <path d="M 204.979875 310.133333 
L 207.6001 308.50747 
L 210.220325 306.881606 
L 212.84055 305.255743 
L 215.460774 303.629879 
L 218.080999 302.004016 
L 220.701224 300.378152 
L 223.321449 298.752289 
L 225.941674 297.126425 
L 228.561899 295.500562 
L 231.182124 293.874698 
L 233.802349 292.248835 
L 236.422574 290.622971 
L 239.042798 288.997108 
L 241.663023 287.371244 
L 244.283248 285.745381 
L 246.903473 284.119517 
L 249.523698 282.493654 
L 252.143923 280.86779 
L 254.764148 279.241927 
L 257.384373 277.616063 
L 260.004598 275.9902 
L 262.624823 274.364336 
L 265.245047 272.738473 
L 267.865272 271.112609 
L 270.485497 269.486745 
L 273.105722 267.860882 
L 275.725947 266.235018 
L 278.346172 264.609155 
L 280.966397 262.983291 
L 283.586622 261.357428 
L 286.206847 259.731564 
L 288.827071 258.105701 
L 291.447296 256.479837 
L 294.067521 254.853974 
L 296.687746 253.22811 
L 299.307971 251.602247 
L 301.928196 249.976383 
L 304.548421 248.35052 
L 307.168646 246.724656 
L 309.788871 245.098793 
L 312.409096 243.472929 
L 315.02932 241.847066 
L 317.649545 240.221202 
L 320.26977 238.595339 
L 322.889995 236.969475 
L 325.51022 235.343612 
L 328.130445 233.717748 
L 330.75067 232.087915 
L 333.370895 230.439668 
L 335.99112 228.771043 
L 338.611345 227.081264 
L 341.231569 225.369507 
L 343.851794 223.63489 
L 346.472019 221.876473 
L 349.092244 220.093248 
L 351.712469 218.284134 
L 354.332694 216.447971 
L 356.952919 214.583506 
L 359.573144 212.689391 
L 362.193369 210.764163 
L 364.813593 208.806238 
L 367.433818 206.813889 
L 370.054043 204.785236 
L 372.674268 202.718218 
L 375.294493 200.610572 
L 377.914718 198.459805 
L 380.534943 196.263155 
L 383.155168 194.017556 
L 385.775393 191.71958 
L 388.395618 189.365384 
L 391.015842 186.950625 
L 393.636067 184.470377 
L 396.256292 181.919001 
L 398.876517 179.290003 
L 401.496742 176.575836 
L 404.116967 173.767644 
L 406.737192 170.854921 
L 409.357417 167.825043 
L 411.977642 164.662622 
L 414.597866 161.348577 
L 417.218091 157.858748 
L 419.838316 154.161791 
L 422.458541 150.215762 
L 425.078766 145.962303 
L 427.698991 141.315932 
L 430.319216 136.142226 
L 432.939441 130.20734 
L 435.559666 123.812284 
L 438.179891 117.417228 
L 440.800115 111.022172 
L 443.42034 104.627116 
L 446.040565 98.232059 
L 448.66079 91.837003 
L 451.281015 85.441947 
L 453.90124 79.046891 
L 456.521465 72.651835 
L 459.14169 66.256779 
L 461.761915 59.861723 
L 464.38214 53.466667 
" clip-path="url(#p3946b12a46)" style="fill: none; stroke-dasharray: 5.55,2.4; stroke-dashoffset: 0; stroke: #ff7f0e; stroke-width: 1.5"/>
   </g>
   <g id="patch_3">
    <path d="M 180 320.4 
L 180 43.2 
" style="fill: none; stroke: #000000; stroke-width: 0.8; stroke-linejoin: miter; stroke-linecap: square"/>
   </g>
   <g id="patch_4">
    <path d="M 508.235294 320.4 
L 508.235294 43.2 
" style="fill: none; stroke: #000000; stroke-width: 0.8; stroke-linejoin: miter; stroke-linecap: square"/>
   </g>
   <g id="patch_5">
    <path d="M 180 320.4 
L 508.235294 320.4 
" style="fill: none; stroke: #000000; stroke-width: 0.8; stroke-linejoin: miter; stroke-linecap: square"/>
   </g>
   <g id="patch_6">
    <path d="M 180 43.2 
L 508.235294 43.2 
" style="fill: none; stroke: #000000; stroke-width: 0.8; stroke-linejoin: miter; stroke-linecap: square"/>
   </g>
   <g id="text_15">
    <!--  Block: 0 -->
    <g transform="translate(318.237022 37.2) scale(0.12 -0.12)">
     <defs>
      <path id="DejaVuSans-6b" d="M 581 4863 
L 1159 4863 
L 1159 1991 
L 2875 3500 
L 3609 3500 
L 1753 1863 
L 3688 0 
L 2938 0 
L 1159 1709 
L 1159 0 
L 581 0 
L 581 4863 
z
" transform="scale(0.015625)"/>
      <path id="DejaVuSans-3a" d="M 750 794 
L 1409 794 
L 1409 0 
L 750 0 
L 750 794 
z
M 750 3309 
L 1409 3309 
L 1409 2516 
L 750 2516 
L 750 3309 
z
" transform="scale(0.015625)"/>
     </defs>
     <use xlink:href="#DejaVuSans-20"/>
     <use xlink:href="#DejaVuSans-42" x="31.787109"/>
     <use xlink:href="#DejaVuSans-6c" x="100.390625"/>
     <use xlink:href="#DejaVuSans-6f" x="128.173828"/>
     <use xlink:href="#DejaVuSans-63" x="189.355469"/>
     <use xlink:href="#DejaVuSans-6b" x="244.335938"/>
     <use xlink:href="#DejaVuSans-3a" x="302.246094"/>
     <use xlink:href="#DejaVuSans-20" x="335.9375"/>
     <use xlink:href="#DejaVuSans-30" x="367.724609"/>
    </g>
   </g>
   <g id="legend_1">
    <g id="patch_7">
     <path d="M 187 95.5125 
L 318.2 95.5125 
Q 320.2 95.5125 320.2 93.5125 
L 320.2 50.2 
Q 320.2 48.2 318.2 48.2 
L 187 48.2 
Q 185 48.2 185 50.2 
L 185 93.5125 
Q 185 95.5125 187 95.5125 
z
" style="fill: #ffffff; opacity: 0.8; stroke: #cccccc; stroke-linejoin: miter"/>
    </g>
    <g id="PathCollection_2">
     <g>
      <use xlink:href="#mbab29e1528" x="199" y="57.173437" style="stroke: #000000"/>
     </g>
    </g>
    <g id="text_16">
     <!-- Data -->
     <g transform="translate(217 59.798437) scale(0.1 -0.1)">
      <defs>
       <path id="DejaVuSans-44" d="M 1259 4147 
L 1259 519 
L 2022 519 
Q 2988 519 3436 956 
Q 3884 1394 3884 2338 
Q 3884 3275 3436 3711 
Q 2988 4147 2022 4147 
L 1259 4147 
z
M 628 4666 
L 1925 4666 
Q 3281 4666 3915 4102 
Q 4550 3538 4550 2338 
Q 4550 1131 3912 565 
Q 3275 0 1925 0 
L 628 0 
L 628 4666 
z
" transform="scale(0.015625)"/>
      </defs>
      <use xlink:href="#DejaVuSans-44"/>
      <use xlink:href="#DejaVuSans-61" x="77.001953"/>
      <use xlink:href="#DejaVuSans-74" x="138.28125"/>
      <use xlink:href="#DejaVuSans-61" x="177.490234"/>
     </g>
    </g>
    <g id="line2d_29">
     <path d="M 189 70.976562 
L 199 70.976562 
L 209 70.976562 
" style="fill: none; stroke: #1f77b4; stroke-width: 1.5; stroke-linecap: square"/>
    </g>
    <g id="text_17">
     <!-- Artc e:0.1663 -->
     <g transform="translate(217 74.476562) scale(0.1 -0.1)">
      <defs>
       <path id="DejaVuSans-41" d="M 2188 4044 
L 1331 1722 
L 3047 1722 
L 2188 4044 
z
M 1831 4666 
L 2547 4666 
L 4325 0 
L 3669 0 
L 3244 1197 
L 1141 1197 
L 716 0 
L 50 0 
L 1831 4666 
z
" transform="scale(0.015625)"/>
       <path id="DejaVuSans-2e" d="M 684 794 
L 1344 794 
L 1344 0 
L 684 0 
L 684 794 
z
" transform="scale(0.015625)"/>
      </defs>
      <use xlink:href="#DejaVuSans-41"/>
      <use xlink:href="#DejaVuSans-72" x="68.408203"/>
      <use xlink:href="#DejaVuSans-74" x="109.521484"/>
      <use xlink:href="#DejaVuSans-63" x="148.730469"/>
      <use xlink:href="#DejaVuSans-20" x="203.710938"/>
      <use xlink:href="#DejaVuSans-65" x="235.498047"/>
      <use xlink:href="#DejaVuSans-3a" x="297.021484"/>
      <use xlink:href="#DejaVuSans-30" x="330.712891"/>
      <use xlink:href="#DejaVuSans-2e" x="394.335938"/>
      <use xlink:href="#DejaVuSans-31" x="426.123047"/>
      <use xlink:href="#DejaVuSans-36" x="489.746094"/>
      <use xlink:href="#DejaVuSans-36" x="553.369141"/>
      <use xlink:href="#DejaVuSans-33" x="616.992188"/>
     </g>
    </g>
    <g id="line2d_30">
     <path d="M 189 85.654687 
L 199 85.654687 
L 209 85.654687 
" style="fill: none; stroke-dasharray: 5.55,2.4; stroke-dashoffset: 0; stroke: #ff7f0e; stroke-width: 1.5"/>
    </g>
    <g id="text_18">
     <!-- NEL_BTUX e:0.1745 -->
     <g transform="translate(217 89.154687) scale(0.1 -0.1)">
      <defs>
       <path id="DejaVuSans-4e" d="M 628 4666 
L 1478 4666 
L 3547 763 
L 3547 4666 
L 4159 4666 
L 4159 0 
L 3309 0 
L 1241 3903 
L 1241 0 
L 628 0 
L 628 4666 
z
" transform="scale(0.015625)"/>
       <path id="DejaVuSans-45" d="M 628 4666 
L 3578 4666 
L 3578 4134 
L 1259 4134 
L 1259 2753 
L 3481 2753 
L 3481 2222 
L 1259 2222 
L 1259 531 
L 3634 531 
L 3634 0 
L 628 0 
L 628 4666 
z
" transform="scale(0.015625)"/>
       <path id="DejaVuSans-5f" d="M 3263 -1063 
L 3263 -1509 
L -63 -1509 
L -63 -1063 
L 3263 -1063 
z
" transform="scale(0.015625)"/>
       <path id="DejaVuSans-54" d="M -19 4666 
L 3928 4666 
L 3928 4134 
L 2272 4134 
L 2272 0 
L 1638 0 
L 1638 4134 
L -19 4134 
L -19 4666 
z
" transform="scale(0.015625)"/>
       <path id="DejaVuSans-58" d="M 403 4666 
L 1081 4666 
L 2241 2931 
L 3406 4666 
L 4084 4666 
L 2584 2425 
L 4184 0 
L 3506 0 
L 2194 1984 
L 872 0 
L 191 0 
L 1856 2491 
L 403 4666 
z
" transform="scale(0.015625)"/>
       <path id="DejaVuSans-37" d="M 525 4666 
L 3525 4666 
L 3525 4397 
L 1831 0 
L 1172 0 
L 2766 4134 
L 525 4134 
L 525 4666 
z
" transform="scale(0.015625)"/>
      </defs>
      <use xlink:href="#DejaVuSans-4e"/>
      <use xlink:href="#DejaVuSans-45" x="74.804688"/>
      <use xlink:href="#DejaVuSans-4c" x="137.988281"/>
      <use xlink:href="#DejaVuSans-5f" x="193.701172"/>
      <use xlink:href="#DejaVuSans-42" x="243.701172"/>
      <use xlink:href="#DejaVuSans-54" x="312.304688"/>
      <use xlink:href="#DejaVuSans-55" x="373.388672"/>
      <use xlink:href="#DejaVuSans-58" x="446.582031"/>
      <use xlink:href="#DejaVuSans-20" x="515.087891"/>
      <use xlink:href="#DejaVuSans-65" x="546.875"/>
      <use xlink:href="#DejaVuSans-3a" x="608.398438"/>
      <use xlink:href="#DejaVuSans-30" x="642.089844"/>
      <use xlink:href="#DejaVuSans-2e" x="705.712891"/>
      <use xlink:href="#DejaVuSans-31" x="737.5"/>
      <use xlink:href="#DejaVuSans-37" x="801.123047"/>
      <use xlink:href="#DejaVuSans-34" x="864.746094"/>
      <use xlink:href="#DejaVuSans-35" x="928.369141"/>
     </g>
    </g>
   </g>
  </g>
  <g id="axes_2">
   <g id="patch_8">
    <path d="M 573.882353 320.4 
L 902.117647 320.4 
L 902.117647 43.2 
L 573.882353 43.2 
z
" style="fill: #ffffff"/>
   </g>
   <g id="PathCollection_3">
    <g clip-path="url(#pf974711a8a)">
     <use xlink:href="#mbab29e1528" x="821.66782" y="104.8" style="stroke: #000000"/>
     <use xlink:href="#mbab29e1528" x="773.397924" y="181.8" style="stroke: #000000"/>
     <use xlink:href="#mbab29e1528" x="725.128028" y="233.133333" style="stroke: #000000"/>
     <use xlink:href="#mbab29e1528" x="676.858131" y="258.8" style="stroke: #000000"/>
     <use xlink:href="#mbab29e1528" x="628.588235" y="284.466667" style="stroke: #000000"/>
     <use xlink:href="#mbab29e1528" x="580.318339" y="310.133333" style="stroke: #000000"/>
     <use xlink:href="#mbab29e1528" x="596.408304" y="310.133333" style="stroke: #000000"/>
     <use xlink:href="#mbab29e1528" x="612.49827" y="310.133333" style="stroke: #000000"/>
     <use xlink:href="#mbab29e1528" x="628.588235" y="310.133333" style="stroke: #000000"/>
     <use xlink:href="#mbab29e1528" x="644.678201" y="284.466667" style="stroke: #000000"/>
     <use xlink:href="#mbab29e1528" x="692.942948" y="258.8" style="stroke: #000000"/>
     <use xlink:href="#mbab29e1528" x="644.671443" y="284.466667" style="stroke: #000000"/>
     <use xlink:href="#mbab29e1528" x="789.48628" y="156.133333" style="stroke: #000000"/>
     <use xlink:href="#mbab29e1528" x="837.757785" y="104.8" style="stroke: #000000"/>
     <use xlink:href="#mbab29e1528" x="741.214453" y="181.8" style="stroke: #000000"/>
     <use xlink:href="#mbab29e1528" x="648.86674" y="284.466667" style="stroke: #000000"/>
     <use xlink:href="#mbab29e1528" x="837.757785" y="104.8" style="stroke: #000000"/>
     <use xlink:href="#mbab29e1528" x="790.535024" y="181.8" style="stroke: #000000"/>
     <use xlink:href="#mbab29e1528" x="743.312263" y="233.133333" style="stroke: #000000"/>
     <use xlink:href="#mbab29e1528" x="696.089502" y="258.8" style="stroke: #000000"/>
    </g>
   </g>
   <g id="matplotlib.axis_3">
    <g id="xtick_7">
     <g id="line2d_31">
      <path d="M 580.318339 320.4 
L 580.318339 43.2 
" clip-path="url(#pf974711a8a)" style="fill: none; stroke: #b0b0b0; stroke-width: 0.8; stroke-linecap: square"/>
     </g>
     <g id="line2d_32">
      <g>
       <use xlink:href="#mea5d977369" x="580.318339" y="320.4" style="stroke: #000000; stroke-width: 0.8"/>
      </g>
     </g>
     <g id="text_19">
      <!-- 0 -->
      <g transform="translate(577.137089 334.998438) scale(0.1 -0.1)">
       <use xlink:href="#DejaVuSans-30"/>
      </g>
     </g>
    </g>
    <g id="xtick_8">
     <g id="line2d_33">
      <path d="M 644.678201 320.4 
L 644.678201 43.2 
" clip-path="url(#pf974711a8a)" style="fill: none; stroke: #b0b0b0; stroke-width: 0.8; stroke-linecap: square"/>
     </g>
     <g id="line2d_34">
      <g>
       <use xlink:href="#mea5d977369" x="644.678201" y="320.4" style="stroke: #000000; stroke-width: 0.8"/>
      </g>
     </g>
     <g id="text_20">
      <!-- 20 -->
      <g transform="translate(638.315701 334.998438) scale(0.1 -0.1)">
       <use xlink:href="#DejaVuSans-32"/>
       <use xlink:href="#DejaVuSans-30" x="63.623047"/>
      </g>
     </g>
    </g>
    <g id="xtick_9">
     <g id="line2d_35">
      <path d="M 709.038062 320.4 
L 709.038062 43.2 
" clip-path="url(#pf974711a8a)" style="fill: none; stroke: #b0b0b0; stroke-width: 0.8; stroke-linecap: square"/>
     </g>
     <g id="line2d_36">
      <g>
       <use xlink:href="#mea5d977369" x="709.038062" y="320.4" style="stroke: #000000; stroke-width: 0.8"/>
      </g>
     </g>
     <g id="text_21">
      <!-- 40 -->
      <g transform="translate(702.675562 334.998438) scale(0.1 -0.1)">
       <use xlink:href="#DejaVuSans-34"/>
       <use xlink:href="#DejaVuSans-30" x="63.623047"/>
      </g>
     </g>
    </g>
    <g id="xtick_10">
     <g id="line2d_37">
      <path d="M 773.397924 320.4 
L 773.397924 43.2 
" clip-path="url(#pf974711a8a)" style="fill: none; stroke: #b0b0b0; stroke-width: 0.8; stroke-linecap: square"/>
     </g>
     <g id="line2d_38">
      <g>
       <use xlink:href="#mea5d977369" x="773.397924" y="320.4" style="stroke: #000000; stroke-width: 0.8"/>
      </g>
     </g>
     <g id="text_22">
      <!-- 60 -->
      <g transform="translate(767.035424 334.998438) scale(0.1 -0.1)">
       <use xlink:href="#DejaVuSans-36"/>
       <use xlink:href="#DejaVuSans-30" x="63.623047"/>
      </g>
     </g>
    </g>
    <g id="xtick_11">
     <g id="line2d_39">
      <path d="M 837.757785 320.4 
L 837.757785 43.2 
" clip-path="url(#pf974711a8a)" style="fill: none; stroke: #b0b0b0; stroke-width: 0.8; stroke-linecap: square"/>
     </g>
     <g id="line2d_40">
      <g>
       <use xlink:href="#mea5d977369" x="837.757785" y="320.4" style="stroke: #000000; stroke-width: 0.8"/>
      </g>
     </g>
     <g id="text_23">
      <!-- 80 -->
      <g transform="translate(831.395285 334.998438) scale(0.1 -0.1)">
       <use xlink:href="#DejaVuSans-38"/>
       <use xlink:href="#DejaVuSans-30" x="63.623047"/>
      </g>
     </g>
    </g>
    <g id="xtick_12">
     <g id="line2d_41">
      <path d="M 902.117647 320.4 
L 902.117647 43.2 
" clip-path="url(#pf974711a8a)" style="fill: none; stroke: #b0b0b0; stroke-width: 0.8; stroke-linecap: square"/>
     </g>
     <g id="line2d_42">
      <g>
       <use xlink:href="#mea5d977369" x="902.117647" y="320.4" style="stroke: #000000; stroke-width: 0.8"/>
      </g>
     </g>
     <g id="text_24">
      <!-- 100 -->
      <g transform="translate(892.573897 334.998438) scale(0.1 -0.1)">
       <use xlink:href="#DejaVuSans-31"/>
       <use xlink:href="#DejaVuSans-30" x="63.623047"/>
       <use xlink:href="#DejaVuSans-30" x="127.246094"/>
      </g>
     </g>
    </g>
    <g id="text_25">
     <!-- Level [dB SPL] -->
     <g transform="translate(702.140625 348.676562) scale(0.1 -0.1)">
      <use xlink:href="#DejaVuSans-4c"/>
      <use xlink:href="#DejaVuSans-65" x="53.962891"/>
      <use xlink:href="#DejaVuSans-76" x="115.486328"/>
      <use xlink:href="#DejaVuSans-65" x="174.666016"/>
      <use xlink:href="#DejaVuSans-6c" x="236.189453"/>
      <use xlink:href="#DejaVuSans-20" x="263.972656"/>
      <use xlink:href="#DejaVuSans-5b" x="295.759766"/>
      <use xlink:href="#DejaVuSans-64" x="334.773438"/>
      <use xlink:href="#DejaVuSans-42" x="398.25"/>
      <use xlink:href="#DejaVuSans-20" x="466.853516"/>
      <use xlink:href="#DejaVuSans-53" x="498.640625"/>
      <use xlink:href="#DejaVuSans-50" x="562.117188"/>
      <use xlink:href="#DejaVuSans-4c" x="622.419922"/>
      <use xlink:href="#DejaVuSans-5d" x="678.132812"/>
     </g>
    </g>
   </g>
   <g id="matplotlib.axis_4">
    <g id="ytick_7">
     <g id="line2d_43">
      <path d="M 573.882353 310.133333 
L 902.117647 310.133333 
" clip-path="url(#pf974711a8a)" style="fill: none; stroke: #b0b0b0; stroke-width: 0.8; stroke-linecap: square"/>
     </g>
     <g id="line2d_44">
      <g>
       <use xlink:href="#m6a49a59a5d" x="573.882353" y="310.133333" style="stroke: #000000; stroke-width: 0.8"/>
      </g>
     </g>
     <g id="text_26">
      <!-- 0 -->
      <g transform="translate(560.519853 313.932552) scale(0.1 -0.1)">
       <use xlink:href="#DejaVuSans-30"/>
      </g>
     </g>
    </g>
    <g id="ytick_8">
     <g id="line2d_45">
      <path d="M 573.882353 258.8 
L 902.117647 258.8 
" clip-path="url(#pf974711a8a)" style="fill: none; stroke: #b0b0b0; stroke-width: 0.8; stroke-linecap: square"/>
     </g>
     <g id="line2d_46">
      <g>
       <use xlink:href="#m6a49a59a5d" x="573.882353" y="258.8" style="stroke: #000000; stroke-width: 0.8"/>
      </g>
     </g>
     <g id="text_27">
      <!-- 10 -->
      <g transform="translate(554.157353 262.599219) scale(0.1 -0.1)">
       <use xlink:href="#DejaVuSans-31"/>
       <use xlink:href="#DejaVuSans-30" x="63.623047"/>
      </g>
     </g>
    </g>
    <g id="ytick_9">
     <g id="line2d_47">
      <path d="M 573.882353 207.466667 
L 902.117647 207.466667 
" clip-path="url(#pf974711a8a)" style="fill: none; stroke: #b0b0b0; stroke-width: 0.8; stroke-linecap: square"/>
     </g>
     <g id="line2d_48">
      <g>
       <use xlink:href="#m6a49a59a5d" x="573.882353" y="207.466667" style="stroke: #000000; stroke-width: 0.8"/>
      </g>
     </g>
     <g id="text_28">
      <!-- 20 -->
      <g transform="translate(554.157353 211.265885) scale(0.1 -0.1)">
       <use xlink:href="#DejaVuSans-32"/>
       <use xlink:href="#DejaVuSans-30" x="63.623047"/>
      </g>
     </g>
    </g>
    <g id="ytick_10">
     <g id="line2d_49">
      <path d="M 573.882353 156.133333 
L 902.117647 156.133333 
" clip-path="url(#pf974711a8a)" style="fill: none; stroke: #b0b0b0; stroke-width: 0.8; stroke-linecap: square"/>
     </g>
     <g id="line2d_50">
      <g>
       <use xlink:href="#m6a49a59a5d" x="573.882353" y="156.133333" style="stroke: #000000; stroke-width: 0.8"/>
      </g>
     </g>
     <g id="text_29">
      <!-- 30 -->
      <g transform="translate(554.157353 159.932552) scale(0.1 -0.1)">
       <use xlink:href="#DejaVuSans-33"/>
       <use xlink:href="#DejaVuSans-30" x="63.623047"/>
      </g>
     </g>
    </g>
    <g id="ytick_11">
     <g id="line2d_51">
      <path d="M 573.882353 104.8 
L 902.117647 104.8 
" clip-path="url(#pf974711a8a)" style="fill: none; stroke: #b0b0b0; stroke-width: 0.8; stroke-linecap: square"/>
     </g>
     <g id="line2d_52">
      <g>
       <use xlink:href="#m6a49a59a5d" x="573.882353" y="104.8" style="stroke: #000000; stroke-width: 0.8"/>
      </g>
     </g>
     <g id="text_30">
      <!-- 40 -->
      <g transform="translate(554.157353 108.599219) scale(0.1 -0.1)">
       <use xlink:href="#DejaVuSans-34"/>
       <use xlink:href="#DejaVuSans-30" x="63.623047"/>
      </g>
     </g>
    </g>
    <g id="ytick_12">
     <g id="line2d_53">
      <path d="M 573.882353 53.466667 
L 902.117647 53.466667 
" clip-path="url(#pf974711a8a)" style="fill: none; stroke: #b0b0b0; stroke-width: 0.8; stroke-linecap: square"/>
     </g>
     <g id="line2d_54">
      <g>
       <use xlink:href="#m6a49a59a5d" x="573.882353" y="53.466667" style="stroke: #000000; stroke-width: 0.8"/>
      </g>
     </g>
     <g id="text_31">
      <!-- 50 -->
      <g transform="translate(554.157353 57.265885) scale(0.1 -0.1)">
       <use xlink:href="#DejaVuSans-35"/>
       <use xlink:href="#DejaVuSans-30" x="63.623047"/>
      </g>
     </g>
    </g>
    <g id="text_32">
     <!-- Categorical Units -->
     <g transform="translate(548.077665 224.64375) rotate(-90) scale(0.1 -0.1)">
      <use xlink:href="#DejaVuSans-43"/>
      <use xlink:href="#DejaVuSans-61" x="69.824219"/>
      <use xlink:href="#DejaVuSans-74" x="131.103516"/>
      <use xlink:href="#DejaVuSans-65" x="170.3125"/>
      <use xlink:href="#DejaVuSans-67" x="231.835938"/>
      <use xlink:href="#DejaVuSans-6f" x="295.3125"/>
      <use xlink:href="#DejaVuSans-72" x="356.494141"/>
      <use xlink:href="#DejaVuSans-69" x="397.607422"/>
      <use xlink:href="#DejaVuSans-63" x="425.390625"/>
      <use xlink:href="#DejaVuSans-61" x="480.371094"/>
      <use xlink:href="#DejaVuSans-6c" x="541.650391"/>
      <use xlink:href="#DejaVuSans-20" x="569.433594"/>
      <use xlink:href="#DejaVuSans-55" x="601.220703"/>
      <use xlink:href="#DejaVuSans-6e" x="674.414062"/>
      <use xlink:href="#DejaVuSans-69" x="737.792969"/>
      <use xlink:href="#DejaVuSans-74" x="765.576172"/>
      <use xlink:href="#DejaVuSans-73" x="804.785156"/>
     </g>
    </g>
   </g>
   <g id="line2d_55">
    <path d="M 548.138408 181.8 
L 966.477509 181.8 
" clip-path="url(#pf974711a8a)" style="fill: none; stroke-dasharray: 1.5,2.475; stroke-dashoffset: 0; stroke: #808080; stroke-width: 1.5"/>
   </g>
   <g id="line2d_56">
    <path d="M 837.757785 361 
L 837.757785 -1 
" clip-path="url(#pf974711a8a)" style="fill: none; stroke-dasharray: 5.55,2.4; stroke-dashoffset: 0; stroke: #ff0000; stroke-opacity: 0.3; stroke-width: 1.5"/>
   </g>
   <g id="line2d_57">
    <path d="M 618.018887 310.133333 
L 620.888572 307.763154 
L 623.758256 305.392975 
L 626.62794 303.022796 
L 629.497625 300.652616 
L 632.367309 298.282437 
L 635.236994 295.912258 
L 638.106678 293.542079 
L 640.976363 291.171899 
L 643.846047 288.80172 
L 646.715732 286.431541 
L 649.585416 284.061361 
L 652.4551 281.691182 
L 655.324785 279.321003 
L 658.194469 276.950824 
L 661.064154 274.580644 
L 663.933838 272.210465 
L 666.803523 269.840286 
L 669.673207 267.470107 
L 672.542892 265.099927 
L 675.412576 262.729748 
L 678.28226 260.359569 
L 681.151945 257.98939 
L 684.021629 255.61921 
L 686.891314 253.249031 
L 689.760998 250.878852 
L 692.630683 248.508673 
L 695.500367 246.138493 
L 698.370052 243.768314 
L 701.239736 241.398135 
L 704.10942 239.027956 
L 706.979105 236.657776 
L 709.848789 234.287597 
L 712.718474 231.91618 
L 715.588158 229.536428 
L 718.457843 227.147116 
L 721.327527 224.748128 
L 724.197212 222.339345 
L 727.066896 219.920647 
L 729.93658 217.49191 
L 732.806265 215.053008 
L 735.675949 212.603812 
L 738.545634 210.144191 
L 741.415318 207.67401 
L 744.285003 205.193133 
L 747.154687 202.701419 
L 750.024372 200.198725 
L 752.894056 197.684904 
L 755.76374 195.159807 
L 758.633425 192.62328 
L 761.503109 190.075168 
L 764.372794 187.515309 
L 767.242478 184.943541 
L 770.112163 182.359694 
L 772.981847 179.763597 
L 775.851532 177.155075 
L 778.721216 174.533947 
L 781.5909 171.900028 
L 784.460585 169.25313 
L 787.330269 166.593059 
L 790.199954 163.919616 
L 793.069638 161.232597 
L 795.939323 158.531794 
L 798.809007 155.816992 
L 801.678692 153.087971 
L 804.548376 150.344505 
L 807.41806 147.586363 
L 810.287745 144.813306 
L 813.157429 142.02509 
L 816.027114 139.221464 
L 818.896798 136.402169 
L 821.766483 133.566939 
L 824.636167 130.715501 
L 827.505852 127.854493 
L 830.375536 124.993423 
L 833.24522 122.132353 
L 836.114905 119.271282 
L 838.984589 116.410212 
L 841.854274 113.549142 
L 844.723958 110.688072 
L 847.593643 107.827001 
L 850.463327 104.965931 
L 853.333012 102.104861 
L 856.202696 99.243791 
L 859.07238 96.38272 
L 861.942065 93.52165 
L 864.811749 90.66058 
L 867.681434 87.79951 
L 870.551118 84.938439 
L 873.420803 82.077369 
L 876.290487 79.216299 
L 879.160172 76.355229 
L 882.029856 73.494158 
L 884.89954 70.633088 
L 887.769225 67.772018 
L 890.638909 64.910948 
L 893.508594 62.049877 
L 896.378278 59.188807 
L 899.247963 56.327737 
L 902.117647 53.466667 
" clip-path="url(#pf974711a8a)" style="fill: none; stroke: #1f77b4; stroke-width: 1.5; stroke-linecap: square"/>
   </g>
   <g id="line2d_58">
    <path d="M 610.075318 310.133333 
L 612.476313 308.46883 
L 614.877309 306.804327 
L 617.278304 305.139824 
L 619.679299 303.475321 
L 622.080294 301.810818 
L 624.481289 300.146315 
L 626.882284 298.481811 
L 629.283279 296.817308 
L 631.684274 295.152805 
L 634.085269 293.488302 
L 636.486264 291.823799 
L 638.887259 290.159296 
L 641.288254 288.494793 
L 643.689249 286.83029 
L 646.090244 285.165786 
L 648.491239 283.501283 
L 650.892234 281.83678 
L 653.293229 280.172277 
L 655.694224 278.507774 
L 658.095219 276.843271 
L 660.496214 275.178768 
L 662.897209 273.514265 
L 665.298204 271.849761 
L 667.699199 270.185258 
L 670.100194 268.520755 
L 672.501189 266.856252 
L 674.902185 265.191749 
L 677.30318 263.527246 
L 679.704175 261.862743 
L 682.10517 260.19824 
L 684.506165 258.533736 
L 686.90716 256.869233 
L 689.308155 255.20473 
L 691.70915 253.540227 
L 694.110145 251.875724 
L 696.51114 250.211221 
L 698.912135 248.546718 
L 701.31313 246.882214 
L 703.714125 245.217711 
L 706.11512 243.553208 
L 708.516115 241.888705 
L 710.91711 240.224202 
L 713.318105 238.559699 
L 715.7191 236.895196 
L 718.120095 235.230693 
L 720.52109 233.566189 
L 722.922085 231.896351 
L 725.32308 230.207331 
L 727.724075 228.497754 
L 730.12507 226.76685 
L 732.526065 225.013801 
L 734.92706 223.237734 
L 737.328056 221.437718 
L 739.729051 219.612758 
L 742.130046 217.761786 
L 744.531041 215.883659 
L 746.932036 213.977143 
L 749.333031 212.040912 
L 751.734026 210.073531 
L 754.135021 208.073447 
L 756.536016 206.038973 
L 758.937011 203.968271 
L 761.338006 201.859333 
L 763.739001 199.709961 
L 766.139996 197.517736 
L 768.540991 195.279986 
L 770.941986 192.993753 
L 773.342981 190.655741 
L 775.743976 188.262265 
L 778.144971 185.809179 
L 780.545966 183.291795 
L 782.946961 180.704774 
L 785.347956 178.041997 
L 787.748951 175.296391 
L 790.149946 172.459709 
L 792.550941 169.522238 
L 794.951936 166.472404 
L 797.352932 163.296233 
L 799.753927 159.976589 
L 802.154922 156.492072 
L 804.555917 152.815365 
L 806.956912 148.910655 
L 809.357907 144.729399 
L 811.758902 140.202906 
L 814.159897 135.228243 
L 816.560892 129.646568 
L 818.961887 123.786576 
L 821.362882 117.926583 
L 823.763877 112.066591 
L 826.164872 106.206598 
L 828.565867 100.346606 
L 830.966862 94.486614 
L 833.367857 88.626621 
L 835.768852 82.766629 
L 838.169847 76.906636 
L 840.570842 71.046644 
L 842.971837 65.186651 
L 845.372832 59.326659 
L 847.773827 53.466667 
" clip-path="url(#pf974711a8a)" style="fill: none; stroke-dasharray: 5.55,2.4; stroke-dashoffset: 0; stroke: #ff7f0e; stroke-width: 1.5"/>
   </g>
   <g id="patch_9">
    <path d="M 573.882353 320.4 
L 573.882353 43.2 
" style="fill: none; stroke: #000000; stroke-width: 0.8; stroke-linejoin: miter; stroke-linecap: square"/>
   </g>
   <g id="patch_10">
    <path d="M 902.117647 320.4 
L 902.117647 43.2 
" style="fill: none; stroke: #000000; stroke-width: 0.8; stroke-linejoin: miter; stroke-linecap: square"/>
   </g>
   <g id="patch_11">
    <path d="M 573.882353 320.4 
L 902.117647 320.4 
" style="fill: none; stroke: #000000; stroke-width: 0.8; stroke-linejoin: miter; stroke-linecap: square"/>
   </g>
   <g id="patch_12">
    <path d="M 573.882353 43.2 
L 902.117647 43.2 
" style="fill: none; stroke: #000000; stroke-width: 0.8; stroke-linejoin: miter; stroke-linecap: square"/>
   </g>
   <g id="text_33">
    <!--  Block: 1 -->
    <g transform="translate(712.119375 37.2) scale(0.12 -0.12)">
     <use xlink:href="#DejaVuSans-20"/>
     <use xlink:href="#DejaVuSans-42" x="31.787109"/>
     <use xlink:href="#DejaVuSans-6c" x="100.390625"/>
     <use xlink:href="#DejaVuSans-6f" x="128.173828"/>
     <use xlink:href="#DejaVuSans-63" x="189.355469"/>
     <use xlink:href="#DejaVuSans-6b" x="244.335938"/>
     <use xlink:href="#DejaVuSans-3a" x="302.246094"/>
     <use xlink:href="#DejaVuSans-20" x="335.9375"/>
     <use xlink:href="#DejaVuSans-31" x="367.724609"/>
    </g>
   </g>
   <g id="legend_2">
    <g id="patch_13">
     <path d="M 580.882353 95.5125 
L 712.082353 95.5125 
Q 714.082353 95.5125 714.082353 93.5125 
L 714.082353 50.2 
Q 714.082353 48.2 712.082353 48.2 
L 580.882353 48.2 
Q 578.882353 48.2 578.882353 50.2 
L 578.882353 93.5125 
Q 578.882353 95.5125 580.882353 95.5125 
z
" style="fill: #ffffff; opacity: 0.8; stroke: #cccccc; stroke-linejoin: miter"/>
    </g>
    <g id="PathCollection_4">
     <g>
      <use xlink:href="#mbab29e1528" x="592.882353" y="57.173437" style="stroke: #000000"/>
     </g>
    </g>
    <g id="text_34">
     <!-- Data -->
     <g transform="translate(610.882353 59.798437) scale(0.1 -0.1)">
      <use xlink:href="#DejaVuSans-44"/>
      <use xlink:href="#DejaVuSans-61" x="77.001953"/>
      <use xlink:href="#DejaVuSans-74" x="138.28125"/>
      <use xlink:href="#DejaVuSans-61" x="177.490234"/>
     </g>
    </g>
    <g id="line2d_59">
     <path d="M 582.882353 70.976562 
L 592.882353 70.976562 
L 602.882353 70.976562 
" style="fill: none; stroke: #1f77b4; stroke-width: 1.5; stroke-linecap: square"/>
    </g>
    <g id="text_35">
     <!-- Artc e:0.1557 -->
     <g transform="translate(610.882353 74.476562) scale(0.1 -0.1)">
      <use xlink:href="#DejaVuSans-41"/>
      <use xlink:href="#DejaVuSans-72" x="68.408203"/>
      <use xlink:href="#DejaVuSans-74" x="109.521484"/>
      <use xlink:href="#DejaVuSans-63" x="148.730469"/>
      <use xlink:href="#DejaVuSans-20" x="203.710938"/>
      <use xlink:href="#DejaVuSans-65" x="235.498047"/>
      <use xlink:href="#DejaVuSans-3a" x="297.021484"/>
      <use xlink:href="#DejaVuSans-30" x="330.712891"/>
      <use xlink:href="#DejaVuSans-2e" x="394.335938"/>
      <use xlink:href="#DejaVuSans-31" x="426.123047"/>
      <use xlink:href="#DejaVuSans-35" x="489.746094"/>
      <use xlink:href="#DejaVuSans-35" x="553.369141"/>
      <use xlink:href="#DejaVuSans-37" x="616.992188"/>
     </g>
    </g>
    <g id="line2d_60">
     <path d="M 582.882353 85.654687 
L 592.882353 85.654687 
L 602.882353 85.654687 
" style="fill: none; stroke-dasharray: 5.55,2.4; stroke-dashoffset: 0; stroke: #ff7f0e; stroke-width: 1.5"/>
    </g>
    <g id="text_36">
     <!-- NEL_BTUX e:0.1488 -->
     <g transform="translate(610.882353 89.154687) scale(0.1 -0.1)">
      <use xlink:href="#DejaVuSans-4e"/>
      <use xlink:href="#DejaVuSans-45" x="74.804688"/>
      <use xlink:href="#DejaVuSans-4c" x="137.988281"/>
      <use xlink:href="#DejaVuSans-5f" x="193.701172"/>
      <use xlink:href="#DejaVuSans-42" x="243.701172"/>
      <use xlink:href="#DejaVuSans-54" x="312.304688"/>
      <use xlink:href="#DejaVuSans-55" x="373.388672"/>
      <use xlink:href="#DejaVuSans-58" x="446.582031"/>
      <use xlink:href="#DejaVuSans-20" x="515.087891"/>
      <use xlink:href="#DejaVuSans-65" x="546.875"/>
      <use xlink:href="#DejaVuSans-3a" x="608.398438"/>
      <use xlink:href="#DejaVuSans-30" x="642.089844"/>
      <use xlink:href="#DejaVuSans-2e" x="705.712891"/>
      <use xlink:href="#DejaVuSans-31" x="737.5"/>
      <use xlink:href="#DejaVuSans-34" x="801.123047"/>
      <use xlink:href="#DejaVuSans-38" x="864.746094"/>
      <use xlink:href="#DejaVuSans-38" x="928.369141"/>
     </g>
    </g>
   </g>
  </g>
  <g id="axes_3">
   <g id="patch_14">
    <path d="M 967.764706 320.4 
L 1296 320.4 
L 1296 43.2 
L 967.764706 43.2 
z
" style="fill: #ffffff"/>
   </g>
   <g id="PathCollection_5">
    <g clip-path="url(#p27d96d6c6d)">
     <use xlink:href="#mbab29e1528" x="1215.550173" y="130.466667" style="stroke: #000000"/>
     <use xlink:href="#mbab29e1528" x="1167.280277" y="181.8" style="stroke: #000000"/>
     <use xlink:href="#mbab29e1528" x="1119.010381" y="233.133333" style="stroke: #000000"/>
     <use xlink:href="#mbab29e1528" x="1070.740484" y="258.8" style="stroke: #000000"/>
     <use xlink:href="#mbab29e1528" x="1022.470588" y="284.466667" style="stroke: #000000"/>
     <use xlink:href="#mbab29e1528" x="974.200692" y="310.133333" style="stroke: #000000"/>
     <use xlink:href="#mbab29e1528" x="990.290657" y="310.133333" style="stroke: #000000"/>
     <use xlink:href="#mbab29e1528" x="1006.380623" y="310.133333" style="stroke: #000000"/>
     <use xlink:href="#mbab29e1528" x="1022.470588" y="284.466667" style="stroke: #000000"/>
     <use xlink:href="#mbab29e1528" x="1179.347751" y="156.133333" style="stroke: #000000"/>
     <use xlink:href="#mbab29e1528" x="1127.055363" y="233.133333" style="stroke: #000000"/>
     <use xlink:href="#mbab29e1528" x="1231.640138" y="104.8" style="stroke: #000000"/>
     <use xlink:href="#mbab29e1528" x="1022.470588" y="284.466667" style="stroke: #000000"/>
     <use xlink:href="#mbab29e1528" x="1074.762976" y="233.133333" style="stroke: #000000"/>
     <use xlink:href="#mbab29e1528" x="1180.295772" y="181.8" style="stroke: #000000"/>
     <use xlink:href="#mbab29e1528" x="1231.640138" y="79.133333" style="stroke: #000000"/>
     <use xlink:href="#mbab29e1528" x="1128.951083" y="181.8" style="stroke: #000000"/>
     <use xlink:href="#mbab29e1528" x="1026.262028" y="284.466667" style="stroke: #000000"/>
     <use xlink:href="#mbab29e1528" x="1077.606716" y="233.133333" style="stroke: #000000"/>
    </g>
   </g>
   <g id="matplotlib.axis_5">
    <g id="xtick_13">
     <g id="line2d_61">
      <path d="M 974.200692 320.4 
L 974.200692 43.2 
" clip-path="url(#p27d96d6c6d)" style="fill: none; stroke: #b0b0b0; stroke-width: 0.8; stroke-linecap: square"/>
     </g>
     <g id="line2d_62">
      <g>
       <use xlink:href="#mea5d977369" x="974.200692" y="320.4" style="stroke: #000000; stroke-width: 0.8"/>
      </g>
     </g>
     <g id="text_37">
      <!-- 0 -->
      <g transform="translate(971.019442 334.998438) scale(0.1 -0.1)">
       <use xlink:href="#DejaVuSans-30"/>
      </g>
     </g>
    </g>
    <g id="xtick_14">
     <g id="line2d_63">
      <path d="M 1038.560554 320.4 
L 1038.560554 43.2 
" clip-path="url(#p27d96d6c6d)" style="fill: none; stroke: #b0b0b0; stroke-width: 0.8; stroke-linecap: square"/>
     </g>
     <g id="line2d_64">
      <g>
       <use xlink:href="#mea5d977369" x="1038.560554" y="320.4" style="stroke: #000000; stroke-width: 0.8"/>
      </g>
     </g>
     <g id="text_38">
      <!-- 20 -->
      <g transform="translate(1032.198054 334.998438) scale(0.1 -0.1)">
       <use xlink:href="#DejaVuSans-32"/>
       <use xlink:href="#DejaVuSans-30" x="63.623047"/>
      </g>
     </g>
    </g>
    <g id="xtick_15">
     <g id="line2d_65">
      <path d="M 1102.920415 320.4 
L 1102.920415 43.2 
" clip-path="url(#p27d96d6c6d)" style="fill: none; stroke: #b0b0b0; stroke-width: 0.8; stroke-linecap: square"/>
     </g>
     <g id="line2d_66">
      <g>
       <use xlink:href="#mea5d977369" x="1102.920415" y="320.4" style="stroke: #000000; stroke-width: 0.8"/>
      </g>
     </g>
     <g id="text_39">
      <!-- 40 -->
      <g transform="translate(1096.557915 334.998438) scale(0.1 -0.1)">
       <use xlink:href="#DejaVuSans-34"/>
       <use xlink:href="#DejaVuSans-30" x="63.623047"/>
      </g>
     </g>
    </g>
    <g id="xtick_16">
     <g id="line2d_67">
      <path d="M 1167.280277 320.4 
L 1167.280277 43.2 
" clip-path="url(#p27d96d6c6d)" style="fill: none; stroke: #b0b0b0; stroke-width: 0.8; stroke-linecap: square"/>
     </g>
     <g id="line2d_68">
      <g>
       <use xlink:href="#mea5d977369" x="1167.280277" y="320.4" style="stroke: #000000; stroke-width: 0.8"/>
      </g>
     </g>
     <g id="text_40">
      <!-- 60 -->
      <g transform="translate(1160.917777 334.998438) scale(0.1 -0.1)">
       <use xlink:href="#DejaVuSans-36"/>
       <use xlink:href="#DejaVuSans-30" x="63.623047"/>
      </g>
     </g>
    </g>
    <g id="xtick_17">
     <g id="line2d_69">
      <path d="M 1231.640138 320.4 
L 1231.640138 43.2 
" clip-path="url(#p27d96d6c6d)" style="fill: none; stroke: #b0b0b0; stroke-width: 0.8; stroke-linecap: square"/>
     </g>
     <g id="line2d_70">
      <g>
       <use xlink:href="#mea5d977369" x="1231.640138" y="320.4" style="stroke: #000000; stroke-width: 0.8"/>
      </g>
     </g>
     <g id="text_41">
      <!-- 80 -->
      <g transform="translate(1225.277638 334.998438) scale(0.1 -0.1)">
       <use xlink:href="#DejaVuSans-38"/>
       <use xlink:href="#DejaVuSans-30" x="63.623047"/>
      </g>
     </g>
    </g>
    <g id="xtick_18">
     <g id="line2d_71">
      <path d="M 1296 320.4 
L 1296 43.2 
" clip-path="url(#p27d96d6c6d)" style="fill: none; stroke: #b0b0b0; stroke-width: 0.8; stroke-linecap: square"/>
     </g>
     <g id="line2d_72">
      <g>
       <use xlink:href="#mea5d977369" x="1296" y="320.4" style="stroke: #000000; stroke-width: 0.8"/>
      </g>
     </g>
     <g id="text_42">
      <!-- 100 -->
      <g transform="translate(1286.45625 334.998438) scale(0.1 -0.1)">
       <use xlink:href="#DejaVuSans-31"/>
       <use xlink:href="#DejaVuSans-30" x="63.623047"/>
       <use xlink:href="#DejaVuSans-30" x="127.246094"/>
      </g>
     </g>
    </g>
    <g id="text_43">
     <!-- Level [dB SPL] -->
     <g transform="translate(1096.022978 348.676562) scale(0.1 -0.1)">
      <use xlink:href="#DejaVuSans-4c"/>
      <use xlink:href="#DejaVuSans-65" x="53.962891"/>
      <use xlink:href="#DejaVuSans-76" x="115.486328"/>
      <use xlink:href="#DejaVuSans-65" x="174.666016"/>
      <use xlink:href="#DejaVuSans-6c" x="236.189453"/>
      <use xlink:href="#DejaVuSans-20" x="263.972656"/>
      <use xlink:href="#DejaVuSans-5b" x="295.759766"/>
      <use xlink:href="#DejaVuSans-64" x="334.773438"/>
      <use xlink:href="#DejaVuSans-42" x="398.25"/>
      <use xlink:href="#DejaVuSans-20" x="466.853516"/>
      <use xlink:href="#DejaVuSans-53" x="498.640625"/>
      <use xlink:href="#DejaVuSans-50" x="562.117188"/>
      <use xlink:href="#DejaVuSans-4c" x="622.419922"/>
      <use xlink:href="#DejaVuSans-5d" x="678.132812"/>
     </g>
    </g>
   </g>
   <g id="matplotlib.axis_6">
    <g id="ytick_13">
     <g id="line2d_73">
      <path d="M 967.764706 310.133333 
L 1296 310.133333 
" clip-path="url(#p27d96d6c6d)" style="fill: none; stroke: #b0b0b0; stroke-width: 0.8; stroke-linecap: square"/>
     </g>
     <g id="line2d_74">
      <g>
       <use xlink:href="#m6a49a59a5d" x="967.764706" y="310.133333" style="stroke: #000000; stroke-width: 0.8"/>
      </g>
     </g>
     <g id="text_44">
      <!-- 0 -->
      <g transform="translate(954.402206 313.932552) scale(0.1 -0.1)">
       <use xlink:href="#DejaVuSans-30"/>
      </g>
     </g>
    </g>
    <g id="ytick_14">
     <g id="line2d_75">
      <path d="M 967.764706 258.8 
L 1296 258.8 
" clip-path="url(#p27d96d6c6d)" style="fill: none; stroke: #b0b0b0; stroke-width: 0.8; stroke-linecap: square"/>
     </g>
     <g id="line2d_76">
      <g>
       <use xlink:href="#m6a49a59a5d" x="967.764706" y="258.8" style="stroke: #000000; stroke-width: 0.8"/>
      </g>
     </g>
     <g id="text_45">
      <!-- 10 -->
      <g transform="translate(948.039706 262.599219) scale(0.1 -0.1)">
       <use xlink:href="#DejaVuSans-31"/>
       <use xlink:href="#DejaVuSans-30" x="63.623047"/>
      </g>
     </g>
    </g>
    <g id="ytick_15">
     <g id="line2d_77">
      <path d="M 967.764706 207.466667 
L 1296 207.466667 
" clip-path="url(#p27d96d6c6d)" style="fill: none; stroke: #b0b0b0; stroke-width: 0.8; stroke-linecap: square"/>
     </g>
     <g id="line2d_78">
      <g>
       <use xlink:href="#m6a49a59a5d" x="967.764706" y="207.466667" style="stroke: #000000; stroke-width: 0.8"/>
      </g>
     </g>
     <g id="text_46">
      <!-- 20 -->
      <g transform="translate(948.039706 211.265885) scale(0.1 -0.1)">
       <use xlink:href="#DejaVuSans-32"/>
       <use xlink:href="#DejaVuSans-30" x="63.623047"/>
      </g>
     </g>
    </g>
    <g id="ytick_16">
     <g id="line2d_79">
      <path d="M 967.764706 156.133333 
L 1296 156.133333 
" clip-path="url(#p27d96d6c6d)" style="fill: none; stroke: #b0b0b0; stroke-width: 0.8; stroke-linecap: square"/>
     </g>
     <g id="line2d_80">
      <g>
       <use xlink:href="#m6a49a59a5d" x="967.764706" y="156.133333" style="stroke: #000000; stroke-width: 0.8"/>
      </g>
     </g>
     <g id="text_47">
      <!-- 30 -->
      <g transform="translate(948.039706 159.932552) scale(0.1 -0.1)">
       <use xlink:href="#DejaVuSans-33"/>
       <use xlink:href="#DejaVuSans-30" x="63.623047"/>
      </g>
     </g>
    </g>
    <g id="ytick_17">
     <g id="line2d_81">
      <path d="M 967.764706 104.8 
L 1296 104.8 
" clip-path="url(#p27d96d6c6d)" style="fill: none; stroke: #b0b0b0; stroke-width: 0.8; stroke-linecap: square"/>
     </g>
     <g id="line2d_82">
      <g>
       <use xlink:href="#m6a49a59a5d" x="967.764706" y="104.8" style="stroke: #000000; stroke-width: 0.8"/>
      </g>
     </g>
     <g id="text_48">
      <!-- 40 -->
      <g transform="translate(948.039706 108.599219) scale(0.1 -0.1)">
       <use xlink:href="#DejaVuSans-34"/>
       <use xlink:href="#DejaVuSans-30" x="63.623047"/>
      </g>
     </g>
    </g>
    <g id="ytick_18">
     <g id="line2d_83">
      <path d="M 967.764706 53.466667 
L 1296 53.466667 
" clip-path="url(#p27d96d6c6d)" style="fill: none; stroke: #b0b0b0; stroke-width: 0.8; stroke-linecap: square"/>
     </g>
     <g id="line2d_84">
      <g>
       <use xlink:href="#m6a49a59a5d" x="967.764706" y="53.466667" style="stroke: #000000; stroke-width: 0.8"/>
      </g>
     </g>
     <g id="text_49">
      <!-- 50 -->
      <g transform="translate(948.039706 57.265885) scale(0.1 -0.1)">
       <use xlink:href="#DejaVuSans-35"/>
       <use xlink:href="#DejaVuSans-30" x="63.623047"/>
      </g>
     </g>
    </g>
    <g id="text_50">
     <!-- Categorical Units -->
     <g transform="translate(941.960018 224.64375) rotate(-90) scale(0.1 -0.1)">
      <use xlink:href="#DejaVuSans-43"/>
      <use xlink:href="#DejaVuSans-61" x="69.824219"/>
      <use xlink:href="#DejaVuSans-74" x="131.103516"/>
      <use xlink:href="#DejaVuSans-65" x="170.3125"/>
      <use xlink:href="#DejaVuSans-67" x="231.835938"/>
      <use xlink:href="#DejaVuSans-6f" x="295.3125"/>
      <use xlink:href="#DejaVuSans-72" x="356.494141"/>
      <use xlink:href="#DejaVuSans-69" x="397.607422"/>
      <use xlink:href="#DejaVuSans-63" x="425.390625"/>
      <use xlink:href="#DejaVuSans-61" x="480.371094"/>
      <use xlink:href="#DejaVuSans-6c" x="541.650391"/>
      <use xlink:href="#DejaVuSans-20" x="569.433594"/>
      <use xlink:href="#DejaVuSans-55" x="601.220703"/>
      <use xlink:href="#DejaVuSans-6e" x="674.414062"/>
      <use xlink:href="#DejaVuSans-69" x="737.792969"/>
      <use xlink:href="#DejaVuSans-74" x="765.576172"/>
      <use xlink:href="#DejaVuSans-73" x="804.785156"/>
     </g>
    </g>
   </g>
   <g id="line2d_85">
    <path d="M 942.020761 181.8 
L 1360.359862 181.8 
" clip-path="url(#p27d96d6c6d)" style="fill: none; stroke-dasharray: 1.5,2.475; stroke-dashoffset: 0; stroke: #808080; stroke-width: 1.5"/>
   </g>
   <g id="line2d_86">
    <path d="M 1231.640138 361 
L 1231.640138 -1 
" clip-path="url(#p27d96d6c6d)" style="fill: none; stroke-dasharray: 5.55,2.4; stroke-dashoffset: 0; stroke: #ff0000; stroke-opacity: 0.3; stroke-width: 1.5"/>
   </g>
   <g id="line2d_87">
    <path d="M 993.258739 310.133333 
L 996.316732 307.786181 
L 999.374725 305.439029 
L 1002.432718 303.091876 
L 1005.490711 300.744724 
L 1008.548704 298.397571 
L 1011.606698 296.050419 
L 1014.664691 293.703267 
L 1017.722684 291.356114 
L 1020.780677 289.008962 
L 1023.83867 286.66181 
L 1026.896663 284.314657 
L 1029.954656 281.967505 
L 1033.01265 279.620352 
L 1036.070643 277.2732 
L 1039.128636 274.926048 
L 1042.186629 272.578895 
L 1045.244622 270.231743 
L 1048.302615 267.88459 
L 1051.360608 265.537438 
L 1054.418602 263.190286 
L 1057.476595 260.843133 
L 1060.534588 258.495981 
L 1063.592581 256.148829 
L 1066.650574 253.801676 
L 1069.708567 251.454524 
L 1072.76656 249.107371 
L 1075.824554 246.760219 
L 1078.882547 244.413067 
L 1081.94054 242.065914 
L 1084.998533 239.718762 
L 1088.056526 237.37161 
L 1091.114519 235.024457 
L 1094.172512 232.677113 
L 1097.230505 230.322869 
L 1100.288499 227.958305 
L 1103.346492 225.583284 
L 1106.404485 223.197667 
L 1109.462478 220.80131 
L 1112.520471 218.394066 
L 1115.578464 215.975787 
L 1118.636457 213.546318 
L 1121.694451 211.105503 
L 1124.752444 208.653182 
L 1127.810437 206.18919 
L 1130.86843 203.713359 
L 1133.926423 201.225517 
L 1136.984416 198.725487 
L 1140.042409 196.213089 
L 1143.100403 193.688136 
L 1146.158396 191.15044 
L 1149.216389 188.599804 
L 1152.274382 186.036029 
L 1155.332375 183.45891 
L 1158.390368 180.868236 
L 1161.448361 178.263791 
L 1164.506355 175.645354 
L 1167.564348 173.012695 
L 1170.622341 170.365581 
L 1173.680334 167.703771 
L 1176.738327 165.027018 
L 1179.79632 162.335067 
L 1182.854313 159.627656 
L 1185.912306 156.904516 
L 1188.9703 154.165369 
L 1192.028293 151.40993 
L 1195.086286 148.637904 
L 1198.144279 145.848989 
L 1201.202272 143.042871 
L 1204.260265 140.219229 
L 1207.318258 137.37773 
L 1210.376252 134.51803 
L 1213.434245 131.639777 
L 1216.492238 128.745984 
L 1219.550231 125.850625 
L 1222.608224 122.955267 
L 1225.666217 120.059909 
L 1228.72421 117.16455 
L 1231.782204 114.269192 
L 1234.840197 111.373834 
L 1237.89819 108.478475 
L 1240.956183 105.583117 
L 1244.014176 102.687759 
L 1247.072169 99.7924 
L 1250.130162 96.897042 
L 1253.188155 94.001684 
L 1256.246149 91.106325 
L 1259.304142 88.210967 
L 1262.362135 85.315609 
L 1265.420128 82.42025 
L 1268.478121 79.524892 
L 1271.536114 76.629533 
L 1274.594107 73.734175 
L 1277.652101 70.838817 
L 1280.710094 67.943458 
L 1283.768087 65.0481 
L 1286.82608 62.152742 
L 1289.884073 59.257383 
L 1292.942066 56.362025 
L 1296.000059 53.466667 
" clip-path="url(#p27d96d6c6d)" style="fill: none; stroke: #1f77b4; stroke-width: 1.5; stroke-linecap: square"/>
   </g>
   <g id="line2d_88">
    <path d="M 993.476354 310.133333 
L 996.019436 308.494833 
L 998.562518 306.856334 
L 1001.1056 305.217834 
L 1003.648681 303.579334 
L 1006.191763 301.940834 
L 1008.734845 300.302334 
L 1011.277927 298.663834 
L 1013.821008 297.025334 
L 1016.36409 295.386834 
L 1018.907172 293.748334 
L 1021.450254 292.109834 
L 1023.993336 290.471335 
L 1026.536417 288.832835 
L 1029.079499 287.194335 
L 1031.622581 285.555835 
L 1034.165663 283.917335 
L 1036.708745 282.278835 
L 1039.251826 280.640335 
L 1041.794908 279.001835 
L 1044.33799 277.363335 
L 1046.881072 275.724835 
L 1049.424153 274.086335 
L 1051.967235 272.447836 
L 1054.510317 270.809336 
L 1057.053399 269.170836 
L 1059.596481 267.532336 
L 1062.139562 265.893836 
L 1064.682644 264.255336 
L 1067.225726 262.616836 
L 1069.768808 260.978336 
L 1072.31189 259.339836 
L 1074.854971 257.701336 
L 1077.398053 256.062837 
L 1079.941135 254.424337 
L 1082.484217 252.785837 
L 1085.027298 251.147337 
L 1087.57038 249.508837 
L 1090.113462 247.870337 
L 1092.656544 246.231837 
L 1095.199626 244.593337 
L 1097.742707 242.954837 
L 1100.285789 241.316337 
L 1102.828871 239.677838 
L 1105.371953 238.039338 
L 1107.915035 236.400838 
L 1110.458116 234.762338 
L 1113.001198 233.123838 
L 1115.54428 231.475486 
L 1118.087362 229.807182 
L 1120.630443 228.118182 
L 1123.173525 226.407697 
L 1125.716607 224.674885 
L 1128.259689 222.918849 
L 1130.802771 221.138628 
L 1133.345852 219.333196 
L 1135.888934 217.501449 
L 1138.432016 215.642203 
L 1140.975098 213.75418 
L 1143.51818 211.836001 
L 1146.061261 209.886174 
L 1148.604343 207.903079 
L 1151.147425 205.884951 
L 1153.690507 203.829866 
L 1156.233589 201.735717 
L 1158.77667 199.600186 
L 1161.319752 197.42072 
L 1163.862834 195.19449 
L 1166.405916 192.918349 
L 1168.948997 190.588782 
L 1171.492079 188.201841 
L 1174.035161 185.753065 
L 1176.578243 183.237385 
L 1179.121325 180.648997 
L 1181.664406 177.981206 
L 1184.207488 175.226225 
L 1186.75057 172.3749 
L 1189.293652 169.416356 
L 1191.836734 166.337503 
L 1194.379815 163.12235 
L 1196.922897 159.751012 
L 1199.465979 156.198241 
L 1202.009061 152.431155 
L 1204.552142 148.405541 
L 1207.095224 144.05951 
L 1209.638306 139.301655 
L 1212.181388 133.986535 
L 1214.72447 127.947987 
L 1217.267551 121.74121 
L 1219.810633 115.534433 
L 1222.353715 109.327657 
L 1224.896797 103.12088 
L 1227.439879 96.914103 
L 1229.98296 90.707327 
L 1232.526042 84.50055 
L 1235.069124 78.293773 
L 1237.612206 72.086997 
L 1240.155287 65.88022 
L 1242.698369 59.673443 
L 1245.241451 53.466667 
" clip-path="url(#p27d96d6c6d)" style="fill: none; stroke-dasharray: 5.55,2.4; stroke-dashoffset: 0; stroke: #ff7f0e; stroke-width: 1.5"/>
   </g>
   <g id="patch_15">
    <path d="M 967.764706 320.4 
L 967.764706 43.2 
" style="fill: none; stroke: #000000; stroke-width: 0.8; stroke-linejoin: miter; stroke-linecap: square"/>
   </g>
   <g id="patch_16">
    <path d="M 1296 320.4 
L 1296 43.2 
" style="fill: none; stroke: #000000; stroke-width: 0.8; stroke-linejoin: miter; stroke-linecap: square"/>
   </g>
   <g id="patch_17">
    <path d="M 967.764706 320.4 
L 1296 320.4 
" style="fill: none; stroke: #000000; stroke-width: 0.8; stroke-linejoin: miter; stroke-linecap: square"/>
   </g>
   <g id="patch_18">
    <path d="M 967.764706 43.2 
L 1296 43.2 
" style="fill: none; stroke: #000000; stroke-width: 0.8; stroke-linejoin: miter; stroke-linecap: square"/>
   </g>
   <g id="text_51">
    <!--  Block: 2 -->
    <g transform="translate(1106.001728 37.2) scale(0.12 -0.12)">
     <use xlink:href="#DejaVuSans-20"/>
     <use xlink:href="#DejaVuSans-42" x="31.787109"/>
     <use xlink:href="#DejaVuSans-6c" x="100.390625"/>
     <use xlink:href="#DejaVuSans-6f" x="128.173828"/>
     <use xlink:href="#DejaVuSans-63" x="189.355469"/>
     <use xlink:href="#DejaVuSans-6b" x="244.335938"/>
     <use xlink:href="#DejaVuSans-3a" x="302.246094"/>
     <use xlink:href="#DejaVuSans-20" x="335.9375"/>
     <use xlink:href="#DejaVuSans-32" x="367.724609"/>
    </g>
   </g>
   <g id="legend_3">
    <g id="patch_19">
     <path d="M 974.764706 95.5125 
L 1105.964706 95.5125 
Q 1107.964706 95.5125 1107.964706 93.5125 
L 1107.964706 50.2 
Q 1107.964706 48.2 1105.964706 48.2 
L 974.764706 48.2 
Q 972.764706 48.2 972.764706 50.2 
L 972.764706 93.5125 
Q 972.764706 95.5125 974.764706 95.5125 
z
" style="fill: #ffffff; opacity: 0.8; stroke: #cccccc; stroke-linejoin: miter"/>
    </g>
    <g id="PathCollection_6">
     <g>
      <use xlink:href="#mbab29e1528" x="986.764706" y="57.173437" style="stroke: #000000"/>
     </g>
    </g>
    <g id="text_52">
     <!-- Data -->
     <g transform="translate(1004.764706 59.798437) scale(0.1 -0.1)">
      <use xlink:href="#DejaVuSans-44"/>
      <use xlink:href="#DejaVuSans-61" x="77.001953"/>
      <use xlink:href="#DejaVuSans-74" x="138.28125"/>
      <use xlink:href="#DejaVuSans-61" x="177.490234"/>
     </g>
    </g>
    <g id="line2d_89">
     <path d="M 976.764706 70.976562 
L 986.764706 70.976562 
L 996.764706 70.976562 
" style="fill: none; stroke: #1f77b4; stroke-width: 1.5; stroke-linecap: square"/>
    </g>
    <g id="text_53">
     <!-- Artc e:0.1536 -->
     <g transform="translate(1004.764706 74.476562) scale(0.1 -0.1)">
      <use xlink:href="#DejaVuSans-41"/>
      <use xlink:href="#DejaVuSans-72" x="68.408203"/>
      <use xlink:href="#DejaVuSans-74" x="109.521484"/>
      <use xlink:href="#DejaVuSans-63" x="148.730469"/>
      <use xlink:href="#DejaVuSans-20" x="203.710938"/>
      <use xlink:href="#DejaVuSans-65" x="235.498047"/>
      <use xlink:href="#DejaVuSans-3a" x="297.021484"/>
      <use xlink:href="#DejaVuSans-30" x="330.712891"/>
      <use xlink:href="#DejaVuSans-2e" x="394.335938"/>
      <use xlink:href="#DejaVuSans-31" x="426.123047"/>
      <use xlink:href="#DejaVuSans-35" x="489.746094"/>
      <use xlink:href="#DejaVuSans-33" x="553.369141"/>
      <use xlink:href="#DejaVuSans-36" x="616.992188"/>
     </g>
    </g>
    <g id="line2d_90">
     <path d="M 976.764706 85.654687 
L 986.764706 85.654687 
L 996.764706 85.654687 
" style="fill: none; stroke-dasharray: 5.55,2.4; stroke-dashoffset: 0; stroke: #ff7f0e; stroke-width: 1.5"/>
    </g>
    <g id="text_54">
     <!-- NEL_BTUX e:0.1558 -->
     <g transform="translate(1004.764706 89.154687) scale(0.1 -0.1)">
      <use xlink:href="#DejaVuSans-4e"/>
      <use xlink:href="#DejaVuSans-45" x="74.804688"/>
      <use xlink:href="#DejaVuSans-4c" x="137.988281"/>
      <use xlink:href="#DejaVuSans-5f" x="193.701172"/>
      <use xlink:href="#DejaVuSans-42" x="243.701172"/>
      <use xlink:href="#DejaVuSans-54" x="312.304688"/>
      <use xlink:href="#DejaVuSans-55" x="373.388672"/>
      <use xlink:href="#DejaVuSans-58" x="446.582031"/>
      <use xlink:href="#DejaVuSans-20" x="515.087891"/>
      <use xlink:href="#DejaVuSans-65" x="546.875"/>
      <use xlink:href="#DejaVuSans-3a" x="608.398438"/>
      <use xlink:href="#DejaVuSans-30" x="642.089844"/>
      <use xlink:href="#DejaVuSans-2e" x="705.712891"/>
      <use xlink:href="#DejaVuSans-31" x="737.5"/>
      <use xlink:href="#DejaVuSans-35" x="801.123047"/>
      <use xlink:href="#DejaVuSans-35" x="864.746094"/>
      <use xlink:href="#DejaVuSans-38" x="928.369141"/>
     </g>
    </g>
   </g>
  </g>
  <g id="text_55">
   <!-- ID: 6421, Max level: 80dB -->
   <g transform="translate(655.440625 14.798437) scale(0.1 -0.1)">
    <defs>
     <path id="DejaVuSans-49" d="M 628 4666 
L 1259 4666 
L 1259 0 
L 628 0 
L 628 4666 
z
" transform="scale(0.015625)"/>
     <path id="DejaVuSans-2c" d="M 750 794 
L 1409 794 
L 1409 256 
L 897 -744 
L 494 -744 
L 750 256 
L 750 794 
z
" transform="scale(0.015625)"/>
     <path id="DejaVuSans-4d" d="M 628 4666 
L 1569 4666 
L 2759 1491 
L 3956 4666 
L 4897 4666 
L 4897 0 
L 4281 0 
L 4281 4097 
L 3078 897 
L 2444 897 
L 1241 4097 
L 1241 0 
L 628 0 
L 628 4666 
z
" transform="scale(0.015625)"/>
     <path id="DejaVuSans-78" d="M 3513 3500 
L 2247 1797 
L 3578 0 
L 2900 0 
L 1881 1375 
L 863 0 
L 184 0 
L 1544 1831 
L 300 3500 
L 978 3500 
L 1906 2253 
L 2834 3500 
L 3513 3500 
z
" transform="scale(0.015625)"/>
    </defs>
    <use xlink:href="#DejaVuSans-49"/>
    <use xlink:href="#DejaVuSans-44" x="29.492188"/>
    <use xlink:href="#DejaVuSans-3a" x="106.494141"/>
    <use xlink:href="#DejaVuSans-20" x="140.185547"/>
    <use xlink:href="#DejaVuSans-36" x="171.972656"/>
    <use xlink:href="#DejaVuSans-34" x="235.595703"/>
    <use xlink:href="#DejaVuSans-32" x="299.21875"/>
    <use xlink:href="#DejaVuSans-31" x="362.841797"/>
    <use xlink:href="#DejaVuSans-2c" x="426.464844"/>
    <use xlink:href="#DejaVuSans-20" x="458.251953"/>
    <use xlink:href="#DejaVuSans-4d" x="490.039062"/>
    <use xlink:href="#DejaVuSans-61" x="576.318359"/>
    <use xlink:href="#DejaVuSans-78" x="637.597656"/>
    <use xlink:href="#DejaVuSans-20" x="696.777344"/>
    <use xlink:href="#DejaVuSans-6c" x="728.564453"/>
    <use xlink:href="#DejaVuSans-65" x="756.347656"/>
    <use xlink:href="#DejaVuSans-76" x="817.871094"/>
    <use xlink:href="#DejaVuSans-65" x="877.050781"/>
    <use xlink:href="#DejaVuSans-6c" x="938.574219"/>
    <use xlink:href="#DejaVuSans-3a" x="966.357422"/>
    <use xlink:href="#DejaVuSans-20" x="1000.048828"/>
    <use xlink:href="#DejaVuSans-38" x="1031.835938"/>
    <use xlink:href="#DejaVuSans-30" x="1095.458984"/>
    <use xlink:href="#DejaVuSans-64" x="1159.082031"/>
    <use xlink:href="#DejaVuSans-42" x="1222.558594"/>
   </g>
  </g>
 </g>
 <defs>
  <clipPath id="p3946b12a46">
   <rect x="180" y="43.2" width="328.235294" height="277.2"/>
  </clipPath>
  <clipPath id="pf974711a8a">
   <rect x="573.882353" y="43.2" width="328.235294" height="277.2"/>
  </clipPath>
  <clipPath id="p27d96d6c6d">
   <rect x="967.764706" y="43.2" width="328.235294" height="277.2"/>
  </clipPath>
 </defs>
</svg>
