<?xml version="1.0" encoding="utf-8" standalone="no"?>
<!DOCTYPE svg PUBLIC "-//W3C//DTD SVG 1.1//EN"
  "http://www.w3.org/Graphics/SVG/1.1/DTD/svg11.dtd">
<svg xmlns:xlink="http://www.w3.org/1999/xlink" width="1440pt" height="324pt" viewBox="0 0 1440 324" xmlns="http://www.w3.org/2000/svg" version="1.1">
 <metadata>
  <rdf:RDF xmlns:dc="http://purl.org/dc/elements/1.1/" xmlns:cc="http://creativecommons.org/ns#" xmlns:rdf="http://www.w3.org/1999/02/22-rdf-syntax-ns#">
   <cc:Work>
    <dc:type rdf:resource="http://purl.org/dc/dcmitype/StillImage"/>
    <dc:date>2024-05-24T15:09:53.226114</dc:date>
    <dc:format>image/svg+xml</dc:format>
    <dc:creator>
     <cc:Agent>
      <dc:title>Matplotlib v3.5.2, https://matplotlib.org/</dc:title>
     </cc:Agent>
    </dc:creator>
   </cc:Work>
  </rdf:RDF>
 </metadata>
 <defs>
  <style type="text/css">*{stroke-linejoin: round; stroke-linecap: butt}</style>
 </defs>
 <g id="figure_1">
  <g id="patch_1">
   <path d="M 0 324 
L 1440 324 
L 1440 0 
L 0 0 
L 0 324 
z
" style="fill: none"/>
  </g>
  <g id="axes_1">
   <g id="patch_2">
    <path d="M 180 283.5 
L 508.235294 283.5 
L 508.235294 38.88 
L 180 38.88 
z
" style="fill: #ffffff"/>
   </g>
   <g id="PathCollection_1">
    <defs>
     <path id="m5cfcd25191" d="M 0 3 
C 0.795609 3 1.55874 2.683901 2.12132 2.12132 
C 2.683901 1.55874 3 0.795609 3 0 
C 3 -0.795609 2.683901 -1.55874 2.12132 -2.12132 
C 1.55874 -2.683901 0.795609 -3 0 -3 
C -0.795609 -3 -1.55874 -2.683901 -2.12132 -2.12132 
C -2.683901 -1.55874 -3 -0.795609 -3 0 
C -3 0.795609 -2.683901 1.55874 -2.12132 2.12132 
C -1.55874 2.683901 -0.795609 3 0 3 
z
" style="stroke: #000000"/>
    </defs>
    <g clip-path="url(#pbaf3728120)">
     <use xlink:href="#m5cfcd25191" x="390.024681" y="183.84" style="stroke: #000000"/>
     <use xlink:href="#m5cfcd25191" x="412.978198" y="183.84" style="stroke: #000000"/>
     <use xlink:href="#m5cfcd25191" x="355.594406" y="229.14" style="stroke: #000000"/>
     <use xlink:href="#m5cfcd25191" x="435.931715" y="138.54" style="stroke: #000000"/>
     <use xlink:href="#m5cfcd25191" x="321.16413" y="229.14" style="stroke: #000000"/>
     <use xlink:href="#m5cfcd25191" x="286.733854" y="251.79" style="stroke: #000000"/>
     <use xlink:href="#m5cfcd25191" x="252.303579" y="274.44" style="stroke: #000000"/>
     <use xlink:href="#m5cfcd25191" x="263.780337" y="274.44" style="stroke: #000000"/>
     <use xlink:href="#m5cfcd25191" x="275.257096" y="251.79" style="stroke: #000000"/>
     <use xlink:href="#m5cfcd25191" x="275.254341" y="251.79" style="stroke: #000000"/>
     <use xlink:href="#m5cfcd25191" x="355.593258" y="229.14" style="stroke: #000000"/>
     <use xlink:href="#m5cfcd25191" x="395.76306" y="183.84" style="stroke: #000000"/>
     <use xlink:href="#m5cfcd25191" x="315.423914" y="229.14" style="stroke: #000000"/>
     <use xlink:href="#m5cfcd25191" x="435.931715" y="138.54" style="stroke: #000000"/>
     <use xlink:href="#m5cfcd25191" x="398.241811" y="183.84" style="stroke: #000000"/>
     <use xlink:href="#m5cfcd25191" x="435.931715" y="138.54" style="stroke: #000000"/>
     <use xlink:href="#m5cfcd25191" x="322.860624" y="229.14" style="stroke: #000000"/>
     <use xlink:href="#m5cfcd25191" x="360.550988" y="229.14" style="stroke: #000000"/>
     <use xlink:href="#m5cfcd25191" x="285.170031" y="251.79" style="stroke: #000000"/>
    </g>
   </g>
   <g id="matplotlib.axis_1">
    <g id="xtick_1">
     <g id="line2d_1">
      <path d="M 217.873303 283.5 
L 217.873303 38.88 
" clip-path="url(#pbaf3728120)" style="fill: none; stroke: #b0b0b0; stroke-width: 0.8; stroke-linecap: square"/>
     </g>
     <g id="line2d_2">
      <defs>
       <path id="m2661606aad" d="M 0 0 
L 0 3.5 
" style="stroke: #000000; stroke-width: 0.8"/>
      </defs>
      <g>
       <use xlink:href="#m2661606aad" x="217.873303" y="283.5" style="stroke: #000000; stroke-width: 0.8"/>
      </g>
     </g>
     <g id="text_1">
      <!-- 0 -->
      <g transform="translate(214.692053 298.098437)scale(0.1 -0.1)">
       <defs>
        <path id="DejaVuSans-30" d="M 2034 4250 
Q 1547 4250 1301 3770 
Q 1056 3291 1056 2328 
Q 1056 1369 1301 889 
Q 1547 409 2034 409 
Q 2525 409 2770 889 
Q 3016 1369 3016 2328 
Q 3016 3291 2770 3770 
Q 2525 4250 2034 4250 
z
M 2034 4750 
Q 2819 4750 3233 4129 
Q 3647 3509 3647 2328 
Q 3647 1150 3233 529 
Q 2819 -91 2034 -91 
Q 1250 -91 836 529 
Q 422 1150 422 2328 
Q 422 3509 836 4129 
Q 1250 4750 2034 4750 
z
" transform="scale(0.015625)"/>
       </defs>
       <use xlink:href="#DejaVuSans-30"/>
      </g>
     </g>
    </g>
    <g id="xtick_2">
     <g id="line2d_3">
      <path d="M 263.780337 283.5 
L 263.780337 38.88 
" clip-path="url(#pbaf3728120)" style="fill: none; stroke: #b0b0b0; stroke-width: 0.8; stroke-linecap: square"/>
     </g>
     <g id="line2d_4">
      <g>
       <use xlink:href="#m2661606aad" x="263.780337" y="283.5" style="stroke: #000000; stroke-width: 0.8"/>
      </g>
     </g>
     <g id="text_2">
      <!-- 20 -->
      <g transform="translate(257.417837 298.098437)scale(0.1 -0.1)">
       <defs>
        <path id="DejaVuSans-32" d="M 1228 531 
L 3431 531 
L 3431 0 
L 469 0 
L 469 531 
Q 828 903 1448 1529 
Q 2069 2156 2228 2338 
Q 2531 2678 2651 2914 
Q 2772 3150 2772 3378 
Q 2772 3750 2511 3984 
Q 2250 4219 1831 4219 
Q 1534 4219 1204 4116 
Q 875 4013 500 3803 
L 500 4441 
Q 881 4594 1212 4672 
Q 1544 4750 1819 4750 
Q 2544 4750 2975 4387 
Q 3406 4025 3406 3419 
Q 3406 3131 3298 2873 
Q 3191 2616 2906 2266 
Q 2828 2175 2409 1742 
Q 1991 1309 1228 531 
z
" transform="scale(0.015625)"/>
       </defs>
       <use xlink:href="#DejaVuSans-32"/>
       <use xlink:href="#DejaVuSans-30" x="63.623047"/>
      </g>
     </g>
    </g>
    <g id="xtick_3">
     <g id="line2d_5">
      <path d="M 309.687371 283.5 
L 309.687371 38.88 
" clip-path="url(#pbaf3728120)" style="fill: none; stroke: #b0b0b0; stroke-width: 0.8; stroke-linecap: square"/>
     </g>
     <g id="line2d_6">
      <g>
       <use xlink:href="#m2661606aad" x="309.687371" y="283.5" style="stroke: #000000; stroke-width: 0.8"/>
      </g>
     </g>
     <g id="text_3">
      <!-- 40 -->
      <g transform="translate(303.324871 298.098437)scale(0.1 -0.1)">
       <defs>
        <path id="DejaVuSans-34" d="M 2419 4116 
L 825 1625 
L 2419 1625 
L 2419 4116 
z
M 2253 4666 
L 3047 4666 
L 3047 1625 
L 3713 1625 
L 3713 1100 
L 3047 1100 
L 3047 0 
L 2419 0 
L 2419 1100 
L 313 1100 
L 313 1709 
L 2253 4666 
z
" transform="scale(0.015625)"/>
       </defs>
       <use xlink:href="#DejaVuSans-34"/>
       <use xlink:href="#DejaVuSans-30" x="63.623047"/>
      </g>
     </g>
    </g>
    <g id="xtick_4">
     <g id="line2d_7">
      <path d="M 355.594406 283.5 
L 355.594406 38.88 
" clip-path="url(#pbaf3728120)" style="fill: none; stroke: #b0b0b0; stroke-width: 0.8; stroke-linecap: square"/>
     </g>
     <g id="line2d_8">
      <g>
       <use xlink:href="#m2661606aad" x="355.594406" y="283.5" style="stroke: #000000; stroke-width: 0.8"/>
      </g>
     </g>
     <g id="text_4">
      <!-- 60 -->
      <g transform="translate(349.231906 298.098437)scale(0.1 -0.1)">
       <defs>
        <path id="DejaVuSans-36" d="M 2113 2584 
Q 1688 2584 1439 2293 
Q 1191 2003 1191 1497 
Q 1191 994 1439 701 
Q 1688 409 2113 409 
Q 2538 409 2786 701 
Q 3034 994 3034 1497 
Q 3034 2003 2786 2293 
Q 2538 2584 2113 2584 
z
M 3366 4563 
L 3366 3988 
Q 3128 4100 2886 4159 
Q 2644 4219 2406 4219 
Q 1781 4219 1451 3797 
Q 1122 3375 1075 2522 
Q 1259 2794 1537 2939 
Q 1816 3084 2150 3084 
Q 2853 3084 3261 2657 
Q 3669 2231 3669 1497 
Q 3669 778 3244 343 
Q 2819 -91 2113 -91 
Q 1303 -91 875 529 
Q 447 1150 447 2328 
Q 447 3434 972 4092 
Q 1497 4750 2381 4750 
Q 2619 4750 2861 4703 
Q 3103 4656 3366 4563 
z
" transform="scale(0.015625)"/>
       </defs>
       <use xlink:href="#DejaVuSans-36"/>
       <use xlink:href="#DejaVuSans-30" x="63.623047"/>
      </g>
     </g>
    </g>
    <g id="xtick_5">
     <g id="line2d_9">
      <path d="M 401.50144 283.5 
L 401.50144 38.88 
" clip-path="url(#pbaf3728120)" style="fill: none; stroke: #b0b0b0; stroke-width: 0.8; stroke-linecap: square"/>
     </g>
     <g id="line2d_10">
      <g>
       <use xlink:href="#m2661606aad" x="401.50144" y="283.5" style="stroke: #000000; stroke-width: 0.8"/>
      </g>
     </g>
     <g id="text_5">
      <!-- 80 -->
      <g transform="translate(395.13894 298.098437)scale(0.1 -0.1)">
       <defs>
        <path id="DejaVuSans-38" d="M 2034 2216 
Q 1584 2216 1326 1975 
Q 1069 1734 1069 1313 
Q 1069 891 1326 650 
Q 1584 409 2034 409 
Q 2484 409 2743 651 
Q 3003 894 3003 1313 
Q 3003 1734 2745 1975 
Q 2488 2216 2034 2216 
z
M 1403 2484 
Q 997 2584 770 2862 
Q 544 3141 544 3541 
Q 544 4100 942 4425 
Q 1341 4750 2034 4750 
Q 2731 4750 3128 4425 
Q 3525 4100 3525 3541 
Q 3525 3141 3298 2862 
Q 3072 2584 2669 2484 
Q 3125 2378 3379 2068 
Q 3634 1759 3634 1313 
Q 3634 634 3220 271 
Q 2806 -91 2034 -91 
Q 1263 -91 848 271 
Q 434 634 434 1313 
Q 434 1759 690 2068 
Q 947 2378 1403 2484 
z
M 1172 3481 
Q 1172 3119 1398 2916 
Q 1625 2713 2034 2713 
Q 2441 2713 2670 2916 
Q 2900 3119 2900 3481 
Q 2900 3844 2670 4047 
Q 2441 4250 2034 4250 
Q 1625 4250 1398 4047 
Q 1172 3844 1172 3481 
z
" transform="scale(0.015625)"/>
       </defs>
       <use xlink:href="#DejaVuSans-38"/>
       <use xlink:href="#DejaVuSans-30" x="63.623047"/>
      </g>
     </g>
    </g>
    <g id="xtick_6">
     <g id="line2d_11">
      <path d="M 447.408474 283.5 
L 447.408474 38.88 
" clip-path="url(#pbaf3728120)" style="fill: none; stroke: #b0b0b0; stroke-width: 0.8; stroke-linecap: square"/>
     </g>
     <g id="line2d_12">
      <g>
       <use xlink:href="#m2661606aad" x="447.408474" y="283.5" style="stroke: #000000; stroke-width: 0.8"/>
      </g>
     </g>
     <g id="text_6">
      <!-- 100 -->
      <g transform="translate(437.864724 298.098437)scale(0.1 -0.1)">
       <defs>
        <path id="DejaVuSans-31" d="M 794 531 
L 1825 531 
L 1825 4091 
L 703 3866 
L 703 4441 
L 1819 4666 
L 2450 4666 
L 2450 531 
L 3481 531 
L 3481 0 
L 794 0 
L 794 531 
z
" transform="scale(0.015625)"/>
       </defs>
       <use xlink:href="#DejaVuSans-31"/>
       <use xlink:href="#DejaVuSans-30" x="63.623047"/>
       <use xlink:href="#DejaVuSans-30" x="127.246094"/>
      </g>
     </g>
    </g>
    <g id="xtick_7">
     <g id="line2d_13">
      <path d="M 493.315508 283.5 
L 493.315508 38.88 
" clip-path="url(#pbaf3728120)" style="fill: none; stroke: #b0b0b0; stroke-width: 0.8; stroke-linecap: square"/>
     </g>
     <g id="line2d_14">
      <g>
       <use xlink:href="#m2661606aad" x="493.315508" y="283.5" style="stroke: #000000; stroke-width: 0.8"/>
      </g>
     </g>
     <g id="text_7">
      <!-- 120 -->
      <g transform="translate(483.771758 298.098437)scale(0.1 -0.1)">
       <use xlink:href="#DejaVuSans-31"/>
       <use xlink:href="#DejaVuSans-32" x="63.623047"/>
       <use xlink:href="#DejaVuSans-30" x="127.246094"/>
      </g>
     </g>
    </g>
   </g>
   <g id="matplotlib.axis_2">
    <g id="ytick_1">
     <g id="line2d_15">
      <path d="M 180 274.44 
L 508.235294 274.44 
" clip-path="url(#pbaf3728120)" style="fill: none; stroke: #b0b0b0; stroke-width: 0.8; stroke-linecap: square"/>
     </g>
     <g id="line2d_16">
      <defs>
       <path id="m0a8c8beabb" d="M 0 0 
L -3.5 0 
" style="stroke: #000000; stroke-width: 0.8"/>
      </defs>
      <g>
       <use xlink:href="#m0a8c8beabb" x="180" y="274.44" style="stroke: #000000; stroke-width: 0.8"/>
      </g>
     </g>
     <g id="text_8">
      <!-- 0 -->
      <g transform="translate(166.6375 278.239219)scale(0.1 -0.1)">
       <use xlink:href="#DejaVuSans-30"/>
      </g>
     </g>
    </g>
    <g id="ytick_2">
     <g id="line2d_17">
      <path d="M 180 229.14 
L 508.235294 229.14 
" clip-path="url(#pbaf3728120)" style="fill: none; stroke: #b0b0b0; stroke-width: 0.8; stroke-linecap: square"/>
     </g>
     <g id="line2d_18">
      <g>
       <use xlink:href="#m0a8c8beabb" x="180" y="229.14" style="stroke: #000000; stroke-width: 0.8"/>
      </g>
     </g>
     <g id="text_9">
      <!-- 10 -->
      <g transform="translate(160.275 232.939219)scale(0.1 -0.1)">
       <use xlink:href="#DejaVuSans-31"/>
       <use xlink:href="#DejaVuSans-30" x="63.623047"/>
      </g>
     </g>
    </g>
    <g id="ytick_3">
     <g id="line2d_19">
      <path d="M 180 183.84 
L 508.235294 183.84 
" clip-path="url(#pbaf3728120)" style="fill: none; stroke: #b0b0b0; stroke-width: 0.8; stroke-linecap: square"/>
     </g>
     <g id="line2d_20">
      <g>
       <use xlink:href="#m0a8c8beabb" x="180" y="183.84" style="stroke: #000000; stroke-width: 0.8"/>
      </g>
     </g>
     <g id="text_10">
      <!-- 20 -->
      <g transform="translate(160.275 187.639219)scale(0.1 -0.1)">
       <use xlink:href="#DejaVuSans-32"/>
       <use xlink:href="#DejaVuSans-30" x="63.623047"/>
      </g>
     </g>
    </g>
    <g id="ytick_4">
     <g id="line2d_21">
      <path d="M 180 138.54 
L 508.235294 138.54 
" clip-path="url(#pbaf3728120)" style="fill: none; stroke: #b0b0b0; stroke-width: 0.8; stroke-linecap: square"/>
     </g>
     <g id="line2d_22">
      <g>
       <use xlink:href="#m0a8c8beabb" x="180" y="138.54" style="stroke: #000000; stroke-width: 0.8"/>
      </g>
     </g>
     <g id="text_11">
      <!-- 30 -->
      <g transform="translate(160.275 142.339219)scale(0.1 -0.1)">
       <defs>
        <path id="DejaVuSans-33" d="M 2597 2516 
Q 3050 2419 3304 2112 
Q 3559 1806 3559 1356 
Q 3559 666 3084 287 
Q 2609 -91 1734 -91 
Q 1441 -91 1130 -33 
Q 819 25 488 141 
L 488 750 
Q 750 597 1062 519 
Q 1375 441 1716 441 
Q 2309 441 2620 675 
Q 2931 909 2931 1356 
Q 2931 1769 2642 2001 
Q 2353 2234 1838 2234 
L 1294 2234 
L 1294 2753 
L 1863 2753 
Q 2328 2753 2575 2939 
Q 2822 3125 2822 3475 
Q 2822 3834 2567 4026 
Q 2313 4219 1838 4219 
Q 1578 4219 1281 4162 
Q 984 4106 628 3988 
L 628 4550 
Q 988 4650 1302 4700 
Q 1616 4750 1894 4750 
Q 2613 4750 3031 4423 
Q 3450 4097 3450 3541 
Q 3450 3153 3228 2886 
Q 3006 2619 2597 2516 
z
" transform="scale(0.015625)"/>
       </defs>
       <use xlink:href="#DejaVuSans-33"/>
       <use xlink:href="#DejaVuSans-30" x="63.623047"/>
      </g>
     </g>
    </g>
    <g id="ytick_5">
     <g id="line2d_23">
      <path d="M 180 93.24 
L 508.235294 93.24 
" clip-path="url(#pbaf3728120)" style="fill: none; stroke: #b0b0b0; stroke-width: 0.8; stroke-linecap: square"/>
     </g>
     <g id="line2d_24">
      <g>
       <use xlink:href="#m0a8c8beabb" x="180" y="93.24" style="stroke: #000000; stroke-width: 0.8"/>
      </g>
     </g>
     <g id="text_12">
      <!-- 40 -->
      <g transform="translate(160.275 97.039219)scale(0.1 -0.1)">
       <use xlink:href="#DejaVuSans-34"/>
       <use xlink:href="#DejaVuSans-30" x="63.623047"/>
      </g>
     </g>
    </g>
    <g id="ytick_6">
     <g id="line2d_25">
      <path d="M 180 47.94 
L 508.235294 47.94 
" clip-path="url(#pbaf3728120)" style="fill: none; stroke: #b0b0b0; stroke-width: 0.8; stroke-linecap: square"/>
     </g>
     <g id="line2d_26">
      <g>
       <use xlink:href="#m0a8c8beabb" x="180" y="47.94" style="stroke: #000000; stroke-width: 0.8"/>
      </g>
     </g>
     <g id="text_13">
      <!-- 50 -->
      <g transform="translate(160.275 51.739219)scale(0.1 -0.1)">
       <defs>
        <path id="DejaVuSans-35" d="M 691 4666 
L 3169 4666 
L 3169 4134 
L 1269 4134 
L 1269 2991 
Q 1406 3038 1543 3061 
Q 1681 3084 1819 3084 
Q 2600 3084 3056 2656 
Q 3513 2228 3513 1497 
Q 3513 744 3044 326 
Q 2575 -91 1722 -91 
Q 1428 -91 1123 -41 
Q 819 9 494 109 
L 494 744 
Q 775 591 1075 516 
Q 1375 441 1709 441 
Q 2250 441 2565 725 
Q 2881 1009 2881 1497 
Q 2881 1984 2565 2268 
Q 2250 2553 1709 2553 
Q 1456 2553 1204 2497 
Q 953 2441 691 2322 
L 691 4666 
z
" transform="scale(0.015625)"/>
       </defs>
       <use xlink:href="#DejaVuSans-35"/>
       <use xlink:href="#DejaVuSans-30" x="63.623047"/>
      </g>
     </g>
    </g>
   </g>
   <g id="line2d_27">
    <path d="M 194.919786 161.19 
L 493.315508 161.19 
" clip-path="url(#pbaf3728120)" style="fill: none; stroke-dasharray: 1.5,2.475; stroke-dashoffset: 0; stroke: #808080; stroke-width: 1.5"/>
   </g>
   <g id="line2d_28">
    <path d="M 435.931715 319.74 
L 435.931715 -1 
" clip-path="url(#pbaf3728120)" style="fill: none; stroke-dasharray: 5.55,2.4; stroke-dashoffset: 0; stroke: #ff0000; stroke-opacity: 0.3; stroke-width: 1.5"/>
   </g>
   <g id="line2d_29">
    <path d="M 251.05522 274.44 
L 253.038586 273.268675 
L 255.021952 272.09735 
L 257.005319 270.926026 
L 258.988685 269.754701 
L 260.972051 268.583376 
L 262.955417 267.412051 
L 264.938783 266.240727 
L 266.92215 265.069402 
L 268.905516 263.898077 
L 270.888882 262.726752 
L 272.872248 261.555428 
L 274.855614 260.384103 
L 276.838981 259.212778 
L 278.822347 258.041453 
L 280.805713 256.870129 
L 282.789079 255.698804 
L 284.772445 254.527479 
L 286.755812 253.356154 
L 288.739178 252.18483 
L 290.722544 251.013505 
L 292.70591 249.84218 
L 294.689276 248.670855 
L 296.672643 247.499531 
L 298.656009 246.328206 
L 300.639375 245.156881 
L 302.622741 243.985556 
L 304.606107 242.814232 
L 306.589474 241.642907 
L 308.57284 240.471582 
L 310.556206 239.300257 
L 312.539572 238.128933 
L 314.522938 236.957608 
L 316.506305 235.786283 
L 318.489671 234.614958 
L 320.473037 233.443634 
L 322.456403 232.272309 
L 324.439769 231.100984 
L 326.423136 229.929659 
L 328.406502 228.758335 
L 330.389868 227.58701 
L 332.373234 226.415685 
L 334.3566 225.24436 
L 336.339967 224.073036 
L 338.323333 222.901711 
L 340.306699 221.730386 
L 342.290065 220.559061 
L 344.273431 219.387737 
L 346.256798 218.216412 
L 348.240164 217.045087 
L 350.22353 215.873762 
L 352.206896 214.702438 
L 354.190262 213.531113 
L 356.173629 212.359788 
L 358.156995 211.188463 
L 360.140361 210.017139 
L 362.123727 208.845814 
L 364.107093 207.674489 
L 366.09046 206.503164 
L 368.073826 205.324523 
L 370.057192 204.130527 
L 372.040558 202.920559 
L 374.023924 201.693962 
L 376.007291 200.450029 
L 377.990657 199.188004 
L 379.974023 197.907075 
L 381.957389 196.606365 
L 383.940755 195.284928 
L 385.924122 193.941742 
L 387.907488 192.575695 
L 389.890854 191.185578 
L 391.87422 189.770073 
L 393.857586 188.327736 
L 395.840953 186.85698 
L 397.824319 185.356057 
L 399.807685 183.82303 
L 401.791051 182.255746 
L 403.774417 180.651801 
L 405.757784 179.008495 
L 407.74115 177.32278 
L 409.724516 175.591192 
L 411.707882 173.809769 
L 413.691248 171.973944 
L 415.674615 170.078406 
L 417.657981 168.116918 
L 419.641347 166.082077 
L 421.624713 163.964981 
L 423.608079 161.754766 
L 425.591446 159.437946 
L 427.574812 156.997422 
L 429.558178 154.410972 
L 431.541544 151.648794 
L 433.52491 148.66931 
L 435.508277 145.41139 
L 437.491643 141.778389 
L 439.475009 137.600097 
L 441.458375 132.517317 
L 443.441741 125.4089 
L 445.425108 96.868498 
L 447.408474 47.94 
" clip-path="url(#pbaf3728120)" style="fill: none; stroke: #1f77b4; stroke-width: 1.5; stroke-linecap: square"/>
   </g>
   <g id="line2d_30">
    <path d="M 250.589515 274.44 
L 252.834946 273.063884 
L 255.080377 271.687769 
L 257.325808 270.311653 
L 259.571239 268.935537 
L 261.81667 267.559422 
L 264.062101 266.183306 
L 266.307531 264.80719 
L 268.552962 263.431075 
L 270.798393 262.054959 
L 273.043824 260.678843 
L 275.289255 259.302727 
L 277.534686 257.926612 
L 279.780117 256.550496 
L 282.025548 255.17438 
L 284.270979 253.798265 
L 286.51641 252.422149 
L 288.761841 251.046033 
L 291.007272 249.669918 
L 293.252703 248.293802 
L 295.498133 246.917686 
L 297.743564 245.541571 
L 299.988995 244.165455 
L 302.234426 242.789339 
L 304.479857 241.413224 
L 306.725288 240.037108 
L 308.970719 238.660992 
L 311.21615 237.284877 
L 313.461581 235.908761 
L 315.707012 234.532645 
L 317.952443 233.156529 
L 320.197874 231.780414 
L 322.443305 230.404298 
L 324.688735 229.028182 
L 326.934166 227.652067 
L 329.179597 226.275951 
L 331.425028 224.899835 
L 333.670459 223.52372 
L 335.91589 222.147604 
L 338.161321 220.771488 
L 340.406752 219.395373 
L 342.652183 218.019257 
L 344.897614 216.643141 
L 347.143045 215.267026 
L 349.388476 213.89091 
L 351.633907 212.514794 
L 353.879337 211.138678 
L 356.124768 209.762563 
L 358.370199 208.386447 
L 360.61563 207.010331 
L 362.861061 205.63097 
L 365.106492 204.235748 
L 367.351923 202.822831 
L 369.597354 201.391528 
L 371.842785 199.941103 
L 374.088216 198.470768 
L 376.333647 196.979679 
L 378.579078 195.466933 
L 380.824509 193.931557 
L 383.069939 192.372505 
L 385.31537 190.788645 
L 387.560801 189.178755 
L 389.806232 187.541508 
L 392.051663 185.875459 
L 394.297094 184.179032 
L 396.542525 182.450504 
L 398.787956 180.687979 
L 401.033387 178.88937 
L 403.278818 177.052363 
L 405.524249 175.174391 
L 407.76968 173.252584 
L 410.015111 171.283721 
L 412.260542 169.264166 
L 414.505972 167.189789 
L 416.751403 165.055869 
L 418.996834 162.856962 
L 421.242265 160.586743 
L 423.487696 158.237788 
L 425.733127 155.801289 
L 427.978558 153.26666 
L 430.223989 150.620992 
L 432.46942 147.848275 
L 434.714851 144.92823 
L 436.960282 141.834533 
L 439.205713 138.531942 
L 441.451144 134.971386 
L 443.696574 131.080915 
L 445.942005 126.747226 
L 448.187436 121.771974 
L 450.432867 115.741623 
L 452.678298 108.961461 
L 454.923729 102.181299 
L 457.16916 95.401136 
L 459.414591 88.620974 
L 461.660022 81.840812 
L 463.905453 75.060649 
L 466.150884 68.280487 
L 468.396315 61.500325 
L 470.641746 54.720162 
L 472.887176 47.94 
" clip-path="url(#pbaf3728120)" style="fill: none; stroke-dasharray: 5.55,2.4; stroke-dashoffset: 0; stroke: #ff7f0e; stroke-width: 1.5"/>
   </g>
   <g id="patch_3">
    <path d="M 180 283.5 
L 180 38.88 
" style="fill: none; stroke: #000000; stroke-width: 0.8; stroke-linejoin: miter; stroke-linecap: square"/>
   </g>
   <g id="patch_4">
    <path d="M 508.235294 283.5 
L 508.235294 38.88 
" style="fill: none; stroke: #000000; stroke-width: 0.8; stroke-linejoin: miter; stroke-linecap: square"/>
   </g>
   <g id="patch_5">
    <path d="M 180 283.5 
L 508.235294 283.5 
" style="fill: none; stroke: #000000; stroke-width: 0.8; stroke-linejoin: miter; stroke-linecap: square"/>
   </g>
   <g id="patch_6">
    <path d="M 180 38.88 
L 508.235294 38.88 
" style="fill: none; stroke: #000000; stroke-width: 0.8; stroke-linejoin: miter; stroke-linecap: square"/>
   </g>
   <g id="text_14">
    <!--  Block: 0 -->
    <g transform="translate(318.237022 32.88)scale(0.12 -0.12)">
     <defs>
      <path id="DejaVuSans-20" transform="scale(0.015625)"/>
      <path id="DejaVuSans-42" d="M 1259 2228 
L 1259 519 
L 2272 519 
Q 2781 519 3026 730 
Q 3272 941 3272 1375 
Q 3272 1813 3026 2020 
Q 2781 2228 2272 2228 
L 1259 2228 
z
M 1259 4147 
L 1259 2741 
L 2194 2741 
Q 2656 2741 2882 2914 
Q 3109 3088 3109 3444 
Q 3109 3797 2882 3972 
Q 2656 4147 2194 4147 
L 1259 4147 
z
M 628 4666 
L 2241 4666 
Q 2963 4666 3353 4366 
Q 3744 4066 3744 3513 
Q 3744 3084 3544 2831 
Q 3344 2578 2956 2516 
Q 3422 2416 3680 2098 
Q 3938 1781 3938 1306 
Q 3938 681 3513 340 
Q 3088 0 2303 0 
L 628 0 
L 628 4666 
z
" transform="scale(0.015625)"/>
      <path id="DejaVuSans-6c" d="M 603 4863 
L 1178 4863 
L 1178 0 
L 603 0 
L 603 4863 
z
" transform="scale(0.015625)"/>
      <path id="DejaVuSans-6f" d="M 1959 3097 
Q 1497 3097 1228 2736 
Q 959 2375 959 1747 
Q 959 1119 1226 758 
Q 1494 397 1959 397 
Q 2419 397 2687 759 
Q 2956 1122 2956 1747 
Q 2956 2369 2687 2733 
Q 2419 3097 1959 3097 
z
M 1959 3584 
Q 2709 3584 3137 3096 
Q 3566 2609 3566 1747 
Q 3566 888 3137 398 
Q 2709 -91 1959 -91 
Q 1206 -91 779 398 
Q 353 888 353 1747 
Q 353 2609 779 3096 
Q 1206 3584 1959 3584 
z
" transform="scale(0.015625)"/>
      <path id="DejaVuSans-63" d="M 3122 3366 
L 3122 2828 
Q 2878 2963 2633 3030 
Q 2388 3097 2138 3097 
Q 1578 3097 1268 2742 
Q 959 2388 959 1747 
Q 959 1106 1268 751 
Q 1578 397 2138 397 
Q 2388 397 2633 464 
Q 2878 531 3122 666 
L 3122 134 
Q 2881 22 2623 -34 
Q 2366 -91 2075 -91 
Q 1284 -91 818 406 
Q 353 903 353 1747 
Q 353 2603 823 3093 
Q 1294 3584 2113 3584 
Q 2378 3584 2631 3529 
Q 2884 3475 3122 3366 
z
" transform="scale(0.015625)"/>
      <path id="DejaVuSans-6b" d="M 581 4863 
L 1159 4863 
L 1159 1991 
L 2875 3500 
L 3609 3500 
L 1753 1863 
L 3688 0 
L 2938 0 
L 1159 1709 
L 1159 0 
L 581 0 
L 581 4863 
z
" transform="scale(0.015625)"/>
      <path id="DejaVuSans-3a" d="M 750 794 
L 1409 794 
L 1409 0 
L 750 0 
L 750 794 
z
M 750 3309 
L 1409 3309 
L 1409 2516 
L 750 2516 
L 750 3309 
z
" transform="scale(0.015625)"/>
     </defs>
     <use xlink:href="#DejaVuSans-20"/>
     <use xlink:href="#DejaVuSans-42" x="31.787109"/>
     <use xlink:href="#DejaVuSans-6c" x="100.390625"/>
     <use xlink:href="#DejaVuSans-6f" x="128.173828"/>
     <use xlink:href="#DejaVuSans-63" x="189.355469"/>
     <use xlink:href="#DejaVuSans-6b" x="244.335938"/>
     <use xlink:href="#DejaVuSans-3a" x="302.246094"/>
     <use xlink:href="#DejaVuSans-20" x="335.9375"/>
     <use xlink:href="#DejaVuSans-30" x="367.724609"/>
    </g>
   </g>
   <g id="legend_1">
    <g id="patch_7">
     <path d="M 187 91.1925 
L 318.2 91.1925 
Q 320.2 91.1925 320.2 89.1925 
L 320.2 45.88 
Q 320.2 43.88 318.2 43.88 
L 187 43.88 
Q 185 43.88 185 45.88 
L 185 89.1925 
Q 185 91.1925 187 91.1925 
z
" style="fill: #ffffff; opacity: 0.8; stroke: #cccccc; stroke-linejoin: miter"/>
    </g>
    <g id="PathCollection_2">
     <g>
      <use xlink:href="#m5cfcd25191" x="199" y="52.853437" style="stroke: #000000"/>
     </g>
    </g>
    <g id="text_15">
     <!-- Data -->
     <g transform="translate(217 55.478437)scale(0.1 -0.1)">
      <defs>
       <path id="DejaVuSans-44" d="M 1259 4147 
L 1259 519 
L 2022 519 
Q 2988 519 3436 956 
Q 3884 1394 3884 2338 
Q 3884 3275 3436 3711 
Q 2988 4147 2022 4147 
L 1259 4147 
z
M 628 4666 
L 1925 4666 
Q 3281 4666 3915 4102 
Q 4550 3538 4550 2338 
Q 4550 1131 3912 565 
Q 3275 0 1925 0 
L 628 0 
L 628 4666 
z
" transform="scale(0.015625)"/>
       <path id="DejaVuSans-61" d="M 2194 1759 
Q 1497 1759 1228 1600 
Q 959 1441 959 1056 
Q 959 750 1161 570 
Q 1363 391 1709 391 
Q 2188 391 2477 730 
Q 2766 1069 2766 1631 
L 2766 1759 
L 2194 1759 
z
M 3341 1997 
L 3341 0 
L 2766 0 
L 2766 531 
Q 2569 213 2275 61 
Q 1981 -91 1556 -91 
Q 1019 -91 701 211 
Q 384 513 384 1019 
Q 384 1609 779 1909 
Q 1175 2209 1959 2209 
L 2766 2209 
L 2766 2266 
Q 2766 2663 2505 2880 
Q 2244 3097 1772 3097 
Q 1472 3097 1187 3025 
Q 903 2953 641 2809 
L 641 3341 
Q 956 3463 1253 3523 
Q 1550 3584 1831 3584 
Q 2591 3584 2966 3190 
Q 3341 2797 3341 1997 
z
" transform="scale(0.015625)"/>
       <path id="DejaVuSans-74" d="M 1172 4494 
L 1172 3500 
L 2356 3500 
L 2356 3053 
L 1172 3053 
L 1172 1153 
Q 1172 725 1289 603 
Q 1406 481 1766 481 
L 2356 481 
L 2356 0 
L 1766 0 
Q 1100 0 847 248 
Q 594 497 594 1153 
L 594 3053 
L 172 3053 
L 172 3500 
L 594 3500 
L 594 4494 
L 1172 4494 
z
" transform="scale(0.015625)"/>
      </defs>
      <use xlink:href="#DejaVuSans-44"/>
      <use xlink:href="#DejaVuSans-61" x="77.001953"/>
      <use xlink:href="#DejaVuSans-74" x="138.28125"/>
      <use xlink:href="#DejaVuSans-61" x="177.490234"/>
     </g>
    </g>
    <g id="line2d_31">
     <path d="M 189 66.656562 
L 199 66.656562 
L 209 66.656562 
" style="fill: none; stroke: #1f77b4; stroke-width: 1.5; stroke-linecap: square"/>
    </g>
    <g id="text_16">
     <!-- Artc e:0.1032 -->
     <g transform="translate(217 70.156562)scale(0.1 -0.1)">
      <defs>
       <path id="DejaVuSans-41" d="M 2188 4044 
L 1331 1722 
L 3047 1722 
L 2188 4044 
z
M 1831 4666 
L 2547 4666 
L 4325 0 
L 3669 0 
L 3244 1197 
L 1141 1197 
L 716 0 
L 50 0 
L 1831 4666 
z
" transform="scale(0.015625)"/>
       <path id="DejaVuSans-72" d="M 2631 2963 
Q 2534 3019 2420 3045 
Q 2306 3072 2169 3072 
Q 1681 3072 1420 2755 
Q 1159 2438 1159 1844 
L 1159 0 
L 581 0 
L 581 3500 
L 1159 3500 
L 1159 2956 
Q 1341 3275 1631 3429 
Q 1922 3584 2338 3584 
Q 2397 3584 2469 3576 
Q 2541 3569 2628 3553 
L 2631 2963 
z
" transform="scale(0.015625)"/>
       <path id="DejaVuSans-65" d="M 3597 1894 
L 3597 1613 
L 953 1613 
Q 991 1019 1311 708 
Q 1631 397 2203 397 
Q 2534 397 2845 478 
Q 3156 559 3463 722 
L 3463 178 
Q 3153 47 2828 -22 
Q 2503 -91 2169 -91 
Q 1331 -91 842 396 
Q 353 884 353 1716 
Q 353 2575 817 3079 
Q 1281 3584 2069 3584 
Q 2775 3584 3186 3129 
Q 3597 2675 3597 1894 
z
M 3022 2063 
Q 3016 2534 2758 2815 
Q 2500 3097 2075 3097 
Q 1594 3097 1305 2825 
Q 1016 2553 972 2059 
L 3022 2063 
z
" transform="scale(0.015625)"/>
       <path id="DejaVuSans-2e" d="M 684 794 
L 1344 794 
L 1344 0 
L 684 0 
L 684 794 
z
" transform="scale(0.015625)"/>
      </defs>
      <use xlink:href="#DejaVuSans-41"/>
      <use xlink:href="#DejaVuSans-72" x="68.408203"/>
      <use xlink:href="#DejaVuSans-74" x="109.521484"/>
      <use xlink:href="#DejaVuSans-63" x="148.730469"/>
      <use xlink:href="#DejaVuSans-20" x="203.710938"/>
      <use xlink:href="#DejaVuSans-65" x="235.498047"/>
      <use xlink:href="#DejaVuSans-3a" x="297.021484"/>
      <use xlink:href="#DejaVuSans-30" x="330.712891"/>
      <use xlink:href="#DejaVuSans-2e" x="394.335938"/>
      <use xlink:href="#DejaVuSans-31" x="426.123047"/>
      <use xlink:href="#DejaVuSans-30" x="489.746094"/>
      <use xlink:href="#DejaVuSans-33" x="553.369141"/>
      <use xlink:href="#DejaVuSans-32" x="616.992188"/>
     </g>
    </g>
    <g id="line2d_32">
     <path d="M 189 81.334687 
L 199 81.334687 
L 209 81.334687 
" style="fill: none; stroke-dasharray: 5.55,2.4; stroke-dashoffset: 0; stroke: #ff7f0e; stroke-width: 1.5"/>
    </g>
    <g id="text_17">
     <!-- NEL_BTUX e:0.1116 -->
     <g transform="translate(217 84.834687)scale(0.1 -0.1)">
      <defs>
       <path id="DejaVuSans-4e" d="M 628 4666 
L 1478 4666 
L 3547 763 
L 3547 4666 
L 4159 4666 
L 4159 0 
L 3309 0 
L 1241 3903 
L 1241 0 
L 628 0 
L 628 4666 
z
" transform="scale(0.015625)"/>
       <path id="DejaVuSans-45" d="M 628 4666 
L 3578 4666 
L 3578 4134 
L 1259 4134 
L 1259 2753 
L 3481 2753 
L 3481 2222 
L 1259 2222 
L 1259 531 
L 3634 531 
L 3634 0 
L 628 0 
L 628 4666 
z
" transform="scale(0.015625)"/>
       <path id="DejaVuSans-4c" d="M 628 4666 
L 1259 4666 
L 1259 531 
L 3531 531 
L 3531 0 
L 628 0 
L 628 4666 
z
" transform="scale(0.015625)"/>
       <path id="DejaVuSans-5f" d="M 3263 -1063 
L 3263 -1509 
L -63 -1509 
L -63 -1063 
L 3263 -1063 
z
" transform="scale(0.015625)"/>
       <path id="DejaVuSans-54" d="M -19 4666 
L 3928 4666 
L 3928 4134 
L 2272 4134 
L 2272 0 
L 1638 0 
L 1638 4134 
L -19 4134 
L -19 4666 
z
" transform="scale(0.015625)"/>
       <path id="DejaVuSans-55" d="M 556 4666 
L 1191 4666 
L 1191 1831 
Q 1191 1081 1462 751 
Q 1734 422 2344 422 
Q 2950 422 3222 751 
Q 3494 1081 3494 1831 
L 3494 4666 
L 4128 4666 
L 4128 1753 
Q 4128 841 3676 375 
Q 3225 -91 2344 -91 
Q 1459 -91 1007 375 
Q 556 841 556 1753 
L 556 4666 
z
" transform="scale(0.015625)"/>
       <path id="DejaVuSans-58" d="M 403 4666 
L 1081 4666 
L 2241 2931 
L 3406 4666 
L 4084 4666 
L 2584 2425 
L 4184 0 
L 3506 0 
L 2194 1984 
L 872 0 
L 191 0 
L 1856 2491 
L 403 4666 
z
" transform="scale(0.015625)"/>
      </defs>
      <use xlink:href="#DejaVuSans-4e"/>
      <use xlink:href="#DejaVuSans-45" x="74.804688"/>
      <use xlink:href="#DejaVuSans-4c" x="137.988281"/>
      <use xlink:href="#DejaVuSans-5f" x="193.701172"/>
      <use xlink:href="#DejaVuSans-42" x="243.701172"/>
      <use xlink:href="#DejaVuSans-54" x="312.304688"/>
      <use xlink:href="#DejaVuSans-55" x="373.388672"/>
      <use xlink:href="#DejaVuSans-58" x="446.582031"/>
      <use xlink:href="#DejaVuSans-20" x="515.087891"/>
      <use xlink:href="#DejaVuSans-65" x="546.875"/>
      <use xlink:href="#DejaVuSans-3a" x="608.398438"/>
      <use xlink:href="#DejaVuSans-30" x="642.089844"/>
      <use xlink:href="#DejaVuSans-2e" x="705.712891"/>
      <use xlink:href="#DejaVuSans-31" x="737.5"/>
      <use xlink:href="#DejaVuSans-31" x="801.123047"/>
      <use xlink:href="#DejaVuSans-31" x="864.746094"/>
      <use xlink:href="#DejaVuSans-36" x="928.369141"/>
     </g>
    </g>
   </g>
  </g>
  <g id="axes_2">
   <g id="patch_8">
    <path d="M 573.882353 283.5 
L 902.117647 283.5 
L 902.117647 38.88 
L 573.882353 38.88 
z
" style="fill: #ffffff"/>
   </g>
   <g id="PathCollection_3">
    <g clip-path="url(#p5dfefd13c9)">
     <use xlink:href="#m5cfcd25191" x="783.907034" y="229.14" style="stroke: #000000"/>
     <use xlink:href="#m5cfcd25191" x="806.860551" y="183.84" style="stroke: #000000"/>
     <use xlink:href="#m5cfcd25191" x="749.476759" y="229.14" style="stroke: #000000"/>
     <use xlink:href="#m5cfcd25191" x="829.814068" y="138.54" style="stroke: #000000"/>
     <use xlink:href="#m5cfcd25191" x="715.046483" y="229.14" style="stroke: #000000"/>
     <use xlink:href="#m5cfcd25191" x="680.616207" y="251.79" style="stroke: #000000"/>
     <use xlink:href="#m5cfcd25191" x="646.185932" y="274.44" style="stroke: #000000"/>
     <use xlink:href="#m5cfcd25191" x="657.66269" y="251.79" style="stroke: #000000"/>
     <use xlink:href="#m5cfcd25191" x="700.700535" y="206.49" style="stroke: #000000"/>
     <use xlink:href="#m5cfcd25191" x="829.814068" y="138.54" style="stroke: #000000"/>
     <use xlink:href="#m5cfcd25191" x="786.775076" y="183.84" style="stroke: #000000"/>
     <use xlink:href="#m5cfcd25191" x="657.66292" y="274.44" style="stroke: #000000"/>
     <use xlink:href="#m5cfcd25191" x="743.73815" y="251.79" style="stroke: #000000"/>
     <use xlink:href="#m5cfcd25191" x="753.087117" y="229.14" style="stroke: #000000"/>
     <use xlink:href="#m5cfcd25191" x="714.723756" y="251.79" style="stroke: #000000"/>
     <use xlink:href="#m5cfcd25191" x="791.450708" y="183.84" style="stroke: #000000"/>
     <use xlink:href="#m5cfcd25191" x="829.814068" y="138.54" style="stroke: #000000"/>
     <use xlink:href="#m5cfcd25191" x="676.360625" y="229.14" style="stroke: #000000"/>
    </g>
   </g>
   <g id="matplotlib.axis_3">
    <g id="xtick_8">
     <g id="line2d_33">
      <path d="M 611.755656 283.5 
L 611.755656 38.88 
" clip-path="url(#p5dfefd13c9)" style="fill: none; stroke: #b0b0b0; stroke-width: 0.8; stroke-linecap: square"/>
     </g>
     <g id="line2d_34">
      <g>
       <use xlink:href="#m2661606aad" x="611.755656" y="283.5" style="stroke: #000000; stroke-width: 0.8"/>
      </g>
     </g>
     <g id="text_18">
      <!-- 0 -->
      <g transform="translate(608.574406 298.098437)scale(0.1 -0.1)">
       <use xlink:href="#DejaVuSans-30"/>
      </g>
     </g>
    </g>
    <g id="xtick_9">
     <g id="line2d_35">
      <path d="M 657.66269 283.5 
L 657.66269 38.88 
" clip-path="url(#p5dfefd13c9)" style="fill: none; stroke: #b0b0b0; stroke-width: 0.8; stroke-linecap: square"/>
     </g>
     <g id="line2d_36">
      <g>
       <use xlink:href="#m2661606aad" x="657.66269" y="283.5" style="stroke: #000000; stroke-width: 0.8"/>
      </g>
     </g>
     <g id="text_19">
      <!-- 20 -->
      <g transform="translate(651.30019 298.098437)scale(0.1 -0.1)">
       <use xlink:href="#DejaVuSans-32"/>
       <use xlink:href="#DejaVuSans-30" x="63.623047"/>
      </g>
     </g>
    </g>
    <g id="xtick_10">
     <g id="line2d_37">
      <path d="M 703.569724 283.5 
L 703.569724 38.88 
" clip-path="url(#p5dfefd13c9)" style="fill: none; stroke: #b0b0b0; stroke-width: 0.8; stroke-linecap: square"/>
     </g>
     <g id="line2d_38">
      <g>
       <use xlink:href="#m2661606aad" x="703.569724" y="283.5" style="stroke: #000000; stroke-width: 0.8"/>
      </g>
     </g>
     <g id="text_20">
      <!-- 40 -->
      <g transform="translate(697.207224 298.098437)scale(0.1 -0.1)">
       <use xlink:href="#DejaVuSans-34"/>
       <use xlink:href="#DejaVuSans-30" x="63.623047"/>
      </g>
     </g>
    </g>
    <g id="xtick_11">
     <g id="line2d_39">
      <path d="M 749.476759 283.5 
L 749.476759 38.88 
" clip-path="url(#p5dfefd13c9)" style="fill: none; stroke: #b0b0b0; stroke-width: 0.8; stroke-linecap: square"/>
     </g>
     <g id="line2d_40">
      <g>
       <use xlink:href="#m2661606aad" x="749.476759" y="283.5" style="stroke: #000000; stroke-width: 0.8"/>
      </g>
     </g>
     <g id="text_21">
      <!-- 60 -->
      <g transform="translate(743.114259 298.098437)scale(0.1 -0.1)">
       <use xlink:href="#DejaVuSans-36"/>
       <use xlink:href="#DejaVuSans-30" x="63.623047"/>
      </g>
     </g>
    </g>
    <g id="xtick_12">
     <g id="line2d_41">
      <path d="M 795.383793 283.5 
L 795.383793 38.88 
" clip-path="url(#p5dfefd13c9)" style="fill: none; stroke: #b0b0b0; stroke-width: 0.8; stroke-linecap: square"/>
     </g>
     <g id="line2d_42">
      <g>
       <use xlink:href="#m2661606aad" x="795.383793" y="283.5" style="stroke: #000000; stroke-width: 0.8"/>
      </g>
     </g>
     <g id="text_22">
      <!-- 80 -->
      <g transform="translate(789.021293 298.098437)scale(0.1 -0.1)">
       <use xlink:href="#DejaVuSans-38"/>
       <use xlink:href="#DejaVuSans-30" x="63.623047"/>
      </g>
     </g>
    </g>
    <g id="xtick_13">
     <g id="line2d_43">
      <path d="M 841.290827 283.5 
L 841.290827 38.88 
" clip-path="url(#p5dfefd13c9)" style="fill: none; stroke: #b0b0b0; stroke-width: 0.8; stroke-linecap: square"/>
     </g>
     <g id="line2d_44">
      <g>
       <use xlink:href="#m2661606aad" x="841.290827" y="283.5" style="stroke: #000000; stroke-width: 0.8"/>
      </g>
     </g>
     <g id="text_23">
      <!-- 100 -->
      <g transform="translate(831.747077 298.098437)scale(0.1 -0.1)">
       <use xlink:href="#DejaVuSans-31"/>
       <use xlink:href="#DejaVuSans-30" x="63.623047"/>
       <use xlink:href="#DejaVuSans-30" x="127.246094"/>
      </g>
     </g>
    </g>
    <g id="xtick_14">
     <g id="line2d_45">
      <path d="M 887.197861 283.5 
L 887.197861 38.88 
" clip-path="url(#p5dfefd13c9)" style="fill: none; stroke: #b0b0b0; stroke-width: 0.8; stroke-linecap: square"/>
     </g>
     <g id="line2d_46">
      <g>
       <use xlink:href="#m2661606aad" x="887.197861" y="283.5" style="stroke: #000000; stroke-width: 0.8"/>
      </g>
     </g>
     <g id="text_24">
      <!-- 120 -->
      <g transform="translate(877.654111 298.098437)scale(0.1 -0.1)">
       <use xlink:href="#DejaVuSans-31"/>
       <use xlink:href="#DejaVuSans-32" x="63.623047"/>
       <use xlink:href="#DejaVuSans-30" x="127.246094"/>
      </g>
     </g>
    </g>
   </g>
   <g id="matplotlib.axis_4">
    <g id="ytick_7">
     <g id="line2d_47">
      <path d="M 573.882353 274.44 
L 902.117647 274.44 
" clip-path="url(#p5dfefd13c9)" style="fill: none; stroke: #b0b0b0; stroke-width: 0.8; stroke-linecap: square"/>
     </g>
     <g id="line2d_48">
      <g>
       <use xlink:href="#m0a8c8beabb" x="573.882353" y="274.44" style="stroke: #000000; stroke-width: 0.8"/>
      </g>
     </g>
     <g id="text_25">
      <!-- 0 -->
      <g transform="translate(560.519853 278.239219)scale(0.1 -0.1)">
       <use xlink:href="#DejaVuSans-30"/>
      </g>
     </g>
    </g>
    <g id="ytick_8">
     <g id="line2d_49">
      <path d="M 573.882353 229.14 
L 902.117647 229.14 
" clip-path="url(#p5dfefd13c9)" style="fill: none; stroke: #b0b0b0; stroke-width: 0.8; stroke-linecap: square"/>
     </g>
     <g id="line2d_50">
      <g>
       <use xlink:href="#m0a8c8beabb" x="573.882353" y="229.14" style="stroke: #000000; stroke-width: 0.8"/>
      </g>
     </g>
     <g id="text_26">
      <!-- 10 -->
      <g transform="translate(554.157353 232.939219)scale(0.1 -0.1)">
       <use xlink:href="#DejaVuSans-31"/>
       <use xlink:href="#DejaVuSans-30" x="63.623047"/>
      </g>
     </g>
    </g>
    <g id="ytick_9">
     <g id="line2d_51">
      <path d="M 573.882353 183.84 
L 902.117647 183.84 
" clip-path="url(#p5dfefd13c9)" style="fill: none; stroke: #b0b0b0; stroke-width: 0.8; stroke-linecap: square"/>
     </g>
     <g id="line2d_52">
      <g>
       <use xlink:href="#m0a8c8beabb" x="573.882353" y="183.84" style="stroke: #000000; stroke-width: 0.8"/>
      </g>
     </g>
     <g id="text_27">
      <!-- 20 -->
      <g transform="translate(554.157353 187.639219)scale(0.1 -0.1)">
       <use xlink:href="#DejaVuSans-32"/>
       <use xlink:href="#DejaVuSans-30" x="63.623047"/>
      </g>
     </g>
    </g>
    <g id="ytick_10">
     <g id="line2d_53">
      <path d="M 573.882353 138.54 
L 902.117647 138.54 
" clip-path="url(#p5dfefd13c9)" style="fill: none; stroke: #b0b0b0; stroke-width: 0.8; stroke-linecap: square"/>
     </g>
     <g id="line2d_54">
      <g>
       <use xlink:href="#m0a8c8beabb" x="573.882353" y="138.54" style="stroke: #000000; stroke-width: 0.8"/>
      </g>
     </g>
     <g id="text_28">
      <!-- 30 -->
      <g transform="translate(554.157353 142.339219)scale(0.1 -0.1)">
       <use xlink:href="#DejaVuSans-33"/>
       <use xlink:href="#DejaVuSans-30" x="63.623047"/>
      </g>
     </g>
    </g>
    <g id="ytick_11">
     <g id="line2d_55">
      <path d="M 573.882353 93.24 
L 902.117647 93.24 
" clip-path="url(#p5dfefd13c9)" style="fill: none; stroke: #b0b0b0; stroke-width: 0.8; stroke-linecap: square"/>
     </g>
     <g id="line2d_56">
      <g>
       <use xlink:href="#m0a8c8beabb" x="573.882353" y="93.24" style="stroke: #000000; stroke-width: 0.8"/>
      </g>
     </g>
     <g id="text_29">
      <!-- 40 -->
      <g transform="translate(554.157353 97.039219)scale(0.1 -0.1)">
       <use xlink:href="#DejaVuSans-34"/>
       <use xlink:href="#DejaVuSans-30" x="63.623047"/>
      </g>
     </g>
    </g>
    <g id="ytick_12">
     <g id="line2d_57">
      <path d="M 573.882353 47.94 
L 902.117647 47.94 
" clip-path="url(#p5dfefd13c9)" style="fill: none; stroke: #b0b0b0; stroke-width: 0.8; stroke-linecap: square"/>
     </g>
     <g id="line2d_58">
      <g>
       <use xlink:href="#m0a8c8beabb" x="573.882353" y="47.94" style="stroke: #000000; stroke-width: 0.8"/>
      </g>
     </g>
     <g id="text_30">
      <!-- 50 -->
      <g transform="translate(554.157353 51.739219)scale(0.1 -0.1)">
       <use xlink:href="#DejaVuSans-35"/>
       <use xlink:href="#DejaVuSans-30" x="63.623047"/>
      </g>
     </g>
    </g>
   </g>
   <g id="line2d_59">
    <path d="M 588.802139 161.19 
L 887.197861 161.19 
" clip-path="url(#p5dfefd13c9)" style="fill: none; stroke-dasharray: 1.5,2.475; stroke-dashoffset: 0; stroke: #808080; stroke-width: 1.5"/>
   </g>
   <g id="line2d_60">
    <path d="M 829.814068 319.74 
L 829.814068 -1 
" clip-path="url(#p5dfefd13c9)" style="fill: none; stroke-dasharray: 5.55,2.4; stroke-dashoffset: 0; stroke: #ff0000; stroke-opacity: 0.3; stroke-width: 1.5"/>
   </g>
   <g id="line2d_61">
    <path d="M 642.823551 274.44 
L 644.828271 273.284028 
L 646.832991 272.128057 
L 648.837711 270.972085 
L 650.842431 269.816113 
L 652.847151 268.660141 
L 654.851871 267.50417 
L 656.856591 266.348198 
L 658.861311 265.192226 
L 660.866031 264.036254 
L 662.870751 262.880283 
L 664.875471 261.724311 
L 666.880191 260.568339 
L 668.884911 259.412368 
L 670.88963 258.256396 
L 672.89435 257.100424 
L 674.89907 255.944452 
L 676.90379 254.788481 
L 678.90851 253.632509 
L 680.91323 252.476537 
L 682.91795 251.320566 
L 684.92267 250.164594 
L 686.92739 249.008622 
L 688.93211 247.85265 
L 690.93683 246.696679 
L 692.94155 245.540707 
L 694.94627 244.384735 
L 696.95099 243.228763 
L 698.95571 242.072792 
L 700.96043 240.91682 
L 702.965149 239.760848 
L 704.969869 238.604877 
L 706.974589 237.448905 
L 708.979309 236.292933 
L 710.984029 235.136961 
L 712.988749 233.98099 
L 714.993469 232.825018 
L 716.998189 231.669046 
L 719.002909 230.513075 
L 721.007629 229.357103 
L 723.012349 228.201131 
L 725.017069 227.045159 
L 727.021789 225.889188 
L 729.026509 224.733216 
L 731.031229 223.577244 
L 733.035949 222.421272 
L 735.040668 221.265301 
L 737.045388 220.109329 
L 739.050108 218.953357 
L 741.054828 217.797386 
L 743.059548 216.641414 
L 745.064268 215.485442 
L 747.068988 214.32947 
L 749.073708 213.173499 
L 751.078428 212.017527 
L 753.083148 210.861555 
L 755.087868 209.705583 
L 757.092588 208.549612 
L 759.097308 207.39364 
L 761.102028 206.23732 
L 763.106748 205.070696 
L 765.111468 203.888776 
L 767.116187 202.690939 
L 769.120907 201.476527 
L 771.125627 200.24483 
L 773.130347 198.995089 
L 775.135067 197.726488 
L 777.139787 196.438145 
L 779.144507 195.129109 
L 781.149227 193.79835 
L 783.153947 192.444749 
L 785.158667 191.067088 
L 787.163387 189.664036 
L 789.168107 188.234136 
L 791.172827 186.775784 
L 793.177547 185.287211 
L 795.182267 183.766457 
L 797.186987 182.21134 
L 799.191706 180.61942 
L 801.196426 178.987953 
L 803.201146 177.313836 
L 805.205866 175.593539 
L 807.210586 173.823015 
L 809.215306 171.99759 
L 811.220026 170.111815 
L 813.224746 168.159279 
L 815.229466 166.132343 
L 817.234186 164.021795 
L 819.238906 161.816344 
L 821.243626 159.501907 
L 823.248346 157.060527 
L 825.253066 154.468698 
L 827.257786 151.694617 
L 829.262506 148.693397 
L 831.267225 145.397994 
L 833.271945 141.699998 
L 835.276665 137.401553 
L 837.281385 132.056443 
L 839.286105 123.967497 
L 841.290825 47.94 
" clip-path="url(#p5dfefd13c9)" style="fill: none; stroke: #1f77b4; stroke-width: 1.5; stroke-linecap: square"/>
   </g>
   <g id="line2d_62">
    <path d="M 638.523283 274.44 
L 640.835497 273.071904 
L 643.14771 271.703808 
L 645.459923 270.335712 
L 647.772137 268.967617 
L 650.08435 267.599521 
L 652.396564 266.231425 
L 654.708777 264.863329 
L 657.02099 263.495233 
L 659.333204 262.127137 
L 661.645417 260.759042 
L 663.957631 259.390946 
L 666.269844 258.02285 
L 668.582057 256.654754 
L 670.894271 255.286658 
L 673.206484 253.918562 
L 675.518697 252.550467 
L 677.830911 251.182371 
L 680.143124 249.814275 
L 682.455338 248.446179 
L 684.767551 247.078083 
L 687.079764 245.709987 
L 689.391978 244.341892 
L 691.704191 242.973796 
L 694.016405 241.6057 
L 696.328618 240.237604 
L 698.640831 238.869508 
L 700.953045 237.501412 
L 703.265258 236.133316 
L 705.577472 234.765221 
L 707.889685 233.397125 
L 710.201898 232.029029 
L 712.514112 230.660933 
L 714.826325 229.292837 
L 717.138539 227.924741 
L 719.450752 226.556646 
L 721.762965 225.18855 
L 724.075179 223.820454 
L 726.387392 222.452358 
L 728.699606 221.084262 
L 731.011819 219.716166 
L 733.324032 218.348071 
L 735.636246 216.979975 
L 737.948459 215.611879 
L 740.260673 214.243783 
L 742.572886 212.875687 
L 744.885099 211.507591 
L 747.197313 210.139496 
L 749.509526 208.7714 
L 751.82174 207.403304 
L 754.133953 206.034286 
L 756.446166 204.652124 
L 758.75838 203.252507 
L 761.070593 201.834757 
L 763.382807 200.398152 
L 765.69502 198.941917 
L 768.007233 197.465226 
L 770.319447 195.967191 
L 772.63166 194.44686 
L 774.943874 192.903205 
L 777.256087 191.335121 
L 779.5683 189.741408 
L 781.880514 188.120767 
L 784.192727 186.471786 
L 786.504941 184.792923 
L 788.817154 183.082493 
L 791.129367 181.338646 
L 793.441581 179.559341 
L 795.753794 177.742325 
L 798.066008 175.885093 
L 800.378221 173.98485 
L 802.690434 172.038461 
L 805.002648 170.042393 
L 807.314861 167.992635 
L 809.627074 165.884606 
L 811.939288 163.713036 
L 814.251501 161.471805 
L 816.563715 159.153747 
L 818.875928 156.750374 
L 821.188141 154.251509 
L 823.500355 151.644776 
L 825.812568 148.914869 
L 828.124782 146.042478 
L 830.436995 143.00265 
L 832.749208 139.762168 
L 835.061422 136.275122 
L 837.373635 132.474859 
L 839.685849 128.25787 
L 841.998062 123.446801 
L 844.310275 117.685168 
L 846.622489 110.776331 
L 848.934702 103.794516 
L 851.246916 96.812702 
L 853.559129 89.830887 
L 855.871342 82.849073 
L 858.183556 75.867258 
L 860.495769 68.885444 
L 862.807983 61.903629 
L 865.120196 54.921815 
L 867.432409 47.94 
" clip-path="url(#p5dfefd13c9)" style="fill: none; stroke-dasharray: 5.55,2.4; stroke-dashoffset: 0; stroke: #ff7f0e; stroke-width: 1.5"/>
   </g>
   <g id="patch_9">
    <path d="M 573.882353 283.5 
L 573.882353 38.88 
" style="fill: none; stroke: #000000; stroke-width: 0.8; stroke-linejoin: miter; stroke-linecap: square"/>
   </g>
   <g id="patch_10">
    <path d="M 902.117647 283.5 
L 902.117647 38.88 
" style="fill: none; stroke: #000000; stroke-width: 0.8; stroke-linejoin: miter; stroke-linecap: square"/>
   </g>
   <g id="patch_11">
    <path d="M 573.882353 283.5 
L 902.117647 283.5 
" style="fill: none; stroke: #000000; stroke-width: 0.8; stroke-linejoin: miter; stroke-linecap: square"/>
   </g>
   <g id="patch_12">
    <path d="M 573.882353 38.88 
L 902.117647 38.88 
" style="fill: none; stroke: #000000; stroke-width: 0.8; stroke-linejoin: miter; stroke-linecap: square"/>
   </g>
   <g id="text_31">
    <!--  Block: 1 -->
    <g transform="translate(712.119375 32.88)scale(0.12 -0.12)">
     <use xlink:href="#DejaVuSans-20"/>
     <use xlink:href="#DejaVuSans-42" x="31.787109"/>
     <use xlink:href="#DejaVuSans-6c" x="100.390625"/>
     <use xlink:href="#DejaVuSans-6f" x="128.173828"/>
     <use xlink:href="#DejaVuSans-63" x="189.355469"/>
     <use xlink:href="#DejaVuSans-6b" x="244.335938"/>
     <use xlink:href="#DejaVuSans-3a" x="302.246094"/>
     <use xlink:href="#DejaVuSans-20" x="335.9375"/>
     <use xlink:href="#DejaVuSans-31" x="367.724609"/>
    </g>
   </g>
   <g id="legend_2">
    <g id="patch_13">
     <path d="M 580.882353 91.1925 
L 712.082353 91.1925 
Q 714.082353 91.1925 714.082353 89.1925 
L 714.082353 45.88 
Q 714.082353 43.88 712.082353 43.88 
L 580.882353 43.88 
Q 578.882353 43.88 578.882353 45.88 
L 578.882353 89.1925 
Q 578.882353 91.1925 580.882353 91.1925 
z
" style="fill: #ffffff; opacity: 0.8; stroke: #cccccc; stroke-linejoin: miter"/>
    </g>
    <g id="PathCollection_4">
     <g>
      <use xlink:href="#m5cfcd25191" x="592.882353" y="52.853437" style="stroke: #000000"/>
     </g>
    </g>
    <g id="text_32">
     <!-- Data -->
     <g transform="translate(610.882353 55.478437)scale(0.1 -0.1)">
      <use xlink:href="#DejaVuSans-44"/>
      <use xlink:href="#DejaVuSans-61" x="77.001953"/>
      <use xlink:href="#DejaVuSans-74" x="138.28125"/>
      <use xlink:href="#DejaVuSans-61" x="177.490234"/>
     </g>
    </g>
    <g id="line2d_63">
     <path d="M 582.882353 66.656562 
L 592.882353 66.656562 
L 602.882353 66.656562 
" style="fill: none; stroke: #1f77b4; stroke-width: 1.5; stroke-linecap: square"/>
    </g>
    <g id="text_33">
     <!-- Artc e:0.2268 -->
     <g transform="translate(610.882353 70.156562)scale(0.1 -0.1)">
      <use xlink:href="#DejaVuSans-41"/>
      <use xlink:href="#DejaVuSans-72" x="68.408203"/>
      <use xlink:href="#DejaVuSans-74" x="109.521484"/>
      <use xlink:href="#DejaVuSans-63" x="148.730469"/>
      <use xlink:href="#DejaVuSans-20" x="203.710938"/>
      <use xlink:href="#DejaVuSans-65" x="235.498047"/>
      <use xlink:href="#DejaVuSans-3a" x="297.021484"/>
      <use xlink:href="#DejaVuSans-30" x="330.712891"/>
      <use xlink:href="#DejaVuSans-2e" x="394.335938"/>
      <use xlink:href="#DejaVuSans-32" x="426.123047"/>
      <use xlink:href="#DejaVuSans-32" x="489.746094"/>
      <use xlink:href="#DejaVuSans-36" x="553.369141"/>
      <use xlink:href="#DejaVuSans-38" x="616.992188"/>
     </g>
    </g>
    <g id="line2d_64">
     <path d="M 582.882353 81.334687 
L 592.882353 81.334687 
L 602.882353 81.334687 
" style="fill: none; stroke-dasharray: 5.55,2.4; stroke-dashoffset: 0; stroke: #ff7f0e; stroke-width: 1.5"/>
    </g>
    <g id="text_34">
     <!-- NEL_BTUX e:0.2402 -->
     <g transform="translate(610.882353 84.834687)scale(0.1 -0.1)">
      <use xlink:href="#DejaVuSans-4e"/>
      <use xlink:href="#DejaVuSans-45" x="74.804688"/>
      <use xlink:href="#DejaVuSans-4c" x="137.988281"/>
      <use xlink:href="#DejaVuSans-5f" x="193.701172"/>
      <use xlink:href="#DejaVuSans-42" x="243.701172"/>
      <use xlink:href="#DejaVuSans-54" x="312.304688"/>
      <use xlink:href="#DejaVuSans-55" x="373.388672"/>
      <use xlink:href="#DejaVuSans-58" x="446.582031"/>
      <use xlink:href="#DejaVuSans-20" x="515.087891"/>
      <use xlink:href="#DejaVuSans-65" x="546.875"/>
      <use xlink:href="#DejaVuSans-3a" x="608.398438"/>
      <use xlink:href="#DejaVuSans-30" x="642.089844"/>
      <use xlink:href="#DejaVuSans-2e" x="705.712891"/>
      <use xlink:href="#DejaVuSans-32" x="737.5"/>
      <use xlink:href="#DejaVuSans-34" x="801.123047"/>
      <use xlink:href="#DejaVuSans-30" x="864.746094"/>
      <use xlink:href="#DejaVuSans-32" x="928.369141"/>
     </g>
    </g>
   </g>
  </g>
  <g id="axes_3">
   <g id="patch_14">
    <path d="M 967.764706 283.5 
L 1296 283.5 
L 1296 38.88 
L 967.764706 38.88 
z
" style="fill: #ffffff"/>
   </g>
   <g id="PathCollection_5">
    <g clip-path="url(#p6cbeb4dfa9)">
     <use xlink:href="#m5cfcd25191" x="1177.789387" y="183.84" style="stroke: #000000"/>
     <use xlink:href="#m5cfcd25191" x="1200.742904" y="183.84" style="stroke: #000000"/>
     <use xlink:href="#m5cfcd25191" x="1143.359111" y="229.14" style="stroke: #000000"/>
     <use xlink:href="#m5cfcd25191" x="1223.696421" y="138.54" style="stroke: #000000"/>
     <use xlink:href="#m5cfcd25191" x="1108.928836" y="229.14" style="stroke: #000000"/>
     <use xlink:href="#m5cfcd25191" x="1074.49856" y="251.79" style="stroke: #000000"/>
     <use xlink:href="#m5cfcd25191" x="1040.068285" y="274.44" style="stroke: #000000"/>
     <use xlink:href="#m5cfcd25191" x="1051.545043" y="251.79" style="stroke: #000000"/>
     <use xlink:href="#m5cfcd25191" x="1094.582888" y="229.14" style="stroke: #000000"/>
     <use xlink:href="#m5cfcd25191" x="1180.657429" y="183.84" style="stroke: #000000"/>
     <use xlink:href="#m5cfcd25191" x="1223.696421" y="138.54" style="stroke: #000000"/>
     <use xlink:href="#m5cfcd25191" x="1051.545273" y="229.14" style="stroke: #000000"/>
     <use xlink:href="#m5cfcd25191" x="1137.620503" y="229.14" style="stroke: #000000"/>
     <use xlink:href="#m5cfcd25191" x="1049.078688" y="229.14" style="stroke: #000000"/>
     <use xlink:href="#m5cfcd25191" x="1180.041816" y="229.14" style="stroke: #000000"/>
     <use xlink:href="#m5cfcd25191" x="1136.387669" y="229.14" style="stroke: #000000"/>
     <use xlink:href="#m5cfcd25191" x="1092.733064" y="251.79" style="stroke: #000000"/>
     <use xlink:href="#m5cfcd25191" x="1223.696421" y="93.24" style="stroke: #000000"/>
    </g>
   </g>
   <g id="matplotlib.axis_5">
    <g id="xtick_15">
     <g id="line2d_65">
      <path d="M 1005.638009 283.5 
L 1005.638009 38.88 
" clip-path="url(#p6cbeb4dfa9)" style="fill: none; stroke: #b0b0b0; stroke-width: 0.8; stroke-linecap: square"/>
     </g>
     <g id="line2d_66">
      <g>
       <use xlink:href="#m2661606aad" x="1005.638009" y="283.5" style="stroke: #000000; stroke-width: 0.8"/>
      </g>
     </g>
     <g id="text_35">
      <!-- 0 -->
      <g transform="translate(1002.456759 298.098437)scale(0.1 -0.1)">
       <use xlink:href="#DejaVuSans-30"/>
      </g>
     </g>
    </g>
    <g id="xtick_16">
     <g id="line2d_67">
      <path d="M 1051.545043 283.5 
L 1051.545043 38.88 
" clip-path="url(#p6cbeb4dfa9)" style="fill: none; stroke: #b0b0b0; stroke-width: 0.8; stroke-linecap: square"/>
     </g>
     <g id="line2d_68">
      <g>
       <use xlink:href="#m2661606aad" x="1051.545043" y="283.5" style="stroke: #000000; stroke-width: 0.8"/>
      </g>
     </g>
     <g id="text_36">
      <!-- 20 -->
      <g transform="translate(1045.182543 298.098437)scale(0.1 -0.1)">
       <use xlink:href="#DejaVuSans-32"/>
       <use xlink:href="#DejaVuSans-30" x="63.623047"/>
      </g>
     </g>
    </g>
    <g id="xtick_17">
     <g id="line2d_69">
      <path d="M 1097.452077 283.5 
L 1097.452077 38.88 
" clip-path="url(#p6cbeb4dfa9)" style="fill: none; stroke: #b0b0b0; stroke-width: 0.8; stroke-linecap: square"/>
     </g>
     <g id="line2d_70">
      <g>
       <use xlink:href="#m2661606aad" x="1097.452077" y="283.5" style="stroke: #000000; stroke-width: 0.8"/>
      </g>
     </g>
     <g id="text_37">
      <!-- 40 -->
      <g transform="translate(1091.089577 298.098437)scale(0.1 -0.1)">
       <use xlink:href="#DejaVuSans-34"/>
       <use xlink:href="#DejaVuSans-30" x="63.623047"/>
      </g>
     </g>
    </g>
    <g id="xtick_18">
     <g id="line2d_71">
      <path d="M 1143.359111 283.5 
L 1143.359111 38.88 
" clip-path="url(#p6cbeb4dfa9)" style="fill: none; stroke: #b0b0b0; stroke-width: 0.8; stroke-linecap: square"/>
     </g>
     <g id="line2d_72">
      <g>
       <use xlink:href="#m2661606aad" x="1143.359111" y="283.5" style="stroke: #000000; stroke-width: 0.8"/>
      </g>
     </g>
     <g id="text_38">
      <!-- 60 -->
      <g transform="translate(1136.996611 298.098437)scale(0.1 -0.1)">
       <use xlink:href="#DejaVuSans-36"/>
       <use xlink:href="#DejaVuSans-30" x="63.623047"/>
      </g>
     </g>
    </g>
    <g id="xtick_19">
     <g id="line2d_73">
      <path d="M 1189.266146 283.5 
L 1189.266146 38.88 
" clip-path="url(#p6cbeb4dfa9)" style="fill: none; stroke: #b0b0b0; stroke-width: 0.8; stroke-linecap: square"/>
     </g>
     <g id="line2d_74">
      <g>
       <use xlink:href="#m2661606aad" x="1189.266146" y="283.5" style="stroke: #000000; stroke-width: 0.8"/>
      </g>
     </g>
     <g id="text_39">
      <!-- 80 -->
      <g transform="translate(1182.903646 298.098437)scale(0.1 -0.1)">
       <use xlink:href="#DejaVuSans-38"/>
       <use xlink:href="#DejaVuSans-30" x="63.623047"/>
      </g>
     </g>
    </g>
    <g id="xtick_20">
     <g id="line2d_75">
      <path d="M 1235.17318 283.5 
L 1235.17318 38.88 
" clip-path="url(#p6cbeb4dfa9)" style="fill: none; stroke: #b0b0b0; stroke-width: 0.8; stroke-linecap: square"/>
     </g>
     <g id="line2d_76">
      <g>
       <use xlink:href="#m2661606aad" x="1235.17318" y="283.5" style="stroke: #000000; stroke-width: 0.8"/>
      </g>
     </g>
     <g id="text_40">
      <!-- 100 -->
      <g transform="translate(1225.62943 298.098437)scale(0.1 -0.1)">
       <use xlink:href="#DejaVuSans-31"/>
       <use xlink:href="#DejaVuSans-30" x="63.623047"/>
       <use xlink:href="#DejaVuSans-30" x="127.246094"/>
      </g>
     </g>
    </g>
    <g id="xtick_21">
     <g id="line2d_77">
      <path d="M 1281.080214 283.5 
L 1281.080214 38.88 
" clip-path="url(#p6cbeb4dfa9)" style="fill: none; stroke: #b0b0b0; stroke-width: 0.8; stroke-linecap: square"/>
     </g>
     <g id="line2d_78">
      <g>
       <use xlink:href="#m2661606aad" x="1281.080214" y="283.5" style="stroke: #000000; stroke-width: 0.8"/>
      </g>
     </g>
     <g id="text_41">
      <!-- 120 -->
      <g transform="translate(1271.536464 298.098437)scale(0.1 -0.1)">
       <use xlink:href="#DejaVuSans-31"/>
       <use xlink:href="#DejaVuSans-32" x="63.623047"/>
       <use xlink:href="#DejaVuSans-30" x="127.246094"/>
      </g>
     </g>
    </g>
    <g id="text_42">
     <!-- Level [dB SPL] -->
     <g transform="translate(1096.022978 311.776563)scale(0.1 -0.1)">
      <defs>
       <path id="DejaVuSans-76" d="M 191 3500 
L 800 3500 
L 1894 563 
L 2988 3500 
L 3597 3500 
L 2284 0 
L 1503 0 
L 191 3500 
z
" transform="scale(0.015625)"/>
       <path id="DejaVuSans-5b" d="M 550 4863 
L 1875 4863 
L 1875 4416 
L 1125 4416 
L 1125 -397 
L 1875 -397 
L 1875 -844 
L 550 -844 
L 550 4863 
z
" transform="scale(0.015625)"/>
       <path id="DejaVuSans-64" d="M 2906 2969 
L 2906 4863 
L 3481 4863 
L 3481 0 
L 2906 0 
L 2906 525 
Q 2725 213 2448 61 
Q 2172 -91 1784 -91 
Q 1150 -91 751 415 
Q 353 922 353 1747 
Q 353 2572 751 3078 
Q 1150 3584 1784 3584 
Q 2172 3584 2448 3432 
Q 2725 3281 2906 2969 
z
M 947 1747 
Q 947 1113 1208 752 
Q 1469 391 1925 391 
Q 2381 391 2643 752 
Q 2906 1113 2906 1747 
Q 2906 2381 2643 2742 
Q 2381 3103 1925 3103 
Q 1469 3103 1208 2742 
Q 947 2381 947 1747 
z
" transform="scale(0.015625)"/>
       <path id="DejaVuSans-53" d="M 3425 4513 
L 3425 3897 
Q 3066 4069 2747 4153 
Q 2428 4238 2131 4238 
Q 1616 4238 1336 4038 
Q 1056 3838 1056 3469 
Q 1056 3159 1242 3001 
Q 1428 2844 1947 2747 
L 2328 2669 
Q 3034 2534 3370 2195 
Q 3706 1856 3706 1288 
Q 3706 609 3251 259 
Q 2797 -91 1919 -91 
Q 1588 -91 1214 -16 
Q 841 59 441 206 
L 441 856 
Q 825 641 1194 531 
Q 1563 422 1919 422 
Q 2459 422 2753 634 
Q 3047 847 3047 1241 
Q 3047 1584 2836 1778 
Q 2625 1972 2144 2069 
L 1759 2144 
Q 1053 2284 737 2584 
Q 422 2884 422 3419 
Q 422 4038 858 4394 
Q 1294 4750 2059 4750 
Q 2388 4750 2728 4690 
Q 3069 4631 3425 4513 
z
" transform="scale(0.015625)"/>
       <path id="DejaVuSans-50" d="M 1259 4147 
L 1259 2394 
L 2053 2394 
Q 2494 2394 2734 2622 
Q 2975 2850 2975 3272 
Q 2975 3691 2734 3919 
Q 2494 4147 2053 4147 
L 1259 4147 
z
M 628 4666 
L 2053 4666 
Q 2838 4666 3239 4311 
Q 3641 3956 3641 3272 
Q 3641 2581 3239 2228 
Q 2838 1875 2053 1875 
L 1259 1875 
L 1259 0 
L 628 0 
L 628 4666 
z
" transform="scale(0.015625)"/>
       <path id="DejaVuSans-5d" d="M 1947 4863 
L 1947 -844 
L 622 -844 
L 622 -397 
L 1369 -397 
L 1369 4416 
L 622 4416 
L 622 4863 
L 1947 4863 
z
" transform="scale(0.015625)"/>
      </defs>
      <use xlink:href="#DejaVuSans-4c"/>
      <use xlink:href="#DejaVuSans-65" x="53.962891"/>
      <use xlink:href="#DejaVuSans-76" x="115.486328"/>
      <use xlink:href="#DejaVuSans-65" x="174.666016"/>
      <use xlink:href="#DejaVuSans-6c" x="236.189453"/>
      <use xlink:href="#DejaVuSans-20" x="263.972656"/>
      <use xlink:href="#DejaVuSans-5b" x="295.759766"/>
      <use xlink:href="#DejaVuSans-64" x="334.773438"/>
      <use xlink:href="#DejaVuSans-42" x="398.25"/>
      <use xlink:href="#DejaVuSans-20" x="466.853516"/>
      <use xlink:href="#DejaVuSans-53" x="498.640625"/>
      <use xlink:href="#DejaVuSans-50" x="562.117188"/>
      <use xlink:href="#DejaVuSans-4c" x="622.419922"/>
      <use xlink:href="#DejaVuSans-5d" x="678.132812"/>
     </g>
    </g>
   </g>
   <g id="matplotlib.axis_6">
    <g id="ytick_13">
     <g id="line2d_79">
      <path d="M 967.764706 274.44 
L 1296 274.44 
" clip-path="url(#p6cbeb4dfa9)" style="fill: none; stroke: #b0b0b0; stroke-width: 0.8; stroke-linecap: square"/>
     </g>
     <g id="line2d_80">
      <g>
       <use xlink:href="#m0a8c8beabb" x="967.764706" y="274.44" style="stroke: #000000; stroke-width: 0.8"/>
      </g>
     </g>
     <g id="text_43">
      <!-- 0 -->
      <g transform="translate(954.402206 278.239219)scale(0.1 -0.1)">
       <use xlink:href="#DejaVuSans-30"/>
      </g>
     </g>
    </g>
    <g id="ytick_14">
     <g id="line2d_81">
      <path d="M 967.764706 229.14 
L 1296 229.14 
" clip-path="url(#p6cbeb4dfa9)" style="fill: none; stroke: #b0b0b0; stroke-width: 0.8; stroke-linecap: square"/>
     </g>
     <g id="line2d_82">
      <g>
       <use xlink:href="#m0a8c8beabb" x="967.764706" y="229.14" style="stroke: #000000; stroke-width: 0.8"/>
      </g>
     </g>
     <g id="text_44">
      <!-- 10 -->
      <g transform="translate(948.039706 232.939219)scale(0.1 -0.1)">
       <use xlink:href="#DejaVuSans-31"/>
       <use xlink:href="#DejaVuSans-30" x="63.623047"/>
      </g>
     </g>
    </g>
    <g id="ytick_15">
     <g id="line2d_83">
      <path d="M 967.764706 183.84 
L 1296 183.84 
" clip-path="url(#p6cbeb4dfa9)" style="fill: none; stroke: #b0b0b0; stroke-width: 0.8; stroke-linecap: square"/>
     </g>
     <g id="line2d_84">
      <g>
       <use xlink:href="#m0a8c8beabb" x="967.764706" y="183.84" style="stroke: #000000; stroke-width: 0.8"/>
      </g>
     </g>
     <g id="text_45">
      <!-- 20 -->
      <g transform="translate(948.039706 187.639219)scale(0.1 -0.1)">
       <use xlink:href="#DejaVuSans-32"/>
       <use xlink:href="#DejaVuSans-30" x="63.623047"/>
      </g>
     </g>
    </g>
    <g id="ytick_16">
     <g id="line2d_85">
      <path d="M 967.764706 138.54 
L 1296 138.54 
" clip-path="url(#p6cbeb4dfa9)" style="fill: none; stroke: #b0b0b0; stroke-width: 0.8; stroke-linecap: square"/>
     </g>
     <g id="line2d_86">
      <g>
       <use xlink:href="#m0a8c8beabb" x="967.764706" y="138.54" style="stroke: #000000; stroke-width: 0.8"/>
      </g>
     </g>
     <g id="text_46">
      <!-- 30 -->
      <g transform="translate(948.039706 142.339219)scale(0.1 -0.1)">
       <use xlink:href="#DejaVuSans-33"/>
       <use xlink:href="#DejaVuSans-30" x="63.623047"/>
      </g>
     </g>
    </g>
    <g id="ytick_17">
     <g id="line2d_87">
      <path d="M 967.764706 93.24 
L 1296 93.24 
" clip-path="url(#p6cbeb4dfa9)" style="fill: none; stroke: #b0b0b0; stroke-width: 0.8; stroke-linecap: square"/>
     </g>
     <g id="line2d_88">
      <g>
       <use xlink:href="#m0a8c8beabb" x="967.764706" y="93.24" style="stroke: #000000; stroke-width: 0.8"/>
      </g>
     </g>
     <g id="text_47">
      <!-- 40 -->
      <g transform="translate(948.039706 97.039219)scale(0.1 -0.1)">
       <use xlink:href="#DejaVuSans-34"/>
       <use xlink:href="#DejaVuSans-30" x="63.623047"/>
      </g>
     </g>
    </g>
    <g id="ytick_18">
     <g id="line2d_89">
      <path d="M 967.764706 47.94 
L 1296 47.94 
" clip-path="url(#p6cbeb4dfa9)" style="fill: none; stroke: #b0b0b0; stroke-width: 0.8; stroke-linecap: square"/>
     </g>
     <g id="line2d_90">
      <g>
       <use xlink:href="#m0a8c8beabb" x="967.764706" y="47.94" style="stroke: #000000; stroke-width: 0.8"/>
      </g>
     </g>
     <g id="text_48">
      <!-- 50 -->
      <g transform="translate(948.039706 51.739219)scale(0.1 -0.1)">
       <use xlink:href="#DejaVuSans-35"/>
       <use xlink:href="#DejaVuSans-30" x="63.623047"/>
      </g>
     </g>
    </g>
    <g id="text_49">
     <!-- Categorical Units -->
     <g transform="translate(941.960018 204.03375)rotate(-90)scale(0.1 -0.1)">
      <defs>
       <path id="DejaVuSans-43" d="M 4122 4306 
L 4122 3641 
Q 3803 3938 3442 4084 
Q 3081 4231 2675 4231 
Q 1875 4231 1450 3742 
Q 1025 3253 1025 2328 
Q 1025 1406 1450 917 
Q 1875 428 2675 428 
Q 3081 428 3442 575 
Q 3803 722 4122 1019 
L 4122 359 
Q 3791 134 3420 21 
Q 3050 -91 2638 -91 
Q 1578 -91 968 557 
Q 359 1206 359 2328 
Q 359 3453 968 4101 
Q 1578 4750 2638 4750 
Q 3056 4750 3426 4639 
Q 3797 4528 4122 4306 
z
" transform="scale(0.015625)"/>
       <path id="DejaVuSans-67" d="M 2906 1791 
Q 2906 2416 2648 2759 
Q 2391 3103 1925 3103 
Q 1463 3103 1205 2759 
Q 947 2416 947 1791 
Q 947 1169 1205 825 
Q 1463 481 1925 481 
Q 2391 481 2648 825 
Q 2906 1169 2906 1791 
z
M 3481 434 
Q 3481 -459 3084 -895 
Q 2688 -1331 1869 -1331 
Q 1566 -1331 1297 -1286 
Q 1028 -1241 775 -1147 
L 775 -588 
Q 1028 -725 1275 -790 
Q 1522 -856 1778 -856 
Q 2344 -856 2625 -561 
Q 2906 -266 2906 331 
L 2906 616 
Q 2728 306 2450 153 
Q 2172 0 1784 0 
Q 1141 0 747 490 
Q 353 981 353 1791 
Q 353 2603 747 3093 
Q 1141 3584 1784 3584 
Q 2172 3584 2450 3431 
Q 2728 3278 2906 2969 
L 2906 3500 
L 3481 3500 
L 3481 434 
z
" transform="scale(0.015625)"/>
       <path id="DejaVuSans-69" d="M 603 3500 
L 1178 3500 
L 1178 0 
L 603 0 
L 603 3500 
z
M 603 4863 
L 1178 4863 
L 1178 4134 
L 603 4134 
L 603 4863 
z
" transform="scale(0.015625)"/>
       <path id="DejaVuSans-6e" d="M 3513 2113 
L 3513 0 
L 2938 0 
L 2938 2094 
Q 2938 2591 2744 2837 
Q 2550 3084 2163 3084 
Q 1697 3084 1428 2787 
Q 1159 2491 1159 1978 
L 1159 0 
L 581 0 
L 581 3500 
L 1159 3500 
L 1159 2956 
Q 1366 3272 1645 3428 
Q 1925 3584 2291 3584 
Q 2894 3584 3203 3211 
Q 3513 2838 3513 2113 
z
" transform="scale(0.015625)"/>
       <path id="DejaVuSans-73" d="M 2834 3397 
L 2834 2853 
Q 2591 2978 2328 3040 
Q 2066 3103 1784 3103 
Q 1356 3103 1142 2972 
Q 928 2841 928 2578 
Q 928 2378 1081 2264 
Q 1234 2150 1697 2047 
L 1894 2003 
Q 2506 1872 2764 1633 
Q 3022 1394 3022 966 
Q 3022 478 2636 193 
Q 2250 -91 1575 -91 
Q 1294 -91 989 -36 
Q 684 19 347 128 
L 347 722 
Q 666 556 975 473 
Q 1284 391 1588 391 
Q 1994 391 2212 530 
Q 2431 669 2431 922 
Q 2431 1156 2273 1281 
Q 2116 1406 1581 1522 
L 1381 1569 
Q 847 1681 609 1914 
Q 372 2147 372 2553 
Q 372 3047 722 3315 
Q 1072 3584 1716 3584 
Q 2034 3584 2315 3537 
Q 2597 3491 2834 3397 
z
" transform="scale(0.015625)"/>
      </defs>
      <use xlink:href="#DejaVuSans-43"/>
      <use xlink:href="#DejaVuSans-61" x="69.824219"/>
      <use xlink:href="#DejaVuSans-74" x="131.103516"/>
      <use xlink:href="#DejaVuSans-65" x="170.3125"/>
      <use xlink:href="#DejaVuSans-67" x="231.835938"/>
      <use xlink:href="#DejaVuSans-6f" x="295.3125"/>
      <use xlink:href="#DejaVuSans-72" x="356.494141"/>
      <use xlink:href="#DejaVuSans-69" x="397.607422"/>
      <use xlink:href="#DejaVuSans-63" x="425.390625"/>
      <use xlink:href="#DejaVuSans-61" x="480.371094"/>
      <use xlink:href="#DejaVuSans-6c" x="541.650391"/>
      <use xlink:href="#DejaVuSans-20" x="569.433594"/>
      <use xlink:href="#DejaVuSans-55" x="601.220703"/>
      <use xlink:href="#DejaVuSans-6e" x="674.414062"/>
      <use xlink:href="#DejaVuSans-69" x="737.792969"/>
      <use xlink:href="#DejaVuSans-74" x="765.576172"/>
      <use xlink:href="#DejaVuSans-73" x="804.785156"/>
     </g>
    </g>
   </g>
   <g id="line2d_91">
    <path d="M 982.684492 161.19 
L 1281.080214 161.19 
" clip-path="url(#p6cbeb4dfa9)" style="fill: none; stroke-dasharray: 1.5,2.475; stroke-dashoffset: 0; stroke: #808080; stroke-width: 1.5"/>
   </g>
   <g id="line2d_92">
    <path d="M 1223.696421 319.74 
L 1223.696421 -1 
" clip-path="url(#p6cbeb4dfa9)" style="fill: none; stroke-dasharray: 5.55,2.4; stroke-dashoffset: 0; stroke: #ff0000; stroke-opacity: 0.3; stroke-width: 1.5"/>
   </g>
   <g id="line2d_93">
    <path d="M 1024.798251 274.44 
L 1026.92325 273.234228 
L 1029.048249 272.028456 
L 1031.173249 270.822684 
L 1033.298248 269.616912 
L 1035.423247 268.411139 
L 1037.548246 267.205367 
L 1039.673246 265.999595 
L 1041.798245 264.793823 
L 1043.923244 263.588051 
L 1046.048244 262.382279 
L 1048.173243 261.176507 
L 1050.298242 259.970735 
L 1052.423241 258.764963 
L 1054.548241 257.559191 
L 1056.67324 256.353418 
L 1058.798239 255.147646 
L 1060.923238 253.941874 
L 1063.048238 252.736102 
L 1065.173237 251.53033 
L 1067.298236 250.324558 
L 1069.423235 249.118786 
L 1071.548235 247.913014 
L 1073.673234 246.707242 
L 1075.798233 245.50147 
L 1077.923232 244.295697 
L 1080.048232 243.089925 
L 1082.173231 241.884153 
L 1084.29823 240.678381 
L 1086.423229 239.472609 
L 1088.548229 238.266837 
L 1090.673228 237.061065 
L 1092.798227 235.855293 
L 1094.923226 234.649521 
L 1097.048226 233.443749 
L 1099.173225 232.237976 
L 1101.298224 231.032204 
L 1103.423224 229.826432 
L 1105.548223 228.62066 
L 1107.673222 227.414888 
L 1109.798221 226.209116 
L 1111.923221 225.003344 
L 1114.04822 223.797572 
L 1116.173219 222.5918 
L 1118.298218 221.386028 
L 1120.423218 220.180255 
L 1122.548217 218.974483 
L 1124.673216 217.768711 
L 1126.798215 216.562939 
L 1128.923215 215.357167 
L 1131.048214 214.151395 
L 1133.173213 212.945623 
L 1135.298212 211.739851 
L 1137.423212 210.534079 
L 1139.548211 209.328307 
L 1141.67321 208.122534 
L 1143.798209 206.916762 
L 1145.923209 205.707796 
L 1148.048208 204.484215 
L 1150.173207 203.244456 
L 1152.298206 201.987859 
L 1154.423206 200.713719 
L 1156.548205 199.42128 
L 1158.673204 198.10973 
L 1160.798204 196.778196 
L 1162.923203 195.425735 
L 1165.048202 194.051329 
L 1167.173201 192.653872 
L 1169.298201 191.232166 
L 1171.4232 189.784901 
L 1173.548199 188.310649 
L 1175.673198 186.80784 
L 1177.798198 185.274747 
L 1179.923197 183.709463 
L 1182.048196 182.109871 
L 1184.173195 180.47361 
L 1186.298195 178.798037 
L 1188.423194 177.080173 
L 1190.548193 175.316647 
L 1192.673192 173.50361 
L 1194.798192 171.636643 
L 1196.923191 169.710625 
L 1199.04819 167.719572 
L 1201.173189 165.656414 
L 1203.298189 163.512699 
L 1205.423188 161.278183 
L 1207.548187 158.940245 
L 1209.673186 156.483041 
L 1211.798186 153.886211 
L 1213.923185 151.122845 
L 1216.048184 148.156091 
L 1218.173184 144.933089 
L 1220.298183 141.373136 
L 1222.423182 137.341431 
L 1224.548181 132.57856 
L 1226.673181 126.433434 
L 1228.79818 114.862358 
L 1230.923179 92.554906 
L 1233.048178 70.247453 
L 1235.173178 47.94 
" clip-path="url(#p6cbeb4dfa9)" style="fill: none; stroke: #1f77b4; stroke-width: 1.5; stroke-linecap: square"/>
   </g>
   <g id="line2d_94">
    <path d="M 1025.364627 274.44 
L 1027.665372 273.070567 
L 1029.966116 271.701133 
L 1032.266861 270.3317 
L 1034.567606 268.962266 
L 1036.86835 267.592833 
L 1039.169095 266.223399 
L 1041.469839 264.853966 
L 1043.770584 263.484532 
L 1046.071329 262.115099 
L 1048.372073 260.745665 
L 1050.672818 259.376232 
L 1052.973562 258.006798 
L 1055.274307 256.637365 
L 1057.575051 255.267931 
L 1059.875796 253.898498 
L 1062.176541 252.529064 
L 1064.477285 251.159631 
L 1066.77803 249.790197 
L 1069.078774 248.420764 
L 1071.379519 247.05133 
L 1073.680264 245.681897 
L 1075.981008 244.312463 
L 1078.281753 242.94303 
L 1080.582497 241.573596 
L 1082.883242 240.204163 
L 1085.183986 238.83473 
L 1087.484731 237.465296 
L 1089.785476 236.095863 
L 1092.08622 234.726429 
L 1094.386965 233.356996 
L 1096.687709 231.987562 
L 1098.988454 230.618129 
L 1101.289198 229.248695 
L 1103.589943 227.879262 
L 1105.890688 226.509828 
L 1108.191432 225.140395 
L 1110.492177 223.770961 
L 1112.792921 222.401528 
L 1115.093666 221.032094 
L 1117.394411 219.662661 
L 1119.695155 218.293227 
L 1121.9959 216.923794 
L 1124.296644 215.55436 
L 1126.597389 214.184927 
L 1128.898133 212.815493 
L 1131.198878 211.44606 
L 1133.499623 210.076626 
L 1135.800367 208.707193 
L 1138.101112 207.337759 
L 1140.401856 205.967115 
L 1142.702601 204.582775 
L 1145.003345 203.180941 
L 1147.30409 201.760933 
L 1149.604835 200.322023 
L 1151.905579 198.863438 
L 1154.206324 197.384346 
L 1156.507068 195.883858 
L 1158.807813 194.361019 
L 1161.108558 192.814796 
L 1163.409302 191.244081 
L 1165.710047 189.64767 
L 1168.010791 188.02426 
L 1170.311536 186.372432 
L 1172.61228 184.690639 
L 1174.913025 182.97719 
L 1177.21377 181.230226 
L 1179.514514 179.447701 
L 1181.815259 177.627349 
L 1184.116003 175.766656 
L 1186.416748 173.862815 
L 1188.717493 171.912675 
L 1191.018237 169.912687 
L 1193.318982 167.85882 
L 1195.619726 165.74647 
L 1197.920471 163.570336 
L 1200.221215 161.324267 
L 1202.52196 159.001052 
L 1204.822705 156.592151 
L 1207.123449 154.087317 
L 1209.424194 151.474088 
L 1211.724938 148.73704 
L 1214.025683 145.856703 
L 1216.326427 142.807899 
L 1218.627172 139.557078 
L 1220.927917 136.057812 
L 1223.228661 132.242585 
L 1225.529406 128.006309 
L 1227.83015 123.168282 
L 1230.130895 117.363064 
L 1232.43164 110.464656 
L 1234.732384 103.517472 
L 1237.033129 96.570288 
L 1239.333873 89.623104 
L 1241.634618 82.67592 
L 1243.935362 75.728736 
L 1246.236107 68.781552 
L 1248.536852 61.834368 
L 1250.837596 54.887184 
L 1253.138341 47.94 
" clip-path="url(#p6cbeb4dfa9)" style="fill: none; stroke-dasharray: 5.55,2.4; stroke-dashoffset: 0; stroke: #ff7f0e; stroke-width: 1.5"/>
   </g>
   <g id="patch_15">
    <path d="M 967.764706 283.5 
L 967.764706 38.88 
" style="fill: none; stroke: #000000; stroke-width: 0.8; stroke-linejoin: miter; stroke-linecap: square"/>
   </g>
   <g id="patch_16">
    <path d="M 1296 283.5 
L 1296 38.88 
" style="fill: none; stroke: #000000; stroke-width: 0.8; stroke-linejoin: miter; stroke-linecap: square"/>
   </g>
   <g id="patch_17">
    <path d="M 967.764706 283.5 
L 1296 283.5 
" style="fill: none; stroke: #000000; stroke-width: 0.8; stroke-linejoin: miter; stroke-linecap: square"/>
   </g>
   <g id="patch_18">
    <path d="M 967.764706 38.88 
L 1296 38.88 
" style="fill: none; stroke: #000000; stroke-width: 0.8; stroke-linejoin: miter; stroke-linecap: square"/>
   </g>
   <g id="text_50">
    <!--  Block: 2 -->
    <g transform="translate(1106.001728 32.88)scale(0.12 -0.12)">
     <use xlink:href="#DejaVuSans-20"/>
     <use xlink:href="#DejaVuSans-42" x="31.787109"/>
     <use xlink:href="#DejaVuSans-6c" x="100.390625"/>
     <use xlink:href="#DejaVuSans-6f" x="128.173828"/>
     <use xlink:href="#DejaVuSans-63" x="189.355469"/>
     <use xlink:href="#DejaVuSans-6b" x="244.335938"/>
     <use xlink:href="#DejaVuSans-3a" x="302.246094"/>
     <use xlink:href="#DejaVuSans-20" x="335.9375"/>
     <use xlink:href="#DejaVuSans-32" x="367.724609"/>
    </g>
   </g>
   <g id="legend_3">
    <g id="patch_19">
     <path d="M 974.764706 91.1925 
L 1105.964706 91.1925 
Q 1107.964706 91.1925 1107.964706 89.1925 
L 1107.964706 45.88 
Q 1107.964706 43.88 1105.964706 43.88 
L 974.764706 43.88 
Q 972.764706 43.88 972.764706 45.88 
L 972.764706 89.1925 
Q 972.764706 91.1925 974.764706 91.1925 
z
" style="fill: #ffffff; opacity: 0.8; stroke: #cccccc; stroke-linejoin: miter"/>
    </g>
    <g id="PathCollection_6">
     <g>
      <use xlink:href="#m5cfcd25191" x="986.764706" y="52.853437" style="stroke: #000000"/>
     </g>
    </g>
    <g id="text_51">
     <!-- Data -->
     <g transform="translate(1004.764706 55.478437)scale(0.1 -0.1)">
      <use xlink:href="#DejaVuSans-44"/>
      <use xlink:href="#DejaVuSans-61" x="77.001953"/>
      <use xlink:href="#DejaVuSans-74" x="138.28125"/>
      <use xlink:href="#DejaVuSans-61" x="177.490234"/>
     </g>
    </g>
    <g id="line2d_95">
     <path d="M 976.764706 66.656562 
L 986.764706 66.656562 
L 996.764706 66.656562 
" style="fill: none; stroke: #1f77b4; stroke-width: 1.5; stroke-linecap: square"/>
    </g>
    <g id="text_52">
     <!-- Artc e:0.2527 -->
     <g transform="translate(1004.764706 70.156562)scale(0.1 -0.1)">
      <defs>
       <path id="DejaVuSans-37" d="M 525 4666 
L 3525 4666 
L 3525 4397 
L 1831 0 
L 1172 0 
L 2766 4134 
L 525 4134 
L 525 4666 
z
" transform="scale(0.015625)"/>
      </defs>
      <use xlink:href="#DejaVuSans-41"/>
      <use xlink:href="#DejaVuSans-72" x="68.408203"/>
      <use xlink:href="#DejaVuSans-74" x="109.521484"/>
      <use xlink:href="#DejaVuSans-63" x="148.730469"/>
      <use xlink:href="#DejaVuSans-20" x="203.710938"/>
      <use xlink:href="#DejaVuSans-65" x="235.498047"/>
      <use xlink:href="#DejaVuSans-3a" x="297.021484"/>
      <use xlink:href="#DejaVuSans-30" x="330.712891"/>
      <use xlink:href="#DejaVuSans-2e" x="394.335938"/>
      <use xlink:href="#DejaVuSans-32" x="426.123047"/>
      <use xlink:href="#DejaVuSans-35" x="489.746094"/>
      <use xlink:href="#DejaVuSans-32" x="553.369141"/>
      <use xlink:href="#DejaVuSans-37" x="616.992188"/>
     </g>
    </g>
    <g id="line2d_96">
     <path d="M 976.764706 81.334687 
L 986.764706 81.334687 
L 996.764706 81.334687 
" style="fill: none; stroke-dasharray: 5.55,2.4; stroke-dashoffset: 0; stroke: #ff7f0e; stroke-width: 1.5"/>
    </g>
    <g id="text_53">
     <!-- NEL_BTUX e:0.2668 -->
     <g transform="translate(1004.764706 84.834687)scale(0.1 -0.1)">
      <use xlink:href="#DejaVuSans-4e"/>
      <use xlink:href="#DejaVuSans-45" x="74.804688"/>
      <use xlink:href="#DejaVuSans-4c" x="137.988281"/>
      <use xlink:href="#DejaVuSans-5f" x="193.701172"/>
      <use xlink:href="#DejaVuSans-42" x="243.701172"/>
      <use xlink:href="#DejaVuSans-54" x="312.304688"/>
      <use xlink:href="#DejaVuSans-55" x="373.388672"/>
      <use xlink:href="#DejaVuSans-58" x="446.582031"/>
      <use xlink:href="#DejaVuSans-20" x="515.087891"/>
      <use xlink:href="#DejaVuSans-65" x="546.875"/>
      <use xlink:href="#DejaVuSans-3a" x="608.398438"/>
      <use xlink:href="#DejaVuSans-30" x="642.089844"/>
      <use xlink:href="#DejaVuSans-2e" x="705.712891"/>
      <use xlink:href="#DejaVuSans-32" x="737.5"/>
      <use xlink:href="#DejaVuSans-36" x="801.123047"/>
      <use xlink:href="#DejaVuSans-36" x="864.746094"/>
      <use xlink:href="#DejaVuSans-38" x="928.369141"/>
     </g>
    </g>
   </g>
  </g>
  <g id="text_54">
   <!-- ID: 5444, Max level: 95dB -->
   <g transform="translate(655.440625 14.078438)scale(0.1 -0.1)">
    <defs>
     <path id="DejaVuSans-49" d="M 628 4666 
L 1259 4666 
L 1259 0 
L 628 0 
L 628 4666 
z
" transform="scale(0.015625)"/>
     <path id="DejaVuSans-2c" d="M 750 794 
L 1409 794 
L 1409 256 
L 897 -744 
L 494 -744 
L 750 256 
L 750 794 
z
" transform="scale(0.015625)"/>
     <path id="DejaVuSans-4d" d="M 628 4666 
L 1569 4666 
L 2759 1491 
L 3956 4666 
L 4897 4666 
L 4897 0 
L 4281 0 
L 4281 4097 
L 3078 897 
L 2444 897 
L 1241 4097 
L 1241 0 
L 628 0 
L 628 4666 
z
" transform="scale(0.015625)"/>
     <path id="DejaVuSans-78" d="M 3513 3500 
L 2247 1797 
L 3578 0 
L 2900 0 
L 1881 1375 
L 863 0 
L 184 0 
L 1544 1831 
L 300 3500 
L 978 3500 
L 1906 2253 
L 2834 3500 
L 3513 3500 
z
" transform="scale(0.015625)"/>
     <path id="DejaVuSans-39" d="M 703 97 
L 703 672 
Q 941 559 1184 500 
Q 1428 441 1663 441 
Q 2288 441 2617 861 
Q 2947 1281 2994 2138 
Q 2813 1869 2534 1725 
Q 2256 1581 1919 1581 
Q 1219 1581 811 2004 
Q 403 2428 403 3163 
Q 403 3881 828 4315 
Q 1253 4750 1959 4750 
Q 2769 4750 3195 4129 
Q 3622 3509 3622 2328 
Q 3622 1225 3098 567 
Q 2575 -91 1691 -91 
Q 1453 -91 1209 -44 
Q 966 3 703 97 
z
M 1959 2075 
Q 2384 2075 2632 2365 
Q 2881 2656 2881 3163 
Q 2881 3666 2632 3958 
Q 2384 4250 1959 4250 
Q 1534 4250 1286 3958 
Q 1038 3666 1038 3163 
Q 1038 2656 1286 2365 
Q 1534 2075 1959 2075 
z
" transform="scale(0.015625)"/>
    </defs>
    <use xlink:href="#DejaVuSans-49"/>
    <use xlink:href="#DejaVuSans-44" x="29.492188"/>
    <use xlink:href="#DejaVuSans-3a" x="106.494141"/>
    <use xlink:href="#DejaVuSans-20" x="140.185547"/>
    <use xlink:href="#DejaVuSans-35" x="171.972656"/>
    <use xlink:href="#DejaVuSans-34" x="235.595703"/>
    <use xlink:href="#DejaVuSans-34" x="299.21875"/>
    <use xlink:href="#DejaVuSans-34" x="362.841797"/>
    <use xlink:href="#DejaVuSans-2c" x="426.464844"/>
    <use xlink:href="#DejaVuSans-20" x="458.251953"/>
    <use xlink:href="#DejaVuSans-4d" x="490.039062"/>
    <use xlink:href="#DejaVuSans-61" x="576.318359"/>
    <use xlink:href="#DejaVuSans-78" x="637.597656"/>
    <use xlink:href="#DejaVuSans-20" x="696.777344"/>
    <use xlink:href="#DejaVuSans-6c" x="728.564453"/>
    <use xlink:href="#DejaVuSans-65" x="756.347656"/>
    <use xlink:href="#DejaVuSans-76" x="817.871094"/>
    <use xlink:href="#DejaVuSans-65" x="877.050781"/>
    <use xlink:href="#DejaVuSans-6c" x="938.574219"/>
    <use xlink:href="#DejaVuSans-3a" x="966.357422"/>
    <use xlink:href="#DejaVuSans-20" x="1000.048828"/>
    <use xlink:href="#DejaVuSans-39" x="1031.835938"/>
    <use xlink:href="#DejaVuSans-35" x="1095.458984"/>
    <use xlink:href="#DejaVuSans-64" x="1159.082031"/>
    <use xlink:href="#DejaVuSans-42" x="1222.558594"/>
   </g>
  </g>
 </g>
 <defs>
  <clipPath id="pbaf3728120">
   <rect x="180" y="38.88" width="328.235294" height="244.62"/>
  </clipPath>
  <clipPath id="p5dfefd13c9">
   <rect x="573.882353" y="38.88" width="328.235294" height="244.62"/>
  </clipPath>
  <clipPath id="p6cbeb4dfa9">
   <rect x="967.764706" y="38.88" width="328.235294" height="244.62"/>
  </clipPath>
 </defs>
</svg>
