<?xml version="1.0" encoding="utf-8" standalone="no"?>
<!DOCTYPE svg PUBLIC "-//W3C//DTD SVG 1.1//EN"
  "http://www.w3.org/Graphics/SVG/1.1/DTD/svg11.dtd">
<svg xmlns:xlink="http://www.w3.org/1999/xlink" width="1440pt" height="324pt" viewBox="0 0 1440 324" xmlns="http://www.w3.org/2000/svg" version="1.1">
 <metadata>
  <rdf:RDF xmlns:dc="http://purl.org/dc/elements/1.1/" xmlns:cc="http://creativecommons.org/ns#" xmlns:rdf="http://www.w3.org/1999/02/22-rdf-syntax-ns#">
   <cc:Work>
    <dc:type rdf:resource="http://purl.org/dc/dcmitype/StillImage"/>
    <dc:date>2024-05-24T15:09:52.863467</dc:date>
    <dc:format>image/svg+xml</dc:format>
    <dc:creator>
     <cc:Agent>
      <dc:title>Matplotlib v3.5.2, https://matplotlib.org/</dc:title>
     </cc:Agent>
    </dc:creator>
   </cc:Work>
  </rdf:RDF>
 </metadata>
 <defs>
  <style type="text/css">*{stroke-linejoin: round; stroke-linecap: butt}</style>
 </defs>
 <g id="figure_1">
  <g id="patch_1">
   <path d="M 0 324 
L 1440 324 
L 1440 0 
L 0 0 
L 0 324 
z
" style="fill: none"/>
  </g>
  <g id="axes_1">
   <g id="patch_2">
    <path d="M 180 283.5 
L 508.235294 283.5 
L 508.235294 38.88 
L 180 38.88 
z
" style="fill: #ffffff"/>
   </g>
   <g id="PathCollection_1">
    <defs>
     <path id="md5e9321df9" d="M 0 3 
C 0.795609 3 1.55874 2.683901 2.12132 2.12132 
C 2.683901 1.55874 3 0.795609 3 0 
C 3 -0.795609 2.683901 -1.55874 2.12132 -2.12132 
C 1.55874 -2.683901 0.795609 -3 0 -3 
C -0.795609 -3 -1.55874 -2.683901 -2.12132 -2.12132 
C -2.683901 -1.55874 -3 -0.795609 -3 0 
C -3 0.795609 -2.683901 1.55874 -2.12132 2.12132 
C -1.55874 2.683901 -0.795609 3 0 3 
z
" style="stroke: #000000"/>
    </defs>
    <g clip-path="url(#pc61b03d46b)">
     <use xlink:href="#md5e9321df9" x="390.024681" y="138.54" style="stroke: #000000"/>
     <use xlink:href="#md5e9321df9" x="412.978198" y="93.24" style="stroke: #000000"/>
     <use xlink:href="#md5e9321df9" x="355.594406" y="183.84" style="stroke: #000000"/>
     <use xlink:href="#md5e9321df9" x="321.16413" y="229.14" style="stroke: #000000"/>
     <use xlink:href="#md5e9321df9" x="286.733854" y="251.79" style="stroke: #000000"/>
     <use xlink:href="#md5e9321df9" x="252.303579" y="274.44" style="stroke: #000000"/>
     <use xlink:href="#md5e9321df9" x="263.780337" y="274.44" style="stroke: #000000"/>
     <use xlink:href="#md5e9321df9" x="275.257096" y="229.14" style="stroke: #000000"/>
     <use xlink:href="#md5e9321df9" x="252.303579" y="251.79" style="stroke: #000000"/>
     <use xlink:href="#md5e9321df9" x="332.640889" y="183.84" style="stroke: #000000"/>
     <use xlink:href="#md5e9321df9" x="292.472234" y="229.14" style="stroke: #000000"/>
     <use xlink:href="#md5e9321df9" x="372.809543" y="183.84" style="stroke: #000000"/>
     <use xlink:href="#md5e9321df9" x="412.978198" y="47.94" style="stroke: #000000"/>
     <use xlink:href="#md5e9321df9" x="263.950423" y="274.44" style="stroke: #000000"/>
     <use xlink:href="#md5e9321df9" x="338.464425" y="183.84" style="stroke: #000000"/>
     <use xlink:href="#md5e9321df9" x="412.978198" y="47.94" style="stroke: #000000"/>
     <use xlink:href="#md5e9321df9" x="301.207424" y="229.14" style="stroke: #000000"/>
     <use xlink:href="#md5e9321df9" x="375.721197" y="183.84" style="stroke: #000000"/>
    </g>
   </g>
   <g id="matplotlib.axis_1">
    <g id="xtick_1">
     <g id="line2d_1">
      <path d="M 217.873303 283.5 
L 217.873303 38.88 
" clip-path="url(#pc61b03d46b)" style="fill: none; stroke: #b0b0b0; stroke-width: 0.8; stroke-linecap: square"/>
     </g>
     <g id="line2d_2">
      <defs>
       <path id="m533abae7d2" d="M 0 0 
L 0 3.5 
" style="stroke: #000000; stroke-width: 0.8"/>
      </defs>
      <g>
       <use xlink:href="#m533abae7d2" x="217.873303" y="283.5" style="stroke: #000000; stroke-width: 0.8"/>
      </g>
     </g>
     <g id="text_1">
      <!-- 0 -->
      <g transform="translate(214.692053 298.098437)scale(0.1 -0.1)">
       <defs>
        <path id="DejaVuSans-30" d="M 2034 4250 
Q 1547 4250 1301 3770 
Q 1056 3291 1056 2328 
Q 1056 1369 1301 889 
Q 1547 409 2034 409 
Q 2525 409 2770 889 
Q 3016 1369 3016 2328 
Q 3016 3291 2770 3770 
Q 2525 4250 2034 4250 
z
M 2034 4750 
Q 2819 4750 3233 4129 
Q 3647 3509 3647 2328 
Q 3647 1150 3233 529 
Q 2819 -91 2034 -91 
Q 1250 -91 836 529 
Q 422 1150 422 2328 
Q 422 3509 836 4129 
Q 1250 4750 2034 4750 
z
" transform="scale(0.015625)"/>
       </defs>
       <use xlink:href="#DejaVuSans-30"/>
      </g>
     </g>
    </g>
    <g id="xtick_2">
     <g id="line2d_3">
      <path d="M 263.780337 283.5 
L 263.780337 38.88 
" clip-path="url(#pc61b03d46b)" style="fill: none; stroke: #b0b0b0; stroke-width: 0.8; stroke-linecap: square"/>
     </g>
     <g id="line2d_4">
      <g>
       <use xlink:href="#m533abae7d2" x="263.780337" y="283.5" style="stroke: #000000; stroke-width: 0.8"/>
      </g>
     </g>
     <g id="text_2">
      <!-- 20 -->
      <g transform="translate(257.417837 298.098437)scale(0.1 -0.1)">
       <defs>
        <path id="DejaVuSans-32" d="M 1228 531 
L 3431 531 
L 3431 0 
L 469 0 
L 469 531 
Q 828 903 1448 1529 
Q 2069 2156 2228 2338 
Q 2531 2678 2651 2914 
Q 2772 3150 2772 3378 
Q 2772 3750 2511 3984 
Q 2250 4219 1831 4219 
Q 1534 4219 1204 4116 
Q 875 4013 500 3803 
L 500 4441 
Q 881 4594 1212 4672 
Q 1544 4750 1819 4750 
Q 2544 4750 2975 4387 
Q 3406 4025 3406 3419 
Q 3406 3131 3298 2873 
Q 3191 2616 2906 2266 
Q 2828 2175 2409 1742 
Q 1991 1309 1228 531 
z
" transform="scale(0.015625)"/>
       </defs>
       <use xlink:href="#DejaVuSans-32"/>
       <use xlink:href="#DejaVuSans-30" x="63.623047"/>
      </g>
     </g>
    </g>
    <g id="xtick_3">
     <g id="line2d_5">
      <path d="M 309.687371 283.5 
L 309.687371 38.88 
" clip-path="url(#pc61b03d46b)" style="fill: none; stroke: #b0b0b0; stroke-width: 0.8; stroke-linecap: square"/>
     </g>
     <g id="line2d_6">
      <g>
       <use xlink:href="#m533abae7d2" x="309.687371" y="283.5" style="stroke: #000000; stroke-width: 0.8"/>
      </g>
     </g>
     <g id="text_3">
      <!-- 40 -->
      <g transform="translate(303.324871 298.098437)scale(0.1 -0.1)">
       <defs>
        <path id="DejaVuSans-34" d="M 2419 4116 
L 825 1625 
L 2419 1625 
L 2419 4116 
z
M 2253 4666 
L 3047 4666 
L 3047 1625 
L 3713 1625 
L 3713 1100 
L 3047 1100 
L 3047 0 
L 2419 0 
L 2419 1100 
L 313 1100 
L 313 1709 
L 2253 4666 
z
" transform="scale(0.015625)"/>
       </defs>
       <use xlink:href="#DejaVuSans-34"/>
       <use xlink:href="#DejaVuSans-30" x="63.623047"/>
      </g>
     </g>
    </g>
    <g id="xtick_4">
     <g id="line2d_7">
      <path d="M 355.594406 283.5 
L 355.594406 38.88 
" clip-path="url(#pc61b03d46b)" style="fill: none; stroke: #b0b0b0; stroke-width: 0.8; stroke-linecap: square"/>
     </g>
     <g id="line2d_8">
      <g>
       <use xlink:href="#m533abae7d2" x="355.594406" y="283.5" style="stroke: #000000; stroke-width: 0.8"/>
      </g>
     </g>
     <g id="text_4">
      <!-- 60 -->
      <g transform="translate(349.231906 298.098437)scale(0.1 -0.1)">
       <defs>
        <path id="DejaVuSans-36" d="M 2113 2584 
Q 1688 2584 1439 2293 
Q 1191 2003 1191 1497 
Q 1191 994 1439 701 
Q 1688 409 2113 409 
Q 2538 409 2786 701 
Q 3034 994 3034 1497 
Q 3034 2003 2786 2293 
Q 2538 2584 2113 2584 
z
M 3366 4563 
L 3366 3988 
Q 3128 4100 2886 4159 
Q 2644 4219 2406 4219 
Q 1781 4219 1451 3797 
Q 1122 3375 1075 2522 
Q 1259 2794 1537 2939 
Q 1816 3084 2150 3084 
Q 2853 3084 3261 2657 
Q 3669 2231 3669 1497 
Q 3669 778 3244 343 
Q 2819 -91 2113 -91 
Q 1303 -91 875 529 
Q 447 1150 447 2328 
Q 447 3434 972 4092 
Q 1497 4750 2381 4750 
Q 2619 4750 2861 4703 
Q 3103 4656 3366 4563 
z
" transform="scale(0.015625)"/>
       </defs>
       <use xlink:href="#DejaVuSans-36"/>
       <use xlink:href="#DejaVuSans-30" x="63.623047"/>
      </g>
     </g>
    </g>
    <g id="xtick_5">
     <g id="line2d_9">
      <path d="M 401.50144 283.5 
L 401.50144 38.88 
" clip-path="url(#pc61b03d46b)" style="fill: none; stroke: #b0b0b0; stroke-width: 0.8; stroke-linecap: square"/>
     </g>
     <g id="line2d_10">
      <g>
       <use xlink:href="#m533abae7d2" x="401.50144" y="283.5" style="stroke: #000000; stroke-width: 0.8"/>
      </g>
     </g>
     <g id="text_5">
      <!-- 80 -->
      <g transform="translate(395.13894 298.098437)scale(0.1 -0.1)">
       <defs>
        <path id="DejaVuSans-38" d="M 2034 2216 
Q 1584 2216 1326 1975 
Q 1069 1734 1069 1313 
Q 1069 891 1326 650 
Q 1584 409 2034 409 
Q 2484 409 2743 651 
Q 3003 894 3003 1313 
Q 3003 1734 2745 1975 
Q 2488 2216 2034 2216 
z
M 1403 2484 
Q 997 2584 770 2862 
Q 544 3141 544 3541 
Q 544 4100 942 4425 
Q 1341 4750 2034 4750 
Q 2731 4750 3128 4425 
Q 3525 4100 3525 3541 
Q 3525 3141 3298 2862 
Q 3072 2584 2669 2484 
Q 3125 2378 3379 2068 
Q 3634 1759 3634 1313 
Q 3634 634 3220 271 
Q 2806 -91 2034 -91 
Q 1263 -91 848 271 
Q 434 634 434 1313 
Q 434 1759 690 2068 
Q 947 2378 1403 2484 
z
M 1172 3481 
Q 1172 3119 1398 2916 
Q 1625 2713 2034 2713 
Q 2441 2713 2670 2916 
Q 2900 3119 2900 3481 
Q 2900 3844 2670 4047 
Q 2441 4250 2034 4250 
Q 1625 4250 1398 4047 
Q 1172 3844 1172 3481 
z
" transform="scale(0.015625)"/>
       </defs>
       <use xlink:href="#DejaVuSans-38"/>
       <use xlink:href="#DejaVuSans-30" x="63.623047"/>
      </g>
     </g>
    </g>
    <g id="xtick_6">
     <g id="line2d_11">
      <path d="M 447.408474 283.5 
L 447.408474 38.88 
" clip-path="url(#pc61b03d46b)" style="fill: none; stroke: #b0b0b0; stroke-width: 0.8; stroke-linecap: square"/>
     </g>
     <g id="line2d_12">
      <g>
       <use xlink:href="#m533abae7d2" x="447.408474" y="283.5" style="stroke: #000000; stroke-width: 0.8"/>
      </g>
     </g>
     <g id="text_6">
      <!-- 100 -->
      <g transform="translate(437.864724 298.098437)scale(0.1 -0.1)">
       <defs>
        <path id="DejaVuSans-31" d="M 794 531 
L 1825 531 
L 1825 4091 
L 703 3866 
L 703 4441 
L 1819 4666 
L 2450 4666 
L 2450 531 
L 3481 531 
L 3481 0 
L 794 0 
L 794 531 
z
" transform="scale(0.015625)"/>
       </defs>
       <use xlink:href="#DejaVuSans-31"/>
       <use xlink:href="#DejaVuSans-30" x="63.623047"/>
       <use xlink:href="#DejaVuSans-30" x="127.246094"/>
      </g>
     </g>
    </g>
    <g id="xtick_7">
     <g id="line2d_13">
      <path d="M 493.315508 283.5 
L 493.315508 38.88 
" clip-path="url(#pc61b03d46b)" style="fill: none; stroke: #b0b0b0; stroke-width: 0.8; stroke-linecap: square"/>
     </g>
     <g id="line2d_14">
      <g>
       <use xlink:href="#m533abae7d2" x="493.315508" y="283.5" style="stroke: #000000; stroke-width: 0.8"/>
      </g>
     </g>
     <g id="text_7">
      <!-- 120 -->
      <g transform="translate(483.771758 298.098437)scale(0.1 -0.1)">
       <use xlink:href="#DejaVuSans-31"/>
       <use xlink:href="#DejaVuSans-32" x="63.623047"/>
       <use xlink:href="#DejaVuSans-30" x="127.246094"/>
      </g>
     </g>
    </g>
   </g>
   <g id="matplotlib.axis_2">
    <g id="ytick_1">
     <g id="line2d_15">
      <path d="M 180 274.44 
L 508.235294 274.44 
" clip-path="url(#pc61b03d46b)" style="fill: none; stroke: #b0b0b0; stroke-width: 0.8; stroke-linecap: square"/>
     </g>
     <g id="line2d_16">
      <defs>
       <path id="mad7ab28cb2" d="M 0 0 
L -3.5 0 
" style="stroke: #000000; stroke-width: 0.8"/>
      </defs>
      <g>
       <use xlink:href="#mad7ab28cb2" x="180" y="274.44" style="stroke: #000000; stroke-width: 0.8"/>
      </g>
     </g>
     <g id="text_8">
      <!-- 0 -->
      <g transform="translate(166.6375 278.239219)scale(0.1 -0.1)">
       <use xlink:href="#DejaVuSans-30"/>
      </g>
     </g>
    </g>
    <g id="ytick_2">
     <g id="line2d_17">
      <path d="M 180 229.14 
L 508.235294 229.14 
" clip-path="url(#pc61b03d46b)" style="fill: none; stroke: #b0b0b0; stroke-width: 0.8; stroke-linecap: square"/>
     </g>
     <g id="line2d_18">
      <g>
       <use xlink:href="#mad7ab28cb2" x="180" y="229.14" style="stroke: #000000; stroke-width: 0.8"/>
      </g>
     </g>
     <g id="text_9">
      <!-- 10 -->
      <g transform="translate(160.275 232.939219)scale(0.1 -0.1)">
       <use xlink:href="#DejaVuSans-31"/>
       <use xlink:href="#DejaVuSans-30" x="63.623047"/>
      </g>
     </g>
    </g>
    <g id="ytick_3">
     <g id="line2d_19">
      <path d="M 180 183.84 
L 508.235294 183.84 
" clip-path="url(#pc61b03d46b)" style="fill: none; stroke: #b0b0b0; stroke-width: 0.8; stroke-linecap: square"/>
     </g>
     <g id="line2d_20">
      <g>
       <use xlink:href="#mad7ab28cb2" x="180" y="183.84" style="stroke: #000000; stroke-width: 0.8"/>
      </g>
     </g>
     <g id="text_10">
      <!-- 20 -->
      <g transform="translate(160.275 187.639219)scale(0.1 -0.1)">
       <use xlink:href="#DejaVuSans-32"/>
       <use xlink:href="#DejaVuSans-30" x="63.623047"/>
      </g>
     </g>
    </g>
    <g id="ytick_4">
     <g id="line2d_21">
      <path d="M 180 138.54 
L 508.235294 138.54 
" clip-path="url(#pc61b03d46b)" style="fill: none; stroke: #b0b0b0; stroke-width: 0.8; stroke-linecap: square"/>
     </g>
     <g id="line2d_22">
      <g>
       <use xlink:href="#mad7ab28cb2" x="180" y="138.54" style="stroke: #000000; stroke-width: 0.8"/>
      </g>
     </g>
     <g id="text_11">
      <!-- 30 -->
      <g transform="translate(160.275 142.339219)scale(0.1 -0.1)">
       <defs>
        <path id="DejaVuSans-33" d="M 2597 2516 
Q 3050 2419 3304 2112 
Q 3559 1806 3559 1356 
Q 3559 666 3084 287 
Q 2609 -91 1734 -91 
Q 1441 -91 1130 -33 
Q 819 25 488 141 
L 488 750 
Q 750 597 1062 519 
Q 1375 441 1716 441 
Q 2309 441 2620 675 
Q 2931 909 2931 1356 
Q 2931 1769 2642 2001 
Q 2353 2234 1838 2234 
L 1294 2234 
L 1294 2753 
L 1863 2753 
Q 2328 2753 2575 2939 
Q 2822 3125 2822 3475 
Q 2822 3834 2567 4026 
Q 2313 4219 1838 4219 
Q 1578 4219 1281 4162 
Q 984 4106 628 3988 
L 628 4550 
Q 988 4650 1302 4700 
Q 1616 4750 1894 4750 
Q 2613 4750 3031 4423 
Q 3450 4097 3450 3541 
Q 3450 3153 3228 2886 
Q 3006 2619 2597 2516 
z
" transform="scale(0.015625)"/>
       </defs>
       <use xlink:href="#DejaVuSans-33"/>
       <use xlink:href="#DejaVuSans-30" x="63.623047"/>
      </g>
     </g>
    </g>
    <g id="ytick_5">
     <g id="line2d_23">
      <path d="M 180 93.24 
L 508.235294 93.24 
" clip-path="url(#pc61b03d46b)" style="fill: none; stroke: #b0b0b0; stroke-width: 0.8; stroke-linecap: square"/>
     </g>
     <g id="line2d_24">
      <g>
       <use xlink:href="#mad7ab28cb2" x="180" y="93.24" style="stroke: #000000; stroke-width: 0.8"/>
      </g>
     </g>
     <g id="text_12">
      <!-- 40 -->
      <g transform="translate(160.275 97.039219)scale(0.1 -0.1)">
       <use xlink:href="#DejaVuSans-34"/>
       <use xlink:href="#DejaVuSans-30" x="63.623047"/>
      </g>
     </g>
    </g>
    <g id="ytick_6">
     <g id="line2d_25">
      <path d="M 180 47.94 
L 508.235294 47.94 
" clip-path="url(#pc61b03d46b)" style="fill: none; stroke: #b0b0b0; stroke-width: 0.8; stroke-linecap: square"/>
     </g>
     <g id="line2d_26">
      <g>
       <use xlink:href="#mad7ab28cb2" x="180" y="47.94" style="stroke: #000000; stroke-width: 0.8"/>
      </g>
     </g>
     <g id="text_13">
      <!-- 50 -->
      <g transform="translate(160.275 51.739219)scale(0.1 -0.1)">
       <defs>
        <path id="DejaVuSans-35" d="M 691 4666 
L 3169 4666 
L 3169 4134 
L 1269 4134 
L 1269 2991 
Q 1406 3038 1543 3061 
Q 1681 3084 1819 3084 
Q 2600 3084 3056 2656 
Q 3513 2228 3513 1497 
Q 3513 744 3044 326 
Q 2575 -91 1722 -91 
Q 1428 -91 1123 -41 
Q 819 9 494 109 
L 494 744 
Q 775 591 1075 516 
Q 1375 441 1709 441 
Q 2250 441 2565 725 
Q 2881 1009 2881 1497 
Q 2881 1984 2565 2268 
Q 2250 2553 1709 2553 
Q 1456 2553 1204 2497 
Q 953 2441 691 2322 
L 691 4666 
z
" transform="scale(0.015625)"/>
       </defs>
       <use xlink:href="#DejaVuSans-35"/>
       <use xlink:href="#DejaVuSans-30" x="63.623047"/>
      </g>
     </g>
    </g>
   </g>
   <g id="line2d_27">
    <path d="M 194.919786 161.19 
L 493.315508 161.19 
" clip-path="url(#pc61b03d46b)" style="fill: none; stroke-dasharray: 1.5,2.475; stroke-dashoffset: 0; stroke: #808080; stroke-width: 1.5"/>
   </g>
   <g id="line2d_28">
    <path d="M 412.978198 319.74 
L 412.978198 -1 
" clip-path="url(#pc61b03d46b)" style="fill: none; stroke-dasharray: 5.55,2.4; stroke-dashoffset: 0; stroke: #ff0000; stroke-opacity: 0.3; stroke-width: 1.5"/>
   </g>
   <g id="line2d_29">
    <path d="M 250.593256 274.44 
L 252.581288 272.571854 
L 254.569321 270.703709 
L 256.557353 268.835563 
L 258.545386 266.967417 
L 260.533418 265.099272 
L 262.52145 263.231126 
L 264.509483 261.36298 
L 266.497515 259.494835 
L 268.485548 257.626689 
L 270.47358 255.758543 
L 272.461612 253.890398 
L 274.449645 252.022252 
L 276.437677 250.154106 
L 278.42571 248.285961 
L 280.413742 246.417815 
L 282.401774 244.549669 
L 284.389807 242.681524 
L 286.377839 240.813378 
L 288.365872 238.945232 
L 290.353904 237.077087 
L 292.341936 235.208941 
L 294.329969 233.340795 
L 296.318001 231.47265 
L 298.306034 229.604504 
L 300.294066 227.736358 
L 302.282098 225.868213 
L 304.270131 224.000067 
L 306.258163 222.131921 
L 308.246196 220.263776 
L 310.234228 218.39563 
L 312.22226 216.527485 
L 314.210293 214.659339 
L 316.198325 212.791193 
L 318.186358 210.923048 
L 320.17439 209.054902 
L 322.162422 207.186756 
L 324.150455 205.315819 
L 326.138487 203.431523 
L 328.12652 201.532554 
L 330.114552 199.618563 
L 332.102584 197.689188 
L 334.090617 195.744052 
L 336.078649 193.782762 
L 338.066681 191.804909 
L 340.054714 189.810066 
L 342.042746 187.797788 
L 344.030779 185.76761 
L 346.018811 183.719044 
L 348.006843 181.651582 
L 349.994876 179.564692 
L 351.982908 177.457815 
L 353.970941 175.330366 
L 355.958973 173.181729 
L 357.947005 171.01126 
L 359.935038 168.818278 
L 361.92307 166.602069 
L 363.911103 164.361878 
L 365.899135 162.096909 
L 367.887167 159.806322 
L 369.8752 157.489227 
L 371.863232 155.144683 
L 373.851265 152.771688 
L 375.839297 150.369183 
L 377.827329 147.936038 
L 379.815362 145.47105 
L 381.803394 142.972935 
L 383.791427 140.440321 
L 385.779459 137.871736 
L 387.767491 135.265605 
L 389.755524 132.62023 
L 391.743556 129.933783 
L 393.731589 127.20429 
L 395.719621 124.429613 
L 397.707653 121.60743 
L 399.695686 118.735215 
L 401.683718 115.810228 
L 403.671751 112.859349 
L 405.659783 109.908469 
L 407.647815 106.95759 
L 409.635848 104.00671 
L 411.62388 101.055831 
L 413.611913 98.104951 
L 415.599945 95.154072 
L 417.587977 92.203192 
L 419.57601 89.252313 
L 421.564042 86.301433 
L 423.552075 83.350554 
L 425.540107 80.399674 
L 427.528139 77.448795 
L 429.516172 74.497915 
L 431.504204 71.547036 
L 433.492237 68.596156 
L 435.480269 65.645277 
L 437.468301 62.694397 
L 439.456334 59.743518 
L 441.444366 56.792638 
L 443.432399 53.841759 
L 445.420431 50.890879 
L 447.408463 47.94 
" clip-path="url(#pc61b03d46b)" style="fill: none; stroke: #1f77b4; stroke-width: 1.5; stroke-linecap: square"/>
   </g>
   <g id="line2d_30">
    <path d="M 257.339915 274.44 
L 258.994995 272.956486 
L 260.650075 271.472972 
L 262.305155 269.989458 
L 263.960235 268.505944 
L 265.615316 267.02243 
L 267.270396 265.538916 
L 268.925476 264.055402 
L 270.580556 262.571888 
L 272.235636 261.088374 
L 273.890717 259.60486 
L 275.545797 258.121346 
L 277.200877 256.637832 
L 278.855957 255.154318 
L 280.511037 253.670804 
L 282.166118 252.18729 
L 283.821198 250.703776 
L 285.476278 249.220262 
L 287.131358 247.736748 
L 288.786438 246.253234 
L 290.441519 244.76972 
L 292.096599 243.286205 
L 293.751679 241.802691 
L 295.406759 240.319177 
L 297.061839 238.835663 
L 298.71692 237.352149 
L 300.372 235.868635 
L 302.02708 234.385121 
L 303.68216 232.901607 
L 305.33724 231.418093 
L 306.99232 229.934579 
L 308.647401 228.451065 
L 310.302481 226.967551 
L 311.957561 225.484037 
L 313.612641 224.000523 
L 315.267721 222.517009 
L 316.922802 221.033495 
L 318.577882 219.549981 
L 320.232962 218.066467 
L 321.888042 216.582953 
L 323.543122 215.099439 
L 325.198203 213.615925 
L 326.853283 212.132411 
L 328.508363 210.648897 
L 330.163443 209.165383 
L 331.818523 207.681869 
L 333.473604 206.198024 
L 335.128684 204.702441 
L 336.783764 203.189043 
L 338.438844 201.657178 
L 340.093924 200.106153 
L 341.749005 198.535231 
L 343.404085 196.943625 
L 345.059165 195.330496 
L 346.714245 193.694947 
L 348.369325 192.036016 
L 350.024406 190.352671 
L 351.679486 188.643801 
L 353.334566 186.908208 
L 354.989646 185.144598 
L 356.644726 183.35157 
L 358.299807 181.527599 
L 359.954887 179.671026 
L 361.609967 177.780037 
L 363.265047 175.852646 
L 364.920127 173.886665 
L 366.575208 171.879679 
L 368.230288 169.829009 
L 369.885368 167.731673 
L 371.540448 165.584332 
L 373.195528 163.383229 
L 374.850609 161.124111 
L 376.505689 158.802135 
L 378.160769 156.411741 
L 379.815849 153.946501 
L 381.470929 151.398908 
L 383.12601 148.760115 
L 384.78109 146.019562 
L 386.43617 143.164483 
L 388.09125 140.179193 
L 389.74633 137.044066 
L 391.401411 133.733981 
L 393.056491 130.215903 
L 394.711571 126.444872 
L 396.366651 122.356935 
L 398.021731 117.855564 
L 399.676812 112.908492 
L 401.331892 107.910916 
L 402.986972 102.91334 
L 404.642052 97.915763 
L 406.297132 92.918187 
L 407.952213 87.920611 
L 409.607293 82.923034 
L 411.262373 77.925458 
L 412.917453 72.927882 
L 414.572533 67.930305 
L 416.227614 62.932729 
L 417.882694 57.935153 
L 419.537774 52.937576 
L 421.192854 47.94 
" clip-path="url(#pc61b03d46b)" style="fill: none; stroke-dasharray: 5.55,2.4; stroke-dashoffset: 0; stroke: #ff7f0e; stroke-width: 1.5"/>
   </g>
   <g id="patch_3">
    <path d="M 180 283.5 
L 180 38.88 
" style="fill: none; stroke: #000000; stroke-width: 0.8; stroke-linejoin: miter; stroke-linecap: square"/>
   </g>
   <g id="patch_4">
    <path d="M 508.235294 283.5 
L 508.235294 38.88 
" style="fill: none; stroke: #000000; stroke-width: 0.8; stroke-linejoin: miter; stroke-linecap: square"/>
   </g>
   <g id="patch_5">
    <path d="M 180 283.5 
L 508.235294 283.5 
" style="fill: none; stroke: #000000; stroke-width: 0.8; stroke-linejoin: miter; stroke-linecap: square"/>
   </g>
   <g id="patch_6">
    <path d="M 180 38.88 
L 508.235294 38.88 
" style="fill: none; stroke: #000000; stroke-width: 0.8; stroke-linejoin: miter; stroke-linecap: square"/>
   </g>
   <g id="text_14">
    <!--  Block: 0 -->
    <g transform="translate(318.237022 32.88)scale(0.12 -0.12)">
     <defs>
      <path id="DejaVuSans-20" transform="scale(0.015625)"/>
      <path id="DejaVuSans-42" d="M 1259 2228 
L 1259 519 
L 2272 519 
Q 2781 519 3026 730 
Q 3272 941 3272 1375 
Q 3272 1813 3026 2020 
Q 2781 2228 2272 2228 
L 1259 2228 
z
M 1259 4147 
L 1259 2741 
L 2194 2741 
Q 2656 2741 2882 2914 
Q 3109 3088 3109 3444 
Q 3109 3797 2882 3972 
Q 2656 4147 2194 4147 
L 1259 4147 
z
M 628 4666 
L 2241 4666 
Q 2963 4666 3353 4366 
Q 3744 4066 3744 3513 
Q 3744 3084 3544 2831 
Q 3344 2578 2956 2516 
Q 3422 2416 3680 2098 
Q 3938 1781 3938 1306 
Q 3938 681 3513 340 
Q 3088 0 2303 0 
L 628 0 
L 628 4666 
z
" transform="scale(0.015625)"/>
      <path id="DejaVuSans-6c" d="M 603 4863 
L 1178 4863 
L 1178 0 
L 603 0 
L 603 4863 
z
" transform="scale(0.015625)"/>
      <path id="DejaVuSans-6f" d="M 1959 3097 
Q 1497 3097 1228 2736 
Q 959 2375 959 1747 
Q 959 1119 1226 758 
Q 1494 397 1959 397 
Q 2419 397 2687 759 
Q 2956 1122 2956 1747 
Q 2956 2369 2687 2733 
Q 2419 3097 1959 3097 
z
M 1959 3584 
Q 2709 3584 3137 3096 
Q 3566 2609 3566 1747 
Q 3566 888 3137 398 
Q 2709 -91 1959 -91 
Q 1206 -91 779 398 
Q 353 888 353 1747 
Q 353 2609 779 3096 
Q 1206 3584 1959 3584 
z
" transform="scale(0.015625)"/>
      <path id="DejaVuSans-63" d="M 3122 3366 
L 3122 2828 
Q 2878 2963 2633 3030 
Q 2388 3097 2138 3097 
Q 1578 3097 1268 2742 
Q 959 2388 959 1747 
Q 959 1106 1268 751 
Q 1578 397 2138 397 
Q 2388 397 2633 464 
Q 2878 531 3122 666 
L 3122 134 
Q 2881 22 2623 -34 
Q 2366 -91 2075 -91 
Q 1284 -91 818 406 
Q 353 903 353 1747 
Q 353 2603 823 3093 
Q 1294 3584 2113 3584 
Q 2378 3584 2631 3529 
Q 2884 3475 3122 3366 
z
" transform="scale(0.015625)"/>
      <path id="DejaVuSans-6b" d="M 581 4863 
L 1159 4863 
L 1159 1991 
L 2875 3500 
L 3609 3500 
L 1753 1863 
L 3688 0 
L 2938 0 
L 1159 1709 
L 1159 0 
L 581 0 
L 581 4863 
z
" transform="scale(0.015625)"/>
      <path id="DejaVuSans-3a" d="M 750 794 
L 1409 794 
L 1409 0 
L 750 0 
L 750 794 
z
M 750 3309 
L 1409 3309 
L 1409 2516 
L 750 2516 
L 750 3309 
z
" transform="scale(0.015625)"/>
     </defs>
     <use xlink:href="#DejaVuSans-20"/>
     <use xlink:href="#DejaVuSans-42" x="31.787109"/>
     <use xlink:href="#DejaVuSans-6c" x="100.390625"/>
     <use xlink:href="#DejaVuSans-6f" x="128.173828"/>
     <use xlink:href="#DejaVuSans-63" x="189.355469"/>
     <use xlink:href="#DejaVuSans-6b" x="244.335938"/>
     <use xlink:href="#DejaVuSans-3a" x="302.246094"/>
     <use xlink:href="#DejaVuSans-20" x="335.9375"/>
     <use xlink:href="#DejaVuSans-30" x="367.724609"/>
    </g>
   </g>
   <g id="legend_1">
    <g id="patch_7">
     <path d="M 187 91.1925 
L 318.2 91.1925 
Q 320.2 91.1925 320.2 89.1925 
L 320.2 45.88 
Q 320.2 43.88 318.2 43.88 
L 187 43.88 
Q 185 43.88 185 45.88 
L 185 89.1925 
Q 185 91.1925 187 91.1925 
z
" style="fill: #ffffff; opacity: 0.8; stroke: #cccccc; stroke-linejoin: miter"/>
    </g>
    <g id="PathCollection_2">
     <g>
      <use xlink:href="#md5e9321df9" x="199" y="52.853437" style="stroke: #000000"/>
     </g>
    </g>
    <g id="text_15">
     <!-- Data -->
     <g transform="translate(217 55.478437)scale(0.1 -0.1)">
      <defs>
       <path id="DejaVuSans-44" d="M 1259 4147 
L 1259 519 
L 2022 519 
Q 2988 519 3436 956 
Q 3884 1394 3884 2338 
Q 3884 3275 3436 3711 
Q 2988 4147 2022 4147 
L 1259 4147 
z
M 628 4666 
L 1925 4666 
Q 3281 4666 3915 4102 
Q 4550 3538 4550 2338 
Q 4550 1131 3912 565 
Q 3275 0 1925 0 
L 628 0 
L 628 4666 
z
" transform="scale(0.015625)"/>
       <path id="DejaVuSans-61" d="M 2194 1759 
Q 1497 1759 1228 1600 
Q 959 1441 959 1056 
Q 959 750 1161 570 
Q 1363 391 1709 391 
Q 2188 391 2477 730 
Q 2766 1069 2766 1631 
L 2766 1759 
L 2194 1759 
z
M 3341 1997 
L 3341 0 
L 2766 0 
L 2766 531 
Q 2569 213 2275 61 
Q 1981 -91 1556 -91 
Q 1019 -91 701 211 
Q 384 513 384 1019 
Q 384 1609 779 1909 
Q 1175 2209 1959 2209 
L 2766 2209 
L 2766 2266 
Q 2766 2663 2505 2880 
Q 2244 3097 1772 3097 
Q 1472 3097 1187 3025 
Q 903 2953 641 2809 
L 641 3341 
Q 956 3463 1253 3523 
Q 1550 3584 1831 3584 
Q 2591 3584 2966 3190 
Q 3341 2797 3341 1997 
z
" transform="scale(0.015625)"/>
       <path id="DejaVuSans-74" d="M 1172 4494 
L 1172 3500 
L 2356 3500 
L 2356 3053 
L 1172 3053 
L 1172 1153 
Q 1172 725 1289 603 
Q 1406 481 1766 481 
L 2356 481 
L 2356 0 
L 1766 0 
Q 1100 0 847 248 
Q 594 497 594 1153 
L 594 3053 
L 172 3053 
L 172 3500 
L 594 3500 
L 594 4494 
L 1172 4494 
z
" transform="scale(0.015625)"/>
      </defs>
      <use xlink:href="#DejaVuSans-44"/>
      <use xlink:href="#DejaVuSans-61" x="77.001953"/>
      <use xlink:href="#DejaVuSans-74" x="138.28125"/>
      <use xlink:href="#DejaVuSans-61" x="177.490234"/>
     </g>
    </g>
    <g id="line2d_31">
     <path d="M 189 66.656562 
L 199 66.656562 
L 209 66.656562 
" style="fill: none; stroke: #1f77b4; stroke-width: 1.5; stroke-linecap: square"/>
    </g>
    <g id="text_16">
     <!-- Artc e:0.2816 -->
     <g transform="translate(217 70.156562)scale(0.1 -0.1)">
      <defs>
       <path id="DejaVuSans-41" d="M 2188 4044 
L 1331 1722 
L 3047 1722 
L 2188 4044 
z
M 1831 4666 
L 2547 4666 
L 4325 0 
L 3669 0 
L 3244 1197 
L 1141 1197 
L 716 0 
L 50 0 
L 1831 4666 
z
" transform="scale(0.015625)"/>
       <path id="DejaVuSans-72" d="M 2631 2963 
Q 2534 3019 2420 3045 
Q 2306 3072 2169 3072 
Q 1681 3072 1420 2755 
Q 1159 2438 1159 1844 
L 1159 0 
L 581 0 
L 581 3500 
L 1159 3500 
L 1159 2956 
Q 1341 3275 1631 3429 
Q 1922 3584 2338 3584 
Q 2397 3584 2469 3576 
Q 2541 3569 2628 3553 
L 2631 2963 
z
" transform="scale(0.015625)"/>
       <path id="DejaVuSans-65" d="M 3597 1894 
L 3597 1613 
L 953 1613 
Q 991 1019 1311 708 
Q 1631 397 2203 397 
Q 2534 397 2845 478 
Q 3156 559 3463 722 
L 3463 178 
Q 3153 47 2828 -22 
Q 2503 -91 2169 -91 
Q 1331 -91 842 396 
Q 353 884 353 1716 
Q 353 2575 817 3079 
Q 1281 3584 2069 3584 
Q 2775 3584 3186 3129 
Q 3597 2675 3597 1894 
z
M 3022 2063 
Q 3016 2534 2758 2815 
Q 2500 3097 2075 3097 
Q 1594 3097 1305 2825 
Q 1016 2553 972 2059 
L 3022 2063 
z
" transform="scale(0.015625)"/>
       <path id="DejaVuSans-2e" d="M 684 794 
L 1344 794 
L 1344 0 
L 684 0 
L 684 794 
z
" transform="scale(0.015625)"/>
      </defs>
      <use xlink:href="#DejaVuSans-41"/>
      <use xlink:href="#DejaVuSans-72" x="68.408203"/>
      <use xlink:href="#DejaVuSans-74" x="109.521484"/>
      <use xlink:href="#DejaVuSans-63" x="148.730469"/>
      <use xlink:href="#DejaVuSans-20" x="203.710938"/>
      <use xlink:href="#DejaVuSans-65" x="235.498047"/>
      <use xlink:href="#DejaVuSans-3a" x="297.021484"/>
      <use xlink:href="#DejaVuSans-30" x="330.712891"/>
      <use xlink:href="#DejaVuSans-2e" x="394.335938"/>
      <use xlink:href="#DejaVuSans-32" x="426.123047"/>
      <use xlink:href="#DejaVuSans-38" x="489.746094"/>
      <use xlink:href="#DejaVuSans-31" x="553.369141"/>
      <use xlink:href="#DejaVuSans-36" x="616.992188"/>
     </g>
    </g>
    <g id="line2d_32">
     <path d="M 189 81.334687 
L 199 81.334687 
L 209 81.334687 
" style="fill: none; stroke-dasharray: 5.55,2.4; stroke-dashoffset: 0; stroke: #ff7f0e; stroke-width: 1.5"/>
    </g>
    <g id="text_17">
     <!-- NEL_BTUX e:0.2151 -->
     <g transform="translate(217 84.834687)scale(0.1 -0.1)">
      <defs>
       <path id="DejaVuSans-4e" d="M 628 4666 
L 1478 4666 
L 3547 763 
L 3547 4666 
L 4159 4666 
L 4159 0 
L 3309 0 
L 1241 3903 
L 1241 0 
L 628 0 
L 628 4666 
z
" transform="scale(0.015625)"/>
       <path id="DejaVuSans-45" d="M 628 4666 
L 3578 4666 
L 3578 4134 
L 1259 4134 
L 1259 2753 
L 3481 2753 
L 3481 2222 
L 1259 2222 
L 1259 531 
L 3634 531 
L 3634 0 
L 628 0 
L 628 4666 
z
" transform="scale(0.015625)"/>
       <path id="DejaVuSans-4c" d="M 628 4666 
L 1259 4666 
L 1259 531 
L 3531 531 
L 3531 0 
L 628 0 
L 628 4666 
z
" transform="scale(0.015625)"/>
       <path id="DejaVuSans-5f" d="M 3263 -1063 
L 3263 -1509 
L -63 -1509 
L -63 -1063 
L 3263 -1063 
z
" transform="scale(0.015625)"/>
       <path id="DejaVuSans-54" d="M -19 4666 
L 3928 4666 
L 3928 4134 
L 2272 4134 
L 2272 0 
L 1638 0 
L 1638 4134 
L -19 4134 
L -19 4666 
z
" transform="scale(0.015625)"/>
       <path id="DejaVuSans-55" d="M 556 4666 
L 1191 4666 
L 1191 1831 
Q 1191 1081 1462 751 
Q 1734 422 2344 422 
Q 2950 422 3222 751 
Q 3494 1081 3494 1831 
L 3494 4666 
L 4128 4666 
L 4128 1753 
Q 4128 841 3676 375 
Q 3225 -91 2344 -91 
Q 1459 -91 1007 375 
Q 556 841 556 1753 
L 556 4666 
z
" transform="scale(0.015625)"/>
       <path id="DejaVuSans-58" d="M 403 4666 
L 1081 4666 
L 2241 2931 
L 3406 4666 
L 4084 4666 
L 2584 2425 
L 4184 0 
L 3506 0 
L 2194 1984 
L 872 0 
L 191 0 
L 1856 2491 
L 403 4666 
z
" transform="scale(0.015625)"/>
      </defs>
      <use xlink:href="#DejaVuSans-4e"/>
      <use xlink:href="#DejaVuSans-45" x="74.804688"/>
      <use xlink:href="#DejaVuSans-4c" x="137.988281"/>
      <use xlink:href="#DejaVuSans-5f" x="193.701172"/>
      <use xlink:href="#DejaVuSans-42" x="243.701172"/>
      <use xlink:href="#DejaVuSans-54" x="312.304688"/>
      <use xlink:href="#DejaVuSans-55" x="373.388672"/>
      <use xlink:href="#DejaVuSans-58" x="446.582031"/>
      <use xlink:href="#DejaVuSans-20" x="515.087891"/>
      <use xlink:href="#DejaVuSans-65" x="546.875"/>
      <use xlink:href="#DejaVuSans-3a" x="608.398438"/>
      <use xlink:href="#DejaVuSans-30" x="642.089844"/>
      <use xlink:href="#DejaVuSans-2e" x="705.712891"/>
      <use xlink:href="#DejaVuSans-32" x="737.5"/>
      <use xlink:href="#DejaVuSans-31" x="801.123047"/>
      <use xlink:href="#DejaVuSans-35" x="864.746094"/>
      <use xlink:href="#DejaVuSans-31" x="928.369141"/>
     </g>
    </g>
   </g>
  </g>
  <g id="axes_2">
   <g id="patch_8">
    <path d="M 573.882353 283.5 
L 902.117647 283.5 
L 902.117647 38.88 
L 573.882353 38.88 
z
" style="fill: #ffffff"/>
   </g>
   <g id="PathCollection_3">
    <g clip-path="url(#pe1f3a93ac5)">
     <use xlink:href="#md5e9321df9" x="783.907034" y="138.54" style="stroke: #000000"/>
     <use xlink:href="#md5e9321df9" x="806.860551" y="47.94" style="stroke: #000000"/>
     <use xlink:href="#md5e9321df9" x="749.476759" y="229.14" style="stroke: #000000"/>
     <use xlink:href="#md5e9321df9" x="715.046483" y="229.14" style="stroke: #000000"/>
     <use xlink:href="#md5e9321df9" x="680.616207" y="251.79" style="stroke: #000000"/>
     <use xlink:href="#md5e9321df9" x="646.185932" y="274.44" style="stroke: #000000"/>
     <use xlink:href="#md5e9321df9" x="657.66269" y="251.79" style="stroke: #000000"/>
     <use xlink:href="#md5e9321df9" x="690.118275" y="229.14" style="stroke: #000000"/>
     <use xlink:href="#md5e9321df9" x="787.485947" y="47.94" style="stroke: #000000"/>
     <use xlink:href="#md5e9321df9" x="722.574318" y="229.14" style="stroke: #000000"/>
     <use xlink:href="#md5e9321df9" x="755.030132" y="183.84" style="stroke: #000000"/>
     <use xlink:href="#md5e9321df9" x="657.662461" y="229.14" style="stroke: #000000"/>
     <use xlink:href="#md5e9321df9" x="765.921576" y="183.84" style="stroke: #000000"/>
     <use xlink:href="#md5e9321df9" x="699.839548" y="229.14" style="stroke: #000000"/>
     <use xlink:href="#md5e9321df9" x="798.962705" y="47.94" style="stroke: #000000"/>
     <use xlink:href="#md5e9321df9" x="666.798649" y="229.14" style="stroke: #000000"/>
     <use xlink:href="#md5e9321df9" x="732.880677" y="183.84" style="stroke: #000000"/>
    </g>
   </g>
   <g id="matplotlib.axis_3">
    <g id="xtick_8">
     <g id="line2d_33">
      <path d="M 611.755656 283.5 
L 611.755656 38.88 
" clip-path="url(#pe1f3a93ac5)" style="fill: none; stroke: #b0b0b0; stroke-width: 0.8; stroke-linecap: square"/>
     </g>
     <g id="line2d_34">
      <g>
       <use xlink:href="#m533abae7d2" x="611.755656" y="283.5" style="stroke: #000000; stroke-width: 0.8"/>
      </g>
     </g>
     <g id="text_18">
      <!-- 0 -->
      <g transform="translate(608.574406 298.098437)scale(0.1 -0.1)">
       <use xlink:href="#DejaVuSans-30"/>
      </g>
     </g>
    </g>
    <g id="xtick_9">
     <g id="line2d_35">
      <path d="M 657.66269 283.5 
L 657.66269 38.88 
" clip-path="url(#pe1f3a93ac5)" style="fill: none; stroke: #b0b0b0; stroke-width: 0.8; stroke-linecap: square"/>
     </g>
     <g id="line2d_36">
      <g>
       <use xlink:href="#m533abae7d2" x="657.66269" y="283.5" style="stroke: #000000; stroke-width: 0.8"/>
      </g>
     </g>
     <g id="text_19">
      <!-- 20 -->
      <g transform="translate(651.30019 298.098437)scale(0.1 -0.1)">
       <use xlink:href="#DejaVuSans-32"/>
       <use xlink:href="#DejaVuSans-30" x="63.623047"/>
      </g>
     </g>
    </g>
    <g id="xtick_10">
     <g id="line2d_37">
      <path d="M 703.569724 283.5 
L 703.569724 38.88 
" clip-path="url(#pe1f3a93ac5)" style="fill: none; stroke: #b0b0b0; stroke-width: 0.8; stroke-linecap: square"/>
     </g>
     <g id="line2d_38">
      <g>
       <use xlink:href="#m533abae7d2" x="703.569724" y="283.5" style="stroke: #000000; stroke-width: 0.8"/>
      </g>
     </g>
     <g id="text_20">
      <!-- 40 -->
      <g transform="translate(697.207224 298.098437)scale(0.1 -0.1)">
       <use xlink:href="#DejaVuSans-34"/>
       <use xlink:href="#DejaVuSans-30" x="63.623047"/>
      </g>
     </g>
    </g>
    <g id="xtick_11">
     <g id="line2d_39">
      <path d="M 749.476759 283.5 
L 749.476759 38.88 
" clip-path="url(#pe1f3a93ac5)" style="fill: none; stroke: #b0b0b0; stroke-width: 0.8; stroke-linecap: square"/>
     </g>
     <g id="line2d_40">
      <g>
       <use xlink:href="#m533abae7d2" x="749.476759" y="283.5" style="stroke: #000000; stroke-width: 0.8"/>
      </g>
     </g>
     <g id="text_21">
      <!-- 60 -->
      <g transform="translate(743.114259 298.098437)scale(0.1 -0.1)">
       <use xlink:href="#DejaVuSans-36"/>
       <use xlink:href="#DejaVuSans-30" x="63.623047"/>
      </g>
     </g>
    </g>
    <g id="xtick_12">
     <g id="line2d_41">
      <path d="M 795.383793 283.5 
L 795.383793 38.88 
" clip-path="url(#pe1f3a93ac5)" style="fill: none; stroke: #b0b0b0; stroke-width: 0.8; stroke-linecap: square"/>
     </g>
     <g id="line2d_42">
      <g>
       <use xlink:href="#m533abae7d2" x="795.383793" y="283.5" style="stroke: #000000; stroke-width: 0.8"/>
      </g>
     </g>
     <g id="text_22">
      <!-- 80 -->
      <g transform="translate(789.021293 298.098437)scale(0.1 -0.1)">
       <use xlink:href="#DejaVuSans-38"/>
       <use xlink:href="#DejaVuSans-30" x="63.623047"/>
      </g>
     </g>
    </g>
    <g id="xtick_13">
     <g id="line2d_43">
      <path d="M 841.290827 283.5 
L 841.290827 38.88 
" clip-path="url(#pe1f3a93ac5)" style="fill: none; stroke: #b0b0b0; stroke-width: 0.8; stroke-linecap: square"/>
     </g>
     <g id="line2d_44">
      <g>
       <use xlink:href="#m533abae7d2" x="841.290827" y="283.5" style="stroke: #000000; stroke-width: 0.8"/>
      </g>
     </g>
     <g id="text_23">
      <!-- 100 -->
      <g transform="translate(831.747077 298.098437)scale(0.1 -0.1)">
       <use xlink:href="#DejaVuSans-31"/>
       <use xlink:href="#DejaVuSans-30" x="63.623047"/>
       <use xlink:href="#DejaVuSans-30" x="127.246094"/>
      </g>
     </g>
    </g>
    <g id="xtick_14">
     <g id="line2d_45">
      <path d="M 887.197861 283.5 
L 887.197861 38.88 
" clip-path="url(#pe1f3a93ac5)" style="fill: none; stroke: #b0b0b0; stroke-width: 0.8; stroke-linecap: square"/>
     </g>
     <g id="line2d_46">
      <g>
       <use xlink:href="#m533abae7d2" x="887.197861" y="283.5" style="stroke: #000000; stroke-width: 0.8"/>
      </g>
     </g>
     <g id="text_24">
      <!-- 120 -->
      <g transform="translate(877.654111 298.098437)scale(0.1 -0.1)">
       <use xlink:href="#DejaVuSans-31"/>
       <use xlink:href="#DejaVuSans-32" x="63.623047"/>
       <use xlink:href="#DejaVuSans-30" x="127.246094"/>
      </g>
     </g>
    </g>
   </g>
   <g id="matplotlib.axis_4">
    <g id="ytick_7">
     <g id="line2d_47">
      <path d="M 573.882353 274.44 
L 902.117647 274.44 
" clip-path="url(#pe1f3a93ac5)" style="fill: none; stroke: #b0b0b0; stroke-width: 0.8; stroke-linecap: square"/>
     </g>
     <g id="line2d_48">
      <g>
       <use xlink:href="#mad7ab28cb2" x="573.882353" y="274.44" style="stroke: #000000; stroke-width: 0.8"/>
      </g>
     </g>
     <g id="text_25">
      <!-- 0 -->
      <g transform="translate(560.519853 278.239219)scale(0.1 -0.1)">
       <use xlink:href="#DejaVuSans-30"/>
      </g>
     </g>
    </g>
    <g id="ytick_8">
     <g id="line2d_49">
      <path d="M 573.882353 229.14 
L 902.117647 229.14 
" clip-path="url(#pe1f3a93ac5)" style="fill: none; stroke: #b0b0b0; stroke-width: 0.8; stroke-linecap: square"/>
     </g>
     <g id="line2d_50">
      <g>
       <use xlink:href="#mad7ab28cb2" x="573.882353" y="229.14" style="stroke: #000000; stroke-width: 0.8"/>
      </g>
     </g>
     <g id="text_26">
      <!-- 10 -->
      <g transform="translate(554.157353 232.939219)scale(0.1 -0.1)">
       <use xlink:href="#DejaVuSans-31"/>
       <use xlink:href="#DejaVuSans-30" x="63.623047"/>
      </g>
     </g>
    </g>
    <g id="ytick_9">
     <g id="line2d_51">
      <path d="M 573.882353 183.84 
L 902.117647 183.84 
" clip-path="url(#pe1f3a93ac5)" style="fill: none; stroke: #b0b0b0; stroke-width: 0.8; stroke-linecap: square"/>
     </g>
     <g id="line2d_52">
      <g>
       <use xlink:href="#mad7ab28cb2" x="573.882353" y="183.84" style="stroke: #000000; stroke-width: 0.8"/>
      </g>
     </g>
     <g id="text_27">
      <!-- 20 -->
      <g transform="translate(554.157353 187.639219)scale(0.1 -0.1)">
       <use xlink:href="#DejaVuSans-32"/>
       <use xlink:href="#DejaVuSans-30" x="63.623047"/>
      </g>
     </g>
    </g>
    <g id="ytick_10">
     <g id="line2d_53">
      <path d="M 573.882353 138.54 
L 902.117647 138.54 
" clip-path="url(#pe1f3a93ac5)" style="fill: none; stroke: #b0b0b0; stroke-width: 0.8; stroke-linecap: square"/>
     </g>
     <g id="line2d_54">
      <g>
       <use xlink:href="#mad7ab28cb2" x="573.882353" y="138.54" style="stroke: #000000; stroke-width: 0.8"/>
      </g>
     </g>
     <g id="text_28">
      <!-- 30 -->
      <g transform="translate(554.157353 142.339219)scale(0.1 -0.1)">
       <use xlink:href="#DejaVuSans-33"/>
       <use xlink:href="#DejaVuSans-30" x="63.623047"/>
      </g>
     </g>
    </g>
    <g id="ytick_11">
     <g id="line2d_55">
      <path d="M 573.882353 93.24 
L 902.117647 93.24 
" clip-path="url(#pe1f3a93ac5)" style="fill: none; stroke: #b0b0b0; stroke-width: 0.8; stroke-linecap: square"/>
     </g>
     <g id="line2d_56">
      <g>
       <use xlink:href="#mad7ab28cb2" x="573.882353" y="93.24" style="stroke: #000000; stroke-width: 0.8"/>
      </g>
     </g>
     <g id="text_29">
      <!-- 40 -->
      <g transform="translate(554.157353 97.039219)scale(0.1 -0.1)">
       <use xlink:href="#DejaVuSans-34"/>
       <use xlink:href="#DejaVuSans-30" x="63.623047"/>
      </g>
     </g>
    </g>
    <g id="ytick_12">
     <g id="line2d_57">
      <path d="M 573.882353 47.94 
L 902.117647 47.94 
" clip-path="url(#pe1f3a93ac5)" style="fill: none; stroke: #b0b0b0; stroke-width: 0.8; stroke-linecap: square"/>
     </g>
     <g id="line2d_58">
      <g>
       <use xlink:href="#mad7ab28cb2" x="573.882353" y="47.94" style="stroke: #000000; stroke-width: 0.8"/>
      </g>
     </g>
     <g id="text_30">
      <!-- 50 -->
      <g transform="translate(554.157353 51.739219)scale(0.1 -0.1)">
       <use xlink:href="#DejaVuSans-35"/>
       <use xlink:href="#DejaVuSans-30" x="63.623047"/>
      </g>
     </g>
    </g>
   </g>
   <g id="line2d_59">
    <path d="M 588.802139 161.19 
L 887.197861 161.19 
" clip-path="url(#pe1f3a93ac5)" style="fill: none; stroke-dasharray: 1.5,2.475; stroke-dashoffset: 0; stroke: #808080; stroke-width: 1.5"/>
   </g>
   <g id="line2d_60">
    <path d="M 806.860551 319.74 
L 806.860551 -1 
" clip-path="url(#pe1f3a93ac5)" style="fill: none; stroke-dasharray: 5.55,2.4; stroke-dashoffset: 0; stroke: #ff0000; stroke-opacity: 0.3; stroke-width: 1.5"/>
   </g>
   <g id="line2d_61">
    <path d="M 642.522627 274.44 
L 644.530387 272.520072 
L 646.538146 270.600145 
L 648.545905 268.680217 
L 650.553664 266.760289 
L 652.561424 264.840362 
L 654.569183 262.920434 
L 656.576942 261.000507 
L 658.584702 259.080579 
L 660.592461 257.160651 
L 662.60022 255.240724 
L 664.607979 253.320796 
L 666.615739 251.400868 
L 668.623498 249.480941 
L 670.631257 247.561013 
L 672.639016 245.641086 
L 674.646776 243.721158 
L 676.654535 241.80123 
L 678.662294 239.881303 
L 680.670053 237.961375 
L 682.677813 236.041447 
L 684.685572 234.12152 
L 686.693331 232.201592 
L 688.701091 230.281665 
L 690.70885 228.361737 
L 692.716609 226.441809 
L 694.724368 224.521882 
L 696.732128 222.601954 
L 698.739887 220.682026 
L 700.747646 218.762099 
L 702.755405 216.842171 
L 704.763165 214.922244 
L 706.770924 213.002316 
L 708.778683 211.082388 
L 710.786442 209.162461 
L 712.794202 207.242533 
L 714.801961 205.320176 
L 716.80972 203.38557 
L 718.81748 201.437434 
L 720.825239 199.47548 
L 722.832998 197.49941 
L 724.840757 195.508915 
L 726.848517 193.503674 
L 728.856276 191.483355 
L 730.864035 189.447612 
L 732.871794 187.396086 
L 734.879554 185.328405 
L 736.887313 183.244181 
L 738.895072 181.143009 
L 740.902831 179.024471 
L 742.910591 176.888128 
L 744.91835 174.733524 
L 746.926109 172.560182 
L 748.933868 170.367604 
L 750.941628 168.15527 
L 752.949387 165.922638 
L 754.957146 163.669137 
L 756.964906 161.394171 
L 758.972665 159.097115 
L 760.980424 156.777312 
L 762.988183 154.434074 
L 764.995943 152.066675 
L 767.003702 149.674352 
L 769.011461 147.2563 
L 771.01922 144.811672 
L 773.02698 142.339572 
L 775.034739 139.839052 
L 777.042498 137.309108 
L 779.050257 134.748676 
L 781.058017 132.156629 
L 783.065776 129.531763 
L 785.073535 126.872801 
L 787.081295 124.178378 
L 789.089054 121.447036 
L 791.096813 118.677214 
L 793.104572 115.867242 
L 795.112332 113.03694 
L 797.120091 110.206638 
L 799.12785 107.376337 
L 801.135609 104.546035 
L 803.143369 101.715733 
L 805.151128 98.885431 
L 807.158887 96.05513 
L 809.166646 93.224828 
L 811.174406 90.394526 
L 813.182165 87.564224 
L 815.189924 84.733923 
L 817.197684 81.903621 
L 819.205443 79.073319 
L 821.213202 76.243017 
L 823.220961 73.412716 
L 825.228721 70.582414 
L 827.23648 67.752112 
L 829.244239 64.92181 
L 831.251998 62.091509 
L 833.259758 59.261207 
L 835.267517 56.430905 
L 837.275276 53.600603 
L 839.283035 50.770302 
L 841.290795 47.94 
" clip-path="url(#pe1f3a93ac5)" style="fill: none; stroke: #1f77b4; stroke-width: 1.5; stroke-linecap: square"/>
   </g>
   <g id="line2d_62">
    <path d="M 637.684637 274.44 
L 639.456443 272.984941 
L 641.22825 271.529883 
L 643.000056 270.074824 
L 644.771863 268.619766 
L 646.543669 267.164707 
L 648.315476 265.709648 
L 650.087282 264.25459 
L 651.859089 262.799531 
L 653.630895 261.344473 
L 655.402702 259.889414 
L 657.174508 258.434355 
L 658.946315 256.979297 
L 660.718121 255.524238 
L 662.489928 254.06918 
L 664.261734 252.614121 
L 666.033541 251.159062 
L 667.805347 249.704004 
L 669.577154 248.248945 
L 671.34896 246.793887 
L 673.120766 245.338828 
L 674.892573 243.883769 
L 676.664379 242.428711 
L 678.436186 240.973652 
L 680.207992 239.518594 
L 681.979799 238.063535 
L 683.751605 236.608476 
L 685.523412 235.153418 
L 687.295218 233.698359 
L 689.067025 232.243301 
L 690.838831 230.788242 
L 692.610638 229.333183 
L 694.382444 227.878125 
L 696.154251 226.423066 
L 697.926057 224.968008 
L 699.697864 223.512949 
L 701.46967 222.05789 
L 703.241477 220.602832 
L 705.013283 219.147773 
L 706.78509 217.692715 
L 708.556896 216.237656 
L 710.328703 214.782597 
L 712.100509 213.327539 
L 713.872315 211.87248 
L 715.644122 210.417422 
L 717.415928 208.962363 
L 719.187735 207.507304 
L 720.959541 206.051473 
L 722.731348 204.582569 
L 724.503154 203.095842 
L 726.274961 201.590627 
L 728.046767 200.066216 
L 729.818574 198.521856 
L 731.59038 196.956743 
L 733.362187 195.370016 
L 735.133993 193.760756 
L 736.9058 192.127972 
L 738.677606 190.470604 
L 740.449413 188.787505 
L 742.221219 187.077439 
L 743.993026 185.339066 
L 745.764832 183.570932 
L 747.536639 181.771455 
L 749.308445 179.938906 
L 751.080251 178.071392 
L 752.852058 176.166831 
L 754.623864 174.222927 
L 756.395671 172.237136 
L 758.167477 170.206629 
L 759.939284 168.12824 
L 761.71109 165.998413 
L 763.482897 163.81313 
L 765.254703 161.567819 
L 767.02651 159.257243 
L 768.798316 156.875356 
L 770.570123 154.415119 
L 772.341929 151.868249 
L 774.113736 149.224895 
L 775.885542 146.473182 
L 777.657349 143.59858 
L 779.429155 140.582987 
L 781.200962 137.403368 
L 782.972768 134.029633 
L 784.744575 130.421189 
L 786.516381 126.520945 
L 788.288187 122.244057 
L 790.059994 117.454313 
L 791.8318 112.140428 
L 793.603607 106.790392 
L 795.375413 101.440357 
L 797.14722 96.090321 
L 798.919026 90.740285 
L 800.690833 85.39025 
L 802.462639 80.040214 
L 804.234446 74.690178 
L 806.006252 69.340143 
L 807.778059 63.990107 
L 809.549865 58.640071 
L 811.321672 53.290036 
L 813.093478 47.94 
" clip-path="url(#pe1f3a93ac5)" style="fill: none; stroke-dasharray: 5.55,2.4; stroke-dashoffset: 0; stroke: #ff7f0e; stroke-width: 1.5"/>
   </g>
   <g id="patch_9">
    <path d="M 573.882353 283.5 
L 573.882353 38.88 
" style="fill: none; stroke: #000000; stroke-width: 0.8; stroke-linejoin: miter; stroke-linecap: square"/>
   </g>
   <g id="patch_10">
    <path d="M 902.117647 283.5 
L 902.117647 38.88 
" style="fill: none; stroke: #000000; stroke-width: 0.8; stroke-linejoin: miter; stroke-linecap: square"/>
   </g>
   <g id="patch_11">
    <path d="M 573.882353 283.5 
L 902.117647 283.5 
" style="fill: none; stroke: #000000; stroke-width: 0.8; stroke-linejoin: miter; stroke-linecap: square"/>
   </g>
   <g id="patch_12">
    <path d="M 573.882353 38.88 
L 902.117647 38.88 
" style="fill: none; stroke: #000000; stroke-width: 0.8; stroke-linejoin: miter; stroke-linecap: square"/>
   </g>
   <g id="text_31">
    <!--  Block: 1 -->
    <g transform="translate(712.119375 32.88)scale(0.12 -0.12)">
     <use xlink:href="#DejaVuSans-20"/>
     <use xlink:href="#DejaVuSans-42" x="31.787109"/>
     <use xlink:href="#DejaVuSans-6c" x="100.390625"/>
     <use xlink:href="#DejaVuSans-6f" x="128.173828"/>
     <use xlink:href="#DejaVuSans-63" x="189.355469"/>
     <use xlink:href="#DejaVuSans-6b" x="244.335938"/>
     <use xlink:href="#DejaVuSans-3a" x="302.246094"/>
     <use xlink:href="#DejaVuSans-20" x="335.9375"/>
     <use xlink:href="#DejaVuSans-31" x="367.724609"/>
    </g>
   </g>
   <g id="legend_2">
    <g id="patch_13">
     <path d="M 580.882353 91.1925 
L 712.082353 91.1925 
Q 714.082353 91.1925 714.082353 89.1925 
L 714.082353 45.88 
Q 714.082353 43.88 712.082353 43.88 
L 580.882353 43.88 
Q 578.882353 43.88 578.882353 45.88 
L 578.882353 89.1925 
Q 578.882353 91.1925 580.882353 91.1925 
z
" style="fill: #ffffff; opacity: 0.8; stroke: #cccccc; stroke-linejoin: miter"/>
    </g>
    <g id="PathCollection_4">
     <g>
      <use xlink:href="#md5e9321df9" x="592.882353" y="52.853437" style="stroke: #000000"/>
     </g>
    </g>
    <g id="text_32">
     <!-- Data -->
     <g transform="translate(610.882353 55.478437)scale(0.1 -0.1)">
      <use xlink:href="#DejaVuSans-44"/>
      <use xlink:href="#DejaVuSans-61" x="77.001953"/>
      <use xlink:href="#DejaVuSans-74" x="138.28125"/>
      <use xlink:href="#DejaVuSans-61" x="177.490234"/>
     </g>
    </g>
    <g id="line2d_63">
     <path d="M 582.882353 66.656562 
L 592.882353 66.656562 
L 602.882353 66.656562 
" style="fill: none; stroke: #1f77b4; stroke-width: 1.5; stroke-linecap: square"/>
    </g>
    <g id="text_33">
     <!-- Artc e:0.4469 -->
     <g transform="translate(610.882353 70.156562)scale(0.1 -0.1)">
      <defs>
       <path id="DejaVuSans-39" d="M 703 97 
L 703 672 
Q 941 559 1184 500 
Q 1428 441 1663 441 
Q 2288 441 2617 861 
Q 2947 1281 2994 2138 
Q 2813 1869 2534 1725 
Q 2256 1581 1919 1581 
Q 1219 1581 811 2004 
Q 403 2428 403 3163 
Q 403 3881 828 4315 
Q 1253 4750 1959 4750 
Q 2769 4750 3195 4129 
Q 3622 3509 3622 2328 
Q 3622 1225 3098 567 
Q 2575 -91 1691 -91 
Q 1453 -91 1209 -44 
Q 966 3 703 97 
z
M 1959 2075 
Q 2384 2075 2632 2365 
Q 2881 2656 2881 3163 
Q 2881 3666 2632 3958 
Q 2384 4250 1959 4250 
Q 1534 4250 1286 3958 
Q 1038 3666 1038 3163 
Q 1038 2656 1286 2365 
Q 1534 2075 1959 2075 
z
" transform="scale(0.015625)"/>
      </defs>
      <use xlink:href="#DejaVuSans-41"/>
      <use xlink:href="#DejaVuSans-72" x="68.408203"/>
      <use xlink:href="#DejaVuSans-74" x="109.521484"/>
      <use xlink:href="#DejaVuSans-63" x="148.730469"/>
      <use xlink:href="#DejaVuSans-20" x="203.710938"/>
      <use xlink:href="#DejaVuSans-65" x="235.498047"/>
      <use xlink:href="#DejaVuSans-3a" x="297.021484"/>
      <use xlink:href="#DejaVuSans-30" x="330.712891"/>
      <use xlink:href="#DejaVuSans-2e" x="394.335938"/>
      <use xlink:href="#DejaVuSans-34" x="426.123047"/>
      <use xlink:href="#DejaVuSans-34" x="489.746094"/>
      <use xlink:href="#DejaVuSans-36" x="553.369141"/>
      <use xlink:href="#DejaVuSans-39" x="616.992188"/>
     </g>
    </g>
    <g id="line2d_64">
     <path d="M 582.882353 81.334687 
L 592.882353 81.334687 
L 602.882353 81.334687 
" style="fill: none; stroke-dasharray: 5.55,2.4; stroke-dashoffset: 0; stroke: #ff7f0e; stroke-width: 1.5"/>
    </g>
    <g id="text_34">
     <!-- NEL_BTUX e:0.3694 -->
     <g transform="translate(610.882353 84.834687)scale(0.1 -0.1)">
      <use xlink:href="#DejaVuSans-4e"/>
      <use xlink:href="#DejaVuSans-45" x="74.804688"/>
      <use xlink:href="#DejaVuSans-4c" x="137.988281"/>
      <use xlink:href="#DejaVuSans-5f" x="193.701172"/>
      <use xlink:href="#DejaVuSans-42" x="243.701172"/>
      <use xlink:href="#DejaVuSans-54" x="312.304688"/>
      <use xlink:href="#DejaVuSans-55" x="373.388672"/>
      <use xlink:href="#DejaVuSans-58" x="446.582031"/>
      <use xlink:href="#DejaVuSans-20" x="515.087891"/>
      <use xlink:href="#DejaVuSans-65" x="546.875"/>
      <use xlink:href="#DejaVuSans-3a" x="608.398438"/>
      <use xlink:href="#DejaVuSans-30" x="642.089844"/>
      <use xlink:href="#DejaVuSans-2e" x="705.712891"/>
      <use xlink:href="#DejaVuSans-33" x="737.5"/>
      <use xlink:href="#DejaVuSans-36" x="801.123047"/>
      <use xlink:href="#DejaVuSans-39" x="864.746094"/>
      <use xlink:href="#DejaVuSans-34" x="928.369141"/>
     </g>
    </g>
   </g>
  </g>
  <g id="axes_3">
   <g id="patch_14">
    <path d="M 967.764706 283.5 
L 1296 283.5 
L 1296 38.88 
L 967.764706 38.88 
z
" style="fill: #ffffff"/>
   </g>
   <g id="PathCollection_5">
    <g clip-path="url(#pb45ce8d1c3)">
     <use xlink:href="#md5e9321df9" x="1177.789387" y="138.54" style="stroke: #000000"/>
     <use xlink:href="#md5e9321df9" x="1200.742904" y="47.94" style="stroke: #000000"/>
     <use xlink:href="#md5e9321df9" x="1143.359111" y="183.84" style="stroke: #000000"/>
     <use xlink:href="#md5e9321df9" x="1108.928836" y="229.14" style="stroke: #000000"/>
     <use xlink:href="#md5e9321df9" x="1074.49856" y="251.79" style="stroke: #000000"/>
     <use xlink:href="#md5e9321df9" x="1040.068285" y="251.79" style="stroke: #000000"/>
     <use xlink:href="#md5e9321df9" x="1005.638009" y="274.44" style="stroke: #000000"/>
     <use xlink:href="#md5e9321df9" x="1017.114768" y="274.44" style="stroke: #000000"/>
     <use xlink:href="#md5e9321df9" x="1028.591526" y="274.44" style="stroke: #000000"/>
     <use xlink:href="#md5e9321df9" x="1040.068285" y="274.44" style="stroke: #000000"/>
     <use xlink:href="#md5e9321df9" x="1051.545043" y="251.79" style="stroke: #000000"/>
     <use xlink:href="#md5e9321df9" x="1084.000628" y="229.14" style="stroke: #000000"/>
     <use xlink:href="#md5e9321df9" x="1148.912485" y="183.84" style="stroke: #000000"/>
     <use xlink:href="#md5e9321df9" x="1051.544814" y="229.14" style="stroke: #000000"/>
     <use xlink:href="#md5e9321df9" x="1181.368299" y="47.94" style="stroke: #000000"/>
     <use xlink:href="#md5e9321df9" x="1116.456671" y="229.14" style="stroke: #000000"/>
     <use xlink:href="#md5e9321df9" x="1093.721901" y="183.84" style="stroke: #000000"/>
     <use xlink:href="#md5e9321df9" x="1126.76303" y="183.84" style="stroke: #000000"/>
     <use xlink:href="#md5e9321df9" x="1159.803929" y="138.54" style="stroke: #000000"/>
     <use xlink:href="#md5e9321df9" x="1060.681002" y="229.14" style="stroke: #000000"/>
     <use xlink:href="#md5e9321df9" x="1192.845058" y="93.24" style="stroke: #000000"/>
    </g>
   </g>
   <g id="matplotlib.axis_5">
    <g id="xtick_15">
     <g id="line2d_65">
      <path d="M 1005.638009 283.5 
L 1005.638009 38.88 
" clip-path="url(#pb45ce8d1c3)" style="fill: none; stroke: #b0b0b0; stroke-width: 0.8; stroke-linecap: square"/>
     </g>
     <g id="line2d_66">
      <g>
       <use xlink:href="#m533abae7d2" x="1005.638009" y="283.5" style="stroke: #000000; stroke-width: 0.8"/>
      </g>
     </g>
     <g id="text_35">
      <!-- 0 -->
      <g transform="translate(1002.456759 298.098437)scale(0.1 -0.1)">
       <use xlink:href="#DejaVuSans-30"/>
      </g>
     </g>
    </g>
    <g id="xtick_16">
     <g id="line2d_67">
      <path d="M 1051.545043 283.5 
L 1051.545043 38.88 
" clip-path="url(#pb45ce8d1c3)" style="fill: none; stroke: #b0b0b0; stroke-width: 0.8; stroke-linecap: square"/>
     </g>
     <g id="line2d_68">
      <g>
       <use xlink:href="#m533abae7d2" x="1051.545043" y="283.5" style="stroke: #000000; stroke-width: 0.8"/>
      </g>
     </g>
     <g id="text_36">
      <!-- 20 -->
      <g transform="translate(1045.182543 298.098437)scale(0.1 -0.1)">
       <use xlink:href="#DejaVuSans-32"/>
       <use xlink:href="#DejaVuSans-30" x="63.623047"/>
      </g>
     </g>
    </g>
    <g id="xtick_17">
     <g id="line2d_69">
      <path d="M 1097.452077 283.5 
L 1097.452077 38.88 
" clip-path="url(#pb45ce8d1c3)" style="fill: none; stroke: #b0b0b0; stroke-width: 0.8; stroke-linecap: square"/>
     </g>
     <g id="line2d_70">
      <g>
       <use xlink:href="#m533abae7d2" x="1097.452077" y="283.5" style="stroke: #000000; stroke-width: 0.8"/>
      </g>
     </g>
     <g id="text_37">
      <!-- 40 -->
      <g transform="translate(1091.089577 298.098437)scale(0.1 -0.1)">
       <use xlink:href="#DejaVuSans-34"/>
       <use xlink:href="#DejaVuSans-30" x="63.623047"/>
      </g>
     </g>
    </g>
    <g id="xtick_18">
     <g id="line2d_71">
      <path d="M 1143.359111 283.5 
L 1143.359111 38.88 
" clip-path="url(#pb45ce8d1c3)" style="fill: none; stroke: #b0b0b0; stroke-width: 0.8; stroke-linecap: square"/>
     </g>
     <g id="line2d_72">
      <g>
       <use xlink:href="#m533abae7d2" x="1143.359111" y="283.5" style="stroke: #000000; stroke-width: 0.8"/>
      </g>
     </g>
     <g id="text_38">
      <!-- 60 -->
      <g transform="translate(1136.996611 298.098437)scale(0.1 -0.1)">
       <use xlink:href="#DejaVuSans-36"/>
       <use xlink:href="#DejaVuSans-30" x="63.623047"/>
      </g>
     </g>
    </g>
    <g id="xtick_19">
     <g id="line2d_73">
      <path d="M 1189.266146 283.5 
L 1189.266146 38.88 
" clip-path="url(#pb45ce8d1c3)" style="fill: none; stroke: #b0b0b0; stroke-width: 0.8; stroke-linecap: square"/>
     </g>
     <g id="line2d_74">
      <g>
       <use xlink:href="#m533abae7d2" x="1189.266146" y="283.5" style="stroke: #000000; stroke-width: 0.8"/>
      </g>
     </g>
     <g id="text_39">
      <!-- 80 -->
      <g transform="translate(1182.903646 298.098437)scale(0.1 -0.1)">
       <use xlink:href="#DejaVuSans-38"/>
       <use xlink:href="#DejaVuSans-30" x="63.623047"/>
      </g>
     </g>
    </g>
    <g id="xtick_20">
     <g id="line2d_75">
      <path d="M 1235.17318 283.5 
L 1235.17318 38.88 
" clip-path="url(#pb45ce8d1c3)" style="fill: none; stroke: #b0b0b0; stroke-width: 0.8; stroke-linecap: square"/>
     </g>
     <g id="line2d_76">
      <g>
       <use xlink:href="#m533abae7d2" x="1235.17318" y="283.5" style="stroke: #000000; stroke-width: 0.8"/>
      </g>
     </g>
     <g id="text_40">
      <!-- 100 -->
      <g transform="translate(1225.62943 298.098437)scale(0.1 -0.1)">
       <use xlink:href="#DejaVuSans-31"/>
       <use xlink:href="#DejaVuSans-30" x="63.623047"/>
       <use xlink:href="#DejaVuSans-30" x="127.246094"/>
      </g>
     </g>
    </g>
    <g id="xtick_21">
     <g id="line2d_77">
      <path d="M 1281.080214 283.5 
L 1281.080214 38.88 
" clip-path="url(#pb45ce8d1c3)" style="fill: none; stroke: #b0b0b0; stroke-width: 0.8; stroke-linecap: square"/>
     </g>
     <g id="line2d_78">
      <g>
       <use xlink:href="#m533abae7d2" x="1281.080214" y="283.5" style="stroke: #000000; stroke-width: 0.8"/>
      </g>
     </g>
     <g id="text_41">
      <!-- 120 -->
      <g transform="translate(1271.536464 298.098437)scale(0.1 -0.1)">
       <use xlink:href="#DejaVuSans-31"/>
       <use xlink:href="#DejaVuSans-32" x="63.623047"/>
       <use xlink:href="#DejaVuSans-30" x="127.246094"/>
      </g>
     </g>
    </g>
    <g id="text_42">
     <!-- Level [dB SPL] -->
     <g transform="translate(1096.022978 311.776563)scale(0.1 -0.1)">
      <defs>
       <path id="DejaVuSans-76" d="M 191 3500 
L 800 3500 
L 1894 563 
L 2988 3500 
L 3597 3500 
L 2284 0 
L 1503 0 
L 191 3500 
z
" transform="scale(0.015625)"/>
       <path id="DejaVuSans-5b" d="M 550 4863 
L 1875 4863 
L 1875 4416 
L 1125 4416 
L 1125 -397 
L 1875 -397 
L 1875 -844 
L 550 -844 
L 550 4863 
z
" transform="scale(0.015625)"/>
       <path id="DejaVuSans-64" d="M 2906 2969 
L 2906 4863 
L 3481 4863 
L 3481 0 
L 2906 0 
L 2906 525 
Q 2725 213 2448 61 
Q 2172 -91 1784 -91 
Q 1150 -91 751 415 
Q 353 922 353 1747 
Q 353 2572 751 3078 
Q 1150 3584 1784 3584 
Q 2172 3584 2448 3432 
Q 2725 3281 2906 2969 
z
M 947 1747 
Q 947 1113 1208 752 
Q 1469 391 1925 391 
Q 2381 391 2643 752 
Q 2906 1113 2906 1747 
Q 2906 2381 2643 2742 
Q 2381 3103 1925 3103 
Q 1469 3103 1208 2742 
Q 947 2381 947 1747 
z
" transform="scale(0.015625)"/>
       <path id="DejaVuSans-53" d="M 3425 4513 
L 3425 3897 
Q 3066 4069 2747 4153 
Q 2428 4238 2131 4238 
Q 1616 4238 1336 4038 
Q 1056 3838 1056 3469 
Q 1056 3159 1242 3001 
Q 1428 2844 1947 2747 
L 2328 2669 
Q 3034 2534 3370 2195 
Q 3706 1856 3706 1288 
Q 3706 609 3251 259 
Q 2797 -91 1919 -91 
Q 1588 -91 1214 -16 
Q 841 59 441 206 
L 441 856 
Q 825 641 1194 531 
Q 1563 422 1919 422 
Q 2459 422 2753 634 
Q 3047 847 3047 1241 
Q 3047 1584 2836 1778 
Q 2625 1972 2144 2069 
L 1759 2144 
Q 1053 2284 737 2584 
Q 422 2884 422 3419 
Q 422 4038 858 4394 
Q 1294 4750 2059 4750 
Q 2388 4750 2728 4690 
Q 3069 4631 3425 4513 
z
" transform="scale(0.015625)"/>
       <path id="DejaVuSans-50" d="M 1259 4147 
L 1259 2394 
L 2053 2394 
Q 2494 2394 2734 2622 
Q 2975 2850 2975 3272 
Q 2975 3691 2734 3919 
Q 2494 4147 2053 4147 
L 1259 4147 
z
M 628 4666 
L 2053 4666 
Q 2838 4666 3239 4311 
Q 3641 3956 3641 3272 
Q 3641 2581 3239 2228 
Q 2838 1875 2053 1875 
L 1259 1875 
L 1259 0 
L 628 0 
L 628 4666 
z
" transform="scale(0.015625)"/>
       <path id="DejaVuSans-5d" d="M 1947 4863 
L 1947 -844 
L 622 -844 
L 622 -397 
L 1369 -397 
L 1369 4416 
L 622 4416 
L 622 4863 
L 1947 4863 
z
" transform="scale(0.015625)"/>
      </defs>
      <use xlink:href="#DejaVuSans-4c"/>
      <use xlink:href="#DejaVuSans-65" x="53.962891"/>
      <use xlink:href="#DejaVuSans-76" x="115.486328"/>
      <use xlink:href="#DejaVuSans-65" x="174.666016"/>
      <use xlink:href="#DejaVuSans-6c" x="236.189453"/>
      <use xlink:href="#DejaVuSans-20" x="263.972656"/>
      <use xlink:href="#DejaVuSans-5b" x="295.759766"/>
      <use xlink:href="#DejaVuSans-64" x="334.773438"/>
      <use xlink:href="#DejaVuSans-42" x="398.25"/>
      <use xlink:href="#DejaVuSans-20" x="466.853516"/>
      <use xlink:href="#DejaVuSans-53" x="498.640625"/>
      <use xlink:href="#DejaVuSans-50" x="562.117188"/>
      <use xlink:href="#DejaVuSans-4c" x="622.419922"/>
      <use xlink:href="#DejaVuSans-5d" x="678.132812"/>
     </g>
    </g>
   </g>
   <g id="matplotlib.axis_6">
    <g id="ytick_13">
     <g id="line2d_79">
      <path d="M 967.764706 274.44 
L 1296 274.44 
" clip-path="url(#pb45ce8d1c3)" style="fill: none; stroke: #b0b0b0; stroke-width: 0.8; stroke-linecap: square"/>
     </g>
     <g id="line2d_80">
      <g>
       <use xlink:href="#mad7ab28cb2" x="967.764706" y="274.44" style="stroke: #000000; stroke-width: 0.8"/>
      </g>
     </g>
     <g id="text_43">
      <!-- 0 -->
      <g transform="translate(954.402206 278.239219)scale(0.1 -0.1)">
       <use xlink:href="#DejaVuSans-30"/>
      </g>
     </g>
    </g>
    <g id="ytick_14">
     <g id="line2d_81">
      <path d="M 967.764706 229.14 
L 1296 229.14 
" clip-path="url(#pb45ce8d1c3)" style="fill: none; stroke: #b0b0b0; stroke-width: 0.8; stroke-linecap: square"/>
     </g>
     <g id="line2d_82">
      <g>
       <use xlink:href="#mad7ab28cb2" x="967.764706" y="229.14" style="stroke: #000000; stroke-width: 0.8"/>
      </g>
     </g>
     <g id="text_44">
      <!-- 10 -->
      <g transform="translate(948.039706 232.939219)scale(0.1 -0.1)">
       <use xlink:href="#DejaVuSans-31"/>
       <use xlink:href="#DejaVuSans-30" x="63.623047"/>
      </g>
     </g>
    </g>
    <g id="ytick_15">
     <g id="line2d_83">
      <path d="M 967.764706 183.84 
L 1296 183.84 
" clip-path="url(#pb45ce8d1c3)" style="fill: none; stroke: #b0b0b0; stroke-width: 0.8; stroke-linecap: square"/>
     </g>
     <g id="line2d_84">
      <g>
       <use xlink:href="#mad7ab28cb2" x="967.764706" y="183.84" style="stroke: #000000; stroke-width: 0.8"/>
      </g>
     </g>
     <g id="text_45">
      <!-- 20 -->
      <g transform="translate(948.039706 187.639219)scale(0.1 -0.1)">
       <use xlink:href="#DejaVuSans-32"/>
       <use xlink:href="#DejaVuSans-30" x="63.623047"/>
      </g>
     </g>
    </g>
    <g id="ytick_16">
     <g id="line2d_85">
      <path d="M 967.764706 138.54 
L 1296 138.54 
" clip-path="url(#pb45ce8d1c3)" style="fill: none; stroke: #b0b0b0; stroke-width: 0.8; stroke-linecap: square"/>
     </g>
     <g id="line2d_86">
      <g>
       <use xlink:href="#mad7ab28cb2" x="967.764706" y="138.54" style="stroke: #000000; stroke-width: 0.8"/>
      </g>
     </g>
     <g id="text_46">
      <!-- 30 -->
      <g transform="translate(948.039706 142.339219)scale(0.1 -0.1)">
       <use xlink:href="#DejaVuSans-33"/>
       <use xlink:href="#DejaVuSans-30" x="63.623047"/>
      </g>
     </g>
    </g>
    <g id="ytick_17">
     <g id="line2d_87">
      <path d="M 967.764706 93.24 
L 1296 93.24 
" clip-path="url(#pb45ce8d1c3)" style="fill: none; stroke: #b0b0b0; stroke-width: 0.8; stroke-linecap: square"/>
     </g>
     <g id="line2d_88">
      <g>
       <use xlink:href="#mad7ab28cb2" x="967.764706" y="93.24" style="stroke: #000000; stroke-width: 0.8"/>
      </g>
     </g>
     <g id="text_47">
      <!-- 40 -->
      <g transform="translate(948.039706 97.039219)scale(0.1 -0.1)">
       <use xlink:href="#DejaVuSans-34"/>
       <use xlink:href="#DejaVuSans-30" x="63.623047"/>
      </g>
     </g>
    </g>
    <g id="ytick_18">
     <g id="line2d_89">
      <path d="M 967.764706 47.94 
L 1296 47.94 
" clip-path="url(#pb45ce8d1c3)" style="fill: none; stroke: #b0b0b0; stroke-width: 0.8; stroke-linecap: square"/>
     </g>
     <g id="line2d_90">
      <g>
       <use xlink:href="#mad7ab28cb2" x="967.764706" y="47.94" style="stroke: #000000; stroke-width: 0.8"/>
      </g>
     </g>
     <g id="text_48">
      <!-- 50 -->
      <g transform="translate(948.039706 51.739219)scale(0.1 -0.1)">
       <use xlink:href="#DejaVuSans-35"/>
       <use xlink:href="#DejaVuSans-30" x="63.623047"/>
      </g>
     </g>
    </g>
    <g id="text_49">
     <!-- Categorical Units -->
     <g transform="translate(941.960018 204.03375)rotate(-90)scale(0.1 -0.1)">
      <defs>
       <path id="DejaVuSans-43" d="M 4122 4306 
L 4122 3641 
Q 3803 3938 3442 4084 
Q 3081 4231 2675 4231 
Q 1875 4231 1450 3742 
Q 1025 3253 1025 2328 
Q 1025 1406 1450 917 
Q 1875 428 2675 428 
Q 3081 428 3442 575 
Q 3803 722 4122 1019 
L 4122 359 
Q 3791 134 3420 21 
Q 3050 -91 2638 -91 
Q 1578 -91 968 557 
Q 359 1206 359 2328 
Q 359 3453 968 4101 
Q 1578 4750 2638 4750 
Q 3056 4750 3426 4639 
Q 3797 4528 4122 4306 
z
" transform="scale(0.015625)"/>
       <path id="DejaVuSans-67" d="M 2906 1791 
Q 2906 2416 2648 2759 
Q 2391 3103 1925 3103 
Q 1463 3103 1205 2759 
Q 947 2416 947 1791 
Q 947 1169 1205 825 
Q 1463 481 1925 481 
Q 2391 481 2648 825 
Q 2906 1169 2906 1791 
z
M 3481 434 
Q 3481 -459 3084 -895 
Q 2688 -1331 1869 -1331 
Q 1566 -1331 1297 -1286 
Q 1028 -1241 775 -1147 
L 775 -588 
Q 1028 -725 1275 -790 
Q 1522 -856 1778 -856 
Q 2344 -856 2625 -561 
Q 2906 -266 2906 331 
L 2906 616 
Q 2728 306 2450 153 
Q 2172 0 1784 0 
Q 1141 0 747 490 
Q 353 981 353 1791 
Q 353 2603 747 3093 
Q 1141 3584 1784 3584 
Q 2172 3584 2450 3431 
Q 2728 3278 2906 2969 
L 2906 3500 
L 3481 3500 
L 3481 434 
z
" transform="scale(0.015625)"/>
       <path id="DejaVuSans-69" d="M 603 3500 
L 1178 3500 
L 1178 0 
L 603 0 
L 603 3500 
z
M 603 4863 
L 1178 4863 
L 1178 4134 
L 603 4134 
L 603 4863 
z
" transform="scale(0.015625)"/>
       <path id="DejaVuSans-6e" d="M 3513 2113 
L 3513 0 
L 2938 0 
L 2938 2094 
Q 2938 2591 2744 2837 
Q 2550 3084 2163 3084 
Q 1697 3084 1428 2787 
Q 1159 2491 1159 1978 
L 1159 0 
L 581 0 
L 581 3500 
L 1159 3500 
L 1159 2956 
Q 1366 3272 1645 3428 
Q 1925 3584 2291 3584 
Q 2894 3584 3203 3211 
Q 3513 2838 3513 2113 
z
" transform="scale(0.015625)"/>
       <path id="DejaVuSans-73" d="M 2834 3397 
L 2834 2853 
Q 2591 2978 2328 3040 
Q 2066 3103 1784 3103 
Q 1356 3103 1142 2972 
Q 928 2841 928 2578 
Q 928 2378 1081 2264 
Q 1234 2150 1697 2047 
L 1894 2003 
Q 2506 1872 2764 1633 
Q 3022 1394 3022 966 
Q 3022 478 2636 193 
Q 2250 -91 1575 -91 
Q 1294 -91 989 -36 
Q 684 19 347 128 
L 347 722 
Q 666 556 975 473 
Q 1284 391 1588 391 
Q 1994 391 2212 530 
Q 2431 669 2431 922 
Q 2431 1156 2273 1281 
Q 2116 1406 1581 1522 
L 1381 1569 
Q 847 1681 609 1914 
Q 372 2147 372 2553 
Q 372 3047 722 3315 
Q 1072 3584 1716 3584 
Q 2034 3584 2315 3537 
Q 2597 3491 2834 3397 
z
" transform="scale(0.015625)"/>
      </defs>
      <use xlink:href="#DejaVuSans-43"/>
      <use xlink:href="#DejaVuSans-61" x="69.824219"/>
      <use xlink:href="#DejaVuSans-74" x="131.103516"/>
      <use xlink:href="#DejaVuSans-65" x="170.3125"/>
      <use xlink:href="#DejaVuSans-67" x="231.835938"/>
      <use xlink:href="#DejaVuSans-6f" x="295.3125"/>
      <use xlink:href="#DejaVuSans-72" x="356.494141"/>
      <use xlink:href="#DejaVuSans-69" x="397.607422"/>
      <use xlink:href="#DejaVuSans-63" x="425.390625"/>
      <use xlink:href="#DejaVuSans-61" x="480.371094"/>
      <use xlink:href="#DejaVuSans-6c" x="541.650391"/>
      <use xlink:href="#DejaVuSans-20" x="569.433594"/>
      <use xlink:href="#DejaVuSans-55" x="601.220703"/>
      <use xlink:href="#DejaVuSans-6e" x="674.414062"/>
      <use xlink:href="#DejaVuSans-69" x="737.792969"/>
      <use xlink:href="#DejaVuSans-74" x="765.576172"/>
      <use xlink:href="#DejaVuSans-73" x="804.785156"/>
     </g>
    </g>
   </g>
   <g id="line2d_91">
    <path d="M 982.684492 161.19 
L 1281.080214 161.19 
" clip-path="url(#pb45ce8d1c3)" style="fill: none; stroke-dasharray: 1.5,2.475; stroke-dashoffset: 0; stroke: #808080; stroke-width: 1.5"/>
   </g>
   <g id="line2d_92">
    <path d="M 1200.742904 319.74 
L 1200.742904 -1 
" clip-path="url(#pb45ce8d1c3)" style="fill: none; stroke-dasharray: 5.55,2.4; stroke-dashoffset: 0; stroke: #ff0000; stroke-opacity: 0.3; stroke-width: 1.5"/>
   </g>
   <g id="line2d_93">
    <path d="M 1028.68871 274.44 
L 1030.774411 272.459424 
L 1032.860112 270.478848 
L 1034.945814 268.498272 
L 1037.031515 266.517696 
L 1039.117216 264.53712 
L 1041.202918 262.556544 
L 1043.288619 260.575968 
L 1045.374321 258.595392 
L 1047.460022 256.614816 
L 1049.545723 254.63424 
L 1051.631425 252.653664 
L 1053.717126 250.673088 
L 1055.802827 248.692512 
L 1057.888529 246.711936 
L 1059.97423 244.73136 
L 1062.059931 242.750784 
L 1064.145633 240.770208 
L 1066.231334 238.789632 
L 1068.317036 236.809056 
L 1070.402737 234.828481 
L 1072.488438 232.847905 
L 1074.57414 230.867329 
L 1076.659841 228.886753 
L 1078.745542 226.906177 
L 1080.831244 224.925601 
L 1082.916945 222.945025 
L 1085.002646 220.964449 
L 1087.088348 218.983873 
L 1089.174049 217.003297 
L 1091.259751 215.022721 
L 1093.345452 213.042145 
L 1095.431153 211.061569 
L 1097.516855 209.080993 
L 1099.602556 207.100417 
L 1101.688257 205.117046 
L 1103.773959 203.122452 
L 1105.85966 201.115871 
L 1107.945362 199.097085 
L 1110.031063 197.065867 
L 1112.116764 195.021985 
L 1114.202466 192.965199 
L 1116.288167 190.895262 
L 1118.373868 188.811919 
L 1120.45957 186.714905 
L 1122.545271 184.603947 
L 1124.630972 182.478765 
L 1126.716674 180.339065 
L 1128.802375 178.184547 
L 1130.888077 176.014899 
L 1132.973778 173.829796 
L 1135.059479 171.628905 
L 1137.145181 169.411878 
L 1139.230882 167.178354 
L 1141.316583 164.927959 
L 1143.402285 162.660307 
L 1145.487986 160.374993 
L 1147.573687 158.071598 
L 1149.659389 155.749686 
L 1151.74509 153.408803 
L 1153.830792 151.048477 
L 1155.916493 148.668215 
L 1158.002194 146.267502 
L 1160.087896 143.845803 
L 1162.173597 141.402558 
L 1164.259298 138.93718 
L 1166.345 136.449058 
L 1168.430701 133.937549 
L 1170.516403 131.401982 
L 1172.602104 128.841652 
L 1174.687805 126.255819 
L 1176.773507 123.643706 
L 1178.859208 121.004493 
L 1180.944909 118.33732 
L 1183.030611 115.641405 
L 1185.116312 112.933349 
L 1187.202013 110.225293 
L 1189.287715 107.517236 
L 1191.373416 104.80918 
L 1193.459118 102.101124 
L 1195.544819 99.393068 
L 1197.63052 96.685012 
L 1199.716222 93.976955 
L 1201.801923 91.268899 
L 1203.887624 88.560843 
L 1205.973326 85.852787 
L 1208.059027 83.144731 
L 1210.144728 80.436674 
L 1212.23043 77.728618 
L 1214.316131 75.020562 
L 1216.401833 72.312506 
L 1218.487534 69.60445 
L 1220.573235 66.896393 
L 1222.658937 64.188337 
L 1224.744638 61.480281 
L 1226.830339 58.772225 
L 1228.916041 56.064169 
L 1231.001742 53.356112 
L 1233.087444 50.648056 
L 1235.173145 47.94 
" clip-path="url(#pb45ce8d1c3)" style="fill: none; stroke: #1f77b4; stroke-width: 1.5; stroke-linecap: square"/>
   </g>
   <g id="line2d_94">
    <path d="M 1026.892131 274.44 
L 1028.601819 272.97042 
L 1030.311507 271.500839 
L 1032.021195 270.031259 
L 1033.730883 268.561678 
L 1035.440571 267.092098 
L 1037.150259 265.622517 
L 1038.859947 264.152937 
L 1040.569635 262.683357 
L 1042.279323 261.213776 
L 1043.989011 259.744196 
L 1045.698698 258.274615 
L 1047.408386 256.805035 
L 1049.118074 255.335454 
L 1050.827762 253.865874 
L 1052.53745 252.396293 
L 1054.247138 250.926713 
L 1055.956826 249.457133 
L 1057.666514 247.987552 
L 1059.376202 246.517972 
L 1061.08589 245.048391 
L 1062.795578 243.578811 
L 1064.505266 242.10923 
L 1066.214954 240.63965 
L 1067.924642 239.17007 
L 1069.63433 237.700489 
L 1071.344018 236.230909 
L 1073.053706 234.761328 
L 1074.763394 233.291748 
L 1076.473082 231.822167 
L 1078.18277 230.352587 
L 1079.892458 228.883007 
L 1081.602146 227.413426 
L 1083.311833 225.943846 
L 1085.021521 224.474265 
L 1086.731209 223.004685 
L 1088.440897 221.535104 
L 1090.150585 220.065524 
L 1091.860273 218.595944 
L 1093.569961 217.126363 
L 1095.279649 215.656783 
L 1096.989337 214.187202 
L 1098.699025 212.717622 
L 1100.408713 211.248041 
L 1102.118401 209.778461 
L 1103.828089 208.30888 
L 1105.537777 206.8393 
L 1107.247465 205.364721 
L 1108.957153 203.873104 
L 1110.666841 202.363331 
L 1112.376529 200.83472 
L 1114.086217 199.28655 
L 1115.795905 197.718049 
L 1117.505593 196.128394 
L 1119.21528 194.516707 
L 1120.924968 192.882044 
L 1122.634656 191.223395 
L 1124.344344 189.539671 
L 1126.054032 187.829699 
L 1127.76372 186.092212 
L 1129.473408 184.325838 
L 1131.183096 182.529086 
L 1132.892784 180.700332 
L 1134.602472 178.837804 
L 1136.31216 176.939557 
L 1138.021848 175.003455 
L 1139.731536 173.027138 
L 1141.441224 171.007991 
L 1143.150912 168.943102 
L 1144.8606 166.829215 
L 1146.570288 164.662666 
L 1148.279976 162.439311 
L 1149.989664 160.154434 
L 1151.699352 157.802625 
L 1153.40904 155.377634 
L 1155.118728 152.872172 
L 1156.828415 150.277652 
L 1158.538103 147.583844 
L 1160.247791 144.778392 
L 1161.957479 141.846147 
L 1163.667167 138.768185 
L 1165.376855 135.520348 
L 1167.086543 132.070959 
L 1168.796231 128.377067 
L 1170.505919 124.377887 
L 1172.215607 119.982286 
L 1173.925295 115.052064 
L 1175.634983 109.889598 
L 1177.344671 104.727131 
L 1179.054359 99.564665 
L 1180.764047 94.402198 
L 1182.473735 89.239732 
L 1184.183423 84.077265 
L 1185.893111 78.914799 
L 1187.602799 73.752332 
L 1189.312487 68.589866 
L 1191.022175 63.427399 
L 1192.731862 58.264933 
L 1194.44155 53.102466 
L 1196.151238 47.94 
" clip-path="url(#pb45ce8d1c3)" style="fill: none; stroke-dasharray: 5.55,2.4; stroke-dashoffset: 0; stroke: #ff7f0e; stroke-width: 1.5"/>
   </g>
   <g id="patch_15">
    <path d="M 967.764706 283.5 
L 967.764706 38.88 
" style="fill: none; stroke: #000000; stroke-width: 0.8; stroke-linejoin: miter; stroke-linecap: square"/>
   </g>
   <g id="patch_16">
    <path d="M 1296 283.5 
L 1296 38.88 
" style="fill: none; stroke: #000000; stroke-width: 0.8; stroke-linejoin: miter; stroke-linecap: square"/>
   </g>
   <g id="patch_17">
    <path d="M 967.764706 283.5 
L 1296 283.5 
" style="fill: none; stroke: #000000; stroke-width: 0.8; stroke-linejoin: miter; stroke-linecap: square"/>
   </g>
   <g id="patch_18">
    <path d="M 967.764706 38.88 
L 1296 38.88 
" style="fill: none; stroke: #000000; stroke-width: 0.8; stroke-linejoin: miter; stroke-linecap: square"/>
   </g>
   <g id="text_50">
    <!--  Block: 2 -->
    <g transform="translate(1106.001728 32.88)scale(0.12 -0.12)">
     <use xlink:href="#DejaVuSans-20"/>
     <use xlink:href="#DejaVuSans-42" x="31.787109"/>
     <use xlink:href="#DejaVuSans-6c" x="100.390625"/>
     <use xlink:href="#DejaVuSans-6f" x="128.173828"/>
     <use xlink:href="#DejaVuSans-63" x="189.355469"/>
     <use xlink:href="#DejaVuSans-6b" x="244.335938"/>
     <use xlink:href="#DejaVuSans-3a" x="302.246094"/>
     <use xlink:href="#DejaVuSans-20" x="335.9375"/>
     <use xlink:href="#DejaVuSans-32" x="367.724609"/>
    </g>
   </g>
   <g id="legend_3">
    <g id="patch_19">
     <path d="M 974.764706 91.1925 
L 1105.964706 91.1925 
Q 1107.964706 91.1925 1107.964706 89.1925 
L 1107.964706 45.88 
Q 1107.964706 43.88 1105.964706 43.88 
L 974.764706 43.88 
Q 972.764706 43.88 972.764706 45.88 
L 972.764706 89.1925 
Q 972.764706 91.1925 974.764706 91.1925 
z
" style="fill: #ffffff; opacity: 0.8; stroke: #cccccc; stroke-linejoin: miter"/>
    </g>
    <g id="PathCollection_6">
     <g>
      <use xlink:href="#md5e9321df9" x="986.764706" y="52.853437" style="stroke: #000000"/>
     </g>
    </g>
    <g id="text_51">
     <!-- Data -->
     <g transform="translate(1004.764706 55.478437)scale(0.1 -0.1)">
      <use xlink:href="#DejaVuSans-44"/>
      <use xlink:href="#DejaVuSans-61" x="77.001953"/>
      <use xlink:href="#DejaVuSans-74" x="138.28125"/>
      <use xlink:href="#DejaVuSans-61" x="177.490234"/>
     </g>
    </g>
    <g id="line2d_95">
     <path d="M 976.764706 66.656562 
L 986.764706 66.656562 
L 996.764706 66.656562 
" style="fill: none; stroke: #1f77b4; stroke-width: 1.5; stroke-linecap: square"/>
    </g>
    <g id="text_52">
     <!-- Artc e:0.2701 -->
     <g transform="translate(1004.764706 70.156562)scale(0.1 -0.1)">
      <defs>
       <path id="DejaVuSans-37" d="M 525 4666 
L 3525 4666 
L 3525 4397 
L 1831 0 
L 1172 0 
L 2766 4134 
L 525 4134 
L 525 4666 
z
" transform="scale(0.015625)"/>
      </defs>
      <use xlink:href="#DejaVuSans-41"/>
      <use xlink:href="#DejaVuSans-72" x="68.408203"/>
      <use xlink:href="#DejaVuSans-74" x="109.521484"/>
      <use xlink:href="#DejaVuSans-63" x="148.730469"/>
      <use xlink:href="#DejaVuSans-20" x="203.710938"/>
      <use xlink:href="#DejaVuSans-65" x="235.498047"/>
      <use xlink:href="#DejaVuSans-3a" x="297.021484"/>
      <use xlink:href="#DejaVuSans-30" x="330.712891"/>
      <use xlink:href="#DejaVuSans-2e" x="394.335938"/>
      <use xlink:href="#DejaVuSans-32" x="426.123047"/>
      <use xlink:href="#DejaVuSans-37" x="489.746094"/>
      <use xlink:href="#DejaVuSans-30" x="553.369141"/>
      <use xlink:href="#DejaVuSans-31" x="616.992188"/>
     </g>
    </g>
    <g id="line2d_96">
     <path d="M 976.764706 81.334687 
L 986.764706 81.334687 
L 996.764706 81.334687 
" style="fill: none; stroke-dasharray: 5.55,2.4; stroke-dashoffset: 0; stroke: #ff7f0e; stroke-width: 1.5"/>
    </g>
    <g id="text_53">
     <!-- NEL_BTUX e:0.2302 -->
     <g transform="translate(1004.764706 84.834687)scale(0.1 -0.1)">
      <use xlink:href="#DejaVuSans-4e"/>
      <use xlink:href="#DejaVuSans-45" x="74.804688"/>
      <use xlink:href="#DejaVuSans-4c" x="137.988281"/>
      <use xlink:href="#DejaVuSans-5f" x="193.701172"/>
      <use xlink:href="#DejaVuSans-42" x="243.701172"/>
      <use xlink:href="#DejaVuSans-54" x="312.304688"/>
      <use xlink:href="#DejaVuSans-55" x="373.388672"/>
      <use xlink:href="#DejaVuSans-58" x="446.582031"/>
      <use xlink:href="#DejaVuSans-20" x="515.087891"/>
      <use xlink:href="#DejaVuSans-65" x="546.875"/>
      <use xlink:href="#DejaVuSans-3a" x="608.398438"/>
      <use xlink:href="#DejaVuSans-30" x="642.089844"/>
      <use xlink:href="#DejaVuSans-2e" x="705.712891"/>
      <use xlink:href="#DejaVuSans-32" x="737.5"/>
      <use xlink:href="#DejaVuSans-33" x="801.123047"/>
      <use xlink:href="#DejaVuSans-30" x="864.746094"/>
      <use xlink:href="#DejaVuSans-32" x="928.369141"/>
     </g>
    </g>
   </g>
  </g>
  <g id="text_54">
   <!-- ID: 3634, Max level: 85dB -->
   <g transform="translate(655.440625 14.078438)scale(0.1 -0.1)">
    <defs>
     <path id="DejaVuSans-49" d="M 628 4666 
L 1259 4666 
L 1259 0 
L 628 0 
L 628 4666 
z
" transform="scale(0.015625)"/>
     <path id="DejaVuSans-2c" d="M 750 794 
L 1409 794 
L 1409 256 
L 897 -744 
L 494 -744 
L 750 256 
L 750 794 
z
" transform="scale(0.015625)"/>
     <path id="DejaVuSans-4d" d="M 628 4666 
L 1569 4666 
L 2759 1491 
L 3956 4666 
L 4897 4666 
L 4897 0 
L 4281 0 
L 4281 4097 
L 3078 897 
L 2444 897 
L 1241 4097 
L 1241 0 
L 628 0 
L 628 4666 
z
" transform="scale(0.015625)"/>
     <path id="DejaVuSans-78" d="M 3513 3500 
L 2247 1797 
L 3578 0 
L 2900 0 
L 1881 1375 
L 863 0 
L 184 0 
L 1544 1831 
L 300 3500 
L 978 3500 
L 1906 2253 
L 2834 3500 
L 3513 3500 
z
" transform="scale(0.015625)"/>
    </defs>
    <use xlink:href="#DejaVuSans-49"/>
    <use xlink:href="#DejaVuSans-44" x="29.492188"/>
    <use xlink:href="#DejaVuSans-3a" x="106.494141"/>
    <use xlink:href="#DejaVuSans-20" x="140.185547"/>
    <use xlink:href="#DejaVuSans-33" x="171.972656"/>
    <use xlink:href="#DejaVuSans-36" x="235.595703"/>
    <use xlink:href="#DejaVuSans-33" x="299.21875"/>
    <use xlink:href="#DejaVuSans-34" x="362.841797"/>
    <use xlink:href="#DejaVuSans-2c" x="426.464844"/>
    <use xlink:href="#DejaVuSans-20" x="458.251953"/>
    <use xlink:href="#DejaVuSans-4d" x="490.039062"/>
    <use xlink:href="#DejaVuSans-61" x="576.318359"/>
    <use xlink:href="#DejaVuSans-78" x="637.597656"/>
    <use xlink:href="#DejaVuSans-20" x="696.777344"/>
    <use xlink:href="#DejaVuSans-6c" x="728.564453"/>
    <use xlink:href="#DejaVuSans-65" x="756.347656"/>
    <use xlink:href="#DejaVuSans-76" x="817.871094"/>
    <use xlink:href="#DejaVuSans-65" x="877.050781"/>
    <use xlink:href="#DejaVuSans-6c" x="938.574219"/>
    <use xlink:href="#DejaVuSans-3a" x="966.357422"/>
    <use xlink:href="#DejaVuSans-20" x="1000.048828"/>
    <use xlink:href="#DejaVuSans-38" x="1031.835938"/>
    <use xlink:href="#DejaVuSans-35" x="1095.458984"/>
    <use xlink:href="#DejaVuSans-64" x="1159.082031"/>
    <use xlink:href="#DejaVuSans-42" x="1222.558594"/>
   </g>
  </g>
 </g>
 <defs>
  <clipPath id="pc61b03d46b">
   <rect x="180" y="38.88" width="328.235294" height="244.62"/>
  </clipPath>
  <clipPath id="pe1f3a93ac5">
   <rect x="573.882353" y="38.88" width="328.235294" height="244.62"/>
  </clipPath>
  <clipPath id="pb45ce8d1c3">
   <rect x="967.764706" y="38.88" width="328.235294" height="244.62"/>
  </clipPath>
 </defs>
</svg>
