<?xml version="1.0" encoding="utf-8" standalone="no"?>
<!DOCTYPE svg PUBLIC "-//W3C//DTD SVG 1.1//EN"
  "http://www.w3.org/Graphics/SVG/1.1/DTD/svg11.dtd">
<svg xmlns:xlink="http://www.w3.org/1999/xlink" width="1440pt" height="324pt" viewBox="0 0 1440 324" xmlns="http://www.w3.org/2000/svg" version="1.1">
 <metadata>
  <rdf:RDF xmlns:dc="http://purl.org/dc/elements/1.1/" xmlns:cc="http://creativecommons.org/ns#" xmlns:rdf="http://www.w3.org/1999/02/22-rdf-syntax-ns#">
   <cc:Work>
    <dc:type rdf:resource="http://purl.org/dc/dcmitype/StillImage"/>
    <dc:date>2024-05-16T19:36:32.665098</dc:date>
    <dc:format>image/svg+xml</dc:format>
    <dc:creator>
     <cc:Agent>
      <dc:title>Matplotlib v3.8.0, https://matplotlib.org/</dc:title>
     </cc:Agent>
    </dc:creator>
   </cc:Work>
  </rdf:RDF>
 </metadata>
 <defs>
  <style type="text/css">*{stroke-linejoin: round; stroke-linecap: butt}</style>
 </defs>
 <g id="figure_1">
  <g id="patch_1">
   <path d="M 0 324 
L 1440 324 
L 1440 0 
L 0 0 
z
" style="fill: #ffffff"/>
  </g>
  <g id="axes_1">
   <g id="patch_2">
    <path d="M 180 288.36 
L 508.235294 288.36 
L 508.235294 38.88 
L 180 38.88 
z
" style="fill: #ffffff"/>
   </g>
   <g id="PathCollection_1">
    <defs>
     <path id="m41a43a65af" d="M 0 3 
C 0.795609 3 1.55874 2.683901 2.12132 2.12132 
C 2.683901 1.55874 3 0.795609 3 0 
C 3 -0.795609 2.683901 -1.55874 2.12132 -2.12132 
C 1.55874 -2.683901 0.795609 -3 0 -3 
C -0.795609 -3 -1.55874 -2.683901 -2.12132 -2.12132 
C -2.683901 -1.55874 -3 -0.795609 -3 0 
C -3 0.795609 -2.683901 1.55874 -2.12132 2.12132 
C -1.55874 2.683901 -0.795609 3 0 3 
z
" style="stroke: #000000"/>
    </defs>
    <g clip-path="url(#p27ab6a0ae0)">
     <use xlink:href="#m41a43a65af" x="427.785467" y="140.52" style="stroke: #000000"/>
     <use xlink:href="#m41a43a65af" x="459.965398" y="94.32" style="stroke: #000000"/>
     <use xlink:href="#m41a43a65af" x="379.515571" y="186.72" style="stroke: #000000"/>
     <use xlink:href="#m41a43a65af" x="331.245675" y="232.92" style="stroke: #000000"/>
     <use xlink:href="#m41a43a65af" x="282.975779" y="256.02" style="stroke: #000000"/>
     <use xlink:href="#m41a43a65af" x="234.705882" y="279.12" style="stroke: #000000"/>
     <use xlink:href="#m41a43a65af" x="250.795848" y="279.12" style="stroke: #000000"/>
     <use xlink:href="#m41a43a65af" x="266.885813" y="232.92" style="stroke: #000000"/>
     <use xlink:href="#m41a43a65af" x="234.705882" y="256.02" style="stroke: #000000"/>
     <use xlink:href="#m41a43a65af" x="347.33564" y="186.72" style="stroke: #000000"/>
     <use xlink:href="#m41a43a65af" x="291.020761" y="232.92" style="stroke: #000000"/>
     <use xlink:href="#m41a43a65af" x="403.650519" y="186.72" style="stroke: #000000"/>
     <use xlink:href="#m41a43a65af" x="459.965398" y="48.12" style="stroke: #000000"/>
     <use xlink:href="#m41a43a65af" x="251.034301" y="279.12" style="stroke: #000000"/>
     <use xlink:href="#m41a43a65af" x="355.50001" y="186.72" style="stroke: #000000"/>
     <use xlink:href="#m41a43a65af" x="459.965398" y="48.12" style="stroke: #000000"/>
     <use xlink:href="#m41a43a65af" x="303.267156" y="232.92" style="stroke: #000000"/>
     <use xlink:href="#m41a43a65af" x="407.732543" y="186.72" style="stroke: #000000"/>
    </g>
   </g>
   <g id="matplotlib.axis_1">
    <g id="xtick_1">
     <g id="line2d_1">
      <path d="M 186.435986 288.36 
L 186.435986 38.88 
" clip-path="url(#p27ab6a0ae0)" style="fill: none; stroke: #b0b0b0; stroke-width: 0.8; stroke-linecap: square"/>
     </g>
     <g id="line2d_2">
      <defs>
       <path id="mad75e438d5" d="M 0 0 
L 0 3.5 
" style="stroke: #000000; stroke-width: 0.8"/>
      </defs>
      <g>
       <use xlink:href="#mad75e438d5" x="186.435986" y="288.36" style="stroke: #000000; stroke-width: 0.8"/>
      </g>
     </g>
     <g id="text_1">
      <!-- 0 -->
      <g transform="translate(183.254736 302.958438) scale(0.1 -0.1)">
       <defs>
        <path id="DejaVuSans-30" d="M 2034 4250 
Q 1547 4250 1301 3770 
Q 1056 3291 1056 2328 
Q 1056 1369 1301 889 
Q 1547 409 2034 409 
Q 2525 409 2770 889 
Q 3016 1369 3016 2328 
Q 3016 3291 2770 3770 
Q 2525 4250 2034 4250 
z
M 2034 4750 
Q 2819 4750 3233 4129 
Q 3647 3509 3647 2328 
Q 3647 1150 3233 529 
Q 2819 -91 2034 -91 
Q 1250 -91 836 529 
Q 422 1150 422 2328 
Q 422 3509 836 4129 
Q 1250 4750 2034 4750 
z
" transform="scale(0.015625)"/>
       </defs>
       <use xlink:href="#DejaVuSans-30"/>
      </g>
     </g>
    </g>
    <g id="xtick_2">
     <g id="line2d_3">
      <path d="M 250.795848 288.36 
L 250.795848 38.88 
" clip-path="url(#p27ab6a0ae0)" style="fill: none; stroke: #b0b0b0; stroke-width: 0.8; stroke-linecap: square"/>
     </g>
     <g id="line2d_4">
      <g>
       <use xlink:href="#mad75e438d5" x="250.795848" y="288.36" style="stroke: #000000; stroke-width: 0.8"/>
      </g>
     </g>
     <g id="text_2">
      <!-- 20 -->
      <g transform="translate(244.433348 302.958438) scale(0.1 -0.1)">
       <defs>
        <path id="DejaVuSans-32" d="M 1228 531 
L 3431 531 
L 3431 0 
L 469 0 
L 469 531 
Q 828 903 1448 1529 
Q 2069 2156 2228 2338 
Q 2531 2678 2651 2914 
Q 2772 3150 2772 3378 
Q 2772 3750 2511 3984 
Q 2250 4219 1831 4219 
Q 1534 4219 1204 4116 
Q 875 4013 500 3803 
L 500 4441 
Q 881 4594 1212 4672 
Q 1544 4750 1819 4750 
Q 2544 4750 2975 4387 
Q 3406 4025 3406 3419 
Q 3406 3131 3298 2873 
Q 3191 2616 2906 2266 
Q 2828 2175 2409 1742 
Q 1991 1309 1228 531 
z
" transform="scale(0.015625)"/>
       </defs>
       <use xlink:href="#DejaVuSans-32"/>
       <use xlink:href="#DejaVuSans-30" x="63.623047"/>
      </g>
     </g>
    </g>
    <g id="xtick_3">
     <g id="line2d_5">
      <path d="M 315.155709 288.36 
L 315.155709 38.88 
" clip-path="url(#p27ab6a0ae0)" style="fill: none; stroke: #b0b0b0; stroke-width: 0.8; stroke-linecap: square"/>
     </g>
     <g id="line2d_6">
      <g>
       <use xlink:href="#mad75e438d5" x="315.155709" y="288.36" style="stroke: #000000; stroke-width: 0.8"/>
      </g>
     </g>
     <g id="text_3">
      <!-- 40 -->
      <g transform="translate(308.793209 302.958438) scale(0.1 -0.1)">
       <defs>
        <path id="DejaVuSans-34" d="M 2419 4116 
L 825 1625 
L 2419 1625 
L 2419 4116 
z
M 2253 4666 
L 3047 4666 
L 3047 1625 
L 3713 1625 
L 3713 1100 
L 3047 1100 
L 3047 0 
L 2419 0 
L 2419 1100 
L 313 1100 
L 313 1709 
L 2253 4666 
z
" transform="scale(0.015625)"/>
       </defs>
       <use xlink:href="#DejaVuSans-34"/>
       <use xlink:href="#DejaVuSans-30" x="63.623047"/>
      </g>
     </g>
    </g>
    <g id="xtick_4">
     <g id="line2d_7">
      <path d="M 379.515571 288.36 
L 379.515571 38.88 
" clip-path="url(#p27ab6a0ae0)" style="fill: none; stroke: #b0b0b0; stroke-width: 0.8; stroke-linecap: square"/>
     </g>
     <g id="line2d_8">
      <g>
       <use xlink:href="#mad75e438d5" x="379.515571" y="288.36" style="stroke: #000000; stroke-width: 0.8"/>
      </g>
     </g>
     <g id="text_4">
      <!-- 60 -->
      <g transform="translate(373.153071 302.958438) scale(0.1 -0.1)">
       <defs>
        <path id="DejaVuSans-36" d="M 2113 2584 
Q 1688 2584 1439 2293 
Q 1191 2003 1191 1497 
Q 1191 994 1439 701 
Q 1688 409 2113 409 
Q 2538 409 2786 701 
Q 3034 994 3034 1497 
Q 3034 2003 2786 2293 
Q 2538 2584 2113 2584 
z
M 3366 4563 
L 3366 3988 
Q 3128 4100 2886 4159 
Q 2644 4219 2406 4219 
Q 1781 4219 1451 3797 
Q 1122 3375 1075 2522 
Q 1259 2794 1537 2939 
Q 1816 3084 2150 3084 
Q 2853 3084 3261 2657 
Q 3669 2231 3669 1497 
Q 3669 778 3244 343 
Q 2819 -91 2113 -91 
Q 1303 -91 875 529 
Q 447 1150 447 2328 
Q 447 3434 972 4092 
Q 1497 4750 2381 4750 
Q 2619 4750 2861 4703 
Q 3103 4656 3366 4563 
z
" transform="scale(0.015625)"/>
       </defs>
       <use xlink:href="#DejaVuSans-36"/>
       <use xlink:href="#DejaVuSans-30" x="63.623047"/>
      </g>
     </g>
    </g>
    <g id="xtick_5">
     <g id="line2d_9">
      <path d="M 443.875433 288.36 
L 443.875433 38.88 
" clip-path="url(#p27ab6a0ae0)" style="fill: none; stroke: #b0b0b0; stroke-width: 0.8; stroke-linecap: square"/>
     </g>
     <g id="line2d_10">
      <g>
       <use xlink:href="#mad75e438d5" x="443.875433" y="288.36" style="stroke: #000000; stroke-width: 0.8"/>
      </g>
     </g>
     <g id="text_5">
      <!-- 80 -->
      <g transform="translate(437.512933 302.958438) scale(0.1 -0.1)">
       <defs>
        <path id="DejaVuSans-38" d="M 2034 2216 
Q 1584 2216 1326 1975 
Q 1069 1734 1069 1313 
Q 1069 891 1326 650 
Q 1584 409 2034 409 
Q 2484 409 2743 651 
Q 3003 894 3003 1313 
Q 3003 1734 2745 1975 
Q 2488 2216 2034 2216 
z
M 1403 2484 
Q 997 2584 770 2862 
Q 544 3141 544 3541 
Q 544 4100 942 4425 
Q 1341 4750 2034 4750 
Q 2731 4750 3128 4425 
Q 3525 4100 3525 3541 
Q 3525 3141 3298 2862 
Q 3072 2584 2669 2484 
Q 3125 2378 3379 2068 
Q 3634 1759 3634 1313 
Q 3634 634 3220 271 
Q 2806 -91 2034 -91 
Q 1263 -91 848 271 
Q 434 634 434 1313 
Q 434 1759 690 2068 
Q 947 2378 1403 2484 
z
M 1172 3481 
Q 1172 3119 1398 2916 
Q 1625 2713 2034 2713 
Q 2441 2713 2670 2916 
Q 2900 3119 2900 3481 
Q 2900 3844 2670 4047 
Q 2441 4250 2034 4250 
Q 1625 4250 1398 4047 
Q 1172 3844 1172 3481 
z
" transform="scale(0.015625)"/>
       </defs>
       <use xlink:href="#DejaVuSans-38"/>
       <use xlink:href="#DejaVuSans-30" x="63.623047"/>
      </g>
     </g>
    </g>
    <g id="xtick_6">
     <g id="line2d_11">
      <path d="M 508.235294 288.36 
L 508.235294 38.88 
" clip-path="url(#p27ab6a0ae0)" style="fill: none; stroke: #b0b0b0; stroke-width: 0.8; stroke-linecap: square"/>
     </g>
     <g id="line2d_12">
      <g>
       <use xlink:href="#mad75e438d5" x="508.235294" y="288.36" style="stroke: #000000; stroke-width: 0.8"/>
      </g>
     </g>
     <g id="text_6">
      <!-- 100 -->
      <g transform="translate(498.691544 302.958438) scale(0.1 -0.1)">
       <defs>
        <path id="DejaVuSans-31" d="M 794 531 
L 1825 531 
L 1825 4091 
L 703 3866 
L 703 4441 
L 1819 4666 
L 2450 4666 
L 2450 531 
L 3481 531 
L 3481 0 
L 794 0 
L 794 531 
z
" transform="scale(0.015625)"/>
       </defs>
       <use xlink:href="#DejaVuSans-31"/>
       <use xlink:href="#DejaVuSans-30" x="63.623047"/>
       <use xlink:href="#DejaVuSans-30" x="127.246094"/>
      </g>
     </g>
    </g>
   </g>
   <g id="matplotlib.axis_2">
    <g id="ytick_1">
     <g id="line2d_13">
      <path d="M 180 279.12 
L 508.235294 279.12 
" clip-path="url(#p27ab6a0ae0)" style="fill: none; stroke: #b0b0b0; stroke-width: 0.8; stroke-linecap: square"/>
     </g>
     <g id="line2d_14">
      <defs>
       <path id="mfbe01b7451" d="M 0 0 
L -3.5 0 
" style="stroke: #000000; stroke-width: 0.8"/>
      </defs>
      <g>
       <use xlink:href="#mfbe01b7451" x="180" y="279.12" style="stroke: #000000; stroke-width: 0.8"/>
      </g>
     </g>
     <g id="text_7">
      <!-- 0 -->
      <g transform="translate(166.6375 282.919219) scale(0.1 -0.1)">
       <use xlink:href="#DejaVuSans-30"/>
      </g>
     </g>
    </g>
    <g id="ytick_2">
     <g id="line2d_15">
      <path d="M 180 232.92 
L 508.235294 232.92 
" clip-path="url(#p27ab6a0ae0)" style="fill: none; stroke: #b0b0b0; stroke-width: 0.8; stroke-linecap: square"/>
     </g>
     <g id="line2d_16">
      <g>
       <use xlink:href="#mfbe01b7451" x="180" y="232.92" style="stroke: #000000; stroke-width: 0.8"/>
      </g>
     </g>
     <g id="text_8">
      <!-- 10 -->
      <g transform="translate(160.275 236.719219) scale(0.1 -0.1)">
       <use xlink:href="#DejaVuSans-31"/>
       <use xlink:href="#DejaVuSans-30" x="63.623047"/>
      </g>
     </g>
    </g>
    <g id="ytick_3">
     <g id="line2d_17">
      <path d="M 180 186.72 
L 508.235294 186.72 
" clip-path="url(#p27ab6a0ae0)" style="fill: none; stroke: #b0b0b0; stroke-width: 0.8; stroke-linecap: square"/>
     </g>
     <g id="line2d_18">
      <g>
       <use xlink:href="#mfbe01b7451" x="180" y="186.72" style="stroke: #000000; stroke-width: 0.8"/>
      </g>
     </g>
     <g id="text_9">
      <!-- 20 -->
      <g transform="translate(160.275 190.519219) scale(0.1 -0.1)">
       <use xlink:href="#DejaVuSans-32"/>
       <use xlink:href="#DejaVuSans-30" x="63.623047"/>
      </g>
     </g>
    </g>
    <g id="ytick_4">
     <g id="line2d_19">
      <path d="M 180 140.52 
L 508.235294 140.52 
" clip-path="url(#p27ab6a0ae0)" style="fill: none; stroke: #b0b0b0; stroke-width: 0.8; stroke-linecap: square"/>
     </g>
     <g id="line2d_20">
      <g>
       <use xlink:href="#mfbe01b7451" x="180" y="140.52" style="stroke: #000000; stroke-width: 0.8"/>
      </g>
     </g>
     <g id="text_10">
      <!-- 30 -->
      <g transform="translate(160.275 144.319219) scale(0.1 -0.1)">
       <defs>
        <path id="DejaVuSans-33" d="M 2597 2516 
Q 3050 2419 3304 2112 
Q 3559 1806 3559 1356 
Q 3559 666 3084 287 
Q 2609 -91 1734 -91 
Q 1441 -91 1130 -33 
Q 819 25 488 141 
L 488 750 
Q 750 597 1062 519 
Q 1375 441 1716 441 
Q 2309 441 2620 675 
Q 2931 909 2931 1356 
Q 2931 1769 2642 2001 
Q 2353 2234 1838 2234 
L 1294 2234 
L 1294 2753 
L 1863 2753 
Q 2328 2753 2575 2939 
Q 2822 3125 2822 3475 
Q 2822 3834 2567 4026 
Q 2313 4219 1838 4219 
Q 1578 4219 1281 4162 
Q 984 4106 628 3988 
L 628 4550 
Q 988 4650 1302 4700 
Q 1616 4750 1894 4750 
Q 2613 4750 3031 4423 
Q 3450 4097 3450 3541 
Q 3450 3153 3228 2886 
Q 3006 2619 2597 2516 
z
" transform="scale(0.015625)"/>
       </defs>
       <use xlink:href="#DejaVuSans-33"/>
       <use xlink:href="#DejaVuSans-30" x="63.623047"/>
      </g>
     </g>
    </g>
    <g id="ytick_5">
     <g id="line2d_21">
      <path d="M 180 94.32 
L 508.235294 94.32 
" clip-path="url(#p27ab6a0ae0)" style="fill: none; stroke: #b0b0b0; stroke-width: 0.8; stroke-linecap: square"/>
     </g>
     <g id="line2d_22">
      <g>
       <use xlink:href="#mfbe01b7451" x="180" y="94.32" style="stroke: #000000; stroke-width: 0.8"/>
      </g>
     </g>
     <g id="text_11">
      <!-- 40 -->
      <g transform="translate(160.275 98.119219) scale(0.1 -0.1)">
       <use xlink:href="#DejaVuSans-34"/>
       <use xlink:href="#DejaVuSans-30" x="63.623047"/>
      </g>
     </g>
    </g>
    <g id="ytick_6">
     <g id="line2d_23">
      <path d="M 180 48.12 
L 508.235294 48.12 
" clip-path="url(#p27ab6a0ae0)" style="fill: none; stroke: #b0b0b0; stroke-width: 0.8; stroke-linecap: square"/>
     </g>
     <g id="line2d_24">
      <g>
       <use xlink:href="#mfbe01b7451" x="180" y="48.12" style="stroke: #000000; stroke-width: 0.8"/>
      </g>
     </g>
     <g id="text_12">
      <!-- 50 -->
      <g transform="translate(160.275 51.919219) scale(0.1 -0.1)">
       <defs>
        <path id="DejaVuSans-35" d="M 691 4666 
L 3169 4666 
L 3169 4134 
L 1269 4134 
L 1269 2991 
Q 1406 3038 1543 3061 
Q 1681 3084 1819 3084 
Q 2600 3084 3056 2656 
Q 3513 2228 3513 1497 
Q 3513 744 3044 326 
Q 2575 -91 1722 -91 
Q 1428 -91 1123 -41 
Q 819 9 494 109 
L 494 744 
Q 775 591 1075 516 
Q 1375 441 1709 441 
Q 2250 441 2565 725 
Q 2881 1009 2881 1497 
Q 2881 1984 2565 2268 
Q 2250 2553 1709 2553 
Q 1456 2553 1204 2497 
Q 953 2441 691 2322 
L 691 4666 
z
" transform="scale(0.015625)"/>
       </defs>
       <use xlink:href="#DejaVuSans-35"/>
       <use xlink:href="#DejaVuSans-30" x="63.623047"/>
      </g>
     </g>
    </g>
   </g>
   <g id="line2d_25">
    <path d="M 154.256055 163.62 
L 572.595156 163.62 
" clip-path="url(#p27ab6a0ae0)" style="fill: none; stroke-dasharray: 1.5,2.475; stroke-dashoffset: 0; stroke: #808080; stroke-width: 1.5"/>
   </g>
   <g id="line2d_26">
    <path d="M 459.965398 325 
L 459.965398 -1 
" clip-path="url(#p27ab6a0ae0)" style="fill: none; stroke-dasharray: 5.55,2.4; stroke-dashoffset: 0; stroke: #ff0000; stroke-opacity: 0.3; stroke-width: 1.5"/>
   </g>
   <g id="line2d_27">
    <path d="M 232.308077 279.12 
L 235.09522 277.214739 
L 237.882364 275.309478 
L 240.669507 273.404217 
L 243.456651 271.498955 
L 246.243794 269.593694 
L 249.030938 267.688433 
L 251.818081 265.783172 
L 254.605225 263.877911 
L 257.392368 261.97265 
L 260.179511 260.067389 
L 262.966655 258.162127 
L 265.753798 256.256866 
L 268.540942 254.351605 
L 271.328085 252.446344 
L 274.115229 250.541083 
L 276.902372 248.635822 
L 279.689516 246.730561 
L 282.476659 244.8253 
L 285.263803 242.920038 
L 288.050946 241.014777 
L 290.83809 239.109516 
L 293.625233 237.204255 
L 296.412376 235.298994 
L 299.19952 233.393733 
L 301.986663 231.488472 
L 304.773807 229.58321 
L 307.56095 227.677949 
L 310.348094 225.772688 
L 313.135237 223.867427 
L 315.922381 221.962166 
L 318.709524 220.056905 
L 321.496668 218.151644 
L 324.283811 216.246382 
L 327.070955 214.341121 
L 329.858098 212.43586 
L 332.645241 210.530599 
L 335.432385 208.622491 
L 338.219528 206.700759 
L 341.006672 204.764061 
L 343.793815 202.812044 
L 346.580959 200.844337 
L 349.368102 198.860556 
L 352.155246 196.8603 
L 354.942389 194.843152 
L 357.729533 192.808677 
L 360.516676 190.75642 
L 363.303819 188.685906 
L 366.090963 186.596641 
L 368.878106 184.488104 
L 371.66525 182.359752 
L 374.452393 180.211017 
L 377.239537 178.0413 
L 380.02668 175.849976 
L 382.813824 173.636384 
L 385.600967 171.399834 
L 388.388111 169.139594 
L 391.175254 166.854895 
L 393.962398 164.544927 
L 396.749541 162.208832 
L 399.536684 159.845702 
L 402.323828 157.454577 
L 405.110971 155.034437 
L 407.898115 152.5842 
L 410.685258 150.102715 
L 413.472402 147.588753 
L 416.259545 145.041007 
L 419.046689 142.458075 
L 421.833832 139.83846 
L 424.620976 137.180551 
L 427.408119 134.482618 
L 430.195263 131.742799 
L 432.982406 128.959077 
L 435.769549 126.129274 
L 438.556693 123.251021 
L 441.343836 120.321742 
L 444.13098 117.338643 
L 446.918123 114.329137 
L 449.705267 111.319631 
L 452.49241 108.310125 
L 455.279554 105.300618 
L 458.066697 102.291112 
L 460.853841 99.281606 
L 463.640984 96.2721 
L 466.428128 93.262593 
L 469.215271 90.253087 
L 472.002414 87.243581 
L 474.789558 84.234075 
L 477.576701 81.224569 
L 480.363845 78.215062 
L 483.150988 75.205556 
L 485.938132 72.19605 
L 488.725275 69.186544 
L 491.512419 66.177037 
L 494.299562 63.167531 
L 497.086706 60.158025 
L 499.873849 57.148519 
L 502.660992 54.139012 
L 505.448136 51.129506 
L 508.235279 48.12 
" clip-path="url(#p27ab6a0ae0)" style="fill: none; stroke: #1f77b4; stroke-width: 1.5; stroke-linecap: square"/>
   </g>
   <g id="line2d_28">
    <path d="M 241.766628 279.12 
L 244.086985 277.607012 
L 246.407343 276.094024 
L 248.7277 274.581037 
L 251.048058 273.068049 
L 253.368415 271.555061 
L 255.688773 270.042073 
L 258.00913 268.529085 
L 260.329488 267.016097 
L 262.649845 265.50311 
L 264.970203 263.990122 
L 267.29056 262.477134 
L 269.610918 260.964146 
L 271.931276 259.451158 
L 274.251633 257.938171 
L 276.571991 256.425183 
L 278.892348 254.912195 
L 281.212706 253.399207 
L 283.533063 251.886219 
L 285.853421 250.373232 
L 288.173778 248.860244 
L 290.494136 247.347256 
L 292.814493 245.834268 
L 295.134851 244.32128 
L 297.455208 242.808292 
L 299.775566 241.295305 
L 302.095923 239.782317 
L 304.416281 238.269329 
L 306.736639 236.756341 
L 309.056996 235.243353 
L 311.377354 233.730366 
L 313.697711 232.217378 
L 316.018069 230.70439 
L 318.338426 229.191402 
L 320.658784 227.678414 
L 322.979141 226.165427 
L 325.299499 224.652439 
L 327.619856 223.139451 
L 329.940214 221.626463 
L 332.260571 220.113475 
L 334.580929 218.600487 
L 336.901286 217.0875 
L 339.221644 215.574512 
L 341.542002 214.061524 
L 343.862359 212.548536 
L 346.182717 211.035548 
L 348.503074 209.522223 
L 350.823432 207.996927 
L 353.143789 206.453461 
L 355.464147 204.891162 
L 357.784504 203.309322 
L 360.104862 201.707189 
L 362.425219 200.083962 
L 364.745577 198.438784 
L 367.065934 196.77074 
L 369.386292 195.078851 
L 371.706649 193.362062 
L 374.027007 191.61924 
L 376.347365 189.849166 
L 378.667722 188.050518 
L 380.98808 186.221866 
L 383.308437 184.361657 
L 385.628795 182.468198 
L 387.949152 180.539641 
L 390.26951 178.573957 
L 392.589867 176.568917 
L 394.910225 174.522056 
L 397.230582 172.430645 
L 399.55094 170.29164 
L 401.871297 168.101636 
L 404.191655 165.856803 
L 406.512012 163.552802 
L 408.83237 161.184694 
L 411.152728 158.746809 
L 413.473085 156.23259 
L 415.793443 153.634383 
L 418.1138 150.943163 
L 420.434158 148.148162 
L 422.754515 145.23636 
L 425.074873 142.19176 
L 427.39523 138.994345 
L 429.715588 135.618497 
L 432.035945 132.030523 
L 434.356303 128.184571 
L 436.67666 124.015418 
L 438.997018 119.424615 
L 441.317375 114.379257 
L 443.637733 109.282391 
L 445.958091 104.185525 
L 448.278448 99.088659 
L 450.598806 93.991793 
L 452.919163 88.894927 
L 455.239521 83.798061 
L 457.559878 78.701196 
L 459.880236 73.60433 
L 462.200593 68.507464 
L 464.520951 63.410598 
L 466.841308 58.313732 
L 469.161666 53.216866 
L 471.482023 48.12 
" clip-path="url(#p27ab6a0ae0)" style="fill: none; stroke-dasharray: 5.55,2.4; stroke-dashoffset: 0; stroke: #ff7f0e; stroke-width: 1.5"/>
   </g>
   <g id="patch_3">
    <path d="M 180 288.36 
L 180 38.88 
" style="fill: none; stroke: #000000; stroke-width: 0.8; stroke-linejoin: miter; stroke-linecap: square"/>
   </g>
   <g id="patch_4">
    <path d="M 508.235294 288.36 
L 508.235294 38.88 
" style="fill: none; stroke: #000000; stroke-width: 0.8; stroke-linejoin: miter; stroke-linecap: square"/>
   </g>
   <g id="patch_5">
    <path d="M 180 288.36 
L 508.235294 288.36 
" style="fill: none; stroke: #000000; stroke-width: 0.8; stroke-linejoin: miter; stroke-linecap: square"/>
   </g>
   <g id="patch_6">
    <path d="M 180 38.88 
L 508.235294 38.88 
" style="fill: none; stroke: #000000; stroke-width: 0.8; stroke-linejoin: miter; stroke-linecap: square"/>
   </g>
   <g id="text_13">
    <!--  Block: 0 -->
    <g transform="translate(318.237022 32.88) scale(0.12 -0.12)">
     <defs>
      <path id="DejaVuSans-20" transform="scale(0.015625)"/>
      <path id="DejaVuSans-42" d="M 1259 2228 
L 1259 519 
L 2272 519 
Q 2781 519 3026 730 
Q 3272 941 3272 1375 
Q 3272 1813 3026 2020 
Q 2781 2228 2272 2228 
L 1259 2228 
z
M 1259 4147 
L 1259 2741 
L 2194 2741 
Q 2656 2741 2882 2914 
Q 3109 3088 3109 3444 
Q 3109 3797 2882 3972 
Q 2656 4147 2194 4147 
L 1259 4147 
z
M 628 4666 
L 2241 4666 
Q 2963 4666 3353 4366 
Q 3744 4066 3744 3513 
Q 3744 3084 3544 2831 
Q 3344 2578 2956 2516 
Q 3422 2416 3680 2098 
Q 3938 1781 3938 1306 
Q 3938 681 3513 340 
Q 3088 0 2303 0 
L 628 0 
L 628 4666 
z
" transform="scale(0.015625)"/>
      <path id="DejaVuSans-6c" d="M 603 4863 
L 1178 4863 
L 1178 0 
L 603 0 
L 603 4863 
z
" transform="scale(0.015625)"/>
      <path id="DejaVuSans-6f" d="M 1959 3097 
Q 1497 3097 1228 2736 
Q 959 2375 959 1747 
Q 959 1119 1226 758 
Q 1494 397 1959 397 
Q 2419 397 2687 759 
Q 2956 1122 2956 1747 
Q 2956 2369 2687 2733 
Q 2419 3097 1959 3097 
z
M 1959 3584 
Q 2709 3584 3137 3096 
Q 3566 2609 3566 1747 
Q 3566 888 3137 398 
Q 2709 -91 1959 -91 
Q 1206 -91 779 398 
Q 353 888 353 1747 
Q 353 2609 779 3096 
Q 1206 3584 1959 3584 
z
" transform="scale(0.015625)"/>
      <path id="DejaVuSans-63" d="M 3122 3366 
L 3122 2828 
Q 2878 2963 2633 3030 
Q 2388 3097 2138 3097 
Q 1578 3097 1268 2742 
Q 959 2388 959 1747 
Q 959 1106 1268 751 
Q 1578 397 2138 397 
Q 2388 397 2633 464 
Q 2878 531 3122 666 
L 3122 134 
Q 2881 22 2623 -34 
Q 2366 -91 2075 -91 
Q 1284 -91 818 406 
Q 353 903 353 1747 
Q 353 2603 823 3093 
Q 1294 3584 2113 3584 
Q 2378 3584 2631 3529 
Q 2884 3475 3122 3366 
z
" transform="scale(0.015625)"/>
      <path id="DejaVuSans-6b" d="M 581 4863 
L 1159 4863 
L 1159 1991 
L 2875 3500 
L 3609 3500 
L 1753 1863 
L 3688 0 
L 2938 0 
L 1159 1709 
L 1159 0 
L 581 0 
L 581 4863 
z
" transform="scale(0.015625)"/>
      <path id="DejaVuSans-3a" d="M 750 794 
L 1409 794 
L 1409 0 
L 750 0 
L 750 794 
z
M 750 3309 
L 1409 3309 
L 1409 2516 
L 750 2516 
L 750 3309 
z
" transform="scale(0.015625)"/>
     </defs>
     <use xlink:href="#DejaVuSans-20"/>
     <use xlink:href="#DejaVuSans-42" x="31.787109"/>
     <use xlink:href="#DejaVuSans-6c" x="100.390625"/>
     <use xlink:href="#DejaVuSans-6f" x="128.173828"/>
     <use xlink:href="#DejaVuSans-63" x="189.355469"/>
     <use xlink:href="#DejaVuSans-6b" x="244.335938"/>
     <use xlink:href="#DejaVuSans-3a" x="302.246094"/>
     <use xlink:href="#DejaVuSans-20" x="335.9375"/>
     <use xlink:href="#DejaVuSans-30" x="367.724609"/>
    </g>
   </g>
   <g id="legend_1">
    <g id="patch_7">
     <path d="M 187 91.1925 
L 318.2 91.1925 
Q 320.2 91.1925 320.2 89.1925 
L 320.2 45.88 
Q 320.2 43.88 318.2 43.88 
L 187 43.88 
Q 185 43.88 185 45.88 
L 185 89.1925 
Q 185 91.1925 187 91.1925 
z
" style="fill: #ffffff; opacity: 0.8; stroke: #cccccc; stroke-linejoin: miter"/>
    </g>
    <g id="PathCollection_2">
     <g>
      <use xlink:href="#m41a43a65af" x="199" y="52.853437" style="stroke: #000000"/>
     </g>
    </g>
    <g id="text_14">
     <!-- Data -->
     <g transform="translate(217 55.478437) scale(0.1 -0.1)">
      <defs>
       <path id="DejaVuSans-44" d="M 1259 4147 
L 1259 519 
L 2022 519 
Q 2988 519 3436 956 
Q 3884 1394 3884 2338 
Q 3884 3275 3436 3711 
Q 2988 4147 2022 4147 
L 1259 4147 
z
M 628 4666 
L 1925 4666 
Q 3281 4666 3915 4102 
Q 4550 3538 4550 2338 
Q 4550 1131 3912 565 
Q 3275 0 1925 0 
L 628 0 
L 628 4666 
z
" transform="scale(0.015625)"/>
       <path id="DejaVuSans-61" d="M 2194 1759 
Q 1497 1759 1228 1600 
Q 959 1441 959 1056 
Q 959 750 1161 570 
Q 1363 391 1709 391 
Q 2188 391 2477 730 
Q 2766 1069 2766 1631 
L 2766 1759 
L 2194 1759 
z
M 3341 1997 
L 3341 0 
L 2766 0 
L 2766 531 
Q 2569 213 2275 61 
Q 1981 -91 1556 -91 
Q 1019 -91 701 211 
Q 384 513 384 1019 
Q 384 1609 779 1909 
Q 1175 2209 1959 2209 
L 2766 2209 
L 2766 2266 
Q 2766 2663 2505 2880 
Q 2244 3097 1772 3097 
Q 1472 3097 1187 3025 
Q 903 2953 641 2809 
L 641 3341 
Q 956 3463 1253 3523 
Q 1550 3584 1831 3584 
Q 2591 3584 2966 3190 
Q 3341 2797 3341 1997 
z
" transform="scale(0.015625)"/>
       <path id="DejaVuSans-74" d="M 1172 4494 
L 1172 3500 
L 2356 3500 
L 2356 3053 
L 1172 3053 
L 1172 1153 
Q 1172 725 1289 603 
Q 1406 481 1766 481 
L 2356 481 
L 2356 0 
L 1766 0 
Q 1100 0 847 248 
Q 594 497 594 1153 
L 594 3053 
L 172 3053 
L 172 3500 
L 594 3500 
L 594 4494 
L 1172 4494 
z
" transform="scale(0.015625)"/>
      </defs>
      <use xlink:href="#DejaVuSans-44"/>
      <use xlink:href="#DejaVuSans-61" x="77.001953"/>
      <use xlink:href="#DejaVuSans-74" x="138.28125"/>
      <use xlink:href="#DejaVuSans-61" x="177.490234"/>
     </g>
    </g>
    <g id="line2d_29">
     <path d="M 189 66.656562 
L 199 66.656562 
L 209 66.656562 
" style="fill: none; stroke: #1f77b4; stroke-width: 1.5; stroke-linecap: square"/>
    </g>
    <g id="text_15">
     <!-- Artc e:0.2816 -->
     <g transform="translate(217 70.156562) scale(0.1 -0.1)">
      <defs>
       <path id="DejaVuSans-41" d="M 2188 4044 
L 1331 1722 
L 3047 1722 
L 2188 4044 
z
M 1831 4666 
L 2547 4666 
L 4325 0 
L 3669 0 
L 3244 1197 
L 1141 1197 
L 716 0 
L 50 0 
L 1831 4666 
z
" transform="scale(0.015625)"/>
       <path id="DejaVuSans-72" d="M 2631 2963 
Q 2534 3019 2420 3045 
Q 2306 3072 2169 3072 
Q 1681 3072 1420 2755 
Q 1159 2438 1159 1844 
L 1159 0 
L 581 0 
L 581 3500 
L 1159 3500 
L 1159 2956 
Q 1341 3275 1631 3429 
Q 1922 3584 2338 3584 
Q 2397 3584 2469 3576 
Q 2541 3569 2628 3553 
L 2631 2963 
z
" transform="scale(0.015625)"/>
       <path id="DejaVuSans-65" d="M 3597 1894 
L 3597 1613 
L 953 1613 
Q 991 1019 1311 708 
Q 1631 397 2203 397 
Q 2534 397 2845 478 
Q 3156 559 3463 722 
L 3463 178 
Q 3153 47 2828 -22 
Q 2503 -91 2169 -91 
Q 1331 -91 842 396 
Q 353 884 353 1716 
Q 353 2575 817 3079 
Q 1281 3584 2069 3584 
Q 2775 3584 3186 3129 
Q 3597 2675 3597 1894 
z
M 3022 2063 
Q 3016 2534 2758 2815 
Q 2500 3097 2075 3097 
Q 1594 3097 1305 2825 
Q 1016 2553 972 2059 
L 3022 2063 
z
" transform="scale(0.015625)"/>
       <path id="DejaVuSans-2e" d="M 684 794 
L 1344 794 
L 1344 0 
L 684 0 
L 684 794 
z
" transform="scale(0.015625)"/>
      </defs>
      <use xlink:href="#DejaVuSans-41"/>
      <use xlink:href="#DejaVuSans-72" x="68.408203"/>
      <use xlink:href="#DejaVuSans-74" x="109.521484"/>
      <use xlink:href="#DejaVuSans-63" x="148.730469"/>
      <use xlink:href="#DejaVuSans-20" x="203.710938"/>
      <use xlink:href="#DejaVuSans-65" x="235.498047"/>
      <use xlink:href="#DejaVuSans-3a" x="297.021484"/>
      <use xlink:href="#DejaVuSans-30" x="330.712891"/>
      <use xlink:href="#DejaVuSans-2e" x="394.335938"/>
      <use xlink:href="#DejaVuSans-32" x="426.123047"/>
      <use xlink:href="#DejaVuSans-38" x="489.746094"/>
      <use xlink:href="#DejaVuSans-31" x="553.369141"/>
      <use xlink:href="#DejaVuSans-36" x="616.992188"/>
     </g>
    </g>
    <g id="line2d_30">
     <path d="M 189 81.334687 
L 199 81.334687 
L 209 81.334687 
" style="fill: none; stroke-dasharray: 5.55,2.4; stroke-dashoffset: 0; stroke: #ff7f0e; stroke-width: 1.5"/>
    </g>
    <g id="text_16">
     <!-- NEL_BTUX e:0.2151 -->
     <g transform="translate(217 84.834687) scale(0.1 -0.1)">
      <defs>
       <path id="DejaVuSans-4e" d="M 628 4666 
L 1478 4666 
L 3547 763 
L 3547 4666 
L 4159 4666 
L 4159 0 
L 3309 0 
L 1241 3903 
L 1241 0 
L 628 0 
L 628 4666 
z
" transform="scale(0.015625)"/>
       <path id="DejaVuSans-45" d="M 628 4666 
L 3578 4666 
L 3578 4134 
L 1259 4134 
L 1259 2753 
L 3481 2753 
L 3481 2222 
L 1259 2222 
L 1259 531 
L 3634 531 
L 3634 0 
L 628 0 
L 628 4666 
z
" transform="scale(0.015625)"/>
       <path id="DejaVuSans-4c" d="M 628 4666 
L 1259 4666 
L 1259 531 
L 3531 531 
L 3531 0 
L 628 0 
L 628 4666 
z
" transform="scale(0.015625)"/>
       <path id="DejaVuSans-5f" d="M 3263 -1063 
L 3263 -1509 
L -63 -1509 
L -63 -1063 
L 3263 -1063 
z
" transform="scale(0.015625)"/>
       <path id="DejaVuSans-54" d="M -19 4666 
L 3928 4666 
L 3928 4134 
L 2272 4134 
L 2272 0 
L 1638 0 
L 1638 4134 
L -19 4134 
L -19 4666 
z
" transform="scale(0.015625)"/>
       <path id="DejaVuSans-55" d="M 556 4666 
L 1191 4666 
L 1191 1831 
Q 1191 1081 1462 751 
Q 1734 422 2344 422 
Q 2950 422 3222 751 
Q 3494 1081 3494 1831 
L 3494 4666 
L 4128 4666 
L 4128 1753 
Q 4128 841 3676 375 
Q 3225 -91 2344 -91 
Q 1459 -91 1007 375 
Q 556 841 556 1753 
L 556 4666 
z
" transform="scale(0.015625)"/>
       <path id="DejaVuSans-58" d="M 403 4666 
L 1081 4666 
L 2241 2931 
L 3406 4666 
L 4084 4666 
L 2584 2425 
L 4184 0 
L 3506 0 
L 2194 1984 
L 872 0 
L 191 0 
L 1856 2491 
L 403 4666 
z
" transform="scale(0.015625)"/>
      </defs>
      <use xlink:href="#DejaVuSans-4e"/>
      <use xlink:href="#DejaVuSans-45" x="74.804688"/>
      <use xlink:href="#DejaVuSans-4c" x="137.988281"/>
      <use xlink:href="#DejaVuSans-5f" x="193.701172"/>
      <use xlink:href="#DejaVuSans-42" x="243.701172"/>
      <use xlink:href="#DejaVuSans-54" x="312.304688"/>
      <use xlink:href="#DejaVuSans-55" x="373.388672"/>
      <use xlink:href="#DejaVuSans-58" x="446.582031"/>
      <use xlink:href="#DejaVuSans-20" x="515.087891"/>
      <use xlink:href="#DejaVuSans-65" x="546.875"/>
      <use xlink:href="#DejaVuSans-3a" x="608.398438"/>
      <use xlink:href="#DejaVuSans-30" x="642.089844"/>
      <use xlink:href="#DejaVuSans-2e" x="705.712891"/>
      <use xlink:href="#DejaVuSans-32" x="737.5"/>
      <use xlink:href="#DejaVuSans-31" x="801.123047"/>
      <use xlink:href="#DejaVuSans-35" x="864.746094"/>
      <use xlink:href="#DejaVuSans-31" x="928.369141"/>
     </g>
    </g>
   </g>
  </g>
  <g id="axes_2">
   <g id="patch_8">
    <path d="M 573.882353 288.36 
L 902.117647 288.36 
L 902.117647 38.88 
L 573.882353 38.88 
z
" style="fill: #ffffff"/>
   </g>
   <g id="PathCollection_3">
    <g clip-path="url(#p7f9ced59f1)">
     <use xlink:href="#m41a43a65af" x="821.66782" y="140.52" style="stroke: #000000"/>
     <use xlink:href="#m41a43a65af" x="853.847751" y="48.12" style="stroke: #000000"/>
     <use xlink:href="#m41a43a65af" x="773.397924" y="232.92" style="stroke: #000000"/>
     <use xlink:href="#m41a43a65af" x="725.128028" y="232.92" style="stroke: #000000"/>
     <use xlink:href="#m41a43a65af" x="676.858131" y="256.02" style="stroke: #000000"/>
     <use xlink:href="#m41a43a65af" x="628.588235" y="279.12" style="stroke: #000000"/>
     <use xlink:href="#m41a43a65af" x="644.678201" y="256.02" style="stroke: #000000"/>
     <use xlink:href="#m41a43a65af" x="690.179657" y="232.92" style="stroke: #000000"/>
     <use xlink:href="#m41a43a65af" x="826.685315" y="48.12" style="stroke: #000000"/>
     <use xlink:href="#m41a43a65af" x="735.681758" y="232.92" style="stroke: #000000"/>
     <use xlink:href="#m41a43a65af" x="781.183536" y="186.72" style="stroke: #000000"/>
     <use xlink:href="#m41a43a65af" x="644.677879" y="232.92" style="stroke: #000000"/>
     <use xlink:href="#m41a43a65af" x="796.452913" y="186.72" style="stroke: #000000"/>
     <use xlink:href="#m41a43a65af" x="703.808502" y="232.92" style="stroke: #000000"/>
     <use xlink:href="#m41a43a65af" x="842.77528" y="48.12" style="stroke: #000000"/>
     <use xlink:href="#m41a43a65af" x="657.486457" y="232.92" style="stroke: #000000"/>
     <use xlink:href="#m41a43a65af" x="750.130869" y="186.72" style="stroke: #000000"/>
    </g>
   </g>
   <g id="matplotlib.axis_3">
    <g id="xtick_7">
     <g id="line2d_31">
      <path d="M 580.318339 288.36 
L 580.318339 38.88 
" clip-path="url(#p7f9ced59f1)" style="fill: none; stroke: #b0b0b0; stroke-width: 0.8; stroke-linecap: square"/>
     </g>
     <g id="line2d_32">
      <g>
       <use xlink:href="#mad75e438d5" x="580.318339" y="288.36" style="stroke: #000000; stroke-width: 0.8"/>
      </g>
     </g>
     <g id="text_17">
      <!-- 0 -->
      <g transform="translate(577.137089 302.958438) scale(0.1 -0.1)">
       <use xlink:href="#DejaVuSans-30"/>
      </g>
     </g>
    </g>
    <g id="xtick_8">
     <g id="line2d_33">
      <path d="M 644.678201 288.36 
L 644.678201 38.88 
" clip-path="url(#p7f9ced59f1)" style="fill: none; stroke: #b0b0b0; stroke-width: 0.8; stroke-linecap: square"/>
     </g>
     <g id="line2d_34">
      <g>
       <use xlink:href="#mad75e438d5" x="644.678201" y="288.36" style="stroke: #000000; stroke-width: 0.8"/>
      </g>
     </g>
     <g id="text_18">
      <!-- 20 -->
      <g transform="translate(638.315701 302.958438) scale(0.1 -0.1)">
       <use xlink:href="#DejaVuSans-32"/>
       <use xlink:href="#DejaVuSans-30" x="63.623047"/>
      </g>
     </g>
    </g>
    <g id="xtick_9">
     <g id="line2d_35">
      <path d="M 709.038062 288.36 
L 709.038062 38.88 
" clip-path="url(#p7f9ced59f1)" style="fill: none; stroke: #b0b0b0; stroke-width: 0.8; stroke-linecap: square"/>
     </g>
     <g id="line2d_36">
      <g>
       <use xlink:href="#mad75e438d5" x="709.038062" y="288.36" style="stroke: #000000; stroke-width: 0.8"/>
      </g>
     </g>
     <g id="text_19">
      <!-- 40 -->
      <g transform="translate(702.675562 302.958438) scale(0.1 -0.1)">
       <use xlink:href="#DejaVuSans-34"/>
       <use xlink:href="#DejaVuSans-30" x="63.623047"/>
      </g>
     </g>
    </g>
    <g id="xtick_10">
     <g id="line2d_37">
      <path d="M 773.397924 288.36 
L 773.397924 38.88 
" clip-path="url(#p7f9ced59f1)" style="fill: none; stroke: #b0b0b0; stroke-width: 0.8; stroke-linecap: square"/>
     </g>
     <g id="line2d_38">
      <g>
       <use xlink:href="#mad75e438d5" x="773.397924" y="288.36" style="stroke: #000000; stroke-width: 0.8"/>
      </g>
     </g>
     <g id="text_20">
      <!-- 60 -->
      <g transform="translate(767.035424 302.958438) scale(0.1 -0.1)">
       <use xlink:href="#DejaVuSans-36"/>
       <use xlink:href="#DejaVuSans-30" x="63.623047"/>
      </g>
     </g>
    </g>
    <g id="xtick_11">
     <g id="line2d_39">
      <path d="M 837.757785 288.36 
L 837.757785 38.88 
" clip-path="url(#p7f9ced59f1)" style="fill: none; stroke: #b0b0b0; stroke-width: 0.8; stroke-linecap: square"/>
     </g>
     <g id="line2d_40">
      <g>
       <use xlink:href="#mad75e438d5" x="837.757785" y="288.36" style="stroke: #000000; stroke-width: 0.8"/>
      </g>
     </g>
     <g id="text_21">
      <!-- 80 -->
      <g transform="translate(831.395285 302.958438) scale(0.1 -0.1)">
       <use xlink:href="#DejaVuSans-38"/>
       <use xlink:href="#DejaVuSans-30" x="63.623047"/>
      </g>
     </g>
    </g>
    <g id="xtick_12">
     <g id="line2d_41">
      <path d="M 902.117647 288.36 
L 902.117647 38.88 
" clip-path="url(#p7f9ced59f1)" style="fill: none; stroke: #b0b0b0; stroke-width: 0.8; stroke-linecap: square"/>
     </g>
     <g id="line2d_42">
      <g>
       <use xlink:href="#mad75e438d5" x="902.117647" y="288.36" style="stroke: #000000; stroke-width: 0.8"/>
      </g>
     </g>
     <g id="text_22">
      <!-- 100 -->
      <g transform="translate(892.573897 302.958438) scale(0.1 -0.1)">
       <use xlink:href="#DejaVuSans-31"/>
       <use xlink:href="#DejaVuSans-30" x="63.623047"/>
       <use xlink:href="#DejaVuSans-30" x="127.246094"/>
      </g>
     </g>
    </g>
   </g>
   <g id="matplotlib.axis_4">
    <g id="ytick_7">
     <g id="line2d_43">
      <path d="M 573.882353 279.12 
L 902.117647 279.12 
" clip-path="url(#p7f9ced59f1)" style="fill: none; stroke: #b0b0b0; stroke-width: 0.8; stroke-linecap: square"/>
     </g>
     <g id="line2d_44">
      <g>
       <use xlink:href="#mfbe01b7451" x="573.882353" y="279.12" style="stroke: #000000; stroke-width: 0.8"/>
      </g>
     </g>
     <g id="text_23">
      <!-- 0 -->
      <g transform="translate(560.519853 282.919219) scale(0.1 -0.1)">
       <use xlink:href="#DejaVuSans-30"/>
      </g>
     </g>
    </g>
    <g id="ytick_8">
     <g id="line2d_45">
      <path d="M 573.882353 232.92 
L 902.117647 232.92 
" clip-path="url(#p7f9ced59f1)" style="fill: none; stroke: #b0b0b0; stroke-width: 0.8; stroke-linecap: square"/>
     </g>
     <g id="line2d_46">
      <g>
       <use xlink:href="#mfbe01b7451" x="573.882353" y="232.92" style="stroke: #000000; stroke-width: 0.8"/>
      </g>
     </g>
     <g id="text_24">
      <!-- 10 -->
      <g transform="translate(554.157353 236.719219) scale(0.1 -0.1)">
       <use xlink:href="#DejaVuSans-31"/>
       <use xlink:href="#DejaVuSans-30" x="63.623047"/>
      </g>
     </g>
    </g>
    <g id="ytick_9">
     <g id="line2d_47">
      <path d="M 573.882353 186.72 
L 902.117647 186.72 
" clip-path="url(#p7f9ced59f1)" style="fill: none; stroke: #b0b0b0; stroke-width: 0.8; stroke-linecap: square"/>
     </g>
     <g id="line2d_48">
      <g>
       <use xlink:href="#mfbe01b7451" x="573.882353" y="186.72" style="stroke: #000000; stroke-width: 0.8"/>
      </g>
     </g>
     <g id="text_25">
      <!-- 20 -->
      <g transform="translate(554.157353 190.519219) scale(0.1 -0.1)">
       <use xlink:href="#DejaVuSans-32"/>
       <use xlink:href="#DejaVuSans-30" x="63.623047"/>
      </g>
     </g>
    </g>
    <g id="ytick_10">
     <g id="line2d_49">
      <path d="M 573.882353 140.52 
L 902.117647 140.52 
" clip-path="url(#p7f9ced59f1)" style="fill: none; stroke: #b0b0b0; stroke-width: 0.8; stroke-linecap: square"/>
     </g>
     <g id="line2d_50">
      <g>
       <use xlink:href="#mfbe01b7451" x="573.882353" y="140.52" style="stroke: #000000; stroke-width: 0.8"/>
      </g>
     </g>
     <g id="text_26">
      <!-- 30 -->
      <g transform="translate(554.157353 144.319219) scale(0.1 -0.1)">
       <use xlink:href="#DejaVuSans-33"/>
       <use xlink:href="#DejaVuSans-30" x="63.623047"/>
      </g>
     </g>
    </g>
    <g id="ytick_11">
     <g id="line2d_51">
      <path d="M 573.882353 94.32 
L 902.117647 94.32 
" clip-path="url(#p7f9ced59f1)" style="fill: none; stroke: #b0b0b0; stroke-width: 0.8; stroke-linecap: square"/>
     </g>
     <g id="line2d_52">
      <g>
       <use xlink:href="#mfbe01b7451" x="573.882353" y="94.32" style="stroke: #000000; stroke-width: 0.8"/>
      </g>
     </g>
     <g id="text_27">
      <!-- 40 -->
      <g transform="translate(554.157353 98.119219) scale(0.1 -0.1)">
       <use xlink:href="#DejaVuSans-34"/>
       <use xlink:href="#DejaVuSans-30" x="63.623047"/>
      </g>
     </g>
    </g>
    <g id="ytick_12">
     <g id="line2d_53">
      <path d="M 573.882353 48.12 
L 902.117647 48.12 
" clip-path="url(#p7f9ced59f1)" style="fill: none; stroke: #b0b0b0; stroke-width: 0.8; stroke-linecap: square"/>
     </g>
     <g id="line2d_54">
      <g>
       <use xlink:href="#mfbe01b7451" x="573.882353" y="48.12" style="stroke: #000000; stroke-width: 0.8"/>
      </g>
     </g>
     <g id="text_28">
      <!-- 50 -->
      <g transform="translate(554.157353 51.919219) scale(0.1 -0.1)">
       <use xlink:href="#DejaVuSans-35"/>
       <use xlink:href="#DejaVuSans-30" x="63.623047"/>
      </g>
     </g>
    </g>
   </g>
   <g id="line2d_55">
    <path d="M 548.138408 163.62 
L 966.477509 163.62 
" clip-path="url(#p7f9ced59f1)" style="fill: none; stroke-dasharray: 1.5,2.475; stroke-dashoffset: 0; stroke: #808080; stroke-width: 1.5"/>
   </g>
   <g id="line2d_56">
    <path d="M 853.847751 325 
L 853.847751 -1 
" clip-path="url(#p7f9ced59f1)" style="fill: none; stroke-dasharray: 5.55,2.4; stroke-dashoffset: 0; stroke: #ff0000; stroke-opacity: 0.3; stroke-width: 1.5"/>
   </g>
   <g id="line2d_57">
    <path d="M 623.452426 279.12 
L 626.267226 277.161928 
L 629.082026 275.203856 
L 631.896826 273.245784 
L 634.711625 271.287712 
L 637.526425 269.329641 
L 640.341225 267.371569 
L 643.156025 265.413497 
L 645.970824 263.455425 
L 648.785624 261.497353 
L 651.600424 259.539281 
L 654.415224 257.581209 
L 657.230023 255.623137 
L 660.044823 253.665066 
L 662.859623 251.706994 
L 665.674423 249.748922 
L 668.489222 247.79085 
L 671.304022 245.832778 
L 674.118822 243.874706 
L 676.933622 241.916634 
L 679.748421 239.958562 
L 682.563221 238.00049 
L 685.378021 236.042419 
L 688.192821 234.084347 
L 691.00762 232.126275 
L 693.82242 230.168203 
L 696.63722 228.210131 
L 699.45202 226.252059 
L 702.266819 224.293987 
L 705.081619 222.335915 
L 707.896419 220.377843 
L 710.711219 218.419772 
L 713.526018 216.4617 
L 716.340818 214.503628 
L 719.155618 212.545556 
L 721.970418 210.587484 
L 724.785218 208.626935 
L 727.600017 206.653893 
L 730.414817 204.667052 
L 733.229617 202.666119 
L 736.044417 200.650789 
L 738.859216 198.620748 
L 741.674016 196.575668 
L 744.488816 194.51521 
L 747.303616 192.439021 
L 750.118415 190.346737 
L 752.933215 188.237976 
L 755.748015 186.112343 
L 758.562815 183.969427 
L 761.377614 181.808799 
L 764.192414 179.630012 
L 767.007214 177.432601 
L 769.822014 175.216079 
L 772.636813 172.97994 
L 775.451613 170.723653 
L 778.266413 168.446664 
L 781.081213 166.148391 
L 783.896012 163.828227 
L 786.710812 161.485534 
L 789.525612 159.119643 
L 792.340412 156.72985 
L 795.155211 154.315417 
L 797.970011 151.875564 
L 800.784811 149.409472 
L 803.599611 146.916275 
L 806.41441 144.39506 
L 809.22921 141.84486 
L 812.04401 139.264653 
L 814.85881 136.653352 
L 817.673609 134.009807 
L 820.488409 131.332791 
L 823.303209 128.621002 
L 826.118009 125.873047 
L 828.932808 123.08744 
L 831.747608 120.26259 
L 834.562408 117.39679 
L 837.377208 114.510257 
L 840.192007 111.623724 
L 843.006807 108.737191 
L 845.821607 105.850658 
L 848.636407 102.964125 
L 851.451206 100.077592 
L 854.266006 97.191059 
L 857.080806 94.304526 
L 859.895606 91.417994 
L 862.710405 88.531461 
L 865.525205 85.644928 
L 868.340005 82.758395 
L 871.154805 79.871862 
L 873.969604 76.985329 
L 876.784404 74.098796 
L 879.599204 71.212263 
L 882.414004 68.32573 
L 885.228803 65.439197 
L 888.043603 62.552665 
L 890.858403 59.666132 
L 893.673203 56.779599 
L 896.488002 53.893066 
L 899.302802 51.006533 
L 902.117602 48.12 
" clip-path="url(#p7f9ced59f1)" style="fill: none; stroke: #1f77b4; stroke-width: 1.5; stroke-linecap: square"/>
   </g>
   <g id="line2d_58">
    <path d="M 616.669753 279.12 
L 619.153757 277.636033 
L 621.63776 276.152066 
L 624.121763 274.668099 
L 626.605766 273.184132 
L 629.089769 271.700165 
L 631.573773 270.216198 
L 634.057776 268.732231 
L 636.541779 267.248264 
L 639.025782 265.764297 
L 641.509785 264.28033 
L 643.993789 262.796362 
L 646.477792 261.312395 
L 648.961795 259.828428 
L 651.445798 258.344461 
L 653.929801 256.860494 
L 656.413805 255.376527 
L 658.897808 253.89256 
L 661.381811 252.408593 
L 663.865814 250.924626 
L 666.349817 249.440659 
L 668.833821 247.956692 
L 671.317824 246.472725 
L 673.801827 244.988758 
L 676.28583 243.504791 
L 678.769833 242.020824 
L 681.253837 240.536857 
L 683.73784 239.05289 
L 686.221843 237.568923 
L 688.705846 236.084956 
L 691.189849 234.600989 
L 693.673853 233.117021 
L 696.157856 231.633054 
L 698.641859 230.149087 
L 701.125862 228.66512 
L 703.609865 227.181153 
L 706.093869 225.697186 
L 708.577872 224.213219 
L 711.061875 222.729252 
L 713.545878 221.245285 
L 716.029881 219.761318 
L 718.513885 218.277351 
L 720.997888 216.793384 
L 723.481891 215.309417 
L 725.965894 213.82545 
L 728.449897 212.341483 
L 730.933901 210.857516 
L 733.417904 209.372761 
L 735.901907 207.874673 
L 738.38591 206.358408 
L 740.869913 204.823288 
L 743.353917 203.268591 
L 745.83792 201.693549 
L 748.321923 200.097341 
L 750.805926 198.47909 
L 753.289929 196.837857 
L 755.773933 195.172634 
L 758.257936 193.482337 
L 760.741939 191.765799 
L 763.225942 190.021758 
L 765.709945 188.248848 
L 768.193948 186.445587 
L 770.677952 184.610358 
L 773.161955 182.741401 
L 775.645958 180.836784 
L 778.129961 178.894384 
L 780.613964 176.911859 
L 783.097968 174.886616 
L 785.581971 172.815767 
L 788.065974 170.696085 
L 790.549977 168.523945 
L 793.03398 166.295245 
L 795.517984 164.005325 
L 798.001987 161.648843 
L 800.48599 159.219635 
L 802.969993 156.710519 
L 805.453996 154.113049 
L 807.938 151.417178 
L 810.422003 148.610795 
L 812.906006 145.679081 
L 815.390009 142.603576 
L 817.874012 139.360785 
L 820.358016 135.920023 
L 822.842019 132.239888 
L 825.326022 128.262155 
L 827.810025 123.900297 
L 830.294028 119.015392 
L 832.778032 113.595933 
L 835.262035 108.139605 
L 837.746038 102.683278 
L 840.230041 97.22695 
L 842.714044 91.770622 
L 845.198048 86.314294 
L 847.682051 80.857967 
L 850.166054 75.401639 
L 852.650057 69.945311 
L 855.13406 64.488983 
L 857.618064 59.032656 
L 860.102067 53.576328 
L 862.58607 48.12 
" clip-path="url(#p7f9ced59f1)" style="fill: none; stroke-dasharray: 5.55,2.4; stroke-dashoffset: 0; stroke: #ff7f0e; stroke-width: 1.5"/>
   </g>
   <g id="patch_9">
    <path d="M 573.882353 288.36 
L 573.882353 38.88 
" style="fill: none; stroke: #000000; stroke-width: 0.8; stroke-linejoin: miter; stroke-linecap: square"/>
   </g>
   <g id="patch_10">
    <path d="M 902.117647 288.36 
L 902.117647 38.88 
" style="fill: none; stroke: #000000; stroke-width: 0.8; stroke-linejoin: miter; stroke-linecap: square"/>
   </g>
   <g id="patch_11">
    <path d="M 573.882353 288.36 
L 902.117647 288.36 
" style="fill: none; stroke: #000000; stroke-width: 0.8; stroke-linejoin: miter; stroke-linecap: square"/>
   </g>
   <g id="patch_12">
    <path d="M 573.882353 38.88 
L 902.117647 38.88 
" style="fill: none; stroke: #000000; stroke-width: 0.8; stroke-linejoin: miter; stroke-linecap: square"/>
   </g>
   <g id="text_29">
    <!--  Block: 1 -->
    <g transform="translate(712.119375 32.88) scale(0.12 -0.12)">
     <use xlink:href="#DejaVuSans-20"/>
     <use xlink:href="#DejaVuSans-42" x="31.787109"/>
     <use xlink:href="#DejaVuSans-6c" x="100.390625"/>
     <use xlink:href="#DejaVuSans-6f" x="128.173828"/>
     <use xlink:href="#DejaVuSans-63" x="189.355469"/>
     <use xlink:href="#DejaVuSans-6b" x="244.335938"/>
     <use xlink:href="#DejaVuSans-3a" x="302.246094"/>
     <use xlink:href="#DejaVuSans-20" x="335.9375"/>
     <use xlink:href="#DejaVuSans-31" x="367.724609"/>
    </g>
   </g>
   <g id="legend_2">
    <g id="patch_13">
     <path d="M 580.882353 91.1925 
L 712.082353 91.1925 
Q 714.082353 91.1925 714.082353 89.1925 
L 714.082353 45.88 
Q 714.082353 43.88 712.082353 43.88 
L 580.882353 43.88 
Q 578.882353 43.88 578.882353 45.88 
L 578.882353 89.1925 
Q 578.882353 91.1925 580.882353 91.1925 
z
" style="fill: #ffffff; opacity: 0.8; stroke: #cccccc; stroke-linejoin: miter"/>
    </g>
    <g id="PathCollection_4">
     <g>
      <use xlink:href="#m41a43a65af" x="592.882353" y="52.853437" style="stroke: #000000"/>
     </g>
    </g>
    <g id="text_30">
     <!-- Data -->
     <g transform="translate(610.882353 55.478437) scale(0.1 -0.1)">
      <use xlink:href="#DejaVuSans-44"/>
      <use xlink:href="#DejaVuSans-61" x="77.001953"/>
      <use xlink:href="#DejaVuSans-74" x="138.28125"/>
      <use xlink:href="#DejaVuSans-61" x="177.490234"/>
     </g>
    </g>
    <g id="line2d_59">
     <path d="M 582.882353 66.656562 
L 592.882353 66.656562 
L 602.882353 66.656562 
" style="fill: none; stroke: #1f77b4; stroke-width: 1.5; stroke-linecap: square"/>
    </g>
    <g id="text_31">
     <!-- Artc e:0.4469 -->
     <g transform="translate(610.882353 70.156562) scale(0.1 -0.1)">
      <defs>
       <path id="DejaVuSans-39" d="M 703 97 
L 703 672 
Q 941 559 1184 500 
Q 1428 441 1663 441 
Q 2288 441 2617 861 
Q 2947 1281 2994 2138 
Q 2813 1869 2534 1725 
Q 2256 1581 1919 1581 
Q 1219 1581 811 2004 
Q 403 2428 403 3163 
Q 403 3881 828 4315 
Q 1253 4750 1959 4750 
Q 2769 4750 3195 4129 
Q 3622 3509 3622 2328 
Q 3622 1225 3098 567 
Q 2575 -91 1691 -91 
Q 1453 -91 1209 -44 
Q 966 3 703 97 
z
M 1959 2075 
Q 2384 2075 2632 2365 
Q 2881 2656 2881 3163 
Q 2881 3666 2632 3958 
Q 2384 4250 1959 4250 
Q 1534 4250 1286 3958 
Q 1038 3666 1038 3163 
Q 1038 2656 1286 2365 
Q 1534 2075 1959 2075 
z
" transform="scale(0.015625)"/>
      </defs>
      <use xlink:href="#DejaVuSans-41"/>
      <use xlink:href="#DejaVuSans-72" x="68.408203"/>
      <use xlink:href="#DejaVuSans-74" x="109.521484"/>
      <use xlink:href="#DejaVuSans-63" x="148.730469"/>
      <use xlink:href="#DejaVuSans-20" x="203.710938"/>
      <use xlink:href="#DejaVuSans-65" x="235.498047"/>
      <use xlink:href="#DejaVuSans-3a" x="297.021484"/>
      <use xlink:href="#DejaVuSans-30" x="330.712891"/>
      <use xlink:href="#DejaVuSans-2e" x="394.335938"/>
      <use xlink:href="#DejaVuSans-34" x="426.123047"/>
      <use xlink:href="#DejaVuSans-34" x="489.746094"/>
      <use xlink:href="#DejaVuSans-36" x="553.369141"/>
      <use xlink:href="#DejaVuSans-39" x="616.992188"/>
     </g>
    </g>
    <g id="line2d_60">
     <path d="M 582.882353 81.334687 
L 592.882353 81.334687 
L 602.882353 81.334687 
" style="fill: none; stroke-dasharray: 5.55,2.4; stroke-dashoffset: 0; stroke: #ff7f0e; stroke-width: 1.5"/>
    </g>
    <g id="text_32">
     <!-- NEL_BTUX e:0.3694 -->
     <g transform="translate(610.882353 84.834687) scale(0.1 -0.1)">
      <use xlink:href="#DejaVuSans-4e"/>
      <use xlink:href="#DejaVuSans-45" x="74.804688"/>
      <use xlink:href="#DejaVuSans-4c" x="137.988281"/>
      <use xlink:href="#DejaVuSans-5f" x="193.701172"/>
      <use xlink:href="#DejaVuSans-42" x="243.701172"/>
      <use xlink:href="#DejaVuSans-54" x="312.304688"/>
      <use xlink:href="#DejaVuSans-55" x="373.388672"/>
      <use xlink:href="#DejaVuSans-58" x="446.582031"/>
      <use xlink:href="#DejaVuSans-20" x="515.087891"/>
      <use xlink:href="#DejaVuSans-65" x="546.875"/>
      <use xlink:href="#DejaVuSans-3a" x="608.398438"/>
      <use xlink:href="#DejaVuSans-30" x="642.089844"/>
      <use xlink:href="#DejaVuSans-2e" x="705.712891"/>
      <use xlink:href="#DejaVuSans-33" x="737.5"/>
      <use xlink:href="#DejaVuSans-36" x="801.123047"/>
      <use xlink:href="#DejaVuSans-39" x="864.746094"/>
      <use xlink:href="#DejaVuSans-34" x="928.369141"/>
     </g>
    </g>
   </g>
  </g>
  <g id="axes_3">
   <g id="patch_14">
    <path d="M 967.764706 288.36 
L 1296 288.36 
L 1296 38.88 
L 967.764706 38.88 
z
" style="fill: #ffffff"/>
   </g>
   <g id="PathCollection_5">
    <g clip-path="url(#pcbe6b5943e)">
     <use xlink:href="#m41a43a65af" x="1215.550173" y="140.52" style="stroke: #000000"/>
     <use xlink:href="#m41a43a65af" x="1247.730104" y="48.12" style="stroke: #000000"/>
     <use xlink:href="#m41a43a65af" x="1167.280277" y="186.72" style="stroke: #000000"/>
     <use xlink:href="#m41a43a65af" x="1119.010381" y="232.92" style="stroke: #000000"/>
     <use xlink:href="#m41a43a65af" x="1070.740484" y="256.02" style="stroke: #000000"/>
     <use xlink:href="#m41a43a65af" x="1022.470588" y="256.02" style="stroke: #000000"/>
     <use xlink:href="#m41a43a65af" x="974.200692" y="279.12" style="stroke: #000000"/>
     <use xlink:href="#m41a43a65af" x="990.290657" y="279.12" style="stroke: #000000"/>
     <use xlink:href="#m41a43a65af" x="1006.380623" y="279.12" style="stroke: #000000"/>
     <use xlink:href="#m41a43a65af" x="1022.470588" y="279.12" style="stroke: #000000"/>
     <use xlink:href="#m41a43a65af" x="1038.560554" y="256.02" style="stroke: #000000"/>
     <use xlink:href="#m41a43a65af" x="1084.06201" y="232.92" style="stroke: #000000"/>
     <use xlink:href="#m41a43a65af" x="1175.065889" y="186.72" style="stroke: #000000"/>
     <use xlink:href="#m41a43a65af" x="1038.560232" y="232.92" style="stroke: #000000"/>
     <use xlink:href="#m41a43a65af" x="1220.567668" y="48.12" style="stroke: #000000"/>
     <use xlink:href="#m41a43a65af" x="1129.564111" y="232.92" style="stroke: #000000"/>
     <use xlink:href="#m41a43a65af" x="1097.690855" y="186.72" style="stroke: #000000"/>
     <use xlink:href="#m41a43a65af" x="1144.013221" y="186.72" style="stroke: #000000"/>
     <use xlink:href="#m41a43a65af" x="1190.335266" y="140.52" style="stroke: #000000"/>
     <use xlink:href="#m41a43a65af" x="1051.36881" y="232.92" style="stroke: #000000"/>
     <use xlink:href="#m41a43a65af" x="1236.657633" y="94.32" style="stroke: #000000"/>
    </g>
   </g>
   <g id="matplotlib.axis_5">
    <g id="xtick_13">
     <g id="line2d_61">
      <path d="M 974.200692 288.36 
L 974.200692 38.88 
" clip-path="url(#pcbe6b5943e)" style="fill: none; stroke: #b0b0b0; stroke-width: 0.8; stroke-linecap: square"/>
     </g>
     <g id="line2d_62">
      <g>
       <use xlink:href="#mad75e438d5" x="974.200692" y="288.36" style="stroke: #000000; stroke-width: 0.8"/>
      </g>
     </g>
     <g id="text_33">
      <!-- 0 -->
      <g transform="translate(971.019442 302.958438) scale(0.1 -0.1)">
       <use xlink:href="#DejaVuSans-30"/>
      </g>
     </g>
    </g>
    <g id="xtick_14">
     <g id="line2d_63">
      <path d="M 1038.560554 288.36 
L 1038.560554 38.88 
" clip-path="url(#pcbe6b5943e)" style="fill: none; stroke: #b0b0b0; stroke-width: 0.8; stroke-linecap: square"/>
     </g>
     <g id="line2d_64">
      <g>
       <use xlink:href="#mad75e438d5" x="1038.560554" y="288.36" style="stroke: #000000; stroke-width: 0.8"/>
      </g>
     </g>
     <g id="text_34">
      <!-- 20 -->
      <g transform="translate(1032.198054 302.958438) scale(0.1 -0.1)">
       <use xlink:href="#DejaVuSans-32"/>
       <use xlink:href="#DejaVuSans-30" x="63.623047"/>
      </g>
     </g>
    </g>
    <g id="xtick_15">
     <g id="line2d_65">
      <path d="M 1102.920415 288.36 
L 1102.920415 38.88 
" clip-path="url(#pcbe6b5943e)" style="fill: none; stroke: #b0b0b0; stroke-width: 0.8; stroke-linecap: square"/>
     </g>
     <g id="line2d_66">
      <g>
       <use xlink:href="#mad75e438d5" x="1102.920415" y="288.36" style="stroke: #000000; stroke-width: 0.8"/>
      </g>
     </g>
     <g id="text_35">
      <!-- 40 -->
      <g transform="translate(1096.557915 302.958438) scale(0.1 -0.1)">
       <use xlink:href="#DejaVuSans-34"/>
       <use xlink:href="#DejaVuSans-30" x="63.623047"/>
      </g>
     </g>
    </g>
    <g id="xtick_16">
     <g id="line2d_67">
      <path d="M 1167.280277 288.36 
L 1167.280277 38.88 
" clip-path="url(#pcbe6b5943e)" style="fill: none; stroke: #b0b0b0; stroke-width: 0.8; stroke-linecap: square"/>
     </g>
     <g id="line2d_68">
      <g>
       <use xlink:href="#mad75e438d5" x="1167.280277" y="288.36" style="stroke: #000000; stroke-width: 0.8"/>
      </g>
     </g>
     <g id="text_36">
      <!-- 60 -->
      <g transform="translate(1160.917777 302.958438) scale(0.1 -0.1)">
       <use xlink:href="#DejaVuSans-36"/>
       <use xlink:href="#DejaVuSans-30" x="63.623047"/>
      </g>
     </g>
    </g>
    <g id="xtick_17">
     <g id="line2d_69">
      <path d="M 1231.640138 288.36 
L 1231.640138 38.88 
" clip-path="url(#pcbe6b5943e)" style="fill: none; stroke: #b0b0b0; stroke-width: 0.8; stroke-linecap: square"/>
     </g>
     <g id="line2d_70">
      <g>
       <use xlink:href="#mad75e438d5" x="1231.640138" y="288.36" style="stroke: #000000; stroke-width: 0.8"/>
      </g>
     </g>
     <g id="text_37">
      <!-- 80 -->
      <g transform="translate(1225.277638 302.958438) scale(0.1 -0.1)">
       <use xlink:href="#DejaVuSans-38"/>
       <use xlink:href="#DejaVuSans-30" x="63.623047"/>
      </g>
     </g>
    </g>
    <g id="xtick_18">
     <g id="line2d_71">
      <path d="M 1296 288.36 
L 1296 38.88 
" clip-path="url(#pcbe6b5943e)" style="fill: none; stroke: #b0b0b0; stroke-width: 0.8; stroke-linecap: square"/>
     </g>
     <g id="line2d_72">
      <g>
       <use xlink:href="#mad75e438d5" x="1296" y="288.36" style="stroke: #000000; stroke-width: 0.8"/>
      </g>
     </g>
     <g id="text_38">
      <!-- 100 -->
      <g transform="translate(1286.45625 302.958438) scale(0.1 -0.1)">
       <use xlink:href="#DejaVuSans-31"/>
       <use xlink:href="#DejaVuSans-30" x="63.623047"/>
       <use xlink:href="#DejaVuSans-30" x="127.246094"/>
      </g>
     </g>
    </g>
    <g id="text_39">
     <!-- Level [dB SPL] -->
     <g transform="translate(1096.022978 316.636563) scale(0.1 -0.1)">
      <defs>
       <path id="DejaVuSans-76" d="M 191 3500 
L 800 3500 
L 1894 563 
L 2988 3500 
L 3597 3500 
L 2284 0 
L 1503 0 
L 191 3500 
z
" transform="scale(0.015625)"/>
       <path id="DejaVuSans-5b" d="M 550 4863 
L 1875 4863 
L 1875 4416 
L 1125 4416 
L 1125 -397 
L 1875 -397 
L 1875 -844 
L 550 -844 
L 550 4863 
z
" transform="scale(0.015625)"/>
       <path id="DejaVuSans-64" d="M 2906 2969 
L 2906 4863 
L 3481 4863 
L 3481 0 
L 2906 0 
L 2906 525 
Q 2725 213 2448 61 
Q 2172 -91 1784 -91 
Q 1150 -91 751 415 
Q 353 922 353 1747 
Q 353 2572 751 3078 
Q 1150 3584 1784 3584 
Q 2172 3584 2448 3432 
Q 2725 3281 2906 2969 
z
M 947 1747 
Q 947 1113 1208 752 
Q 1469 391 1925 391 
Q 2381 391 2643 752 
Q 2906 1113 2906 1747 
Q 2906 2381 2643 2742 
Q 2381 3103 1925 3103 
Q 1469 3103 1208 2742 
Q 947 2381 947 1747 
z
" transform="scale(0.015625)"/>
       <path id="DejaVuSans-53" d="M 3425 4513 
L 3425 3897 
Q 3066 4069 2747 4153 
Q 2428 4238 2131 4238 
Q 1616 4238 1336 4038 
Q 1056 3838 1056 3469 
Q 1056 3159 1242 3001 
Q 1428 2844 1947 2747 
L 2328 2669 
Q 3034 2534 3370 2195 
Q 3706 1856 3706 1288 
Q 3706 609 3251 259 
Q 2797 -91 1919 -91 
Q 1588 -91 1214 -16 
Q 841 59 441 206 
L 441 856 
Q 825 641 1194 531 
Q 1563 422 1919 422 
Q 2459 422 2753 634 
Q 3047 847 3047 1241 
Q 3047 1584 2836 1778 
Q 2625 1972 2144 2069 
L 1759 2144 
Q 1053 2284 737 2584 
Q 422 2884 422 3419 
Q 422 4038 858 4394 
Q 1294 4750 2059 4750 
Q 2388 4750 2728 4690 
Q 3069 4631 3425 4513 
z
" transform="scale(0.015625)"/>
       <path id="DejaVuSans-50" d="M 1259 4147 
L 1259 2394 
L 2053 2394 
Q 2494 2394 2734 2622 
Q 2975 2850 2975 3272 
Q 2975 3691 2734 3919 
Q 2494 4147 2053 4147 
L 1259 4147 
z
M 628 4666 
L 2053 4666 
Q 2838 4666 3239 4311 
Q 3641 3956 3641 3272 
Q 3641 2581 3239 2228 
Q 2838 1875 2053 1875 
L 1259 1875 
L 1259 0 
L 628 0 
L 628 4666 
z
" transform="scale(0.015625)"/>
       <path id="DejaVuSans-5d" d="M 1947 4863 
L 1947 -844 
L 622 -844 
L 622 -397 
L 1369 -397 
L 1369 4416 
L 622 4416 
L 622 4863 
L 1947 4863 
z
" transform="scale(0.015625)"/>
      </defs>
      <use xlink:href="#DejaVuSans-4c"/>
      <use xlink:href="#DejaVuSans-65" x="53.962891"/>
      <use xlink:href="#DejaVuSans-76" x="115.486328"/>
      <use xlink:href="#DejaVuSans-65" x="174.666016"/>
      <use xlink:href="#DejaVuSans-6c" x="236.189453"/>
      <use xlink:href="#DejaVuSans-20" x="263.972656"/>
      <use xlink:href="#DejaVuSans-5b" x="295.759766"/>
      <use xlink:href="#DejaVuSans-64" x="334.773438"/>
      <use xlink:href="#DejaVuSans-42" x="398.25"/>
      <use xlink:href="#DejaVuSans-20" x="466.853516"/>
      <use xlink:href="#DejaVuSans-53" x="498.640625"/>
      <use xlink:href="#DejaVuSans-50" x="562.117188"/>
      <use xlink:href="#DejaVuSans-4c" x="622.419922"/>
      <use xlink:href="#DejaVuSans-5d" x="678.132812"/>
     </g>
    </g>
   </g>
   <g id="matplotlib.axis_6">
    <g id="ytick_13">
     <g id="line2d_73">
      <path d="M 967.764706 279.12 
L 1296 279.12 
" clip-path="url(#pcbe6b5943e)" style="fill: none; stroke: #b0b0b0; stroke-width: 0.8; stroke-linecap: square"/>
     </g>
     <g id="line2d_74">
      <g>
       <use xlink:href="#mfbe01b7451" x="967.764706" y="279.12" style="stroke: #000000; stroke-width: 0.8"/>
      </g>
     </g>
     <g id="text_40">
      <!-- 0 -->
      <g transform="translate(954.402206 282.919219) scale(0.1 -0.1)">
       <use xlink:href="#DejaVuSans-30"/>
      </g>
     </g>
    </g>
    <g id="ytick_14">
     <g id="line2d_75">
      <path d="M 967.764706 232.92 
L 1296 232.92 
" clip-path="url(#pcbe6b5943e)" style="fill: none; stroke: #b0b0b0; stroke-width: 0.8; stroke-linecap: square"/>
     </g>
     <g id="line2d_76">
      <g>
       <use xlink:href="#mfbe01b7451" x="967.764706" y="232.92" style="stroke: #000000; stroke-width: 0.8"/>
      </g>
     </g>
     <g id="text_41">
      <!-- 10 -->
      <g transform="translate(948.039706 236.719219) scale(0.1 -0.1)">
       <use xlink:href="#DejaVuSans-31"/>
       <use xlink:href="#DejaVuSans-30" x="63.623047"/>
      </g>
     </g>
    </g>
    <g id="ytick_15">
     <g id="line2d_77">
      <path d="M 967.764706 186.72 
L 1296 186.72 
" clip-path="url(#pcbe6b5943e)" style="fill: none; stroke: #b0b0b0; stroke-width: 0.8; stroke-linecap: square"/>
     </g>
     <g id="line2d_78">
      <g>
       <use xlink:href="#mfbe01b7451" x="967.764706" y="186.72" style="stroke: #000000; stroke-width: 0.8"/>
      </g>
     </g>
     <g id="text_42">
      <!-- 20 -->
      <g transform="translate(948.039706 190.519219) scale(0.1 -0.1)">
       <use xlink:href="#DejaVuSans-32"/>
       <use xlink:href="#DejaVuSans-30" x="63.623047"/>
      </g>
     </g>
    </g>
    <g id="ytick_16">
     <g id="line2d_79">
      <path d="M 967.764706 140.52 
L 1296 140.52 
" clip-path="url(#pcbe6b5943e)" style="fill: none; stroke: #b0b0b0; stroke-width: 0.8; stroke-linecap: square"/>
     </g>
     <g id="line2d_80">
      <g>
       <use xlink:href="#mfbe01b7451" x="967.764706" y="140.52" style="stroke: #000000; stroke-width: 0.8"/>
      </g>
     </g>
     <g id="text_43">
      <!-- 30 -->
      <g transform="translate(948.039706 144.319219) scale(0.1 -0.1)">
       <use xlink:href="#DejaVuSans-33"/>
       <use xlink:href="#DejaVuSans-30" x="63.623047"/>
      </g>
     </g>
    </g>
    <g id="ytick_17">
     <g id="line2d_81">
      <path d="M 967.764706 94.32 
L 1296 94.32 
" clip-path="url(#pcbe6b5943e)" style="fill: none; stroke: #b0b0b0; stroke-width: 0.8; stroke-linecap: square"/>
     </g>
     <g id="line2d_82">
      <g>
       <use xlink:href="#mfbe01b7451" x="967.764706" y="94.32" style="stroke: #000000; stroke-width: 0.8"/>
      </g>
     </g>
     <g id="text_44">
      <!-- 40 -->
      <g transform="translate(948.039706 98.119219) scale(0.1 -0.1)">
       <use xlink:href="#DejaVuSans-34"/>
       <use xlink:href="#DejaVuSans-30" x="63.623047"/>
      </g>
     </g>
    </g>
    <g id="ytick_18">
     <g id="line2d_83">
      <path d="M 967.764706 48.12 
L 1296 48.12 
" clip-path="url(#pcbe6b5943e)" style="fill: none; stroke: #b0b0b0; stroke-width: 0.8; stroke-linecap: square"/>
     </g>
     <g id="line2d_84">
      <g>
       <use xlink:href="#mfbe01b7451" x="967.764706" y="48.12" style="stroke: #000000; stroke-width: 0.8"/>
      </g>
     </g>
     <g id="text_45">
      <!-- 50 -->
      <g transform="translate(948.039706 51.919219) scale(0.1 -0.1)">
       <use xlink:href="#DejaVuSans-35"/>
       <use xlink:href="#DejaVuSans-30" x="63.623047"/>
      </g>
     </g>
    </g>
    <g id="text_46">
     <!-- Categorical Units -->
     <g transform="translate(941.960018 206.46375) rotate(-90) scale(0.1 -0.1)">
      <defs>
       <path id="DejaVuSans-43" d="M 4122 4306 
L 4122 3641 
Q 3803 3938 3442 4084 
Q 3081 4231 2675 4231 
Q 1875 4231 1450 3742 
Q 1025 3253 1025 2328 
Q 1025 1406 1450 917 
Q 1875 428 2675 428 
Q 3081 428 3442 575 
Q 3803 722 4122 1019 
L 4122 359 
Q 3791 134 3420 21 
Q 3050 -91 2638 -91 
Q 1578 -91 968 557 
Q 359 1206 359 2328 
Q 359 3453 968 4101 
Q 1578 4750 2638 4750 
Q 3056 4750 3426 4639 
Q 3797 4528 4122 4306 
z
" transform="scale(0.015625)"/>
       <path id="DejaVuSans-67" d="M 2906 1791 
Q 2906 2416 2648 2759 
Q 2391 3103 1925 3103 
Q 1463 3103 1205 2759 
Q 947 2416 947 1791 
Q 947 1169 1205 825 
Q 1463 481 1925 481 
Q 2391 481 2648 825 
Q 2906 1169 2906 1791 
z
M 3481 434 
Q 3481 -459 3084 -895 
Q 2688 -1331 1869 -1331 
Q 1566 -1331 1297 -1286 
Q 1028 -1241 775 -1147 
L 775 -588 
Q 1028 -725 1275 -790 
Q 1522 -856 1778 -856 
Q 2344 -856 2625 -561 
Q 2906 -266 2906 331 
L 2906 616 
Q 2728 306 2450 153 
Q 2172 0 1784 0 
Q 1141 0 747 490 
Q 353 981 353 1791 
Q 353 2603 747 3093 
Q 1141 3584 1784 3584 
Q 2172 3584 2450 3431 
Q 2728 3278 2906 2969 
L 2906 3500 
L 3481 3500 
L 3481 434 
z
" transform="scale(0.015625)"/>
       <path id="DejaVuSans-69" d="M 603 3500 
L 1178 3500 
L 1178 0 
L 603 0 
L 603 3500 
z
M 603 4863 
L 1178 4863 
L 1178 4134 
L 603 4134 
L 603 4863 
z
" transform="scale(0.015625)"/>
       <path id="DejaVuSans-6e" d="M 3513 2113 
L 3513 0 
L 2938 0 
L 2938 2094 
Q 2938 2591 2744 2837 
Q 2550 3084 2163 3084 
Q 1697 3084 1428 2787 
Q 1159 2491 1159 1978 
L 1159 0 
L 581 0 
L 581 3500 
L 1159 3500 
L 1159 2956 
Q 1366 3272 1645 3428 
Q 1925 3584 2291 3584 
Q 2894 3584 3203 3211 
Q 3513 2838 3513 2113 
z
" transform="scale(0.015625)"/>
       <path id="DejaVuSans-73" d="M 2834 3397 
L 2834 2853 
Q 2591 2978 2328 3040 
Q 2066 3103 1784 3103 
Q 1356 3103 1142 2972 
Q 928 2841 928 2578 
Q 928 2378 1081 2264 
Q 1234 2150 1697 2047 
L 1894 2003 
Q 2506 1872 2764 1633 
Q 3022 1394 3022 966 
Q 3022 478 2636 193 
Q 2250 -91 1575 -91 
Q 1294 -91 989 -36 
Q 684 19 347 128 
L 347 722 
Q 666 556 975 473 
Q 1284 391 1588 391 
Q 1994 391 2212 530 
Q 2431 669 2431 922 
Q 2431 1156 2273 1281 
Q 2116 1406 1581 1522 
L 1381 1569 
Q 847 1681 609 1914 
Q 372 2147 372 2553 
Q 372 3047 722 3315 
Q 1072 3584 1716 3584 
Q 2034 3584 2315 3537 
Q 2597 3491 2834 3397 
z
" transform="scale(0.015625)"/>
      </defs>
      <use xlink:href="#DejaVuSans-43"/>
      <use xlink:href="#DejaVuSans-61" x="69.824219"/>
      <use xlink:href="#DejaVuSans-74" x="131.103516"/>
      <use xlink:href="#DejaVuSans-65" x="170.3125"/>
      <use xlink:href="#DejaVuSans-67" x="231.835938"/>
      <use xlink:href="#DejaVuSans-6f" x="295.3125"/>
      <use xlink:href="#DejaVuSans-72" x="356.494141"/>
      <use xlink:href="#DejaVuSans-69" x="397.607422"/>
      <use xlink:href="#DejaVuSans-63" x="425.390625"/>
      <use xlink:href="#DejaVuSans-61" x="480.371094"/>
      <use xlink:href="#DejaVuSans-6c" x="541.650391"/>
      <use xlink:href="#DejaVuSans-20" x="569.433594"/>
      <use xlink:href="#DejaVuSans-55" x="601.220703"/>
      <use xlink:href="#DejaVuSans-6e" x="674.414062"/>
      <use xlink:href="#DejaVuSans-69" x="737.792969"/>
      <use xlink:href="#DejaVuSans-74" x="765.576172"/>
      <use xlink:href="#DejaVuSans-73" x="804.785156"/>
     </g>
    </g>
   </g>
   <g id="line2d_85">
    <path d="M 942.020761 163.62 
L 1360.359862 163.62 
" clip-path="url(#pcbe6b5943e)" style="fill: none; stroke-dasharray: 1.5,2.475; stroke-dashoffset: 0; stroke: #808080; stroke-width: 1.5"/>
   </g>
   <g id="line2d_86">
    <path d="M 1247.730104 325 
L 1247.730104 -1 
" clip-path="url(#pcbe6b5943e)" style="fill: none; stroke-dasharray: 5.55,2.4; stroke-dashoffset: 0; stroke: #ff0000; stroke-opacity: 0.3; stroke-width: 1.5"/>
   </g>
   <g id="line2d_87">
    <path d="M 1006.51687 279.12 
L 1009.440942 277.100075 
L 1012.365013 275.08015 
L 1015.289085 273.060225 
L 1018.213156 271.040299 
L 1021.137228 269.020374 
L 1024.061299 267.000449 
L 1026.985371 264.980524 
L 1029.909442 262.960599 
L 1032.833514 260.940674 
L 1035.757586 258.920748 
L 1038.681657 256.900823 
L 1041.605729 254.880898 
L 1044.5298 252.860973 
L 1047.453872 250.841048 
L 1050.377943 248.821123 
L 1053.302015 246.801197 
L 1056.226086 244.781272 
L 1059.150158 242.761347 
L 1062.074229 240.741422 
L 1064.998301 238.721497 
L 1067.922372 236.701572 
L 1070.846444 234.681646 
L 1073.770515 232.661721 
L 1076.694587 230.641796 
L 1079.618658 228.621871 
L 1082.54273 226.601946 
L 1085.466801 224.582021 
L 1088.390873 222.562095 
L 1091.314944 220.54217 
L 1094.239016 218.522245 
L 1097.163088 216.50232 
L 1100.087159 214.482395 
L 1103.011231 212.46247 
L 1105.935302 210.442544 
L 1108.859374 208.419769 
L 1111.783445 206.385548 
L 1114.707517 204.339101 
L 1117.631588 202.280206 
L 1120.55566 200.208632 
L 1123.479731 198.124143 
L 1126.403803 196.026495 
L 1129.327874 193.915433 
L 1132.251946 191.790699 
L 1135.176017 189.652022 
L 1138.100089 187.499125 
L 1141.02416 185.33172 
L 1143.948232 183.14951 
L 1146.872303 180.952187 
L 1149.796375 178.739433 
L 1152.720446 176.510918 
L 1155.644518 174.2663 
L 1158.568589 172.005226 
L 1161.492661 169.727328 
L 1164.416733 167.432224 
L 1167.340804 165.119518 
L 1170.264876 162.788801 
L 1173.188947 160.439643 
L 1176.113019 158.0716 
L 1179.03709 155.68421 
L 1181.961162 153.27699 
L 1184.885233 150.849438 
L 1187.809305 148.401029 
L 1190.733376 145.931217 
L 1193.657448 143.43943 
L 1196.581519 140.925071 
L 1199.505591 138.387516 
L 1202.429662 135.82611 
L 1205.353734 133.240167 
L 1208.277805 130.62897 
L 1211.201877 127.991763 
L 1214.125948 125.327753 
L 1217.05002 122.636105 
L 1219.974091 119.915943 
L 1222.898163 117.166466 
L 1225.822235 114.404607 
L 1228.746306 111.642749 
L 1231.670378 108.88089 
L 1234.594449 106.119032 
L 1237.518521 103.357173 
L 1240.442592 100.595314 
L 1243.366664 97.833456 
L 1246.290735 95.071597 
L 1249.214807 92.309738 
L 1252.138878 89.54788 
L 1255.06295 86.786021 
L 1257.987021 84.024162 
L 1260.911093 81.262304 
L 1263.835164 78.500445 
L 1266.759236 75.738586 
L 1269.683307 72.976728 
L 1272.607379 70.214869 
L 1275.53145 67.453011 
L 1278.455522 64.691152 
L 1281.379593 61.929293 
L 1284.303665 59.167435 
L 1287.227737 56.405576 
L 1290.151808 53.643717 
L 1293.07588 50.881859 
L 1295.999951 48.12 
" clip-path="url(#pcbe6b5943e)" style="fill: none; stroke: #1f77b4; stroke-width: 1.5; stroke-linecap: square"/>
   </g>
   <g id="line2d_88">
    <path d="M 1003.998138 279.12 
L 1006.395053 277.621223 
L 1008.791968 276.122445 
L 1011.188884 274.623668 
L 1013.585799 273.12489 
L 1015.982715 271.626113 
L 1018.37963 270.127336 
L 1020.776546 268.628558 
L 1023.173461 267.129781 
L 1025.570377 265.631003 
L 1027.967292 264.132226 
L 1030.364208 262.633449 
L 1032.761123 261.134671 
L 1035.158039 259.635894 
L 1037.554954 258.137116 
L 1039.951869 256.638339 
L 1042.348785 255.139562 
L 1044.7457 253.640784 
L 1047.142616 252.142007 
L 1049.539531 250.643229 
L 1051.936447 249.144452 
L 1054.333362 247.645675 
L 1056.730278 246.146897 
L 1059.127193 244.64812 
L 1061.524109 243.149342 
L 1063.921024 241.650565 
L 1066.31794 240.151788 
L 1068.714855 238.65301 
L 1071.111771 237.154233 
L 1073.508686 235.655456 
L 1075.905601 234.156678 
L 1078.302517 232.657901 
L 1080.699432 231.159123 
L 1083.096348 229.660346 
L 1085.493263 228.161569 
L 1087.890179 226.662791 
L 1090.287094 225.164014 
L 1092.68401 223.665236 
L 1095.080925 222.166459 
L 1097.477841 220.667682 
L 1099.874756 219.168904 
L 1102.271672 217.670127 
L 1104.668587 216.171349 
L 1107.065502 214.672572 
L 1109.462418 213.173795 
L 1111.859333 211.675017 
L 1114.256249 210.17624 
L 1116.653164 208.672364 
L 1119.05008 207.151113 
L 1121.446995 205.611344 
L 1123.843911 204.052364 
L 1126.240826 202.473435 
L 1128.637742 200.873772 
L 1131.034657 199.252535 
L 1133.431573 197.608827 
L 1135.828488 195.941688 
L 1138.225404 194.250085 
L 1140.622319 192.532909 
L 1143.019234 190.788964 
L 1145.41615 189.016958 
L 1147.813065 187.21549 
L 1150.209981 185.383041 
L 1152.606896 183.517955 
L 1155.003812 181.618422 
L 1157.400727 179.682462 
L 1159.797643 177.707895 
L 1162.194558 175.692313 
L 1164.591474 173.63305 
L 1166.988389 171.527137 
L 1169.385305 169.371252 
L 1171.78222 167.161659 
L 1174.179135 164.894132 
L 1176.576051 162.56386 
L 1178.972966 160.165326 
L 1181.369882 157.692157 
L 1183.766797 155.136917 
L 1186.163713 152.49085 
L 1188.560628 149.743523 
L 1190.957544 146.882334 
L 1193.354459 143.891832 
L 1195.751375 140.752719 
L 1198.14829 137.440355 
L 1200.545206 133.922435 
L 1202.942121 130.155155 
L 1205.339037 126.07652 
L 1207.735952 121.593589 
L 1210.132867 116.565416 
L 1212.529783 111.300384 
L 1214.926698 106.035352 
L 1217.323614 100.77032 
L 1219.720529 95.505288 
L 1222.117445 90.240256 
L 1224.51436 84.975224 
L 1226.911276 79.710192 
L 1229.308191 74.44516 
L 1231.705107 69.180128 
L 1234.102022 63.915096 
L 1236.498938 58.650064 
L 1238.895853 53.385032 
L 1241.292768 48.12 
" clip-path="url(#pcbe6b5943e)" style="fill: none; stroke-dasharray: 5.55,2.4; stroke-dashoffset: 0; stroke: #ff7f0e; stroke-width: 1.5"/>
   </g>
   <g id="patch_15">
    <path d="M 967.764706 288.36 
L 967.764706 38.88 
" style="fill: none; stroke: #000000; stroke-width: 0.8; stroke-linejoin: miter; stroke-linecap: square"/>
   </g>
   <g id="patch_16">
    <path d="M 1296 288.36 
L 1296 38.88 
" style="fill: none; stroke: #000000; stroke-width: 0.8; stroke-linejoin: miter; stroke-linecap: square"/>
   </g>
   <g id="patch_17">
    <path d="M 967.764706 288.36 
L 1296 288.36 
" style="fill: none; stroke: #000000; stroke-width: 0.8; stroke-linejoin: miter; stroke-linecap: square"/>
   </g>
   <g id="patch_18">
    <path d="M 967.764706 38.88 
L 1296 38.88 
" style="fill: none; stroke: #000000; stroke-width: 0.8; stroke-linejoin: miter; stroke-linecap: square"/>
   </g>
   <g id="text_47">
    <!--  Block: 2 -->
    <g transform="translate(1106.001728 32.88) scale(0.12 -0.12)">
     <use xlink:href="#DejaVuSans-20"/>
     <use xlink:href="#DejaVuSans-42" x="31.787109"/>
     <use xlink:href="#DejaVuSans-6c" x="100.390625"/>
     <use xlink:href="#DejaVuSans-6f" x="128.173828"/>
     <use xlink:href="#DejaVuSans-63" x="189.355469"/>
     <use xlink:href="#DejaVuSans-6b" x="244.335938"/>
     <use xlink:href="#DejaVuSans-3a" x="302.246094"/>
     <use xlink:href="#DejaVuSans-20" x="335.9375"/>
     <use xlink:href="#DejaVuSans-32" x="367.724609"/>
    </g>
   </g>
   <g id="legend_3">
    <g id="patch_19">
     <path d="M 974.764706 91.1925 
L 1105.964706 91.1925 
Q 1107.964706 91.1925 1107.964706 89.1925 
L 1107.964706 45.88 
Q 1107.964706 43.88 1105.964706 43.88 
L 974.764706 43.88 
Q 972.764706 43.88 972.764706 45.88 
L 972.764706 89.1925 
Q 972.764706 91.1925 974.764706 91.1925 
z
" style="fill: #ffffff; opacity: 0.8; stroke: #cccccc; stroke-linejoin: miter"/>
    </g>
    <g id="PathCollection_6">
     <g>
      <use xlink:href="#m41a43a65af" x="986.764706" y="52.853437" style="stroke: #000000"/>
     </g>
    </g>
    <g id="text_48">
     <!-- Data -->
     <g transform="translate(1004.764706 55.478437) scale(0.1 -0.1)">
      <use xlink:href="#DejaVuSans-44"/>
      <use xlink:href="#DejaVuSans-61" x="77.001953"/>
      <use xlink:href="#DejaVuSans-74" x="138.28125"/>
      <use xlink:href="#DejaVuSans-61" x="177.490234"/>
     </g>
    </g>
    <g id="line2d_89">
     <path d="M 976.764706 66.656562 
L 986.764706 66.656562 
L 996.764706 66.656562 
" style="fill: none; stroke: #1f77b4; stroke-width: 1.5; stroke-linecap: square"/>
    </g>
    <g id="text_49">
     <!-- Artc e:0.2701 -->
     <g transform="translate(1004.764706 70.156562) scale(0.1 -0.1)">
      <defs>
       <path id="DejaVuSans-37" d="M 525 4666 
L 3525 4666 
L 3525 4397 
L 1831 0 
L 1172 0 
L 2766 4134 
L 525 4134 
L 525 4666 
z
" transform="scale(0.015625)"/>
      </defs>
      <use xlink:href="#DejaVuSans-41"/>
      <use xlink:href="#DejaVuSans-72" x="68.408203"/>
      <use xlink:href="#DejaVuSans-74" x="109.521484"/>
      <use xlink:href="#DejaVuSans-63" x="148.730469"/>
      <use xlink:href="#DejaVuSans-20" x="203.710938"/>
      <use xlink:href="#DejaVuSans-65" x="235.498047"/>
      <use xlink:href="#DejaVuSans-3a" x="297.021484"/>
      <use xlink:href="#DejaVuSans-30" x="330.712891"/>
      <use xlink:href="#DejaVuSans-2e" x="394.335938"/>
      <use xlink:href="#DejaVuSans-32" x="426.123047"/>
      <use xlink:href="#DejaVuSans-37" x="489.746094"/>
      <use xlink:href="#DejaVuSans-30" x="553.369141"/>
      <use xlink:href="#DejaVuSans-31" x="616.992188"/>
     </g>
    </g>
    <g id="line2d_90">
     <path d="M 976.764706 81.334687 
L 986.764706 81.334687 
L 996.764706 81.334687 
" style="fill: none; stroke-dasharray: 5.55,2.4; stroke-dashoffset: 0; stroke: #ff7f0e; stroke-width: 1.5"/>
    </g>
    <g id="text_50">
     <!-- NEL_BTUX e:0.2302 -->
     <g transform="translate(1004.764706 84.834687) scale(0.1 -0.1)">
      <use xlink:href="#DejaVuSans-4e"/>
      <use xlink:href="#DejaVuSans-45" x="74.804688"/>
      <use xlink:href="#DejaVuSans-4c" x="137.988281"/>
      <use xlink:href="#DejaVuSans-5f" x="193.701172"/>
      <use xlink:href="#DejaVuSans-42" x="243.701172"/>
      <use xlink:href="#DejaVuSans-54" x="312.304688"/>
      <use xlink:href="#DejaVuSans-55" x="373.388672"/>
      <use xlink:href="#DejaVuSans-58" x="446.582031"/>
      <use xlink:href="#DejaVuSans-20" x="515.087891"/>
      <use xlink:href="#DejaVuSans-65" x="546.875"/>
      <use xlink:href="#DejaVuSans-3a" x="608.398438"/>
      <use xlink:href="#DejaVuSans-30" x="642.089844"/>
      <use xlink:href="#DejaVuSans-2e" x="705.712891"/>
      <use xlink:href="#DejaVuSans-32" x="737.5"/>
      <use xlink:href="#DejaVuSans-33" x="801.123047"/>
      <use xlink:href="#DejaVuSans-30" x="864.746094"/>
      <use xlink:href="#DejaVuSans-32" x="928.369141"/>
     </g>
    </g>
   </g>
  </g>
  <g id="text_51">
   <!-- ID: 3634, Max level: 85dB -->
   <g transform="translate(655.440625 14.078438) scale(0.1 -0.1)">
    <defs>
     <path id="DejaVuSans-49" d="M 628 4666 
L 1259 4666 
L 1259 0 
L 628 0 
L 628 4666 
z
" transform="scale(0.015625)"/>
     <path id="DejaVuSans-2c" d="M 750 794 
L 1409 794 
L 1409 256 
L 897 -744 
L 494 -744 
L 750 256 
L 750 794 
z
" transform="scale(0.015625)"/>
     <path id="DejaVuSans-4d" d="M 628 4666 
L 1569 4666 
L 2759 1491 
L 3956 4666 
L 4897 4666 
L 4897 0 
L 4281 0 
L 4281 4097 
L 3078 897 
L 2444 897 
L 1241 4097 
L 1241 0 
L 628 0 
L 628 4666 
z
" transform="scale(0.015625)"/>
     <path id="DejaVuSans-78" d="M 3513 3500 
L 2247 1797 
L 3578 0 
L 2900 0 
L 1881 1375 
L 863 0 
L 184 0 
L 1544 1831 
L 300 3500 
L 978 3500 
L 1906 2253 
L 2834 3500 
L 3513 3500 
z
" transform="scale(0.015625)"/>
    </defs>
    <use xlink:href="#DejaVuSans-49"/>
    <use xlink:href="#DejaVuSans-44" x="29.492188"/>
    <use xlink:href="#DejaVuSans-3a" x="106.494141"/>
    <use xlink:href="#DejaVuSans-20" x="140.185547"/>
    <use xlink:href="#DejaVuSans-33" x="171.972656"/>
    <use xlink:href="#DejaVuSans-36" x="235.595703"/>
    <use xlink:href="#DejaVuSans-33" x="299.21875"/>
    <use xlink:href="#DejaVuSans-34" x="362.841797"/>
    <use xlink:href="#DejaVuSans-2c" x="426.464844"/>
    <use xlink:href="#DejaVuSans-20" x="458.251953"/>
    <use xlink:href="#DejaVuSans-4d" x="490.039062"/>
    <use xlink:href="#DejaVuSans-61" x="576.318359"/>
    <use xlink:href="#DejaVuSans-78" x="637.597656"/>
    <use xlink:href="#DejaVuSans-20" x="696.777344"/>
    <use xlink:href="#DejaVuSans-6c" x="728.564453"/>
    <use xlink:href="#DejaVuSans-65" x="756.347656"/>
    <use xlink:href="#DejaVuSans-76" x="817.871094"/>
    <use xlink:href="#DejaVuSans-65" x="877.050781"/>
    <use xlink:href="#DejaVuSans-6c" x="938.574219"/>
    <use xlink:href="#DejaVuSans-3a" x="966.357422"/>
    <use xlink:href="#DejaVuSans-20" x="1000.048828"/>
    <use xlink:href="#DejaVuSans-38" x="1031.835938"/>
    <use xlink:href="#DejaVuSans-35" x="1095.458984"/>
    <use xlink:href="#DejaVuSans-64" x="1159.082031"/>
    <use xlink:href="#DejaVuSans-42" x="1222.558594"/>
   </g>
  </g>
 </g>
 <defs>
  <clipPath id="p27ab6a0ae0">
   <rect x="180" y="38.88" width="328.235294" height="249.48"/>
  </clipPath>
  <clipPath id="p7f9ced59f1">
   <rect x="573.882353" y="38.88" width="328.235294" height="249.48"/>
  </clipPath>
  <clipPath id="pcbe6b5943e">
   <rect x="967.764706" y="38.88" width="328.235294" height="249.48"/>
  </clipPath>
 </defs>
</svg>
