<?xml version="1.0" encoding="utf-8" standalone="no"?>
<!DOCTYPE svg PUBLIC "-//W3C//DTD SVG 1.1//EN"
  "http://www.w3.org/Graphics/SVG/1.1/DTD/svg11.dtd">
<svg xmlns:xlink="http://www.w3.org/1999/xlink" width="1440pt" height="648pt" viewBox="0 0 1440 648" xmlns="http://www.w3.org/2000/svg" version="1.1">
 <metadata>
  <rdf:RDF xmlns:dc="http://purl.org/dc/elements/1.1/" xmlns:cc="http://creativecommons.org/ns#" xmlns:rdf="http://www.w3.org/1999/02/22-rdf-syntax-ns#">
   <cc:Work>
    <dc:type rdf:resource="http://purl.org/dc/dcmitype/StillImage"/>
    <dc:date>2024-05-24T15:09:53.459050</dc:date>
    <dc:format>image/svg+xml</dc:format>
    <dc:creator>
     <cc:Agent>
      <dc:title>Matplotlib v3.5.2, https://matplotlib.org/</dc:title>
     </cc:Agent>
    </dc:creator>
   </cc:Work>
  </rdf:RDF>
 </metadata>
 <defs>
  <style type="text/css">*{stroke-linejoin: round; stroke-linecap: butt}</style>
 </defs>
 <g id="figure_1">
  <g id="patch_1">
   <path d="M 0 648 
L 1440 648 
L 1440 0 
L 0 0 
L 0 648 
z
" style="fill: none"/>
  </g>
  <g id="axes_1">
   <g id="patch_2">
    <path d="M 180 300.141818 
L 508.235294 300.141818 
L 508.235294 77.76 
L 180 77.76 
z
" style="fill: #ffffff"/>
   </g>
   <g id="PathCollection_1">
    <defs>
     <path id="md2567df40d" d="M 0 3 
C 0.795609 3 1.55874 2.683901 2.12132 2.12132 
C 2.683901 1.55874 3 0.795609 3 0 
C 3 -0.795609 2.683901 -1.55874 2.12132 -2.12132 
C 1.55874 -2.683901 0.795609 -3 0 -3 
C -0.795609 -3 -1.55874 -2.683901 -2.12132 -2.12132 
C -2.683901 -1.55874 -3 -0.795609 -3 0 
C -3 0.795609 -2.683901 1.55874 -2.12132 2.12132 
C -1.55874 2.683901 -0.795609 3 0 3 
z
" style="stroke: #000000"/>
    </defs>
    <g clip-path="url(#pe14e4676dc)">
     <use xlink:href="#md2567df40d" x="390.024681" y="188.950909" style="stroke: #000000"/>
     <use xlink:href="#md2567df40d" x="412.978198" y="127.178182" style="stroke: #000000"/>
     <use xlink:href="#md2567df40d" x="355.594406" y="230.132727" style="stroke: #000000"/>
     <use xlink:href="#md2567df40d" x="321.16413" y="250.723636" style="stroke: #000000"/>
     <use xlink:href="#md2567df40d" x="286.733854" y="271.314545" style="stroke: #000000"/>
     <use xlink:href="#md2567df40d" x="252.303579" y="291.905455" style="stroke: #000000"/>
     <use xlink:href="#md2567df40d" x="263.780337" y="271.314545" style="stroke: #000000"/>
     <use xlink:href="#md2567df40d" x="344.113056" y="188.950909" style="stroke: #000000"/>
     <use xlink:href="#md2567df40d" x="263.771385" y="271.314545" style="stroke: #000000"/>
     <use xlink:href="#md2567df40d" x="303.942336" y="230.132727" style="stroke: #000000"/>
     <use xlink:href="#md2567df40d" x="424.454957" y="106.587273" style="stroke: #000000"/>
     <use xlink:href="#md2567df40d" x="384.284007" y="168.36" style="stroke: #000000"/>
     <use xlink:href="#md2567df40d" x="344.072658" y="209.541818" style="stroke: #000000"/>
     <use xlink:href="#md2567df40d" x="303.881279" y="250.723636" style="stroke: #000000"/>
     <use xlink:href="#md2567df40d" x="424.454957" y="85.996364" style="stroke: #000000"/>
     <use xlink:href="#md2567df40d" x="384.263578" y="127.178182" style="stroke: #000000"/>
     <use xlink:href="#md2567df40d" x="263.69013" y="271.314545" style="stroke: #000000"/>
    </g>
   </g>
   <g id="matplotlib.axis_1">
    <g id="xtick_1">
     <g id="line2d_1">
      <path d="M 217.873303 300.141818 
L 217.873303 77.76 
" clip-path="url(#pe14e4676dc)" style="fill: none; stroke: #b0b0b0; stroke-width: 0.8; stroke-linecap: square"/>
     </g>
     <g id="line2d_2">
      <defs>
       <path id="m20253fd3a9" d="M 0 0 
L 0 3.5 
" style="stroke: #000000; stroke-width: 0.8"/>
      </defs>
      <g>
       <use xlink:href="#m20253fd3a9" x="217.873303" y="300.141818" style="stroke: #000000; stroke-width: 0.8"/>
      </g>
     </g>
     <g id="text_1">
      <!-- 0 -->
      <g transform="translate(214.692053 314.740256)scale(0.1 -0.1)">
       <defs>
        <path id="DejaVuSans-30" d="M 2034 4250 
Q 1547 4250 1301 3770 
Q 1056 3291 1056 2328 
Q 1056 1369 1301 889 
Q 1547 409 2034 409 
Q 2525 409 2770 889 
Q 3016 1369 3016 2328 
Q 3016 3291 2770 3770 
Q 2525 4250 2034 4250 
z
M 2034 4750 
Q 2819 4750 3233 4129 
Q 3647 3509 3647 2328 
Q 3647 1150 3233 529 
Q 2819 -91 2034 -91 
Q 1250 -91 836 529 
Q 422 1150 422 2328 
Q 422 3509 836 4129 
Q 1250 4750 2034 4750 
z
" transform="scale(0.015625)"/>
       </defs>
       <use xlink:href="#DejaVuSans-30"/>
      </g>
     </g>
    </g>
    <g id="xtick_2">
     <g id="line2d_3">
      <path d="M 263.780337 300.141818 
L 263.780337 77.76 
" clip-path="url(#pe14e4676dc)" style="fill: none; stroke: #b0b0b0; stroke-width: 0.8; stroke-linecap: square"/>
     </g>
     <g id="line2d_4">
      <g>
       <use xlink:href="#m20253fd3a9" x="263.780337" y="300.141818" style="stroke: #000000; stroke-width: 0.8"/>
      </g>
     </g>
     <g id="text_2">
      <!-- 20 -->
      <g transform="translate(257.417837 314.740256)scale(0.1 -0.1)">
       <defs>
        <path id="DejaVuSans-32" d="M 1228 531 
L 3431 531 
L 3431 0 
L 469 0 
L 469 531 
Q 828 903 1448 1529 
Q 2069 2156 2228 2338 
Q 2531 2678 2651 2914 
Q 2772 3150 2772 3378 
Q 2772 3750 2511 3984 
Q 2250 4219 1831 4219 
Q 1534 4219 1204 4116 
Q 875 4013 500 3803 
L 500 4441 
Q 881 4594 1212 4672 
Q 1544 4750 1819 4750 
Q 2544 4750 2975 4387 
Q 3406 4025 3406 3419 
Q 3406 3131 3298 2873 
Q 3191 2616 2906 2266 
Q 2828 2175 2409 1742 
Q 1991 1309 1228 531 
z
" transform="scale(0.015625)"/>
       </defs>
       <use xlink:href="#DejaVuSans-32"/>
       <use xlink:href="#DejaVuSans-30" x="63.623047"/>
      </g>
     </g>
    </g>
    <g id="xtick_3">
     <g id="line2d_5">
      <path d="M 309.687371 300.141818 
L 309.687371 77.76 
" clip-path="url(#pe14e4676dc)" style="fill: none; stroke: #b0b0b0; stroke-width: 0.8; stroke-linecap: square"/>
     </g>
     <g id="line2d_6">
      <g>
       <use xlink:href="#m20253fd3a9" x="309.687371" y="300.141818" style="stroke: #000000; stroke-width: 0.8"/>
      </g>
     </g>
     <g id="text_3">
      <!-- 40 -->
      <g transform="translate(303.324871 314.740256)scale(0.1 -0.1)">
       <defs>
        <path id="DejaVuSans-34" d="M 2419 4116 
L 825 1625 
L 2419 1625 
L 2419 4116 
z
M 2253 4666 
L 3047 4666 
L 3047 1625 
L 3713 1625 
L 3713 1100 
L 3047 1100 
L 3047 0 
L 2419 0 
L 2419 1100 
L 313 1100 
L 313 1709 
L 2253 4666 
z
" transform="scale(0.015625)"/>
       </defs>
       <use xlink:href="#DejaVuSans-34"/>
       <use xlink:href="#DejaVuSans-30" x="63.623047"/>
      </g>
     </g>
    </g>
    <g id="xtick_4">
     <g id="line2d_7">
      <path d="M 355.594406 300.141818 
L 355.594406 77.76 
" clip-path="url(#pe14e4676dc)" style="fill: none; stroke: #b0b0b0; stroke-width: 0.8; stroke-linecap: square"/>
     </g>
     <g id="line2d_8">
      <g>
       <use xlink:href="#m20253fd3a9" x="355.594406" y="300.141818" style="stroke: #000000; stroke-width: 0.8"/>
      </g>
     </g>
     <g id="text_4">
      <!-- 60 -->
      <g transform="translate(349.231906 314.740256)scale(0.1 -0.1)">
       <defs>
        <path id="DejaVuSans-36" d="M 2113 2584 
Q 1688 2584 1439 2293 
Q 1191 2003 1191 1497 
Q 1191 994 1439 701 
Q 1688 409 2113 409 
Q 2538 409 2786 701 
Q 3034 994 3034 1497 
Q 3034 2003 2786 2293 
Q 2538 2584 2113 2584 
z
M 3366 4563 
L 3366 3988 
Q 3128 4100 2886 4159 
Q 2644 4219 2406 4219 
Q 1781 4219 1451 3797 
Q 1122 3375 1075 2522 
Q 1259 2794 1537 2939 
Q 1816 3084 2150 3084 
Q 2853 3084 3261 2657 
Q 3669 2231 3669 1497 
Q 3669 778 3244 343 
Q 2819 -91 2113 -91 
Q 1303 -91 875 529 
Q 447 1150 447 2328 
Q 447 3434 972 4092 
Q 1497 4750 2381 4750 
Q 2619 4750 2861 4703 
Q 3103 4656 3366 4563 
z
" transform="scale(0.015625)"/>
       </defs>
       <use xlink:href="#DejaVuSans-36"/>
       <use xlink:href="#DejaVuSans-30" x="63.623047"/>
      </g>
     </g>
    </g>
    <g id="xtick_5">
     <g id="line2d_9">
      <path d="M 401.50144 300.141818 
L 401.50144 77.76 
" clip-path="url(#pe14e4676dc)" style="fill: none; stroke: #b0b0b0; stroke-width: 0.8; stroke-linecap: square"/>
     </g>
     <g id="line2d_10">
      <g>
       <use xlink:href="#m20253fd3a9" x="401.50144" y="300.141818" style="stroke: #000000; stroke-width: 0.8"/>
      </g>
     </g>
     <g id="text_5">
      <!-- 80 -->
      <g transform="translate(395.13894 314.740256)scale(0.1 -0.1)">
       <defs>
        <path id="DejaVuSans-38" d="M 2034 2216 
Q 1584 2216 1326 1975 
Q 1069 1734 1069 1313 
Q 1069 891 1326 650 
Q 1584 409 2034 409 
Q 2484 409 2743 651 
Q 3003 894 3003 1313 
Q 3003 1734 2745 1975 
Q 2488 2216 2034 2216 
z
M 1403 2484 
Q 997 2584 770 2862 
Q 544 3141 544 3541 
Q 544 4100 942 4425 
Q 1341 4750 2034 4750 
Q 2731 4750 3128 4425 
Q 3525 4100 3525 3541 
Q 3525 3141 3298 2862 
Q 3072 2584 2669 2484 
Q 3125 2378 3379 2068 
Q 3634 1759 3634 1313 
Q 3634 634 3220 271 
Q 2806 -91 2034 -91 
Q 1263 -91 848 271 
Q 434 634 434 1313 
Q 434 1759 690 2068 
Q 947 2378 1403 2484 
z
M 1172 3481 
Q 1172 3119 1398 2916 
Q 1625 2713 2034 2713 
Q 2441 2713 2670 2916 
Q 2900 3119 2900 3481 
Q 2900 3844 2670 4047 
Q 2441 4250 2034 4250 
Q 1625 4250 1398 4047 
Q 1172 3844 1172 3481 
z
" transform="scale(0.015625)"/>
       </defs>
       <use xlink:href="#DejaVuSans-38"/>
       <use xlink:href="#DejaVuSans-30" x="63.623047"/>
      </g>
     </g>
    </g>
    <g id="xtick_6">
     <g id="line2d_11">
      <path d="M 447.408474 300.141818 
L 447.408474 77.76 
" clip-path="url(#pe14e4676dc)" style="fill: none; stroke: #b0b0b0; stroke-width: 0.8; stroke-linecap: square"/>
     </g>
     <g id="line2d_12">
      <g>
       <use xlink:href="#m20253fd3a9" x="447.408474" y="300.141818" style="stroke: #000000; stroke-width: 0.8"/>
      </g>
     </g>
     <g id="text_6">
      <!-- 100 -->
      <g transform="translate(437.864724 314.740256)scale(0.1 -0.1)">
       <defs>
        <path id="DejaVuSans-31" d="M 794 531 
L 1825 531 
L 1825 4091 
L 703 3866 
L 703 4441 
L 1819 4666 
L 2450 4666 
L 2450 531 
L 3481 531 
L 3481 0 
L 794 0 
L 794 531 
z
" transform="scale(0.015625)"/>
       </defs>
       <use xlink:href="#DejaVuSans-31"/>
       <use xlink:href="#DejaVuSans-30" x="63.623047"/>
       <use xlink:href="#DejaVuSans-30" x="127.246094"/>
      </g>
     </g>
    </g>
    <g id="xtick_7">
     <g id="line2d_13">
      <path d="M 493.315508 300.141818 
L 493.315508 77.76 
" clip-path="url(#pe14e4676dc)" style="fill: none; stroke: #b0b0b0; stroke-width: 0.8; stroke-linecap: square"/>
     </g>
     <g id="line2d_14">
      <g>
       <use xlink:href="#m20253fd3a9" x="493.315508" y="300.141818" style="stroke: #000000; stroke-width: 0.8"/>
      </g>
     </g>
     <g id="text_7">
      <!-- 120 -->
      <g transform="translate(483.771758 314.740256)scale(0.1 -0.1)">
       <use xlink:href="#DejaVuSans-31"/>
       <use xlink:href="#DejaVuSans-32" x="63.623047"/>
       <use xlink:href="#DejaVuSans-30" x="127.246094"/>
      </g>
     </g>
    </g>
   </g>
   <g id="matplotlib.axis_2">
    <g id="ytick_1">
     <g id="line2d_15">
      <path d="M 180 291.905455 
L 508.235294 291.905455 
" clip-path="url(#pe14e4676dc)" style="fill: none; stroke: #b0b0b0; stroke-width: 0.8; stroke-linecap: square"/>
     </g>
     <g id="line2d_16">
      <defs>
       <path id="mf09b7b3d90" d="M 0 0 
L -3.5 0 
" style="stroke: #000000; stroke-width: 0.8"/>
      </defs>
      <g>
       <use xlink:href="#mf09b7b3d90" x="180" y="291.905455" style="stroke: #000000; stroke-width: 0.8"/>
      </g>
     </g>
     <g id="text_8">
      <!-- 0 -->
      <g transform="translate(166.6375 295.704673)scale(0.1 -0.1)">
       <use xlink:href="#DejaVuSans-30"/>
      </g>
     </g>
    </g>
    <g id="ytick_2">
     <g id="line2d_17">
      <path d="M 180 250.723636 
L 508.235294 250.723636 
" clip-path="url(#pe14e4676dc)" style="fill: none; stroke: #b0b0b0; stroke-width: 0.8; stroke-linecap: square"/>
     </g>
     <g id="line2d_18">
      <g>
       <use xlink:href="#mf09b7b3d90" x="180" y="250.723636" style="stroke: #000000; stroke-width: 0.8"/>
      </g>
     </g>
     <g id="text_9">
      <!-- 10 -->
      <g transform="translate(160.275 254.522855)scale(0.1 -0.1)">
       <use xlink:href="#DejaVuSans-31"/>
       <use xlink:href="#DejaVuSans-30" x="63.623047"/>
      </g>
     </g>
    </g>
    <g id="ytick_3">
     <g id="line2d_19">
      <path d="M 180 209.541818 
L 508.235294 209.541818 
" clip-path="url(#pe14e4676dc)" style="fill: none; stroke: #b0b0b0; stroke-width: 0.8; stroke-linecap: square"/>
     </g>
     <g id="line2d_20">
      <g>
       <use xlink:href="#mf09b7b3d90" x="180" y="209.541818" style="stroke: #000000; stroke-width: 0.8"/>
      </g>
     </g>
     <g id="text_10">
      <!-- 20 -->
      <g transform="translate(160.275 213.341037)scale(0.1 -0.1)">
       <use xlink:href="#DejaVuSans-32"/>
       <use xlink:href="#DejaVuSans-30" x="63.623047"/>
      </g>
     </g>
    </g>
    <g id="ytick_4">
     <g id="line2d_21">
      <path d="M 180 168.36 
L 508.235294 168.36 
" clip-path="url(#pe14e4676dc)" style="fill: none; stroke: #b0b0b0; stroke-width: 0.8; stroke-linecap: square"/>
     </g>
     <g id="line2d_22">
      <g>
       <use xlink:href="#mf09b7b3d90" x="180" y="168.36" style="stroke: #000000; stroke-width: 0.8"/>
      </g>
     </g>
     <g id="text_11">
      <!-- 30 -->
      <g transform="translate(160.275 172.159219)scale(0.1 -0.1)">
       <defs>
        <path id="DejaVuSans-33" d="M 2597 2516 
Q 3050 2419 3304 2112 
Q 3559 1806 3559 1356 
Q 3559 666 3084 287 
Q 2609 -91 1734 -91 
Q 1441 -91 1130 -33 
Q 819 25 488 141 
L 488 750 
Q 750 597 1062 519 
Q 1375 441 1716 441 
Q 2309 441 2620 675 
Q 2931 909 2931 1356 
Q 2931 1769 2642 2001 
Q 2353 2234 1838 2234 
L 1294 2234 
L 1294 2753 
L 1863 2753 
Q 2328 2753 2575 2939 
Q 2822 3125 2822 3475 
Q 2822 3834 2567 4026 
Q 2313 4219 1838 4219 
Q 1578 4219 1281 4162 
Q 984 4106 628 3988 
L 628 4550 
Q 988 4650 1302 4700 
Q 1616 4750 1894 4750 
Q 2613 4750 3031 4423 
Q 3450 4097 3450 3541 
Q 3450 3153 3228 2886 
Q 3006 2619 2597 2516 
z
" transform="scale(0.015625)"/>
       </defs>
       <use xlink:href="#DejaVuSans-33"/>
       <use xlink:href="#DejaVuSans-30" x="63.623047"/>
      </g>
     </g>
    </g>
    <g id="ytick_5">
     <g id="line2d_23">
      <path d="M 180 127.178182 
L 508.235294 127.178182 
" clip-path="url(#pe14e4676dc)" style="fill: none; stroke: #b0b0b0; stroke-width: 0.8; stroke-linecap: square"/>
     </g>
     <g id="line2d_24">
      <g>
       <use xlink:href="#mf09b7b3d90" x="180" y="127.178182" style="stroke: #000000; stroke-width: 0.8"/>
      </g>
     </g>
     <g id="text_12">
      <!-- 40 -->
      <g transform="translate(160.275 130.977401)scale(0.1 -0.1)">
       <use xlink:href="#DejaVuSans-34"/>
       <use xlink:href="#DejaVuSans-30" x="63.623047"/>
      </g>
     </g>
    </g>
    <g id="ytick_6">
     <g id="line2d_25">
      <path d="M 180 85.996364 
L 508.235294 85.996364 
" clip-path="url(#pe14e4676dc)" style="fill: none; stroke: #b0b0b0; stroke-width: 0.8; stroke-linecap: square"/>
     </g>
     <g id="line2d_26">
      <g>
       <use xlink:href="#mf09b7b3d90" x="180" y="85.996364" style="stroke: #000000; stroke-width: 0.8"/>
      </g>
     </g>
     <g id="text_13">
      <!-- 50 -->
      <g transform="translate(160.275 89.795582)scale(0.1 -0.1)">
       <defs>
        <path id="DejaVuSans-35" d="M 691 4666 
L 3169 4666 
L 3169 4134 
L 1269 4134 
L 1269 2991 
Q 1406 3038 1543 3061 
Q 1681 3084 1819 3084 
Q 2600 3084 3056 2656 
Q 3513 2228 3513 1497 
Q 3513 744 3044 326 
Q 2575 -91 1722 -91 
Q 1428 -91 1123 -41 
Q 819 9 494 109 
L 494 744 
Q 775 591 1075 516 
Q 1375 441 1709 441 
Q 2250 441 2565 725 
Q 2881 1009 2881 1497 
Q 2881 1984 2565 2268 
Q 2250 2553 1709 2553 
Q 1456 2553 1204 2497 
Q 953 2441 691 2322 
L 691 4666 
z
" transform="scale(0.015625)"/>
       </defs>
       <use xlink:href="#DejaVuSans-35"/>
       <use xlink:href="#DejaVuSans-30" x="63.623047"/>
      </g>
     </g>
    </g>
   </g>
   <g id="line2d_27">
    <path d="M 194.919786 188.950909 
L 493.315508 188.950909 
" clip-path="url(#pe14e4676dc)" style="fill: none; stroke-dasharray: 1.5,2.475; stroke-dashoffset: 0; stroke: #808080; stroke-width: 1.5"/>
   </g>
   <g id="line2d_28">
    <path d="M 424.454957 333.087273 
L 424.454957 3.632727 
" clip-path="url(#pe14e4676dc)" style="fill: none; stroke-dasharray: 5.55,2.4; stroke-dashoffset: 0; stroke: #ff0000; stroke-opacity: 0.3; stroke-width: 1.5"/>
   </g>
   <g id="line2d_29">
    <path d="M 244.227455 291.905455 
L 246.11647 290.432381 
L 248.005486 288.959307 
L 249.894502 287.486233 
L 251.783517 286.013159 
L 253.672533 284.540085 
L 255.561549 283.067011 
L 257.450565 281.593937 
L 259.33958 280.120863 
L 261.228596 278.647789 
L 263.117612 277.174715 
L 265.006627 275.701641 
L 266.895643 274.228568 
L 268.784659 272.755494 
L 270.673675 271.28242 
L 272.56269 269.809346 
L 274.451706 268.336272 
L 276.340722 266.863198 
L 278.229738 265.390124 
L 280.118753 263.91705 
L 282.007769 262.443976 
L 283.896785 260.970902 
L 285.7858 259.497828 
L 287.674816 258.024755 
L 289.563832 256.551681 
L 291.452848 255.078607 
L 293.341863 253.605533 
L 295.230879 252.132459 
L 297.119895 250.659385 
L 299.00891 249.186311 
L 300.897926 247.713237 
L 302.786942 246.240163 
L 304.675958 244.767089 
L 306.564973 243.294015 
L 308.453989 241.820941 
L 310.343005 240.347868 
L 312.232021 238.874794 
L 314.121036 237.40172 
L 316.010052 235.928646 
L 317.899068 234.455572 
L 319.788083 232.982498 
L 321.677099 231.509424 
L 323.566115 230.036317 
L 325.455131 228.554453 
L 327.344146 227.056685 
L 329.233162 225.542492 
L 331.122178 224.01132 
L 333.011193 222.462585 
L 334.900209 220.895669 
L 336.789225 219.309916 
L 338.678241 217.704629 
L 340.567256 216.079069 
L 342.456272 214.432447 
L 344.345288 212.763923 
L 346.234304 211.072599 
L 348.123319 209.357514 
L 350.012335 207.617637 
L 351.901351 205.851862 
L 353.790366 204.058996 
L 355.679382 202.237752 
L 357.568398 200.386739 
L 359.457414 198.504447 
L 361.346429 196.589236 
L 363.235445 194.639314 
L 365.124461 192.652724 
L 367.013476 190.627316 
L 368.902492 188.560721 
L 370.791508 186.450318 
L 372.680524 184.293199 
L 374.569539 182.086117 
L 376.458555 179.825429 
L 378.347571 177.50703 
L 380.236587 175.126259 
L 382.125602 172.677795 
L 384.014618 170.155513 
L 385.903634 167.552303 
L 387.792649 164.859837 
L 389.681665 162.068252 
L 391.570681 159.165721 
L 393.459697 156.137861 
L 395.348712 152.966882 
L 397.237728 149.63034 
L 399.126744 146.122946 
L 401.015759 142.586088 
L 402.904775 139.04923 
L 404.793791 135.512373 
L 406.682807 131.975515 
L 408.571822 128.438657 
L 410.460838 124.901799 
L 412.349854 121.364941 
L 414.23887 117.828084 
L 416.127885 114.291226 
L 418.016901 110.754368 
L 419.905917 107.21751 
L 421.794932 103.680653 
L 423.683948 100.143795 
L 425.572964 96.606937 
L 427.46198 93.070079 
L 429.350995 89.533221 
L 431.240011 85.996364 
" clip-path="url(#pe14e4676dc)" style="fill: none; stroke: #1f77b4; stroke-width: 1.5; stroke-linecap: square"/>
   </g>
   <g id="line2d_30">
    <path d="M 244.321411 291.905455 
L 246.155456 290.451906 
L 247.989501 288.998357 
L 249.823545 287.544808 
L 251.65759 286.09126 
L 253.491635 284.637711 
L 255.325679 283.184162 
L 257.159724 281.730614 
L 258.993769 280.277065 
L 260.827813 278.823516 
L 262.661858 277.369968 
L 264.495903 275.916419 
L 266.329947 274.46287 
L 268.163992 273.009322 
L 269.998037 271.555773 
L 271.832081 270.102224 
L 273.666126 268.648676 
L 275.500171 267.195127 
L 277.334215 265.741578 
L 279.16826 264.28803 
L 281.002305 262.834481 
L 282.836349 261.380932 
L 284.670394 259.927383 
L 286.504439 258.473835 
L 288.338483 257.020286 
L 290.172528 255.566737 
L 292.006573 254.113189 
L 293.840617 252.65964 
L 295.674662 251.206091 
L 297.508707 249.752543 
L 299.342751 248.298994 
L 301.176796 246.845445 
L 303.010841 245.391897 
L 304.844885 243.938348 
L 306.67893 242.484799 
L 308.512975 241.031251 
L 310.347019 239.577702 
L 312.181064 238.124153 
L 314.015109 236.670604 
L 315.849153 235.217056 
L 317.683198 233.763507 
L 319.517243 232.309958 
L 321.351287 230.85641 
L 323.185332 229.400903 
L 325.019377 227.931598 
L 326.853421 226.44607 
L 328.687466 224.94377 
L 330.521511 223.424115 
L 332.355555 221.886492 
L 334.1896 220.330245 
L 336.023645 218.754683 
L 337.857689 217.159068 
L 339.691734 215.542613 
L 341.525779 213.904481 
L 343.359823 212.243774 
L 345.193868 210.559534 
L 347.027913 208.85073 
L 348.861958 207.116255 
L 350.696002 205.354917 
L 352.530047 203.565427 
L 354.364092 201.746391 
L 356.198136 199.896294 
L 358.032181 198.013489 
L 359.866226 196.096178 
L 361.70027 194.142391 
L 363.534315 192.149963 
L 365.36836 190.116506 
L 367.202404 188.039378 
L 369.036449 185.915635 
L 370.870494 183.741993 
L 372.704538 181.514759 
L 374.538583 179.229763 
L 376.372628 176.882261 
L 378.206672 174.466827 
L 380.040717 171.977197 
L 381.874762 169.406081 
L 383.708806 166.744915 
L 385.542851 163.983515 
L 387.376896 161.109624 
L 389.21094 158.108258 
L 391.044985 154.960782 
L 392.87903 151.643522 
L 394.713074 148.125621 
L 396.547119 144.472059 
L 398.381164 140.817328 
L 400.215208 137.162597 
L 402.049253 133.507866 
L 403.883298 129.853135 
L 405.717342 126.198404 
L 407.551387 122.543673 
L 409.385432 118.888942 
L 411.219476 115.234211 
L 413.053521 111.57948 
L 414.887566 107.924749 
L 416.72161 104.270018 
L 418.555655 100.615287 
L 420.3897 96.960557 
L 422.223744 93.305826 
L 424.057789 89.651095 
L 425.891834 85.996364 
" clip-path="url(#pe14e4676dc)" style="fill: none; stroke-dasharray: 5.55,2.4; stroke-dashoffset: 0; stroke: #ff7f0e; stroke-width: 1.5"/>
   </g>
   <g id="patch_3">
    <path d="M 180 300.141818 
L 180 77.76 
" style="fill: none; stroke: #000000; stroke-width: 0.8; stroke-linejoin: miter; stroke-linecap: square"/>
   </g>
   <g id="patch_4">
    <path d="M 508.235294 300.141818 
L 508.235294 77.76 
" style="fill: none; stroke: #000000; stroke-width: 0.8; stroke-linejoin: miter; stroke-linecap: square"/>
   </g>
   <g id="patch_5">
    <path d="M 180 300.141818 
L 508.235294 300.141818 
" style="fill: none; stroke: #000000; stroke-width: 0.8; stroke-linejoin: miter; stroke-linecap: square"/>
   </g>
   <g id="patch_6">
    <path d="M 180 77.76 
L 508.235294 77.76 
" style="fill: none; stroke: #000000; stroke-width: 0.8; stroke-linejoin: miter; stroke-linecap: square"/>
   </g>
   <g id="text_14">
    <!--  Block: 0 -->
    <g transform="translate(318.237022 71.76)scale(0.12 -0.12)">
     <defs>
      <path id="DejaVuSans-20" transform="scale(0.015625)"/>
      <path id="DejaVuSans-42" d="M 1259 2228 
L 1259 519 
L 2272 519 
Q 2781 519 3026 730 
Q 3272 941 3272 1375 
Q 3272 1813 3026 2020 
Q 2781 2228 2272 2228 
L 1259 2228 
z
M 1259 4147 
L 1259 2741 
L 2194 2741 
Q 2656 2741 2882 2914 
Q 3109 3088 3109 3444 
Q 3109 3797 2882 3972 
Q 2656 4147 2194 4147 
L 1259 4147 
z
M 628 4666 
L 2241 4666 
Q 2963 4666 3353 4366 
Q 3744 4066 3744 3513 
Q 3744 3084 3544 2831 
Q 3344 2578 2956 2516 
Q 3422 2416 3680 2098 
Q 3938 1781 3938 1306 
Q 3938 681 3513 340 
Q 3088 0 2303 0 
L 628 0 
L 628 4666 
z
" transform="scale(0.015625)"/>
      <path id="DejaVuSans-6c" d="M 603 4863 
L 1178 4863 
L 1178 0 
L 603 0 
L 603 4863 
z
" transform="scale(0.015625)"/>
      <path id="DejaVuSans-6f" d="M 1959 3097 
Q 1497 3097 1228 2736 
Q 959 2375 959 1747 
Q 959 1119 1226 758 
Q 1494 397 1959 397 
Q 2419 397 2687 759 
Q 2956 1122 2956 1747 
Q 2956 2369 2687 2733 
Q 2419 3097 1959 3097 
z
M 1959 3584 
Q 2709 3584 3137 3096 
Q 3566 2609 3566 1747 
Q 3566 888 3137 398 
Q 2709 -91 1959 -91 
Q 1206 -91 779 398 
Q 353 888 353 1747 
Q 353 2609 779 3096 
Q 1206 3584 1959 3584 
z
" transform="scale(0.015625)"/>
      <path id="DejaVuSans-63" d="M 3122 3366 
L 3122 2828 
Q 2878 2963 2633 3030 
Q 2388 3097 2138 3097 
Q 1578 3097 1268 2742 
Q 959 2388 959 1747 
Q 959 1106 1268 751 
Q 1578 397 2138 397 
Q 2388 397 2633 464 
Q 2878 531 3122 666 
L 3122 134 
Q 2881 22 2623 -34 
Q 2366 -91 2075 -91 
Q 1284 -91 818 406 
Q 353 903 353 1747 
Q 353 2603 823 3093 
Q 1294 3584 2113 3584 
Q 2378 3584 2631 3529 
Q 2884 3475 3122 3366 
z
" transform="scale(0.015625)"/>
      <path id="DejaVuSans-6b" d="M 581 4863 
L 1159 4863 
L 1159 1991 
L 2875 3500 
L 3609 3500 
L 1753 1863 
L 3688 0 
L 2938 0 
L 1159 1709 
L 1159 0 
L 581 0 
L 581 4863 
z
" transform="scale(0.015625)"/>
      <path id="DejaVuSans-3a" d="M 750 794 
L 1409 794 
L 1409 0 
L 750 0 
L 750 794 
z
M 750 3309 
L 1409 3309 
L 1409 2516 
L 750 2516 
L 750 3309 
z
" transform="scale(0.015625)"/>
     </defs>
     <use xlink:href="#DejaVuSans-20"/>
     <use xlink:href="#DejaVuSans-42" x="31.787109"/>
     <use xlink:href="#DejaVuSans-6c" x="100.390625"/>
     <use xlink:href="#DejaVuSans-6f" x="128.173828"/>
     <use xlink:href="#DejaVuSans-63" x="189.355469"/>
     <use xlink:href="#DejaVuSans-6b" x="244.335938"/>
     <use xlink:href="#DejaVuSans-3a" x="302.246094"/>
     <use xlink:href="#DejaVuSans-20" x="335.9375"/>
     <use xlink:href="#DejaVuSans-30" x="367.724609"/>
    </g>
   </g>
   <g id="legend_1">
    <g id="patch_7">
     <path d="M 187 130.0725 
L 318.2 130.0725 
Q 320.2 130.0725 320.2 128.0725 
L 320.2 84.76 
Q 320.2 82.76 318.2 82.76 
L 187 82.76 
Q 185 82.76 185 84.76 
L 185 128.0725 
Q 185 130.0725 187 130.0725 
z
" style="fill: #ffffff; opacity: 0.8; stroke: #cccccc; stroke-linejoin: miter"/>
    </g>
    <g id="PathCollection_2">
     <g>
      <use xlink:href="#md2567df40d" x="199" y="91.733438" style="stroke: #000000"/>
     </g>
    </g>
    <g id="text_15">
     <!-- Data -->
     <g transform="translate(217 94.358438)scale(0.1 -0.1)">
      <defs>
       <path id="DejaVuSans-44" d="M 1259 4147 
L 1259 519 
L 2022 519 
Q 2988 519 3436 956 
Q 3884 1394 3884 2338 
Q 3884 3275 3436 3711 
Q 2988 4147 2022 4147 
L 1259 4147 
z
M 628 4666 
L 1925 4666 
Q 3281 4666 3915 4102 
Q 4550 3538 4550 2338 
Q 4550 1131 3912 565 
Q 3275 0 1925 0 
L 628 0 
L 628 4666 
z
" transform="scale(0.015625)"/>
       <path id="DejaVuSans-61" d="M 2194 1759 
Q 1497 1759 1228 1600 
Q 959 1441 959 1056 
Q 959 750 1161 570 
Q 1363 391 1709 391 
Q 2188 391 2477 730 
Q 2766 1069 2766 1631 
L 2766 1759 
L 2194 1759 
z
M 3341 1997 
L 3341 0 
L 2766 0 
L 2766 531 
Q 2569 213 2275 61 
Q 1981 -91 1556 -91 
Q 1019 -91 701 211 
Q 384 513 384 1019 
Q 384 1609 779 1909 
Q 1175 2209 1959 2209 
L 2766 2209 
L 2766 2266 
Q 2766 2663 2505 2880 
Q 2244 3097 1772 3097 
Q 1472 3097 1187 3025 
Q 903 2953 641 2809 
L 641 3341 
Q 956 3463 1253 3523 
Q 1550 3584 1831 3584 
Q 2591 3584 2966 3190 
Q 3341 2797 3341 1997 
z
" transform="scale(0.015625)"/>
       <path id="DejaVuSans-74" d="M 1172 4494 
L 1172 3500 
L 2356 3500 
L 2356 3053 
L 1172 3053 
L 1172 1153 
Q 1172 725 1289 603 
Q 1406 481 1766 481 
L 2356 481 
L 2356 0 
L 1766 0 
Q 1100 0 847 248 
Q 594 497 594 1153 
L 594 3053 
L 172 3053 
L 172 3500 
L 594 3500 
L 594 4494 
L 1172 4494 
z
" transform="scale(0.015625)"/>
      </defs>
      <use xlink:href="#DejaVuSans-44"/>
      <use xlink:href="#DejaVuSans-61" x="77.001953"/>
      <use xlink:href="#DejaVuSans-74" x="138.28125"/>
      <use xlink:href="#DejaVuSans-61" x="177.490234"/>
     </g>
    </g>
    <g id="line2d_31">
     <path d="M 189 105.536563 
L 199 105.536563 
L 209 105.536563 
" style="fill: none; stroke: #1f77b4; stroke-width: 1.5; stroke-linecap: square"/>
    </g>
    <g id="text_16">
     <!-- Artc e:0.2475 -->
     <g transform="translate(217 109.036563)scale(0.1 -0.1)">
      <defs>
       <path id="DejaVuSans-41" d="M 2188 4044 
L 1331 1722 
L 3047 1722 
L 2188 4044 
z
M 1831 4666 
L 2547 4666 
L 4325 0 
L 3669 0 
L 3244 1197 
L 1141 1197 
L 716 0 
L 50 0 
L 1831 4666 
z
" transform="scale(0.015625)"/>
       <path id="DejaVuSans-72" d="M 2631 2963 
Q 2534 3019 2420 3045 
Q 2306 3072 2169 3072 
Q 1681 3072 1420 2755 
Q 1159 2438 1159 1844 
L 1159 0 
L 581 0 
L 581 3500 
L 1159 3500 
L 1159 2956 
Q 1341 3275 1631 3429 
Q 1922 3584 2338 3584 
Q 2397 3584 2469 3576 
Q 2541 3569 2628 3553 
L 2631 2963 
z
" transform="scale(0.015625)"/>
       <path id="DejaVuSans-65" d="M 3597 1894 
L 3597 1613 
L 953 1613 
Q 991 1019 1311 708 
Q 1631 397 2203 397 
Q 2534 397 2845 478 
Q 3156 559 3463 722 
L 3463 178 
Q 3153 47 2828 -22 
Q 2503 -91 2169 -91 
Q 1331 -91 842 396 
Q 353 884 353 1716 
Q 353 2575 817 3079 
Q 1281 3584 2069 3584 
Q 2775 3584 3186 3129 
Q 3597 2675 3597 1894 
z
M 3022 2063 
Q 3016 2534 2758 2815 
Q 2500 3097 2075 3097 
Q 1594 3097 1305 2825 
Q 1016 2553 972 2059 
L 3022 2063 
z
" transform="scale(0.015625)"/>
       <path id="DejaVuSans-2e" d="M 684 794 
L 1344 794 
L 1344 0 
L 684 0 
L 684 794 
z
" transform="scale(0.015625)"/>
       <path id="DejaVuSans-37" d="M 525 4666 
L 3525 4666 
L 3525 4397 
L 1831 0 
L 1172 0 
L 2766 4134 
L 525 4134 
L 525 4666 
z
" transform="scale(0.015625)"/>
      </defs>
      <use xlink:href="#DejaVuSans-41"/>
      <use xlink:href="#DejaVuSans-72" x="68.408203"/>
      <use xlink:href="#DejaVuSans-74" x="109.521484"/>
      <use xlink:href="#DejaVuSans-63" x="148.730469"/>
      <use xlink:href="#DejaVuSans-20" x="203.710938"/>
      <use xlink:href="#DejaVuSans-65" x="235.498047"/>
      <use xlink:href="#DejaVuSans-3a" x="297.021484"/>
      <use xlink:href="#DejaVuSans-30" x="330.712891"/>
      <use xlink:href="#DejaVuSans-2e" x="394.335938"/>
      <use xlink:href="#DejaVuSans-32" x="426.123047"/>
      <use xlink:href="#DejaVuSans-34" x="489.746094"/>
      <use xlink:href="#DejaVuSans-37" x="553.369141"/>
      <use xlink:href="#DejaVuSans-35" x="616.992188"/>
     </g>
    </g>
    <g id="line2d_32">
     <path d="M 189 120.214688 
L 199 120.214688 
L 209 120.214688 
" style="fill: none; stroke-dasharray: 5.55,2.4; stroke-dashoffset: 0; stroke: #ff7f0e; stroke-width: 1.5"/>
    </g>
    <g id="text_17">
     <!-- NEL_BTUX e:0.2552 -->
     <g transform="translate(217 123.714688)scale(0.1 -0.1)">
      <defs>
       <path id="DejaVuSans-4e" d="M 628 4666 
L 1478 4666 
L 3547 763 
L 3547 4666 
L 4159 4666 
L 4159 0 
L 3309 0 
L 1241 3903 
L 1241 0 
L 628 0 
L 628 4666 
z
" transform="scale(0.015625)"/>
       <path id="DejaVuSans-45" d="M 628 4666 
L 3578 4666 
L 3578 4134 
L 1259 4134 
L 1259 2753 
L 3481 2753 
L 3481 2222 
L 1259 2222 
L 1259 531 
L 3634 531 
L 3634 0 
L 628 0 
L 628 4666 
z
" transform="scale(0.015625)"/>
       <path id="DejaVuSans-4c" d="M 628 4666 
L 1259 4666 
L 1259 531 
L 3531 531 
L 3531 0 
L 628 0 
L 628 4666 
z
" transform="scale(0.015625)"/>
       <path id="DejaVuSans-5f" d="M 3263 -1063 
L 3263 -1509 
L -63 -1509 
L -63 -1063 
L 3263 -1063 
z
" transform="scale(0.015625)"/>
       <path id="DejaVuSans-54" d="M -19 4666 
L 3928 4666 
L 3928 4134 
L 2272 4134 
L 2272 0 
L 1638 0 
L 1638 4134 
L -19 4134 
L -19 4666 
z
" transform="scale(0.015625)"/>
       <path id="DejaVuSans-55" d="M 556 4666 
L 1191 4666 
L 1191 1831 
Q 1191 1081 1462 751 
Q 1734 422 2344 422 
Q 2950 422 3222 751 
Q 3494 1081 3494 1831 
L 3494 4666 
L 4128 4666 
L 4128 1753 
Q 4128 841 3676 375 
Q 3225 -91 2344 -91 
Q 1459 -91 1007 375 
Q 556 841 556 1753 
L 556 4666 
z
" transform="scale(0.015625)"/>
       <path id="DejaVuSans-58" d="M 403 4666 
L 1081 4666 
L 2241 2931 
L 3406 4666 
L 4084 4666 
L 2584 2425 
L 4184 0 
L 3506 0 
L 2194 1984 
L 872 0 
L 191 0 
L 1856 2491 
L 403 4666 
z
" transform="scale(0.015625)"/>
      </defs>
      <use xlink:href="#DejaVuSans-4e"/>
      <use xlink:href="#DejaVuSans-45" x="74.804688"/>
      <use xlink:href="#DejaVuSans-4c" x="137.988281"/>
      <use xlink:href="#DejaVuSans-5f" x="193.701172"/>
      <use xlink:href="#DejaVuSans-42" x="243.701172"/>
      <use xlink:href="#DejaVuSans-54" x="312.304688"/>
      <use xlink:href="#DejaVuSans-55" x="373.388672"/>
      <use xlink:href="#DejaVuSans-58" x="446.582031"/>
      <use xlink:href="#DejaVuSans-20" x="515.087891"/>
      <use xlink:href="#DejaVuSans-65" x="546.875"/>
      <use xlink:href="#DejaVuSans-3a" x="608.398438"/>
      <use xlink:href="#DejaVuSans-30" x="642.089844"/>
      <use xlink:href="#DejaVuSans-2e" x="705.712891"/>
      <use xlink:href="#DejaVuSans-32" x="737.5"/>
      <use xlink:href="#DejaVuSans-35" x="801.123047"/>
      <use xlink:href="#DejaVuSans-35" x="864.746094"/>
      <use xlink:href="#DejaVuSans-32" x="928.369141"/>
     </g>
    </g>
   </g>
  </g>
  <g id="axes_2">
   <g id="patch_8">
    <path d="M 573.882353 300.141818 
L 902.117647 300.141818 
L 902.117647 77.76 
L 573.882353 77.76 
z
" style="fill: #ffffff"/>
   </g>
   <g id="PathCollection_3">
    <g clip-path="url(#p046dd57b5f)">
     <use xlink:href="#md2567df40d" x="783.907034" y="188.950909" style="stroke: #000000"/>
     <use xlink:href="#md2567df40d" x="806.860551" y="106.587273" style="stroke: #000000"/>
     <use xlink:href="#md2567df40d" x="749.476759" y="209.541818" style="stroke: #000000"/>
     <use xlink:href="#md2567df40d" x="715.046483" y="230.132727" style="stroke: #000000"/>
     <use xlink:href="#md2567df40d" x="680.616207" y="271.314545" style="stroke: #000000"/>
     <use xlink:href="#md2567df40d" x="646.185932" y="271.314545" style="stroke: #000000"/>
     <use xlink:href="#md2567df40d" x="611.755656" y="291.905455" style="stroke: #000000"/>
     <use xlink:href="#md2567df40d" x="623.232415" y="291.905455" style="stroke: #000000"/>
     <use xlink:href="#md2567df40d" x="634.709173" y="291.905455" style="stroke: #000000"/>
     <use xlink:href="#md2567df40d" x="646.185932" y="291.905455" style="stroke: #000000"/>
     <use xlink:href="#md2567df40d" x="657.66269" y="271.314545" style="stroke: #000000"/>
     <use xlink:href="#md2567df40d" x="694.966058" y="250.723636" style="stroke: #000000"/>
     <use xlink:href="#md2567df40d" x="657.671642" y="291.905455" style="stroke: #000000"/>
     <use xlink:href="#md2567df40d" x="732.260244" y="209.541818" style="stroke: #000000"/>
     <use xlink:href="#md2567df40d" x="769.554659" y="168.36" style="stroke: #000000"/>
     <use xlink:href="#md2567df40d" x="806.849074" y="106.587273" style="stroke: #000000"/>
     <use xlink:href="#md2567df40d" x="813.010487" y="85.996364" style="stroke: #000000"/>
     <use xlink:href="#md2567df40d" x="777.682958" y="168.36" style="stroke: #000000"/>
     <use xlink:href="#md2567df40d" x="742.3552" y="209.541818" style="stroke: #000000"/>
     <use xlink:href="#md2567df40d" x="671.699914" y="250.723636" style="stroke: #000000"/>
     <use xlink:href="#md2567df40d" x="707.027442" y="230.132727" style="stroke: #000000"/>
    </g>
   </g>
   <g id="matplotlib.axis_3">
    <g id="xtick_8">
     <g id="line2d_33">
      <path d="M 611.755656 300.141818 
L 611.755656 77.76 
" clip-path="url(#p046dd57b5f)" style="fill: none; stroke: #b0b0b0; stroke-width: 0.8; stroke-linecap: square"/>
     </g>
     <g id="line2d_34">
      <g>
       <use xlink:href="#m20253fd3a9" x="611.755656" y="300.141818" style="stroke: #000000; stroke-width: 0.8"/>
      </g>
     </g>
     <g id="text_18">
      <!-- 0 -->
      <g transform="translate(608.574406 314.740256)scale(0.1 -0.1)">
       <use xlink:href="#DejaVuSans-30"/>
      </g>
     </g>
    </g>
    <g id="xtick_9">
     <g id="line2d_35">
      <path d="M 657.66269 300.141818 
L 657.66269 77.76 
" clip-path="url(#p046dd57b5f)" style="fill: none; stroke: #b0b0b0; stroke-width: 0.8; stroke-linecap: square"/>
     </g>
     <g id="line2d_36">
      <g>
       <use xlink:href="#m20253fd3a9" x="657.66269" y="300.141818" style="stroke: #000000; stroke-width: 0.8"/>
      </g>
     </g>
     <g id="text_19">
      <!-- 20 -->
      <g transform="translate(651.30019 314.740256)scale(0.1 -0.1)">
       <use xlink:href="#DejaVuSans-32"/>
       <use xlink:href="#DejaVuSans-30" x="63.623047"/>
      </g>
     </g>
    </g>
    <g id="xtick_10">
     <g id="line2d_37">
      <path d="M 703.569724 300.141818 
L 703.569724 77.76 
" clip-path="url(#p046dd57b5f)" style="fill: none; stroke: #b0b0b0; stroke-width: 0.8; stroke-linecap: square"/>
     </g>
     <g id="line2d_38">
      <g>
       <use xlink:href="#m20253fd3a9" x="703.569724" y="300.141818" style="stroke: #000000; stroke-width: 0.8"/>
      </g>
     </g>
     <g id="text_20">
      <!-- 40 -->
      <g transform="translate(697.207224 314.740256)scale(0.1 -0.1)">
       <use xlink:href="#DejaVuSans-34"/>
       <use xlink:href="#DejaVuSans-30" x="63.623047"/>
      </g>
     </g>
    </g>
    <g id="xtick_11">
     <g id="line2d_39">
      <path d="M 749.476759 300.141818 
L 749.476759 77.76 
" clip-path="url(#p046dd57b5f)" style="fill: none; stroke: #b0b0b0; stroke-width: 0.8; stroke-linecap: square"/>
     </g>
     <g id="line2d_40">
      <g>
       <use xlink:href="#m20253fd3a9" x="749.476759" y="300.141818" style="stroke: #000000; stroke-width: 0.8"/>
      </g>
     </g>
     <g id="text_21">
      <!-- 60 -->
      <g transform="translate(743.114259 314.740256)scale(0.1 -0.1)">
       <use xlink:href="#DejaVuSans-36"/>
       <use xlink:href="#DejaVuSans-30" x="63.623047"/>
      </g>
     </g>
    </g>
    <g id="xtick_12">
     <g id="line2d_41">
      <path d="M 795.383793 300.141818 
L 795.383793 77.76 
" clip-path="url(#p046dd57b5f)" style="fill: none; stroke: #b0b0b0; stroke-width: 0.8; stroke-linecap: square"/>
     </g>
     <g id="line2d_42">
      <g>
       <use xlink:href="#m20253fd3a9" x="795.383793" y="300.141818" style="stroke: #000000; stroke-width: 0.8"/>
      </g>
     </g>
     <g id="text_22">
      <!-- 80 -->
      <g transform="translate(789.021293 314.740256)scale(0.1 -0.1)">
       <use xlink:href="#DejaVuSans-38"/>
       <use xlink:href="#DejaVuSans-30" x="63.623047"/>
      </g>
     </g>
    </g>
    <g id="xtick_13">
     <g id="line2d_43">
      <path d="M 841.290827 300.141818 
L 841.290827 77.76 
" clip-path="url(#p046dd57b5f)" style="fill: none; stroke: #b0b0b0; stroke-width: 0.8; stroke-linecap: square"/>
     </g>
     <g id="line2d_44">
      <g>
       <use xlink:href="#m20253fd3a9" x="841.290827" y="300.141818" style="stroke: #000000; stroke-width: 0.8"/>
      </g>
     </g>
     <g id="text_23">
      <!-- 100 -->
      <g transform="translate(831.747077 314.740256)scale(0.1 -0.1)">
       <use xlink:href="#DejaVuSans-31"/>
       <use xlink:href="#DejaVuSans-30" x="63.623047"/>
       <use xlink:href="#DejaVuSans-30" x="127.246094"/>
      </g>
     </g>
    </g>
    <g id="xtick_14">
     <g id="line2d_45">
      <path d="M 887.197861 300.141818 
L 887.197861 77.76 
" clip-path="url(#p046dd57b5f)" style="fill: none; stroke: #b0b0b0; stroke-width: 0.8; stroke-linecap: square"/>
     </g>
     <g id="line2d_46">
      <g>
       <use xlink:href="#m20253fd3a9" x="887.197861" y="300.141818" style="stroke: #000000; stroke-width: 0.8"/>
      </g>
     </g>
     <g id="text_24">
      <!-- 120 -->
      <g transform="translate(877.654111 314.740256)scale(0.1 -0.1)">
       <use xlink:href="#DejaVuSans-31"/>
       <use xlink:href="#DejaVuSans-32" x="63.623047"/>
       <use xlink:href="#DejaVuSans-30" x="127.246094"/>
      </g>
     </g>
    </g>
   </g>
   <g id="matplotlib.axis_4">
    <g id="ytick_7">
     <g id="line2d_47">
      <path d="M 573.882353 291.905455 
L 902.117647 291.905455 
" clip-path="url(#p046dd57b5f)" style="fill: none; stroke: #b0b0b0; stroke-width: 0.8; stroke-linecap: square"/>
     </g>
     <g id="line2d_48">
      <g>
       <use xlink:href="#mf09b7b3d90" x="573.882353" y="291.905455" style="stroke: #000000; stroke-width: 0.8"/>
      </g>
     </g>
     <g id="text_25">
      <!-- 0 -->
      <g transform="translate(560.519853 295.704673)scale(0.1 -0.1)">
       <use xlink:href="#DejaVuSans-30"/>
      </g>
     </g>
    </g>
    <g id="ytick_8">
     <g id="line2d_49">
      <path d="M 573.882353 250.723636 
L 902.117647 250.723636 
" clip-path="url(#p046dd57b5f)" style="fill: none; stroke: #b0b0b0; stroke-width: 0.8; stroke-linecap: square"/>
     </g>
     <g id="line2d_50">
      <g>
       <use xlink:href="#mf09b7b3d90" x="573.882353" y="250.723636" style="stroke: #000000; stroke-width: 0.8"/>
      </g>
     </g>
     <g id="text_26">
      <!-- 10 -->
      <g transform="translate(554.157353 254.522855)scale(0.1 -0.1)">
       <use xlink:href="#DejaVuSans-31"/>
       <use xlink:href="#DejaVuSans-30" x="63.623047"/>
      </g>
     </g>
    </g>
    <g id="ytick_9">
     <g id="line2d_51">
      <path d="M 573.882353 209.541818 
L 902.117647 209.541818 
" clip-path="url(#p046dd57b5f)" style="fill: none; stroke: #b0b0b0; stroke-width: 0.8; stroke-linecap: square"/>
     </g>
     <g id="line2d_52">
      <g>
       <use xlink:href="#mf09b7b3d90" x="573.882353" y="209.541818" style="stroke: #000000; stroke-width: 0.8"/>
      </g>
     </g>
     <g id="text_27">
      <!-- 20 -->
      <g transform="translate(554.157353 213.341037)scale(0.1 -0.1)">
       <use xlink:href="#DejaVuSans-32"/>
       <use xlink:href="#DejaVuSans-30" x="63.623047"/>
      </g>
     </g>
    </g>
    <g id="ytick_10">
     <g id="line2d_53">
      <path d="M 573.882353 168.36 
L 902.117647 168.36 
" clip-path="url(#p046dd57b5f)" style="fill: none; stroke: #b0b0b0; stroke-width: 0.8; stroke-linecap: square"/>
     </g>
     <g id="line2d_54">
      <g>
       <use xlink:href="#mf09b7b3d90" x="573.882353" y="168.36" style="stroke: #000000; stroke-width: 0.8"/>
      </g>
     </g>
     <g id="text_28">
      <!-- 30 -->
      <g transform="translate(554.157353 172.159219)scale(0.1 -0.1)">
       <use xlink:href="#DejaVuSans-33"/>
       <use xlink:href="#DejaVuSans-30" x="63.623047"/>
      </g>
     </g>
    </g>
    <g id="ytick_11">
     <g id="line2d_55">
      <path d="M 573.882353 127.178182 
L 902.117647 127.178182 
" clip-path="url(#p046dd57b5f)" style="fill: none; stroke: #b0b0b0; stroke-width: 0.8; stroke-linecap: square"/>
     </g>
     <g id="line2d_56">
      <g>
       <use xlink:href="#mf09b7b3d90" x="573.882353" y="127.178182" style="stroke: #000000; stroke-width: 0.8"/>
      </g>
     </g>
     <g id="text_29">
      <!-- 40 -->
      <g transform="translate(554.157353 130.977401)scale(0.1 -0.1)">
       <use xlink:href="#DejaVuSans-34"/>
       <use xlink:href="#DejaVuSans-30" x="63.623047"/>
      </g>
     </g>
    </g>
    <g id="ytick_12">
     <g id="line2d_57">
      <path d="M 573.882353 85.996364 
L 902.117647 85.996364 
" clip-path="url(#p046dd57b5f)" style="fill: none; stroke: #b0b0b0; stroke-width: 0.8; stroke-linecap: square"/>
     </g>
     <g id="line2d_58">
      <g>
       <use xlink:href="#mf09b7b3d90" x="573.882353" y="85.996364" style="stroke: #000000; stroke-width: 0.8"/>
      </g>
     </g>
     <g id="text_30">
      <!-- 50 -->
      <g transform="translate(554.157353 89.795582)scale(0.1 -0.1)">
       <use xlink:href="#DejaVuSans-35"/>
       <use xlink:href="#DejaVuSans-30" x="63.623047"/>
      </g>
     </g>
    </g>
   </g>
   <g id="line2d_59">
    <path d="M 588.802139 188.950909 
L 887.197861 188.950909 
" clip-path="url(#p046dd57b5f)" style="fill: none; stroke-dasharray: 1.5,2.475; stroke-dashoffset: 0; stroke: #808080; stroke-width: 1.5"/>
   </g>
   <g id="line2d_60">
    <path d="M 818.33731 333.087273 
L 818.33731 3.632727 
" clip-path="url(#p046dd57b5f)" style="fill: none; stroke-dasharray: 5.55,2.4; stroke-dashoffset: 0; stroke: #ff0000; stroke-opacity: 0.3; stroke-width: 1.5"/>
   </g>
   <g id="line2d_61">
    <path d="M 640.868618 291.905455 
L 642.893085 290.15168 
L 644.917551 288.397906 
L 646.942018 286.644132 
L 648.966484 284.890357 
L 650.99095 283.136583 
L 653.015417 281.382809 
L 655.039883 279.629034 
L 657.06435 277.87526 
L 659.088816 276.121486 
L 661.113283 274.367711 
L 663.137749 272.613937 
L 665.162216 270.860163 
L 667.186682 269.106389 
L 669.211149 267.352614 
L 671.235615 265.59884 
L 673.260082 263.845066 
L 675.284548 262.091291 
L 677.309014 260.337517 
L 679.333481 258.583743 
L 681.357947 256.829968 
L 683.382414 255.076194 
L 685.40688 253.32242 
L 687.431347 251.568646 
L 689.455813 249.814871 
L 691.48028 248.061097 
L 693.504746 246.307323 
L 695.529213 244.553548 
L 697.553679 242.799774 
L 699.578146 241.046 
L 701.602612 239.292225 
L 703.627078 237.538451 
L 705.651545 235.784677 
L 707.676011 234.030902 
L 709.700478 232.277128 
L 711.724944 230.523354 
L 713.749411 228.766024 
L 715.773877 226.997088 
L 717.798344 225.216011 
L 719.82281 223.42254 
L 721.847277 221.616412 
L 723.871743 219.797356 
L 725.89621 217.96509 
L 727.920676 216.119322 
L 729.945143 214.259748 
L 731.969609 212.386055 
L 733.994075 210.497916 
L 736.018542 208.594991 
L 738.043008 206.676928 
L 740.067475 204.743359 
L 742.091941 202.793902 
L 744.116408 200.828159 
L 746.140874 198.845715 
L 748.165341 196.846136 
L 750.189807 194.828972 
L 752.214274 192.793748 
L 754.23874 190.739972 
L 756.263207 188.667127 
L 758.287673 186.574671 
L 760.312139 184.462037 
L 762.336606 182.32863 
L 764.361072 180.173824 
L 766.385539 177.996963 
L 768.410005 175.797355 
L 770.434472 173.574272 
L 772.458938 171.326946 
L 774.483405 169.054565 
L 776.507871 166.756274 
L 778.532338 164.431164 
L 780.556804 162.078274 
L 782.581271 159.696584 
L 784.605737 157.285011 
L 786.630204 154.842399 
L 788.65467 152.36752 
L 790.679136 149.859058 
L 792.703603 147.31618 
L 794.728069 144.761187 
L 796.752536 142.206195 
L 798.777002 139.651203 
L 800.801469 137.09621 
L 802.825935 134.541218 
L 804.850402 131.986226 
L 806.874868 129.431233 
L 808.899335 126.876241 
L 810.923801 124.321249 
L 812.948268 121.766256 
L 814.972734 119.211264 
L 816.9972 116.656272 
L 819.021667 114.101279 
L 821.046133 111.546287 
L 823.0706 108.991295 
L 825.095066 106.436302 
L 827.119533 103.88131 
L 829.143999 101.326318 
L 831.168466 98.771325 
L 833.192932 96.216333 
L 835.217399 93.661341 
L 837.241865 91.106348 
L 839.266332 88.551356 
L 841.290798 85.996364 
" clip-path="url(#p046dd57b5f)" style="fill: none; stroke: #1f77b4; stroke-width: 1.5; stroke-linecap: square"/>
   </g>
   <g id="line2d_62">
    <path d="M 636.747018 291.905455 
L 638.667815 290.610003 
L 640.588612 289.314551 
L 642.509409 288.0191 
L 644.430206 286.723648 
L 646.351003 285.428196 
L 648.2718 284.132745 
L 650.192597 282.837293 
L 652.113394 281.541841 
L 654.034191 280.24639 
L 655.954988 278.950938 
L 657.875785 277.655486 
L 659.796582 276.360035 
L 661.717379 275.064583 
L 663.638176 273.769131 
L 665.558973 272.47368 
L 667.47977 271.178228 
L 669.400567 269.882777 
L 671.321364 268.587325 
L 673.242161 267.291873 
L 675.162958 265.996422 
L 677.083755 264.70097 
L 679.004552 263.405518 
L 680.925349 262.110067 
L 682.846146 260.814615 
L 684.766943 259.519163 
L 686.68774 258.223712 
L 688.608537 256.92826 
L 690.529334 255.632808 
L 692.450131 254.337357 
L 694.370928 253.041905 
L 696.291725 251.746453 
L 698.212522 250.451002 
L 700.133319 249.15555 
L 702.054115 247.860098 
L 703.974912 246.564647 
L 705.895709 245.269195 
L 707.816506 243.973744 
L 709.737303 242.678292 
L 711.6581 241.38284 
L 713.578897 240.087389 
L 715.499694 238.791937 
L 717.420491 237.496485 
L 719.341288 236.201034 
L 721.262085 234.905582 
L 723.182882 233.61013 
L 725.103679 232.314679 
L 727.024476 231.019227 
L 728.945273 229.723007 
L 730.86607 228.41481 
L 732.786867 227.090491 
L 734.707664 225.749441 
L 736.628461 224.391007 
L 738.549258 223.014496 
L 740.470055 221.619167 
L 742.390852 220.204226 
L 744.311649 218.768821 
L 746.232446 217.312039 
L 748.153243 215.832895 
L 750.07404 214.330326 
L 751.994837 212.803183 
L 753.915634 211.25022 
L 755.836431 209.67008 
L 757.757228 208.061285 
L 759.678025 206.422216 
L 761.598822 204.751099 
L 763.519619 203.045975 
L 765.440416 201.30468 
L 767.361212 199.52481 
L 769.282009 197.703682 
L 771.202806 195.838286 
L 773.123603 193.925227 
L 775.0444 191.960654 
L 776.965197 189.940168 
L 778.885994 187.858703 
L 780.806791 185.71038 
L 782.727588 183.488311 
L 784.648385 181.184337 
L 786.569182 178.788671 
L 788.489979 176.289407 
L 790.410776 173.671819 
L 792.331573 170.917316 
L 794.25237 168.001863 
L 796.173167 164.893443 
L 798.093964 161.547765 
L 800.014761 157.900452 
L 801.935558 153.851367 
L 803.856355 149.228501 
L 805.777152 143.995544 
L 807.697949 138.722891 
L 809.618746 133.450238 
L 811.539543 128.177586 
L 813.46034 122.904933 
L 815.381137 117.63228 
L 817.301934 112.359627 
L 819.222731 107.086975 
L 821.143528 101.814322 
L 823.064325 96.541669 
L 824.985122 91.269016 
L 826.905919 85.996364 
" clip-path="url(#p046dd57b5f)" style="fill: none; stroke-dasharray: 5.55,2.4; stroke-dashoffset: 0; stroke: #ff7f0e; stroke-width: 1.5"/>
   </g>
   <g id="patch_9">
    <path d="M 573.882353 300.141818 
L 573.882353 77.76 
" style="fill: none; stroke: #000000; stroke-width: 0.8; stroke-linejoin: miter; stroke-linecap: square"/>
   </g>
   <g id="patch_10">
    <path d="M 902.117647 300.141818 
L 902.117647 77.76 
" style="fill: none; stroke: #000000; stroke-width: 0.8; stroke-linejoin: miter; stroke-linecap: square"/>
   </g>
   <g id="patch_11">
    <path d="M 573.882353 300.141818 
L 902.117647 300.141818 
" style="fill: none; stroke: #000000; stroke-width: 0.8; stroke-linejoin: miter; stroke-linecap: square"/>
   </g>
   <g id="patch_12">
    <path d="M 573.882353 77.76 
L 902.117647 77.76 
" style="fill: none; stroke: #000000; stroke-width: 0.8; stroke-linejoin: miter; stroke-linecap: square"/>
   </g>
   <g id="text_31">
    <!--  Block: 1 -->
    <g transform="translate(712.119375 71.76)scale(0.12 -0.12)">
     <use xlink:href="#DejaVuSans-20"/>
     <use xlink:href="#DejaVuSans-42" x="31.787109"/>
     <use xlink:href="#DejaVuSans-6c" x="100.390625"/>
     <use xlink:href="#DejaVuSans-6f" x="128.173828"/>
     <use xlink:href="#DejaVuSans-63" x="189.355469"/>
     <use xlink:href="#DejaVuSans-6b" x="244.335938"/>
     <use xlink:href="#DejaVuSans-3a" x="302.246094"/>
     <use xlink:href="#DejaVuSans-20" x="335.9375"/>
     <use xlink:href="#DejaVuSans-31" x="367.724609"/>
    </g>
   </g>
   <g id="legend_2">
    <g id="patch_13">
     <path d="M 580.882353 130.0725 
L 712.082353 130.0725 
Q 714.082353 130.0725 714.082353 128.0725 
L 714.082353 84.76 
Q 714.082353 82.76 712.082353 82.76 
L 580.882353 82.76 
Q 578.882353 82.76 578.882353 84.76 
L 578.882353 128.0725 
Q 578.882353 130.0725 580.882353 130.0725 
z
" style="fill: #ffffff; opacity: 0.8; stroke: #cccccc; stroke-linejoin: miter"/>
    </g>
    <g id="PathCollection_4">
     <g>
      <use xlink:href="#md2567df40d" x="592.882353" y="91.733438" style="stroke: #000000"/>
     </g>
    </g>
    <g id="text_32">
     <!-- Data -->
     <g transform="translate(610.882353 94.358438)scale(0.1 -0.1)">
      <use xlink:href="#DejaVuSans-44"/>
      <use xlink:href="#DejaVuSans-61" x="77.001953"/>
      <use xlink:href="#DejaVuSans-74" x="138.28125"/>
      <use xlink:href="#DejaVuSans-61" x="177.490234"/>
     </g>
    </g>
    <g id="line2d_63">
     <path d="M 582.882353 105.536563 
L 592.882353 105.536563 
L 602.882353 105.536563 
" style="fill: none; stroke: #1f77b4; stroke-width: 1.5; stroke-linecap: square"/>
    </g>
    <g id="text_33">
     <!-- Artc e:0.1863 -->
     <g transform="translate(610.882353 109.036563)scale(0.1 -0.1)">
      <use xlink:href="#DejaVuSans-41"/>
      <use xlink:href="#DejaVuSans-72" x="68.408203"/>
      <use xlink:href="#DejaVuSans-74" x="109.521484"/>
      <use xlink:href="#DejaVuSans-63" x="148.730469"/>
      <use xlink:href="#DejaVuSans-20" x="203.710938"/>
      <use xlink:href="#DejaVuSans-65" x="235.498047"/>
      <use xlink:href="#DejaVuSans-3a" x="297.021484"/>
      <use xlink:href="#DejaVuSans-30" x="330.712891"/>
      <use xlink:href="#DejaVuSans-2e" x="394.335938"/>
      <use xlink:href="#DejaVuSans-31" x="426.123047"/>
      <use xlink:href="#DejaVuSans-38" x="489.746094"/>
      <use xlink:href="#DejaVuSans-36" x="553.369141"/>
      <use xlink:href="#DejaVuSans-33" x="616.992188"/>
     </g>
    </g>
    <g id="line2d_64">
     <path d="M 582.882353 120.214688 
L 592.882353 120.214688 
L 602.882353 120.214688 
" style="fill: none; stroke-dasharray: 5.55,2.4; stroke-dashoffset: 0; stroke: #ff7f0e; stroke-width: 1.5"/>
    </g>
    <g id="text_34">
     <!-- NEL_BTUX e:0.2134 -->
     <g transform="translate(610.882353 123.714688)scale(0.1 -0.1)">
      <use xlink:href="#DejaVuSans-4e"/>
      <use xlink:href="#DejaVuSans-45" x="74.804688"/>
      <use xlink:href="#DejaVuSans-4c" x="137.988281"/>
      <use xlink:href="#DejaVuSans-5f" x="193.701172"/>
      <use xlink:href="#DejaVuSans-42" x="243.701172"/>
      <use xlink:href="#DejaVuSans-54" x="312.304688"/>
      <use xlink:href="#DejaVuSans-55" x="373.388672"/>
      <use xlink:href="#DejaVuSans-58" x="446.582031"/>
      <use xlink:href="#DejaVuSans-20" x="515.087891"/>
      <use xlink:href="#DejaVuSans-65" x="546.875"/>
      <use xlink:href="#DejaVuSans-3a" x="608.398438"/>
      <use xlink:href="#DejaVuSans-30" x="642.089844"/>
      <use xlink:href="#DejaVuSans-2e" x="705.712891"/>
      <use xlink:href="#DejaVuSans-32" x="737.5"/>
      <use xlink:href="#DejaVuSans-31" x="801.123047"/>
      <use xlink:href="#DejaVuSans-33" x="864.746094"/>
      <use xlink:href="#DejaVuSans-34" x="928.369141"/>
     </g>
    </g>
   </g>
  </g>
  <g id="axes_3">
   <g id="patch_14">
    <path d="M 967.764706 300.141818 
L 1296 300.141818 
L 1296 77.76 
L 967.764706 77.76 
z
" style="fill: #ffffff"/>
   </g>
   <g id="PathCollection_5">
    <g clip-path="url(#p2497bdba22)">
     <use xlink:href="#md2567df40d" x="1177.789387" y="147.769091" style="stroke: #000000"/>
     <use xlink:href="#md2567df40d" x="1200.742904" y="106.587273" style="stroke: #000000"/>
     <use xlink:href="#md2567df40d" x="1143.359111" y="209.541818" style="stroke: #000000"/>
     <use xlink:href="#md2567df40d" x="1108.928836" y="230.132727" style="stroke: #000000"/>
     <use xlink:href="#md2567df40d" x="1074.49856" y="271.314545" style="stroke: #000000"/>
     <use xlink:href="#md2567df40d" x="1040.068285" y="271.314545" style="stroke: #000000"/>
     <use xlink:href="#md2567df40d" x="1005.638009" y="291.905455" style="stroke: #000000"/>
     <use xlink:href="#md2567df40d" x="1017.114768" y="291.905455" style="stroke: #000000"/>
     <use xlink:href="#md2567df40d" x="1028.591526" y="291.905455" style="stroke: #000000"/>
     <use xlink:href="#md2567df40d" x="1040.068285" y="271.314545" style="stroke: #000000"/>
     <use xlink:href="#md2567df40d" x="1200.745659" y="147.769091" style="stroke: #000000"/>
     <use xlink:href="#md2567df40d" x="1160.571265" y="188.950909" style="stroke: #000000"/>
     <use xlink:href="#md2567df40d" x="1080.222479" y="230.132727" style="stroke: #000000"/>
     <use xlink:href="#md2567df40d" x="1120.396872" y="209.541818" style="stroke: #000000"/>
     <use xlink:href="#md2567df40d" x="1040.048086" y="291.905455" style="stroke: #000000"/>
     <use xlink:href="#md2567df40d" x="1049.37387" y="271.314545" style="stroke: #000000"/>
     <use xlink:href="#md2567df40d" x="1171.508157" y="188.950909" style="stroke: #000000"/>
     <use xlink:href="#md2567df40d" x="1130.796881" y="209.541818" style="stroke: #000000"/>
     <use xlink:href="#md2567df40d" x="1090.085376" y="230.132727" style="stroke: #000000"/>
     <use xlink:href="#md2567df40d" x="1212.219663" y="106.587273" style="stroke: #000000"/>
    </g>
   </g>
   <g id="matplotlib.axis_5">
    <g id="xtick_15">
     <g id="line2d_65">
      <path d="M 1005.638009 300.141818 
L 1005.638009 77.76 
" clip-path="url(#p2497bdba22)" style="fill: none; stroke: #b0b0b0; stroke-width: 0.8; stroke-linecap: square"/>
     </g>
     <g id="line2d_66">
      <g>
       <use xlink:href="#m20253fd3a9" x="1005.638009" y="300.141818" style="stroke: #000000; stroke-width: 0.8"/>
      </g>
     </g>
     <g id="text_35">
      <!-- 0 -->
      <g transform="translate(1002.456759 314.740256)scale(0.1 -0.1)">
       <use xlink:href="#DejaVuSans-30"/>
      </g>
     </g>
    </g>
    <g id="xtick_16">
     <g id="line2d_67">
      <path d="M 1051.545043 300.141818 
L 1051.545043 77.76 
" clip-path="url(#p2497bdba22)" style="fill: none; stroke: #b0b0b0; stroke-width: 0.8; stroke-linecap: square"/>
     </g>
     <g id="line2d_68">
      <g>
       <use xlink:href="#m20253fd3a9" x="1051.545043" y="300.141818" style="stroke: #000000; stroke-width: 0.8"/>
      </g>
     </g>
     <g id="text_36">
      <!-- 20 -->
      <g transform="translate(1045.182543 314.740256)scale(0.1 -0.1)">
       <use xlink:href="#DejaVuSans-32"/>
       <use xlink:href="#DejaVuSans-30" x="63.623047"/>
      </g>
     </g>
    </g>
    <g id="xtick_17">
     <g id="line2d_69">
      <path d="M 1097.452077 300.141818 
L 1097.452077 77.76 
" clip-path="url(#p2497bdba22)" style="fill: none; stroke: #b0b0b0; stroke-width: 0.8; stroke-linecap: square"/>
     </g>
     <g id="line2d_70">
      <g>
       <use xlink:href="#m20253fd3a9" x="1097.452077" y="300.141818" style="stroke: #000000; stroke-width: 0.8"/>
      </g>
     </g>
     <g id="text_37">
      <!-- 40 -->
      <g transform="translate(1091.089577 314.740256)scale(0.1 -0.1)">
       <use xlink:href="#DejaVuSans-34"/>
       <use xlink:href="#DejaVuSans-30" x="63.623047"/>
      </g>
     </g>
    </g>
    <g id="xtick_18">
     <g id="line2d_71">
      <path d="M 1143.359111 300.141818 
L 1143.359111 77.76 
" clip-path="url(#p2497bdba22)" style="fill: none; stroke: #b0b0b0; stroke-width: 0.8; stroke-linecap: square"/>
     </g>
     <g id="line2d_72">
      <g>
       <use xlink:href="#m20253fd3a9" x="1143.359111" y="300.141818" style="stroke: #000000; stroke-width: 0.8"/>
      </g>
     </g>
     <g id="text_38">
      <!-- 60 -->
      <g transform="translate(1136.996611 314.740256)scale(0.1 -0.1)">
       <use xlink:href="#DejaVuSans-36"/>
       <use xlink:href="#DejaVuSans-30" x="63.623047"/>
      </g>
     </g>
    </g>
    <g id="xtick_19">
     <g id="line2d_73">
      <path d="M 1189.266146 300.141818 
L 1189.266146 77.76 
" clip-path="url(#p2497bdba22)" style="fill: none; stroke: #b0b0b0; stroke-width: 0.8; stroke-linecap: square"/>
     </g>
     <g id="line2d_74">
      <g>
       <use xlink:href="#m20253fd3a9" x="1189.266146" y="300.141818" style="stroke: #000000; stroke-width: 0.8"/>
      </g>
     </g>
     <g id="text_39">
      <!-- 80 -->
      <g transform="translate(1182.903646 314.740256)scale(0.1 -0.1)">
       <use xlink:href="#DejaVuSans-38"/>
       <use xlink:href="#DejaVuSans-30" x="63.623047"/>
      </g>
     </g>
    </g>
    <g id="xtick_20">
     <g id="line2d_75">
      <path d="M 1235.17318 300.141818 
L 1235.17318 77.76 
" clip-path="url(#p2497bdba22)" style="fill: none; stroke: #b0b0b0; stroke-width: 0.8; stroke-linecap: square"/>
     </g>
     <g id="line2d_76">
      <g>
       <use xlink:href="#m20253fd3a9" x="1235.17318" y="300.141818" style="stroke: #000000; stroke-width: 0.8"/>
      </g>
     </g>
     <g id="text_40">
      <!-- 100 -->
      <g transform="translate(1225.62943 314.740256)scale(0.1 -0.1)">
       <use xlink:href="#DejaVuSans-31"/>
       <use xlink:href="#DejaVuSans-30" x="63.623047"/>
       <use xlink:href="#DejaVuSans-30" x="127.246094"/>
      </g>
     </g>
    </g>
    <g id="xtick_21">
     <g id="line2d_77">
      <path d="M 1281.080214 300.141818 
L 1281.080214 77.76 
" clip-path="url(#p2497bdba22)" style="fill: none; stroke: #b0b0b0; stroke-width: 0.8; stroke-linecap: square"/>
     </g>
     <g id="line2d_78">
      <g>
       <use xlink:href="#m20253fd3a9" x="1281.080214" y="300.141818" style="stroke: #000000; stroke-width: 0.8"/>
      </g>
     </g>
     <g id="text_41">
      <!-- 120 -->
      <g transform="translate(1271.536464 314.740256)scale(0.1 -0.1)">
       <use xlink:href="#DejaVuSans-31"/>
       <use xlink:href="#DejaVuSans-32" x="63.623047"/>
       <use xlink:href="#DejaVuSans-30" x="127.246094"/>
      </g>
     </g>
    </g>
   </g>
   <g id="matplotlib.axis_6">
    <g id="ytick_13">
     <g id="line2d_79">
      <path d="M 967.764706 291.905455 
L 1296 291.905455 
" clip-path="url(#p2497bdba22)" style="fill: none; stroke: #b0b0b0; stroke-width: 0.8; stroke-linecap: square"/>
     </g>
     <g id="line2d_80">
      <g>
       <use xlink:href="#mf09b7b3d90" x="967.764706" y="291.905455" style="stroke: #000000; stroke-width: 0.8"/>
      </g>
     </g>
     <g id="text_42">
      <!-- 0 -->
      <g transform="translate(954.402206 295.704673)scale(0.1 -0.1)">
       <use xlink:href="#DejaVuSans-30"/>
      </g>
     </g>
    </g>
    <g id="ytick_14">
     <g id="line2d_81">
      <path d="M 967.764706 250.723636 
L 1296 250.723636 
" clip-path="url(#p2497bdba22)" style="fill: none; stroke: #b0b0b0; stroke-width: 0.8; stroke-linecap: square"/>
     </g>
     <g id="line2d_82">
      <g>
       <use xlink:href="#mf09b7b3d90" x="967.764706" y="250.723636" style="stroke: #000000; stroke-width: 0.8"/>
      </g>
     </g>
     <g id="text_43">
      <!-- 10 -->
      <g transform="translate(948.039706 254.522855)scale(0.1 -0.1)">
       <use xlink:href="#DejaVuSans-31"/>
       <use xlink:href="#DejaVuSans-30" x="63.623047"/>
      </g>
     </g>
    </g>
    <g id="ytick_15">
     <g id="line2d_83">
      <path d="M 967.764706 209.541818 
L 1296 209.541818 
" clip-path="url(#p2497bdba22)" style="fill: none; stroke: #b0b0b0; stroke-width: 0.8; stroke-linecap: square"/>
     </g>
     <g id="line2d_84">
      <g>
       <use xlink:href="#mf09b7b3d90" x="967.764706" y="209.541818" style="stroke: #000000; stroke-width: 0.8"/>
      </g>
     </g>
     <g id="text_44">
      <!-- 20 -->
      <g transform="translate(948.039706 213.341037)scale(0.1 -0.1)">
       <use xlink:href="#DejaVuSans-32"/>
       <use xlink:href="#DejaVuSans-30" x="63.623047"/>
      </g>
     </g>
    </g>
    <g id="ytick_16">
     <g id="line2d_85">
      <path d="M 967.764706 168.36 
L 1296 168.36 
" clip-path="url(#p2497bdba22)" style="fill: none; stroke: #b0b0b0; stroke-width: 0.8; stroke-linecap: square"/>
     </g>
     <g id="line2d_86">
      <g>
       <use xlink:href="#mf09b7b3d90" x="967.764706" y="168.36" style="stroke: #000000; stroke-width: 0.8"/>
      </g>
     </g>
     <g id="text_45">
      <!-- 30 -->
      <g transform="translate(948.039706 172.159219)scale(0.1 -0.1)">
       <use xlink:href="#DejaVuSans-33"/>
       <use xlink:href="#DejaVuSans-30" x="63.623047"/>
      </g>
     </g>
    </g>
    <g id="ytick_17">
     <g id="line2d_87">
      <path d="M 967.764706 127.178182 
L 1296 127.178182 
" clip-path="url(#p2497bdba22)" style="fill: none; stroke: #b0b0b0; stroke-width: 0.8; stroke-linecap: square"/>
     </g>
     <g id="line2d_88">
      <g>
       <use xlink:href="#mf09b7b3d90" x="967.764706" y="127.178182" style="stroke: #000000; stroke-width: 0.8"/>
      </g>
     </g>
     <g id="text_46">
      <!-- 40 -->
      <g transform="translate(948.039706 130.977401)scale(0.1 -0.1)">
       <use xlink:href="#DejaVuSans-34"/>
       <use xlink:href="#DejaVuSans-30" x="63.623047"/>
      </g>
     </g>
    </g>
    <g id="ytick_18">
     <g id="line2d_89">
      <path d="M 967.764706 85.996364 
L 1296 85.996364 
" clip-path="url(#p2497bdba22)" style="fill: none; stroke: #b0b0b0; stroke-width: 0.8; stroke-linecap: square"/>
     </g>
     <g id="line2d_90">
      <g>
       <use xlink:href="#mf09b7b3d90" x="967.764706" y="85.996364" style="stroke: #000000; stroke-width: 0.8"/>
      </g>
     </g>
     <g id="text_47">
      <!-- 50 -->
      <g transform="translate(948.039706 89.795582)scale(0.1 -0.1)">
       <use xlink:href="#DejaVuSans-35"/>
       <use xlink:href="#DejaVuSans-30" x="63.623047"/>
      </g>
     </g>
    </g>
   </g>
   <g id="line2d_91">
    <path d="M 982.684492 188.950909 
L 1281.080214 188.950909 
" clip-path="url(#p2497bdba22)" style="fill: none; stroke-dasharray: 1.5,2.475; stroke-dashoffset: 0; stroke: #808080; stroke-width: 1.5"/>
   </g>
   <g id="line2d_92">
    <path d="M 1212.219663 333.087273 
L 1212.219663 3.632727 
" clip-path="url(#p2497bdba22)" style="fill: none; stroke-dasharray: 5.55,2.4; stroke-dashoffset: 0; stroke: #ff0000; stroke-opacity: 0.3; stroke-width: 1.5"/>
   </g>
   <g id="line2d_93">
    <path d="M 1020.76408 291.905455 
L 1022.824883 290.424377 
L 1024.885685 288.9433 
L 1026.946488 287.462223 
L 1029.007291 285.981146 
L 1031.068094 284.500069 
L 1033.128897 283.018992 
L 1035.1897 281.537915 
L 1037.250503 280.056838 
L 1039.311306 278.575761 
L 1041.372108 277.094684 
L 1043.432911 275.613607 
L 1045.493714 274.13253 
L 1047.554517 272.651453 
L 1049.61532 271.170376 
L 1051.676123 269.689299 
L 1053.736926 268.208222 
L 1055.797729 266.727145 
L 1057.858531 265.246068 
L 1059.919334 263.764991 
L 1061.980137 262.283913 
L 1064.04094 260.802836 
L 1066.101743 259.321759 
L 1068.162546 257.840682 
L 1070.223349 256.359605 
L 1072.284152 254.878528 
L 1074.344954 253.397451 
L 1076.405757 251.916374 
L 1078.46656 250.435297 
L 1080.527363 248.95422 
L 1082.588166 247.473143 
L 1084.648969 245.992066 
L 1086.709772 244.510989 
L 1088.770575 243.029912 
L 1090.831377 241.548835 
L 1092.89218 240.067758 
L 1094.952983 238.586681 
L 1097.013786 237.105604 
L 1099.074589 235.624527 
L 1101.135392 234.143449 
L 1103.196195 232.662372 
L 1105.256998 231.181295 
L 1107.3178 229.699562 
L 1109.378603 228.206167 
L 1111.439406 226.696797 
L 1113.500209 225.170929 
L 1115.561012 223.628009 
L 1117.621815 222.067452 
L 1119.682618 220.488641 
L 1121.743421 218.890918 
L 1123.804223 217.273587 
L 1125.865026 215.635908 
L 1127.925829 213.977094 
L 1129.986632 212.296304 
L 1132.047435 210.592641 
L 1134.108238 208.865145 
L 1136.169041 207.112787 
L 1138.229843 205.334462 
L 1140.290646 203.528979 
L 1142.351449 201.695055 
L 1144.412252 199.831302 
L 1146.473055 197.936216 
L 1148.533858 196.008161 
L 1150.594661 194.045354 
L 1152.655464 192.045845 
L 1154.716266 190.007495 
L 1156.777069 187.927948 
L 1158.837872 185.804602 
L 1160.898675 183.634565 
L 1162.959478 181.414615 
L 1165.020281 179.141142 
L 1167.081084 176.810076 
L 1169.141887 174.416804 
L 1171.202689 171.956065 
L 1173.263492 169.421809 
L 1175.324295 166.807025 
L 1177.385098 164.103509 
L 1179.445901 161.301565 
L 1181.506704 158.38959 
L 1183.567507 155.353502 
L 1185.62831 152.175934 
L 1187.689112 148.835046 
L 1189.749915 145.352851 
L 1191.810718 141.861293 
L 1193.871521 138.369735 
L 1195.932324 134.878177 
L 1197.993127 131.386619 
L 1200.05393 127.895061 
L 1202.114733 124.403503 
L 1204.175535 120.911945 
L 1206.236338 117.420387 
L 1208.297141 113.928828 
L 1210.357944 110.43727 
L 1212.418747 106.945712 
L 1214.47955 103.454154 
L 1216.540353 99.962596 
L 1218.601156 96.471038 
L 1220.661958 92.97948 
L 1222.722761 89.487922 
L 1224.783564 85.996364 
" clip-path="url(#p2497bdba22)" style="fill: none; stroke: #1f77b4; stroke-width: 1.5; stroke-linecap: square"/>
   </g>
   <g id="line2d_94">
    <path d="M 1024.127375 291.905455 
L 1026.077165 290.506706 
L 1028.026955 289.107957 
L 1029.976745 287.709209 
L 1031.926535 286.31046 
L 1033.876325 284.911711 
L 1035.826115 283.512963 
L 1037.775905 282.114214 
L 1039.725694 280.715465 
L 1041.675484 279.316717 
L 1043.625274 277.917968 
L 1045.575064 276.519219 
L 1047.524854 275.120471 
L 1049.474644 273.721722 
L 1051.424434 272.322973 
L 1053.374224 270.924225 
L 1055.324014 269.525476 
L 1057.273804 268.126727 
L 1059.223594 266.727979 
L 1061.173383 265.32923 
L 1063.123173 263.930482 
L 1065.072963 262.531733 
L 1067.022753 261.132984 
L 1068.972543 259.734236 
L 1070.922333 258.335487 
L 1072.872123 256.936738 
L 1074.821913 255.53799 
L 1076.771703 254.139241 
L 1078.721493 252.740492 
L 1080.671282 251.341744 
L 1082.621072 249.942995 
L 1084.570862 248.544246 
L 1086.520652 247.145498 
L 1088.470442 245.746749 
L 1090.420232 244.348 
L 1092.370022 242.949252 
L 1094.319812 241.550503 
L 1096.269602 240.151754 
L 1098.219392 238.753006 
L 1100.169181 237.354257 
L 1102.118971 235.955509 
L 1104.068761 234.55676 
L 1106.018551 233.158011 
L 1107.968341 231.759263 
L 1109.918131 230.360514 
L 1111.867921 228.956262 
L 1113.817711 227.53621 
L 1115.767501 226.099591 
L 1117.717291 224.645813 
L 1119.667081 223.174244 
L 1121.61687 221.684216 
L 1123.56666 220.175015 
L 1125.51645 218.645883 
L 1127.46624 217.096008 
L 1129.41603 215.524521 
L 1131.36582 213.930494 
L 1133.31561 212.312927 
L 1135.2654 210.670745 
L 1137.21519 209.00279 
L 1139.16498 207.307809 
L 1141.114769 205.584443 
L 1143.064559 203.831217 
L 1145.014349 202.046523 
L 1146.964139 200.228603 
L 1148.913929 198.375529 
L 1150.863719 196.48518 
L 1152.813509 194.55521 
L 1154.763299 192.58302 
L 1156.713089 190.565711 
L 1158.662879 188.500036 
L 1160.612669 186.382341 
L 1162.562458 184.208485 
L 1164.512248 181.973749 
L 1166.462038 179.672712 
L 1168.411828 177.299097 
L 1170.361618 174.845569 
L 1172.311408 172.30347 
L 1174.261198 169.662453 
L 1176.210988 166.909984 
L 1178.160778 164.030637 
L 1180.110568 161.00506 
L 1182.060357 157.808414 
L 1184.010147 154.407917 
L 1185.959937 150.758748 
L 1187.909727 146.807665 
L 1189.859517 142.753579 
L 1191.809307 138.699492 
L 1193.759097 134.645405 
L 1195.708887 130.591318 
L 1197.658677 126.537232 
L 1199.608467 122.483145 
L 1201.558257 118.429058 
L 1203.508046 114.374971 
L 1205.457836 110.320884 
L 1207.407626 106.266798 
L 1209.357416 102.212711 
L 1211.307206 98.158624 
L 1213.256996 94.104537 
L 1215.206786 90.05045 
L 1217.156576 85.996364 
" clip-path="url(#p2497bdba22)" style="fill: none; stroke-dasharray: 5.55,2.4; stroke-dashoffset: 0; stroke: #ff7f0e; stroke-width: 1.5"/>
   </g>
   <g id="patch_15">
    <path d="M 967.764706 300.141818 
L 967.764706 77.76 
" style="fill: none; stroke: #000000; stroke-width: 0.8; stroke-linejoin: miter; stroke-linecap: square"/>
   </g>
   <g id="patch_16">
    <path d="M 1296 300.141818 
L 1296 77.76 
" style="fill: none; stroke: #000000; stroke-width: 0.8; stroke-linejoin: miter; stroke-linecap: square"/>
   </g>
   <g id="patch_17">
    <path d="M 967.764706 300.141818 
L 1296 300.141818 
" style="fill: none; stroke: #000000; stroke-width: 0.8; stroke-linejoin: miter; stroke-linecap: square"/>
   </g>
   <g id="patch_18">
    <path d="M 967.764706 77.76 
L 1296 77.76 
" style="fill: none; stroke: #000000; stroke-width: 0.8; stroke-linejoin: miter; stroke-linecap: square"/>
   </g>
   <g id="text_48">
    <!--  Block: 2 -->
    <g transform="translate(1106.001728 71.76)scale(0.12 -0.12)">
     <use xlink:href="#DejaVuSans-20"/>
     <use xlink:href="#DejaVuSans-42" x="31.787109"/>
     <use xlink:href="#DejaVuSans-6c" x="100.390625"/>
     <use xlink:href="#DejaVuSans-6f" x="128.173828"/>
     <use xlink:href="#DejaVuSans-63" x="189.355469"/>
     <use xlink:href="#DejaVuSans-6b" x="244.335938"/>
     <use xlink:href="#DejaVuSans-3a" x="302.246094"/>
     <use xlink:href="#DejaVuSans-20" x="335.9375"/>
     <use xlink:href="#DejaVuSans-32" x="367.724609"/>
    </g>
   </g>
   <g id="legend_3">
    <g id="patch_19">
     <path d="M 974.764706 130.0725 
L 1105.964706 130.0725 
Q 1107.964706 130.0725 1107.964706 128.0725 
L 1107.964706 84.76 
Q 1107.964706 82.76 1105.964706 82.76 
L 974.764706 82.76 
Q 972.764706 82.76 972.764706 84.76 
L 972.764706 128.0725 
Q 972.764706 130.0725 974.764706 130.0725 
z
" style="fill: #ffffff; opacity: 0.8; stroke: #cccccc; stroke-linejoin: miter"/>
    </g>
    <g id="PathCollection_6">
     <g>
      <use xlink:href="#md2567df40d" x="986.764706" y="91.733438" style="stroke: #000000"/>
     </g>
    </g>
    <g id="text_49">
     <!-- Data -->
     <g transform="translate(1004.764706 94.358438)scale(0.1 -0.1)">
      <use xlink:href="#DejaVuSans-44"/>
      <use xlink:href="#DejaVuSans-61" x="77.001953"/>
      <use xlink:href="#DejaVuSans-74" x="138.28125"/>
      <use xlink:href="#DejaVuSans-61" x="177.490234"/>
     </g>
    </g>
    <g id="line2d_95">
     <path d="M 976.764706 105.536563 
L 986.764706 105.536563 
L 996.764706 105.536563 
" style="fill: none; stroke: #1f77b4; stroke-width: 1.5; stroke-linecap: square"/>
    </g>
    <g id="text_50">
     <!-- Artc e:0.1458 -->
     <g transform="translate(1004.764706 109.036563)scale(0.1 -0.1)">
      <use xlink:href="#DejaVuSans-41"/>
      <use xlink:href="#DejaVuSans-72" x="68.408203"/>
      <use xlink:href="#DejaVuSans-74" x="109.521484"/>
      <use xlink:href="#DejaVuSans-63" x="148.730469"/>
      <use xlink:href="#DejaVuSans-20" x="203.710938"/>
      <use xlink:href="#DejaVuSans-65" x="235.498047"/>
      <use xlink:href="#DejaVuSans-3a" x="297.021484"/>
      <use xlink:href="#DejaVuSans-30" x="330.712891"/>
      <use xlink:href="#DejaVuSans-2e" x="394.335938"/>
      <use xlink:href="#DejaVuSans-31" x="426.123047"/>
      <use xlink:href="#DejaVuSans-34" x="489.746094"/>
      <use xlink:href="#DejaVuSans-35" x="553.369141"/>
      <use xlink:href="#DejaVuSans-38" x="616.992188"/>
     </g>
    </g>
    <g id="line2d_96">
     <path d="M 976.764706 120.214688 
L 986.764706 120.214688 
L 996.764706 120.214688 
" style="fill: none; stroke-dasharray: 5.55,2.4; stroke-dashoffset: 0; stroke: #ff7f0e; stroke-width: 1.5"/>
    </g>
    <g id="text_51">
     <!-- NEL_BTUX e:0.1547 -->
     <g transform="translate(1004.764706 123.714688)scale(0.1 -0.1)">
      <use xlink:href="#DejaVuSans-4e"/>
      <use xlink:href="#DejaVuSans-45" x="74.804688"/>
      <use xlink:href="#DejaVuSans-4c" x="137.988281"/>
      <use xlink:href="#DejaVuSans-5f" x="193.701172"/>
      <use xlink:href="#DejaVuSans-42" x="243.701172"/>
      <use xlink:href="#DejaVuSans-54" x="312.304688"/>
      <use xlink:href="#DejaVuSans-55" x="373.388672"/>
      <use xlink:href="#DejaVuSans-58" x="446.582031"/>
      <use xlink:href="#DejaVuSans-20" x="515.087891"/>
      <use xlink:href="#DejaVuSans-65" x="546.875"/>
      <use xlink:href="#DejaVuSans-3a" x="608.398438"/>
      <use xlink:href="#DejaVuSans-30" x="642.089844"/>
      <use xlink:href="#DejaVuSans-2e" x="705.712891"/>
      <use xlink:href="#DejaVuSans-31" x="737.5"/>
      <use xlink:href="#DejaVuSans-35" x="801.123047"/>
      <use xlink:href="#DejaVuSans-34" x="864.746094"/>
      <use xlink:href="#DejaVuSans-37" x="928.369141"/>
     </g>
    </g>
   </g>
  </g>
  <g id="axes_4">
   <g id="patch_20">
    <path d="M 180 567 
L 508.235294 567 
L 508.235294 344.618182 
L 180 344.618182 
z
" style="fill: #ffffff"/>
   </g>
   <g id="PathCollection_7">
    <g clip-path="url(#p8432932d87)">
     <use xlink:href="#md2567df40d" x="390.024681" y="414.627273" style="stroke: #000000"/>
     <use xlink:href="#md2567df40d" x="412.978198" y="414.627273" style="stroke: #000000"/>
     <use xlink:href="#md2567df40d" x="355.594406" y="455.809091" style="stroke: #000000"/>
     <use xlink:href="#md2567df40d" x="321.16413" y="496.990909" style="stroke: #000000"/>
     <use xlink:href="#md2567df40d" x="286.733854" y="538.172727" style="stroke: #000000"/>
     <use xlink:href="#md2567df40d" x="252.303579" y="558.763636" style="stroke: #000000"/>
     <use xlink:href="#md2567df40d" x="263.780337" y="538.172727" style="stroke: #000000"/>
     <use xlink:href="#md2567df40d" x="384.288138" y="414.627273" style="stroke: #000000"/>
     <use xlink:href="#md2567df40d" x="303.954271" y="517.581818" style="stroke: #000000"/>
     <use xlink:href="#md2567df40d" x="263.787453" y="538.172727" style="stroke: #000000"/>
     <use xlink:href="#md2567df40d" x="344.12109" y="476.4" style="stroke: #000000"/>
     <use xlink:href="#md2567df40d" x="424.454957" y="373.445455" style="stroke: #000000"/>
     <use xlink:href="#md2567df40d" x="385.894425" y="414.627273" style="stroke: #000000"/>
     <use xlink:href="#md2567df40d" x="424.454957" y="373.445455" style="stroke: #000000"/>
     <use xlink:href="#md2567df40d" x="347.334123" y="476.4" style="stroke: #000000"/>
     <use xlink:href="#md2567df40d" x="308.773592" y="496.990909" style="stroke: #000000"/>
     <use xlink:href="#md2567df40d" x="270.21329" y="538.172727" style="stroke: #000000"/>
    </g>
   </g>
   <g id="matplotlib.axis_7">
    <g id="xtick_22">
     <g id="line2d_97">
      <path d="M 217.873303 567 
L 217.873303 344.618182 
" clip-path="url(#p8432932d87)" style="fill: none; stroke: #b0b0b0; stroke-width: 0.8; stroke-linecap: square"/>
     </g>
     <g id="line2d_98">
      <g>
       <use xlink:href="#m20253fd3a9" x="217.873303" y="567" style="stroke: #000000; stroke-width: 0.8"/>
      </g>
     </g>
     <g id="text_52">
      <!-- 0 -->
      <g transform="translate(214.692053 581.598437)scale(0.1 -0.1)">
       <use xlink:href="#DejaVuSans-30"/>
      </g>
     </g>
    </g>
    <g id="xtick_23">
     <g id="line2d_99">
      <path d="M 263.780337 567 
L 263.780337 344.618182 
" clip-path="url(#p8432932d87)" style="fill: none; stroke: #b0b0b0; stroke-width: 0.8; stroke-linecap: square"/>
     </g>
     <g id="line2d_100">
      <g>
       <use xlink:href="#m20253fd3a9" x="263.780337" y="567" style="stroke: #000000; stroke-width: 0.8"/>
      </g>
     </g>
     <g id="text_53">
      <!-- 20 -->
      <g transform="translate(257.417837 581.598437)scale(0.1 -0.1)">
       <use xlink:href="#DejaVuSans-32"/>
       <use xlink:href="#DejaVuSans-30" x="63.623047"/>
      </g>
     </g>
    </g>
    <g id="xtick_24">
     <g id="line2d_101">
      <path d="M 309.687371 567 
L 309.687371 344.618182 
" clip-path="url(#p8432932d87)" style="fill: none; stroke: #b0b0b0; stroke-width: 0.8; stroke-linecap: square"/>
     </g>
     <g id="line2d_102">
      <g>
       <use xlink:href="#m20253fd3a9" x="309.687371" y="567" style="stroke: #000000; stroke-width: 0.8"/>
      </g>
     </g>
     <g id="text_54">
      <!-- 40 -->
      <g transform="translate(303.324871 581.598437)scale(0.1 -0.1)">
       <use xlink:href="#DejaVuSans-34"/>
       <use xlink:href="#DejaVuSans-30" x="63.623047"/>
      </g>
     </g>
    </g>
    <g id="xtick_25">
     <g id="line2d_103">
      <path d="M 355.594406 567 
L 355.594406 344.618182 
" clip-path="url(#p8432932d87)" style="fill: none; stroke: #b0b0b0; stroke-width: 0.8; stroke-linecap: square"/>
     </g>
     <g id="line2d_104">
      <g>
       <use xlink:href="#m20253fd3a9" x="355.594406" y="567" style="stroke: #000000; stroke-width: 0.8"/>
      </g>
     </g>
     <g id="text_55">
      <!-- 60 -->
      <g transform="translate(349.231906 581.598437)scale(0.1 -0.1)">
       <use xlink:href="#DejaVuSans-36"/>
       <use xlink:href="#DejaVuSans-30" x="63.623047"/>
      </g>
     </g>
    </g>
    <g id="xtick_26">
     <g id="line2d_105">
      <path d="M 401.50144 567 
L 401.50144 344.618182 
" clip-path="url(#p8432932d87)" style="fill: none; stroke: #b0b0b0; stroke-width: 0.8; stroke-linecap: square"/>
     </g>
     <g id="line2d_106">
      <g>
       <use xlink:href="#m20253fd3a9" x="401.50144" y="567" style="stroke: #000000; stroke-width: 0.8"/>
      </g>
     </g>
     <g id="text_56">
      <!-- 80 -->
      <g transform="translate(395.13894 581.598437)scale(0.1 -0.1)">
       <use xlink:href="#DejaVuSans-38"/>
       <use xlink:href="#DejaVuSans-30" x="63.623047"/>
      </g>
     </g>
    </g>
    <g id="xtick_27">
     <g id="line2d_107">
      <path d="M 447.408474 567 
L 447.408474 344.618182 
" clip-path="url(#p8432932d87)" style="fill: none; stroke: #b0b0b0; stroke-width: 0.8; stroke-linecap: square"/>
     </g>
     <g id="line2d_108">
      <g>
       <use xlink:href="#m20253fd3a9" x="447.408474" y="567" style="stroke: #000000; stroke-width: 0.8"/>
      </g>
     </g>
     <g id="text_57">
      <!-- 100 -->
      <g transform="translate(437.864724 581.598437)scale(0.1 -0.1)">
       <use xlink:href="#DejaVuSans-31"/>
       <use xlink:href="#DejaVuSans-30" x="63.623047"/>
       <use xlink:href="#DejaVuSans-30" x="127.246094"/>
      </g>
     </g>
    </g>
    <g id="xtick_28">
     <g id="line2d_109">
      <path d="M 493.315508 567 
L 493.315508 344.618182 
" clip-path="url(#p8432932d87)" style="fill: none; stroke: #b0b0b0; stroke-width: 0.8; stroke-linecap: square"/>
     </g>
     <g id="line2d_110">
      <g>
       <use xlink:href="#m20253fd3a9" x="493.315508" y="567" style="stroke: #000000; stroke-width: 0.8"/>
      </g>
     </g>
     <g id="text_58">
      <!-- 120 -->
      <g transform="translate(483.771758 581.598437)scale(0.1 -0.1)">
       <use xlink:href="#DejaVuSans-31"/>
       <use xlink:href="#DejaVuSans-32" x="63.623047"/>
       <use xlink:href="#DejaVuSans-30" x="127.246094"/>
      </g>
     </g>
    </g>
   </g>
   <g id="matplotlib.axis_8">
    <g id="ytick_19">
     <g id="line2d_111">
      <path d="M 180 558.763636 
L 508.235294 558.763636 
" clip-path="url(#p8432932d87)" style="fill: none; stroke: #b0b0b0; stroke-width: 0.8; stroke-linecap: square"/>
     </g>
     <g id="line2d_112">
      <g>
       <use xlink:href="#mf09b7b3d90" x="180" y="558.763636" style="stroke: #000000; stroke-width: 0.8"/>
      </g>
     </g>
     <g id="text_59">
      <!-- 0 -->
      <g transform="translate(166.6375 562.562855)scale(0.1 -0.1)">
       <use xlink:href="#DejaVuSans-30"/>
      </g>
     </g>
    </g>
    <g id="ytick_20">
     <g id="line2d_113">
      <path d="M 180 517.581818 
L 508.235294 517.581818 
" clip-path="url(#p8432932d87)" style="fill: none; stroke: #b0b0b0; stroke-width: 0.8; stroke-linecap: square"/>
     </g>
     <g id="line2d_114">
      <g>
       <use xlink:href="#mf09b7b3d90" x="180" y="517.581818" style="stroke: #000000; stroke-width: 0.8"/>
      </g>
     </g>
     <g id="text_60">
      <!-- 10 -->
      <g transform="translate(160.275 521.381037)scale(0.1 -0.1)">
       <use xlink:href="#DejaVuSans-31"/>
       <use xlink:href="#DejaVuSans-30" x="63.623047"/>
      </g>
     </g>
    </g>
    <g id="ytick_21">
     <g id="line2d_115">
      <path d="M 180 476.4 
L 508.235294 476.4 
" clip-path="url(#p8432932d87)" style="fill: none; stroke: #b0b0b0; stroke-width: 0.8; stroke-linecap: square"/>
     </g>
     <g id="line2d_116">
      <g>
       <use xlink:href="#mf09b7b3d90" x="180" y="476.4" style="stroke: #000000; stroke-width: 0.8"/>
      </g>
     </g>
     <g id="text_61">
      <!-- 20 -->
      <g transform="translate(160.275 480.199219)scale(0.1 -0.1)">
       <use xlink:href="#DejaVuSans-32"/>
       <use xlink:href="#DejaVuSans-30" x="63.623047"/>
      </g>
     </g>
    </g>
    <g id="ytick_22">
     <g id="line2d_117">
      <path d="M 180 435.218182 
L 508.235294 435.218182 
" clip-path="url(#p8432932d87)" style="fill: none; stroke: #b0b0b0; stroke-width: 0.8; stroke-linecap: square"/>
     </g>
     <g id="line2d_118">
      <g>
       <use xlink:href="#mf09b7b3d90" x="180" y="435.218182" style="stroke: #000000; stroke-width: 0.8"/>
      </g>
     </g>
     <g id="text_62">
      <!-- 30 -->
      <g transform="translate(160.275 439.017401)scale(0.1 -0.1)">
       <use xlink:href="#DejaVuSans-33"/>
       <use xlink:href="#DejaVuSans-30" x="63.623047"/>
      </g>
     </g>
    </g>
    <g id="ytick_23">
     <g id="line2d_119">
      <path d="M 180 394.036364 
L 508.235294 394.036364 
" clip-path="url(#p8432932d87)" style="fill: none; stroke: #b0b0b0; stroke-width: 0.8; stroke-linecap: square"/>
     </g>
     <g id="line2d_120">
      <g>
       <use xlink:href="#mf09b7b3d90" x="180" y="394.036364" style="stroke: #000000; stroke-width: 0.8"/>
      </g>
     </g>
     <g id="text_63">
      <!-- 40 -->
      <g transform="translate(160.275 397.835582)scale(0.1 -0.1)">
       <use xlink:href="#DejaVuSans-34"/>
       <use xlink:href="#DejaVuSans-30" x="63.623047"/>
      </g>
     </g>
    </g>
    <g id="ytick_24">
     <g id="line2d_121">
      <path d="M 180 352.854545 
L 508.235294 352.854545 
" clip-path="url(#p8432932d87)" style="fill: none; stroke: #b0b0b0; stroke-width: 0.8; stroke-linecap: square"/>
     </g>
     <g id="line2d_122">
      <g>
       <use xlink:href="#mf09b7b3d90" x="180" y="352.854545" style="stroke: #000000; stroke-width: 0.8"/>
      </g>
     </g>
     <g id="text_64">
      <!-- 50 -->
      <g transform="translate(160.275 356.653764)scale(0.1 -0.1)">
       <use xlink:href="#DejaVuSans-35"/>
       <use xlink:href="#DejaVuSans-30" x="63.623047"/>
      </g>
     </g>
    </g>
   </g>
   <g id="line2d_123">
    <path d="M 194.919786 455.809091 
L 493.315508 455.809091 
" clip-path="url(#p8432932d87)" style="fill: none; stroke-dasharray: 1.5,2.475; stroke-dashoffset: 0; stroke: #808080; stroke-width: 1.5"/>
   </g>
   <g id="line2d_124">
    <path d="M 424.454957 599.945455 
L 424.454957 270.490909 
" clip-path="url(#p8432932d87)" style="fill: none; stroke-dasharray: 5.55,2.4; stroke-dashoffset: 0; stroke: #ff0000; stroke-opacity: 0.3; stroke-width: 1.5"/>
   </g>
   <g id="line2d_125">
    <path d="M 250.22754 558.763636 
L 252.189291 556.941282 
L 254.151042 555.118928 
L 256.112793 553.296574 
L 258.074543 551.474219 
L 260.036294 549.651865 
L 261.998045 547.829511 
L 263.959796 546.007157 
L 265.921547 544.184802 
L 267.883297 542.362448 
L 269.845048 540.540094 
L 271.806799 538.71774 
L 273.76855 536.895385 
L 275.730301 535.073031 
L 277.692051 533.250677 
L 279.653802 531.428323 
L 281.615553 529.605968 
L 283.577304 527.783614 
L 285.539055 525.96126 
L 287.500805 524.138906 
L 289.462556 522.316551 
L 291.424307 520.494197 
L 293.386058 518.671843 
L 295.347809 516.849489 
L 297.309559 515.027134 
L 299.27131 513.20478 
L 301.233061 511.382426 
L 303.194812 509.560072 
L 305.156563 507.737717 
L 307.118313 505.915363 
L 309.080064 504.093009 
L 311.041815 502.270655 
L 313.003566 500.4483 
L 314.965317 498.625946 
L 316.927067 496.803539 
L 318.888818 494.975129 
L 320.850569 493.136549 
L 322.81232 491.287629 
L 324.774071 489.428191 
L 326.735821 487.558054 
L 328.697572 485.677031 
L 330.659323 483.78493 
L 332.621074 481.881553 
L 334.582825 479.966696 
L 336.544575 478.040148 
L 338.506326 476.101692 
L 340.468077 474.151106 
L 342.429828 472.188158 
L 344.391579 470.212611 
L 346.353329 468.224218 
L 348.31508 466.222727 
L 350.276831 464.207873 
L 352.238582 462.179387 
L 354.200333 460.136988 
L 356.162083 458.080385 
L 358.123834 456.009278 
L 360.085585 453.923355 
L 362.047336 451.822295 
L 364.009087 449.705762 
L 365.970837 447.57341 
L 367.932588 445.424879 
L 369.894339 443.259794 
L 371.85609 441.077767 
L 373.817841 438.878394 
L 375.779591 436.661255 
L 377.741342 434.425911 
L 379.703093 432.171908 
L 381.664844 429.89877 
L 383.626595 427.606 
L 385.588345 425.293082 
L 387.550096 422.959475 
L 389.511847 420.604613 
L 391.473598 418.227905 
L 393.435349 415.828731 
L 395.397099 413.409421 
L 397.35885 410.987226 
L 399.320601 408.565031 
L 401.282352 406.142836 
L 403.244103 403.720641 
L 405.205853 401.298446 
L 407.167604 398.876251 
L 409.129355 396.454056 
L 411.091106 394.031861 
L 413.052857 391.609666 
L 415.014607 389.187471 
L 416.976358 386.765276 
L 418.938109 384.343081 
L 420.89986 381.920886 
L 422.861611 379.49869 
L 424.823361 377.076495 
L 426.785112 374.6543 
L 428.746863 372.232105 
L 430.708614 369.80991 
L 432.670365 367.387715 
L 434.632115 364.96552 
L 436.593866 362.543325 
L 438.555617 360.12113 
L 440.517368 357.698935 
L 442.479119 355.27674 
L 444.440869 352.854545 
" clip-path="url(#p8432932d87)" style="fill: none; stroke: #1f77b4; stroke-width: 1.5; stroke-linecap: square"/>
   </g>
   <g id="line2d_126">
    <path d="M 245.773444 558.763636 
L 247.725216 557.063559 
L 249.676988 555.363481 
L 251.628759 553.663404 
L 253.580531 551.963326 
L 255.532303 550.263248 
L 257.484075 548.563171 
L 259.435846 546.863093 
L 261.387618 545.163016 
L 263.33939 543.462938 
L 265.291162 541.76286 
L 267.242933 540.062783 
L 269.194705 538.362705 
L 271.146477 536.662628 
L 273.098249 534.96255 
L 275.05002 533.262472 
L 277.001792 531.562395 
L 278.953564 529.862317 
L 280.905336 528.16224 
L 282.857107 526.462162 
L 284.808879 524.762084 
L 286.760651 523.062007 
L 288.712423 521.361929 
L 290.664194 519.661852 
L 292.615966 517.961774 
L 294.567738 516.261696 
L 296.51951 514.561619 
L 298.471281 512.861541 
L 300.423053 511.161464 
L 302.374825 509.461386 
L 304.326597 507.761308 
L 306.278368 506.061231 
L 308.23014 504.361153 
L 310.181912 502.661076 
L 312.133684 500.960998 
L 314.085455 499.26092 
L 316.037227 497.560843 
L 317.988999 495.857919 
L 319.940771 494.142702 
L 321.892542 492.414169 
L 323.844314 490.672005 
L 325.796086 488.915884 
L 327.747858 487.145464 
L 329.699629 485.360389 
L 331.651401 483.560291 
L 333.603173 481.744783 
L 335.554945 479.913462 
L 337.506716 478.065908 
L 339.458488 476.201682 
L 341.41026 474.320323 
L 343.362032 472.421351 
L 345.313803 470.504261 
L 347.265575 468.568525 
L 349.217347 466.613588 
L 351.169119 464.638866 
L 353.12089 462.643748 
L 355.072662 460.627586 
L 357.024434 458.589702 
L 358.976206 456.529377 
L 360.927977 454.445854 
L 362.879749 452.33833 
L 364.831521 450.205957 
L 366.783293 448.047834 
L 368.735064 445.863006 
L 370.686836 443.650455 
L 372.638608 441.409099 
L 374.59038 439.137783 
L 376.542151 436.835272 
L 378.493923 434.500244 
L 380.445695 432.131282 
L 382.397467 429.726862 
L 384.349238 427.285341 
L 386.30101 424.804949 
L 388.252782 422.283766 
L 390.204554 419.719712 
L 392.156325 417.110522 
L 394.108097 414.45383 
L 396.059869 411.7756 
L 398.011641 409.097371 
L 399.963412 406.419141 
L 401.915184 403.740911 
L 403.866956 401.062681 
L 405.818728 398.384452 
L 407.770499 395.706222 
L 409.722271 393.027992 
L 411.674043 390.349762 
L 413.625815 387.671533 
L 415.577586 384.993303 
L 417.529358 382.315073 
L 419.48113 379.636843 
L 421.432902 376.958613 
L 423.384673 374.280384 
L 425.336445 371.602154 
L 427.288217 368.923924 
L 429.239989 366.245694 
L 431.19176 363.567465 
L 433.143532 360.889235 
L 435.095304 358.211005 
L 437.047076 355.532775 
L 438.998847 352.854545 
" clip-path="url(#p8432932d87)" style="fill: none; stroke-dasharray: 5.55,2.4; stroke-dashoffset: 0; stroke: #ff7f0e; stroke-width: 1.5"/>
   </g>
   <g id="patch_21">
    <path d="M 180 567 
L 180 344.618182 
" style="fill: none; stroke: #000000; stroke-width: 0.8; stroke-linejoin: miter; stroke-linecap: square"/>
   </g>
   <g id="patch_22">
    <path d="M 508.235294 567 
L 508.235294 344.618182 
" style="fill: none; stroke: #000000; stroke-width: 0.8; stroke-linejoin: miter; stroke-linecap: square"/>
   </g>
   <g id="patch_23">
    <path d="M 180 567 
L 508.235294 567 
" style="fill: none; stroke: #000000; stroke-width: 0.8; stroke-linejoin: miter; stroke-linecap: square"/>
   </g>
   <g id="patch_24">
    <path d="M 180 344.618182 
L 508.235294 344.618182 
" style="fill: none; stroke: #000000; stroke-width: 0.8; stroke-linejoin: miter; stroke-linecap: square"/>
   </g>
   <g id="text_65">
    <!--  Block: 3 -->
    <g transform="translate(318.237022 338.618182)scale(0.12 -0.12)">
     <use xlink:href="#DejaVuSans-20"/>
     <use xlink:href="#DejaVuSans-42" x="31.787109"/>
     <use xlink:href="#DejaVuSans-6c" x="100.390625"/>
     <use xlink:href="#DejaVuSans-6f" x="128.173828"/>
     <use xlink:href="#DejaVuSans-63" x="189.355469"/>
     <use xlink:href="#DejaVuSans-6b" x="244.335938"/>
     <use xlink:href="#DejaVuSans-3a" x="302.246094"/>
     <use xlink:href="#DejaVuSans-20" x="335.9375"/>
     <use xlink:href="#DejaVuSans-33" x="367.724609"/>
    </g>
   </g>
   <g id="legend_4">
    <g id="patch_25">
     <path d="M 187 396.930682 
L 318.2 396.930682 
Q 320.2 396.930682 320.2 394.930682 
L 320.2 351.618182 
Q 320.2 349.618182 318.2 349.618182 
L 187 349.618182 
Q 185 349.618182 185 351.618182 
L 185 394.930682 
Q 185 396.930682 187 396.930682 
z
" style="fill: #ffffff; opacity: 0.8; stroke: #cccccc; stroke-linejoin: miter"/>
    </g>
    <g id="PathCollection_8">
     <g>
      <use xlink:href="#md2567df40d" x="199" y="358.591619" style="stroke: #000000"/>
     </g>
    </g>
    <g id="text_66">
     <!-- Data -->
     <g transform="translate(217 361.216619)scale(0.1 -0.1)">
      <use xlink:href="#DejaVuSans-44"/>
      <use xlink:href="#DejaVuSans-61" x="77.001953"/>
      <use xlink:href="#DejaVuSans-74" x="138.28125"/>
      <use xlink:href="#DejaVuSans-61" x="177.490234"/>
     </g>
    </g>
    <g id="line2d_127">
     <path d="M 189 372.394744 
L 199 372.394744 
L 209 372.394744 
" style="fill: none; stroke: #1f77b4; stroke-width: 1.5; stroke-linecap: square"/>
    </g>
    <g id="text_67">
     <!-- Artc e:0.1311 -->
     <g transform="translate(217 375.894744)scale(0.1 -0.1)">
      <use xlink:href="#DejaVuSans-41"/>
      <use xlink:href="#DejaVuSans-72" x="68.408203"/>
      <use xlink:href="#DejaVuSans-74" x="109.521484"/>
      <use xlink:href="#DejaVuSans-63" x="148.730469"/>
      <use xlink:href="#DejaVuSans-20" x="203.710938"/>
      <use xlink:href="#DejaVuSans-65" x="235.498047"/>
      <use xlink:href="#DejaVuSans-3a" x="297.021484"/>
      <use xlink:href="#DejaVuSans-30" x="330.712891"/>
      <use xlink:href="#DejaVuSans-2e" x="394.335938"/>
      <use xlink:href="#DejaVuSans-31" x="426.123047"/>
      <use xlink:href="#DejaVuSans-33" x="489.746094"/>
      <use xlink:href="#DejaVuSans-31" x="553.369141"/>
      <use xlink:href="#DejaVuSans-31" x="616.992188"/>
     </g>
    </g>
    <g id="line2d_128">
     <path d="M 189 387.072869 
L 199 387.072869 
L 209 387.072869 
" style="fill: none; stroke-dasharray: 5.55,2.4; stroke-dashoffset: 0; stroke: #ff7f0e; stroke-width: 1.5"/>
    </g>
    <g id="text_68">
     <!-- NEL_BTUX e:0.1364 -->
     <g transform="translate(217 390.572869)scale(0.1 -0.1)">
      <use xlink:href="#DejaVuSans-4e"/>
      <use xlink:href="#DejaVuSans-45" x="74.804688"/>
      <use xlink:href="#DejaVuSans-4c" x="137.988281"/>
      <use xlink:href="#DejaVuSans-5f" x="193.701172"/>
      <use xlink:href="#DejaVuSans-42" x="243.701172"/>
      <use xlink:href="#DejaVuSans-54" x="312.304688"/>
      <use xlink:href="#DejaVuSans-55" x="373.388672"/>
      <use xlink:href="#DejaVuSans-58" x="446.582031"/>
      <use xlink:href="#DejaVuSans-20" x="515.087891"/>
      <use xlink:href="#DejaVuSans-65" x="546.875"/>
      <use xlink:href="#DejaVuSans-3a" x="608.398438"/>
      <use xlink:href="#DejaVuSans-30" x="642.089844"/>
      <use xlink:href="#DejaVuSans-2e" x="705.712891"/>
      <use xlink:href="#DejaVuSans-31" x="737.5"/>
      <use xlink:href="#DejaVuSans-33" x="801.123047"/>
      <use xlink:href="#DejaVuSans-36" x="864.746094"/>
      <use xlink:href="#DejaVuSans-34" x="928.369141"/>
     </g>
    </g>
   </g>
  </g>
  <g id="axes_5"/>
  <g id="axes_6"/>
  <g id="text_69">
   <!-- ID: 6097, Max level: 90dB -->
   <g transform="translate(655.440625 20.558438)scale(0.1 -0.1)">
    <defs>
     <path id="DejaVuSans-49" d="M 628 4666 
L 1259 4666 
L 1259 0 
L 628 0 
L 628 4666 
z
" transform="scale(0.015625)"/>
     <path id="DejaVuSans-39" d="M 703 97 
L 703 672 
Q 941 559 1184 500 
Q 1428 441 1663 441 
Q 2288 441 2617 861 
Q 2947 1281 2994 2138 
Q 2813 1869 2534 1725 
Q 2256 1581 1919 1581 
Q 1219 1581 811 2004 
Q 403 2428 403 3163 
Q 403 3881 828 4315 
Q 1253 4750 1959 4750 
Q 2769 4750 3195 4129 
Q 3622 3509 3622 2328 
Q 3622 1225 3098 567 
Q 2575 -91 1691 -91 
Q 1453 -91 1209 -44 
Q 966 3 703 97 
z
M 1959 2075 
Q 2384 2075 2632 2365 
Q 2881 2656 2881 3163 
Q 2881 3666 2632 3958 
Q 2384 4250 1959 4250 
Q 1534 4250 1286 3958 
Q 1038 3666 1038 3163 
Q 1038 2656 1286 2365 
Q 1534 2075 1959 2075 
z
" transform="scale(0.015625)"/>
     <path id="DejaVuSans-2c" d="M 750 794 
L 1409 794 
L 1409 256 
L 897 -744 
L 494 -744 
L 750 256 
L 750 794 
z
" transform="scale(0.015625)"/>
     <path id="DejaVuSans-4d" d="M 628 4666 
L 1569 4666 
L 2759 1491 
L 3956 4666 
L 4897 4666 
L 4897 0 
L 4281 0 
L 4281 4097 
L 3078 897 
L 2444 897 
L 1241 4097 
L 1241 0 
L 628 0 
L 628 4666 
z
" transform="scale(0.015625)"/>
     <path id="DejaVuSans-78" d="M 3513 3500 
L 2247 1797 
L 3578 0 
L 2900 0 
L 1881 1375 
L 863 0 
L 184 0 
L 1544 1831 
L 300 3500 
L 978 3500 
L 1906 2253 
L 2834 3500 
L 3513 3500 
z
" transform="scale(0.015625)"/>
     <path id="DejaVuSans-76" d="M 191 3500 
L 800 3500 
L 1894 563 
L 2988 3500 
L 3597 3500 
L 2284 0 
L 1503 0 
L 191 3500 
z
" transform="scale(0.015625)"/>
     <path id="DejaVuSans-64" d="M 2906 2969 
L 2906 4863 
L 3481 4863 
L 3481 0 
L 2906 0 
L 2906 525 
Q 2725 213 2448 61 
Q 2172 -91 1784 -91 
Q 1150 -91 751 415 
Q 353 922 353 1747 
Q 353 2572 751 3078 
Q 1150 3584 1784 3584 
Q 2172 3584 2448 3432 
Q 2725 3281 2906 2969 
z
M 947 1747 
Q 947 1113 1208 752 
Q 1469 391 1925 391 
Q 2381 391 2643 752 
Q 2906 1113 2906 1747 
Q 2906 2381 2643 2742 
Q 2381 3103 1925 3103 
Q 1469 3103 1208 2742 
Q 947 2381 947 1747 
z
" transform="scale(0.015625)"/>
    </defs>
    <use xlink:href="#DejaVuSans-49"/>
    <use xlink:href="#DejaVuSans-44" x="29.492188"/>
    <use xlink:href="#DejaVuSans-3a" x="106.494141"/>
    <use xlink:href="#DejaVuSans-20" x="140.185547"/>
    <use xlink:href="#DejaVuSans-36" x="171.972656"/>
    <use xlink:href="#DejaVuSans-30" x="235.595703"/>
    <use xlink:href="#DejaVuSans-39" x="299.21875"/>
    <use xlink:href="#DejaVuSans-37" x="362.841797"/>
    <use xlink:href="#DejaVuSans-2c" x="426.464844"/>
    <use xlink:href="#DejaVuSans-20" x="458.251953"/>
    <use xlink:href="#DejaVuSans-4d" x="490.039062"/>
    <use xlink:href="#DejaVuSans-61" x="576.318359"/>
    <use xlink:href="#DejaVuSans-78" x="637.597656"/>
    <use xlink:href="#DejaVuSans-20" x="696.777344"/>
    <use xlink:href="#DejaVuSans-6c" x="728.564453"/>
    <use xlink:href="#DejaVuSans-65" x="756.347656"/>
    <use xlink:href="#DejaVuSans-76" x="817.871094"/>
    <use xlink:href="#DejaVuSans-65" x="877.050781"/>
    <use xlink:href="#DejaVuSans-6c" x="938.574219"/>
    <use xlink:href="#DejaVuSans-3a" x="966.357422"/>
    <use xlink:href="#DejaVuSans-20" x="1000.048828"/>
    <use xlink:href="#DejaVuSans-39" x="1031.835938"/>
    <use xlink:href="#DejaVuSans-30" x="1095.458984"/>
    <use xlink:href="#DejaVuSans-64" x="1159.082031"/>
    <use xlink:href="#DejaVuSans-42" x="1222.558594"/>
   </g>
  </g>
 </g>
 <defs>
  <clipPath id="pe14e4676dc">
   <rect x="180" y="77.76" width="328.235294" height="222.381818"/>
  </clipPath>
  <clipPath id="p046dd57b5f">
   <rect x="573.882353" y="77.76" width="328.235294" height="222.381818"/>
  </clipPath>
  <clipPath id="p2497bdba22">
   <rect x="967.764706" y="77.76" width="328.235294" height="222.381818"/>
  </clipPath>
  <clipPath id="p8432932d87">
   <rect x="180" y="344.618182" width="328.235294" height="222.381818"/>
  </clipPath>
 </defs>
</svg>
