<?xml version="1.0" encoding="utf-8" standalone="no"?>
<!DOCTYPE svg PUBLIC "-//W3C//DTD SVG 1.1//EN"
  "http://www.w3.org/Graphics/SVG/1.1/DTD/svg11.dtd">
<svg xmlns:xlink="http://www.w3.org/1999/xlink" width="1440pt" height="324pt" viewBox="0 0 1440 324" xmlns="http://www.w3.org/2000/svg" version="1.1">
 <metadata>
  <rdf:RDF xmlns:dc="http://purl.org/dc/elements/1.1/" xmlns:cc="http://creativecommons.org/ns#" xmlns:rdf="http://www.w3.org/1999/02/22-rdf-syntax-ns#">
   <cc:Work>
    <dc:type rdf:resource="http://purl.org/dc/dcmitype/StillImage"/>
    <dc:date>2024-06-10T15:34:41.734372</dc:date>
    <dc:format>image/svg+xml</dc:format>
    <dc:creator>
     <cc:Agent>
      <dc:title>Matplotlib v3.8.0, https://matplotlib.org/</dc:title>
     </cc:Agent>
    </dc:creator>
   </cc:Work>
  </rdf:RDF>
 </metadata>
 <defs>
  <style type="text/css">*{stroke-linejoin: round; stroke-linecap: butt}</style>
 </defs>
 <g id="figure_1">
  <g id="patch_1">
   <path d="M 0 324 
L 1440 324 
L 1440 0 
L 0 0 
z
" style="fill: #ffffff"/>
  </g>
  <g id="axes_1">
   <g id="patch_2">
    <path d="M 180 288.36 
L 508.235294 288.36 
L 508.235294 38.88 
L 180 38.88 
z
" style="fill: #ffffff"/>
   </g>
   <g id="PathCollection_1">
    <defs>
     <path id="mceb6b4b600" d="M 0 3 
C 0.795609 3 1.55874 2.683901 2.12132 2.12132 
C 2.683901 1.55874 3 0.795609 3 0 
C 3 -0.795609 2.683901 -1.55874 2.12132 -2.12132 
C 1.55874 -2.683901 0.795609 -3 0 -3 
C -0.795609 -3 -1.55874 -2.683901 -2.12132 -2.12132 
C -2.683901 -1.55874 -3 -0.795609 -3 0 
C -3 0.795609 -2.683901 1.55874 -2.12132 2.12132 
C -1.55874 2.683901 -0.795609 3 0 3 
z
" style="stroke: #000000"/>
    </defs>
    <g clip-path="url(#p2e4cbf3bd6)">
     <use xlink:href="#mceb6b4b600" x="390.024681" y="186.72" style="stroke: #000000"/>
     <use xlink:href="#mceb6b4b600" x="355.594406" y="186.72" style="stroke: #000000"/>
     <use xlink:href="#mceb6b4b600" x="321.16413" y="209.82" style="stroke: #000000"/>
     <use xlink:href="#mceb6b4b600" x="286.733854" y="232.92" style="stroke: #000000"/>
     <use xlink:href="#mceb6b4b600" x="252.303579" y="279.12" style="stroke: #000000"/>
     <use xlink:href="#mceb6b4b600" x="263.780337" y="256.02" style="stroke: #000000"/>
     <use xlink:href="#mceb6b4b600" x="332.64525" y="209.82" style="stroke: #000000"/>
     <use xlink:href="#mceb6b4b600" x="401.50144" y="186.72" style="stroke: #000000"/>
     <use xlink:href="#mceb6b4b600" x="298.21704" y="209.82" style="stroke: #000000"/>
     <use xlink:href="#mceb6b4b600" x="263.78883" y="256.02" style="stroke: #000000"/>
     <use xlink:href="#mceb6b4b600" x="367.073689" y="163.62" style="stroke: #000000"/>
     <use xlink:href="#mceb6b4b600" x="285.290078" y="232.92" style="stroke: #000000"/>
     <use xlink:href="#mceb6b4b600" x="324.026893" y="186.72" style="stroke: #000000"/>
     <use xlink:href="#mceb6b4b600" x="401.50144" y="140.52" style="stroke: #000000"/>
     <use xlink:href="#mceb6b4b600" x="246.553034" y="279.12" style="stroke: #000000"/>
     <use xlink:href="#mceb6b4b600" x="362.763937" y="186.72" style="stroke: #000000"/>
    </g>
   </g>
   <g id="matplotlib.axis_1">
    <g id="xtick_1">
     <g id="line2d_1">
      <path d="M 217.873303 288.36 
L 217.873303 38.88 
" clip-path="url(#p2e4cbf3bd6)" style="fill: none; stroke: #b0b0b0; stroke-width: 0.8; stroke-linecap: square"/>
     </g>
     <g id="line2d_2">
      <defs>
       <path id="mbd02196dd4" d="M 0 0 
L 0 3.5 
" style="stroke: #000000; stroke-width: 0.8"/>
      </defs>
      <g>
       <use xlink:href="#mbd02196dd4" x="217.873303" y="288.36" style="stroke: #000000; stroke-width: 0.8"/>
      </g>
     </g>
     <g id="text_1">
      <!-- 0 -->
      <g transform="translate(214.692053 302.958438) scale(0.1 -0.1)">
       <defs>
        <path id="DejaVuSans-30" d="M 2034 4250 
Q 1547 4250 1301 3770 
Q 1056 3291 1056 2328 
Q 1056 1369 1301 889 
Q 1547 409 2034 409 
Q 2525 409 2770 889 
Q 3016 1369 3016 2328 
Q 3016 3291 2770 3770 
Q 2525 4250 2034 4250 
z
M 2034 4750 
Q 2819 4750 3233 4129 
Q 3647 3509 3647 2328 
Q 3647 1150 3233 529 
Q 2819 -91 2034 -91 
Q 1250 -91 836 529 
Q 422 1150 422 2328 
Q 422 3509 836 4129 
Q 1250 4750 2034 4750 
z
" transform="scale(0.015625)"/>
       </defs>
       <use xlink:href="#DejaVuSans-30"/>
      </g>
     </g>
    </g>
    <g id="xtick_2">
     <g id="line2d_3">
      <path d="M 263.780337 288.36 
L 263.780337 38.88 
" clip-path="url(#p2e4cbf3bd6)" style="fill: none; stroke: #b0b0b0; stroke-width: 0.8; stroke-linecap: square"/>
     </g>
     <g id="line2d_4">
      <g>
       <use xlink:href="#mbd02196dd4" x="263.780337" y="288.36" style="stroke: #000000; stroke-width: 0.8"/>
      </g>
     </g>
     <g id="text_2">
      <!-- 20 -->
      <g transform="translate(257.417837 302.958438) scale(0.1 -0.1)">
       <defs>
        <path id="DejaVuSans-32" d="M 1228 531 
L 3431 531 
L 3431 0 
L 469 0 
L 469 531 
Q 828 903 1448 1529 
Q 2069 2156 2228 2338 
Q 2531 2678 2651 2914 
Q 2772 3150 2772 3378 
Q 2772 3750 2511 3984 
Q 2250 4219 1831 4219 
Q 1534 4219 1204 4116 
Q 875 4013 500 3803 
L 500 4441 
Q 881 4594 1212 4672 
Q 1544 4750 1819 4750 
Q 2544 4750 2975 4387 
Q 3406 4025 3406 3419 
Q 3406 3131 3298 2873 
Q 3191 2616 2906 2266 
Q 2828 2175 2409 1742 
Q 1991 1309 1228 531 
z
" transform="scale(0.015625)"/>
       </defs>
       <use xlink:href="#DejaVuSans-32"/>
       <use xlink:href="#DejaVuSans-30" x="63.623047"/>
      </g>
     </g>
    </g>
    <g id="xtick_3">
     <g id="line2d_5">
      <path d="M 309.687371 288.36 
L 309.687371 38.88 
" clip-path="url(#p2e4cbf3bd6)" style="fill: none; stroke: #b0b0b0; stroke-width: 0.8; stroke-linecap: square"/>
     </g>
     <g id="line2d_6">
      <g>
       <use xlink:href="#mbd02196dd4" x="309.687371" y="288.36" style="stroke: #000000; stroke-width: 0.8"/>
      </g>
     </g>
     <g id="text_3">
      <!-- 40 -->
      <g transform="translate(303.324871 302.958438) scale(0.1 -0.1)">
       <defs>
        <path id="DejaVuSans-34" d="M 2419 4116 
L 825 1625 
L 2419 1625 
L 2419 4116 
z
M 2253 4666 
L 3047 4666 
L 3047 1625 
L 3713 1625 
L 3713 1100 
L 3047 1100 
L 3047 0 
L 2419 0 
L 2419 1100 
L 313 1100 
L 313 1709 
L 2253 4666 
z
" transform="scale(0.015625)"/>
       </defs>
       <use xlink:href="#DejaVuSans-34"/>
       <use xlink:href="#DejaVuSans-30" x="63.623047"/>
      </g>
     </g>
    </g>
    <g id="xtick_4">
     <g id="line2d_7">
      <path d="M 355.594406 288.36 
L 355.594406 38.88 
" clip-path="url(#p2e4cbf3bd6)" style="fill: none; stroke: #b0b0b0; stroke-width: 0.8; stroke-linecap: square"/>
     </g>
     <g id="line2d_8">
      <g>
       <use xlink:href="#mbd02196dd4" x="355.594406" y="288.36" style="stroke: #000000; stroke-width: 0.8"/>
      </g>
     </g>
     <g id="text_4">
      <!-- 60 -->
      <g transform="translate(349.231906 302.958438) scale(0.1 -0.1)">
       <defs>
        <path id="DejaVuSans-36" d="M 2113 2584 
Q 1688 2584 1439 2293 
Q 1191 2003 1191 1497 
Q 1191 994 1439 701 
Q 1688 409 2113 409 
Q 2538 409 2786 701 
Q 3034 994 3034 1497 
Q 3034 2003 2786 2293 
Q 2538 2584 2113 2584 
z
M 3366 4563 
L 3366 3988 
Q 3128 4100 2886 4159 
Q 2644 4219 2406 4219 
Q 1781 4219 1451 3797 
Q 1122 3375 1075 2522 
Q 1259 2794 1537 2939 
Q 1816 3084 2150 3084 
Q 2853 3084 3261 2657 
Q 3669 2231 3669 1497 
Q 3669 778 3244 343 
Q 2819 -91 2113 -91 
Q 1303 -91 875 529 
Q 447 1150 447 2328 
Q 447 3434 972 4092 
Q 1497 4750 2381 4750 
Q 2619 4750 2861 4703 
Q 3103 4656 3366 4563 
z
" transform="scale(0.015625)"/>
       </defs>
       <use xlink:href="#DejaVuSans-36"/>
       <use xlink:href="#DejaVuSans-30" x="63.623047"/>
      </g>
     </g>
    </g>
    <g id="xtick_5">
     <g id="line2d_9">
      <path d="M 401.50144 288.36 
L 401.50144 38.88 
" clip-path="url(#p2e4cbf3bd6)" style="fill: none; stroke: #b0b0b0; stroke-width: 0.8; stroke-linecap: square"/>
     </g>
     <g id="line2d_10">
      <g>
       <use xlink:href="#mbd02196dd4" x="401.50144" y="288.36" style="stroke: #000000; stroke-width: 0.8"/>
      </g>
     </g>
     <g id="text_5">
      <!-- 80 -->
      <g transform="translate(395.13894 302.958438) scale(0.1 -0.1)">
       <defs>
        <path id="DejaVuSans-38" d="M 2034 2216 
Q 1584 2216 1326 1975 
Q 1069 1734 1069 1313 
Q 1069 891 1326 650 
Q 1584 409 2034 409 
Q 2484 409 2743 651 
Q 3003 894 3003 1313 
Q 3003 1734 2745 1975 
Q 2488 2216 2034 2216 
z
M 1403 2484 
Q 997 2584 770 2862 
Q 544 3141 544 3541 
Q 544 4100 942 4425 
Q 1341 4750 2034 4750 
Q 2731 4750 3128 4425 
Q 3525 4100 3525 3541 
Q 3525 3141 3298 2862 
Q 3072 2584 2669 2484 
Q 3125 2378 3379 2068 
Q 3634 1759 3634 1313 
Q 3634 634 3220 271 
Q 2806 -91 2034 -91 
Q 1263 -91 848 271 
Q 434 634 434 1313 
Q 434 1759 690 2068 
Q 947 2378 1403 2484 
z
M 1172 3481 
Q 1172 3119 1398 2916 
Q 1625 2713 2034 2713 
Q 2441 2713 2670 2916 
Q 2900 3119 2900 3481 
Q 2900 3844 2670 4047 
Q 2441 4250 2034 4250 
Q 1625 4250 1398 4047 
Q 1172 3844 1172 3481 
z
" transform="scale(0.015625)"/>
       </defs>
       <use xlink:href="#DejaVuSans-38"/>
       <use xlink:href="#DejaVuSans-30" x="63.623047"/>
      </g>
     </g>
    </g>
    <g id="xtick_6">
     <g id="line2d_11">
      <path d="M 447.408474 288.36 
L 447.408474 38.88 
" clip-path="url(#p2e4cbf3bd6)" style="fill: none; stroke: #b0b0b0; stroke-width: 0.8; stroke-linecap: square"/>
     </g>
     <g id="line2d_12">
      <g>
       <use xlink:href="#mbd02196dd4" x="447.408474" y="288.36" style="stroke: #000000; stroke-width: 0.8"/>
      </g>
     </g>
     <g id="text_6">
      <!-- 100 -->
      <g transform="translate(437.864724 302.958438) scale(0.1 -0.1)">
       <defs>
        <path id="DejaVuSans-31" d="M 794 531 
L 1825 531 
L 1825 4091 
L 703 3866 
L 703 4441 
L 1819 4666 
L 2450 4666 
L 2450 531 
L 3481 531 
L 3481 0 
L 794 0 
L 794 531 
z
" transform="scale(0.015625)"/>
       </defs>
       <use xlink:href="#DejaVuSans-31"/>
       <use xlink:href="#DejaVuSans-30" x="63.623047"/>
       <use xlink:href="#DejaVuSans-30" x="127.246094"/>
      </g>
     </g>
    </g>
    <g id="xtick_7">
     <g id="line2d_13">
      <path d="M 493.315508 288.36 
L 493.315508 38.88 
" clip-path="url(#p2e4cbf3bd6)" style="fill: none; stroke: #b0b0b0; stroke-width: 0.8; stroke-linecap: square"/>
     </g>
     <g id="line2d_14">
      <g>
       <use xlink:href="#mbd02196dd4" x="493.315508" y="288.36" style="stroke: #000000; stroke-width: 0.8"/>
      </g>
     </g>
     <g id="text_7">
      <!-- 120 -->
      <g transform="translate(483.771758 302.958438) scale(0.1 -0.1)">
       <use xlink:href="#DejaVuSans-31"/>
       <use xlink:href="#DejaVuSans-32" x="63.623047"/>
       <use xlink:href="#DejaVuSans-30" x="127.246094"/>
      </g>
     </g>
    </g>
   </g>
   <g id="matplotlib.axis_2">
    <g id="ytick_1">
     <g id="line2d_15">
      <path d="M 180 279.12 
L 508.235294 279.12 
" clip-path="url(#p2e4cbf3bd6)" style="fill: none; stroke: #b0b0b0; stroke-width: 0.8; stroke-linecap: square"/>
     </g>
     <g id="line2d_16">
      <defs>
       <path id="md7c4a304f4" d="M 0 0 
L -3.5 0 
" style="stroke: #000000; stroke-width: 0.8"/>
      </defs>
      <g>
       <use xlink:href="#md7c4a304f4" x="180" y="279.12" style="stroke: #000000; stroke-width: 0.8"/>
      </g>
     </g>
     <g id="text_8">
      <!-- 0 -->
      <g transform="translate(166.6375 282.919219) scale(0.1 -0.1)">
       <use xlink:href="#DejaVuSans-30"/>
      </g>
     </g>
    </g>
    <g id="ytick_2">
     <g id="line2d_17">
      <path d="M 180 232.92 
L 508.235294 232.92 
" clip-path="url(#p2e4cbf3bd6)" style="fill: none; stroke: #b0b0b0; stroke-width: 0.8; stroke-linecap: square"/>
     </g>
     <g id="line2d_18">
      <g>
       <use xlink:href="#md7c4a304f4" x="180" y="232.92" style="stroke: #000000; stroke-width: 0.8"/>
      </g>
     </g>
     <g id="text_9">
      <!-- 10 -->
      <g transform="translate(160.275 236.719219) scale(0.1 -0.1)">
       <use xlink:href="#DejaVuSans-31"/>
       <use xlink:href="#DejaVuSans-30" x="63.623047"/>
      </g>
     </g>
    </g>
    <g id="ytick_3">
     <g id="line2d_19">
      <path d="M 180 186.72 
L 508.235294 186.72 
" clip-path="url(#p2e4cbf3bd6)" style="fill: none; stroke: #b0b0b0; stroke-width: 0.8; stroke-linecap: square"/>
     </g>
     <g id="line2d_20">
      <g>
       <use xlink:href="#md7c4a304f4" x="180" y="186.72" style="stroke: #000000; stroke-width: 0.8"/>
      </g>
     </g>
     <g id="text_10">
      <!-- 20 -->
      <g transform="translate(160.275 190.519219) scale(0.1 -0.1)">
       <use xlink:href="#DejaVuSans-32"/>
       <use xlink:href="#DejaVuSans-30" x="63.623047"/>
      </g>
     </g>
    </g>
    <g id="ytick_4">
     <g id="line2d_21">
      <path d="M 180 140.52 
L 508.235294 140.52 
" clip-path="url(#p2e4cbf3bd6)" style="fill: none; stroke: #b0b0b0; stroke-width: 0.8; stroke-linecap: square"/>
     </g>
     <g id="line2d_22">
      <g>
       <use xlink:href="#md7c4a304f4" x="180" y="140.52" style="stroke: #000000; stroke-width: 0.8"/>
      </g>
     </g>
     <g id="text_11">
      <!-- 30 -->
      <g transform="translate(160.275 144.319219) scale(0.1 -0.1)">
       <defs>
        <path id="DejaVuSans-33" d="M 2597 2516 
Q 3050 2419 3304 2112 
Q 3559 1806 3559 1356 
Q 3559 666 3084 287 
Q 2609 -91 1734 -91 
Q 1441 -91 1130 -33 
Q 819 25 488 141 
L 488 750 
Q 750 597 1062 519 
Q 1375 441 1716 441 
Q 2309 441 2620 675 
Q 2931 909 2931 1356 
Q 2931 1769 2642 2001 
Q 2353 2234 1838 2234 
L 1294 2234 
L 1294 2753 
L 1863 2753 
Q 2328 2753 2575 2939 
Q 2822 3125 2822 3475 
Q 2822 3834 2567 4026 
Q 2313 4219 1838 4219 
Q 1578 4219 1281 4162 
Q 984 4106 628 3988 
L 628 4550 
Q 988 4650 1302 4700 
Q 1616 4750 1894 4750 
Q 2613 4750 3031 4423 
Q 3450 4097 3450 3541 
Q 3450 3153 3228 2886 
Q 3006 2619 2597 2516 
z
" transform="scale(0.015625)"/>
       </defs>
       <use xlink:href="#DejaVuSans-33"/>
       <use xlink:href="#DejaVuSans-30" x="63.623047"/>
      </g>
     </g>
    </g>
    <g id="ytick_5">
     <g id="line2d_23">
      <path d="M 180 94.32 
L 508.235294 94.32 
" clip-path="url(#p2e4cbf3bd6)" style="fill: none; stroke: #b0b0b0; stroke-width: 0.8; stroke-linecap: square"/>
     </g>
     <g id="line2d_24">
      <g>
       <use xlink:href="#md7c4a304f4" x="180" y="94.32" style="stroke: #000000; stroke-width: 0.8"/>
      </g>
     </g>
     <g id="text_12">
      <!-- 40 -->
      <g transform="translate(160.275 98.119219) scale(0.1 -0.1)">
       <use xlink:href="#DejaVuSans-34"/>
       <use xlink:href="#DejaVuSans-30" x="63.623047"/>
      </g>
     </g>
    </g>
    <g id="ytick_6">
     <g id="line2d_25">
      <path d="M 180 48.12 
L 508.235294 48.12 
" clip-path="url(#p2e4cbf3bd6)" style="fill: none; stroke: #b0b0b0; stroke-width: 0.8; stroke-linecap: square"/>
     </g>
     <g id="line2d_26">
      <g>
       <use xlink:href="#md7c4a304f4" x="180" y="48.12" style="stroke: #000000; stroke-width: 0.8"/>
      </g>
     </g>
     <g id="text_13">
      <!-- 50 -->
      <g transform="translate(160.275 51.919219) scale(0.1 -0.1)">
       <defs>
        <path id="DejaVuSans-35" d="M 691 4666 
L 3169 4666 
L 3169 4134 
L 1269 4134 
L 1269 2991 
Q 1406 3038 1543 3061 
Q 1681 3084 1819 3084 
Q 2600 3084 3056 2656 
Q 3513 2228 3513 1497 
Q 3513 744 3044 326 
Q 2575 -91 1722 -91 
Q 1428 -91 1123 -41 
Q 819 9 494 109 
L 494 744 
Q 775 591 1075 516 
Q 1375 441 1709 441 
Q 2250 441 2565 725 
Q 2881 1009 2881 1497 
Q 2881 1984 2565 2268 
Q 2250 2553 1709 2553 
Q 1456 2553 1204 2497 
Q 953 2441 691 2322 
L 691 4666 
z
" transform="scale(0.015625)"/>
       </defs>
       <use xlink:href="#DejaVuSans-35"/>
       <use xlink:href="#DejaVuSans-30" x="63.623047"/>
      </g>
     </g>
    </g>
   </g>
   <g id="line2d_27">
    <path d="M 194.919786 163.62 
L 493.315508 163.62 
" clip-path="url(#p2e4cbf3bd6)" style="fill: none; stroke-dasharray: 1.5,2.475; stroke-dashoffset: 0; stroke: #808080; stroke-width: 1.5"/>
   </g>
   <g id="line2d_28">
    <path d="M 401.50144 325 
L 401.50144 -1 
" clip-path="url(#p2e4cbf3bd6)" style="fill: none; stroke-dasharray: 5.55,2.4; stroke-dashoffset: 0; stroke: #ff0000; stroke-opacity: 0.3; stroke-width: 1.5"/>
   </g>
   <g id="line2d_29">
    <path d="M 218.134916 279.12 
L 220.45081 277.714049 
L 222.766704 276.308098 
L 225.082598 274.902148 
L 227.398492 273.496197 
L 229.714386 272.090246 
L 232.03028 270.684295 
L 234.346174 269.278344 
L 236.662068 267.872394 
L 238.977962 266.466443 
L 241.293856 265.060492 
L 243.60975 263.654541 
L 245.925644 262.248591 
L 248.241538 260.84264 
L 250.557432 259.436689 
L 252.873326 258.030738 
L 255.189221 256.624787 
L 257.505115 255.218837 
L 259.821009 253.812886 
L 262.136903 252.406935 
L 264.452797 251.000984 
L 266.768691 249.595033 
L 269.084585 248.189083 
L 271.400479 246.783132 
L 273.716373 245.377181 
L 276.032267 243.97123 
L 278.348161 242.56528 
L 280.664055 241.159329 
L 282.979949 239.753378 
L 285.295843 238.347427 
L 287.611737 236.941476 
L 289.927631 235.535526 
L 292.243525 234.129575 
L 294.559419 232.723624 
L 296.875314 231.317673 
L 299.191208 229.911722 
L 301.507102 228.505772 
L 303.822996 227.099821 
L 306.13889 225.69387 
L 308.454784 224.287919 
L 310.770678 222.881969 
L 313.086572 221.476018 
L 315.402466 220.070067 
L 317.71836 218.664116 
L 320.034254 217.258165 
L 322.350148 215.852215 
L 324.666042 214.446264 
L 326.981936 213.040313 
L 329.29783 211.634362 
L 331.613724 210.228411 
L 333.929618 208.818143 
L 336.245512 207.391134 
L 338.561407 205.946004 
L 340.877301 204.482045 
L 343.193195 202.998501 
L 345.509089 201.494564 
L 347.824983 199.96937 
L 350.140877 198.42199 
L 352.456771 196.851428 
L 354.772665 195.256609 
L 357.088559 193.636373 
L 359.404453 191.989466 
L 361.720347 190.314524 
L 364.036241 188.610066 
L 366.352135 186.874473 
L 368.668029 185.105975 
L 370.983923 183.302625 
L 373.299817 181.46228 
L 375.615711 179.582562 
L 377.931605 177.660833 
L 380.247499 175.694142 
L 382.563394 173.679177 
L 384.879288 171.6122 
L 387.195182 169.488962 
L 389.511076 167.304601 
L 391.82697 165.053514 
L 394.142864 162.729186 
L 396.458758 160.323964 
L 398.774652 157.828765 
L 401.090546 155.232664 
L 403.40644 152.522332 
L 405.722334 149.681215 
L 408.038228 146.688328 
L 410.354122 143.516391 
L 412.670016 140.128815 
L 414.98591 136.474543 
L 417.301804 132.478487 
L 419.617698 128.02189 
L 421.933592 122.89547 
L 424.249487 116.669301 
L 426.565381 109.814371 
L 428.881275 102.959441 
L 431.197169 96.104511 
L 433.513063 89.249581 
L 435.828957 82.394651 
L 438.144851 75.53972 
L 440.460745 68.68479 
L 442.776639 61.82986 
L 445.092533 54.97493 
L 447.408427 48.12 
" clip-path="url(#p2e4cbf3bd6)" style="fill: none; stroke: #1f77b4; stroke-width: 1.5; stroke-linecap: square"/>
   </g>
   <g id="line2d_30">
    <path d="M 242.71778 279.12 
L 244.599941 277.659325 
L 246.482102 276.19865 
L 248.364263 274.737975 
L 250.246423 273.277301 
L 252.128584 271.816626 
L 254.010745 270.355951 
L 255.892906 268.895276 
L 257.775067 267.434601 
L 259.657227 265.973926 
L 261.539388 264.513251 
L 263.421549 263.052576 
L 265.30371 261.591902 
L 267.185871 260.131227 
L 269.068032 258.670552 
L 270.950192 257.209877 
L 272.832353 255.749202 
L 274.714514 254.288527 
L 276.596675 252.827852 
L 278.478836 251.367177 
L 280.360996 249.906503 
L 282.243157 248.445828 
L 284.125318 246.985153 
L 286.007479 245.524478 
L 287.88964 244.063803 
L 289.7718 242.603128 
L 291.653961 241.142453 
L 293.536122 239.681778 
L 295.418283 238.221104 
L 297.300444 236.760429 
L 299.182605 235.299754 
L 301.064765 233.839079 
L 302.946926 232.378404 
L 304.829087 230.917729 
L 306.711248 229.457054 
L 308.593409 227.996379 
L 310.475569 226.535705 
L 312.35773 225.07503 
L 314.239891 223.614355 
L 316.122052 222.15368 
L 318.004213 220.693005 
L 319.886373 219.23233 
L 321.768534 217.771655 
L 323.650695 216.31098 
L 325.532856 214.850306 
L 327.415017 213.389631 
L 329.297178 211.928956 
L 331.179338 210.468281 
L 333.061499 209.004917 
L 334.94366 207.525624 
L 336.825821 206.028057 
L 338.707982 204.511521 
L 340.590142 202.975276 
L 342.472303 201.418535 
L 344.354464 199.840453 
L 346.236625 198.240128 
L 348.118786 196.616592 
L 350.000946 194.968806 
L 351.883107 193.295648 
L 353.765268 191.59591 
L 355.647429 189.868283 
L 357.52959 188.111347 
L 359.411751 186.323558 
L 361.293911 184.503231 
L 363.176072 182.648523 
L 365.058233 180.757407 
L 366.940394 178.827653 
L 368.822555 176.85679 
L 370.704715 174.842074 
L 372.586876 172.78044 
L 374.469037 170.668449 
L 376.351198 168.50222 
L 378.233359 166.277347 
L 380.115519 163.988792 
L 381.99768 161.630752 
L 383.879841 159.196486 
L 385.762002 156.678086 
L 387.644163 154.066173 
L 389.526324 151.349486 
L 391.408484 148.514303 
L 393.290645 145.543619 
L 395.172806 142.41592 
L 397.054967 139.103319 
L 398.937128 135.568542 
L 400.819288 131.759804 
L 402.701449 127.601401 
L 404.58361 122.974617 
L 406.465771 117.672977 
L 408.347932 111.877837 
L 410.230092 106.08167 
L 412.112253 100.285503 
L 413.994414 94.489336 
L 415.876575 88.693169 
L 417.758736 82.897002 
L 419.640897 77.100835 
L 421.523057 71.304668 
L 423.405218 65.508501 
L 425.287379 59.712334 
L 427.16954 53.916167 
L 429.051701 48.12 
" clip-path="url(#p2e4cbf3bd6)" style="fill: none; stroke-dasharray: 5.55,2.4; stroke-dashoffset: 0; stroke: #ff7f0e; stroke-width: 1.5"/>
   </g>
   <g id="line2d_31">
    <path d="M 243.154685 279.12 
L 245.330592 277.380288 
L 247.506498 275.640577 
L 249.682405 273.900865 
L 251.858312 272.161154 
L 254.034218 270.421442 
L 256.210125 268.68173 
L 258.386032 266.942019 
L 260.561938 265.202307 
L 262.737845 263.462595 
L 264.913752 261.722884 
L 267.089658 259.983172 
L 269.265565 258.243461 
L 271.441472 256.503749 
L 273.617378 254.764037 
L 275.793285 253.024326 
L 277.969192 251.284614 
L 280.145098 249.544902 
L 282.321005 247.805191 
L 284.496912 246.065479 
L 286.672818 244.325768 
L 288.848725 242.586056 
L 291.024632 240.846344 
L 293.200538 239.106633 
L 295.376445 237.366921 
L 297.552352 235.62721 
L 299.728258 233.887498 
L 301.904165 232.147786 
L 304.080072 230.408075 
L 306.255978 228.668363 
L 308.431885 226.928651 
L 310.607792 225.18894 
L 312.783698 223.449228 
L 314.959605 221.709517 
L 317.135512 219.969805 
L 319.311418 218.230093 
L 321.487325 216.490382 
L 323.663232 214.75067 
L 325.839138 213.010959 
L 328.015045 211.271247 
L 330.190952 209.531306 
L 332.366858 207.780369 
L 334.542765 206.01219 
L 336.718672 204.226248 
L 338.894578 202.421997 
L 341.070485 200.598862 
L 343.246392 198.756237 
L 345.422298 196.893484 
L 347.598205 195.009928 
L 349.774112 193.104856 
L 351.950018 191.177514 
L 354.125925 189.227103 
L 356.301832 187.252772 
L 358.477738 185.25362 
L 360.653645 183.228686 
L 362.829552 181.176947 
L 365.005458 179.09731 
L 367.181365 176.988603 
L 369.357272 174.849573 
L 371.533178 172.678873 
L 373.709085 170.475052 
L 375.884992 168.236548 
L 378.060898 165.961669 
L 380.236805 163.648582 
L 382.412712 161.295295 
L 384.588618 158.899636 
L 386.764525 156.459229 
L 388.940432 153.97147 
L 391.116338 151.433491 
L 393.292245 148.842122 
L 395.468152 146.193844 
L 397.644058 143.484735 
L 399.819965 140.710399 
L 401.995872 137.865886 
L 404.171778 134.945584 
L 406.347685 131.943091 
L 408.523592 128.851052 
L 410.699498 125.660942 
L 412.875405 122.36279 
L 415.051312 118.944815 
L 417.227218 115.415955 
L 419.403125 111.874063 
L 421.579032 108.332171 
L 423.754938 104.790278 
L 425.930845 101.248386 
L 428.106752 97.706494 
L 430.282658 94.164601 
L 432.458565 90.622709 
L 434.634472 87.080816 
L 436.810378 83.538924 
L 438.986285 79.997032 
L 441.162192 76.455139 
L 443.338098 72.913247 
L 445.514005 69.371354 
L 447.689912 65.829462 
L 449.865818 62.28757 
L 452.041725 58.745677 
L 454.217632 55.203785 
L 456.393538 51.661892 
L 458.569445 48.12 
" clip-path="url(#p2e4cbf3bd6)" style="fill: none; stroke-dasharray: 5.55,2.4; stroke-dashoffset: 0; stroke: #2ca02c; stroke-width: 1.5"/>
   </g>
   <g id="patch_3">
    <path d="M 180 288.36 
L 180 38.88 
" style="fill: none; stroke: #000000; stroke-width: 0.8; stroke-linejoin: miter; stroke-linecap: square"/>
   </g>
   <g id="patch_4">
    <path d="M 508.235294 288.36 
L 508.235294 38.88 
" style="fill: none; stroke: #000000; stroke-width: 0.8; stroke-linejoin: miter; stroke-linecap: square"/>
   </g>
   <g id="patch_5">
    <path d="M 180 288.36 
L 508.235294 288.36 
" style="fill: none; stroke: #000000; stroke-width: 0.8; stroke-linejoin: miter; stroke-linecap: square"/>
   </g>
   <g id="patch_6">
    <path d="M 180 38.88 
L 508.235294 38.88 
" style="fill: none; stroke: #000000; stroke-width: 0.8; stroke-linejoin: miter; stroke-linecap: square"/>
   </g>
   <g id="text_14">
    <!--  Block: 0 -->
    <g transform="translate(318.237022 32.88) scale(0.12 -0.12)">
     <defs>
      <path id="DejaVuSans-20" transform="scale(0.015625)"/>
      <path id="DejaVuSans-42" d="M 1259 2228 
L 1259 519 
L 2272 519 
Q 2781 519 3026 730 
Q 3272 941 3272 1375 
Q 3272 1813 3026 2020 
Q 2781 2228 2272 2228 
L 1259 2228 
z
M 1259 4147 
L 1259 2741 
L 2194 2741 
Q 2656 2741 2882 2914 
Q 3109 3088 3109 3444 
Q 3109 3797 2882 3972 
Q 2656 4147 2194 4147 
L 1259 4147 
z
M 628 4666 
L 2241 4666 
Q 2963 4666 3353 4366 
Q 3744 4066 3744 3513 
Q 3744 3084 3544 2831 
Q 3344 2578 2956 2516 
Q 3422 2416 3680 2098 
Q 3938 1781 3938 1306 
Q 3938 681 3513 340 
Q 3088 0 2303 0 
L 628 0 
L 628 4666 
z
" transform="scale(0.015625)"/>
      <path id="DejaVuSans-6c" d="M 603 4863 
L 1178 4863 
L 1178 0 
L 603 0 
L 603 4863 
z
" transform="scale(0.015625)"/>
      <path id="DejaVuSans-6f" d="M 1959 3097 
Q 1497 3097 1228 2736 
Q 959 2375 959 1747 
Q 959 1119 1226 758 
Q 1494 397 1959 397 
Q 2419 397 2687 759 
Q 2956 1122 2956 1747 
Q 2956 2369 2687 2733 
Q 2419 3097 1959 3097 
z
M 1959 3584 
Q 2709 3584 3137 3096 
Q 3566 2609 3566 1747 
Q 3566 888 3137 398 
Q 2709 -91 1959 -91 
Q 1206 -91 779 398 
Q 353 888 353 1747 
Q 353 2609 779 3096 
Q 1206 3584 1959 3584 
z
" transform="scale(0.015625)"/>
      <path id="DejaVuSans-63" d="M 3122 3366 
L 3122 2828 
Q 2878 2963 2633 3030 
Q 2388 3097 2138 3097 
Q 1578 3097 1268 2742 
Q 959 2388 959 1747 
Q 959 1106 1268 751 
Q 1578 397 2138 397 
Q 2388 397 2633 464 
Q 2878 531 3122 666 
L 3122 134 
Q 2881 22 2623 -34 
Q 2366 -91 2075 -91 
Q 1284 -91 818 406 
Q 353 903 353 1747 
Q 353 2603 823 3093 
Q 1294 3584 2113 3584 
Q 2378 3584 2631 3529 
Q 2884 3475 3122 3366 
z
" transform="scale(0.015625)"/>
      <path id="DejaVuSans-6b" d="M 581 4863 
L 1159 4863 
L 1159 1991 
L 2875 3500 
L 3609 3500 
L 1753 1863 
L 3688 0 
L 2938 0 
L 1159 1709 
L 1159 0 
L 581 0 
L 581 4863 
z
" transform="scale(0.015625)"/>
      <path id="DejaVuSans-3a" d="M 750 794 
L 1409 794 
L 1409 0 
L 750 0 
L 750 794 
z
M 750 3309 
L 1409 3309 
L 1409 2516 
L 750 2516 
L 750 3309 
z
" transform="scale(0.015625)"/>
     </defs>
     <use xlink:href="#DejaVuSans-20"/>
     <use xlink:href="#DejaVuSans-42" x="31.787109"/>
     <use xlink:href="#DejaVuSans-6c" x="100.390625"/>
     <use xlink:href="#DejaVuSans-6f" x="128.173828"/>
     <use xlink:href="#DejaVuSans-63" x="189.355469"/>
     <use xlink:href="#DejaVuSans-6b" x="244.335938"/>
     <use xlink:href="#DejaVuSans-3a" x="302.246094"/>
     <use xlink:href="#DejaVuSans-20" x="335.9375"/>
     <use xlink:href="#DejaVuSans-30" x="367.724609"/>
    </g>
   </g>
   <g id="legend_1">
    <g id="patch_7">
     <path d="M 187 106.14875 
L 318.2 106.14875 
Q 320.2 106.14875 320.2 104.14875 
L 320.2 45.88 
Q 320.2 43.88 318.2 43.88 
L 187 43.88 
Q 185 43.88 185 45.88 
L 185 104.14875 
Q 185 106.14875 187 106.14875 
z
" style="fill: #ffffff; opacity: 0.8; stroke: #cccccc; stroke-linejoin: miter"/>
    </g>
    <g id="PathCollection_2">
     <g>
      <use xlink:href="#mceb6b4b600" x="199" y="52.853438" style="stroke: #000000"/>
     </g>
    </g>
    <g id="text_15">
     <!-- Data -->
     <g transform="translate(217 55.478438) scale(0.1 -0.1)">
      <defs>
       <path id="DejaVuSans-44" d="M 1259 4147 
L 1259 519 
L 2022 519 
Q 2988 519 3436 956 
Q 3884 1394 3884 2338 
Q 3884 3275 3436 3711 
Q 2988 4147 2022 4147 
L 1259 4147 
z
M 628 4666 
L 1925 4666 
Q 3281 4666 3915 4102 
Q 4550 3538 4550 2338 
Q 4550 1131 3912 565 
Q 3275 0 1925 0 
L 628 0 
L 628 4666 
z
" transform="scale(0.015625)"/>
       <path id="DejaVuSans-61" d="M 2194 1759 
Q 1497 1759 1228 1600 
Q 959 1441 959 1056 
Q 959 750 1161 570 
Q 1363 391 1709 391 
Q 2188 391 2477 730 
Q 2766 1069 2766 1631 
L 2766 1759 
L 2194 1759 
z
M 3341 1997 
L 3341 0 
L 2766 0 
L 2766 531 
Q 2569 213 2275 61 
Q 1981 -91 1556 -91 
Q 1019 -91 701 211 
Q 384 513 384 1019 
Q 384 1609 779 1909 
Q 1175 2209 1959 2209 
L 2766 2209 
L 2766 2266 
Q 2766 2663 2505 2880 
Q 2244 3097 1772 3097 
Q 1472 3097 1187 3025 
Q 903 2953 641 2809 
L 641 3341 
Q 956 3463 1253 3523 
Q 1550 3584 1831 3584 
Q 2591 3584 2966 3190 
Q 3341 2797 3341 1997 
z
" transform="scale(0.015625)"/>
       <path id="DejaVuSans-74" d="M 1172 4494 
L 1172 3500 
L 2356 3500 
L 2356 3053 
L 1172 3053 
L 1172 1153 
Q 1172 725 1289 603 
Q 1406 481 1766 481 
L 2356 481 
L 2356 0 
L 1766 0 
Q 1100 0 847 248 
Q 594 497 594 1153 
L 594 3053 
L 172 3053 
L 172 3500 
L 594 3500 
L 594 4494 
L 1172 4494 
z
" transform="scale(0.015625)"/>
      </defs>
      <use xlink:href="#DejaVuSans-44"/>
      <use xlink:href="#DejaVuSans-61" x="77.001953"/>
      <use xlink:href="#DejaVuSans-74" x="138.28125"/>
      <use xlink:href="#DejaVuSans-61" x="177.490234"/>
     </g>
    </g>
    <g id="line2d_32">
     <path d="M 189 66.656563 
L 199 66.656563 
L 209 66.656563 
" style="fill: none; stroke: #1f77b4; stroke-width: 1.5; stroke-linecap: square"/>
    </g>
    <g id="text_16">
     <!-- Artc e:0.2216 -->
     <g transform="translate(217 70.156563) scale(0.1 -0.1)">
      <defs>
       <path id="DejaVuSans-41" d="M 2188 4044 
L 1331 1722 
L 3047 1722 
L 2188 4044 
z
M 1831 4666 
L 2547 4666 
L 4325 0 
L 3669 0 
L 3244 1197 
L 1141 1197 
L 716 0 
L 50 0 
L 1831 4666 
z
" transform="scale(0.015625)"/>
       <path id="DejaVuSans-72" d="M 2631 2963 
Q 2534 3019 2420 3045 
Q 2306 3072 2169 3072 
Q 1681 3072 1420 2755 
Q 1159 2438 1159 1844 
L 1159 0 
L 581 0 
L 581 3500 
L 1159 3500 
L 1159 2956 
Q 1341 3275 1631 3429 
Q 1922 3584 2338 3584 
Q 2397 3584 2469 3576 
Q 2541 3569 2628 3553 
L 2631 2963 
z
" transform="scale(0.015625)"/>
       <path id="DejaVuSans-65" d="M 3597 1894 
L 3597 1613 
L 953 1613 
Q 991 1019 1311 708 
Q 1631 397 2203 397 
Q 2534 397 2845 478 
Q 3156 559 3463 722 
L 3463 178 
Q 3153 47 2828 -22 
Q 2503 -91 2169 -91 
Q 1331 -91 842 396 
Q 353 884 353 1716 
Q 353 2575 817 3079 
Q 1281 3584 2069 3584 
Q 2775 3584 3186 3129 
Q 3597 2675 3597 1894 
z
M 3022 2063 
Q 3016 2534 2758 2815 
Q 2500 3097 2075 3097 
Q 1594 3097 1305 2825 
Q 1016 2553 972 2059 
L 3022 2063 
z
" transform="scale(0.015625)"/>
       <path id="DejaVuSans-2e" d="M 684 794 
L 1344 794 
L 1344 0 
L 684 0 
L 684 794 
z
" transform="scale(0.015625)"/>
      </defs>
      <use xlink:href="#DejaVuSans-41"/>
      <use xlink:href="#DejaVuSans-72" x="68.408203"/>
      <use xlink:href="#DejaVuSans-74" x="109.521484"/>
      <use xlink:href="#DejaVuSans-63" x="148.730469"/>
      <use xlink:href="#DejaVuSans-20" x="203.710938"/>
      <use xlink:href="#DejaVuSans-65" x="235.498047"/>
      <use xlink:href="#DejaVuSans-3a" x="297.021484"/>
      <use xlink:href="#DejaVuSans-30" x="330.712891"/>
      <use xlink:href="#DejaVuSans-2e" x="394.335938"/>
      <use xlink:href="#DejaVuSans-32" x="426.123047"/>
      <use xlink:href="#DejaVuSans-32" x="489.746094"/>
      <use xlink:href="#DejaVuSans-31" x="553.369141"/>
      <use xlink:href="#DejaVuSans-36" x="616.992188"/>
     </g>
    </g>
    <g id="line2d_33">
     <path d="M 189 81.334688 
L 199 81.334688 
L 209 81.334688 
" style="fill: none; stroke-dasharray: 5.55,2.4; stroke-dashoffset: 0; stroke: #ff7f0e; stroke-width: 1.5"/>
    </g>
    <g id="text_17">
     <!-- NEL_BTUX e:0.2816 -->
     <g transform="translate(217 84.834688) scale(0.1 -0.1)">
      <defs>
       <path id="DejaVuSans-4e" d="M 628 4666 
L 1478 4666 
L 3547 763 
L 3547 4666 
L 4159 4666 
L 4159 0 
L 3309 0 
L 1241 3903 
L 1241 0 
L 628 0 
L 628 4666 
z
" transform="scale(0.015625)"/>
       <path id="DejaVuSans-45" d="M 628 4666 
L 3578 4666 
L 3578 4134 
L 1259 4134 
L 1259 2753 
L 3481 2753 
L 3481 2222 
L 1259 2222 
L 1259 531 
L 3634 531 
L 3634 0 
L 628 0 
L 628 4666 
z
" transform="scale(0.015625)"/>
       <path id="DejaVuSans-4c" d="M 628 4666 
L 1259 4666 
L 1259 531 
L 3531 531 
L 3531 0 
L 628 0 
L 628 4666 
z
" transform="scale(0.015625)"/>
       <path id="DejaVuSans-5f" d="M 3263 -1063 
L 3263 -1509 
L -63 -1509 
L -63 -1063 
L 3263 -1063 
z
" transform="scale(0.015625)"/>
       <path id="DejaVuSans-54" d="M -19 4666 
L 3928 4666 
L 3928 4134 
L 2272 4134 
L 2272 0 
L 1638 0 
L 1638 4134 
L -19 4134 
L -19 4666 
z
" transform="scale(0.015625)"/>
       <path id="DejaVuSans-55" d="M 556 4666 
L 1191 4666 
L 1191 1831 
Q 1191 1081 1462 751 
Q 1734 422 2344 422 
Q 2950 422 3222 751 
Q 3494 1081 3494 1831 
L 3494 4666 
L 4128 4666 
L 4128 1753 
Q 4128 841 3676 375 
Q 3225 -91 2344 -91 
Q 1459 -91 1007 375 
Q 556 841 556 1753 
L 556 4666 
z
" transform="scale(0.015625)"/>
       <path id="DejaVuSans-58" d="M 403 4666 
L 1081 4666 
L 2241 2931 
L 3406 4666 
L 4084 4666 
L 2584 2425 
L 4184 0 
L 3506 0 
L 2194 1984 
L 872 0 
L 191 0 
L 1856 2491 
L 403 4666 
z
" transform="scale(0.015625)"/>
      </defs>
      <use xlink:href="#DejaVuSans-4e"/>
      <use xlink:href="#DejaVuSans-45" x="74.804688"/>
      <use xlink:href="#DejaVuSans-4c" x="137.988281"/>
      <use xlink:href="#DejaVuSans-5f" x="193.701172"/>
      <use xlink:href="#DejaVuSans-42" x="243.701172"/>
      <use xlink:href="#DejaVuSans-54" x="312.304688"/>
      <use xlink:href="#DejaVuSans-55" x="373.388672"/>
      <use xlink:href="#DejaVuSans-58" x="446.582031"/>
      <use xlink:href="#DejaVuSans-20" x="515.087891"/>
      <use xlink:href="#DejaVuSans-65" x="546.875"/>
      <use xlink:href="#DejaVuSans-3a" x="608.398438"/>
      <use xlink:href="#DejaVuSans-30" x="642.089844"/>
      <use xlink:href="#DejaVuSans-2e" x="705.712891"/>
      <use xlink:href="#DejaVuSans-32" x="737.5"/>
      <use xlink:href="#DejaVuSans-38" x="801.123047"/>
      <use xlink:href="#DejaVuSans-31" x="864.746094"/>
      <use xlink:href="#DejaVuSans-36" x="928.369141"/>
     </g>
    </g>
    <g id="line2d_34">
     <path d="M 189 96.290938 
L 199 96.290938 
L 209 96.290938 
" style="fill: none; stroke-dasharray: 5.55,2.4; stroke-dashoffset: 0; stroke: #2ca02c; stroke-width: 1.5"/>
    </g>
    <g id="text_18">
     <!-- NEL_BTX e:0.2529 -->
     <g transform="translate(217 99.790938) scale(0.1 -0.1)">
      <defs>
       <path id="DejaVuSans-39" d="M 703 97 
L 703 672 
Q 941 559 1184 500 
Q 1428 441 1663 441 
Q 2288 441 2617 861 
Q 2947 1281 2994 2138 
Q 2813 1869 2534 1725 
Q 2256 1581 1919 1581 
Q 1219 1581 811 2004 
Q 403 2428 403 3163 
Q 403 3881 828 4315 
Q 1253 4750 1959 4750 
Q 2769 4750 3195 4129 
Q 3622 3509 3622 2328 
Q 3622 1225 3098 567 
Q 2575 -91 1691 -91 
Q 1453 -91 1209 -44 
Q 966 3 703 97 
z
M 1959 2075 
Q 2384 2075 2632 2365 
Q 2881 2656 2881 3163 
Q 2881 3666 2632 3958 
Q 2384 4250 1959 4250 
Q 1534 4250 1286 3958 
Q 1038 3666 1038 3163 
Q 1038 2656 1286 2365 
Q 1534 2075 1959 2075 
z
" transform="scale(0.015625)"/>
      </defs>
      <use xlink:href="#DejaVuSans-4e"/>
      <use xlink:href="#DejaVuSans-45" x="74.804688"/>
      <use xlink:href="#DejaVuSans-4c" x="137.988281"/>
      <use xlink:href="#DejaVuSans-5f" x="193.701172"/>
      <use xlink:href="#DejaVuSans-42" x="243.701172"/>
      <use xlink:href="#DejaVuSans-54" x="312.304688"/>
      <use xlink:href="#DejaVuSans-58" x="373.388672"/>
      <use xlink:href="#DejaVuSans-20" x="441.894531"/>
      <use xlink:href="#DejaVuSans-65" x="473.681641"/>
      <use xlink:href="#DejaVuSans-3a" x="535.205078"/>
      <use xlink:href="#DejaVuSans-30" x="568.896484"/>
      <use xlink:href="#DejaVuSans-2e" x="632.519531"/>
      <use xlink:href="#DejaVuSans-32" x="664.306641"/>
      <use xlink:href="#DejaVuSans-35" x="727.929688"/>
      <use xlink:href="#DejaVuSans-32" x="791.552734"/>
      <use xlink:href="#DejaVuSans-39" x="855.175781"/>
     </g>
    </g>
   </g>
  </g>
  <g id="axes_2">
   <g id="patch_8">
    <path d="M 573.882353 288.36 
L 902.117647 288.36 
L 902.117647 38.88 
L 573.882353 38.88 
z
" style="fill: #ffffff"/>
   </g>
   <g id="PathCollection_3">
    <g clip-path="url(#p817e1e1903)">
     <use xlink:href="#mceb6b4b600" x="783.907034" y="140.52" style="stroke: #000000"/>
     <use xlink:href="#mceb6b4b600" x="749.476759" y="279.12" style="stroke: #000000"/>
     <use xlink:href="#mceb6b4b600" x="760.953517" y="186.72" style="stroke: #000000"/>
     <use xlink:href="#mceb6b4b600" x="726.54367" y="232.92" style="stroke: #000000"/>
     <use xlink:href="#mceb6b4b600" x="778.173705" y="140.52" style="stroke: #000000"/>
     <use xlink:href="#mceb6b4b600" x="743.753758" y="186.72" style="stroke: #000000"/>
     <use xlink:href="#mceb6b4b600" x="760.963617" y="186.72" style="stroke: #000000"/>
     <use xlink:href="#mceb6b4b600" x="795.383793" y="140.52" style="stroke: #000000"/>
     <use xlink:href="#mceb6b4b600" x="795.383793" y="94.32" style="stroke: #000000"/>
     <use xlink:href="#mceb6b4b600" x="704.71763" y="232.92" style="stroke: #000000"/>
     <use xlink:href="#mceb6b4b600" x="750.050596" y="232.92" style="stroke: #000000"/>
     <use xlink:href="#mceb6b4b600" x="772.717195" y="186.72" style="stroke: #000000"/>
     <use xlink:href="#mceb6b4b600" x="727.384228" y="232.92" style="stroke: #000000"/>
    </g>
   </g>
   <g id="matplotlib.axis_3">
    <g id="xtick_8">
     <g id="line2d_35">
      <path d="M 611.755656 288.36 
L 611.755656 38.88 
" clip-path="url(#p817e1e1903)" style="fill: none; stroke: #b0b0b0; stroke-width: 0.8; stroke-linecap: square"/>
     </g>
     <g id="line2d_36">
      <g>
       <use xlink:href="#mbd02196dd4" x="611.755656" y="288.36" style="stroke: #000000; stroke-width: 0.8"/>
      </g>
     </g>
     <g id="text_19">
      <!-- 0 -->
      <g transform="translate(608.574406 302.958438) scale(0.1 -0.1)">
       <use xlink:href="#DejaVuSans-30"/>
      </g>
     </g>
    </g>
    <g id="xtick_9">
     <g id="line2d_37">
      <path d="M 657.66269 288.36 
L 657.66269 38.88 
" clip-path="url(#p817e1e1903)" style="fill: none; stroke: #b0b0b0; stroke-width: 0.8; stroke-linecap: square"/>
     </g>
     <g id="line2d_38">
      <g>
       <use xlink:href="#mbd02196dd4" x="657.66269" y="288.36" style="stroke: #000000; stroke-width: 0.8"/>
      </g>
     </g>
     <g id="text_20">
      <!-- 20 -->
      <g transform="translate(651.30019 302.958438) scale(0.1 -0.1)">
       <use xlink:href="#DejaVuSans-32"/>
       <use xlink:href="#DejaVuSans-30" x="63.623047"/>
      </g>
     </g>
    </g>
    <g id="xtick_10">
     <g id="line2d_39">
      <path d="M 703.569724 288.36 
L 703.569724 38.88 
" clip-path="url(#p817e1e1903)" style="fill: none; stroke: #b0b0b0; stroke-width: 0.8; stroke-linecap: square"/>
     </g>
     <g id="line2d_40">
      <g>
       <use xlink:href="#mbd02196dd4" x="703.569724" y="288.36" style="stroke: #000000; stroke-width: 0.8"/>
      </g>
     </g>
     <g id="text_21">
      <!-- 40 -->
      <g transform="translate(697.207224 302.958438) scale(0.1 -0.1)">
       <use xlink:href="#DejaVuSans-34"/>
       <use xlink:href="#DejaVuSans-30" x="63.623047"/>
      </g>
     </g>
    </g>
    <g id="xtick_11">
     <g id="line2d_41">
      <path d="M 749.476759 288.36 
L 749.476759 38.88 
" clip-path="url(#p817e1e1903)" style="fill: none; stroke: #b0b0b0; stroke-width: 0.8; stroke-linecap: square"/>
     </g>
     <g id="line2d_42">
      <g>
       <use xlink:href="#mbd02196dd4" x="749.476759" y="288.36" style="stroke: #000000; stroke-width: 0.8"/>
      </g>
     </g>
     <g id="text_22">
      <!-- 60 -->
      <g transform="translate(743.114259 302.958438) scale(0.1 -0.1)">
       <use xlink:href="#DejaVuSans-36"/>
       <use xlink:href="#DejaVuSans-30" x="63.623047"/>
      </g>
     </g>
    </g>
    <g id="xtick_12">
     <g id="line2d_43">
      <path d="M 795.383793 288.36 
L 795.383793 38.88 
" clip-path="url(#p817e1e1903)" style="fill: none; stroke: #b0b0b0; stroke-width: 0.8; stroke-linecap: square"/>
     </g>
     <g id="line2d_44">
      <g>
       <use xlink:href="#mbd02196dd4" x="795.383793" y="288.36" style="stroke: #000000; stroke-width: 0.8"/>
      </g>
     </g>
     <g id="text_23">
      <!-- 80 -->
      <g transform="translate(789.021293 302.958438) scale(0.1 -0.1)">
       <use xlink:href="#DejaVuSans-38"/>
       <use xlink:href="#DejaVuSans-30" x="63.623047"/>
      </g>
     </g>
    </g>
    <g id="xtick_13">
     <g id="line2d_45">
      <path d="M 841.290827 288.36 
L 841.290827 38.88 
" clip-path="url(#p817e1e1903)" style="fill: none; stroke: #b0b0b0; stroke-width: 0.8; stroke-linecap: square"/>
     </g>
     <g id="line2d_46">
      <g>
       <use xlink:href="#mbd02196dd4" x="841.290827" y="288.36" style="stroke: #000000; stroke-width: 0.8"/>
      </g>
     </g>
     <g id="text_24">
      <!-- 100 -->
      <g transform="translate(831.747077 302.958438) scale(0.1 -0.1)">
       <use xlink:href="#DejaVuSans-31"/>
       <use xlink:href="#DejaVuSans-30" x="63.623047"/>
       <use xlink:href="#DejaVuSans-30" x="127.246094"/>
      </g>
     </g>
    </g>
    <g id="xtick_14">
     <g id="line2d_47">
      <path d="M 887.197861 288.36 
L 887.197861 38.88 
" clip-path="url(#p817e1e1903)" style="fill: none; stroke: #b0b0b0; stroke-width: 0.8; stroke-linecap: square"/>
     </g>
     <g id="line2d_48">
      <g>
       <use xlink:href="#mbd02196dd4" x="887.197861" y="288.36" style="stroke: #000000; stroke-width: 0.8"/>
      </g>
     </g>
     <g id="text_25">
      <!-- 120 -->
      <g transform="translate(877.654111 302.958438) scale(0.1 -0.1)">
       <use xlink:href="#DejaVuSans-31"/>
       <use xlink:href="#DejaVuSans-32" x="63.623047"/>
       <use xlink:href="#DejaVuSans-30" x="127.246094"/>
      </g>
     </g>
    </g>
   </g>
   <g id="matplotlib.axis_4">
    <g id="ytick_7">
     <g id="line2d_49">
      <path d="M 573.882353 279.12 
L 902.117647 279.12 
" clip-path="url(#p817e1e1903)" style="fill: none; stroke: #b0b0b0; stroke-width: 0.8; stroke-linecap: square"/>
     </g>
     <g id="line2d_50">
      <g>
       <use xlink:href="#md7c4a304f4" x="573.882353" y="279.12" style="stroke: #000000; stroke-width: 0.8"/>
      </g>
     </g>
     <g id="text_26">
      <!-- 0 -->
      <g transform="translate(560.519853 282.919219) scale(0.1 -0.1)">
       <use xlink:href="#DejaVuSans-30"/>
      </g>
     </g>
    </g>
    <g id="ytick_8">
     <g id="line2d_51">
      <path d="M 573.882353 232.92 
L 902.117647 232.92 
" clip-path="url(#p817e1e1903)" style="fill: none; stroke: #b0b0b0; stroke-width: 0.8; stroke-linecap: square"/>
     </g>
     <g id="line2d_52">
      <g>
       <use xlink:href="#md7c4a304f4" x="573.882353" y="232.92" style="stroke: #000000; stroke-width: 0.8"/>
      </g>
     </g>
     <g id="text_27">
      <!-- 10 -->
      <g transform="translate(554.157353 236.719219) scale(0.1 -0.1)">
       <use xlink:href="#DejaVuSans-31"/>
       <use xlink:href="#DejaVuSans-30" x="63.623047"/>
      </g>
     </g>
    </g>
    <g id="ytick_9">
     <g id="line2d_53">
      <path d="M 573.882353 186.72 
L 902.117647 186.72 
" clip-path="url(#p817e1e1903)" style="fill: none; stroke: #b0b0b0; stroke-width: 0.8; stroke-linecap: square"/>
     </g>
     <g id="line2d_54">
      <g>
       <use xlink:href="#md7c4a304f4" x="573.882353" y="186.72" style="stroke: #000000; stroke-width: 0.8"/>
      </g>
     </g>
     <g id="text_28">
      <!-- 20 -->
      <g transform="translate(554.157353 190.519219) scale(0.1 -0.1)">
       <use xlink:href="#DejaVuSans-32"/>
       <use xlink:href="#DejaVuSans-30" x="63.623047"/>
      </g>
     </g>
    </g>
    <g id="ytick_10">
     <g id="line2d_55">
      <path d="M 573.882353 140.52 
L 902.117647 140.52 
" clip-path="url(#p817e1e1903)" style="fill: none; stroke: #b0b0b0; stroke-width: 0.8; stroke-linecap: square"/>
     </g>
     <g id="line2d_56">
      <g>
       <use xlink:href="#md7c4a304f4" x="573.882353" y="140.52" style="stroke: #000000; stroke-width: 0.8"/>
      </g>
     </g>
     <g id="text_29">
      <!-- 30 -->
      <g transform="translate(554.157353 144.319219) scale(0.1 -0.1)">
       <use xlink:href="#DejaVuSans-33"/>
       <use xlink:href="#DejaVuSans-30" x="63.623047"/>
      </g>
     </g>
    </g>
    <g id="ytick_11">
     <g id="line2d_57">
      <path d="M 573.882353 94.32 
L 902.117647 94.32 
" clip-path="url(#p817e1e1903)" style="fill: none; stroke: #b0b0b0; stroke-width: 0.8; stroke-linecap: square"/>
     </g>
     <g id="line2d_58">
      <g>
       <use xlink:href="#md7c4a304f4" x="573.882353" y="94.32" style="stroke: #000000; stroke-width: 0.8"/>
      </g>
     </g>
     <g id="text_30">
      <!-- 40 -->
      <g transform="translate(554.157353 98.119219) scale(0.1 -0.1)">
       <use xlink:href="#DejaVuSans-34"/>
       <use xlink:href="#DejaVuSans-30" x="63.623047"/>
      </g>
     </g>
    </g>
    <g id="ytick_12">
     <g id="line2d_59">
      <path d="M 573.882353 48.12 
L 902.117647 48.12 
" clip-path="url(#p817e1e1903)" style="fill: none; stroke: #b0b0b0; stroke-width: 0.8; stroke-linecap: square"/>
     </g>
     <g id="line2d_60">
      <g>
       <use xlink:href="#md7c4a304f4" x="573.882353" y="48.12" style="stroke: #000000; stroke-width: 0.8"/>
      </g>
     </g>
     <g id="text_31">
      <!-- 50 -->
      <g transform="translate(554.157353 51.919219) scale(0.1 -0.1)">
       <use xlink:href="#DejaVuSans-35"/>
       <use xlink:href="#DejaVuSans-30" x="63.623047"/>
      </g>
     </g>
    </g>
   </g>
   <g id="line2d_61">
    <path d="M 588.802139 163.62 
L 887.197861 163.62 
" clip-path="url(#p817e1e1903)" style="fill: none; stroke-dasharray: 1.5,2.475; stroke-dashoffset: 0; stroke: #808080; stroke-width: 1.5"/>
   </g>
   <g id="line2d_62">
    <path d="M 795.383793 325 
L 795.383793 -1 
" clip-path="url(#p817e1e1903)" style="fill: none; stroke-dasharray: 5.55,2.4; stroke-dashoffset: 0; stroke: #ff0000; stroke-opacity: 0.3; stroke-width: 1.5"/>
   </g>
   <g id="line2d_63">
    <path d="M 691.894806 279.12 
L 693.403857 277.140816 
L 694.912907 275.161631 
L 696.421958 273.182447 
L 697.931008 271.203262 
L 699.440059 269.224078 
L 700.949109 267.244894 
L 702.45816 265.265709 
L 703.96721 263.286525 
L 705.476261 261.30734 
L 706.985311 259.328156 
L 708.494362 257.348971 
L 710.003413 255.369787 
L 711.512463 253.390603 
L 713.021514 251.411418 
L 714.530564 249.432234 
L 716.039615 247.453049 
L 717.548665 245.473865 
L 719.057716 243.494681 
L 720.566766 241.515496 
L 722.075817 239.536312 
L 723.584867 237.557127 
L 725.093918 235.577943 
L 726.602969 233.598758 
L 728.112019 231.619574 
L 729.62107 229.64039 
L 731.13012 227.661205 
L 732.639171 225.682021 
L 734.148221 223.702836 
L 735.657272 221.723652 
L 737.166322 219.744468 
L 738.675373 217.765283 
L 740.184423 215.786099 
L 741.693474 213.806914 
L 743.202525 211.82773 
L 744.711575 209.848546 
L 746.220626 207.863071 
L 747.729676 205.864476 
L 749.238727 203.852497 
L 750.747777 201.82686 
L 752.256828 199.787285 
L 753.765878 197.733479 
L 755.274929 195.665139 
L 756.783979 193.581954 
L 758.29303 191.483598 
L 759.802081 189.369736 
L 761.311131 187.240018 
L 762.820182 185.094082 
L 764.329232 182.931552 
L 765.838283 180.752038 
L 767.347333 178.555131 
L 768.856384 176.34041 
L 770.365434 174.107433 
L 771.874485 171.855742 
L 773.383535 169.584859 
L 774.892586 167.294283 
L 776.401637 164.983493 
L 777.910687 162.651945 
L 779.419738 160.299069 
L 780.928788 157.924269 
L 782.437839 155.52692 
L 783.946889 153.106368 
L 785.45594 150.661925 
L 786.96499 148.192869 
L 788.474041 145.698443 
L 789.983091 143.177847 
L 791.492142 140.630239 
L 793.001193 138.054734 
L 794.510243 135.450393 
L 796.019294 132.816225 
L 797.528344 130.151183 
L 799.037395 127.454153 
L 800.546445 124.723956 
L 802.055496 121.959338 
L 803.564546 119.158961 
L 805.073597 116.32425 
L 806.582647 113.482406 
L 808.091698 110.640563 
L 809.600748 107.798719 
L 811.109799 104.956875 
L 812.61885 102.115031 
L 814.1279 99.273188 
L 815.636951 96.431344 
L 817.146001 93.5895 
L 818.655052 90.747656 
L 820.164102 87.905813 
L 821.673153 85.063969 
L 823.182203 82.222125 
L 824.691254 79.380281 
L 826.200304 76.538438 
L 827.709355 73.696594 
L 829.218406 70.85475 
L 830.727456 68.012906 
L 832.236507 65.171063 
L 833.745557 62.329219 
L 835.254608 59.487375 
L 836.763658 56.645531 
L 838.272709 53.803688 
L 839.781759 50.961844 
L 841.29081 48.12 
" clip-path="url(#p817e1e1903)" style="fill: none; stroke: #1f77b4; stroke-width: 1.5; stroke-linecap: square"/>
   </g>
   <g id="line2d_64">
    <path d="M 694.727383 279.12 
L 695.936943 277.421276 
L 697.146502 275.722553 
L 698.356062 274.023829 
L 699.565621 272.325106 
L 700.775181 270.626382 
L 701.98474 268.927659 
L 703.1943 267.228935 
L 704.40386 265.530211 
L 705.613419 263.831488 
L 706.822979 262.132764 
L 708.032538 260.434041 
L 709.242098 258.735317 
L 710.451657 257.036593 
L 711.661217 255.33787 
L 712.870776 253.639146 
L 714.080336 251.940423 
L 715.289895 250.241699 
L 716.499455 248.542976 
L 717.709014 246.844252 
L 718.918574 245.145528 
L 720.128133 243.446805 
L 721.337693 241.748081 
L 722.547253 240.049358 
L 723.756812 238.350634 
L 724.966372 236.651911 
L 726.175931 234.953187 
L 727.385491 233.254463 
L 728.59505 231.55574 
L 729.80461 229.857016 
L 731.014169 228.158293 
L 732.223729 226.459569 
L 733.433288 224.760845 
L 734.642848 223.062122 
L 735.852407 221.363398 
L 737.061967 219.664675 
L 738.271526 217.965951 
L 739.481086 216.267228 
L 740.690646 214.568504 
L 741.900205 212.86978 
L 743.109765 211.171057 
L 744.319324 209.471977 
L 745.528884 207.761133 
L 746.738443 206.032665 
L 747.948003 204.286019 
L 749.157562 202.520608 
L 750.367122 200.735814 
L 751.576681 198.930984 
L 752.786241 197.105428 
L 753.9958 195.258414 
L 755.20536 193.389169 
L 756.414919 191.496869 
L 757.624479 189.58064 
L 758.834039 187.63955 
L 760.043598 185.672606 
L 761.253158 183.678746 
L 762.462717 181.656834 
L 763.672277 179.605652 
L 764.881836 177.523891 
L 766.091396 175.41014 
L 767.300955 173.262879 
L 768.510515 171.08046 
L 769.720074 168.861098 
L 770.929634 166.602852 
L 772.139193 164.303602 
L 773.348753 161.961031 
L 774.558313 159.572593 
L 775.767872 157.135484 
L 776.977432 154.646602 
L 778.186991 152.102499 
L 779.396551 149.499329 
L 780.60611 146.832775 
L 781.81567 144.097969 
L 783.025229 141.289385 
L 784.234789 138.40071 
L 785.444348 135.424673 
L 786.653908 132.352835 
L 787.863467 129.1753 
L 789.073027 125.880344 
L 790.282586 122.453899 
L 791.492146 118.878842 
L 792.701706 115.167706 
L 793.911265 111.442833 
L 795.120825 107.71796 
L 796.330384 103.993088 
L 797.539944 100.268215 
L 798.749503 96.543343 
L 799.959063 92.81847 
L 801.168622 89.093598 
L 802.378182 85.368725 
L 803.587741 81.643853 
L 804.797301 77.91898 
L 806.00686 74.194108 
L 807.21642 70.469235 
L 808.425979 66.744363 
L 809.635539 63.01949 
L 810.845099 59.294618 
L 812.054658 55.569745 
L 813.264218 51.844873 
L 814.473777 48.12 
" clip-path="url(#p817e1e1903)" style="fill: none; stroke-dasharray: 5.55,2.4; stroke-dashoffset: 0; stroke: #ff7f0e; stroke-width: 1.5"/>
   </g>
   <g id="line2d_65">
    <path d="M 688.898085 279.12 
L 690.071995 277.664579 
L 691.245906 276.209158 
L 692.419816 274.753737 
L 693.593726 273.298316 
L 694.767636 271.842895 
L 695.941547 270.387474 
L 697.115457 268.932053 
L 698.289367 267.476633 
L 699.463277 266.021212 
L 700.637188 264.565791 
L 701.811098 263.11037 
L 702.985008 261.654949 
L 704.158919 260.199528 
L 705.332829 258.744107 
L 706.506739 257.288686 
L 707.680649 255.833265 
L 708.85456 254.377844 
L 710.02847 252.922423 
L 711.20238 251.467002 
L 712.376291 250.011581 
L 713.550201 248.55616 
L 714.724111 247.10074 
L 715.898021 245.645319 
L 717.071932 244.189898 
L 718.245842 242.734477 
L 719.419752 241.279056 
L 720.593663 239.823635 
L 721.767573 238.368214 
L 722.941483 236.912793 
L 724.115393 235.457372 
L 725.289304 234.001951 
L 726.463214 232.54653 
L 727.637124 231.091109 
L 728.811035 229.635688 
L 729.984945 228.180267 
L 731.158855 226.724847 
L 732.332765 225.269426 
L 733.506676 223.814005 
L 734.680586 222.358584 
L 735.854496 220.903163 
L 737.028407 219.447742 
L 738.202317 217.992321 
L 739.376227 216.5369 
L 740.550137 215.081479 
L 741.724048 213.626058 
L 742.897958 212.170637 
L 744.071868 210.715216 
L 745.245778 209.258512 
L 746.419689 207.787554 
L 747.593599 206.298456 
L 748.767509 204.79053 
L 749.94142 203.263044 
L 751.11533 201.715214 
L 752.28924 200.146207 
L 753.46315 198.555129 
L 754.637061 196.941021 
L 755.810971 195.302854 
L 756.984881 193.639517 
L 758.158792 191.949814 
L 759.332702 190.232451 
L 760.506612 188.486021 
L 761.680522 186.708999 
L 762.854433 184.899717 
L 764.028343 183.056352 
L 765.202253 181.176901 
L 766.376164 179.25916 
L 767.550074 177.300687 
L 768.723984 175.298772 
L 769.897894 173.250389 
L 771.071805 171.152142 
L 772.245715 169.000204 
L 773.419625 166.790228 
L 774.593536 164.51725 
L 775.767446 162.175551 
L 776.941356 159.758496 
L 778.115266 157.258303 
L 779.289177 154.665754 
L 780.463087 151.969789 
L 781.636997 149.156946 
L 782.810908 146.210562 
L 783.984818 143.109595 
L 785.158728 139.826813 
L 786.332638 136.325907 
L 787.506549 132.556587 
L 788.680459 128.445634 
L 789.854369 123.878888 
L 791.028279 118.659543 
L 792.20219 112.80442 
L 793.3761 106.924018 
L 794.55001 101.043616 
L 795.723921 95.163214 
L 796.897831 89.282812 
L 798.071741 83.402411 
L 799.245651 77.522009 
L 800.419562 71.641607 
L 801.593472 65.761205 
L 802.767382 59.880804 
L 803.941293 54.000402 
L 805.115203 48.12 
" clip-path="url(#p817e1e1903)" style="fill: none; stroke-dasharray: 5.55,2.4; stroke-dashoffset: 0; stroke: #2ca02c; stroke-width: 1.5"/>
   </g>
   <g id="patch_9">
    <path d="M 573.882353 288.36 
L 573.882353 38.88 
" style="fill: none; stroke: #000000; stroke-width: 0.8; stroke-linejoin: miter; stroke-linecap: square"/>
   </g>
   <g id="patch_10">
    <path d="M 902.117647 288.36 
L 902.117647 38.88 
" style="fill: none; stroke: #000000; stroke-width: 0.8; stroke-linejoin: miter; stroke-linecap: square"/>
   </g>
   <g id="patch_11">
    <path d="M 573.882353 288.36 
L 902.117647 288.36 
" style="fill: none; stroke: #000000; stroke-width: 0.8; stroke-linejoin: miter; stroke-linecap: square"/>
   </g>
   <g id="patch_12">
    <path d="M 573.882353 38.88 
L 902.117647 38.88 
" style="fill: none; stroke: #000000; stroke-width: 0.8; stroke-linejoin: miter; stroke-linecap: square"/>
   </g>
   <g id="text_32">
    <!--  Block: 1 -->
    <g transform="translate(712.119375 32.88) scale(0.12 -0.12)">
     <use xlink:href="#DejaVuSans-20"/>
     <use xlink:href="#DejaVuSans-42" x="31.787109"/>
     <use xlink:href="#DejaVuSans-6c" x="100.390625"/>
     <use xlink:href="#DejaVuSans-6f" x="128.173828"/>
     <use xlink:href="#DejaVuSans-63" x="189.355469"/>
     <use xlink:href="#DejaVuSans-6b" x="244.335938"/>
     <use xlink:href="#DejaVuSans-3a" x="302.246094"/>
     <use xlink:href="#DejaVuSans-20" x="335.9375"/>
     <use xlink:href="#DejaVuSans-31" x="367.724609"/>
    </g>
   </g>
   <g id="legend_2">
    <g id="patch_13">
     <path d="M 580.882353 106.14875 
L 712.082353 106.14875 
Q 714.082353 106.14875 714.082353 104.14875 
L 714.082353 45.88 
Q 714.082353 43.88 712.082353 43.88 
L 580.882353 43.88 
Q 578.882353 43.88 578.882353 45.88 
L 578.882353 104.14875 
Q 578.882353 106.14875 580.882353 106.14875 
z
" style="fill: #ffffff; opacity: 0.8; stroke: #cccccc; stroke-linejoin: miter"/>
    </g>
    <g id="PathCollection_4">
     <g>
      <use xlink:href="#mceb6b4b600" x="592.882353" y="52.853438" style="stroke: #000000"/>
     </g>
    </g>
    <g id="text_33">
     <!-- Data -->
     <g transform="translate(610.882353 55.478438) scale(0.1 -0.1)">
      <use xlink:href="#DejaVuSans-44"/>
      <use xlink:href="#DejaVuSans-61" x="77.001953"/>
      <use xlink:href="#DejaVuSans-74" x="138.28125"/>
      <use xlink:href="#DejaVuSans-61" x="177.490234"/>
     </g>
    </g>
    <g id="line2d_66">
     <path d="M 582.882353 66.656563 
L 592.882353 66.656563 
L 602.882353 66.656563 
" style="fill: none; stroke: #1f77b4; stroke-width: 1.5; stroke-linecap: square"/>
    </g>
    <g id="text_34">
     <!-- Artc e:0.4752 -->
     <g transform="translate(610.882353 70.156563) scale(0.1 -0.1)">
      <defs>
       <path id="DejaVuSans-37" d="M 525 4666 
L 3525 4666 
L 3525 4397 
L 1831 0 
L 1172 0 
L 2766 4134 
L 525 4134 
L 525 4666 
z
" transform="scale(0.015625)"/>
      </defs>
      <use xlink:href="#DejaVuSans-41"/>
      <use xlink:href="#DejaVuSans-72" x="68.408203"/>
      <use xlink:href="#DejaVuSans-74" x="109.521484"/>
      <use xlink:href="#DejaVuSans-63" x="148.730469"/>
      <use xlink:href="#DejaVuSans-20" x="203.710938"/>
      <use xlink:href="#DejaVuSans-65" x="235.498047"/>
      <use xlink:href="#DejaVuSans-3a" x="297.021484"/>
      <use xlink:href="#DejaVuSans-30" x="330.712891"/>
      <use xlink:href="#DejaVuSans-2e" x="394.335938"/>
      <use xlink:href="#DejaVuSans-34" x="426.123047"/>
      <use xlink:href="#DejaVuSans-37" x="489.746094"/>
      <use xlink:href="#DejaVuSans-35" x="553.369141"/>
      <use xlink:href="#DejaVuSans-32" x="616.992188"/>
     </g>
    </g>
    <g id="line2d_67">
     <path d="M 582.882353 81.334688 
L 592.882353 81.334688 
L 602.882353 81.334688 
" style="fill: none; stroke-dasharray: 5.55,2.4; stroke-dashoffset: 0; stroke: #ff7f0e; stroke-width: 1.5"/>
    </g>
    <g id="text_35">
     <!-- NEL_BTUX e:0.4738 -->
     <g transform="translate(610.882353 84.834688) scale(0.1 -0.1)">
      <use xlink:href="#DejaVuSans-4e"/>
      <use xlink:href="#DejaVuSans-45" x="74.804688"/>
      <use xlink:href="#DejaVuSans-4c" x="137.988281"/>
      <use xlink:href="#DejaVuSans-5f" x="193.701172"/>
      <use xlink:href="#DejaVuSans-42" x="243.701172"/>
      <use xlink:href="#DejaVuSans-54" x="312.304688"/>
      <use xlink:href="#DejaVuSans-55" x="373.388672"/>
      <use xlink:href="#DejaVuSans-58" x="446.582031"/>
      <use xlink:href="#DejaVuSans-20" x="515.087891"/>
      <use xlink:href="#DejaVuSans-65" x="546.875"/>
      <use xlink:href="#DejaVuSans-3a" x="608.398438"/>
      <use xlink:href="#DejaVuSans-30" x="642.089844"/>
      <use xlink:href="#DejaVuSans-2e" x="705.712891"/>
      <use xlink:href="#DejaVuSans-34" x="737.5"/>
      <use xlink:href="#DejaVuSans-37" x="801.123047"/>
      <use xlink:href="#DejaVuSans-33" x="864.746094"/>
      <use xlink:href="#DejaVuSans-38" x="928.369141"/>
     </g>
    </g>
    <g id="line2d_68">
     <path d="M 582.882353 96.290938 
L 592.882353 96.290938 
L 602.882353 96.290938 
" style="fill: none; stroke-dasharray: 5.55,2.4; stroke-dashoffset: 0; stroke: #2ca02c; stroke-width: 1.5"/>
    </g>
    <g id="text_36">
     <!-- NEL_BTX e:0.4709 -->
     <g transform="translate(610.882353 99.790938) scale(0.1 -0.1)">
      <use xlink:href="#DejaVuSans-4e"/>
      <use xlink:href="#DejaVuSans-45" x="74.804688"/>
      <use xlink:href="#DejaVuSans-4c" x="137.988281"/>
      <use xlink:href="#DejaVuSans-5f" x="193.701172"/>
      <use xlink:href="#DejaVuSans-42" x="243.701172"/>
      <use xlink:href="#DejaVuSans-54" x="312.304688"/>
      <use xlink:href="#DejaVuSans-58" x="373.388672"/>
      <use xlink:href="#DejaVuSans-20" x="441.894531"/>
      <use xlink:href="#DejaVuSans-65" x="473.681641"/>
      <use xlink:href="#DejaVuSans-3a" x="535.205078"/>
      <use xlink:href="#DejaVuSans-30" x="568.896484"/>
      <use xlink:href="#DejaVuSans-2e" x="632.519531"/>
      <use xlink:href="#DejaVuSans-34" x="664.306641"/>
      <use xlink:href="#DejaVuSans-37" x="727.929688"/>
      <use xlink:href="#DejaVuSans-30" x="791.552734"/>
      <use xlink:href="#DejaVuSans-39" x="855.175781"/>
     </g>
    </g>
   </g>
  </g>
  <g id="axes_3">
   <g id="patch_14">
    <path d="M 967.764706 288.36 
L 1296 288.36 
L 1296 38.88 
L 967.764706 38.88 
z
" style="fill: #ffffff"/>
   </g>
   <g id="PathCollection_5">
    <g clip-path="url(#p634638b1f3)">
     <use xlink:href="#mceb6b4b600" x="1177.789387" y="140.52" style="stroke: #000000"/>
     <use xlink:href="#mceb6b4b600" x="1143.359111" y="186.72" style="stroke: #000000"/>
     <use xlink:href="#mceb6b4b600" x="1108.928836" y="232.92" style="stroke: #000000"/>
     <use xlink:href="#mceb6b4b600" x="1074.49856" y="256.02" style="stroke: #000000"/>
     <use xlink:href="#mceb6b4b600" x="1040.068285" y="279.12" style="stroke: #000000"/>
     <use xlink:href="#mceb6b4b600" x="1051.545043" y="256.02" style="stroke: #000000"/>
     <use xlink:href="#mceb6b4b600" x="1120.406972" y="232.92" style="stroke: #000000"/>
     <use xlink:href="#mceb6b4b600" x="1051.548257" y="279.12" style="stroke: #000000"/>
     <use xlink:href="#mceb6b4b600" x="1189.266146" y="94.32" style="stroke: #000000"/>
     <use xlink:href="#mceb6b4b600" x="1085.977614" y="232.92" style="stroke: #000000"/>
     <use xlink:href="#mceb6b4b600" x="1154.836329" y="186.72" style="stroke: #000000"/>
     <use xlink:href="#mceb6b4b600" x="1070.090567" y="256.02" style="stroke: #000000"/>
     <use xlink:href="#mceb6b4b600" x="1189.266146" y="94.32" style="stroke: #000000"/>
     <use xlink:href="#mceb6b4b600" x="1129.678586" y="232.92" style="stroke: #000000"/>
     <use xlink:href="#mceb6b4b600" x="1159.47248" y="186.72" style="stroke: #000000"/>
     <use xlink:href="#mceb6b4b600" x="1099.884462" y="232.92" style="stroke: #000000"/>
    </g>
   </g>
   <g id="matplotlib.axis_5">
    <g id="xtick_15">
     <g id="line2d_69">
      <path d="M 1005.638009 288.36 
L 1005.638009 38.88 
" clip-path="url(#p634638b1f3)" style="fill: none; stroke: #b0b0b0; stroke-width: 0.8; stroke-linecap: square"/>
     </g>
     <g id="line2d_70">
      <g>
       <use xlink:href="#mbd02196dd4" x="1005.638009" y="288.36" style="stroke: #000000; stroke-width: 0.8"/>
      </g>
     </g>
     <g id="text_37">
      <!-- 0 -->
      <g transform="translate(1002.456759 302.958438) scale(0.1 -0.1)">
       <use xlink:href="#DejaVuSans-30"/>
      </g>
     </g>
    </g>
    <g id="xtick_16">
     <g id="line2d_71">
      <path d="M 1051.545043 288.36 
L 1051.545043 38.88 
" clip-path="url(#p634638b1f3)" style="fill: none; stroke: #b0b0b0; stroke-width: 0.8; stroke-linecap: square"/>
     </g>
     <g id="line2d_72">
      <g>
       <use xlink:href="#mbd02196dd4" x="1051.545043" y="288.36" style="stroke: #000000; stroke-width: 0.8"/>
      </g>
     </g>
     <g id="text_38">
      <!-- 20 -->
      <g transform="translate(1045.182543 302.958438) scale(0.1 -0.1)">
       <use xlink:href="#DejaVuSans-32"/>
       <use xlink:href="#DejaVuSans-30" x="63.623047"/>
      </g>
     </g>
    </g>
    <g id="xtick_17">
     <g id="line2d_73">
      <path d="M 1097.452077 288.36 
L 1097.452077 38.88 
" clip-path="url(#p634638b1f3)" style="fill: none; stroke: #b0b0b0; stroke-width: 0.8; stroke-linecap: square"/>
     </g>
     <g id="line2d_74">
      <g>
       <use xlink:href="#mbd02196dd4" x="1097.452077" y="288.36" style="stroke: #000000; stroke-width: 0.8"/>
      </g>
     </g>
     <g id="text_39">
      <!-- 40 -->
      <g transform="translate(1091.089577 302.958438) scale(0.1 -0.1)">
       <use xlink:href="#DejaVuSans-34"/>
       <use xlink:href="#DejaVuSans-30" x="63.623047"/>
      </g>
     </g>
    </g>
    <g id="xtick_18">
     <g id="line2d_75">
      <path d="M 1143.359111 288.36 
L 1143.359111 38.88 
" clip-path="url(#p634638b1f3)" style="fill: none; stroke: #b0b0b0; stroke-width: 0.8; stroke-linecap: square"/>
     </g>
     <g id="line2d_76">
      <g>
       <use xlink:href="#mbd02196dd4" x="1143.359111" y="288.36" style="stroke: #000000; stroke-width: 0.8"/>
      </g>
     </g>
     <g id="text_40">
      <!-- 60 -->
      <g transform="translate(1136.996611 302.958438) scale(0.1 -0.1)">
       <use xlink:href="#DejaVuSans-36"/>
       <use xlink:href="#DejaVuSans-30" x="63.623047"/>
      </g>
     </g>
    </g>
    <g id="xtick_19">
     <g id="line2d_77">
      <path d="M 1189.266146 288.36 
L 1189.266146 38.88 
" clip-path="url(#p634638b1f3)" style="fill: none; stroke: #b0b0b0; stroke-width: 0.8; stroke-linecap: square"/>
     </g>
     <g id="line2d_78">
      <g>
       <use xlink:href="#mbd02196dd4" x="1189.266146" y="288.36" style="stroke: #000000; stroke-width: 0.8"/>
      </g>
     </g>
     <g id="text_41">
      <!-- 80 -->
      <g transform="translate(1182.903646 302.958438) scale(0.1 -0.1)">
       <use xlink:href="#DejaVuSans-38"/>
       <use xlink:href="#DejaVuSans-30" x="63.623047"/>
      </g>
     </g>
    </g>
    <g id="xtick_20">
     <g id="line2d_79">
      <path d="M 1235.17318 288.36 
L 1235.17318 38.88 
" clip-path="url(#p634638b1f3)" style="fill: none; stroke: #b0b0b0; stroke-width: 0.8; stroke-linecap: square"/>
     </g>
     <g id="line2d_80">
      <g>
       <use xlink:href="#mbd02196dd4" x="1235.17318" y="288.36" style="stroke: #000000; stroke-width: 0.8"/>
      </g>
     </g>
     <g id="text_42">
      <!-- 100 -->
      <g transform="translate(1225.62943 302.958438) scale(0.1 -0.1)">
       <use xlink:href="#DejaVuSans-31"/>
       <use xlink:href="#DejaVuSans-30" x="63.623047"/>
       <use xlink:href="#DejaVuSans-30" x="127.246094"/>
      </g>
     </g>
    </g>
    <g id="xtick_21">
     <g id="line2d_81">
      <path d="M 1281.080214 288.36 
L 1281.080214 38.88 
" clip-path="url(#p634638b1f3)" style="fill: none; stroke: #b0b0b0; stroke-width: 0.8; stroke-linecap: square"/>
     </g>
     <g id="line2d_82">
      <g>
       <use xlink:href="#mbd02196dd4" x="1281.080214" y="288.36" style="stroke: #000000; stroke-width: 0.8"/>
      </g>
     </g>
     <g id="text_43">
      <!-- 120 -->
      <g transform="translate(1271.536464 302.958438) scale(0.1 -0.1)">
       <use xlink:href="#DejaVuSans-31"/>
       <use xlink:href="#DejaVuSans-32" x="63.623047"/>
       <use xlink:href="#DejaVuSans-30" x="127.246094"/>
      </g>
     </g>
    </g>
    <g id="text_44">
     <!-- Level [dB SPL] -->
     <g transform="translate(1096.022978 316.636563) scale(0.1 -0.1)">
      <defs>
       <path id="DejaVuSans-76" d="M 191 3500 
L 800 3500 
L 1894 563 
L 2988 3500 
L 3597 3500 
L 2284 0 
L 1503 0 
L 191 3500 
z
" transform="scale(0.015625)"/>
       <path id="DejaVuSans-5b" d="M 550 4863 
L 1875 4863 
L 1875 4416 
L 1125 4416 
L 1125 -397 
L 1875 -397 
L 1875 -844 
L 550 -844 
L 550 4863 
z
" transform="scale(0.015625)"/>
       <path id="DejaVuSans-64" d="M 2906 2969 
L 2906 4863 
L 3481 4863 
L 3481 0 
L 2906 0 
L 2906 525 
Q 2725 213 2448 61 
Q 2172 -91 1784 -91 
Q 1150 -91 751 415 
Q 353 922 353 1747 
Q 353 2572 751 3078 
Q 1150 3584 1784 3584 
Q 2172 3584 2448 3432 
Q 2725 3281 2906 2969 
z
M 947 1747 
Q 947 1113 1208 752 
Q 1469 391 1925 391 
Q 2381 391 2643 752 
Q 2906 1113 2906 1747 
Q 2906 2381 2643 2742 
Q 2381 3103 1925 3103 
Q 1469 3103 1208 2742 
Q 947 2381 947 1747 
z
" transform="scale(0.015625)"/>
       <path id="DejaVuSans-53" d="M 3425 4513 
L 3425 3897 
Q 3066 4069 2747 4153 
Q 2428 4238 2131 4238 
Q 1616 4238 1336 4038 
Q 1056 3838 1056 3469 
Q 1056 3159 1242 3001 
Q 1428 2844 1947 2747 
L 2328 2669 
Q 3034 2534 3370 2195 
Q 3706 1856 3706 1288 
Q 3706 609 3251 259 
Q 2797 -91 1919 -91 
Q 1588 -91 1214 -16 
Q 841 59 441 206 
L 441 856 
Q 825 641 1194 531 
Q 1563 422 1919 422 
Q 2459 422 2753 634 
Q 3047 847 3047 1241 
Q 3047 1584 2836 1778 
Q 2625 1972 2144 2069 
L 1759 2144 
Q 1053 2284 737 2584 
Q 422 2884 422 3419 
Q 422 4038 858 4394 
Q 1294 4750 2059 4750 
Q 2388 4750 2728 4690 
Q 3069 4631 3425 4513 
z
" transform="scale(0.015625)"/>
       <path id="DejaVuSans-50" d="M 1259 4147 
L 1259 2394 
L 2053 2394 
Q 2494 2394 2734 2622 
Q 2975 2850 2975 3272 
Q 2975 3691 2734 3919 
Q 2494 4147 2053 4147 
L 1259 4147 
z
M 628 4666 
L 2053 4666 
Q 2838 4666 3239 4311 
Q 3641 3956 3641 3272 
Q 3641 2581 3239 2228 
Q 2838 1875 2053 1875 
L 1259 1875 
L 1259 0 
L 628 0 
L 628 4666 
z
" transform="scale(0.015625)"/>
       <path id="DejaVuSans-5d" d="M 1947 4863 
L 1947 -844 
L 622 -844 
L 622 -397 
L 1369 -397 
L 1369 4416 
L 622 4416 
L 622 4863 
L 1947 4863 
z
" transform="scale(0.015625)"/>
      </defs>
      <use xlink:href="#DejaVuSans-4c"/>
      <use xlink:href="#DejaVuSans-65" x="53.962891"/>
      <use xlink:href="#DejaVuSans-76" x="115.486328"/>
      <use xlink:href="#DejaVuSans-65" x="174.666016"/>
      <use xlink:href="#DejaVuSans-6c" x="236.189453"/>
      <use xlink:href="#DejaVuSans-20" x="263.972656"/>
      <use xlink:href="#DejaVuSans-5b" x="295.759766"/>
      <use xlink:href="#DejaVuSans-64" x="334.773438"/>
      <use xlink:href="#DejaVuSans-42" x="398.25"/>
      <use xlink:href="#DejaVuSans-20" x="466.853516"/>
      <use xlink:href="#DejaVuSans-53" x="498.640625"/>
      <use xlink:href="#DejaVuSans-50" x="562.117188"/>
      <use xlink:href="#DejaVuSans-4c" x="622.419922"/>
      <use xlink:href="#DejaVuSans-5d" x="678.132812"/>
     </g>
    </g>
   </g>
   <g id="matplotlib.axis_6">
    <g id="ytick_13">
     <g id="line2d_83">
      <path d="M 967.764706 279.12 
L 1296 279.12 
" clip-path="url(#p634638b1f3)" style="fill: none; stroke: #b0b0b0; stroke-width: 0.8; stroke-linecap: square"/>
     </g>
     <g id="line2d_84">
      <g>
       <use xlink:href="#md7c4a304f4" x="967.764706" y="279.12" style="stroke: #000000; stroke-width: 0.8"/>
      </g>
     </g>
     <g id="text_45">
      <!-- 0 -->
      <g transform="translate(954.402206 282.919219) scale(0.1 -0.1)">
       <use xlink:href="#DejaVuSans-30"/>
      </g>
     </g>
    </g>
    <g id="ytick_14">
     <g id="line2d_85">
      <path d="M 967.764706 232.92 
L 1296 232.92 
" clip-path="url(#p634638b1f3)" style="fill: none; stroke: #b0b0b0; stroke-width: 0.8; stroke-linecap: square"/>
     </g>
     <g id="line2d_86">
      <g>
       <use xlink:href="#md7c4a304f4" x="967.764706" y="232.92" style="stroke: #000000; stroke-width: 0.8"/>
      </g>
     </g>
     <g id="text_46">
      <!-- 10 -->
      <g transform="translate(948.039706 236.719219) scale(0.1 -0.1)">
       <use xlink:href="#DejaVuSans-31"/>
       <use xlink:href="#DejaVuSans-30" x="63.623047"/>
      </g>
     </g>
    </g>
    <g id="ytick_15">
     <g id="line2d_87">
      <path d="M 967.764706 186.72 
L 1296 186.72 
" clip-path="url(#p634638b1f3)" style="fill: none; stroke: #b0b0b0; stroke-width: 0.8; stroke-linecap: square"/>
     </g>
     <g id="line2d_88">
      <g>
       <use xlink:href="#md7c4a304f4" x="967.764706" y="186.72" style="stroke: #000000; stroke-width: 0.8"/>
      </g>
     </g>
     <g id="text_47">
      <!-- 20 -->
      <g transform="translate(948.039706 190.519219) scale(0.1 -0.1)">
       <use xlink:href="#DejaVuSans-32"/>
       <use xlink:href="#DejaVuSans-30" x="63.623047"/>
      </g>
     </g>
    </g>
    <g id="ytick_16">
     <g id="line2d_89">
      <path d="M 967.764706 140.52 
L 1296 140.52 
" clip-path="url(#p634638b1f3)" style="fill: none; stroke: #b0b0b0; stroke-width: 0.8; stroke-linecap: square"/>
     </g>
     <g id="line2d_90">
      <g>
       <use xlink:href="#md7c4a304f4" x="967.764706" y="140.52" style="stroke: #000000; stroke-width: 0.8"/>
      </g>
     </g>
     <g id="text_48">
      <!-- 30 -->
      <g transform="translate(948.039706 144.319219) scale(0.1 -0.1)">
       <use xlink:href="#DejaVuSans-33"/>
       <use xlink:href="#DejaVuSans-30" x="63.623047"/>
      </g>
     </g>
    </g>
    <g id="ytick_17">
     <g id="line2d_91">
      <path d="M 967.764706 94.32 
L 1296 94.32 
" clip-path="url(#p634638b1f3)" style="fill: none; stroke: #b0b0b0; stroke-width: 0.8; stroke-linecap: square"/>
     </g>
     <g id="line2d_92">
      <g>
       <use xlink:href="#md7c4a304f4" x="967.764706" y="94.32" style="stroke: #000000; stroke-width: 0.8"/>
      </g>
     </g>
     <g id="text_49">
      <!-- 40 -->
      <g transform="translate(948.039706 98.119219) scale(0.1 -0.1)">
       <use xlink:href="#DejaVuSans-34"/>
       <use xlink:href="#DejaVuSans-30" x="63.623047"/>
      </g>
     </g>
    </g>
    <g id="ytick_18">
     <g id="line2d_93">
      <path d="M 967.764706 48.12 
L 1296 48.12 
" clip-path="url(#p634638b1f3)" style="fill: none; stroke: #b0b0b0; stroke-width: 0.8; stroke-linecap: square"/>
     </g>
     <g id="line2d_94">
      <g>
       <use xlink:href="#md7c4a304f4" x="967.764706" y="48.12" style="stroke: #000000; stroke-width: 0.8"/>
      </g>
     </g>
     <g id="text_50">
      <!-- 50 -->
      <g transform="translate(948.039706 51.919219) scale(0.1 -0.1)">
       <use xlink:href="#DejaVuSans-35"/>
       <use xlink:href="#DejaVuSans-30" x="63.623047"/>
      </g>
     </g>
    </g>
    <g id="text_51">
     <!-- Categorical Units -->
     <g transform="translate(941.960018 206.46375) rotate(-90) scale(0.1 -0.1)">
      <defs>
       <path id="DejaVuSans-43" d="M 4122 4306 
L 4122 3641 
Q 3803 3938 3442 4084 
Q 3081 4231 2675 4231 
Q 1875 4231 1450 3742 
Q 1025 3253 1025 2328 
Q 1025 1406 1450 917 
Q 1875 428 2675 428 
Q 3081 428 3442 575 
Q 3803 722 4122 1019 
L 4122 359 
Q 3791 134 3420 21 
Q 3050 -91 2638 -91 
Q 1578 -91 968 557 
Q 359 1206 359 2328 
Q 359 3453 968 4101 
Q 1578 4750 2638 4750 
Q 3056 4750 3426 4639 
Q 3797 4528 4122 4306 
z
" transform="scale(0.015625)"/>
       <path id="DejaVuSans-67" d="M 2906 1791 
Q 2906 2416 2648 2759 
Q 2391 3103 1925 3103 
Q 1463 3103 1205 2759 
Q 947 2416 947 1791 
Q 947 1169 1205 825 
Q 1463 481 1925 481 
Q 2391 481 2648 825 
Q 2906 1169 2906 1791 
z
M 3481 434 
Q 3481 -459 3084 -895 
Q 2688 -1331 1869 -1331 
Q 1566 -1331 1297 -1286 
Q 1028 -1241 775 -1147 
L 775 -588 
Q 1028 -725 1275 -790 
Q 1522 -856 1778 -856 
Q 2344 -856 2625 -561 
Q 2906 -266 2906 331 
L 2906 616 
Q 2728 306 2450 153 
Q 2172 0 1784 0 
Q 1141 0 747 490 
Q 353 981 353 1791 
Q 353 2603 747 3093 
Q 1141 3584 1784 3584 
Q 2172 3584 2450 3431 
Q 2728 3278 2906 2969 
L 2906 3500 
L 3481 3500 
L 3481 434 
z
" transform="scale(0.015625)"/>
       <path id="DejaVuSans-69" d="M 603 3500 
L 1178 3500 
L 1178 0 
L 603 0 
L 603 3500 
z
M 603 4863 
L 1178 4863 
L 1178 4134 
L 603 4134 
L 603 4863 
z
" transform="scale(0.015625)"/>
       <path id="DejaVuSans-6e" d="M 3513 2113 
L 3513 0 
L 2938 0 
L 2938 2094 
Q 2938 2591 2744 2837 
Q 2550 3084 2163 3084 
Q 1697 3084 1428 2787 
Q 1159 2491 1159 1978 
L 1159 0 
L 581 0 
L 581 3500 
L 1159 3500 
L 1159 2956 
Q 1366 3272 1645 3428 
Q 1925 3584 2291 3584 
Q 2894 3584 3203 3211 
Q 3513 2838 3513 2113 
z
" transform="scale(0.015625)"/>
       <path id="DejaVuSans-73" d="M 2834 3397 
L 2834 2853 
Q 2591 2978 2328 3040 
Q 2066 3103 1784 3103 
Q 1356 3103 1142 2972 
Q 928 2841 928 2578 
Q 928 2378 1081 2264 
Q 1234 2150 1697 2047 
L 1894 2003 
Q 2506 1872 2764 1633 
Q 3022 1394 3022 966 
Q 3022 478 2636 193 
Q 2250 -91 1575 -91 
Q 1294 -91 989 -36 
Q 684 19 347 128 
L 347 722 
Q 666 556 975 473 
Q 1284 391 1588 391 
Q 1994 391 2212 530 
Q 2431 669 2431 922 
Q 2431 1156 2273 1281 
Q 2116 1406 1581 1522 
L 1381 1569 
Q 847 1681 609 1914 
Q 372 2147 372 2553 
Q 372 3047 722 3315 
Q 1072 3584 1716 3584 
Q 2034 3584 2315 3537 
Q 2597 3491 2834 3397 
z
" transform="scale(0.015625)"/>
      </defs>
      <use xlink:href="#DejaVuSans-43"/>
      <use xlink:href="#DejaVuSans-61" x="69.824219"/>
      <use xlink:href="#DejaVuSans-74" x="131.103516"/>
      <use xlink:href="#DejaVuSans-65" x="170.3125"/>
      <use xlink:href="#DejaVuSans-67" x="231.835938"/>
      <use xlink:href="#DejaVuSans-6f" x="295.3125"/>
      <use xlink:href="#DejaVuSans-72" x="356.494141"/>
      <use xlink:href="#DejaVuSans-69" x="397.607422"/>
      <use xlink:href="#DejaVuSans-63" x="425.390625"/>
      <use xlink:href="#DejaVuSans-61" x="480.371094"/>
      <use xlink:href="#DejaVuSans-6c" x="541.650391"/>
      <use xlink:href="#DejaVuSans-20" x="569.433594"/>
      <use xlink:href="#DejaVuSans-55" x="601.220703"/>
      <use xlink:href="#DejaVuSans-6e" x="674.414062"/>
      <use xlink:href="#DejaVuSans-69" x="737.792969"/>
      <use xlink:href="#DejaVuSans-74" x="765.576172"/>
      <use xlink:href="#DejaVuSans-73" x="804.785156"/>
     </g>
    </g>
   </g>
   <g id="line2d_95">
    <path d="M 982.684492 163.62 
L 1281.080214 163.62 
" clip-path="url(#p634638b1f3)" style="fill: none; stroke-dasharray: 1.5,2.475; stroke-dashoffset: 0; stroke: #808080; stroke-width: 1.5"/>
   </g>
   <g id="line2d_96">
    <path d="M 1189.266146 325 
L 1189.266146 -1 
" clip-path="url(#p634638b1f3)" style="fill: none; stroke-dasharray: 5.55,2.4; stroke-dashoffset: 0; stroke: #ff0000; stroke-opacity: 0.3; stroke-width: 1.5"/>
   </g>
   <g id="line2d_97">
    <path d="M 1050.626142 279.12 
L 1052.490253 277.276451 
L 1054.354365 275.432901 
L 1056.218477 273.589352 
L 1058.082589 271.745802 
L 1059.946701 269.902253 
L 1061.810813 268.058703 
L 1063.674925 266.215154 
L 1065.539037 264.371605 
L 1067.403148 262.528055 
L 1069.26726 260.684506 
L 1071.131372 258.840956 
L 1072.995484 256.997407 
L 1074.859596 255.153857 
L 1076.723708 253.310308 
L 1078.58782 251.466759 
L 1080.451932 249.623209 
L 1082.316043 247.77966 
L 1084.180155 245.93611 
L 1086.044267 244.092561 
L 1087.908379 242.249012 
L 1089.772491 240.405462 
L 1091.636603 238.561913 
L 1093.500715 236.718363 
L 1095.364827 234.874814 
L 1097.228938 233.031264 
L 1099.09305 231.187715 
L 1100.957162 229.344166 
L 1102.821274 227.500616 
L 1104.685386 225.657067 
L 1106.549498 223.813517 
L 1108.41361 221.969968 
L 1110.277722 220.126418 
L 1112.141833 218.282869 
L 1114.005945 216.43932 
L 1115.870057 214.59577 
L 1117.734169 212.752221 
L 1119.598281 210.908671 
L 1121.462393 209.063823 
L 1123.326505 207.20605 
L 1125.190617 205.332271 
L 1127.054729 203.442064 
L 1128.91884 201.53499 
L 1130.782952 199.610588 
L 1132.647064 197.668378 
L 1134.511176 195.707856 
L 1136.375288 193.728494 
L 1138.2394 191.729738 
L 1140.103512 189.711007 
L 1141.967624 187.671689 
L 1143.831735 185.611142 
L 1145.695847 183.528688 
L 1147.559959 181.423614 
L 1149.424071 179.295166 
L 1151.288183 177.142547 
L 1153.152295 174.964915 
L 1155.016407 172.761378 
L 1156.880519 170.530988 
L 1158.74463 168.272739 
L 1160.608742 165.985559 
L 1162.472854 163.668309 
L 1164.336966 161.319769 
L 1166.201078 158.938637 
L 1168.06519 156.523517 
L 1169.929302 154.072911 
L 1171.793414 151.585207 
L 1173.657525 149.058666 
L 1175.521637 146.491413 
L 1177.385749 143.881412 
L 1179.249861 141.226454 
L 1181.113973 138.524134 
L 1182.978085 135.771821 
L 1184.842197 132.966635 
L 1186.706309 130.105405 
L 1188.57042 127.184632 
L 1190.434532 124.200437 
L 1192.298644 121.148499 
L 1194.162756 118.023984 
L 1196.026868 114.847894 
L 1197.89098 111.670375 
L 1199.755092 108.492856 
L 1201.619204 105.315338 
L 1203.483315 102.137819 
L 1205.347427 98.9603 
L 1207.211539 95.782781 
L 1209.075651 92.605263 
L 1210.939763 89.427744 
L 1212.803875 86.250225 
L 1214.667987 83.072706 
L 1216.532099 79.895188 
L 1218.39621 76.717669 
L 1220.260322 73.54015 
L 1222.124434 70.362631 
L 1223.988546 67.185113 
L 1225.852658 64.007594 
L 1227.71677 60.830075 
L 1229.580882 57.652556 
L 1231.444994 54.475038 
L 1233.309105 51.297519 
L 1235.173217 48.12 
" clip-path="url(#p634638b1f3)" style="fill: none; stroke: #1f77b4; stroke-width: 1.5; stroke-linecap: square"/>
   </g>
   <g id="line2d_98">
    <path d="M 1038.114286 279.12 
L 1039.850019 277.627597 
L 1041.585751 276.135195 
L 1043.321484 274.642792 
L 1045.057217 273.150389 
L 1046.792949 271.657986 
L 1048.528682 270.165584 
L 1050.264415 268.673181 
L 1052.000147 267.180778 
L 1053.73588 265.688376 
L 1055.471613 264.195973 
L 1057.207345 262.70357 
L 1058.943078 261.211168 
L 1060.678811 259.718765 
L 1062.414543 258.226362 
L 1064.150276 256.733959 
L 1065.886009 255.241557 
L 1067.621741 253.749154 
L 1069.357474 252.256751 
L 1071.093207 250.764349 
L 1072.82894 249.271946 
L 1074.564672 247.779543 
L 1076.300405 246.287141 
L 1078.036138 244.794738 
L 1079.77187 243.302335 
L 1081.507603 241.809932 
L 1083.243336 240.31753 
L 1084.979068 238.825127 
L 1086.714801 237.332724 
L 1088.450534 235.840322 
L 1090.186266 234.347919 
L 1091.921999 232.855516 
L 1093.657732 231.363113 
L 1095.393464 229.870711 
L 1097.129197 228.378308 
L 1098.86493 226.885905 
L 1100.600663 225.393503 
L 1102.336395 223.9011 
L 1104.072128 222.408697 
L 1105.807861 220.916295 
L 1107.543593 219.423892 
L 1109.279326 217.931489 
L 1111.015059 216.439086 
L 1112.750791 214.946684 
L 1114.486524 213.454281 
L 1116.222257 211.961878 
L 1117.957989 210.469476 
L 1119.693722 208.974283 
L 1121.429455 207.463002 
L 1123.165187 205.933347 
L 1124.90092 204.384634 
L 1126.636653 202.81613 
L 1128.372385 201.227058 
L 1130.108118 199.616585 
L 1131.843851 197.983824 
L 1133.579584 196.327823 
L 1135.315316 194.64756 
L 1137.051049 192.941937 
L 1138.786782 191.209769 
L 1140.522514 189.449777 
L 1142.258247 187.660575 
L 1143.99398 185.840659 
L 1145.729712 183.988391 
L 1147.465445 182.101981 
L 1149.201178 180.17947 
L 1150.93691 178.2187 
L 1152.672643 176.217294 
L 1154.408376 174.172614 
L 1156.144108 172.081726 
L 1157.879841 169.941348 
L 1159.615574 167.74779 
L 1161.351306 165.49688 
L 1163.087039 163.183869 
L 1164.822772 160.803314 
L 1166.558505 158.348929 
L 1168.294237 155.813384 
L 1170.02997 153.188055 
L 1171.765703 150.462669 
L 1173.501435 147.62483 
L 1175.237168 144.659353 
L 1176.972901 141.547288 
L 1178.708633 138.264476 
L 1180.444366 134.779288 
L 1182.180099 131.048929 
L 1183.915831 127.012981 
L 1185.651564 122.581196 
L 1187.387297 117.607596 
L 1189.123029 112.26285 
L 1190.858762 106.917613 
L 1192.594495 101.572375 
L 1194.330227 96.227138 
L 1196.06596 90.8819 
L 1197.801693 85.536663 
L 1199.537426 80.191425 
L 1201.273158 74.846188 
L 1203.008891 69.50095 
L 1204.744624 64.155713 
L 1206.480356 58.810475 
L 1208.216089 53.465238 
L 1209.951822 48.12 
" clip-path="url(#p634638b1f3)" style="fill: none; stroke-dasharray: 5.55,2.4; stroke-dashoffset: 0; stroke: #ff7f0e; stroke-width: 1.5"/>
   </g>
   <g id="line2d_99">
    <path d="M 1037.449318 279.12 
L 1039.028918 277.825902 
L 1040.608518 276.531805 
L 1042.188118 275.237707 
L 1043.767718 273.943609 
L 1045.347318 272.649512 
L 1046.926917 271.355414 
L 1048.506517 270.061316 
L 1050.086117 268.767219 
L 1051.665717 267.473121 
L 1053.245317 266.179024 
L 1054.824917 264.884926 
L 1056.404516 263.590828 
L 1057.984116 262.296731 
L 1059.563716 261.002633 
L 1061.143316 259.708535 
L 1062.722916 258.414438 
L 1064.302516 257.12034 
L 1065.882115 255.826242 
L 1067.461715 254.532145 
L 1069.041315 253.238047 
L 1070.620915 251.943949 
L 1072.200515 250.649852 
L 1073.780115 249.355754 
L 1075.359714 248.061656 
L 1076.939314 246.767559 
L 1078.518914 245.473461 
L 1080.098514 244.179363 
L 1081.678114 242.885266 
L 1083.257714 241.591168 
L 1084.837313 240.297071 
L 1086.416913 239.002973 
L 1087.996513 237.708875 
L 1089.576113 236.414778 
L 1091.155713 235.12068 
L 1092.735313 233.826582 
L 1094.314912 232.532485 
L 1095.894512 231.238387 
L 1097.474112 229.944289 
L 1099.053712 228.650192 
L 1100.633312 227.356094 
L 1102.212912 226.061996 
L 1103.792511 224.767899 
L 1105.372111 223.473801 
L 1106.951711 222.179703 
L 1108.531311 220.885606 
L 1110.110911 219.591508 
L 1111.690511 218.29741 
L 1113.27011 217.003313 
L 1114.84971 215.709215 
L 1116.42931 214.415118 
L 1118.00891 213.12102 
L 1119.58851 211.826922 
L 1121.16811 210.532825 
L 1122.747709 209.237089 
L 1124.327309 207.927363 
L 1125.906909 206.600572 
L 1127.486509 205.25603 
L 1129.066109 203.893006 
L 1130.645709 202.510716 
L 1132.225308 201.10832 
L 1133.804908 199.684912 
L 1135.384508 198.23952 
L 1136.964108 196.771093 
L 1138.543708 195.278492 
L 1140.123308 193.760484 
L 1141.702907 192.215723 
L 1143.282507 190.642746 
L 1144.862107 189.039945 
L 1146.441707 187.405558 
L 1148.021307 185.737639 
L 1149.600906 184.034038 
L 1151.180506 182.29236 
L 1152.760106 180.509931 
L 1154.339706 178.683752 
L 1155.919306 176.810431 
L 1157.498906 174.886119 
L 1159.078505 172.906409 
L 1160.658105 170.866224 
L 1162.237705 168.759656 
L 1163.817305 166.579772 
L 1165.396905 164.318336 
L 1166.976505 161.965449 
L 1168.556104 159.509027 
L 1170.135704 156.934067 
L 1171.715304 154.221548 
L 1173.294904 151.346742 
L 1174.874504 148.276484 
L 1176.454104 144.964494 
L 1178.033703 141.342704 
L 1179.613303 137.30346 
L 1181.192903 132.65703 
L 1182.772503 127.002539 
L 1184.352103 119.084686 
L 1185.931703 107.359149 
L 1187.511302 95.511319 
L 1189.090902 83.663489 
L 1190.670502 71.81566 
L 1192.250102 59.96783 
L 1193.829702 48.12 
" clip-path="url(#p634638b1f3)" style="fill: none; stroke-dasharray: 5.55,2.4; stroke-dashoffset: 0; stroke: #2ca02c; stroke-width: 1.5"/>
   </g>
   <g id="patch_15">
    <path d="M 967.764706 288.36 
L 967.764706 38.88 
" style="fill: none; stroke: #000000; stroke-width: 0.8; stroke-linejoin: miter; stroke-linecap: square"/>
   </g>
   <g id="patch_16">
    <path d="M 1296 288.36 
L 1296 38.88 
" style="fill: none; stroke: #000000; stroke-width: 0.8; stroke-linejoin: miter; stroke-linecap: square"/>
   </g>
   <g id="patch_17">
    <path d="M 967.764706 288.36 
L 1296 288.36 
" style="fill: none; stroke: #000000; stroke-width: 0.8; stroke-linejoin: miter; stroke-linecap: square"/>
   </g>
   <g id="patch_18">
    <path d="M 967.764706 38.88 
L 1296 38.88 
" style="fill: none; stroke: #000000; stroke-width: 0.8; stroke-linejoin: miter; stroke-linecap: square"/>
   </g>
   <g id="text_52">
    <!--  Block: 2 -->
    <g transform="translate(1106.001728 32.88) scale(0.12 -0.12)">
     <use xlink:href="#DejaVuSans-20"/>
     <use xlink:href="#DejaVuSans-42" x="31.787109"/>
     <use xlink:href="#DejaVuSans-6c" x="100.390625"/>
     <use xlink:href="#DejaVuSans-6f" x="128.173828"/>
     <use xlink:href="#DejaVuSans-63" x="189.355469"/>
     <use xlink:href="#DejaVuSans-6b" x="244.335938"/>
     <use xlink:href="#DejaVuSans-3a" x="302.246094"/>
     <use xlink:href="#DejaVuSans-20" x="335.9375"/>
     <use xlink:href="#DejaVuSans-32" x="367.724609"/>
    </g>
   </g>
   <g id="legend_3">
    <g id="patch_19">
     <path d="M 974.764706 106.14875 
L 1105.964706 106.14875 
Q 1107.964706 106.14875 1107.964706 104.14875 
L 1107.964706 45.88 
Q 1107.964706 43.88 1105.964706 43.88 
L 974.764706 43.88 
Q 972.764706 43.88 972.764706 45.88 
L 972.764706 104.14875 
Q 972.764706 106.14875 974.764706 106.14875 
z
" style="fill: #ffffff; opacity: 0.8; stroke: #cccccc; stroke-linejoin: miter"/>
    </g>
    <g id="PathCollection_6">
     <g>
      <use xlink:href="#mceb6b4b600" x="986.764706" y="52.853438" style="stroke: #000000"/>
     </g>
    </g>
    <g id="text_53">
     <!-- Data -->
     <g transform="translate(1004.764706 55.478438) scale(0.1 -0.1)">
      <use xlink:href="#DejaVuSans-44"/>
      <use xlink:href="#DejaVuSans-61" x="77.001953"/>
      <use xlink:href="#DejaVuSans-74" x="138.28125"/>
      <use xlink:href="#DejaVuSans-61" x="177.490234"/>
     </g>
    </g>
    <g id="line2d_100">
     <path d="M 976.764706 66.656563 
L 986.764706 66.656563 
L 996.764706 66.656563 
" style="fill: none; stroke: #1f77b4; stroke-width: 1.5; stroke-linecap: square"/>
    </g>
    <g id="text_54">
     <!-- Artc e:0.2397 -->
     <g transform="translate(1004.764706 70.156563) scale(0.1 -0.1)">
      <use xlink:href="#DejaVuSans-41"/>
      <use xlink:href="#DejaVuSans-72" x="68.408203"/>
      <use xlink:href="#DejaVuSans-74" x="109.521484"/>
      <use xlink:href="#DejaVuSans-63" x="148.730469"/>
      <use xlink:href="#DejaVuSans-20" x="203.710938"/>
      <use xlink:href="#DejaVuSans-65" x="235.498047"/>
      <use xlink:href="#DejaVuSans-3a" x="297.021484"/>
      <use xlink:href="#DejaVuSans-30" x="330.712891"/>
      <use xlink:href="#DejaVuSans-2e" x="394.335938"/>
      <use xlink:href="#DejaVuSans-32" x="426.123047"/>
      <use xlink:href="#DejaVuSans-33" x="489.746094"/>
      <use xlink:href="#DejaVuSans-39" x="553.369141"/>
      <use xlink:href="#DejaVuSans-37" x="616.992188"/>
     </g>
    </g>
    <g id="line2d_101">
     <path d="M 976.764706 81.334688 
L 986.764706 81.334688 
L 996.764706 81.334688 
" style="fill: none; stroke-dasharray: 5.55,2.4; stroke-dashoffset: 0; stroke: #ff7f0e; stroke-width: 1.5"/>
    </g>
    <g id="text_55">
     <!-- NEL_BTUX e:0.1992 -->
     <g transform="translate(1004.764706 84.834688) scale(0.1 -0.1)">
      <use xlink:href="#DejaVuSans-4e"/>
      <use xlink:href="#DejaVuSans-45" x="74.804688"/>
      <use xlink:href="#DejaVuSans-4c" x="137.988281"/>
      <use xlink:href="#DejaVuSans-5f" x="193.701172"/>
      <use xlink:href="#DejaVuSans-42" x="243.701172"/>
      <use xlink:href="#DejaVuSans-54" x="312.304688"/>
      <use xlink:href="#DejaVuSans-55" x="373.388672"/>
      <use xlink:href="#DejaVuSans-58" x="446.582031"/>
      <use xlink:href="#DejaVuSans-20" x="515.087891"/>
      <use xlink:href="#DejaVuSans-65" x="546.875"/>
      <use xlink:href="#DejaVuSans-3a" x="608.398438"/>
      <use xlink:href="#DejaVuSans-30" x="642.089844"/>
      <use xlink:href="#DejaVuSans-2e" x="705.712891"/>
      <use xlink:href="#DejaVuSans-31" x="737.5"/>
      <use xlink:href="#DejaVuSans-39" x="801.123047"/>
      <use xlink:href="#DejaVuSans-39" x="864.746094"/>
      <use xlink:href="#DejaVuSans-32" x="928.369141"/>
     </g>
    </g>
    <g id="line2d_102">
     <path d="M 976.764706 96.290938 
L 986.764706 96.290938 
L 996.764706 96.290938 
" style="fill: none; stroke-dasharray: 5.55,2.4; stroke-dashoffset: 0; stroke: #2ca02c; stroke-width: 1.5"/>
    </g>
    <g id="text_56">
     <!-- NEL_BTX e:0.1686 -->
     <g transform="translate(1004.764706 99.790938) scale(0.1 -0.1)">
      <use xlink:href="#DejaVuSans-4e"/>
      <use xlink:href="#DejaVuSans-45" x="74.804688"/>
      <use xlink:href="#DejaVuSans-4c" x="137.988281"/>
      <use xlink:href="#DejaVuSans-5f" x="193.701172"/>
      <use xlink:href="#DejaVuSans-42" x="243.701172"/>
      <use xlink:href="#DejaVuSans-54" x="312.304688"/>
      <use xlink:href="#DejaVuSans-58" x="373.388672"/>
      <use xlink:href="#DejaVuSans-20" x="441.894531"/>
      <use xlink:href="#DejaVuSans-65" x="473.681641"/>
      <use xlink:href="#DejaVuSans-3a" x="535.205078"/>
      <use xlink:href="#DejaVuSans-30" x="568.896484"/>
      <use xlink:href="#DejaVuSans-2e" x="632.519531"/>
      <use xlink:href="#DejaVuSans-31" x="664.306641"/>
      <use xlink:href="#DejaVuSans-36" x="727.929688"/>
      <use xlink:href="#DejaVuSans-38" x="791.552734"/>
      <use xlink:href="#DejaVuSans-36" x="855.175781"/>
     </g>
    </g>
   </g>
  </g>
  <g id="text_57">
   <!-- ID: 4984, Max level: 80dB -->
   <g transform="translate(655.440625 14.078438) scale(0.1 -0.1)">
    <defs>
     <path id="DejaVuSans-49" d="M 628 4666 
L 1259 4666 
L 1259 0 
L 628 0 
L 628 4666 
z
" transform="scale(0.015625)"/>
     <path id="DejaVuSans-2c" d="M 750 794 
L 1409 794 
L 1409 256 
L 897 -744 
L 494 -744 
L 750 256 
L 750 794 
z
" transform="scale(0.015625)"/>
     <path id="DejaVuSans-4d" d="M 628 4666 
L 1569 4666 
L 2759 1491 
L 3956 4666 
L 4897 4666 
L 4897 0 
L 4281 0 
L 4281 4097 
L 3078 897 
L 2444 897 
L 1241 4097 
L 1241 0 
L 628 0 
L 628 4666 
z
" transform="scale(0.015625)"/>
     <path id="DejaVuSans-78" d="M 3513 3500 
L 2247 1797 
L 3578 0 
L 2900 0 
L 1881 1375 
L 863 0 
L 184 0 
L 1544 1831 
L 300 3500 
L 978 3500 
L 1906 2253 
L 2834 3500 
L 3513 3500 
z
" transform="scale(0.015625)"/>
    </defs>
    <use xlink:href="#DejaVuSans-49"/>
    <use xlink:href="#DejaVuSans-44" x="29.492188"/>
    <use xlink:href="#DejaVuSans-3a" x="106.494141"/>
    <use xlink:href="#DejaVuSans-20" x="140.185547"/>
    <use xlink:href="#DejaVuSans-34" x="171.972656"/>
    <use xlink:href="#DejaVuSans-39" x="235.595703"/>
    <use xlink:href="#DejaVuSans-38" x="299.21875"/>
    <use xlink:href="#DejaVuSans-34" x="362.841797"/>
    <use xlink:href="#DejaVuSans-2c" x="426.464844"/>
    <use xlink:href="#DejaVuSans-20" x="458.251953"/>
    <use xlink:href="#DejaVuSans-4d" x="490.039062"/>
    <use xlink:href="#DejaVuSans-61" x="576.318359"/>
    <use xlink:href="#DejaVuSans-78" x="637.597656"/>
    <use xlink:href="#DejaVuSans-20" x="696.777344"/>
    <use xlink:href="#DejaVuSans-6c" x="728.564453"/>
    <use xlink:href="#DejaVuSans-65" x="756.347656"/>
    <use xlink:href="#DejaVuSans-76" x="817.871094"/>
    <use xlink:href="#DejaVuSans-65" x="877.050781"/>
    <use xlink:href="#DejaVuSans-6c" x="938.574219"/>
    <use xlink:href="#DejaVuSans-3a" x="966.357422"/>
    <use xlink:href="#DejaVuSans-20" x="1000.048828"/>
    <use xlink:href="#DejaVuSans-38" x="1031.835938"/>
    <use xlink:href="#DejaVuSans-30" x="1095.458984"/>
    <use xlink:href="#DejaVuSans-64" x="1159.082031"/>
    <use xlink:href="#DejaVuSans-42" x="1222.558594"/>
   </g>
  </g>
 </g>
 <defs>
  <clipPath id="p2e4cbf3bd6">
   <rect x="180" y="38.88" width="328.235294" height="249.48"/>
  </clipPath>
  <clipPath id="p817e1e1903">
   <rect x="573.882353" y="38.88" width="328.235294" height="249.48"/>
  </clipPath>
  <clipPath id="p634638b1f3">
   <rect x="967.764706" y="38.88" width="328.235294" height="249.48"/>
  </clipPath>
 </defs>
</svg>
